G04*
G04 #@! TF.GenerationSoftware,Altium Limited,Altium Designer,19.1.7 (138)*
G04*
G04 Layer_Color=8388736*
%FSLAX44Y44*%
%MOMM*%
G71*
G01*
G75*
%ADD14C,0.2000*%
%ADD19R,6.4000X5.6000*%
%ADD20R,5.6000X6.4000*%
%ADD45R,1.3000X1.2000*%
%ADD46R,1.2000X1.3000*%
%ADD47O,2.9000X1.1000*%
%ADD48R,3.0162X3.1432*%
%ADD49R,3.3000X5.8000*%
%ADD50R,3.6000X3.4000*%
%ADD51R,2.1000X1.5000*%
%ADD52R,3.6000X1.3000*%
%ADD53R,1.0500X1.3000*%
%ADD54R,1.0500X1.5000*%
%ADD55R,3.4000X3.6000*%
%ADD56R,3.0000X4.6000*%
%ADD57R,1.3000X1.0500*%
%ADD58R,1.5000X1.0500*%
%ADD59R,1.5000X2.1000*%
%ADD60R,1.4000X1.7000*%
%ADD61R,1.2500X1.0000*%
%ADD62R,1.9500X5.6000*%
%ADD63R,1.3000X3.6000*%
%ADD64R,4.6000X3.0000*%
%ADD65O,1.1000X2.9000*%
%ADD66O,2.3000X1.0000*%
%ADD67R,3.1432X3.0162*%
%ADD68R,2.4000X0.9300*%
%ADD69C,1.9000*%
%ADD70R,1.9000X1.9000*%
%ADD71C,2.3000*%
%ADD72C,1.9240*%
%ADD73C,2.7000*%
%ADD74R,2.7000X2.7000*%
%ADD75R,2.7000X2.7000*%
%ADD76C,1.8000*%
%ADD77C,1.7000*%
%ADD78C,6.4000*%
%ADD79R,1.9000X1.9000*%
D14*
X797560Y870328D02*
Y862330D01*
Y870328D02*
X802511D01*
X797560Y866520D02*
X800607D01*
X808758Y869186D02*
X807996Y869947D01*
X806853Y870328D01*
X805330D01*
X804187Y869947D01*
X803425Y869186D01*
Y868424D01*
X803806Y867662D01*
X804187Y867281D01*
X804949Y866900D01*
X807234Y866139D01*
X807996Y865758D01*
X808377Y865377D01*
X808758Y864615D01*
Y863473D01*
X807996Y862711D01*
X806853Y862330D01*
X805330D01*
X804187Y862711D01*
X803425Y863473D01*
X639000Y23998D02*
Y16000D01*
Y23998D02*
X643951D01*
X639000Y20190D02*
X642047D01*
X650198Y22856D02*
X649436Y23617D01*
X648293Y23998D01*
X646770D01*
X645627Y23617D01*
X644865Y22856D01*
Y22094D01*
X645246Y21332D01*
X645627Y20951D01*
X646389Y20570D01*
X648674Y19809D01*
X649436Y19428D01*
X649817Y19047D01*
X650198Y18285D01*
Y17143D01*
X649436Y16381D01*
X648293Y16000D01*
X646770D01*
X645627Y16381D01*
X644865Y17143D01*
D19*
X904000Y110100D02*
D03*
D20*
X986107Y358500D02*
D03*
D45*
X711700Y863048D02*
D03*
Y849048D02*
D03*
X724700Y823048D02*
D03*
Y809048D02*
D03*
X711700Y823048D02*
D03*
Y809048D02*
D03*
X724700Y849052D02*
D03*
Y863052D02*
D03*
X499000Y551002D02*
D03*
Y565002D02*
D03*
X454250Y340498D02*
D03*
Y326498D02*
D03*
X776000Y101998D02*
D03*
Y87998D02*
D03*
X476000Y103002D02*
D03*
Y117002D02*
D03*
X762000Y101998D02*
D03*
Y87998D02*
D03*
X776000Y133998D02*
D03*
Y119998D02*
D03*
X1046000Y442002D02*
D03*
Y428002D02*
D03*
X1151000Y750002D02*
D03*
Y736002D02*
D03*
X1053000Y246998D02*
D03*
Y260998D02*
D03*
X1265008Y625773D02*
D03*
Y639773D02*
D03*
X1151301Y676299D02*
D03*
Y690299D02*
D03*
X1166301Y676299D02*
D03*
Y690299D02*
D03*
X1150252Y602999D02*
D03*
Y616999D02*
D03*
X1167125Y750002D02*
D03*
Y736002D02*
D03*
X1167125Y706498D02*
D03*
Y720498D02*
D03*
X1151301Y720502D02*
D03*
Y706502D02*
D03*
X1258000Y718999D02*
D03*
Y732999D02*
D03*
X1008500Y207002D02*
D03*
Y193002D02*
D03*
X1238000Y718999D02*
D03*
Y732999D02*
D03*
X223000Y307999D02*
D03*
Y321999D02*
D03*
X206000Y554998D02*
D03*
Y568998D02*
D03*
X233500Y555398D02*
D03*
Y569398D02*
D03*
X327000Y750800D02*
D03*
Y764800D02*
D03*
X375500Y736600D02*
D03*
Y750600D02*
D03*
X260500Y764502D02*
D03*
Y750502D02*
D03*
X328000Y703552D02*
D03*
Y689552D02*
D03*
X294500Y652999D02*
D03*
Y666998D02*
D03*
X233000Y517400D02*
D03*
Y531400D02*
D03*
X325500Y554997D02*
D03*
Y568997D02*
D03*
X325500Y534502D02*
D03*
Y520502D02*
D03*
X472000Y841002D02*
D03*
Y827002D02*
D03*
X245300Y750498D02*
D03*
Y764498D02*
D03*
X223000Y719502D02*
D03*
Y705502D02*
D03*
X454250Y405002D02*
D03*
Y419002D02*
D03*
X453000Y682998D02*
D03*
Y668998D02*
D03*
X454250Y353002D02*
D03*
Y367002D02*
D03*
X386000Y530002D02*
D03*
Y544002D02*
D03*
X372000Y388098D02*
D03*
Y402098D02*
D03*
X376000Y707998D02*
D03*
Y693998D02*
D03*
X454250Y379002D02*
D03*
Y393002D02*
D03*
X386000Y446002D02*
D03*
Y460002D02*
D03*
X453000Y452052D02*
D03*
Y466052D02*
D03*
X319000Y827002D02*
D03*
Y841002D02*
D03*
X497150Y826000D02*
D03*
Y840000D02*
D03*
X523000Y825002D02*
D03*
Y839002D02*
D03*
X547800Y826002D02*
D03*
Y840002D02*
D03*
X573200Y825002D02*
D03*
Y839002D02*
D03*
X453000Y580998D02*
D03*
Y566998D02*
D03*
Y555000D02*
D03*
Y541000D02*
D03*
Y606998D02*
D03*
Y592998D02*
D03*
X386051Y605998D02*
D03*
Y591998D02*
D03*
X453000Y503000D02*
D03*
Y517000D02*
D03*
X386500Y504998D02*
D03*
Y490998D02*
D03*
X453000Y783998D02*
D03*
Y769998D02*
D03*
X386000Y580998D02*
D03*
Y566998D02*
D03*
X453000Y477002D02*
D03*
Y491002D02*
D03*
X220000Y555002D02*
D03*
Y569002D02*
D03*
X373897Y515998D02*
D03*
Y501998D02*
D03*
X344702Y827002D02*
D03*
Y841002D02*
D03*
D46*
X673702Y875050D02*
D03*
X687702D02*
D03*
X338998Y583250D02*
D03*
X324998D02*
D03*
X280998Y375000D02*
D03*
X294998D02*
D03*
X816998Y173000D02*
D03*
X802998D02*
D03*
X831998Y197500D02*
D03*
X845998D02*
D03*
X831998Y185500D02*
D03*
X845998D02*
D03*
X846002Y173500D02*
D03*
X832002D02*
D03*
X1113001Y580000D02*
D03*
X1099001D02*
D03*
X1236998Y640000D02*
D03*
X1250998D02*
D03*
X988002Y670950D02*
D03*
X974002D02*
D03*
X1070500Y260400D02*
D03*
X1084500D02*
D03*
X1070500Y245000D02*
D03*
X1084500D02*
D03*
X996250Y485487D02*
D03*
X1010250D02*
D03*
X1237498Y625000D02*
D03*
X1251498D02*
D03*
X963298Y500488D02*
D03*
X977298D02*
D03*
X963298Y485488D02*
D03*
X977298D02*
D03*
X1151748Y662000D02*
D03*
X1165748D02*
D03*
X1182998Y585500D02*
D03*
X1196998D02*
D03*
X1167569Y635000D02*
D03*
X1181569D02*
D03*
X1237040Y592000D02*
D03*
X1251040D02*
D03*
X1016960Y688001D02*
D03*
X1002960D02*
D03*
X1016960Y706001D02*
D03*
X1002960D02*
D03*
X1237040Y607500D02*
D03*
X1251040D02*
D03*
X1017252Y725000D02*
D03*
X1003252D02*
D03*
X1017001Y671000D02*
D03*
X1003001D02*
D03*
X988002Y655000D02*
D03*
X974002D02*
D03*
X993001Y207000D02*
D03*
X979001D02*
D03*
X1225501Y192500D02*
D03*
X1211502D02*
D03*
X1243998Y192500D02*
D03*
X1257998D02*
D03*
X280998Y419000D02*
D03*
X294998D02*
D03*
X346998Y516000D02*
D03*
X360998D02*
D03*
X280998Y405995D02*
D03*
X294998D02*
D03*
X346998Y501000D02*
D03*
X360998D02*
D03*
X280998Y360000D02*
D03*
X294998D02*
D03*
X280998Y390000D02*
D03*
X294998D02*
D03*
X345998Y768750D02*
D03*
X359998D02*
D03*
X215998Y766302D02*
D03*
X229998D02*
D03*
X216498Y751250D02*
D03*
X230498D02*
D03*
X332502Y501000D02*
D03*
X318502D02*
D03*
X230998Y660000D02*
D03*
X244998D02*
D03*
X288001Y501000D02*
D03*
X302001D02*
D03*
X184000Y838200D02*
D03*
X198000D02*
D03*
X214998Y542500D02*
D03*
X200998D02*
D03*
X132998Y168000D02*
D03*
X118998D02*
D03*
X132998Y183000D02*
D03*
X118998D02*
D03*
X132998Y142000D02*
D03*
X118998D02*
D03*
X119002Y155000D02*
D03*
X133002D02*
D03*
X280002Y840000D02*
D03*
X294002D02*
D03*
D47*
X639200Y861100D02*
D03*
Y848400D02*
D03*
Y835700D02*
D03*
Y823000D02*
D03*
X688200Y861100D02*
D03*
Y848400D02*
D03*
Y835700D02*
D03*
Y823000D02*
D03*
X1120500Y671950D02*
D03*
Y684650D02*
D03*
Y697350D02*
D03*
Y710050D02*
D03*
X1071500Y671950D02*
D03*
Y684650D02*
D03*
Y697350D02*
D03*
Y710050D02*
D03*
X1201800Y695349D02*
D03*
Y682649D02*
D03*
Y669949D02*
D03*
Y657249D02*
D03*
X1250800Y695349D02*
D03*
Y682649D02*
D03*
Y669949D02*
D03*
Y657249D02*
D03*
X246000Y729050D02*
D03*
Y716350D02*
D03*
Y703650D02*
D03*
Y690950D02*
D03*
X295000Y729050D02*
D03*
Y716350D02*
D03*
Y703650D02*
D03*
Y690950D02*
D03*
D48*
X253505Y446000D02*
D03*
X300495D02*
D03*
X299495Y315000D02*
D03*
X252505D02*
D03*
D49*
X731000Y218000D02*
D03*
X632000D02*
D03*
X1163094Y339000D02*
D03*
X1064094D02*
D03*
D50*
X712000Y123000D02*
D03*
Y55000D02*
D03*
X1231000Y346000D02*
D03*
Y414000D02*
D03*
X1231340Y478500D02*
D03*
Y546500D02*
D03*
D51*
X765000Y43500D02*
D03*
Y16500D02*
D03*
X788000D02*
D03*
Y43500D02*
D03*
D52*
X805000Y148100D02*
D03*
Y135400D02*
D03*
Y122700D02*
D03*
Y110000D02*
D03*
Y97300D02*
D03*
Y84600D02*
D03*
Y71900D02*
D03*
D53*
X1238500Y240625D02*
D03*
X1257500D02*
D03*
X1257500Y207125D02*
D03*
X1238500D02*
D03*
D54*
X1248000Y261375D02*
D03*
X1248000Y227875D02*
D03*
D55*
X951000Y543000D02*
D03*
X1019000D02*
D03*
X1055000Y624373D02*
D03*
X1123000D02*
D03*
D56*
X1080000Y430000D02*
D03*
X1144000D02*
D03*
X1079499Y545751D02*
D03*
X1143500D02*
D03*
X1080000Y488500D02*
D03*
X1144000D02*
D03*
D57*
X1220875Y716500D02*
D03*
Y735500D02*
D03*
X1163875Y600500D02*
D03*
Y619500D02*
D03*
X1218875Y619500D02*
D03*
Y600500D02*
D03*
X1023125Y193000D02*
D03*
Y212000D02*
D03*
X360875Y754101D02*
D03*
Y735100D02*
D03*
X278873Y669500D02*
D03*
Y650500D02*
D03*
X361373Y709500D02*
D03*
Y690500D02*
D03*
D58*
X1200125Y726000D02*
D03*
X1184625Y610000D02*
D03*
X1198125Y610000D02*
D03*
X1043875Y202500D02*
D03*
X340125Y744601D02*
D03*
X258123Y660000D02*
D03*
X340623Y700000D02*
D03*
D59*
X1002000Y610000D02*
D03*
X975000D02*
D03*
X1002000Y635000D02*
D03*
X975000D02*
D03*
D60*
X977750Y688001D02*
D03*
X961750D02*
D03*
D61*
X982150Y715000D02*
D03*
X960650Y705500D02*
D03*
Y724500D02*
D03*
D62*
X1070575Y750502D02*
D03*
X1089075D02*
D03*
D63*
X1024100Y457500D02*
D03*
X1011400D02*
D03*
X998700D02*
D03*
X986000D02*
D03*
X973300D02*
D03*
X960600D02*
D03*
X947900D02*
D03*
D64*
X513004Y52001D02*
D03*
Y116001D02*
D03*
X579004Y52001D02*
D03*
Y116001D02*
D03*
X645004Y52001D02*
D03*
Y116001D02*
D03*
D65*
X372050Y477500D02*
D03*
X359350D02*
D03*
X346650D02*
D03*
X333950D02*
D03*
X372050Y428500D02*
D03*
X359350D02*
D03*
X346650D02*
D03*
X333950D02*
D03*
D66*
X301500Y517452D02*
D03*
Y530152D02*
D03*
Y542852D02*
D03*
Y555552D02*
D03*
Y568252D02*
D03*
Y580952D02*
D03*
Y593652D02*
D03*
Y606352D02*
D03*
X254500Y517452D02*
D03*
Y530152D02*
D03*
Y542852D02*
D03*
Y555552D02*
D03*
Y568252D02*
D03*
Y580952D02*
D03*
Y593652D02*
D03*
Y606352D02*
D03*
D67*
X252250Y405995D02*
D03*
Y359005D02*
D03*
D68*
X183600Y732700D02*
D03*
Y720000D02*
D03*
Y707300D02*
D03*
X146400D02*
D03*
Y720000D02*
D03*
Y732700D02*
D03*
D69*
X406300Y809300D02*
D03*
Y783900D02*
D03*
Y758500D02*
D03*
Y733100D02*
D03*
Y707700D02*
D03*
Y682300D02*
D03*
Y656900D02*
D03*
Y631500D02*
D03*
Y606100D02*
D03*
Y580700D02*
D03*
Y555300D02*
D03*
Y529900D02*
D03*
X431700Y809300D02*
D03*
Y783900D02*
D03*
Y758500D02*
D03*
Y733100D02*
D03*
Y707700D02*
D03*
Y682300D02*
D03*
Y656900D02*
D03*
Y631500D02*
D03*
Y606100D02*
D03*
Y580700D02*
D03*
Y555300D02*
D03*
Y529900D02*
D03*
Y326700D02*
D03*
X406300Y352100D02*
D03*
X431700D02*
D03*
X406300Y377500D02*
D03*
X431700D02*
D03*
X406300Y402900D02*
D03*
X431700D02*
D03*
X406300Y428300D02*
D03*
X431700D02*
D03*
X406300Y453700D02*
D03*
X431700D02*
D03*
X406300Y479100D02*
D03*
X431700D02*
D03*
Y504500D02*
D03*
X406300D02*
D03*
X598750Y861504D02*
D03*
X573350D02*
D03*
X547950D02*
D03*
X522550D02*
D03*
X497150D02*
D03*
X209498Y861000D02*
D03*
X234898D02*
D03*
X260298D02*
D03*
X325500Y388700D02*
D03*
X58000Y232600D02*
D03*
X32600Y207200D02*
D03*
X58000D02*
D03*
X32600Y181800D02*
D03*
X58000D02*
D03*
X32600Y156400D02*
D03*
X58000D02*
D03*
X32600Y131000D02*
D03*
X58000D02*
D03*
X370102Y861000D02*
D03*
X344702D02*
D03*
X319302D02*
D03*
D70*
X406300Y326700D02*
D03*
X325500Y363300D02*
D03*
X32600Y232600D02*
D03*
D71*
X163500Y592500D02*
D03*
X153500Y542500D02*
D03*
X1283499Y272800D02*
D03*
X1293499Y372800D02*
D03*
X1001000Y170000D02*
D03*
X1051000Y160000D02*
D03*
X1293500Y811398D02*
D03*
X1283500Y711398D02*
D03*
X1283500Y497500D02*
D03*
X1293500Y547500D02*
D03*
X1156419Y170500D02*
D03*
X1256419Y160500D02*
D03*
X155000Y352500D02*
D03*
X165000Y402500D02*
D03*
X182000Y662000D02*
D03*
X132000Y672000D02*
D03*
D72*
X533400Y330200D02*
D03*
Y355600D02*
D03*
Y406400D02*
D03*
Y508000D02*
D03*
Y482600D02*
D03*
Y457200D02*
D03*
Y431800D02*
D03*
Y381000D02*
D03*
X558800Y635000D02*
D03*
X584200D02*
D03*
X609600D02*
D03*
X635000D02*
D03*
X736600D02*
D03*
X711200D02*
D03*
X685800D02*
D03*
X660400D02*
D03*
X838200D02*
D03*
X812800D02*
D03*
X787400D02*
D03*
X762000D02*
D03*
X863600D02*
D03*
X889000D02*
D03*
Y660400D02*
D03*
X863600D02*
D03*
X762000D02*
D03*
X787400D02*
D03*
X812800D02*
D03*
X838200D02*
D03*
X660400D02*
D03*
X685800D02*
D03*
X711200D02*
D03*
X736600D02*
D03*
X635000D02*
D03*
X609600D02*
D03*
X584200D02*
D03*
X558800D02*
D03*
X889000Y685800D02*
D03*
X863600D02*
D03*
X762000D02*
D03*
X787400D02*
D03*
X812800D02*
D03*
X838200D02*
D03*
X660400D02*
D03*
X685800D02*
D03*
X711200D02*
D03*
X736600D02*
D03*
X635000D02*
D03*
X609600D02*
D03*
X584200D02*
D03*
X558800D02*
D03*
X889000Y711200D02*
D03*
X863600D02*
D03*
X762000D02*
D03*
X787400D02*
D03*
X812800D02*
D03*
X838200D02*
D03*
X660400D02*
D03*
X685800D02*
D03*
X711200D02*
D03*
X736600D02*
D03*
X635000D02*
D03*
X609600D02*
D03*
X584200D02*
D03*
X558800D02*
D03*
Y533400D02*
D03*
X584200D02*
D03*
X609600D02*
D03*
X635000D02*
D03*
X736600D02*
D03*
X711200D02*
D03*
X685800D02*
D03*
X660400D02*
D03*
X838200D02*
D03*
X812800D02*
D03*
X787400D02*
D03*
X762000D02*
D03*
X863600D02*
D03*
X889000D02*
D03*
Y558800D02*
D03*
X863600D02*
D03*
X762000D02*
D03*
X787400D02*
D03*
X812800D02*
D03*
X838200D02*
D03*
X660400D02*
D03*
X685800D02*
D03*
X711200D02*
D03*
X736600D02*
D03*
X635000D02*
D03*
X609600D02*
D03*
X584200D02*
D03*
X558800D02*
D03*
X889000Y584200D02*
D03*
X863600D02*
D03*
X762000D02*
D03*
X787400D02*
D03*
X812800D02*
D03*
X838200D02*
D03*
X660400D02*
D03*
X685800D02*
D03*
X711200D02*
D03*
X736600D02*
D03*
X635000D02*
D03*
X609600D02*
D03*
X584200D02*
D03*
X558800D02*
D03*
X889000Y609600D02*
D03*
X863600D02*
D03*
X762000D02*
D03*
X787400D02*
D03*
X812800D02*
D03*
X838200D02*
D03*
X660400D02*
D03*
X685800D02*
D03*
X711200D02*
D03*
X736600D02*
D03*
X635000D02*
D03*
X609600D02*
D03*
X584200D02*
D03*
X558800D02*
D03*
Y431800D02*
D03*
X584200D02*
D03*
X609600D02*
D03*
X635000D02*
D03*
X736600D02*
D03*
X711200D02*
D03*
X685800D02*
D03*
X660400D02*
D03*
X838200D02*
D03*
X812800D02*
D03*
X787400D02*
D03*
X762000D02*
D03*
X863600D02*
D03*
X889000D02*
D03*
Y457200D02*
D03*
X863600D02*
D03*
X762000D02*
D03*
X787400D02*
D03*
X812800D02*
D03*
X838200D02*
D03*
X660400D02*
D03*
X685800D02*
D03*
X711200D02*
D03*
X736600D02*
D03*
X635000D02*
D03*
X609600D02*
D03*
X584200D02*
D03*
X558800D02*
D03*
X889000Y482600D02*
D03*
X863600D02*
D03*
X762000D02*
D03*
X787400D02*
D03*
X812800D02*
D03*
X838200D02*
D03*
X660400D02*
D03*
X685800D02*
D03*
X711200D02*
D03*
X736600D02*
D03*
X635000D02*
D03*
X609600D02*
D03*
X584200D02*
D03*
X558800D02*
D03*
X889000Y508000D02*
D03*
X863600D02*
D03*
X762000D02*
D03*
X787400D02*
D03*
X812800D02*
D03*
X838200D02*
D03*
X660400D02*
D03*
X685800D02*
D03*
X711200D02*
D03*
X736600D02*
D03*
X635000D02*
D03*
X609600D02*
D03*
X584200D02*
D03*
X558800D02*
D03*
Y406400D02*
D03*
X584200D02*
D03*
X609600D02*
D03*
X635000D02*
D03*
X736600D02*
D03*
X711200D02*
D03*
X685800D02*
D03*
X660400D02*
D03*
X838200D02*
D03*
X812800D02*
D03*
X787400D02*
D03*
X762000D02*
D03*
X863600D02*
D03*
X889000D02*
D03*
X558800Y381000D02*
D03*
X584200D02*
D03*
X609600D02*
D03*
X635000D02*
D03*
X736600D02*
D03*
X711200D02*
D03*
X685800D02*
D03*
X660400D02*
D03*
X838200D02*
D03*
X812800D02*
D03*
X787400D02*
D03*
X762000D02*
D03*
X863600D02*
D03*
X889000D02*
D03*
X558800Y355600D02*
D03*
X584200D02*
D03*
X609600D02*
D03*
X635000D02*
D03*
X736600D02*
D03*
X711200D02*
D03*
X685800D02*
D03*
X660400D02*
D03*
X838200D02*
D03*
X812800D02*
D03*
X787400D02*
D03*
X762000D02*
D03*
X863600D02*
D03*
X889000D02*
D03*
Y330200D02*
D03*
X863600D02*
D03*
X762000D02*
D03*
X787400D02*
D03*
X812800D02*
D03*
X838200D02*
D03*
X660400D02*
D03*
X685800D02*
D03*
X711200D02*
D03*
X736600D02*
D03*
X635000D02*
D03*
X609600D02*
D03*
X584200D02*
D03*
X558800D02*
D03*
D73*
X968500Y810000D02*
D03*
X1081000Y810000D02*
D03*
X1043500Y80000D02*
D03*
X1193500Y810000D02*
D03*
X1361000Y783802D02*
D03*
X1361000Y665000D02*
D03*
X1361000Y306600D02*
D03*
Y271601D02*
D03*
Y236600D02*
D03*
X1253499Y80000D02*
D03*
X1218500D02*
D03*
X1183499D02*
D03*
X1288500D02*
D03*
X1323500D02*
D03*
X1361000Y397499D02*
D03*
Y432500D02*
D03*
Y467499D02*
D03*
X79750Y512501D02*
D03*
Y547500D02*
D03*
Y582501D02*
D03*
X80000Y397501D02*
D03*
Y362500D02*
D03*
Y327501D02*
D03*
X80000Y754102D02*
D03*
Y719103D02*
D03*
D74*
X1003500Y810000D02*
D03*
X1116000Y810000D02*
D03*
X1008500Y80000D02*
D03*
X1228500Y810000D02*
D03*
X1148500Y80000D02*
D03*
D75*
X1361000Y748802D02*
D03*
X1361000Y630000D02*
D03*
X1361000Y201601D02*
D03*
Y362501D02*
D03*
X79750Y617499D02*
D03*
X80000Y432500D02*
D03*
X80000Y789103D02*
D03*
D76*
X1207848Y247026D02*
D03*
X1175848D02*
D03*
X1153848D02*
D03*
X1131848D02*
D03*
Y215025D02*
D03*
X1153848D02*
D03*
X1175848D02*
D03*
X1207848D02*
D03*
D77*
X1321000Y872500D02*
D03*
X1353500Y872500D02*
D03*
D78*
X1406000Y35000D02*
D03*
Y855000D02*
D03*
X909000Y858000D02*
D03*
X419000D02*
D03*
X909000Y278000D02*
D03*
X419000D02*
D03*
X35000Y35000D02*
D03*
Y855000D02*
D03*
D79*
X471750Y861504D02*
D03*
X184098Y861000D02*
D03*
X293902D02*
D03*
M02*
