G04*
G04 #@! TF.GenerationSoftware,Altium Limited,Altium Designer,19.1.7 (138)*
G04*
G04 Layer_Physical_Order=2*
G04 Layer_Color=16711680*
%FSLAX44Y44*%
%MOMM*%
G71*
G01*
G75*
%ADD11C,0.2500*%
%ADD13C,0.2540*%
%ADD15C,0.3000*%
%ADD69C,1.9000*%
%ADD82C,0.5000*%
%ADD83C,1.0000*%
%ADD86C,1.5000*%
%ADD87R,1.5000X1.5000*%
%ADD88C,0.6000*%
%ADD89C,1.5240*%
%ADD90C,2.3000*%
%ADD91R,2.3000X2.3000*%
%ADD92R,2.3000X2.3000*%
%ADD93C,1.4000*%
%ADD94C,1.6000*%
%ADD95C,6.0000*%
%ADD96R,1.5000X1.5000*%
%ADD97C,0.7000*%
G36*
X1440000Y862322D02*
X1438730Y862171D01*
X1437959Y865384D01*
X1435941Y870256D01*
X1433186Y874752D01*
X1429761Y878761D01*
X1425751Y882186D01*
X1421256Y884941D01*
X1416384Y886959D01*
X1411257Y888190D01*
X1406000Y888603D01*
X1400743Y888190D01*
X1395616Y886959D01*
X1390744Y884941D01*
X1386248Y882186D01*
X1382238Y878761D01*
X1378814Y874752D01*
X1376059Y870256D01*
X1374041Y865384D01*
X1372810Y860257D01*
X1372396Y855000D01*
X1372810Y849743D01*
X1374041Y844616D01*
X1376059Y839744D01*
X1378814Y835248D01*
X1382238Y831238D01*
X1386248Y827814D01*
X1390744Y825059D01*
X1395616Y823041D01*
X1400743Y821810D01*
X1406000Y821396D01*
X1411257Y821810D01*
X1416384Y823041D01*
X1421256Y825059D01*
X1425751Y827814D01*
X1429761Y831238D01*
X1433186Y835248D01*
X1435941Y839744D01*
X1437959Y844616D01*
X1438730Y847828D01*
X1440000Y847678D01*
Y42322D01*
X1438730Y42172D01*
X1437959Y45384D01*
X1435941Y50256D01*
X1433186Y54752D01*
X1429761Y58761D01*
X1425751Y62186D01*
X1421256Y64941D01*
X1416384Y66959D01*
X1411257Y68190D01*
X1406000Y68603D01*
X1400743Y68190D01*
X1395616Y66959D01*
X1390744Y64941D01*
X1386248Y62186D01*
X1382238Y58761D01*
X1378814Y54752D01*
X1376059Y50256D01*
X1374041Y45384D01*
X1372810Y40257D01*
X1372396Y35000D01*
X1372810Y29743D01*
X1374041Y24616D01*
X1376059Y19744D01*
X1378814Y15248D01*
X1382238Y11239D01*
X1386248Y7814D01*
X1390744Y5059D01*
X1395616Y3041D01*
X1400743Y1810D01*
X1406000Y1396D01*
X1411257Y1810D01*
X1416384Y3041D01*
X1421256Y5059D01*
X1425751Y7814D01*
X1429761Y11239D01*
X1433186Y15248D01*
X1435941Y19744D01*
X1437959Y24616D01*
X1438730Y27828D01*
X1440000Y27678D01*
Y0D01*
X0D01*
Y890000D01*
X405397D01*
X405649Y888730D01*
X403744Y887941D01*
X399248Y885186D01*
X395239Y881761D01*
X391814Y877752D01*
X389059Y873256D01*
X387041Y868384D01*
X385810Y863257D01*
X385396Y858000D01*
X385810Y852743D01*
X387041Y847616D01*
X389059Y842744D01*
X391814Y838248D01*
X395239Y834239D01*
X399248Y830814D01*
X403744Y828059D01*
X408616Y826041D01*
X413743Y824810D01*
X419000Y824396D01*
X421864Y824622D01*
X422395Y823468D01*
X415688Y816761D01*
X414400Y816813D01*
X414145Y817145D01*
X411847Y818908D01*
X409172Y820017D01*
X406300Y820395D01*
X403428Y820017D01*
X400753Y818908D01*
X398993Y817558D01*
X397514Y817637D01*
X397312Y817742D01*
X396831Y818369D01*
X395368Y819491D01*
X393666Y820197D01*
X391838Y820437D01*
X390011Y820197D01*
X388308Y819491D01*
X386846Y818369D01*
X386731Y818220D01*
X370629D01*
X362036Y826813D01*
X362060Y827000D01*
X361820Y828827D01*
X361115Y830530D01*
X359992Y831992D01*
X358530Y833114D01*
X356827Y833820D01*
X355000Y834060D01*
X353173Y833820D01*
X351470Y833114D01*
X350008Y831992D01*
X348885Y830530D01*
X348180Y828827D01*
X347940Y827000D01*
X348180Y825173D01*
X348885Y823470D01*
X350008Y822008D01*
X351470Y820885D01*
X353173Y820180D01*
X355000Y819940D01*
X355187Y819964D01*
X365199Y809952D01*
X366770Y808902D01*
X368623Y808534D01*
X386731D01*
X386846Y808384D01*
X388308Y807262D01*
X390011Y806557D01*
X391838Y806316D01*
X393666Y806557D01*
X394253Y806800D01*
X395583Y806428D01*
X396253Y804812D01*
X395612Y803172D01*
X395469Y803113D01*
X394144Y802096D01*
X340113D01*
X326038Y816172D01*
X325820Y817827D01*
X325115Y819530D01*
X323992Y820992D01*
X322530Y822114D01*
X320827Y822820D01*
X319000Y823060D01*
X317173Y822820D01*
X315470Y822114D01*
X314008Y820992D01*
X312885Y819530D01*
X312180Y817827D01*
X311940Y816000D01*
X312180Y814173D01*
X312885Y812470D01*
X314008Y811008D01*
X315470Y809885D01*
X317173Y809180D01*
X318828Y808962D01*
X334397Y793394D01*
X336051Y792289D01*
X338002Y791900D01*
X394144D01*
X395469Y790884D01*
X396018Y790656D01*
X396265Y790214D01*
X396534Y789068D01*
X395583Y786772D01*
X395205Y783900D01*
X395583Y781029D01*
X396692Y778353D01*
X396765Y778257D01*
X396203Y777118D01*
X367163D01*
X364822Y776652D01*
X362838Y775326D01*
X361629Y774118D01*
X334525D01*
X334195Y774611D01*
X333848Y775388D01*
X334060Y777000D01*
X333820Y778827D01*
X333115Y780530D01*
X331992Y781992D01*
X330530Y783114D01*
X328827Y783820D01*
X327000Y784060D01*
X325173Y783820D01*
X323470Y783114D01*
X322145Y782098D01*
X320809D01*
X320183Y783368D01*
X320491Y783770D01*
X321196Y785472D01*
X321437Y787300D01*
X321196Y789127D01*
X320491Y790830D01*
X319369Y792292D01*
X317906Y793414D01*
X316204Y794119D01*
X314376Y794360D01*
X312549Y794119D01*
X310846Y793414D01*
X309521Y792398D01*
X215355D01*
X214030Y793414D01*
X212327Y794119D01*
X210500Y794360D01*
X208673Y794119D01*
X206970Y793414D01*
X205507Y792292D01*
X204385Y790830D01*
X203680Y789127D01*
X203440Y787300D01*
X203680Y785472D01*
X204385Y783770D01*
X205507Y782307D01*
X206970Y781185D01*
X208673Y780480D01*
X210500Y780239D01*
X212327Y780480D01*
X214030Y781185D01*
X215355Y782202D01*
X223567D01*
X224194Y780932D01*
X223885Y780530D01*
X223180Y778827D01*
X222940Y777000D01*
X223180Y775173D01*
X223885Y773470D01*
X225008Y772008D01*
X226470Y770885D01*
X228173Y770180D01*
X230000Y769940D01*
X231827Y770180D01*
X233530Y770885D01*
X234855Y771902D01*
X286573D01*
X287421Y770632D01*
X287088Y769827D01*
X286847Y768000D01*
X287088Y766173D01*
X287793Y764470D01*
X288915Y763008D01*
X290378Y761886D01*
X292080Y761180D01*
X293908Y760940D01*
X295735Y761180D01*
X297430Y761882D01*
X364163D01*
X366504Y762348D01*
X368489Y763674D01*
X369697Y764883D01*
X395867D01*
X396511Y763613D01*
X395583Y761372D01*
X395205Y758500D01*
X395583Y755629D01*
X396692Y752953D01*
X397907Y751368D01*
X397281Y750098D01*
X396000D01*
X394049Y749710D01*
X392395Y748605D01*
X377888Y734098D01*
X332767D01*
X332271Y735368D01*
X333114Y736468D01*
X333820Y738170D01*
X334060Y739998D01*
X333914Y741110D01*
X334854Y742380D01*
X353153D01*
X353180Y742173D01*
X353885Y740470D01*
X355008Y739008D01*
X356470Y737886D01*
X358173Y737180D01*
X360000Y736940D01*
X361827Y737180D01*
X363530Y737886D01*
X364992Y739008D01*
X366115Y740470D01*
X366820Y742173D01*
X367060Y744000D01*
X366820Y745827D01*
X366115Y747530D01*
X364992Y748992D01*
X363530Y750115D01*
X362756Y750435D01*
X361828Y751824D01*
X360828Y752824D01*
X358843Y754150D01*
X356502Y754615D01*
X297743D01*
X297344Y754922D01*
X295641Y755627D01*
X293814Y755868D01*
X291986Y755627D01*
X290283Y754922D01*
X288821Y753800D01*
X287699Y752337D01*
X286994Y750635D01*
X286753Y748807D01*
X286994Y746980D01*
X287456Y745863D01*
X286724Y744593D01*
X251299D01*
X250992Y744992D01*
X249530Y746115D01*
X247827Y746820D01*
X246000Y747060D01*
X244173Y746820D01*
X242470Y746115D01*
X241007Y744992D01*
X239886Y743530D01*
X239180Y741827D01*
X238947Y740058D01*
X238770Y739928D01*
X237727Y739483D01*
X236605Y740605D01*
X234951Y741710D01*
X233000Y742098D01*
X215112D01*
X213378Y743831D01*
X213461Y745098D01*
X213992Y745506D01*
X215114Y746968D01*
X215820Y748671D01*
X216060Y750498D01*
X215820Y752326D01*
X215114Y754029D01*
X213992Y755491D01*
X212530Y756613D01*
X210827Y757318D01*
X209000Y757559D01*
X207173Y757318D01*
X205470Y756613D01*
X204145Y755596D01*
X188205D01*
X187530Y756115D01*
X185827Y756820D01*
X184000Y757060D01*
X182173Y756820D01*
X180470Y756115D01*
X179007Y754992D01*
X177885Y753530D01*
X177180Y751827D01*
X176940Y750000D01*
X177155Y748368D01*
X176905Y747731D01*
X176482Y747098D01*
X160613D01*
X153438Y754274D01*
X153220Y755929D01*
X152514Y757632D01*
X151392Y759094D01*
X149930Y760216D01*
X148227Y760922D01*
X146400Y761162D01*
X144572Y760922D01*
X142870Y760216D01*
X141545Y759200D01*
X94129D01*
X93926Y759870D01*
X92533Y762476D01*
X90658Y764760D01*
X88374Y766634D01*
X85768Y768027D01*
X82941Y768885D01*
X80000Y769174D01*
X77060Y768885D01*
X74232Y768027D01*
X71626Y766634D01*
X69342Y764760D01*
X67468Y762476D01*
X66075Y759870D01*
X65217Y757042D01*
X64928Y754102D01*
X65217Y751161D01*
X66075Y748334D01*
X67468Y745728D01*
X69342Y743444D01*
X71626Y741570D01*
X74232Y740177D01*
X77060Y739319D01*
X80000Y739029D01*
X82941Y739319D01*
X85768Y740177D01*
X88374Y741570D01*
X90658Y743444D01*
X92533Y745728D01*
X93926Y748334D01*
X94129Y749004D01*
X141545D01*
X142870Y747988D01*
X144572Y747282D01*
X146228Y747064D01*
X154897Y738395D01*
X156551Y737290D01*
X158502Y736902D01*
X205888D01*
X209395Y733395D01*
X211049Y732290D01*
X213000Y731902D01*
X230888D01*
X237395Y725395D01*
X239049Y724290D01*
X241000Y723902D01*
X307223D01*
X307993Y722632D01*
X307556Y721578D01*
X307316Y719751D01*
X307556Y717924D01*
X308262Y716221D01*
X309384Y714759D01*
X310846Y713636D01*
X312549Y712931D01*
X314376Y712691D01*
X316204Y712931D01*
X317906Y713636D01*
X319369Y714759D01*
X319483Y714908D01*
X355137D01*
X356470Y713885D01*
X358173Y713180D01*
X360000Y712940D01*
X361827Y713180D01*
X363530Y713885D01*
X364992Y715008D01*
X365107Y715157D01*
X396721D01*
X397283Y714018D01*
X396692Y713248D01*
X395583Y710572D01*
X395205Y707700D01*
X395583Y704828D01*
X396692Y702153D01*
X397394Y701237D01*
X396832Y700098D01*
X391249D01*
X389298Y699710D01*
X387644Y698605D01*
X375077Y686038D01*
X373422Y685820D01*
X371719Y685115D01*
X370257Y683992D01*
X369134Y682530D01*
X368429Y680827D01*
X368405Y680641D01*
X367202Y680233D01*
X366830Y680605D01*
X365176Y681710D01*
X363225Y682098D01*
X345478D01*
X344153Y683114D01*
X342450Y683820D01*
X340623Y684060D01*
X338796Y683820D01*
X337093Y683114D01*
X335631Y681992D01*
X334509Y680530D01*
X333803Y678827D01*
X333563Y677000D01*
X333803Y675173D01*
X334509Y673470D01*
X334687Y673237D01*
X334126Y672098D01*
X309855D01*
X308530Y673114D01*
X306827Y673820D01*
X305000Y674060D01*
X303173Y673820D01*
X301470Y673114D01*
X300008Y671992D01*
X298885Y670530D01*
X298180Y668827D01*
X297940Y667000D01*
X298180Y665173D01*
X298885Y663470D01*
X300008Y662008D01*
X301470Y660885D01*
X301949Y660687D01*
Y659312D01*
X301468Y659113D01*
X300006Y657991D01*
X298884Y656529D01*
X298179Y654826D01*
X297938Y652999D01*
X298179Y651171D01*
X298884Y649468D01*
X300006Y648006D01*
X301468Y646884D01*
X303171Y646179D01*
X304998Y645938D01*
X306826Y646179D01*
X308521Y646881D01*
X347600D01*
X349296Y646179D01*
X351123Y645938D01*
X352950Y646179D01*
X354653Y646884D01*
X356115Y648006D01*
X357238Y649468D01*
X357943Y651171D01*
X358184Y652999D01*
X357943Y654826D01*
X357238Y656529D01*
X356115Y657991D01*
X354653Y659113D01*
X352950Y659818D01*
X351123Y660059D01*
X349296Y659818D01*
X347600Y659116D01*
X308521D01*
X308049Y659312D01*
Y660686D01*
X308530Y660885D01*
X309855Y661902D01*
X357145D01*
X358470Y660885D01*
X360173Y660180D01*
X362000Y659940D01*
X363827Y660180D01*
X365530Y660885D01*
X366992Y662008D01*
X368115Y663470D01*
X368645Y664751D01*
X368774Y664790D01*
X370725Y664402D01*
X388145D01*
X389470Y663386D01*
X391173Y662681D01*
X393000Y662440D01*
X394827Y662681D01*
X395575Y662990D01*
X396507Y662001D01*
X395583Y659772D01*
X395205Y656900D01*
X395583Y654028D01*
X396692Y651353D01*
X398226Y649353D01*
X398231Y647829D01*
X397895Y647605D01*
X382888Y632598D01*
X270893D01*
X268943Y632210D01*
X267289Y631105D01*
X257282Y621098D01*
X112355D01*
X111030Y622114D01*
X109327Y622820D01*
X107500Y623060D01*
X105673Y622820D01*
X103970Y622114D01*
X102507Y620993D01*
X101385Y619530D01*
X100680Y617827D01*
X100440Y616000D01*
X100680Y614173D01*
X101385Y612470D01*
X102507Y611008D01*
X103970Y609885D01*
X105673Y609180D01*
X107140Y608987D01*
X107702Y608551D01*
X108123Y607741D01*
X107940Y606352D01*
X108180Y604524D01*
X108697Y603277D01*
X108237Y602121D01*
X108010Y601876D01*
X107570Y601804D01*
X94750Y614624D01*
Y632499D01*
X64750D01*
Y602499D01*
X82626D01*
X89936Y595189D01*
X89082Y594247D01*
X88124Y595033D01*
X85518Y596426D01*
X82691Y597284D01*
X79750Y597573D01*
X76810Y597284D01*
X73982Y596426D01*
X71376Y595033D01*
X69092Y593159D01*
X67218Y590875D01*
X65825Y588269D01*
X64967Y585441D01*
X64678Y582501D01*
X64967Y579560D01*
X65825Y576733D01*
X67218Y574127D01*
X69092Y571843D01*
X71376Y569968D01*
X73982Y568576D01*
X76810Y567718D01*
X79750Y567428D01*
X82691Y567718D01*
X85518Y568576D01*
X88124Y569968D01*
X90408Y571843D01*
X92282Y574127D01*
X93675Y576733D01*
X94183Y578407D01*
X102013D01*
X102539Y577137D01*
X86371Y560969D01*
X85518Y561425D01*
X82691Y562282D01*
X79750Y562572D01*
X76810Y562282D01*
X73982Y561425D01*
X71376Y560032D01*
X69092Y558157D01*
X67218Y555873D01*
X65825Y553268D01*
X64967Y550440D01*
X64678Y547500D01*
X64967Y544559D01*
X65825Y541731D01*
X67218Y539126D01*
X69092Y536842D01*
X71376Y534967D01*
X73982Y533574D01*
X76810Y532717D01*
X79750Y532427D01*
X82691Y532717D01*
X85518Y533574D01*
X88124Y534967D01*
X90240Y536704D01*
X90842Y536530D01*
X91441Y536099D01*
X91428Y536000D01*
X91721Y533781D01*
X92577Y531713D01*
X93939Y529938D01*
X95715Y528575D01*
X97783Y527719D01*
X100002Y527427D01*
X102221Y527719D01*
X104288Y528575D01*
X106064Y529938D01*
X110061Y533935D01*
X110238Y533958D01*
X143669D01*
X144228Y533228D01*
X146944Y531145D01*
X150106Y529835D01*
X153500Y529388D01*
X156894Y529835D01*
X160056Y531145D01*
X162772Y533228D01*
X164856Y535944D01*
X166166Y539106D01*
X166612Y542500D01*
X166166Y545894D01*
X164856Y549056D01*
X162772Y551772D01*
X160056Y553856D01*
X156894Y555165D01*
X153500Y555612D01*
X150106Y555165D01*
X146944Y553856D01*
X144228Y551772D01*
X143717Y551105D01*
X106533D01*
X106533Y551105D01*
X104314Y550813D01*
X102247Y549956D01*
X100471Y548594D01*
X95610Y543732D01*
X94487Y544405D01*
X94533Y544559D01*
X94823Y547500D01*
X94533Y550440D01*
X93675Y553268D01*
X93220Y554120D01*
X108507Y569407D01*
X129161D01*
X130090Y568137D01*
X129940Y566998D01*
X130180Y565171D01*
X130885Y563468D01*
X132008Y562006D01*
X133470Y560884D01*
X135173Y560178D01*
X137000Y559938D01*
X138827Y560178D01*
X140530Y560884D01*
X141535Y561655D01*
X253353D01*
X256612Y558395D01*
X258266Y557290D01*
X260217Y556902D01*
X350607D01*
X352557Y557290D01*
X354211Y558395D01*
X357718Y561902D01*
X396087D01*
X396602Y560632D01*
X395583Y558172D01*
X395435Y557050D01*
X406300D01*
Y553550D01*
X395435D01*
X395583Y552429D01*
X396692Y549753D01*
X397087Y549237D01*
X396525Y548098D01*
X347230D01*
X345905Y549115D01*
X344202Y549820D01*
X342375Y550061D01*
X340548Y549820D01*
X338845Y549115D01*
X337383Y547993D01*
X336260Y546530D01*
X335555Y544828D01*
X335315Y543000D01*
X335555Y541173D01*
X336260Y539470D01*
X336439Y539237D01*
X335878Y538098D01*
X330600D01*
X328649Y537710D01*
X326995Y536605D01*
X313888Y523498D01*
X135334D01*
X134530Y524114D01*
X132827Y524820D01*
X131000Y525060D01*
X129173Y524820D01*
X127470Y524114D01*
X126007Y522993D01*
X124886Y521530D01*
X124180Y519827D01*
X123940Y518000D01*
X124180Y516173D01*
X124886Y514470D01*
X126007Y513008D01*
X127470Y511885D01*
X129173Y511180D01*
X131000Y510940D01*
X132827Y511180D01*
X134530Y511885D01*
X135992Y513008D01*
X136218Y513302D01*
X265628D01*
X266059Y512032D01*
X266007Y511992D01*
X264886Y510530D01*
X264183Y508835D01*
X263165Y507817D01*
X261477Y507118D01*
X208523D01*
X206827Y507820D01*
X205000Y508060D01*
X203173Y507820D01*
X201470Y507114D01*
X200008Y505992D01*
X198885Y504530D01*
X198183Y502835D01*
X194165Y498817D01*
X192470Y498115D01*
X191007Y496992D01*
X189886Y495530D01*
X189180Y493827D01*
X188940Y492000D01*
X189180Y490173D01*
X189886Y488470D01*
X191007Y487008D01*
X192470Y485886D01*
X194173Y485180D01*
X196000Y484940D01*
X197827Y485180D01*
X199530Y485886D01*
X200992Y487008D01*
X202115Y488470D01*
X202817Y490165D01*
X206835Y494183D01*
X208523Y494882D01*
X261477D01*
X263173Y494180D01*
X265000Y493940D01*
X266827Y494180D01*
X268530Y494885D01*
X269992Y496007D01*
X271115Y497470D01*
X271817Y499165D01*
X272835Y500183D01*
X274530Y500886D01*
X275992Y502008D01*
X277115Y503470D01*
X277820Y505173D01*
X278060Y507000D01*
X277820Y508827D01*
X277115Y510530D01*
X275992Y511992D01*
X275941Y512032D01*
X276372Y513302D01*
X316000D01*
X317951Y513690D01*
X319605Y514795D01*
X332712Y527902D01*
X366137D01*
X379244Y514795D01*
X380898Y513690D01*
X382849Y513302D01*
X397765D01*
X398214Y512032D01*
X396692Y510047D01*
X395583Y507372D01*
X395205Y504500D01*
X395583Y501628D01*
X396561Y499268D01*
X396162Y498409D01*
X395796Y498033D01*
X394173Y497820D01*
X392470Y497114D01*
X391007Y495993D01*
X389885Y494530D01*
X389180Y492827D01*
X388940Y491000D01*
X389180Y489173D01*
X389885Y487470D01*
X391007Y486008D01*
X392470Y484885D01*
X394173Y484180D01*
X395074Y484062D01*
X395882Y482693D01*
X395583Y481972D01*
X395435Y480850D01*
X406300D01*
Y477350D01*
X395435D01*
X395583Y476228D01*
X396692Y473553D01*
X397601Y472368D01*
X396974Y471098D01*
X366000D01*
X364049Y470710D01*
X362395Y469605D01*
X354888Y462098D01*
X351505D01*
X350180Y463115D01*
X348477Y463820D01*
X346650Y464060D01*
X344822Y463820D01*
X343120Y463115D01*
X341657Y461992D01*
X340535Y460530D01*
X339830Y458827D01*
X339589Y457000D01*
X339830Y455173D01*
X340535Y453470D01*
X341657Y452008D01*
X343120Y450886D01*
X344822Y450180D01*
X346650Y449940D01*
X348477Y450180D01*
X350180Y450886D01*
X351505Y451902D01*
X357000D01*
X358951Y452290D01*
X360605Y453395D01*
X368112Y460902D01*
X396525D01*
X397087Y459763D01*
X396692Y459248D01*
X395583Y456572D01*
X395205Y453700D01*
X395583Y450829D01*
X396692Y448153D01*
X398455Y445855D01*
X400753Y444092D01*
X403428Y442983D01*
X406300Y442605D01*
X409172Y442983D01*
X409621Y443169D01*
X416395Y436395D01*
X418049Y435290D01*
X420000Y434902D01*
X421487D01*
X422002Y433632D01*
X420983Y431172D01*
X420835Y430050D01*
X431700D01*
X442565D01*
X442417Y431172D01*
X441398Y433632D01*
X441913Y434902D01*
X475145D01*
X476470Y433885D01*
X478173Y433180D01*
X480000Y432940D01*
X481827Y433180D01*
X483530Y433885D01*
X484992Y435008D01*
X486115Y436470D01*
X486820Y438173D01*
X487060Y440000D01*
X486820Y441827D01*
X486115Y443530D01*
X484992Y444992D01*
X483530Y446115D01*
X481827Y446820D01*
X480000Y447060D01*
X478173Y446820D01*
X476470Y446115D01*
X475145Y445098D01*
X440565D01*
X439939Y446368D01*
X441309Y448153D01*
X442417Y450829D01*
X442795Y453700D01*
X442417Y456572D01*
X441822Y458007D01*
X442560Y459546D01*
X443380Y459885D01*
X444842Y461008D01*
X445964Y462470D01*
X446670Y464173D01*
X446910Y466000D01*
X446670Y467827D01*
X445964Y469530D01*
X444842Y470993D01*
X443380Y472114D01*
X442186Y472609D01*
X442010Y472798D01*
X441576Y473797D01*
X441543Y474118D01*
X442417Y476228D01*
X442795Y479100D01*
X442417Y481972D01*
X441309Y484647D01*
X441220Y484763D01*
X441782Y485902D01*
X505145D01*
X506470Y484885D01*
X508173Y484180D01*
X510000Y483940D01*
X511827Y484180D01*
X513530Y484885D01*
X514992Y486008D01*
X516115Y487470D01*
X516820Y489173D01*
X517060Y491000D01*
X516820Y492827D01*
X516115Y494530D01*
X514992Y495993D01*
X513530Y497114D01*
X511827Y497820D01*
X510000Y498060D01*
X508173Y497820D01*
X506470Y497114D01*
X505145Y496098D01*
X440719D01*
X440093Y497368D01*
X441309Y498953D01*
X442417Y501628D01*
X442706Y503828D01*
X443888Y504953D01*
X443999Y504939D01*
X445826Y505179D01*
X447529Y505885D01*
X448992Y507006D01*
X450114Y508469D01*
X450819Y510172D01*
X450915Y510902D01*
X513145D01*
X514470Y509885D01*
X516173Y509180D01*
X518000Y508940D01*
X519827Y509180D01*
X521129Y509720D01*
X522318Y509013D01*
X522184Y508000D01*
X522566Y505097D01*
X523687Y502392D01*
X524000Y501984D01*
Y488616D01*
X523687Y488208D01*
X522566Y485503D01*
X522184Y482600D01*
X522566Y479697D01*
X523687Y476992D01*
X524000Y476584D01*
Y463216D01*
X523687Y462808D01*
X522566Y460103D01*
X522184Y457200D01*
X522566Y454297D01*
X523687Y451592D01*
X524000Y451184D01*
Y437918D01*
X502523D01*
X500827Y438620D01*
X499000Y438860D01*
X497173Y438620D01*
X495470Y437915D01*
X494007Y436792D01*
X492886Y435330D01*
X492180Y433627D01*
X491940Y431800D01*
X492180Y429973D01*
X492886Y428270D01*
X494007Y426808D01*
X495470Y425686D01*
X497173Y424980D01*
X499000Y424740D01*
X500827Y424980D01*
X502523Y425682D01*
X524000D01*
Y412416D01*
X523687Y412008D01*
X522566Y409303D01*
X522184Y406400D01*
X522566Y403497D01*
X523687Y400792D01*
X524000Y400384D01*
Y387016D01*
X523687Y386608D01*
X522566Y383903D01*
X522184Y381000D01*
X522566Y378097D01*
X523687Y375392D01*
X524000Y374984D01*
Y361616D01*
X523687Y361208D01*
X522566Y358503D01*
X522184Y355600D01*
X522566Y352697D01*
X523687Y349992D01*
X524000Y349584D01*
Y336216D01*
X523687Y335808D01*
X522566Y333103D01*
X522184Y330200D01*
X522566Y327297D01*
X523687Y324592D01*
X524000Y324184D01*
Y315000D01*
X905000Y315000D01*
Y725000D01*
X543000D01*
Y521000D01*
X524000D01*
X524000Y521000D01*
X522791Y521147D01*
X521530Y522114D01*
X519827Y522820D01*
X518000Y523060D01*
X516173Y522820D01*
X514470Y522114D01*
X513145Y521098D01*
X507469D01*
X506696Y522368D01*
X507281Y523781D01*
X507573Y526000D01*
Y535000D01*
X507281Y537219D01*
X506425Y539287D01*
X505062Y541062D01*
X500062Y546062D01*
X498287Y547425D01*
X496219Y548281D01*
X494000Y548573D01*
X492668D01*
X492237Y549843D01*
X492842Y550308D01*
X493964Y551770D01*
X494670Y553473D01*
X494910Y555300D01*
X494670Y557127D01*
X493964Y558830D01*
X492842Y560293D01*
X491380Y561414D01*
X489677Y562120D01*
X487850Y562360D01*
X486023Y562120D01*
X484320Y561414D01*
X482995Y560398D01*
X448000D01*
X447974Y560393D01*
X447436Y561581D01*
X447992Y562008D01*
X449114Y563470D01*
X449820Y565173D01*
X450060Y567000D01*
X449820Y568827D01*
X449114Y570530D01*
X447992Y571992D01*
X446530Y573115D01*
X444827Y573820D01*
X443000Y574060D01*
X441967Y573924D01*
X441279Y575115D01*
X441309Y575153D01*
X442417Y577828D01*
X442795Y580700D01*
X442417Y583572D01*
X441480Y585832D01*
X442113Y587102D01*
X460935D01*
X461008Y587008D01*
X462470Y585886D01*
X464173Y585180D01*
X466000Y584940D01*
X467827Y585180D01*
X469530Y585886D01*
X470993Y587008D01*
X472114Y588470D01*
X472820Y590173D01*
X473060Y592000D01*
X472820Y593827D01*
X472114Y595530D01*
X470993Y596992D01*
X469530Y598115D01*
X467827Y598820D01*
X466000Y599060D01*
X464173Y598820D01*
X462470Y598115D01*
X461406Y597298D01*
X440235D01*
X439786Y598568D01*
X441309Y600553D01*
X442417Y603228D01*
X442795Y606100D01*
X442417Y608972D01*
X441309Y611647D01*
X439786Y613632D01*
X440235Y614902D01*
X449448D01*
X449470Y614885D01*
X451173Y614180D01*
X453000Y613940D01*
X454827Y614180D01*
X456530Y614885D01*
X457993Y616008D01*
X459114Y617470D01*
X459820Y619173D01*
X460060Y621000D01*
X459820Y622827D01*
X459114Y624530D01*
X457993Y625992D01*
X456530Y627114D01*
X454827Y627820D01*
X453000Y628060D01*
X451173Y627820D01*
X449470Y627114D01*
X448008Y625992D01*
X447321Y625098D01*
X442113D01*
X441480Y626368D01*
X442417Y628629D01*
X442565Y629750D01*
X431700D01*
Y633250D01*
X442565D01*
X442417Y634372D01*
X441309Y637048D01*
X440759Y637763D01*
X441321Y638902D01*
X460645D01*
X461970Y637886D01*
X463672Y637180D01*
X465500Y636940D01*
X467327Y637180D01*
X469030Y637886D01*
X470492Y639008D01*
X471614Y640470D01*
X472320Y642173D01*
X472560Y644000D01*
X472320Y645827D01*
X471614Y647530D01*
X470492Y648992D01*
X469483Y649767D01*
X469363Y651082D01*
X469444Y651318D01*
X470213Y651908D01*
X471335Y653370D01*
X472041Y655073D01*
X472281Y656900D01*
X472041Y658727D01*
X471335Y660430D01*
X470213Y661892D01*
X470025Y662037D01*
X470456Y663307D01*
X482778D01*
X483008Y663008D01*
X484470Y661886D01*
X486173Y661180D01*
X488000Y660940D01*
X489827Y661180D01*
X491530Y661886D01*
X492992Y663008D01*
X494114Y664470D01*
X494820Y666173D01*
X495060Y668000D01*
X494820Y669827D01*
X494114Y671530D01*
X492992Y672992D01*
X491530Y674115D01*
X489827Y674820D01*
X488000Y675060D01*
X486173Y674820D01*
X484470Y674115D01*
X483008Y672993D01*
X439616D01*
X439208Y674196D01*
X439545Y674455D01*
X441309Y676753D01*
X442417Y679428D01*
X442795Y682300D01*
X442417Y685172D01*
X441309Y687848D01*
X440325Y689129D01*
X440305Y689191D01*
X440667Y690769D01*
X441605Y691395D01*
X443800Y693590D01*
X445141Y693135D01*
X445180Y692834D01*
X445886Y691131D01*
X447008Y689669D01*
X448470Y688547D01*
X450173Y687841D01*
X452000Y687601D01*
X453827Y687841D01*
X455530Y688547D01*
X456855Y689563D01*
X483046D01*
X484997Y689951D01*
X486651Y691056D01*
X535583Y739989D01*
X987888D01*
X996982Y730895D01*
X998636Y729790D01*
X1000587Y729402D01*
X1112388D01*
X1115858Y725932D01*
X1117512Y724827D01*
X1119463Y724439D01*
X1132179D01*
X1133028Y723169D01*
X1132679Y722326D01*
X1132438Y720498D01*
X1132679Y718671D01*
X1133384Y716968D01*
X1134506Y715506D01*
X1135968Y714384D01*
X1137671Y713679D01*
X1139498Y713438D01*
X1141326Y713679D01*
X1143028Y714384D01*
X1144491Y715506D01*
X1144605Y715655D01*
X1174643D01*
X1174758Y715506D01*
X1176220Y714384D01*
X1177923Y713679D01*
X1179750Y713438D01*
X1181578Y713679D01*
X1183280Y714384D01*
X1184743Y715506D01*
X1185865Y716968D01*
X1186570Y718671D01*
X1186811Y720498D01*
X1186570Y722326D01*
X1186221Y723169D01*
X1187069Y724439D01*
X1209537D01*
X1211488Y724827D01*
X1213142Y725932D01*
X1234112Y746902D01*
X1238329D01*
X1239654Y745885D01*
X1241357Y745180D01*
X1243184Y744940D01*
X1245011Y745180D01*
X1246714Y745885D01*
X1248176Y747008D01*
X1249298Y748470D01*
X1250004Y750173D01*
X1250244Y752000D01*
X1250004Y753827D01*
X1249298Y755530D01*
X1248176Y756992D01*
X1248344Y758465D01*
X1249115Y759470D01*
X1249820Y761173D01*
X1250060Y763000D01*
X1249820Y764827D01*
X1249115Y766530D01*
X1247992Y767992D01*
X1246530Y769115D01*
X1244827Y769820D01*
X1243000Y770060D01*
X1241173Y769820D01*
X1239470Y769115D01*
X1238147Y768100D01*
X717518D01*
X717101Y768724D01*
X716846Y769370D01*
X717060Y771000D01*
X716820Y772827D01*
X716115Y774530D01*
X714992Y775993D01*
X713530Y777114D01*
X711827Y777820D01*
X710000Y778060D01*
X708173Y777820D01*
X706470Y777114D01*
X705145Y776098D01*
X695037D01*
X694188Y777368D01*
X694521Y778173D01*
X694762Y780000D01*
X694606Y781187D01*
X695513Y782457D01*
X729663D01*
X730008Y782008D01*
X731470Y780885D01*
X733173Y780180D01*
X735000Y779940D01*
X736827Y780180D01*
X738530Y780885D01*
X739992Y782008D01*
X741115Y783470D01*
X741820Y785173D01*
X742060Y787000D01*
X741820Y788827D01*
X741115Y790530D01*
X739992Y791992D01*
X738530Y793114D01*
X736827Y793820D01*
X735000Y794060D01*
X733173Y793820D01*
X731470Y793114D01*
X730203Y792143D01*
X558930D01*
X558622Y793413D01*
X563900Y798690D01*
X564955Y799395D01*
X573522Y807962D01*
X575177Y808180D01*
X576880Y808885D01*
X578343Y810007D01*
X579465Y811470D01*
X580170Y813173D01*
X580410Y815000D01*
X580170Y816827D01*
X579465Y818530D01*
X578343Y819992D01*
X576880Y821115D01*
X575177Y821820D01*
X573350Y822060D01*
X571523Y821820D01*
X569820Y821115D01*
X568358Y819992D01*
X567236Y818530D01*
X566530Y816827D01*
X566312Y815172D01*
X558450Y807310D01*
X557395Y806605D01*
X552749Y801958D01*
X551861Y802057D01*
X551636Y802535D01*
X551506Y803320D01*
X552793Y804308D01*
X553914Y805770D01*
X554620Y807473D01*
X554860Y809300D01*
X554620Y811127D01*
X553914Y812830D01*
X552793Y814293D01*
X551330Y815415D01*
X549627Y816120D01*
X547800Y816360D01*
X545973Y816120D01*
X544270Y815415D01*
X542945Y814398D01*
X538812D01*
X527805Y825405D01*
X526151Y826510D01*
X524200Y826898D01*
X483916D01*
X483710Y827103D01*
X482057Y828208D01*
X480106Y828596D01*
X437472D01*
X437127Y829819D01*
X438752Y830814D01*
X442761Y834239D01*
X446186Y838248D01*
X448941Y842744D01*
X450959Y847616D01*
X452190Y852743D01*
X452604Y858000D01*
X452190Y863257D01*
X450959Y868384D01*
X448941Y873256D01*
X446186Y877752D01*
X442761Y881761D01*
X438752Y885186D01*
X434256Y887941D01*
X432351Y888730D01*
X432603Y890000D01*
X895397D01*
X895649Y888730D01*
X893744Y887941D01*
X889248Y885186D01*
X885239Y881761D01*
X881814Y877752D01*
X879059Y873256D01*
X877041Y868384D01*
X875810Y863257D01*
X875396Y858000D01*
X875810Y852743D01*
X877041Y847616D01*
X879059Y842744D01*
X881814Y838248D01*
X885239Y834239D01*
X889248Y830814D01*
X893744Y828059D01*
X898616Y826041D01*
X903743Y824810D01*
X909000Y824396D01*
X914257Y824810D01*
X919384Y826041D01*
X924256Y828059D01*
X928752Y830814D01*
X932761Y834239D01*
X936186Y838248D01*
X938941Y842744D01*
X940959Y847616D01*
X942190Y852743D01*
X942604Y858000D01*
X942190Y863257D01*
X940959Y868384D01*
X938941Y873256D01*
X936186Y877752D01*
X932761Y881761D01*
X928752Y885186D01*
X924256Y887941D01*
X922351Y888730D01*
X922603Y890000D01*
X1440000D01*
Y862322D01*
D02*
G37*
G36*
X478199Y818195D02*
X479853Y817090D01*
X481436Y816775D01*
X481585Y815462D01*
X481470Y815415D01*
X480008Y814293D01*
X478885Y812830D01*
X478180Y811127D01*
X477940Y809300D01*
X478180Y807473D01*
X478885Y805770D01*
X480008Y804308D01*
X481232Y803368D01*
X481049Y802385D01*
X480898Y802098D01*
X441475D01*
X440913Y803237D01*
X441309Y803753D01*
X442417Y806429D01*
X442565Y807550D01*
X431700D01*
Y811050D01*
X442565D01*
X442417Y812172D01*
X441309Y814847D01*
X439557Y817130D01*
X439618Y817614D01*
X439885Y818400D01*
X477994D01*
X478199Y818195D01*
D02*
G37*
G36*
X499804Y790632D02*
X499180Y789127D01*
X498940Y787300D01*
X499096Y786113D01*
X498189Y784843D01*
X470328D01*
X470213Y784992D01*
X468751Y786115D01*
X467048Y786820D01*
X465221Y787060D01*
X463393Y786820D01*
X461691Y786115D01*
X460228Y784992D01*
X459106Y783530D01*
X458401Y781827D01*
X458160Y780000D01*
X458373Y778388D01*
X458026Y777611D01*
X457696Y777118D01*
X441796D01*
X441235Y778257D01*
X441309Y778353D01*
X442417Y781029D01*
X442795Y783900D01*
X442417Y786772D01*
X441309Y789447D01*
X440400Y790632D01*
X441026Y791902D01*
X499298D01*
X499804Y790632D01*
D02*
G37*
G36*
X1229250Y757694D02*
X1228938Y755968D01*
X1228395Y755605D01*
X1207426Y734635D01*
X1187860D01*
X1186928Y735905D01*
X1187077Y737037D01*
X1186837Y738865D01*
X1186132Y740567D01*
X1185009Y742030D01*
X1183547Y743152D01*
X1181844Y743857D01*
X1180017Y744098D01*
X1178190Y743857D01*
X1176487Y743152D01*
X1175024Y742030D01*
X1174910Y741880D01*
X1171965D01*
X1166421Y747425D01*
X1164849Y748474D01*
X1164057Y748632D01*
X1164182Y749902D01*
X1210145D01*
X1211470Y748885D01*
X1213173Y748180D01*
X1215000Y747940D01*
X1216827Y748180D01*
X1218530Y748885D01*
X1219993Y750007D01*
X1221115Y751470D01*
X1221820Y753173D01*
X1222060Y755000D01*
X1221845Y756634D01*
X1222088Y757262D01*
X1222517Y757904D01*
X1229101D01*
X1229250Y757694D01*
D02*
G37*
G36*
X1100123Y751621D02*
X1099834Y750266D01*
X1099470Y750115D01*
X1098007Y748992D01*
X1096885Y747530D01*
X1096180Y745827D01*
X1095939Y744000D01*
X1096180Y742173D01*
X1096720Y740868D01*
X1096098Y739598D01*
X1005079D01*
X1004648Y740868D01*
X1004993Y741133D01*
X1006115Y742595D01*
X1006820Y744298D01*
X1007060Y746125D01*
X1006820Y747952D01*
X1006115Y749655D01*
X1004993Y751117D01*
X1004971Y751134D01*
X1005403Y752404D01*
X1099437D01*
X1100123Y751621D01*
D02*
G37*
G36*
X524627Y751230D02*
X490995Y717598D01*
X481093D01*
X480161Y718868D01*
X480310Y720000D01*
X480070Y721827D01*
X479365Y723530D01*
X478242Y724993D01*
X476780Y726115D01*
X475077Y726820D01*
X473250Y727060D01*
X471423Y726820D01*
X469720Y726115D01*
X468258Y724993D01*
X468143Y724843D01*
X440830D01*
X440204Y726113D01*
X441309Y727553D01*
X442417Y730229D01*
X442795Y733100D01*
X442614Y734471D01*
X443798Y735208D01*
X444049Y735040D01*
X446000Y734652D01*
X502385D01*
X504336Y735040D01*
X505990Y736145D01*
X522248Y752404D01*
X524141D01*
X524627Y751230D01*
D02*
G37*
G36*
X1164339Y735808D02*
X1163853Y734635D01*
X1121574D01*
X1118323Y737887D01*
X1118631Y739157D01*
X1160990D01*
X1164339Y735808D01*
D02*
G37*
G36*
X487404Y706229D02*
X480934Y699759D01*
X456855D01*
X455530Y700776D01*
X453827Y701481D01*
X453526Y701520D01*
X453071Y702861D01*
X457612Y707402D01*
X486918D01*
X487404Y706229D01*
D02*
G37*
G36*
X422794Y688763D02*
X422091Y687848D01*
X420983Y685172D01*
X420605Y682300D01*
X420983Y679428D01*
X422091Y676753D01*
X423855Y674455D01*
X424767Y673755D01*
X424782Y673713D01*
X424635Y672255D01*
X423616Y671575D01*
X423615Y671574D01*
X417025Y664985D01*
X417025Y664984D01*
X416151Y664110D01*
X414563Y664201D01*
X414145Y664745D01*
X411847Y666508D01*
X409172Y667617D01*
X406300Y667995D01*
X403428Y667617D01*
X400753Y666508D01*
X400693Y666463D01*
X399650Y667263D01*
X399820Y667673D01*
X400060Y669500D01*
X399820Y671328D01*
X399529Y672030D01*
X400572Y672830D01*
X400753Y672692D01*
X403428Y671583D01*
X404550Y671435D01*
Y682300D01*
X406300D01*
Y684050D01*
X417164D01*
X417017Y685172D01*
X415909Y687848D01*
X415206Y688763D01*
X415768Y689902D01*
X422232D01*
X422794Y688763D01*
D02*
G37*
G36*
X268312Y615913D02*
X269008Y615008D01*
X270470Y613886D01*
X272173Y613180D01*
X274000Y612940D01*
X275827Y613180D01*
X277530Y613886D01*
X278855Y614902D01*
X397765D01*
X398214Y613632D01*
X396692Y611647D01*
X395583Y608972D01*
X395205Y606100D01*
X395583Y603228D01*
X396692Y600553D01*
X398214Y598568D01*
X397765Y597298D01*
X363225D01*
X361274Y596910D01*
X359620Y595805D01*
X349638Y585823D01*
X240553D01*
X239228Y586839D01*
X237526Y587545D01*
X235698Y587785D01*
X233871Y587545D01*
X232168Y586839D01*
X230706Y585718D01*
X230614Y585598D01*
X227843D01*
X226911Y586868D01*
X227060Y588000D01*
X226820Y589827D01*
X226115Y591530D01*
X224992Y592992D01*
X223530Y594114D01*
X221827Y594820D01*
X220000Y595060D01*
X218173Y594820D01*
X216470Y594114D01*
X215007Y592992D01*
X214893Y592843D01*
X192750D01*
X192750Y592843D01*
X190896Y592474D01*
X189325Y591424D01*
X189325Y591424D01*
X181994Y584093D01*
X174871D01*
X174309Y585232D01*
X174856Y585944D01*
X176166Y589106D01*
X176612Y592500D01*
X176166Y595894D01*
X174856Y599056D01*
X174140Y599989D01*
X174702Y601128D01*
X366992D01*
X367007Y601108D01*
X368470Y599986D01*
X370173Y599280D01*
X372000Y599040D01*
X373827Y599280D01*
X375530Y599986D01*
X376992Y601108D01*
X378115Y602570D01*
X378820Y604273D01*
X379060Y606100D01*
X378820Y607927D01*
X378115Y609630D01*
X376992Y611092D01*
X375530Y612215D01*
X373827Y612920D01*
X372000Y613160D01*
X370173Y612920D01*
X368470Y612215D01*
X367309Y611324D01*
X263478D01*
X263197Y612594D01*
X266756Y616153D01*
X268312Y615913D01*
D02*
G37*
G36*
X342814Y574357D02*
X342180Y572827D01*
X341940Y571000D01*
X342180Y569173D01*
X342514Y568368D01*
X341665Y567098D01*
X262329D01*
X259069Y570358D01*
X257415Y571463D01*
X255464Y571851D01*
X200843D01*
X199911Y573121D01*
X200060Y574253D01*
X199996Y574739D01*
X200535Y575149D01*
X201195Y575364D01*
X202470Y574385D01*
X204173Y573680D01*
X206000Y573440D01*
X207827Y573680D01*
X209530Y574385D01*
X210855Y575402D01*
X231137D01*
X232168Y574611D01*
X233871Y573905D01*
X235698Y573665D01*
X237526Y573905D01*
X239228Y574611D01*
X240553Y575627D01*
X342323D01*
X342814Y574357D01*
D02*
G37*
G36*
X396520Y585832D02*
X395583Y583572D01*
X395205Y580700D01*
X395583Y577828D01*
X396692Y575153D01*
X398061Y573368D01*
X397435Y572098D01*
X376191D01*
X375833Y573368D01*
X376992Y574258D01*
X378115Y575720D01*
X378820Y577423D01*
X379060Y579250D01*
X378820Y581077D01*
X378115Y582780D01*
X376992Y584243D01*
X375530Y585365D01*
X374402Y585832D01*
X374654Y587102D01*
X395887D01*
X396520Y585832D01*
D02*
G37*
G36*
X397601Y536632D02*
X396692Y535448D01*
X395583Y532772D01*
X395205Y529900D01*
X395583Y527029D01*
X396520Y524768D01*
X395887Y523498D01*
X384961D01*
X371854Y536605D01*
X371813Y536632D01*
X372198Y537902D01*
X396974D01*
X397601Y536632D01*
D02*
G37*
G36*
X490427Y526000D02*
X490719Y523781D01*
X491304Y522368D01*
X490531Y521098D01*
X455533D01*
X455281Y522368D01*
X456530Y522886D01*
X457993Y524008D01*
X459114Y525470D01*
X459820Y527173D01*
X460060Y529000D01*
X459908Y530157D01*
X460829Y531427D01*
X490427D01*
Y526000D01*
D02*
G37*
%LPC*%
G36*
X1355250Y883869D02*
Y874250D01*
X1364869D01*
X1364704Y875502D01*
X1363545Y878299D01*
X1361702Y880702D01*
X1359299Y882545D01*
X1356502Y883704D01*
X1355250Y883869D01*
D02*
G37*
G36*
X1351750D02*
X1350498Y883704D01*
X1347700Y882545D01*
X1345298Y880702D01*
X1343455Y878299D01*
X1342296Y875502D01*
X1342131Y874250D01*
X1351750D01*
Y883869D01*
D02*
G37*
G36*
X600500Y872369D02*
Y863254D01*
X609615D01*
X609467Y864376D01*
X608358Y867052D01*
X606595Y869350D01*
X604297Y871113D01*
X601622Y872221D01*
X600500Y872369D01*
D02*
G37*
G36*
X597000D02*
X595878Y872221D01*
X593203Y871113D01*
X590905Y869350D01*
X589142Y867052D01*
X588033Y864376D01*
X587886Y863254D01*
X597000D01*
Y872369D01*
D02*
G37*
G36*
X371852Y871865D02*
Y862750D01*
X380966D01*
X380819Y863872D01*
X379710Y866548D01*
X377947Y868845D01*
X375649Y870609D01*
X372973Y871717D01*
X371852Y871865D01*
D02*
G37*
G36*
X368352D02*
X367230Y871717D01*
X364554Y870609D01*
X362257Y868845D01*
X360493Y866548D01*
X359385Y863872D01*
X359237Y862750D01*
X368352D01*
Y871865D01*
D02*
G37*
G36*
X262048D02*
Y862750D01*
X271163D01*
X271015Y863872D01*
X269907Y866548D01*
X268144Y868845D01*
X265846Y870609D01*
X263170Y871717D01*
X262048Y871865D01*
D02*
G37*
G36*
X258548D02*
X257427Y871717D01*
X254751Y870609D01*
X252453Y868845D01*
X250690Y866548D01*
X249581Y863872D01*
X249434Y862750D01*
X258548D01*
Y871865D01*
D02*
G37*
G36*
X1364869Y870750D02*
X1355250D01*
Y861131D01*
X1356502Y861296D01*
X1359299Y862455D01*
X1361702Y864298D01*
X1363545Y866700D01*
X1364704Y869498D01*
X1364869Y870750D01*
D02*
G37*
G36*
X1351750D02*
X1342131D01*
X1342296Y869498D01*
X1343455Y866700D01*
X1345298Y864298D01*
X1347700Y862455D01*
X1350498Y861296D01*
X1351750Y861131D01*
Y870750D01*
D02*
G37*
G36*
X1321000Y884099D02*
X1317998Y883704D01*
X1315200Y882545D01*
X1312798Y880702D01*
X1310955Y878299D01*
X1309796Y875502D01*
X1309401Y872500D01*
X1309796Y869498D01*
X1310955Y866700D01*
X1312798Y864298D01*
X1315200Y862455D01*
X1317998Y861296D01*
X1321000Y860901D01*
X1324002Y861296D01*
X1326799Y862455D01*
X1329202Y864298D01*
X1331045Y866700D01*
X1332204Y869498D01*
X1332599Y872500D01*
X1332204Y875502D01*
X1331045Y878299D01*
X1329202Y880702D01*
X1326799Y882545D01*
X1324002Y883704D01*
X1321000Y884099D01*
D02*
G37*
G36*
X609615Y859754D02*
X600500D01*
Y850640D01*
X601622Y850787D01*
X604297Y851896D01*
X606595Y853659D01*
X608358Y855957D01*
X609467Y858633D01*
X609615Y859754D01*
D02*
G37*
G36*
X597000D02*
X587886D01*
X588033Y858633D01*
X589142Y855957D01*
X590905Y853659D01*
X593203Y851896D01*
X595878Y850787D01*
X597000Y850640D01*
Y859754D01*
D02*
G37*
G36*
X482750Y872504D02*
X460750D01*
Y850504D01*
X482750D01*
Y872504D01*
D02*
G37*
G36*
X573350Y872599D02*
X570479Y872221D01*
X567803Y871113D01*
X565505Y869350D01*
X563742Y867052D01*
X562633Y864376D01*
X562255Y861504D01*
X562633Y858633D01*
X563742Y855957D01*
X565505Y853659D01*
X567803Y851896D01*
X570479Y850787D01*
X573350Y850409D01*
X576222Y850787D01*
X578898Y851896D01*
X581195Y853659D01*
X582958Y855957D01*
X584067Y858633D01*
X584445Y861504D01*
X584067Y864376D01*
X582958Y867052D01*
X581195Y869350D01*
X578898Y871113D01*
X576222Y872221D01*
X573350Y872599D01*
D02*
G37*
G36*
X547950D02*
X545079Y872221D01*
X542403Y871113D01*
X540105Y869350D01*
X538342Y867052D01*
X537233Y864376D01*
X536855Y861504D01*
X537233Y858633D01*
X538342Y855957D01*
X540105Y853659D01*
X542403Y851896D01*
X545079Y850787D01*
X547950Y850409D01*
X550822Y850787D01*
X553498Y851896D01*
X555795Y853659D01*
X557559Y855957D01*
X558667Y858633D01*
X559045Y861504D01*
X558667Y864376D01*
X557559Y867052D01*
X555795Y869350D01*
X553498Y871113D01*
X550822Y872221D01*
X547950Y872599D01*
D02*
G37*
G36*
X522550D02*
X519678Y872221D01*
X517003Y871113D01*
X514705Y869350D01*
X512942Y867052D01*
X511833Y864376D01*
X511455Y861504D01*
X511833Y858633D01*
X512942Y855957D01*
X514705Y853659D01*
X517003Y851896D01*
X519678Y850787D01*
X522550Y850409D01*
X525422Y850787D01*
X528097Y851896D01*
X530395Y853659D01*
X532159Y855957D01*
X533267Y858633D01*
X533645Y861504D01*
X533267Y864376D01*
X532159Y867052D01*
X530395Y869350D01*
X528097Y871113D01*
X525422Y872221D01*
X522550Y872599D01*
D02*
G37*
G36*
X497150D02*
X494278Y872221D01*
X491603Y871113D01*
X489305Y869350D01*
X487542Y867052D01*
X486433Y864376D01*
X486055Y861504D01*
X486433Y858633D01*
X487542Y855957D01*
X489305Y853659D01*
X491603Y851896D01*
X494278Y850787D01*
X497150Y850409D01*
X500022Y850787D01*
X502697Y851896D01*
X504995Y853659D01*
X506758Y855957D01*
X507867Y858633D01*
X508245Y861504D01*
X507867Y864376D01*
X506758Y867052D01*
X504995Y869350D01*
X502697Y871113D01*
X500022Y872221D01*
X497150Y872599D01*
D02*
G37*
G36*
X380966Y859250D02*
X371852D01*
Y850136D01*
X372973Y850283D01*
X375649Y851392D01*
X377947Y853155D01*
X379710Y855453D01*
X380819Y858129D01*
X380966Y859250D01*
D02*
G37*
G36*
X368352D02*
X359237D01*
X359385Y858129D01*
X360493Y855453D01*
X362257Y853155D01*
X364554Y851392D01*
X367230Y850283D01*
X368352Y850136D01*
Y859250D01*
D02*
G37*
G36*
X271163D02*
X262048D01*
Y850136D01*
X263170Y850283D01*
X265846Y851392D01*
X268144Y853155D01*
X269907Y855453D01*
X271015Y858129D01*
X271163Y859250D01*
D02*
G37*
G36*
X258548D02*
X249434D01*
X249581Y858129D01*
X250690Y855453D01*
X252453Y853155D01*
X254751Y851392D01*
X257427Y850283D01*
X258548Y850136D01*
Y859250D01*
D02*
G37*
G36*
X304902Y872000D02*
X282902D01*
Y850000D01*
X304902D01*
Y872000D01*
D02*
G37*
G36*
X195098D02*
X173098D01*
Y850000D01*
X195098D01*
Y872000D01*
D02*
G37*
G36*
X344702Y872095D02*
X341830Y871717D01*
X339154Y870609D01*
X336856Y868845D01*
X335093Y866548D01*
X333985Y863872D01*
X333607Y861000D01*
X333985Y858129D01*
X335093Y855453D01*
X336856Y853155D01*
X339154Y851392D01*
X341830Y850283D01*
X344702Y849905D01*
X347573Y850283D01*
X350249Y851392D01*
X352547Y853155D01*
X354310Y855453D01*
X355419Y858129D01*
X355797Y861000D01*
X355419Y863872D01*
X354310Y866548D01*
X352547Y868845D01*
X350249Y870609D01*
X347573Y871717D01*
X344702Y872095D01*
D02*
G37*
G36*
X319302D02*
X316430Y871717D01*
X313754Y870609D01*
X311457Y868845D01*
X309693Y866548D01*
X308585Y863872D01*
X308207Y861000D01*
X308585Y858129D01*
X309693Y855453D01*
X311457Y853155D01*
X313754Y851392D01*
X316430Y850283D01*
X319302Y849905D01*
X322173Y850283D01*
X324849Y851392D01*
X327147Y853155D01*
X328910Y855453D01*
X330019Y858129D01*
X330397Y861000D01*
X330019Y863872D01*
X328910Y866548D01*
X327147Y868845D01*
X324849Y870609D01*
X322173Y871717D01*
X319302Y872095D01*
D02*
G37*
G36*
X234898D02*
X232027Y871717D01*
X229351Y870609D01*
X227053Y868845D01*
X225290Y866548D01*
X224181Y863872D01*
X223803Y861000D01*
X224181Y858129D01*
X225290Y855453D01*
X227053Y853155D01*
X229351Y851392D01*
X232027Y850283D01*
X234898Y849905D01*
X237770Y850283D01*
X240446Y851392D01*
X242743Y853155D01*
X244507Y855453D01*
X245615Y858129D01*
X245993Y861000D01*
X245615Y863872D01*
X244507Y866548D01*
X242743Y868845D01*
X240446Y870609D01*
X237770Y871717D01*
X234898Y872095D01*
D02*
G37*
G36*
X209498D02*
X206627Y871717D01*
X203951Y870609D01*
X201653Y868845D01*
X199890Y866548D01*
X198781Y863872D01*
X198403Y861000D01*
X198781Y858129D01*
X199890Y855453D01*
X201653Y853155D01*
X203951Y851392D01*
X206627Y850283D01*
X209498Y849905D01*
X212370Y850283D01*
X215046Y851392D01*
X217344Y853155D01*
X219107Y855453D01*
X220215Y858129D01*
X220593Y861000D01*
X220215Y863872D01*
X219107Y866548D01*
X217344Y868845D01*
X215046Y870609D01*
X212370Y871717D01*
X209498Y872095D01*
D02*
G37*
G36*
X274000Y830060D02*
X272173Y829820D01*
X270470Y829115D01*
X269145Y828098D01*
X240553D01*
X239228Y829115D01*
X237526Y829820D01*
X235698Y830060D01*
X233871Y829820D01*
X232168Y829115D01*
X230706Y827992D01*
X229584Y826530D01*
X228878Y824827D01*
X228638Y823000D01*
X228878Y821173D01*
X229584Y819470D01*
X230706Y818008D01*
X232168Y816886D01*
X233871Y816180D01*
X235698Y815940D01*
X237526Y816180D01*
X239228Y816886D01*
X240553Y817902D01*
X269145D01*
X270470Y816886D01*
X272173Y816180D01*
X274000Y815940D01*
X275827Y816180D01*
X277530Y816886D01*
X278993Y818008D01*
X280114Y819470D01*
X280820Y821173D01*
X281060Y823000D01*
X280820Y824827D01*
X280114Y826530D01*
X278993Y827992D01*
X277530Y829115D01*
X275827Y829820D01*
X274000Y830060D01*
D02*
G37*
G36*
X35000Y888603D02*
X29743Y888190D01*
X24616Y886959D01*
X19744Y884941D01*
X15248Y882186D01*
X11239Y878761D01*
X7814Y874752D01*
X5059Y870256D01*
X3041Y865384D01*
X1810Y860257D01*
X1396Y855000D01*
X1810Y849743D01*
X3041Y844616D01*
X5059Y839744D01*
X7814Y835248D01*
X11239Y831238D01*
X15248Y827814D01*
X19744Y825059D01*
X24616Y823041D01*
X29743Y821810D01*
X35000Y821396D01*
X40257Y821810D01*
X45384Y823041D01*
X50256Y825059D01*
X54752Y827814D01*
X58761Y831238D01*
X62186Y835248D01*
X64941Y839744D01*
X66959Y844616D01*
X68190Y849743D01*
X68603Y855000D01*
X68190Y860257D01*
X66959Y865384D01*
X64941Y870256D01*
X62186Y874752D01*
X58761Y878761D01*
X54752Y882186D01*
X50256Y884941D01*
X45384Y886959D01*
X40257Y888190D01*
X35000Y888603D01*
D02*
G37*
G36*
X1209500Y837573D02*
X1168185D01*
X1165966Y837281D01*
X1163898Y836425D01*
X1162123Y835062D01*
X1145634Y818574D01*
X1131000D01*
Y825000D01*
X1101000D01*
Y795000D01*
X1131000D01*
Y801427D01*
X1149185D01*
X1151404Y801719D01*
X1153472Y802575D01*
X1155247Y803938D01*
X1171736Y820427D01*
X1181167D01*
X1181710Y819279D01*
X1180968Y818374D01*
X1179575Y815768D01*
X1178717Y812941D01*
X1178428Y810000D01*
X1178717Y807060D01*
X1179575Y804232D01*
X1180968Y801626D01*
X1182842Y799342D01*
X1185126Y797468D01*
X1187732Y796075D01*
X1190559Y795217D01*
X1193500Y794928D01*
X1196441Y795217D01*
X1199268Y796075D01*
X1201874Y797468D01*
X1204158Y799342D01*
X1206032Y801626D01*
X1207425Y804232D01*
X1208283Y807060D01*
X1208573Y810000D01*
X1208283Y812941D01*
X1207425Y815768D01*
X1206102Y818244D01*
X1206069Y818480D01*
X1206517Y819786D01*
X1206569Y819807D01*
X1213500Y812876D01*
Y795000D01*
X1243500D01*
Y825000D01*
X1225624D01*
X1215562Y835062D01*
X1213787Y836425D01*
X1211719Y837281D01*
X1209500Y837573D01*
D02*
G37*
G36*
X293814Y813510D02*
X291986Y813270D01*
X290291Y812568D01*
X187673D01*
X185977Y813270D01*
X184150Y813510D01*
X182323Y813270D01*
X180620Y812564D01*
X179158Y811442D01*
X178036Y809980D01*
X177330Y808277D01*
X177090Y806450D01*
X177330Y804623D01*
X178036Y802920D01*
X179158Y801458D01*
X180620Y800335D01*
X182323Y799630D01*
X184150Y799390D01*
X185977Y799630D01*
X187673Y800332D01*
X290291D01*
X291986Y799630D01*
X293814Y799390D01*
X295641Y799630D01*
X297344Y800335D01*
X298806Y801458D01*
X299928Y802920D01*
X300633Y804623D01*
X300874Y806450D01*
X300633Y808277D01*
X299928Y809980D01*
X298806Y811442D01*
X297344Y812564D01*
X295641Y813270D01*
X293814Y813510D01*
D02*
G37*
G36*
X970250Y824900D02*
Y811750D01*
X983400D01*
X983283Y812941D01*
X982425Y815768D01*
X981032Y818374D01*
X979158Y820658D01*
X976874Y822533D01*
X974268Y823925D01*
X971440Y824783D01*
X970250Y824900D01*
D02*
G37*
G36*
X966750Y824900D02*
X965559Y824783D01*
X962732Y823925D01*
X960126Y822533D01*
X957842Y820658D01*
X955968Y818374D01*
X954575Y815768D01*
X953717Y812941D01*
X953600Y811750D01*
X966750D01*
Y824900D01*
D02*
G37*
G36*
X1293500Y824510D02*
X1290106Y824063D01*
X1286944Y822753D01*
X1284228Y820670D01*
X1282144Y817954D01*
X1280835Y814792D01*
X1280388Y811398D01*
X1280835Y808004D01*
X1282144Y804842D01*
X1284228Y802126D01*
X1286944Y800042D01*
X1290106Y798733D01*
X1293500Y798286D01*
X1296894Y798733D01*
X1300056Y800042D01*
X1302772Y802126D01*
X1304855Y804842D01*
X1306165Y808004D01*
X1306612Y811398D01*
X1306165Y814792D01*
X1304855Y817954D01*
X1302772Y820670D01*
X1300056Y822753D01*
X1296894Y824063D01*
X1293500Y824510D01*
D02*
G37*
G36*
X983400Y808250D02*
X970250D01*
Y795100D01*
X971440Y795217D01*
X974268Y796075D01*
X976874Y797468D01*
X979158Y799342D01*
X981032Y801626D01*
X982425Y804232D01*
X983283Y807060D01*
X983400Y808250D01*
D02*
G37*
G36*
X966750D02*
X953600D01*
X953717Y807060D01*
X954575Y804232D01*
X955968Y801626D01*
X957842Y799342D01*
X960126Y797468D01*
X962732Y796075D01*
X965559Y795217D01*
X966750Y795100D01*
Y808250D01*
D02*
G37*
G36*
X1018500Y825000D02*
X988500D01*
Y795000D01*
X1018500D01*
Y825000D01*
D02*
G37*
G36*
X1081000Y825073D02*
X1078059Y824783D01*
X1075232Y823925D01*
X1072626Y822533D01*
X1070342Y820658D01*
X1068468Y818374D01*
X1067075Y815768D01*
X1066217Y812941D01*
X1065928Y810000D01*
X1066217Y807060D01*
X1067075Y804232D01*
X1068468Y801626D01*
X1070342Y799342D01*
X1072626Y797468D01*
X1075232Y796075D01*
X1078059Y795217D01*
X1081000Y794928D01*
X1083941Y795217D01*
X1086768Y796075D01*
X1089374Y797468D01*
X1091658Y799342D01*
X1093532Y801626D01*
X1094925Y804232D01*
X1095783Y807060D01*
X1096073Y810000D01*
X1095783Y812941D01*
X1094925Y815768D01*
X1093532Y818374D01*
X1091658Y820658D01*
X1089374Y822533D01*
X1086768Y823925D01*
X1083941Y824783D01*
X1081000Y825073D01*
D02*
G37*
G36*
X1320000Y793060D02*
X1318173Y792820D01*
X1316470Y792114D01*
X1315008Y790992D01*
X1314893Y790843D01*
X1236107D01*
X1235992Y790992D01*
X1234530Y792114D01*
X1232827Y792820D01*
X1231000Y793060D01*
X1229173Y792820D01*
X1227470Y792114D01*
X1226008Y790992D01*
X1224885Y789530D01*
X1224180Y787827D01*
X1223940Y786000D01*
X1224180Y784173D01*
X1224885Y782470D01*
X1226008Y781008D01*
X1227470Y779885D01*
X1229173Y779180D01*
X1231000Y778940D01*
X1232827Y779180D01*
X1234530Y779885D01*
X1235992Y781008D01*
X1236107Y781157D01*
X1314893D01*
X1315008Y781008D01*
X1316470Y779885D01*
X1318173Y779180D01*
X1320000Y778940D01*
X1321827Y779180D01*
X1323530Y779885D01*
X1324992Y781008D01*
X1326115Y782470D01*
X1326820Y784173D01*
X1327060Y786000D01*
X1326820Y787827D01*
X1326115Y789530D01*
X1324992Y790992D01*
X1323530Y792114D01*
X1321827Y792820D01*
X1320000Y793060D01*
D02*
G37*
G36*
X1362750Y798702D02*
Y785552D01*
X1375900D01*
X1375783Y786742D01*
X1374925Y789570D01*
X1373532Y792176D01*
X1371658Y794460D01*
X1369374Y796334D01*
X1366768Y797727D01*
X1363940Y798585D01*
X1362750Y798702D01*
D02*
G37*
G36*
X1359250D02*
X1358060Y798585D01*
X1355232Y797727D01*
X1352626Y796334D01*
X1350342Y794460D01*
X1348468Y792176D01*
X1347075Y789570D01*
X1346217Y786742D01*
X1346100Y785552D01*
X1359250D01*
Y798702D01*
D02*
G37*
G36*
X95000Y804103D02*
X65000D01*
Y774103D01*
X95000D01*
Y804103D01*
D02*
G37*
G36*
X1359250Y782052D02*
X1346100D01*
X1346217Y780861D01*
X1347075Y778034D01*
X1348468Y775428D01*
X1350342Y773144D01*
X1352626Y771270D01*
X1355232Y769877D01*
X1358060Y769019D01*
X1359250Y768902D01*
Y782052D01*
D02*
G37*
G36*
X1375900D02*
X1362750D01*
Y768902D01*
X1363940Y769019D01*
X1366768Y769877D01*
X1369374Y771270D01*
X1371658Y773144D01*
X1373532Y775428D01*
X1374925Y778034D01*
X1375783Y780861D01*
X1375900Y782052D01*
D02*
G37*
G36*
X1376000Y763802D02*
X1346000D01*
Y733802D01*
X1376000D01*
Y763802D01*
D02*
G37*
G36*
X1274000Y734060D02*
X1272173Y733820D01*
X1270470Y733114D01*
X1269007Y731992D01*
X1267886Y730530D01*
X1267180Y728827D01*
X1266940Y727000D01*
X1267180Y725173D01*
X1267886Y723470D01*
X1269007Y722008D01*
X1270470Y720885D01*
X1272173Y720180D01*
X1272439Y720145D01*
X1272925Y718972D01*
X1272144Y717954D01*
X1270835Y714792D01*
X1270388Y711398D01*
X1270835Y708004D01*
X1272144Y704842D01*
X1274228Y702126D01*
X1276944Y700042D01*
X1280106Y698733D01*
X1283500Y698286D01*
X1286894Y698733D01*
X1290056Y700042D01*
X1292772Y702126D01*
X1294855Y704842D01*
X1296165Y708004D01*
X1296612Y711398D01*
X1296605Y711455D01*
X1297768Y712348D01*
X1298173Y712180D01*
X1300000Y711940D01*
X1301827Y712180D01*
X1303530Y712886D01*
X1304992Y714008D01*
X1306115Y715470D01*
X1306820Y717173D01*
X1307060Y719000D01*
X1306820Y720827D01*
X1306115Y722530D01*
X1304992Y723992D01*
X1303835Y724881D01*
X1302839Y726370D01*
X1298605Y730605D01*
X1296951Y731710D01*
X1295000Y732098D01*
X1278855D01*
X1277530Y733114D01*
X1275827Y733820D01*
X1274000Y734060D01*
D02*
G37*
G36*
X80000Y734176D02*
X77060Y733886D01*
X74232Y733028D01*
X71626Y731636D01*
X69342Y729761D01*
X67468Y727477D01*
X66075Y724871D01*
X65217Y722044D01*
X64928Y719103D01*
X65217Y716163D01*
X66075Y713335D01*
X67468Y710729D01*
X69342Y708445D01*
X71626Y706571D01*
X74232Y705178D01*
X77060Y704320D01*
X80000Y704031D01*
X82941Y704320D01*
X85768Y705178D01*
X88374Y706571D01*
X90658Y708445D01*
X92533Y710729D01*
X92905Y711427D01*
X163500D01*
X165719Y711719D01*
X167787Y712575D01*
X169562Y713938D01*
X170925Y715713D01*
X171781Y717781D01*
X172073Y720000D01*
X171781Y722219D01*
X170925Y724287D01*
X169562Y726062D01*
X167787Y727425D01*
X165719Y728281D01*
X163500Y728573D01*
X91633D01*
X90658Y729761D01*
X88374Y731636D01*
X85768Y733028D01*
X82941Y733886D01*
X80000Y734176D01*
D02*
G37*
G36*
X1210050Y713658D02*
X1208222Y713417D01*
X1206519Y712712D01*
X1205057Y711590D01*
X1203935Y710127D01*
X1203230Y708425D01*
X1202989Y706597D01*
X1203230Y704770D01*
X1203935Y703067D01*
X1205057Y701605D01*
X1206519Y700483D01*
X1208222Y699777D01*
X1210050Y699537D01*
X1211877Y699777D01*
X1213580Y700483D01*
X1214904Y701499D01*
X1244630D01*
X1245007Y701008D01*
X1246470Y699885D01*
X1248173Y699180D01*
X1250000Y698940D01*
X1251827Y699180D01*
X1253530Y699885D01*
X1254992Y701008D01*
X1256115Y702470D01*
X1256820Y704173D01*
X1257060Y706000D01*
X1256820Y707827D01*
X1256115Y709530D01*
X1254992Y710993D01*
X1253530Y712114D01*
X1251827Y712820D01*
X1250000Y713060D01*
X1248173Y712820D01*
X1246470Y712114D01*
X1245923Y711695D01*
X1214904D01*
X1213580Y712712D01*
X1211877Y713417D01*
X1210050Y713658D01*
D02*
G37*
G36*
X1179547Y672067D02*
X1179547Y672067D01*
X1010272D01*
X1010272Y672067D01*
X1008410Y671696D01*
X1006833Y670642D01*
X1006833Y670642D01*
X1003163Y666972D01*
X1003001Y666993D01*
X1001174Y666753D01*
X999471Y666048D01*
X998009Y664926D01*
X996887Y663463D01*
X996182Y661760D01*
X995941Y659933D01*
X996182Y658106D01*
X996887Y656403D01*
X998009Y654941D01*
X999471Y653819D01*
X1001174Y653113D01*
X1003001Y652873D01*
X1004829Y653113D01*
X1006532Y653819D01*
X1007994Y654941D01*
X1009116Y656403D01*
X1009821Y658106D01*
X1010062Y659933D01*
X1010041Y660094D01*
X1012286Y662340D01*
X1063710D01*
X1064639Y661070D01*
X1064490Y659933D01*
X1064730Y658106D01*
X1065436Y656403D01*
X1066558Y654941D01*
X1068020Y653819D01*
X1069723Y653113D01*
X1071550Y652873D01*
X1073377Y653113D01*
X1075080Y653819D01*
X1076543Y654941D01*
X1076657Y655090D01*
X1140057D01*
X1144962Y650185D01*
X1144937Y649999D01*
X1145178Y648171D01*
X1145883Y646469D01*
X1147005Y645006D01*
X1148467Y643884D01*
X1150170Y643179D01*
X1151998Y642938D01*
X1153825Y643179D01*
X1155528Y643884D01*
X1156990Y645006D01*
X1158112Y646469D01*
X1158186Y646646D01*
X1159560D01*
X1159634Y646469D01*
X1160756Y645006D01*
X1162218Y643884D01*
X1163921Y643179D01*
X1165748Y642938D01*
X1167576Y643179D01*
X1169278Y643884D01*
X1170741Y645006D01*
X1171048Y645407D01*
X1220701D01*
X1221008Y645007D01*
X1222470Y643885D01*
X1224173Y643180D01*
X1226000Y642940D01*
X1227827Y643180D01*
X1229530Y643885D01*
X1230993Y645007D01*
X1232114Y646470D01*
X1232820Y648173D01*
X1233060Y650000D01*
X1232820Y651827D01*
X1232114Y653530D01*
X1230993Y654992D01*
X1229530Y656115D01*
X1227827Y656820D01*
X1226000Y657060D01*
X1224173Y656820D01*
X1222470Y656115D01*
X1221139Y655093D01*
X1184521D01*
X1184269Y656363D01*
X1185530Y656886D01*
X1186992Y658008D01*
X1188114Y659470D01*
X1188820Y661173D01*
X1189060Y663000D01*
X1188820Y664827D01*
X1188114Y666530D01*
X1186992Y667992D01*
X1185530Y669115D01*
X1183827Y669820D01*
X1183806Y669823D01*
X1182986Y670642D01*
X1181408Y671696D01*
X1179547Y672067D01*
D02*
G37*
G36*
X1362750Y679900D02*
Y666750D01*
X1375900D01*
X1375783Y667941D01*
X1374925Y670768D01*
X1373532Y673374D01*
X1371658Y675658D01*
X1369374Y677533D01*
X1366768Y678925D01*
X1363940Y679783D01*
X1362750Y679900D01*
D02*
G37*
G36*
X1359250Y679900D02*
X1358060Y679783D01*
X1355232Y678925D01*
X1352626Y677533D01*
X1350342Y675658D01*
X1348468Y673374D01*
X1347075Y670768D01*
X1346217Y667941D01*
X1346100Y666750D01*
X1359250D01*
Y679900D01*
D02*
G37*
G36*
X132000Y685112D02*
X128606Y684665D01*
X125444Y683355D01*
X122728Y681272D01*
X120645Y678556D01*
X119335Y675394D01*
X118888Y672000D01*
X119335Y668606D01*
X120645Y665444D01*
X122728Y662728D01*
X125444Y660645D01*
X128606Y659335D01*
X132000Y658888D01*
X135394Y659335D01*
X138556Y660645D01*
X141272Y662728D01*
X143355Y665444D01*
X144665Y668606D01*
X145112Y672000D01*
X144665Y675394D01*
X143355Y678556D01*
X141272Y681272D01*
X138556Y683355D01*
X135394Y684665D01*
X132000Y685112D01*
D02*
G37*
G36*
X1359250Y663250D02*
X1346100D01*
X1346217Y662060D01*
X1347075Y659232D01*
X1348468Y656626D01*
X1350342Y654342D01*
X1352626Y652468D01*
X1355232Y651075D01*
X1358060Y650217D01*
X1359250Y650100D01*
Y663250D01*
D02*
G37*
G36*
X1375900D02*
X1362750D01*
Y650100D01*
X1363940Y650217D01*
X1366768Y651075D01*
X1369374Y652468D01*
X1371658Y654342D01*
X1373532Y656626D01*
X1374925Y659232D01*
X1375783Y662060D01*
X1375900Y663250D01*
D02*
G37*
G36*
X182000Y675112D02*
X178606Y674665D01*
X175444Y673355D01*
X172728Y671272D01*
X170644Y668556D01*
X169335Y665394D01*
X168888Y662000D01*
X169335Y658606D01*
X170644Y655444D01*
X172728Y652728D01*
X175444Y650645D01*
X178606Y649335D01*
X182000Y648888D01*
X185394Y649335D01*
X188556Y650645D01*
X191272Y652728D01*
X193355Y655444D01*
X194665Y658606D01*
X195112Y662000D01*
X194665Y665394D01*
X193355Y668556D01*
X191272Y671272D01*
X188556Y673355D01*
X185394Y674665D01*
X182000Y675112D01*
D02*
G37*
G36*
X1265997Y656059D02*
X1264170Y655818D01*
X1262467Y655113D01*
X1261005Y653991D01*
X1259883Y652529D01*
X1259178Y650826D01*
X1258937Y648999D01*
X1259178Y647171D01*
X1259883Y645469D01*
X1261005Y644006D01*
X1262467Y642884D01*
X1264170Y642179D01*
X1265997Y641938D01*
X1267825Y642179D01*
X1269528Y642884D01*
X1270990Y644006D01*
X1271105Y644156D01*
X1281901D01*
X1289481Y636576D01*
X1289481Y636575D01*
X1291052Y635526D01*
X1292906Y635157D01*
X1292906Y635157D01*
X1297893D01*
X1298008Y635008D01*
X1299470Y633885D01*
X1301173Y633180D01*
X1303000Y632940D01*
X1304827Y633180D01*
X1306530Y633885D01*
X1307993Y635008D01*
X1309115Y636470D01*
X1309820Y638173D01*
X1310060Y640000D01*
X1309820Y641827D01*
X1309115Y643530D01*
X1307993Y644992D01*
X1306530Y646115D01*
X1304827Y646820D01*
X1303000Y647060D01*
X1301173Y646820D01*
X1299470Y646115D01*
X1298008Y644992D01*
X1297893Y644843D01*
X1294912D01*
X1287332Y652423D01*
X1285760Y653473D01*
X1283907Y653842D01*
X1271105D01*
X1270990Y653991D01*
X1269528Y655113D01*
X1267825Y655818D01*
X1265997Y656059D01*
D02*
G37*
G36*
X1376000Y645000D02*
X1346000D01*
Y615000D01*
X1376000D01*
Y645000D01*
D02*
G37*
G36*
X1310996Y599061D02*
X1309169Y598820D01*
X1307466Y598115D01*
X1306141Y597098D01*
X1265999D01*
X1264048Y596710D01*
X1262394Y595605D01*
X1251327Y584538D01*
X1249671Y584320D01*
X1247968Y583615D01*
X1246506Y582492D01*
X1245384Y581030D01*
X1244679Y579327D01*
X1244438Y577500D01*
X1244679Y575673D01*
X1245384Y573970D01*
X1246506Y572508D01*
X1247968Y571385D01*
X1249671Y570680D01*
X1251498Y570440D01*
X1253326Y570680D01*
X1255029Y571385D01*
X1256491Y572508D01*
X1257613Y573970D01*
X1258318Y575673D01*
X1258536Y577328D01*
X1268110Y586902D01*
X1306141D01*
X1307466Y585886D01*
X1309169Y585180D01*
X1310996Y584940D01*
X1312824Y585180D01*
X1314527Y585886D01*
X1315989Y587008D01*
X1317111Y588470D01*
X1317816Y590173D01*
X1318057Y592000D01*
X1317816Y593828D01*
X1317111Y595530D01*
X1315989Y596993D01*
X1314527Y598115D01*
X1312824Y598820D01*
X1310996Y599061D01*
D02*
G37*
G36*
X1322000Y586573D02*
X1319781Y586281D01*
X1317713Y585425D01*
X1315938Y584062D01*
X1315938Y584062D01*
X1309449Y577573D01*
X1285757D01*
X1285757Y577573D01*
X1283538Y577281D01*
X1281470Y576425D01*
X1279695Y575062D01*
X1261456Y556824D01*
X1208000D01*
X1205781Y556531D01*
X1203713Y555675D01*
X1201938Y554313D01*
X1200575Y552537D01*
X1199719Y550469D01*
X1199427Y548250D01*
X1199719Y546031D01*
X1200575Y543964D01*
X1201938Y542188D01*
X1203713Y540826D01*
X1205781Y539969D01*
X1208000Y539677D01*
X1265007D01*
X1267226Y539969D01*
X1269294Y540826D01*
X1271070Y542188D01*
X1279520Y550638D01*
X1280723Y550045D01*
X1280388Y547500D01*
X1280835Y544106D01*
X1282144Y540944D01*
X1284228Y538228D01*
X1286944Y536144D01*
X1290106Y534835D01*
X1293500Y534388D01*
X1296893Y534835D01*
X1300056Y536144D01*
X1302771Y538228D01*
X1304855Y540944D01*
X1306165Y544106D01*
X1306612Y547500D01*
X1306165Y550894D01*
X1304855Y554056D01*
X1302771Y556772D01*
X1300056Y558855D01*
X1299328Y559157D01*
X1299581Y560427D01*
X1313000D01*
X1315219Y560719D01*
X1317287Y561575D01*
X1319062Y562938D01*
X1328062Y571938D01*
X1329425Y573713D01*
X1330281Y575781D01*
X1330573Y578000D01*
X1330281Y580219D01*
X1329425Y582287D01*
X1328062Y584062D01*
X1326287Y585425D01*
X1324219Y586281D01*
X1322000Y586573D01*
D02*
G37*
G36*
X81500Y527401D02*
Y514251D01*
X94650D01*
X94533Y515441D01*
X93675Y518269D01*
X92282Y520875D01*
X90408Y523159D01*
X88124Y525033D01*
X85518Y526426D01*
X82691Y527284D01*
X81500Y527401D01*
D02*
G37*
G36*
X78000D02*
X76810Y527284D01*
X73982Y526426D01*
X71376Y525033D01*
X69092Y523159D01*
X67218Y520875D01*
X65825Y518269D01*
X64967Y515441D01*
X64850Y514251D01*
X78000D01*
Y527401D01*
D02*
G37*
G36*
X1361000Y512573D02*
X1358781Y512281D01*
X1356713Y511425D01*
X1354938Y510062D01*
X1350949Y506073D01*
X1293307D01*
X1292772Y506772D01*
X1290056Y508855D01*
X1286893Y510165D01*
X1283500Y510612D01*
X1280106Y510165D01*
X1276944Y508855D01*
X1274228Y506772D01*
X1272144Y504056D01*
X1270835Y500894D01*
X1270388Y497500D01*
X1270835Y494106D01*
X1272144Y490944D01*
X1274228Y488228D01*
X1276944Y486144D01*
X1280106Y484835D01*
X1283500Y484388D01*
X1286893Y484835D01*
X1290056Y486144D01*
X1292772Y488228D01*
X1293307Y488927D01*
X1355000D01*
X1357219Y489219D01*
X1359287Y490075D01*
X1361062Y491438D01*
X1362425Y493213D01*
X1362486Y493362D01*
X1367062Y497938D01*
X1368425Y499713D01*
X1369281Y501781D01*
X1369573Y504000D01*
X1369281Y506219D01*
X1368425Y508287D01*
X1367062Y510062D01*
X1365287Y511425D01*
X1363219Y512281D01*
X1361000Y512573D01*
D02*
G37*
G36*
X94650Y510751D02*
X81500D01*
Y497601D01*
X82691Y497718D01*
X85518Y498576D01*
X88124Y499968D01*
X90408Y501843D01*
X92282Y504127D01*
X93675Y506733D01*
X94533Y509560D01*
X94650Y510751D01*
D02*
G37*
G36*
X78000D02*
X64850D01*
X64967Y509560D01*
X65825Y506733D01*
X67218Y504127D01*
X69092Y501843D01*
X71376Y499968D01*
X73982Y498576D01*
X76810Y497718D01*
X78000Y497601D01*
Y510751D01*
D02*
G37*
G36*
X1362750Y482399D02*
Y469249D01*
X1375900D01*
X1375783Y470440D01*
X1374925Y473267D01*
X1373532Y475873D01*
X1371658Y478157D01*
X1369374Y480032D01*
X1366768Y481424D01*
X1363940Y482282D01*
X1362750Y482399D01*
D02*
G37*
G36*
X1359250D02*
X1358059Y482282D01*
X1355232Y481424D01*
X1352626Y480032D01*
X1350342Y478157D01*
X1348468Y475873D01*
X1347075Y473267D01*
X1346217Y470440D01*
X1346100Y469249D01*
X1359250D01*
Y482399D01*
D02*
G37*
G36*
X1375900Y465749D02*
X1362750D01*
Y452599D01*
X1363940Y452716D01*
X1366768Y453574D01*
X1369374Y454967D01*
X1371658Y456841D01*
X1373532Y459125D01*
X1374925Y461731D01*
X1375783Y464559D01*
X1375900Y465749D01*
D02*
G37*
G36*
X1359250D02*
X1346100D01*
X1346217Y464559D01*
X1347075Y461731D01*
X1348468Y459125D01*
X1350342Y456841D01*
X1352626Y454967D01*
X1355232Y453574D01*
X1358059Y452716D01*
X1359250Y452599D01*
Y465749D01*
D02*
G37*
G36*
X1362750Y447401D02*
Y434250D01*
X1375900D01*
X1375783Y435441D01*
X1374925Y438269D01*
X1373532Y440874D01*
X1371658Y443158D01*
X1369374Y445033D01*
X1366768Y446426D01*
X1363940Y447283D01*
X1362750Y447401D01*
D02*
G37*
G36*
X1359250D02*
X1358059Y447283D01*
X1355232Y446426D01*
X1352626Y445033D01*
X1350342Y443158D01*
X1348468Y440874D01*
X1347075Y438269D01*
X1346217Y435441D01*
X1346100Y434250D01*
X1359250D01*
Y447401D01*
D02*
G37*
G36*
X304000Y426060D02*
X302173Y425820D01*
X300470Y425115D01*
X299008Y423992D01*
X298893Y423843D01*
X201607D01*
X201492Y423992D01*
X200030Y425115D01*
X198327Y425820D01*
X196500Y426060D01*
X194673Y425820D01*
X192970Y425115D01*
X191507Y423992D01*
X190385Y422530D01*
X189680Y420827D01*
X189440Y419000D01*
X189680Y417173D01*
X190385Y415470D01*
X191507Y414008D01*
X192970Y412886D01*
X194673Y412180D01*
X196500Y411940D01*
X198327Y412180D01*
X200030Y412886D01*
X201492Y414008D01*
X201607Y414157D01*
X298893D01*
X299008Y414008D01*
X299967Y413271D01*
X300041Y413101D01*
Y411899D01*
X299967Y411729D01*
X299008Y410992D01*
X297885Y409530D01*
X297180Y407827D01*
X296940Y406000D01*
X297180Y404173D01*
X297885Y402470D01*
X299008Y401008D01*
X300470Y399885D01*
X302173Y399180D01*
X304000Y398940D01*
X305827Y399180D01*
X307530Y399885D01*
X308855Y400902D01*
X324181D01*
X324264Y399632D01*
X322629Y399417D01*
X319953Y398308D01*
X317655Y396545D01*
X315892Y394247D01*
X314783Y391572D01*
X314405Y388700D01*
X314783Y385828D01*
X315892Y383152D01*
X317655Y380855D01*
X319953Y379091D01*
X322629Y377983D01*
X325500Y377605D01*
X328372Y377983D01*
X331048Y379091D01*
X333345Y380855D01*
X335108Y383152D01*
X336217Y385828D01*
X336595Y388700D01*
X336217Y391572D01*
X335108Y394247D01*
X333345Y396545D01*
X331048Y398308D01*
X328372Y399417D01*
X326736Y399632D01*
X326819Y400902D01*
X341788D01*
X343120Y399881D01*
X344822Y399175D01*
X346650Y398935D01*
X348477Y399175D01*
X350180Y399881D01*
X351642Y401003D01*
X352764Y402465D01*
X353470Y404168D01*
X353710Y405995D01*
X353470Y407823D01*
X353354Y408101D01*
X354060Y409157D01*
X391994D01*
X395559Y405592D01*
X395205Y402900D01*
X395583Y400028D01*
X396692Y397353D01*
X398455Y395055D01*
X400753Y393292D01*
X403428Y392183D01*
X406300Y391805D01*
X409172Y392183D01*
X411847Y393292D01*
X414145Y395055D01*
X415909Y397353D01*
X417017Y400028D01*
X417395Y402900D01*
X417017Y405772D01*
X415909Y408447D01*
X414145Y410745D01*
X411847Y412509D01*
X409172Y413617D01*
X406300Y413995D01*
X403428Y413617D01*
X401875Y412974D01*
X397425Y417425D01*
X395853Y418474D01*
X394000Y418843D01*
X330780D01*
X330493Y419217D01*
X329030Y420339D01*
X327327Y421045D01*
X325500Y421285D01*
X323673Y421045D01*
X321970Y420339D01*
X320508Y419217D01*
X319386Y417755D01*
X318680Y416052D01*
X318440Y414225D01*
X318680Y412397D01*
X318781Y412154D01*
X318076Y411098D01*
X308855D01*
X308033Y411729D01*
X307959Y411899D01*
Y413101D01*
X308033Y413271D01*
X308992Y414008D01*
X310114Y415470D01*
X310820Y417173D01*
X311060Y419000D01*
X310820Y420827D01*
X310114Y422530D01*
X308992Y423992D01*
X307530Y425115D01*
X305827Y425820D01*
X304000Y426060D01*
D02*
G37*
G36*
X1375900Y430751D02*
X1362750D01*
Y417600D01*
X1363940Y417718D01*
X1366768Y418575D01*
X1369374Y419968D01*
X1371658Y421843D01*
X1373532Y424127D01*
X1374925Y426732D01*
X1375783Y429560D01*
X1375900Y430751D01*
D02*
G37*
G36*
X1359250D02*
X1346100D01*
X1346217Y429560D01*
X1347075Y426732D01*
X1348468Y424127D01*
X1350342Y421843D01*
X1352626Y419968D01*
X1355232Y418575D01*
X1358059Y417718D01*
X1359250Y417600D01*
Y430751D01*
D02*
G37*
G36*
X442565Y426550D02*
X433450D01*
Y417435D01*
X434572Y417583D01*
X437247Y418692D01*
X439545Y420455D01*
X441309Y422753D01*
X442417Y425429D01*
X442565Y426550D01*
D02*
G37*
G36*
X429950D02*
X420835D01*
X420983Y425429D01*
X422091Y422753D01*
X423855Y420455D01*
X426153Y418692D01*
X428828Y417583D01*
X429950Y417435D01*
Y426550D01*
D02*
G37*
G36*
X406300Y439395D02*
X403428Y439017D01*
X400753Y437909D01*
X398455Y436145D01*
X396692Y433848D01*
X395583Y431172D01*
X395205Y428300D01*
X395583Y425429D01*
X396692Y422753D01*
X398455Y420455D01*
X400753Y418692D01*
X403428Y417583D01*
X406300Y417205D01*
X409172Y417583D01*
X411847Y418692D01*
X414145Y420455D01*
X415909Y422753D01*
X417017Y425429D01*
X417395Y428300D01*
X417017Y431172D01*
X415909Y433848D01*
X414145Y436145D01*
X411847Y437909D01*
X409172Y439017D01*
X406300Y439395D01*
D02*
G37*
G36*
X1362750Y412399D02*
Y399249D01*
X1375900D01*
X1375783Y400440D01*
X1374925Y403267D01*
X1373532Y405873D01*
X1371658Y408157D01*
X1369374Y410032D01*
X1366768Y411424D01*
X1363940Y412282D01*
X1362750Y412399D01*
D02*
G37*
G36*
X1359250D02*
X1358059Y412282D01*
X1355232Y411424D01*
X1352626Y410032D01*
X1350342Y408157D01*
X1348468Y405873D01*
X1347075Y403267D01*
X1346217Y400440D01*
X1346100Y399249D01*
X1359250D01*
Y412399D01*
D02*
G37*
G36*
X488000Y400060D02*
X486173Y399820D01*
X484470Y399114D01*
X483145Y398098D01*
X468855D01*
X467530Y399114D01*
X465827Y399820D01*
X464000Y400060D01*
X462173Y399820D01*
X460470Y399114D01*
X459008Y397992D01*
X457886Y396530D01*
X457180Y394827D01*
X456940Y393000D01*
X457180Y391173D01*
X457886Y389470D01*
X459008Y388008D01*
X460470Y386885D01*
X462173Y386180D01*
X464000Y385940D01*
X465827Y386180D01*
X467530Y386885D01*
X468855Y387902D01*
X483145D01*
X484470Y386885D01*
X486173Y386180D01*
X488000Y385940D01*
X489827Y386180D01*
X491530Y386885D01*
X492992Y388008D01*
X494114Y389470D01*
X494820Y391173D01*
X495060Y393000D01*
X494820Y394827D01*
X494114Y396530D01*
X492992Y397992D01*
X491530Y399114D01*
X489827Y399820D01*
X488000Y400060D01*
D02*
G37*
G36*
X95000Y447500D02*
X65000D01*
Y417500D01*
X95000D01*
Y423926D01*
X131449D01*
X152003Y403373D01*
X151888Y402500D01*
X152335Y399107D01*
X153645Y395944D01*
X155621Y393368D01*
X155340Y392098D01*
X111112D01*
X102104Y401106D01*
X100450Y402211D01*
X98499Y402599D01*
X94129D01*
X93925Y403269D01*
X92532Y405875D01*
X90658Y408159D01*
X88374Y410033D01*
X85768Y411426D01*
X82941Y412284D01*
X80000Y412573D01*
X77059Y412284D01*
X74232Y411426D01*
X71626Y410033D01*
X69342Y408159D01*
X67468Y405875D01*
X66075Y403269D01*
X65217Y400441D01*
X64927Y397501D01*
X65217Y394560D01*
X66075Y391733D01*
X67468Y389127D01*
X69342Y386843D01*
X71626Y384968D01*
X74232Y383576D01*
X77059Y382718D01*
X80000Y382428D01*
X82941Y382718D01*
X85768Y383576D01*
X88374Y384968D01*
X90658Y386843D01*
X92532Y389127D01*
X93925Y391733D01*
X94129Y392403D01*
X96388D01*
X104422Y384368D01*
X103896Y383098D01*
X92000D01*
X90049Y382710D01*
X88395Y381605D01*
X83809Y377019D01*
X82941Y377283D01*
X80000Y377572D01*
X77059Y377283D01*
X74232Y376425D01*
X71626Y375032D01*
X69342Y373158D01*
X67468Y370873D01*
X66075Y368268D01*
X65217Y365440D01*
X64927Y362500D01*
X65217Y359559D01*
X66075Y356732D01*
X67468Y354126D01*
X69342Y351842D01*
X71626Y349967D01*
X74232Y348574D01*
X77059Y347717D01*
X80000Y347427D01*
X82941Y347717D01*
X85768Y348574D01*
X88374Y349967D01*
X90275Y351528D01*
X91439Y351182D01*
X91622Y351027D01*
X91721Y350281D01*
X92577Y348214D01*
X93939Y346438D01*
X95715Y345076D01*
X97783Y344219D01*
X100002Y343927D01*
X145192D01*
X145728Y343229D01*
X148444Y341145D01*
X151606Y339835D01*
X155000Y339388D01*
X158394Y339835D01*
X161556Y341145D01*
X164272Y343229D01*
X166355Y345944D01*
X167665Y349107D01*
X168112Y352500D01*
X167665Y355894D01*
X166355Y359056D01*
X164272Y361772D01*
X161556Y363856D01*
X158394Y365166D01*
X155000Y365612D01*
X151606Y365166D01*
X148444Y363856D01*
X145728Y361772D01*
X145192Y361074D01*
X100002D01*
X97783Y360782D01*
X96111Y360089D01*
X95138Y360639D01*
X94916Y360913D01*
X95073Y362500D01*
X94783Y365440D01*
X93925Y368268D01*
X92532Y370873D01*
X92330Y371120D01*
X94112Y372902D01*
X255145D01*
X256470Y371885D01*
X258173Y371180D01*
X260000Y370940D01*
X261827Y371180D01*
X263530Y371885D01*
X264992Y373008D01*
X266115Y374470D01*
X266820Y376173D01*
X267060Y378000D01*
X266820Y379827D01*
X266115Y381530D01*
X264992Y382993D01*
X263530Y384114D01*
X261827Y384820D01*
X260000Y385060D01*
X258173Y384820D01*
X256470Y384114D01*
X255145Y383098D01*
X250335D01*
X249487Y384368D01*
X249820Y385173D01*
X250060Y387000D01*
X249820Y388827D01*
X249114Y390530D01*
X247992Y391992D01*
X246530Y393115D01*
X244827Y393820D01*
X243000Y394060D01*
X241173Y393820D01*
X239470Y393115D01*
X238145Y392098D01*
X174660D01*
X174379Y393368D01*
X176355Y395944D01*
X177665Y399107D01*
X178112Y402500D01*
X177665Y405894D01*
X176355Y409056D01*
X174272Y411772D01*
X171556Y413856D01*
X168394Y415166D01*
X165000Y415612D01*
X164127Y415498D01*
X141063Y438562D01*
X139287Y439924D01*
X137220Y440781D01*
X135001Y441073D01*
X95000D01*
Y447500D01*
D02*
G37*
G36*
X431700Y413995D02*
X428828Y413617D01*
X426153Y412509D01*
X423855Y410745D01*
X422091Y408447D01*
X420983Y405772D01*
X420605Y402900D01*
X420983Y400028D01*
X422091Y397353D01*
X423855Y395055D01*
X426153Y393292D01*
X428828Y392183D01*
X431700Y391805D01*
X434572Y392183D01*
X437247Y393292D01*
X439545Y395055D01*
X441309Y397353D01*
X442417Y400028D01*
X442795Y402900D01*
X442417Y405772D01*
X441309Y408447D01*
X439545Y410745D01*
X437247Y412509D01*
X434572Y413617D01*
X431700Y413995D01*
D02*
G37*
G36*
X1375900Y395749D02*
X1362750D01*
Y382599D01*
X1363940Y382716D01*
X1366768Y383574D01*
X1369374Y384967D01*
X1371658Y386841D01*
X1373532Y389125D01*
X1374925Y391731D01*
X1375783Y394559D01*
X1375900Y395749D01*
D02*
G37*
G36*
X1359250D02*
X1346100D01*
X1346217Y394559D01*
X1347075Y391731D01*
X1348468Y389125D01*
X1350342Y386841D01*
X1352626Y384967D01*
X1355232Y383574D01*
X1358059Y382716D01*
X1359250Y382599D01*
Y395749D01*
D02*
G37*
G36*
X408050Y388364D02*
Y379250D01*
X417164D01*
X417017Y380372D01*
X415909Y383047D01*
X414145Y385345D01*
X411847Y387108D01*
X409172Y388217D01*
X408050Y388364D01*
D02*
G37*
G36*
X404550Y388365D02*
X403428Y388217D01*
X400753Y387108D01*
X398455Y385345D01*
X396692Y383047D01*
X395583Y380372D01*
X395435Y379250D01*
X404550D01*
Y388365D01*
D02*
G37*
G36*
X417164Y375750D02*
X408050D01*
Y366636D01*
X409172Y366783D01*
X411847Y367892D01*
X414145Y369655D01*
X415909Y371953D01*
X417017Y374628D01*
X417164Y375750D01*
D02*
G37*
G36*
X404550D02*
X395435D01*
X395583Y374628D01*
X396692Y371953D01*
X398455Y369655D01*
X400753Y367892D01*
X403428Y366783D01*
X404550Y366636D01*
Y375750D01*
D02*
G37*
G36*
X431700Y388595D02*
X428828Y388217D01*
X426153Y387108D01*
X423855Y385345D01*
X422091Y383047D01*
X420983Y380372D01*
X420605Y377500D01*
X420983Y374628D01*
X422091Y371953D01*
X423855Y369655D01*
X426153Y367892D01*
X428828Y366783D01*
X431700Y366405D01*
X434572Y366783D01*
X437247Y367892D01*
X439545Y369655D01*
X441309Y371953D01*
X442417Y374628D01*
X442795Y377500D01*
X442417Y380372D01*
X441309Y383047D01*
X439545Y385345D01*
X437247Y387108D01*
X434572Y388217D01*
X431700Y388595D01*
D02*
G37*
G36*
X1376000Y377501D02*
X1362750D01*
Y364251D01*
X1376000D01*
Y377501D01*
D02*
G37*
G36*
X1359250D02*
X1346000D01*
Y364251D01*
X1359250D01*
Y377501D01*
D02*
G37*
G36*
X1293499Y385912D02*
X1290105Y385465D01*
X1286943Y384156D01*
X1284227Y382072D01*
X1282144Y379356D01*
X1280834Y376194D01*
X1280387Y372800D01*
X1280834Y369406D01*
X1282144Y366244D01*
X1284227Y363528D01*
X1286943Y361445D01*
X1290105Y360135D01*
X1293499Y359688D01*
X1296893Y360135D01*
X1300055Y361445D01*
X1302771Y363528D01*
X1304854Y366244D01*
X1306164Y369406D01*
X1306611Y372800D01*
X1306164Y376194D01*
X1304854Y379356D01*
X1302771Y382072D01*
X1300055Y384156D01*
X1296893Y385465D01*
X1293499Y385912D01*
D02*
G37*
G36*
X336500Y374300D02*
X314500D01*
Y352300D01*
X336500D01*
Y374300D01*
D02*
G37*
G36*
X1376000Y360751D02*
X1362750D01*
Y347501D01*
X1376000D01*
Y360751D01*
D02*
G37*
G36*
X1359250D02*
X1346000D01*
Y347501D01*
X1359250D01*
Y360751D01*
D02*
G37*
G36*
X406300Y363195D02*
X403428Y362817D01*
X400753Y361708D01*
X398455Y359945D01*
X396692Y357648D01*
X395583Y354972D01*
X395205Y352100D01*
X395583Y349229D01*
X396692Y346553D01*
X396934Y346237D01*
X396372Y345098D01*
X390855D01*
X389530Y346115D01*
X387827Y346820D01*
X386000Y347060D01*
X384173Y346820D01*
X382470Y346115D01*
X381007Y344992D01*
X379885Y343530D01*
X379180Y341827D01*
X378940Y340000D01*
X379180Y338173D01*
X379885Y336470D01*
X381007Y335008D01*
X382470Y333885D01*
X384173Y333180D01*
X386000Y332940D01*
X387827Y333180D01*
X389530Y333885D01*
X390855Y334902D01*
X395300D01*
Y315700D01*
X417300D01*
Y332231D01*
X418473Y332717D01*
X421169Y330021D01*
X420983Y329572D01*
X420605Y326700D01*
X420983Y323829D01*
X422091Y321153D01*
X423855Y318855D01*
X426153Y317092D01*
X428828Y315983D01*
X431700Y315605D01*
X434572Y315983D01*
X437247Y317092D01*
X438596Y318127D01*
X486700D01*
X488919Y318419D01*
X490987Y319275D01*
X492762Y320638D01*
X500062Y327938D01*
X501425Y329713D01*
X502281Y331781D01*
X502573Y334000D01*
X502281Y336219D01*
X501425Y338287D01*
X500062Y340062D01*
X498287Y341425D01*
X496219Y342281D01*
X494000Y342573D01*
X491781Y342281D01*
X489713Y341425D01*
X487938Y340062D01*
X483149Y335273D01*
X438596D01*
X437247Y336309D01*
X434572Y337417D01*
X431700Y337795D01*
X428828Y337417D01*
X428379Y337231D01*
X422005Y343605D01*
X420351Y344710D01*
X418400Y345098D01*
X416228D01*
X415666Y346237D01*
X415909Y346553D01*
X417017Y349229D01*
X417395Y352100D01*
X417017Y354972D01*
X415909Y357648D01*
X414145Y359945D01*
X411847Y361708D01*
X409172Y362817D01*
X406300Y363195D01*
D02*
G37*
G36*
X431700D02*
X428828Y362817D01*
X426153Y361708D01*
X423855Y359945D01*
X422091Y357648D01*
X420983Y354972D01*
X420605Y352100D01*
X420983Y349229D01*
X422091Y346553D01*
X423855Y344255D01*
X426153Y342492D01*
X428828Y341383D01*
X431700Y341005D01*
X434572Y341383D01*
X437247Y342492D01*
X439545Y344255D01*
X441309Y346553D01*
X442417Y349229D01*
X442795Y352100D01*
X442417Y354972D01*
X441309Y357648D01*
X439545Y359945D01*
X437247Y361708D01*
X434572Y362817D01*
X431700Y363195D01*
D02*
G37*
G36*
X81750Y342401D02*
Y329251D01*
X94900D01*
X94783Y330442D01*
X93925Y333269D01*
X92532Y335875D01*
X90658Y338159D01*
X88374Y340033D01*
X85768Y341426D01*
X82941Y342284D01*
X81750Y342401D01*
D02*
G37*
G36*
X78250D02*
X77059Y342284D01*
X74232Y341426D01*
X71626Y340033D01*
X69342Y338159D01*
X67468Y335875D01*
X66075Y333269D01*
X65217Y330442D01*
X65100Y329251D01*
X78250D01*
Y342401D01*
D02*
G37*
G36*
X1040998Y326060D02*
X1039171Y325820D01*
X1037468Y325115D01*
X1036005Y323992D01*
X1035907Y323863D01*
X933091D01*
X932992Y323992D01*
X931530Y325115D01*
X929827Y325820D01*
X928000Y326060D01*
X926173Y325820D01*
X924470Y325115D01*
X923008Y323992D01*
X921886Y322530D01*
X921180Y320827D01*
X920940Y319000D01*
X921180Y317173D01*
X921886Y315470D01*
X923008Y314008D01*
X924470Y312885D01*
X926173Y312180D01*
X928000Y311940D01*
X929827Y312180D01*
X931530Y312885D01*
X932992Y314008D01*
X933091Y314137D01*
X1035907D01*
X1036005Y314008D01*
X1037468Y312885D01*
X1039171Y312180D01*
X1040998Y311940D01*
X1042825Y312180D01*
X1044528Y312885D01*
X1045990Y314008D01*
X1047112Y315470D01*
X1047818Y317173D01*
X1048058Y319000D01*
X1047818Y320827D01*
X1047112Y322530D01*
X1045990Y323992D01*
X1044528Y325115D01*
X1042825Y325820D01*
X1040998Y326060D01*
D02*
G37*
G36*
X94900Y325751D02*
X81750D01*
Y312601D01*
X82941Y312718D01*
X85768Y313576D01*
X88374Y314969D01*
X90658Y316843D01*
X92532Y319127D01*
X93925Y321733D01*
X94783Y324561D01*
X94900Y325751D01*
D02*
G37*
G36*
X78250D02*
X65100D01*
X65217Y324561D01*
X66075Y321733D01*
X67468Y319127D01*
X69342Y316843D01*
X71626Y314969D01*
X74232Y313576D01*
X77059Y312718D01*
X78250Y312601D01*
Y325751D01*
D02*
G37*
G36*
X1361000Y321672D02*
X1358059Y321382D01*
X1355232Y320525D01*
X1352626Y319132D01*
X1350342Y317257D01*
X1348468Y314973D01*
X1347075Y312368D01*
X1346217Y309540D01*
X1345927Y306600D01*
X1346217Y303659D01*
X1347075Y300832D01*
X1348468Y298226D01*
X1350342Y295942D01*
X1352626Y294067D01*
X1355232Y292674D01*
X1358059Y291817D01*
X1361000Y291527D01*
X1363940Y291817D01*
X1366768Y292674D01*
X1369374Y294067D01*
X1371658Y295942D01*
X1373532Y298226D01*
X1374925Y300832D01*
X1375783Y303659D01*
X1376072Y306600D01*
X1375783Y309540D01*
X1374925Y312368D01*
X1373532Y314973D01*
X1371658Y317257D01*
X1369374Y319132D01*
X1366768Y320525D01*
X1363940Y321382D01*
X1361000Y321672D01*
D02*
G37*
G36*
Y286674D02*
X1358059Y286384D01*
X1355232Y285526D01*
X1352626Y284133D01*
X1350342Y282259D01*
X1349123Y280774D01*
X1293767D01*
X1292771Y282072D01*
X1290055Y284156D01*
X1286893Y285465D01*
X1283499Y285912D01*
X1280105Y285465D01*
X1276943Y284156D01*
X1274227Y282072D01*
X1272144Y279356D01*
X1270834Y276194D01*
X1270387Y272800D01*
X1270834Y269406D01*
X1272144Y266244D01*
X1274227Y263528D01*
X1276943Y261445D01*
X1280105Y260135D01*
X1283499Y259688D01*
X1286893Y260135D01*
X1290055Y261445D01*
X1292771Y263528D01*
X1292847Y263627D01*
X1348254D01*
X1348468Y263227D01*
X1350342Y260943D01*
X1352626Y259069D01*
X1355232Y257676D01*
X1358059Y256818D01*
X1361000Y256528D01*
X1363940Y256818D01*
X1366768Y257676D01*
X1369374Y259069D01*
X1371658Y260943D01*
X1373532Y263227D01*
X1374925Y265833D01*
X1375783Y268660D01*
X1376072Y271601D01*
X1375783Y274541D01*
X1374925Y277369D01*
X1373532Y279975D01*
X1371658Y282259D01*
X1369374Y284133D01*
X1366768Y285526D01*
X1363940Y286384D01*
X1361000Y286674D01*
D02*
G37*
G36*
X1161000Y277060D02*
X1159173Y276820D01*
X1157470Y276115D01*
X1156008Y274992D01*
X1155893Y274843D01*
X1089607D01*
X1089492Y274992D01*
X1088030Y276115D01*
X1086327Y276820D01*
X1084500Y277060D01*
X1082673Y276820D01*
X1080970Y276115D01*
X1079507Y274992D01*
X1078385Y273530D01*
X1077680Y271827D01*
X1077439Y270000D01*
X1077680Y268173D01*
X1078385Y266470D01*
X1079507Y265007D01*
X1080970Y263885D01*
X1082673Y263180D01*
X1084500Y262940D01*
X1086327Y263180D01*
X1088030Y263885D01*
X1089492Y265007D01*
X1089607Y265157D01*
X1155893D01*
X1156008Y265007D01*
X1157470Y263885D01*
X1159173Y263180D01*
X1161000Y262940D01*
X1162827Y263180D01*
X1164530Y263885D01*
X1165992Y265007D01*
X1167114Y266470D01*
X1167820Y268173D01*
X1168060Y270000D01*
X1167820Y271827D01*
X1167114Y273530D01*
X1165992Y274992D01*
X1164530Y276115D01*
X1162827Y276820D01*
X1161000Y277060D01*
D02*
G37*
G36*
X1175848Y257616D02*
X1173107Y257255D01*
X1170553Y256197D01*
X1168359Y254514D01*
X1166676Y252321D01*
X1165618Y249767D01*
X1165489Y248781D01*
X1164208D01*
X1164078Y249767D01*
X1163020Y252321D01*
X1161337Y254514D01*
X1159144Y256197D01*
X1156589Y257255D01*
X1153848Y257616D01*
X1151107Y257255D01*
X1148553Y256197D01*
X1146359Y254514D01*
X1144677Y252321D01*
X1143618Y249767D01*
X1143488Y248779D01*
X1142207D01*
X1142077Y249767D01*
X1141019Y252321D01*
X1139336Y254514D01*
X1137143Y256197D01*
X1134589Y257255D01*
X1131848Y257616D01*
X1129107Y257255D01*
X1126552Y256197D01*
X1124359Y254514D01*
X1122676Y252321D01*
X1121618Y249767D01*
X1121257Y247026D01*
X1121618Y244285D01*
X1122676Y241730D01*
X1124359Y239537D01*
X1126552Y237854D01*
X1129107Y236796D01*
X1131848Y236435D01*
X1134589Y236796D01*
X1137143Y237854D01*
X1139336Y239537D01*
X1141019Y241730D01*
X1142077Y244285D01*
X1142207Y245272D01*
X1143488D01*
X1143618Y244285D01*
X1144677Y241730D01*
X1146359Y239537D01*
X1148553Y237854D01*
X1151107Y236796D01*
X1153848Y236435D01*
X1156589Y236796D01*
X1159144Y237854D01*
X1161337Y239537D01*
X1163020Y241730D01*
X1164078Y244285D01*
X1164208Y245270D01*
X1165489D01*
X1165618Y244285D01*
X1166676Y241730D01*
X1168359Y239537D01*
X1170553Y237854D01*
X1173107Y236796D01*
X1175848Y236435D01*
X1178589Y236796D01*
X1181143Y237854D01*
X1183337Y239537D01*
X1185020Y241730D01*
X1186078Y244285D01*
X1186439Y247026D01*
X1186078Y249767D01*
X1185020Y252321D01*
X1183337Y254514D01*
X1181143Y256197D01*
X1178589Y257255D01*
X1175848Y257616D01*
D02*
G37*
G36*
X909000Y311604D02*
X903743Y311190D01*
X898616Y309959D01*
X893744Y307941D01*
X889248Y305186D01*
X885239Y301761D01*
X881814Y297752D01*
X879059Y293256D01*
X877041Y288384D01*
X875810Y283257D01*
X875396Y278000D01*
X875810Y272743D01*
X877041Y267616D01*
X879059Y262744D01*
X881814Y258248D01*
X885239Y254239D01*
X889248Y250814D01*
X893744Y248059D01*
X898616Y246041D01*
X903743Y244810D01*
X909000Y244396D01*
X914257Y244810D01*
X919384Y246041D01*
X924256Y248059D01*
X928752Y250814D01*
X932761Y254239D01*
X936186Y258248D01*
X938941Y262744D01*
X940959Y267616D01*
X942190Y272743D01*
X942604Y278000D01*
X942190Y283257D01*
X940959Y288384D01*
X938941Y293256D01*
X936186Y297752D01*
X932761Y301761D01*
X928752Y305186D01*
X924256Y307941D01*
X919384Y309959D01*
X914257Y311190D01*
X909000Y311604D01*
D02*
G37*
G36*
X419000D02*
X413743Y311190D01*
X408616Y309959D01*
X403744Y307941D01*
X399248Y305186D01*
X395239Y301761D01*
X391814Y297752D01*
X389059Y293256D01*
X387041Y288384D01*
X385810Y283257D01*
X385396Y278000D01*
X385810Y272743D01*
X387041Y267616D01*
X389059Y262744D01*
X391814Y258248D01*
X395239Y254239D01*
X399248Y250814D01*
X403744Y248059D01*
X408616Y246041D01*
X413743Y244810D01*
X419000Y244396D01*
X424257Y244810D01*
X429384Y246041D01*
X434256Y248059D01*
X438752Y250814D01*
X442761Y254239D01*
X446186Y258248D01*
X448941Y262744D01*
X450959Y267616D01*
X452190Y272743D01*
X452604Y278000D01*
X452190Y283257D01*
X450959Y288384D01*
X448941Y293256D01*
X446186Y297752D01*
X442761Y301761D01*
X438752Y305186D01*
X434256Y307941D01*
X429384Y309959D01*
X424257Y311190D01*
X419000Y311604D01*
D02*
G37*
G36*
X460000Y253573D02*
X457781Y253281D01*
X455713Y252425D01*
X453938Y251062D01*
X448186Y245311D01*
X447366Y244242D01*
X444297Y241173D01*
X205073D01*
Y242000D01*
X204781Y244219D01*
X203925Y246287D01*
X202562Y248062D01*
X200787Y249425D01*
X198719Y250281D01*
X196500Y250573D01*
X194281Y250281D01*
X192213Y249425D01*
X190438Y248062D01*
X189075Y246287D01*
X188219Y244219D01*
X187927Y242000D01*
Y241173D01*
X64896D01*
X63547Y242208D01*
X60872Y243317D01*
X58000Y243695D01*
X55128Y243317D01*
X52453Y242208D01*
X51104Y241173D01*
X43600D01*
Y243600D01*
X21600D01*
Y221600D01*
X43600D01*
Y224027D01*
X51104D01*
X52453Y222992D01*
X55128Y221883D01*
X58000Y221505D01*
X60872Y221883D01*
X63547Y222992D01*
X64896Y224027D01*
X177534D01*
X178158Y223092D01*
X178171Y222757D01*
X177940Y221000D01*
X178180Y219173D01*
X178885Y217470D01*
X180008Y216007D01*
X181470Y214886D01*
X182498Y214460D01*
X182719Y212781D01*
X183575Y210713D01*
X184938Y208938D01*
X186713Y207575D01*
X188781Y206719D01*
X191000Y206427D01*
X361427D01*
Y204000D01*
X361719Y201781D01*
X362575Y199713D01*
X363938Y197938D01*
X365713Y196575D01*
X367781Y195719D01*
X370000Y195427D01*
X372219Y195719D01*
X374287Y196575D01*
X376062Y197938D01*
X377425Y199713D01*
X378281Y201781D01*
X378573Y204000D01*
Y206427D01*
X436506D01*
X437032Y205157D01*
X436938Y205062D01*
X435575Y203287D01*
X434719Y201219D01*
X434427Y199000D01*
X434719Y196781D01*
X435575Y194713D01*
X436938Y192938D01*
X438713Y191575D01*
X440781Y190719D01*
X443000Y190427D01*
X445219Y190719D01*
X446928Y191427D01*
X533400D01*
X535619Y191719D01*
X537687Y192575D01*
X539462Y193938D01*
X540825Y195713D01*
X541681Y197781D01*
X541973Y200000D01*
X541681Y202219D01*
X540825Y204287D01*
X540157Y205157D01*
X540784Y206427D01*
X654000D01*
X654000Y206427D01*
X664000D01*
X809449Y206427D01*
X821413Y194463D01*
X823188Y193100D01*
X825256Y192244D01*
X827475Y191952D01*
X1308475D01*
X1310694Y192244D01*
X1312762Y193100D01*
X1314537Y194463D01*
X1322846Y202772D01*
X1323062Y202938D01*
X1324425Y204713D01*
X1325281Y206781D01*
X1325573Y209000D01*
X1325281Y211219D01*
X1324425Y213287D01*
X1323062Y215062D01*
X1321287Y216425D01*
X1319219Y217281D01*
X1317000Y217573D01*
X1316950D01*
X1314731Y217281D01*
X1312663Y216425D01*
X1310887Y215062D01*
X1304924Y209098D01*
X1218048D01*
X1217284Y210368D01*
X1218078Y212284D01*
X1218439Y215025D01*
X1218078Y217766D01*
X1217020Y220320D01*
X1215337Y222514D01*
X1213143Y224197D01*
X1210589Y225255D01*
X1207848Y225616D01*
X1205107Y225255D01*
X1202553Y224197D01*
X1200359Y222514D01*
X1198676Y220320D01*
X1197618Y217766D01*
X1197258Y215025D01*
X1197618Y212284D01*
X1198412Y210368D01*
X1197648Y209098D01*
X1186048D01*
X1185284Y210368D01*
X1186078Y212284D01*
X1186439Y215025D01*
X1186078Y217766D01*
X1185056Y220234D01*
X1185038Y220361D01*
X1185609Y221639D01*
X1186368Y221790D01*
X1188022Y222895D01*
X1189175Y224048D01*
X1190000Y223940D01*
X1191827Y224180D01*
X1193530Y224886D01*
X1194993Y226007D01*
X1196115Y227470D01*
X1196820Y229173D01*
X1197060Y231000D01*
X1196820Y232827D01*
X1196115Y234530D01*
X1194993Y235992D01*
X1193530Y237115D01*
X1191827Y237820D01*
X1190000Y238060D01*
X1188173Y237820D01*
X1186470Y237115D01*
X1185008Y235992D01*
X1183885Y234530D01*
X1183180Y232827D01*
X1183126Y232418D01*
X1182306Y231598D01*
X986843D01*
X985911Y232868D01*
X986060Y234000D01*
X985820Y235827D01*
X985115Y237530D01*
X983992Y238992D01*
X982530Y240114D01*
X980827Y240820D01*
X979000Y241060D01*
X977173Y240820D01*
X975470Y240114D01*
X974145Y239098D01*
X500679D01*
X499992Y239993D01*
X498530Y241115D01*
X496827Y241820D01*
X495000Y242060D01*
X493173Y241820D01*
X491470Y241115D01*
X491006Y240758D01*
X490000Y239998D01*
X488994Y240758D01*
X488530Y241115D01*
X486827Y241820D01*
X485000Y242060D01*
X483173Y241820D01*
X481470Y241115D01*
X480008Y239993D01*
X478885Y238530D01*
X478180Y236827D01*
X477940Y235000D01*
X478180Y233173D01*
X478885Y231470D01*
X480008Y230008D01*
X481470Y228885D01*
X483173Y228180D01*
X484130Y228054D01*
X487437Y224747D01*
X486951Y223573D01*
X451587D01*
X451334Y224843D01*
X452135Y225175D01*
X453911Y226538D01*
X460311Y232938D01*
X461131Y234007D01*
X466062Y238938D01*
X467425Y240713D01*
X468281Y242781D01*
X468573Y245000D01*
X468281Y247219D01*
X467425Y249287D01*
X466062Y251062D01*
X464287Y252425D01*
X462219Y253281D01*
X460000Y253573D01*
D02*
G37*
G36*
X1207848Y257616D02*
X1205107Y257255D01*
X1202553Y256197D01*
X1200359Y254514D01*
X1198676Y252321D01*
X1197618Y249767D01*
X1197258Y247026D01*
X1197618Y244285D01*
X1198676Y241730D01*
X1200359Y239537D01*
X1202553Y237854D01*
X1205107Y236796D01*
X1207848Y236435D01*
X1210589Y236796D01*
X1213143Y237854D01*
X1215337Y239537D01*
X1217020Y241730D01*
X1218078Y244285D01*
X1218439Y247026D01*
X1218078Y249767D01*
X1217020Y252321D01*
X1215337Y254514D01*
X1213143Y256197D01*
X1210589Y257255D01*
X1207848Y257616D01*
D02*
G37*
G36*
X1361000Y251672D02*
X1358059Y251383D01*
X1355232Y250525D01*
X1352626Y249132D01*
X1350342Y247258D01*
X1348468Y244974D01*
X1347075Y242368D01*
X1346217Y239540D01*
X1345927Y236600D01*
X1346217Y233659D01*
X1347075Y230832D01*
X1348468Y228226D01*
X1350342Y225942D01*
X1352626Y224067D01*
X1355232Y222675D01*
X1358059Y221817D01*
X1361000Y221527D01*
X1363940Y221817D01*
X1366768Y222675D01*
X1369374Y224067D01*
X1371658Y225942D01*
X1373532Y228226D01*
X1374925Y230832D01*
X1375783Y233659D01*
X1376072Y236600D01*
X1375783Y239540D01*
X1374925Y242368D01*
X1373532Y244974D01*
X1371658Y247258D01*
X1369374Y249132D01*
X1366768Y250525D01*
X1363940Y251383D01*
X1361000Y251672D01*
D02*
G37*
G36*
X58000Y218295D02*
X55128Y217917D01*
X52453Y216808D01*
X51104Y215773D01*
X39496D01*
X38147Y216808D01*
X35472Y217917D01*
X32600Y218295D01*
X29728Y217917D01*
X27053Y216808D01*
X24755Y215045D01*
X22991Y212747D01*
X21883Y210072D01*
X21505Y207200D01*
X21883Y204328D01*
X22991Y201653D01*
X24755Y199355D01*
X27053Y197591D01*
X29728Y196483D01*
X32600Y196105D01*
X35472Y196483D01*
X38147Y197591D01*
X39496Y198627D01*
X51104D01*
X52453Y197591D01*
X55128Y196483D01*
X58000Y196105D01*
X60872Y196483D01*
X63547Y197591D01*
X63650Y197670D01*
X65205D01*
X66938Y195938D01*
X68713Y194575D01*
X70781Y193719D01*
X73000Y193427D01*
X75219Y193719D01*
X77287Y194575D01*
X79062Y195938D01*
X80425Y197713D01*
X81281Y199781D01*
X81573Y202000D01*
Y209000D01*
X81281Y211219D01*
X80425Y213287D01*
X79062Y215062D01*
X77287Y216425D01*
X75219Y217281D01*
X73000Y217573D01*
X70781Y217281D01*
X69450Y216730D01*
X63650D01*
X63547Y216808D01*
X60872Y217917D01*
X58000Y218295D01*
D02*
G37*
G36*
X1376000Y216601D02*
X1346000D01*
Y186601D01*
X1376000D01*
Y216601D01*
D02*
G37*
G36*
X58000Y192895D02*
X55128Y192517D01*
X52453Y191409D01*
X50155Y189645D01*
X48391Y187347D01*
X47283Y184672D01*
X46905Y181800D01*
X47283Y178928D01*
X48391Y176253D01*
X49409Y174926D01*
X48849Y173584D01*
X48124Y173486D01*
X43131Y178479D01*
X43317Y178928D01*
X43695Y181800D01*
X43317Y184672D01*
X42208Y187347D01*
X40445Y189645D01*
X38147Y191409D01*
X35472Y192517D01*
X32600Y192895D01*
X29728Y192517D01*
X27053Y191409D01*
X24755Y189645D01*
X22991Y187347D01*
X21883Y184672D01*
X21505Y181800D01*
X21883Y178928D01*
X22991Y176253D01*
X24755Y173955D01*
X27053Y172192D01*
X29728Y171083D01*
X32600Y170705D01*
X35472Y171083D01*
X35921Y171269D01*
X42795Y164395D01*
X44449Y163290D01*
X46400Y162902D01*
X47687D01*
X48261Y161632D01*
X47283Y159272D01*
X46905Y156400D01*
X47283Y153528D01*
X48391Y150853D01*
X48864Y150237D01*
X48302Y149098D01*
X47112D01*
X43131Y153079D01*
X43317Y153528D01*
X43695Y156400D01*
X43317Y159272D01*
X42208Y161947D01*
X40445Y164245D01*
X38147Y166008D01*
X35472Y167117D01*
X32600Y167495D01*
X29728Y167117D01*
X27053Y166008D01*
X24755Y164245D01*
X22991Y161947D01*
X21883Y159272D01*
X21505Y156400D01*
X21883Y153528D01*
X22991Y150853D01*
X24755Y148555D01*
X27053Y146791D01*
X29728Y145683D01*
X32600Y145305D01*
X35472Y145683D01*
X35921Y145869D01*
X41395Y140395D01*
X43049Y139290D01*
X45000Y138902D01*
X48597D01*
X49224Y137632D01*
X48391Y136547D01*
X47283Y133872D01*
X47136Y132750D01*
X58000D01*
X68864D01*
X68717Y133872D01*
X67608Y136547D01*
X66776Y137632D01*
X67403Y138902D01*
X103145D01*
X104470Y137886D01*
X106173Y137180D01*
X108000Y136940D01*
X109827Y137180D01*
X111530Y137886D01*
X112992Y139008D01*
X114115Y140470D01*
X114820Y142173D01*
X115060Y144000D01*
X114820Y145827D01*
X114115Y147530D01*
X112992Y148993D01*
Y150008D01*
X114115Y151470D01*
X114820Y153173D01*
X115060Y155000D01*
X114820Y156827D01*
X114115Y158530D01*
X112992Y159993D01*
X112033Y160729D01*
X111959Y160899D01*
Y162101D01*
X112033Y162271D01*
X112992Y163008D01*
X114115Y164470D01*
X114820Y166173D01*
X115060Y168000D01*
X114820Y169827D01*
X114115Y171530D01*
X112992Y172992D01*
X111530Y174114D01*
X111293Y174213D01*
Y175587D01*
X111530Y175686D01*
X112992Y176808D01*
X114115Y178270D01*
X114820Y179973D01*
X115060Y181800D01*
X114820Y183627D01*
X114115Y185330D01*
X112992Y186793D01*
X111530Y187915D01*
X109827Y188620D01*
X108000Y188860D01*
X106173Y188620D01*
X104470Y187915D01*
X103145Y186898D01*
X67795D01*
X67608Y187347D01*
X65845Y189645D01*
X63547Y191409D01*
X60872Y192517D01*
X58000Y192895D01*
D02*
G37*
G36*
X1156419Y183612D02*
X1153025Y183165D01*
X1149863Y181855D01*
X1147147Y179771D01*
X1145063Y177056D01*
X1143754Y173894D01*
X1143307Y170500D01*
X1143754Y167106D01*
X1145063Y163944D01*
X1147147Y161228D01*
X1149863Y159144D01*
X1153025Y157835D01*
X1156419Y157388D01*
X1159813Y157835D01*
X1162975Y159144D01*
X1165691Y161228D01*
X1167774Y163944D01*
X1169084Y167106D01*
X1169531Y170500D01*
X1169084Y173894D01*
X1167774Y177056D01*
X1165691Y179771D01*
X1162975Y181855D01*
X1159813Y183165D01*
X1156419Y183612D01*
D02*
G37*
G36*
X1001000Y183112D02*
X997606Y182665D01*
X994444Y181355D01*
X991728Y179272D01*
X989644Y176556D01*
X988335Y173394D01*
X987888Y170000D01*
X988335Y166606D01*
X989644Y163444D01*
X991728Y160728D01*
X994444Y158645D01*
X997606Y157335D01*
X1001000Y156888D01*
X1004394Y157335D01*
X1007556Y158645D01*
X1010272Y160728D01*
X1012355Y163444D01*
X1013665Y166606D01*
X1014112Y170000D01*
X1013665Y173394D01*
X1012355Y176556D01*
X1010272Y179272D01*
X1007556Y181355D01*
X1004394Y182665D01*
X1001000Y183112D01*
D02*
G37*
G36*
X1256419Y173612D02*
X1253025Y173165D01*
X1249863Y171855D01*
X1247147Y169772D01*
X1245063Y167056D01*
X1243754Y163894D01*
X1243307Y160500D01*
X1243422Y159627D01*
X1230368Y146573D01*
X1076551D01*
X1063997Y159127D01*
X1064112Y160000D01*
X1063665Y163394D01*
X1062355Y166556D01*
X1060272Y169272D01*
X1057556Y171355D01*
X1054394Y172665D01*
X1051000Y173112D01*
X1047606Y172665D01*
X1044444Y171355D01*
X1041728Y169272D01*
X1039644Y166556D01*
X1038335Y163394D01*
X1037888Y160000D01*
X1038335Y156606D01*
X1039644Y153444D01*
X1041728Y150728D01*
X1044444Y148645D01*
X1047606Y147335D01*
X1051000Y146888D01*
X1051873Y147003D01*
X1066938Y131938D01*
X1068713Y130575D01*
X1070781Y129719D01*
X1073000Y129427D01*
X1233919D01*
X1236138Y129719D01*
X1238206Y130575D01*
X1239981Y131938D01*
X1255546Y147503D01*
X1256419Y147388D01*
X1259813Y147835D01*
X1262975Y149144D01*
X1265691Y151228D01*
X1267775Y153944D01*
X1269084Y157106D01*
X1269531Y160500D01*
X1269084Y163894D01*
X1267775Y167056D01*
X1265691Y169772D01*
X1262975Y171855D01*
X1259813Y173165D01*
X1256419Y173612D01*
D02*
G37*
G36*
X34350Y141865D02*
Y132750D01*
X43464D01*
X43317Y133872D01*
X42208Y136547D01*
X40445Y138845D01*
X38147Y140609D01*
X35472Y141717D01*
X34350Y141865D01*
D02*
G37*
G36*
X30850D02*
X29728Y141717D01*
X27053Y140609D01*
X24755Y138845D01*
X22991Y136547D01*
X21883Y133872D01*
X21735Y132750D01*
X30850D01*
Y141865D01*
D02*
G37*
G36*
X68864Y129250D02*
X59750D01*
Y120135D01*
X60872Y120283D01*
X63547Y121391D01*
X65845Y123155D01*
X67608Y125453D01*
X68717Y128128D01*
X68864Y129250D01*
D02*
G37*
G36*
X43464D02*
X34350D01*
Y120135D01*
X35472Y120283D01*
X38147Y121391D01*
X40445Y123155D01*
X42208Y125453D01*
X43317Y128128D01*
X43464Y129250D01*
D02*
G37*
G36*
X56250D02*
X47136D01*
X47283Y128128D01*
X48391Y125453D01*
X50155Y123155D01*
X52453Y121391D01*
X55128Y120283D01*
X56250Y120135D01*
Y129250D01*
D02*
G37*
G36*
X30850D02*
X21735D01*
X21883Y128128D01*
X22991Y125453D01*
X24755Y123155D01*
X27053Y121391D01*
X29728Y120283D01*
X30850Y120135D01*
Y129250D01*
D02*
G37*
G36*
X1290250Y94900D02*
Y81750D01*
X1303400D01*
X1303283Y82941D01*
X1302425Y85768D01*
X1301032Y88374D01*
X1299158Y90658D01*
X1296873Y92533D01*
X1294268Y93925D01*
X1291440Y94783D01*
X1290250Y94900D01*
D02*
G37*
G36*
X1286750D02*
X1285559Y94783D01*
X1282732Y93925D01*
X1280126Y92533D01*
X1277842Y90658D01*
X1275967Y88374D01*
X1274574Y85768D01*
X1273717Y82941D01*
X1273599Y81750D01*
X1286750D01*
Y94900D01*
D02*
G37*
G36*
X1043500Y95073D02*
X1040559Y94783D01*
X1037732Y93925D01*
X1035126Y92533D01*
X1032842Y90658D01*
X1030967Y88374D01*
X1029575Y85768D01*
X1028717Y82941D01*
X1028427Y80000D01*
X1028717Y77060D01*
X1029575Y74232D01*
X1030967Y71626D01*
X1032842Y69342D01*
X1034668Y67843D01*
X1034214Y66573D01*
X1023500D01*
Y95000D01*
X993500D01*
Y66573D01*
X986000D01*
X983781Y66281D01*
X981713Y65425D01*
X979938Y64062D01*
X958449Y42573D01*
X833000D01*
X831999Y42442D01*
X830998Y42573D01*
X826551D01*
X819062Y50062D01*
X817287Y51425D01*
X815219Y52281D01*
X813000Y52573D01*
X781551D01*
X771062Y63062D01*
X756062Y78062D01*
X750062Y84062D01*
X748287Y85425D01*
X746219Y86281D01*
X744000Y86573D01*
X108551D01*
X103062Y92062D01*
X103062Y92062D01*
X101287Y93425D01*
X99219Y94281D01*
X97000Y94573D01*
X94781Y94281D01*
X92713Y93425D01*
X90938Y92062D01*
X89575Y90287D01*
X88719Y88219D01*
X88427Y86000D01*
X88719Y83781D01*
X89575Y81713D01*
X90938Y79938D01*
X98938Y71938D01*
X100713Y70575D01*
X102781Y69719D01*
X105000Y69427D01*
X740449D01*
X743938Y65938D01*
X758938Y50938D01*
X771938Y37938D01*
X773713Y36575D01*
X775781Y35719D01*
X778000Y35427D01*
X809449D01*
X816938Y27938D01*
X818713Y26575D01*
X820781Y25719D01*
X823000Y25427D01*
X830998D01*
X831999Y25558D01*
X833000Y25427D01*
X962000D01*
X964219Y25719D01*
X966287Y26575D01*
X968062Y27938D01*
X989551Y49427D01*
X1066000D01*
X1068219Y49719D01*
X1070287Y50575D01*
X1072062Y51938D01*
X1079062Y58938D01*
X1080425Y60713D01*
X1081281Y62781D01*
X1081573Y65000D01*
X1081281Y67219D01*
X1080425Y69287D01*
X1079062Y71062D01*
X1077287Y72425D01*
X1075219Y73281D01*
X1073000Y73573D01*
X1070781Y73281D01*
X1068713Y72425D01*
X1066938Y71062D01*
X1062449Y66573D01*
X1052786D01*
X1052331Y67843D01*
X1054158Y69342D01*
X1056032Y71626D01*
X1057425Y74232D01*
X1058283Y77060D01*
X1058572Y80000D01*
X1058283Y82941D01*
X1057425Y85768D01*
X1056032Y88374D01*
X1054158Y90658D01*
X1051874Y92533D01*
X1049268Y93925D01*
X1046440Y94783D01*
X1043500Y95073D01*
D02*
G37*
G36*
X1303400Y78250D02*
X1290250D01*
Y65100D01*
X1291440Y65217D01*
X1294268Y66075D01*
X1296873Y67468D01*
X1299158Y69342D01*
X1301032Y71626D01*
X1302425Y74232D01*
X1303283Y77060D01*
X1303400Y78250D01*
D02*
G37*
G36*
X1286750D02*
X1273599D01*
X1273717Y77060D01*
X1274574Y74232D01*
X1275967Y71626D01*
X1277842Y69342D01*
X1280126Y67468D01*
X1282732Y66075D01*
X1285559Y65217D01*
X1286750Y65100D01*
Y78250D01*
D02*
G37*
G36*
X1163500Y95000D02*
X1133500D01*
Y65000D01*
X1163500D01*
Y95000D01*
D02*
G37*
G36*
X1323500Y95073D02*
X1320559Y94783D01*
X1317732Y93925D01*
X1315126Y92533D01*
X1312842Y90658D01*
X1310967Y88374D01*
X1309574Y85768D01*
X1308717Y82941D01*
X1308427Y80000D01*
X1308717Y77060D01*
X1309574Y74232D01*
X1310967Y71626D01*
X1312842Y69342D01*
X1315126Y67468D01*
X1317732Y66075D01*
X1320559Y65217D01*
X1323500Y64928D01*
X1326440Y65217D01*
X1329268Y66075D01*
X1331873Y67468D01*
X1334158Y69342D01*
X1336032Y71626D01*
X1337425Y74232D01*
X1338283Y77060D01*
X1338572Y80000D01*
X1338283Y82941D01*
X1337425Y85768D01*
X1336032Y88374D01*
X1334158Y90658D01*
X1331873Y92533D01*
X1329268Y93925D01*
X1326440Y94783D01*
X1323500Y95073D01*
D02*
G37*
G36*
X1253499D02*
X1250558Y94783D01*
X1247731Y93925D01*
X1245125Y92533D01*
X1242841Y90658D01*
X1240966Y88374D01*
X1239574Y85768D01*
X1238716Y82941D01*
X1238426Y80000D01*
X1238716Y77060D01*
X1239574Y74232D01*
X1240966Y71626D01*
X1242841Y69342D01*
X1245125Y67468D01*
X1247731Y66075D01*
X1250558Y65217D01*
X1253499Y64928D01*
X1256439Y65217D01*
X1259267Y66075D01*
X1261873Y67468D01*
X1264157Y69342D01*
X1266031Y71626D01*
X1267424Y74232D01*
X1268282Y77060D01*
X1268571Y80000D01*
X1268282Y82941D01*
X1267424Y85768D01*
X1266031Y88374D01*
X1264157Y90658D01*
X1261873Y92533D01*
X1259267Y93925D01*
X1256439Y94783D01*
X1253499Y95073D01*
D02*
G37*
G36*
X1218500D02*
X1215560Y94783D01*
X1212732Y93925D01*
X1210126Y92533D01*
X1207842Y90658D01*
X1205968Y88374D01*
X1204575Y85768D01*
X1203717Y82941D01*
X1203428Y80000D01*
X1203717Y77060D01*
X1204575Y74232D01*
X1205968Y71626D01*
X1207842Y69342D01*
X1210126Y67468D01*
X1212732Y66075D01*
X1215560Y65217D01*
X1218500Y64928D01*
X1221441Y65217D01*
X1224268Y66075D01*
X1226874Y67468D01*
X1229158Y69342D01*
X1231033Y71626D01*
X1232426Y74232D01*
X1233283Y77060D01*
X1233573Y80000D01*
X1233283Y82941D01*
X1232426Y85768D01*
X1231033Y88374D01*
X1229158Y90658D01*
X1226874Y92533D01*
X1224268Y93925D01*
X1221441Y94783D01*
X1218500Y95073D01*
D02*
G37*
G36*
X1183499D02*
X1180558Y94783D01*
X1177731Y93925D01*
X1175125Y92533D01*
X1172841Y90658D01*
X1170967Y88374D01*
X1169574Y85768D01*
X1168716Y82941D01*
X1168427Y80000D01*
X1168716Y77060D01*
X1169574Y74232D01*
X1170967Y71626D01*
X1172841Y69342D01*
X1175125Y67468D01*
X1177731Y66075D01*
X1180558Y65217D01*
X1183499Y64928D01*
X1186440Y65217D01*
X1189267Y66075D01*
X1191873Y67468D01*
X1194157Y69342D01*
X1196031Y71626D01*
X1197424Y74232D01*
X1198282Y77060D01*
X1198572Y80000D01*
X1198282Y82941D01*
X1197424Y85768D01*
X1196031Y88374D01*
X1194157Y90658D01*
X1191873Y92533D01*
X1189267Y93925D01*
X1186440Y94783D01*
X1183499Y95073D01*
D02*
G37*
G36*
X35000Y68603D02*
X29743Y68190D01*
X24616Y66959D01*
X19744Y64941D01*
X15248Y62186D01*
X11239Y58761D01*
X7814Y54752D01*
X5059Y50256D01*
X3041Y45384D01*
X1810Y40257D01*
X1396Y35000D01*
X1810Y29743D01*
X3041Y24616D01*
X5059Y19744D01*
X7814Y15248D01*
X11239Y11239D01*
X15248Y7814D01*
X19744Y5059D01*
X24616Y3041D01*
X29743Y1810D01*
X35000Y1396D01*
X40257Y1810D01*
X45384Y3041D01*
X50256Y5059D01*
X54752Y7814D01*
X58761Y11239D01*
X62186Y15248D01*
X64941Y19744D01*
X66959Y24616D01*
X68190Y29743D01*
X68603Y35000D01*
X68190Y40257D01*
X66959Y45384D01*
X64941Y50256D01*
X62186Y54752D01*
X58761Y58761D01*
X54752Y62186D01*
X50256Y64941D01*
X45384Y66959D01*
X40257Y68190D01*
X35000Y68603D01*
D02*
G37*
%LPD*%
G36*
X1175180Y661173D02*
X1175885Y659470D01*
X1177008Y658008D01*
X1178470Y656886D01*
X1179731Y656363D01*
X1179479Y655093D01*
X1170608D01*
X1169278Y656113D01*
X1167576Y656818D01*
X1165748Y657059D01*
X1163921Y656818D01*
X1162218Y656113D01*
X1160756Y654991D01*
X1159634Y653529D01*
X1159560Y653352D01*
X1158186D01*
X1158112Y653529D01*
X1156990Y654991D01*
X1155528Y656113D01*
X1153825Y656818D01*
X1151998Y657059D01*
X1151811Y657035D01*
X1147679Y661166D01*
X1148165Y662340D01*
X1175027D01*
X1175180Y661173D01*
D02*
G37*
G36*
X1122598Y220132D02*
X1121618Y217766D01*
X1121257Y215025D01*
X1121618Y212284D01*
X1122411Y210368D01*
X1121648Y209098D01*
X831026D01*
X819993Y220132D01*
X820519Y221402D01*
X1122098D01*
X1122598Y220132D01*
D02*
G37*
%LPC*%
G36*
X417164Y680550D02*
X408050D01*
Y671435D01*
X409172Y671583D01*
X411847Y672692D01*
X414145Y674455D01*
X415909Y676753D01*
X417017Y679428D01*
X417164Y680550D01*
D02*
G37*
%LPD*%
D11*
X472750Y816550D02*
X521031D01*
X221691Y835096D02*
X226537Y830250D01*
X203969Y835096D02*
X221691D01*
X201122Y832250D02*
X203969Y835096D01*
X245050Y830250D02*
X277395D01*
X226537D02*
X245050D01*
X201122Y825122D02*
Y832250D01*
X201000Y825000D02*
X201122Y825122D01*
X427040Y668150D02*
X487850D01*
X488000Y668000D01*
X360000Y720000D02*
X473250D01*
X420450Y661560D02*
X427040Y668150D01*
X355000Y827000D02*
X368623Y813377D01*
X391838D01*
X446000Y809300D02*
X465500D01*
X431700D02*
X446000D01*
X521031Y816550D02*
X535531Y802050D01*
X550803D01*
X465500Y809300D02*
X472750Y816550D01*
X585204Y875050D02*
X598750Y861504D01*
X561000Y875050D02*
X585204D01*
X561000Y812247D02*
Y815000D01*
X550803Y802050D02*
X561000Y812247D01*
X277395Y830250D02*
X284324Y823321D01*
X244800Y830000D02*
X245050Y830250D01*
X343326Y551000D02*
X360936D01*
X360937Y551000D01*
X340218Y554109D02*
X343326Y551000D01*
X339000Y554109D02*
X340218D01*
X378000Y554704D02*
X405704D01*
X420450Y363350D02*
X446650D01*
X406300Y377500D02*
X420450Y363350D01*
X446650D02*
X468000Y342000D01*
X1019000Y179000D02*
Y182000D01*
X1020750Y183750D01*
X1196481D01*
X1201231Y179000D01*
X1248000D01*
X983000Y517000D02*
X986000Y514000D01*
Y495000D02*
Y514000D01*
X979000Y521000D02*
X983000Y517000D01*
X950219Y521000D02*
X979000D01*
X1246234Y647749D02*
X1263485Y665000D01*
X1361000D01*
X1322920Y841920D02*
X1353500Y872500D01*
X1000419Y841920D02*
X1322920D01*
X968500Y810000D02*
X1000419Y841920D01*
X1225750Y650250D02*
X1226000Y650000D01*
X1166000Y650250D02*
X1225750D01*
X1165748Y649999D02*
X1166000Y650250D01*
X1209537Y643000D02*
X1209787Y642750D01*
X1240980D01*
X1245979Y647749D01*
X1246234D01*
X1216714Y726999D02*
X1227998D01*
X1199000Y709285D02*
X1216714Y726999D01*
X1159000Y700000D02*
X1168285Y709285D01*
X1199000D01*
X945000Y720498D02*
X1046421D01*
X1078960Y574960D02*
X1080000Y576000D01*
X951000Y574960D02*
X1078960D01*
X489062Y631500D02*
X489500D01*
X431700D02*
X489062D01*
X489500D02*
X491000Y630000D01*
X339000Y554109D02*
X339596Y554704D01*
X405704D02*
X406300Y555300D01*
X1292906Y640000D02*
X1303000D01*
X1283907Y648999D02*
X1292906Y640000D01*
X1265997Y648999D02*
X1283907D01*
X420450Y661560D02*
Y661560D01*
X417550Y658660D02*
X420450Y661560D01*
X1139498Y720498D02*
X1179750D01*
X1169959Y737037D02*
X1180017D01*
X1162996Y744000D02*
X1169959Y737037D01*
X326752Y739750D02*
X327000Y739998D01*
X246250Y739750D02*
X326752D01*
X246000Y740000D02*
X246250Y739750D01*
X196500Y419000D02*
X304000D01*
X106501Y574250D02*
X192997D01*
X193000Y574253D01*
X192750Y588000D02*
X220000D01*
X184000Y579250D02*
X192750Y588000D01*
X158012Y579250D02*
X184000D01*
X154012Y583250D02*
X158012Y579250D01*
X405100Y402900D02*
X406300D01*
X394000Y414000D02*
X405100Y402900D01*
X325725Y414000D02*
X394000D01*
X325500Y414225D02*
X325725Y414000D01*
X465221Y780000D02*
X687702D01*
X431700Y656900D02*
X465221D01*
X506000Y787300D02*
X734700D01*
X735000Y787000D01*
X408060Y658660D02*
X417550D01*
X406300Y656900D02*
X408060Y658660D01*
X79750Y547500D02*
X106501Y574250D01*
X80500Y583250D02*
X154012D01*
X79750Y582501D02*
X80500Y583250D01*
X359751Y719751D02*
X360000Y720000D01*
X314376Y719751D02*
X359751D01*
X1231000Y786000D02*
X1320000D01*
X1084500Y270000D02*
X1161000D01*
X1142063Y659933D02*
X1151998Y649999D01*
X1071550Y659933D02*
X1142063D01*
X1103000Y744000D02*
X1162996D01*
D13*
X1182000Y663000D02*
Y664750D01*
X1179547Y667203D02*
X1182000Y664750D01*
X1010272Y667203D02*
X1179547D01*
X1003001Y659933D02*
X1010272Y667203D01*
X928000Y319000D02*
X1040998D01*
D15*
X360100Y479100D02*
X406300D01*
X769733Y110000D02*
X850000D01*
X210500Y787300D02*
X314376D01*
X235698Y823000D02*
X274000D01*
X455500Y712500D02*
X493107D01*
X531194Y750587D01*
X438000Y695000D02*
X455500Y712500D01*
X452000Y694661D02*
X483046D01*
X500873Y730873D02*
X501000Y731000D01*
X452127Y730873D02*
X500873D01*
X452000Y730747D02*
X452127Y730873D01*
X483046Y694661D02*
X533472Y745087D01*
X990000D01*
X531194Y750587D02*
X994587D01*
X446000Y739750D02*
X502385D01*
X520136Y757502D01*
X440750Y745000D02*
X446000Y739750D01*
X391249Y695000D02*
X438000D01*
X375249Y679000D02*
X391249Y695000D01*
X396000Y745000D02*
X440750D01*
X380000Y729000D02*
X396000Y745000D01*
X208000Y742000D02*
X213000Y737000D01*
X158502Y742000D02*
X208000D01*
X146400Y754102D02*
X158502Y742000D01*
X213000Y737000D02*
X233000D01*
X184498Y750498D02*
X209000D01*
X184000Y750000D02*
X184498Y750498D01*
X338002Y796998D02*
X398999D01*
X319000Y816000D02*
X338002Y796998D01*
X417733Y811596D02*
X429635Y823498D01*
X481804Y821800D02*
X524200D01*
X480106Y823498D02*
X481804Y821800D01*
X429635Y823498D02*
X480106D01*
X524200Y821800D02*
X536700Y809300D01*
X485000D02*
X520857D01*
X533357Y796800D01*
X406300Y787147D02*
X412839Y793686D01*
Y793839D01*
X416000Y797000D01*
X522550D01*
X406300Y783900D02*
Y787147D01*
X408596Y811596D02*
X417733D01*
X406300Y809300D02*
X408596Y811596D01*
X536700Y809300D02*
X547800D01*
X598750Y861504D02*
X607246Y870000D01*
X711652D01*
X554800Y796800D02*
X561000Y803000D01*
X533357Y796800D02*
X554800D01*
X561350Y803000D02*
X573350Y815000D01*
X561000Y803000D02*
X561350D01*
X107500Y616000D02*
X259393D01*
X374296Y551000D02*
X378000Y554704D01*
X360937Y551000D02*
X374296D01*
X342375Y543000D02*
X435700D01*
X448000Y555300D01*
X313900Y479100D02*
X360100D01*
X360875Y479875D01*
Y525000D01*
X301998Y466000D02*
X315450D01*
X333950Y447500D01*
X132998Y197000D02*
X157000D01*
X850000Y110000D02*
X865000D01*
X767000Y111651D02*
X768082D01*
X769733Y110000D01*
X1232000Y752000D02*
X1243184D01*
X1209537Y729537D02*
X1232000Y752000D01*
X1119463Y729537D02*
X1209537D01*
X990000Y745087D02*
X1000587Y734500D01*
X1114500D01*
X1119463Y729537D01*
X1102154Y757502D02*
X1104656Y755000D01*
X505457Y750600D02*
X517858Y763002D01*
X520136Y757502D02*
X1102154D01*
X517858Y763002D02*
X1242998D01*
X1243000Y763000D01*
X1031000Y397500D02*
X1080000D01*
X45000Y144000D02*
X108000D01*
X372000Y377500D02*
X406300D01*
X302000Y491000D02*
X313900Y479100D01*
X330600Y533000D02*
X368249D01*
X382849Y518400D01*
X316000D02*
X330600Y533000D01*
X131400Y518400D02*
X316000D01*
X382849D02*
X439794D01*
X450393Y529000D01*
X131000Y518000D02*
X131400Y518400D01*
X450393Y529000D02*
X453000D01*
X301998Y490998D02*
X302000Y491000D01*
X222000Y490998D02*
X301998D01*
X222640Y695000D02*
X222982Y694659D01*
X201000Y695000D02*
X222640D01*
X222982Y694659D02*
X299535D01*
X314376Y709500D01*
X1265999Y592000D02*
X1310996D01*
X1251498Y577500D02*
X1265999Y592000D01*
X1299235Y719765D02*
Y722765D01*
Y719765D02*
X1300000Y719000D01*
X1295000Y727000D02*
X1299235Y722765D01*
X1274000Y727000D02*
X1295000D01*
X340623Y677000D02*
X363225D01*
X370725Y669500D01*
X393000D01*
X350607Y562000D02*
X355607Y567000D01*
X260217Y562000D02*
X350607D01*
X355607Y567000D02*
X443000D01*
X465800Y592200D02*
X466000Y592000D01*
X363225Y592200D02*
X465800D01*
X351750Y580725D02*
X363225Y592200D01*
X349803Y571000D02*
X358053Y579250D01*
X372000D01*
X349000Y571000D02*
X349803D01*
X235698Y580725D02*
X351750D01*
X255464Y566753D02*
X260217Y562000D01*
X137245Y566753D02*
X255464D01*
X137000Y566998D02*
X137245Y566753D01*
X999049Y746125D02*
X1000000D01*
X994587Y750587D02*
X999049Y746125D01*
X1104656Y755000D02*
X1215000D01*
X371874Y606226D02*
X372000Y606100D01*
X115126Y606226D02*
X371874D01*
X115000Y606352D02*
X115126Y606226D01*
X1249403Y706597D02*
X1250000Y706000D01*
X1210050Y706597D02*
X1249403D01*
X431700Y758500D02*
X497150D01*
X452248Y750600D02*
X505457D01*
X241000Y729000D02*
X380000D01*
X233000Y737000D02*
X241000Y729000D01*
X448000Y555300D02*
X487850D01*
X443999Y511999D02*
X448000Y516000D01*
X443999Y511999D02*
Y511999D01*
X448000Y516000D02*
X518000D01*
X492893Y226500D02*
X1184418D01*
X485000Y234393D02*
X492893Y226500D01*
X485000Y234393D02*
Y235000D01*
X495000D02*
X496000Y234000D01*
X979000D01*
X1188918Y231000D02*
X1190000D01*
X1184418Y226500D02*
X1188918Y231000D01*
X396000Y491000D02*
X510000D01*
X366000Y466000D02*
X439850D01*
X346650Y457000D02*
X357000D01*
X366000Y466000D01*
X669000Y771000D02*
X710000D01*
X305000Y667000D02*
X362000D01*
X360000Y744000D02*
Y745000D01*
X357502Y747498D02*
X360000Y745000D01*
X401500Y644000D02*
X465500D01*
X385000Y627500D02*
X401500Y644000D01*
X274000Y620000D02*
X452000D01*
X453000Y621000D01*
X259393Y616000D02*
X270893Y627500D01*
X385000D01*
X418400Y340000D02*
X431700Y326700D01*
X386000Y340000D02*
X418400D01*
X464000Y393000D02*
X488000D01*
X206000Y580500D02*
X235473D01*
X235698Y580725D01*
X304000Y406000D02*
X346645D01*
X346650Y405995D01*
X80000Y754102D02*
X146400D01*
X420000Y440000D02*
X480000D01*
X406300Y453700D02*
X420000Y440000D01*
X32600Y156400D02*
X45000Y144000D01*
X58700Y155700D02*
X107300D01*
X108000Y155000D01*
X46400Y168000D02*
X108000D01*
X108000Y168000D01*
X58000Y181800D02*
X108000D01*
X108000Y181800D01*
X58000Y156400D02*
X58700Y155700D01*
X32600Y181800D02*
X46400Y168000D01*
X92000Y378000D02*
X260000D01*
X80000Y366000D02*
X92000Y378000D01*
X80000Y362500D02*
Y366000D01*
X109000Y387000D02*
X243000D01*
X98499Y397501D02*
X109000Y387000D01*
X80000Y397501D02*
X98499D01*
X230000Y777000D02*
X327000D01*
D69*
X163500Y592500D02*
D03*
X153500Y542500D02*
D03*
X1283499Y272800D02*
D03*
X1293499Y372800D02*
D03*
X1001000Y170000D02*
D03*
X1051000Y160000D02*
D03*
X1293500Y811398D02*
D03*
X1283500Y711398D02*
D03*
X1283500Y497500D02*
D03*
X1293500Y547500D02*
D03*
X1156419Y170500D02*
D03*
X1256419Y160500D02*
D03*
X155000Y352500D02*
D03*
X165000Y402500D02*
D03*
X182000Y662000D02*
D03*
X132000Y672000D02*
D03*
D82*
X184150Y806450D02*
X293814D01*
X499000Y431800D02*
X533400D01*
X367163Y771000D02*
X475000D01*
X475000Y771000D01*
X669000D01*
X364163Y768000D02*
X367163Y771000D01*
X293908Y768000D02*
X364163D01*
X265000Y501000D02*
X271000Y507000D01*
X265000Y501000D02*
Y501000D01*
X196000Y492000D02*
X196000D01*
X205000Y501000D01*
X265000D01*
X304998Y652999D02*
X351123D01*
X295400Y748498D02*
X356502D01*
X357502Y747498D01*
D83*
X299000Y292000D02*
X300000Y293000D01*
X140000Y292000D02*
X299000D01*
X61000Y346501D02*
Y493751D01*
X486700Y326700D02*
X494000Y334000D01*
X260590Y861000D02*
X275590Y876000D01*
X260298Y861000D02*
X260590D01*
X275590Y876000D02*
X353749D01*
X68757Y206243D02*
X73000Y202000D01*
X443000Y78000D02*
X744000D01*
X105000D02*
X443000D01*
Y199000D02*
X444000Y200000D01*
X533400D01*
X521000Y215000D02*
X654000D01*
X370000D02*
X521000D01*
X1208000Y548250D02*
X1256000D01*
X368749Y861000D02*
X370102D01*
X353749Y876000D02*
X368749Y861000D01*
X100002Y536000D02*
X106533Y542532D01*
X104749Y592500D02*
X163500D01*
X79750Y617499D02*
X104749Y592500D01*
X61000Y493751D02*
X79750Y512501D01*
X61000Y346501D02*
X80000Y327501D01*
X744000Y78000D02*
X750000Y72000D01*
X58000Y131000D02*
X152000D01*
X32600D02*
X58000D01*
X115501Y292000D02*
X140000D01*
X196500Y232600D02*
Y242000D01*
X146000Y232600D02*
X196500D01*
X447849D01*
X345645Y328000D02*
X346645Y329000D01*
X345000Y328000D02*
X345645D01*
X310000Y293000D02*
X345000Y328000D01*
X300000Y293000D02*
X310000D01*
X80000Y327501D02*
X115501Y292000D01*
X827475Y200525D02*
X1308475D01*
X804000Y44000D02*
X813000D01*
X778000D02*
X804000D01*
X765000Y57000D02*
X778000Y44000D01*
X750000Y72000D02*
X765000Y57000D01*
X813000Y44000D02*
X823000Y34000D01*
X1355000Y498000D02*
X1361000Y504000D01*
X1355000Y497500D02*
Y498000D01*
X1284500Y497500D02*
X1355000D01*
X1284000Y497000D02*
X1284500Y497500D01*
X1283500D02*
X1284000Y497000D01*
X1293500Y547500D02*
X1294250Y548250D01*
X1265007D02*
X1285757Y569000D01*
X1256000Y548250D02*
X1265007D01*
X1322000Y578000D02*
Y578000D01*
X1316000Y572000D02*
X1322000Y578000D01*
X1313000Y569000D02*
X1316000Y572000D01*
X1285757Y569000D02*
X1313000D01*
X494000Y540000D02*
X499000Y535000D01*
X446000Y540000D02*
X494000D01*
X436857Y530857D02*
X446000Y540000D01*
X432657Y530857D02*
X436857D01*
X431700Y529900D02*
X432657Y530857D01*
X654000Y215000D02*
X664000D01*
X444700Y326700D02*
X486700D01*
X431700D02*
X444700D01*
X370000Y204000D02*
Y215000D01*
X664000Y215000D02*
X813000Y215000D01*
X827475Y200525D01*
X654000Y215000D02*
X664000D01*
X191000D02*
X370000D01*
X58000Y232600D02*
X146000D01*
X447849D02*
X454249Y239000D01*
Y239249D02*
X460000Y245000D01*
X454249Y239000D02*
Y239249D01*
X499000Y526000D02*
Y535000D01*
X80897Y720000D02*
X163500D01*
X80897Y720000D02*
X80897Y720000D01*
X109969Y542532D02*
X153469D01*
X106900D02*
X109969D01*
X110000Y542500D01*
X106533Y542532D02*
X106900D01*
X153469D02*
X153500Y542500D01*
X109000Y352500D02*
X155000D01*
X100002D02*
X109000D01*
X32600Y232600D02*
X58000D01*
X32600Y207200D02*
X58000D01*
X73000Y202000D02*
Y209000D01*
X72157Y208157D02*
X73000Y209000D01*
X58000Y207200D02*
X58957Y208157D01*
Y206243D02*
X68757D01*
X58000Y207200D02*
X58957Y206243D01*
Y208157D02*
X72157D01*
X97000Y86000D02*
Y86000D01*
Y86000D02*
X105000Y78000D01*
X135001Y432500D02*
X165000Y402500D01*
X80000Y432500D02*
X135001D01*
X1316950Y209000D02*
X1317000D01*
X1308475Y200525D02*
X1316950Y209000D01*
X1051000Y160000D02*
X1073000Y138000D01*
X1233919D01*
X1256419Y160500D01*
X823000Y34000D02*
X830998D01*
X833000D02*
X962000D01*
X986000Y58000D01*
X1066000D02*
X1073000Y65000D01*
X986000Y58000D02*
X1066000D01*
X1360400Y272201D02*
X1361000Y271601D01*
X1284099Y272201D02*
X1360400D01*
X1283499Y272800D02*
X1284099Y272201D01*
X1168185Y829000D02*
X1209500D01*
X1228500Y810000D01*
X1149185D02*
X1168185Y829000D01*
X1116000Y810000D02*
X1149185D01*
D86*
X406300Y809300D02*
D03*
Y783900D02*
D03*
Y758500D02*
D03*
Y733100D02*
D03*
Y707700D02*
D03*
Y682300D02*
D03*
Y656900D02*
D03*
Y631500D02*
D03*
Y606100D02*
D03*
Y580700D02*
D03*
Y555300D02*
D03*
Y529900D02*
D03*
X431700Y809300D02*
D03*
Y783900D02*
D03*
Y758500D02*
D03*
Y733100D02*
D03*
Y707700D02*
D03*
Y682300D02*
D03*
Y656900D02*
D03*
Y631500D02*
D03*
Y606100D02*
D03*
Y580700D02*
D03*
Y555300D02*
D03*
Y529900D02*
D03*
Y326700D02*
D03*
X406300Y352100D02*
D03*
X431700D02*
D03*
X406300Y377500D02*
D03*
X431700D02*
D03*
X406300Y402900D02*
D03*
X431700D02*
D03*
X406300Y428300D02*
D03*
X431700D02*
D03*
X406300Y453700D02*
D03*
X431700D02*
D03*
X406300Y479100D02*
D03*
X431700D02*
D03*
Y504500D02*
D03*
X406300D02*
D03*
X598750Y861504D02*
D03*
X573350D02*
D03*
X547950D02*
D03*
X522550D02*
D03*
X497150D02*
D03*
X209498Y861000D02*
D03*
X234898D02*
D03*
X260298D02*
D03*
X325500Y388700D02*
D03*
X58000Y232600D02*
D03*
X32600Y207200D02*
D03*
X58000D02*
D03*
X32600Y181800D02*
D03*
X58000D02*
D03*
X32600Y156400D02*
D03*
X58000D02*
D03*
X32600Y131000D02*
D03*
X58000D02*
D03*
X370102Y861000D02*
D03*
X344702D02*
D03*
X319302D02*
D03*
D87*
X406300Y326700D02*
D03*
X325500Y363300D02*
D03*
X32600Y232600D02*
D03*
D88*
X925000Y95000D02*
D03*
Y80000D02*
D03*
Y65000D02*
D03*
X910000Y95000D02*
D03*
Y80000D02*
D03*
Y65000D02*
D03*
X895000Y95000D02*
D03*
Y80000D02*
D03*
Y65000D02*
D03*
X880000Y95000D02*
D03*
Y80000D02*
D03*
Y65000D02*
D03*
X865000Y95000D02*
D03*
Y80000D02*
D03*
Y65000D02*
D03*
X850000Y95000D02*
D03*
Y80000D02*
D03*
Y65000D02*
D03*
X925000Y125000D02*
D03*
Y140000D02*
D03*
Y155000D02*
D03*
X910000Y125000D02*
D03*
Y140000D02*
D03*
Y155000D02*
D03*
X895000Y125000D02*
D03*
Y140000D02*
D03*
Y155000D02*
D03*
X880000Y125000D02*
D03*
Y140000D02*
D03*
Y155000D02*
D03*
X865000Y125000D02*
D03*
Y140000D02*
D03*
Y155000D02*
D03*
X850000D02*
D03*
Y140000D02*
D03*
Y125000D02*
D03*
X925000Y110000D02*
D03*
X910000D02*
D03*
X895000D02*
D03*
X880000D02*
D03*
X865000D02*
D03*
X850000D02*
D03*
X971000Y337500D02*
D03*
X956000D02*
D03*
X941000D02*
D03*
X971000Y352500D02*
D03*
X956000D02*
D03*
X941000D02*
D03*
X971000Y367500D02*
D03*
X956000D02*
D03*
X941000D02*
D03*
X971000Y382500D02*
D03*
X956000D02*
D03*
X941000D02*
D03*
X971000Y397500D02*
D03*
X956000D02*
D03*
X941000D02*
D03*
X971000Y412500D02*
D03*
X956000D02*
D03*
X941000D02*
D03*
X1001000Y337500D02*
D03*
X1016000D02*
D03*
X1031000D02*
D03*
X1001000Y352500D02*
D03*
X1016000D02*
D03*
X1031000D02*
D03*
X1001000Y367500D02*
D03*
X1016000D02*
D03*
X1031000D02*
D03*
X1001000Y382500D02*
D03*
X1016000D02*
D03*
X1031000D02*
D03*
X1001000Y397500D02*
D03*
X1016000D02*
D03*
X1031000D02*
D03*
Y412500D02*
D03*
X1016000D02*
D03*
X1001000D02*
D03*
X986000Y337500D02*
D03*
Y352500D02*
D03*
Y367500D02*
D03*
Y382500D02*
D03*
Y397500D02*
D03*
Y412500D02*
D03*
D89*
X533400Y330200D02*
D03*
Y355600D02*
D03*
Y406400D02*
D03*
Y508000D02*
D03*
Y482600D02*
D03*
Y457200D02*
D03*
Y431800D02*
D03*
Y381000D02*
D03*
X558800Y635000D02*
D03*
X584200D02*
D03*
X609600D02*
D03*
X635000D02*
D03*
X736600D02*
D03*
X711200D02*
D03*
X685800D02*
D03*
X660400D02*
D03*
X838200D02*
D03*
X812800D02*
D03*
X787400D02*
D03*
X762000D02*
D03*
X863600D02*
D03*
X889000D02*
D03*
Y660400D02*
D03*
X863600D02*
D03*
X762000D02*
D03*
X787400D02*
D03*
X812800D02*
D03*
X838200D02*
D03*
X660400D02*
D03*
X685800D02*
D03*
X711200D02*
D03*
X736600D02*
D03*
X635000D02*
D03*
X609600D02*
D03*
X584200D02*
D03*
X558800D02*
D03*
X889000Y685800D02*
D03*
X863600D02*
D03*
X762000D02*
D03*
X787400D02*
D03*
X812800D02*
D03*
X838200D02*
D03*
X660400D02*
D03*
X685800D02*
D03*
X711200D02*
D03*
X736600D02*
D03*
X635000D02*
D03*
X609600D02*
D03*
X584200D02*
D03*
X558800D02*
D03*
X889000Y711200D02*
D03*
X863600D02*
D03*
X762000D02*
D03*
X787400D02*
D03*
X812800D02*
D03*
X838200D02*
D03*
X660400D02*
D03*
X685800D02*
D03*
X711200D02*
D03*
X736600D02*
D03*
X635000D02*
D03*
X609600D02*
D03*
X584200D02*
D03*
X558800D02*
D03*
Y533400D02*
D03*
X584200D02*
D03*
X609600D02*
D03*
X635000D02*
D03*
X736600D02*
D03*
X711200D02*
D03*
X685800D02*
D03*
X660400D02*
D03*
X838200D02*
D03*
X812800D02*
D03*
X787400D02*
D03*
X762000D02*
D03*
X863600D02*
D03*
X889000D02*
D03*
Y558800D02*
D03*
X863600D02*
D03*
X762000D02*
D03*
X787400D02*
D03*
X812800D02*
D03*
X838200D02*
D03*
X660400D02*
D03*
X685800D02*
D03*
X711200D02*
D03*
X736600D02*
D03*
X635000D02*
D03*
X609600D02*
D03*
X584200D02*
D03*
X558800D02*
D03*
X889000Y584200D02*
D03*
X863600D02*
D03*
X762000D02*
D03*
X787400D02*
D03*
X812800D02*
D03*
X838200D02*
D03*
X660400D02*
D03*
X685800D02*
D03*
X711200D02*
D03*
X736600D02*
D03*
X635000D02*
D03*
X609600D02*
D03*
X584200D02*
D03*
X558800D02*
D03*
X889000Y609600D02*
D03*
X863600D02*
D03*
X762000D02*
D03*
X787400D02*
D03*
X812800D02*
D03*
X838200D02*
D03*
X660400D02*
D03*
X685800D02*
D03*
X711200D02*
D03*
X736600D02*
D03*
X635000D02*
D03*
X609600D02*
D03*
X584200D02*
D03*
X558800D02*
D03*
Y431800D02*
D03*
X584200D02*
D03*
X609600D02*
D03*
X635000D02*
D03*
X736600D02*
D03*
X711200D02*
D03*
X685800D02*
D03*
X660400D02*
D03*
X838200D02*
D03*
X812800D02*
D03*
X787400D02*
D03*
X762000D02*
D03*
X863600D02*
D03*
X889000D02*
D03*
Y457200D02*
D03*
X863600D02*
D03*
X762000D02*
D03*
X787400D02*
D03*
X812800D02*
D03*
X838200D02*
D03*
X660400D02*
D03*
X685800D02*
D03*
X711200D02*
D03*
X736600D02*
D03*
X635000D02*
D03*
X609600D02*
D03*
X584200D02*
D03*
X558800D02*
D03*
X889000Y482600D02*
D03*
X863600D02*
D03*
X762000D02*
D03*
X787400D02*
D03*
X812800D02*
D03*
X838200D02*
D03*
X660400D02*
D03*
X685800D02*
D03*
X711200D02*
D03*
X736600D02*
D03*
X635000D02*
D03*
X609600D02*
D03*
X584200D02*
D03*
X558800D02*
D03*
X889000Y508000D02*
D03*
X863600D02*
D03*
X762000D02*
D03*
X787400D02*
D03*
X812800D02*
D03*
X838200D02*
D03*
X660400D02*
D03*
X685800D02*
D03*
X711200D02*
D03*
X736600D02*
D03*
X635000D02*
D03*
X609600D02*
D03*
X584200D02*
D03*
X558800D02*
D03*
Y406400D02*
D03*
X584200D02*
D03*
X609600D02*
D03*
X635000D02*
D03*
X736600D02*
D03*
X711200D02*
D03*
X685800D02*
D03*
X660400D02*
D03*
X838200D02*
D03*
X812800D02*
D03*
X787400D02*
D03*
X762000D02*
D03*
X863600D02*
D03*
X889000D02*
D03*
X558800Y381000D02*
D03*
X584200D02*
D03*
X609600D02*
D03*
X635000D02*
D03*
X736600D02*
D03*
X711200D02*
D03*
X685800D02*
D03*
X660400D02*
D03*
X838200D02*
D03*
X812800D02*
D03*
X787400D02*
D03*
X762000D02*
D03*
X863600D02*
D03*
X889000D02*
D03*
X558800Y355600D02*
D03*
X584200D02*
D03*
X609600D02*
D03*
X635000D02*
D03*
X736600D02*
D03*
X711200D02*
D03*
X685800D02*
D03*
X660400D02*
D03*
X838200D02*
D03*
X812800D02*
D03*
X787400D02*
D03*
X762000D02*
D03*
X863600D02*
D03*
X889000D02*
D03*
Y330200D02*
D03*
X863600D02*
D03*
X762000D02*
D03*
X787400D02*
D03*
X812800D02*
D03*
X838200D02*
D03*
X660400D02*
D03*
X685800D02*
D03*
X711200D02*
D03*
X736600D02*
D03*
X635000D02*
D03*
X609600D02*
D03*
X584200D02*
D03*
X558800D02*
D03*
D90*
X968500Y810000D02*
D03*
X1081000Y810000D02*
D03*
X1043500Y80000D02*
D03*
X1193500Y810000D02*
D03*
X1361000Y783802D02*
D03*
X1361000Y665000D02*
D03*
X1361000Y306600D02*
D03*
Y271601D02*
D03*
Y236600D02*
D03*
X1253499Y80000D02*
D03*
X1218500D02*
D03*
X1183499D02*
D03*
X1288500D02*
D03*
X1323500D02*
D03*
X1361000Y397499D02*
D03*
Y432500D02*
D03*
Y467499D02*
D03*
X79750Y512501D02*
D03*
Y547500D02*
D03*
Y582501D02*
D03*
X80000Y397501D02*
D03*
Y362500D02*
D03*
Y327501D02*
D03*
X80000Y754102D02*
D03*
Y719103D02*
D03*
D91*
X1003500Y810000D02*
D03*
X1116000Y810000D02*
D03*
X1008500Y80000D02*
D03*
X1228500Y810000D02*
D03*
X1148500Y80000D02*
D03*
D92*
X1361000Y748802D02*
D03*
X1361000Y630000D02*
D03*
X1361000Y201601D02*
D03*
Y362501D02*
D03*
X79750Y617499D02*
D03*
X80000Y432500D02*
D03*
X80000Y789103D02*
D03*
D93*
X1207848Y247026D02*
D03*
X1175848D02*
D03*
X1153848D02*
D03*
X1131848D02*
D03*
Y215025D02*
D03*
X1153848D02*
D03*
X1175848D02*
D03*
X1207848D02*
D03*
D94*
X1321000Y872500D02*
D03*
X1353500Y872500D02*
D03*
D95*
X1406000Y35000D02*
D03*
Y855000D02*
D03*
X909000Y858000D02*
D03*
X419000D02*
D03*
X909000Y278000D02*
D03*
X419000D02*
D03*
X35000Y35000D02*
D03*
Y855000D02*
D03*
D96*
X471750Y861504D02*
D03*
X184098Y861000D02*
D03*
X293902D02*
D03*
D97*
X293814Y806450D02*
D03*
X184150D02*
D03*
X372000Y377500D02*
D03*
X201000Y825000D02*
D03*
X210500Y787300D02*
D03*
X235698Y823000D02*
D03*
X1079826Y584650D02*
D03*
X1066000Y296000D02*
D03*
X1090614Y387938D02*
D03*
X1079822Y377449D02*
D03*
X1080000Y387938D02*
D03*
X913000Y330200D02*
D03*
X928000Y453754D02*
D03*
Y477488D02*
D03*
Y498738D02*
D03*
X970002Y422000D02*
D03*
X970300Y432196D02*
D03*
X985821Y422000D02*
D03*
Y432196D02*
D03*
X1079822Y515972D02*
D03*
X1079822Y458610D02*
D03*
X925994Y527108D02*
D03*
X974821Y553409D02*
D03*
X974822Y532496D02*
D03*
Y542346D02*
D03*
X925994Y538455D02*
D03*
Y551096D02*
D03*
X474072Y64096D02*
D03*
X822822Y109196D02*
D03*
X742615Y54096D02*
D03*
X732572Y90172D02*
D03*
X711022Y91095D02*
D03*
X545821Y91975D02*
D03*
X609422D02*
D03*
X678798Y94096D02*
D03*
Y65034D02*
D03*
X609511Y64096D02*
D03*
X545825Y65034D02*
D03*
Y51097D02*
D03*
X609511Y49347D02*
D03*
X678798Y48096D02*
D03*
Y35096D02*
D03*
X609511D02*
D03*
X1385821Y795096D02*
D03*
Y755096D02*
D03*
Y715096D02*
D03*
Y675096D02*
D03*
Y635096D02*
D03*
Y595096D02*
D03*
Y555096D02*
D03*
Y515096D02*
D03*
Y475096D02*
D03*
Y435096D02*
D03*
Y395096D02*
D03*
Y355096D02*
D03*
Y315096D02*
D03*
Y275096D02*
D03*
Y235096D02*
D03*
Y195096D02*
D03*
Y155096D02*
D03*
Y115096D02*
D03*
Y75096D02*
D03*
X1345821Y835096D02*
D03*
Y715096D02*
D03*
Y595096D02*
D03*
Y555096D02*
D03*
Y515096D02*
D03*
Y155096D02*
D03*
Y115096D02*
D03*
Y75096D02*
D03*
Y35096D02*
D03*
X1305821Y835096D02*
D03*
Y795096D02*
D03*
Y515096D02*
D03*
Y475096D02*
D03*
Y435096D02*
D03*
Y395096D02*
D03*
Y355096D02*
D03*
Y315096D02*
D03*
Y235096D02*
D03*
Y155096D02*
D03*
Y115096D02*
D03*
Y35096D02*
D03*
X1265821Y835096D02*
D03*
Y475096D02*
D03*
Y435096D02*
D03*
Y115096D02*
D03*
Y35096D02*
D03*
X1225821Y835096D02*
D03*
Y315096D02*
D03*
Y35096D02*
D03*
X1185822Y555096D02*
D03*
Y515096D02*
D03*
Y475096D02*
D03*
Y435096D02*
D03*
Y395096D02*
D03*
Y315096D02*
D03*
Y275096D02*
D03*
Y35096D02*
D03*
X1145822Y835096D02*
D03*
Y795096D02*
D03*
Y35096D02*
D03*
X1105822Y835096D02*
D03*
Y595096D02*
D03*
Y555096D02*
D03*
Y515096D02*
D03*
Y475096D02*
D03*
Y435096D02*
D03*
Y395096D02*
D03*
Y355096D02*
D03*
Y315096D02*
D03*
Y235096D02*
D03*
Y155096D02*
D03*
Y115096D02*
D03*
Y75096D02*
D03*
Y35096D02*
D03*
X1065822Y835096D02*
D03*
Y795096D02*
D03*
Y595096D02*
D03*
Y275096D02*
D03*
Y35096D02*
D03*
X1025822Y835096D02*
D03*
Y795096D02*
D03*
Y635096D02*
D03*
Y595096D02*
D03*
Y275096D02*
D03*
Y235096D02*
D03*
Y115096D02*
D03*
Y35096D02*
D03*
X985822Y835096D02*
D03*
Y275096D02*
D03*
Y155096D02*
D03*
Y115096D02*
D03*
Y75096D02*
D03*
Y35096D02*
D03*
X945822Y835096D02*
D03*
Y795096D02*
D03*
Y675096D02*
D03*
Y635096D02*
D03*
Y595096D02*
D03*
X905822Y795096D02*
D03*
X865822Y835096D02*
D03*
Y795096D02*
D03*
Y275096D02*
D03*
X825822Y835096D02*
D03*
Y795096D02*
D03*
Y275096D02*
D03*
X785822Y835096D02*
D03*
Y795096D02*
D03*
Y275096D02*
D03*
X745822Y835096D02*
D03*
Y795096D02*
D03*
Y275096D02*
D03*
Y35096D02*
D03*
X705822Y275096D02*
D03*
X665822D02*
D03*
X625821Y795096D02*
D03*
Y275096D02*
D03*
X585821Y835096D02*
D03*
Y795096D02*
D03*
Y275096D02*
D03*
Y195096D02*
D03*
X545821Y275096D02*
D03*
Y195096D02*
D03*
Y155096D02*
D03*
Y35096D02*
D03*
X505821Y675096D02*
D03*
Y635096D02*
D03*
Y595096D02*
D03*
Y275096D02*
D03*
Y155096D02*
D03*
X465821Y355096D02*
D03*
Y155096D02*
D03*
Y35096D02*
D03*
X425821Y195096D02*
D03*
Y155096D02*
D03*
Y115096D02*
D03*
Y35096D02*
D03*
X385821Y835096D02*
D03*
Y475096D02*
D03*
Y195096D02*
D03*
Y155096D02*
D03*
Y115096D02*
D03*
Y35096D02*
D03*
X345821Y315096D02*
D03*
Y275096D02*
D03*
Y195096D02*
D03*
Y155096D02*
D03*
Y115096D02*
D03*
Y35096D02*
D03*
X305821Y835096D02*
D03*
Y795096D02*
D03*
Y275096D02*
D03*
Y195096D02*
D03*
Y155096D02*
D03*
Y115096D02*
D03*
Y35096D02*
D03*
X265821Y675096D02*
D03*
Y635096D02*
D03*
Y475096D02*
D03*
Y275096D02*
D03*
Y195096D02*
D03*
Y155096D02*
D03*
Y115096D02*
D03*
Y35096D02*
D03*
X225821Y675096D02*
D03*
Y635096D02*
D03*
Y475096D02*
D03*
Y435096D02*
D03*
Y395096D02*
D03*
Y355096D02*
D03*
Y275096D02*
D03*
Y195096D02*
D03*
Y155096D02*
D03*
Y115096D02*
D03*
Y35096D02*
D03*
X185821Y795096D02*
D03*
Y195096D02*
D03*
Y155096D02*
D03*
Y115096D02*
D03*
Y35096D02*
D03*
X145822Y835096D02*
D03*
Y795096D02*
D03*
Y635096D02*
D03*
Y315096D02*
D03*
Y275096D02*
D03*
Y115096D02*
D03*
Y35096D02*
D03*
X105822Y835096D02*
D03*
Y675096D02*
D03*
Y635096D02*
D03*
Y115096D02*
D03*
Y35096D02*
D03*
X65822Y675096D02*
D03*
Y595096D02*
D03*
Y475096D02*
D03*
Y275096D02*
D03*
Y75096D02*
D03*
X25822Y795096D02*
D03*
Y755096D02*
D03*
Y715096D02*
D03*
Y675096D02*
D03*
Y635096D02*
D03*
Y595096D02*
D03*
Y555096D02*
D03*
Y515096D02*
D03*
Y475096D02*
D03*
Y435096D02*
D03*
Y395096D02*
D03*
Y355096D02*
D03*
Y315096D02*
D03*
Y275096D02*
D03*
Y115096D02*
D03*
Y75096D02*
D03*
X1226300Y693926D02*
D03*
X1226875Y669551D02*
D03*
X443000Y78000D02*
D03*
Y199000D02*
D03*
X533400Y200000D02*
D03*
X521000Y215000D02*
D03*
X499000Y431800D02*
D03*
X1208000Y548250D02*
D03*
X1256000D02*
D03*
X501000Y731000D02*
D03*
X452000Y730747D02*
D03*
Y694661D02*
D03*
X209000Y750498D02*
D03*
X184000Y750000D02*
D03*
X391838Y813377D02*
D03*
X398999Y796998D02*
D03*
X476999Y815998D02*
D03*
X485000Y809300D02*
D03*
X446000D02*
D03*
X711652Y870000D02*
D03*
X561000Y875050D02*
D03*
Y815000D02*
D03*
X284324Y823321D02*
D03*
X100002Y536000D02*
D03*
X107500Y616000D02*
D03*
X360937Y551000D02*
D03*
X301998Y466000D02*
D03*
X333950Y447500D02*
D03*
X157000Y197000D02*
D03*
X132998D02*
D03*
X468000Y342000D02*
D03*
X767000Y111651D02*
D03*
X1019000Y179000D02*
D03*
X1248000D02*
D03*
X986000Y495000D02*
D03*
X983000Y517000D02*
D03*
X950219Y521000D02*
D03*
X1209537Y643000D02*
D03*
X1246234Y647749D02*
D03*
X1227998Y726999D02*
D03*
X1159000Y700000D02*
D03*
X1199000Y709285D02*
D03*
X945000Y720498D02*
D03*
X1046421D02*
D03*
X1055000Y750002D02*
D03*
X1046000Y742000D02*
D03*
X1055000Y742421D02*
D03*
X1046000Y750000D02*
D03*
X1080000Y576000D02*
D03*
X951000Y574960D02*
D03*
X1080000Y397500D02*
D03*
X489062Y631500D02*
D03*
X339000Y554109D02*
D03*
X157000Y291235D02*
D03*
X152000Y131000D02*
D03*
X108000Y144000D02*
D03*
X140000Y292000D02*
D03*
X196500Y232600D02*
D03*
X185000Y221000D02*
D03*
X196500Y242000D02*
D03*
X223000Y293495D02*
D03*
X299000Y293000D02*
D03*
X346645Y329000D02*
D03*
X360875Y525000D02*
D03*
X302000Y491000D02*
D03*
X222000Y490998D02*
D03*
X201000Y695000D02*
D03*
X222982Y694659D02*
D03*
X314376Y709500D02*
D03*
X804000Y44000D02*
D03*
X765000Y57000D02*
D03*
X1251498Y577500D02*
D03*
X1303000Y640000D02*
D03*
X1310996Y592000D02*
D03*
X1265997Y648999D02*
D03*
X1243184Y752000D02*
D03*
X1300000Y719000D02*
D03*
X1274000Y727000D02*
D03*
X1361000Y504000D02*
D03*
X1355000Y497500D02*
D03*
X1322000Y578000D02*
D03*
X1316000Y572000D02*
D03*
X393000Y669500D02*
D03*
X372000Y579250D02*
D03*
X349000Y571000D02*
D03*
X340623Y677000D02*
D03*
X443000Y567000D02*
D03*
X1182000Y663000D02*
D03*
X1003001Y659933D02*
D03*
X1000000Y746125D02*
D03*
X375249Y679000D02*
D03*
X342375Y543000D02*
D03*
X1250000Y706000D02*
D03*
X1210050Y706597D02*
D03*
X1179750Y720498D02*
D03*
X1180017Y737037D02*
D03*
X1215000Y755000D02*
D03*
X452248Y750600D02*
D03*
X497150Y758500D02*
D03*
X475000Y771000D02*
D03*
X1243000Y763000D02*
D03*
X453000Y529000D02*
D03*
X443999Y511999D02*
D03*
X518000Y516000D02*
D03*
X495000Y235000D02*
D03*
X979000Y234000D02*
D03*
X485000Y235000D02*
D03*
X1190000Y231000D02*
D03*
X510000Y491000D02*
D03*
X439850Y466000D02*
D03*
X396000Y491000D02*
D03*
X710000Y771000D02*
D03*
X669000D02*
D03*
X293908Y768000D02*
D03*
X131000Y518000D02*
D03*
X444700Y326700D02*
D03*
X370000Y204000D02*
D03*
X664500Y215000D02*
D03*
X654500D02*
D03*
X370000D02*
D03*
X191000D02*
D03*
X196000Y492000D02*
D03*
X205000Y501000D02*
D03*
X265000D02*
D03*
X271000Y507000D02*
D03*
X351123Y652999D02*
D03*
X304998D02*
D03*
X293814Y748807D02*
D03*
X360000Y744000D02*
D03*
X196500Y419000D02*
D03*
X304000D02*
D03*
X146000Y232600D02*
D03*
X454249Y239000D02*
D03*
X460000Y245000D02*
D03*
X386000Y340000D02*
D03*
X499000Y526000D02*
D03*
X488000Y328000D02*
D03*
X494000Y334000D02*
D03*
X499000Y535000D02*
D03*
X487850Y555300D02*
D03*
X346650Y457000D02*
D03*
X464000Y393000D02*
D03*
X488000D02*
D03*
X362000Y667000D02*
D03*
X305000D02*
D03*
X193000Y574253D02*
D03*
X206000Y580500D02*
D03*
X235698Y580725D02*
D03*
X220000Y588000D02*
D03*
X163500Y720000D02*
D03*
X325500Y414225D02*
D03*
X304000Y406000D02*
D03*
X346650Y405995D02*
D03*
X146400Y754102D02*
D03*
X687702Y780000D02*
D03*
X465221D02*
D03*
Y656900D02*
D03*
X466000Y592000D02*
D03*
X480000Y440000D02*
D03*
X488000Y668000D02*
D03*
X473250Y720000D02*
D03*
X735000Y787000D02*
D03*
X506000Y787300D02*
D03*
X573350Y815000D02*
D03*
X547800Y809300D02*
D03*
X522550Y797000D02*
D03*
X115000Y606352D02*
D03*
X137000Y566998D02*
D03*
X465500Y644000D02*
D03*
X106900Y542532D02*
D03*
X109000Y352500D02*
D03*
X372000Y606100D02*
D03*
X73000Y209000D02*
D03*
Y202000D02*
D03*
X108000Y181800D02*
D03*
X453000Y621000D02*
D03*
X274000Y620000D02*
D03*
X319000Y816000D02*
D03*
X355000Y827000D02*
D03*
X327000Y739998D02*
D03*
X246000Y740000D02*
D03*
X314376Y787300D02*
D03*
Y719751D02*
D03*
X100002Y352500D02*
D03*
X97000Y86000D02*
D03*
X105000Y78000D02*
D03*
X108000Y155000D02*
D03*
Y168000D02*
D03*
X243000Y387000D02*
D03*
X260000Y378000D02*
D03*
X360000Y720000D02*
D03*
X274000Y823000D02*
D03*
X327000Y777000D02*
D03*
X230000D02*
D03*
X744000Y78000D02*
D03*
X750000Y72000D02*
D03*
X856505Y201000D02*
D03*
X1317000Y209000D02*
D03*
X1308475Y200525D02*
D03*
X1073000Y65000D02*
D03*
X1066000Y58000D02*
D03*
X1231000Y786000D02*
D03*
X1320000D02*
D03*
X928000Y319000D02*
D03*
X1040998D02*
D03*
X1084500Y270000D02*
D03*
X1161000D02*
D03*
X1226000Y650000D02*
D03*
X1165748Y649999D02*
D03*
X1151998D02*
D03*
X1071550Y659933D02*
D03*
X1139498Y720498D02*
D03*
X1103000Y744000D02*
D03*
M02*
