G04*
G04 #@! TF.GenerationSoftware,Altium Limited,Altium Designer,19.1.7 (138)*
G04*
G04 Layer_Color=16711935*
%FSLAX44Y44*%
%MOMM*%
G71*
G01*
G75*
%ADD14C,0.2000*%
%ADD69C,1.9000*%
%ADD70R,1.9000X1.9000*%
%ADD71C,2.3000*%
%ADD72C,1.9240*%
%ADD73C,2.7000*%
%ADD74R,2.7000X2.7000*%
%ADD75R,2.7000X2.7000*%
%ADD76C,1.8000*%
%ADD77C,1.7000*%
%ADD78C,6.4000*%
%ADD79R,1.9000X1.9000*%
D14*
X807412Y869503D02*
Y861504D01*
Y869503D02*
X802460D01*
X807412Y865694D02*
X804365D01*
X796214Y868360D02*
X796976Y869122D01*
X798119Y869503D01*
X799642D01*
X800785Y869122D01*
X801546Y868360D01*
Y867598D01*
X801166Y866836D01*
X800785Y866456D01*
X800023Y866075D01*
X797738Y865313D01*
X796976Y864932D01*
X796595Y864551D01*
X796214Y863790D01*
Y862647D01*
X796976Y861885D01*
X798119Y861504D01*
X799642D01*
X800785Y861885D01*
X801546Y862647D01*
X650240Y23238D02*
Y15240D01*
Y23238D02*
X645289D01*
X650240Y19430D02*
X647193D01*
X639042Y22096D02*
X639804Y22857D01*
X640947Y23238D01*
X642470D01*
X643613Y22857D01*
X644375Y22096D01*
Y21334D01*
X643994Y20572D01*
X643613Y20191D01*
X642851Y19811D01*
X640566Y19049D01*
X639804Y18668D01*
X639423Y18287D01*
X639042Y17525D01*
Y16383D01*
X639804Y15621D01*
X640947Y15240D01*
X642470D01*
X643613Y15621D01*
X644375Y16383D01*
D69*
X406300Y809300D02*
D03*
Y783900D02*
D03*
Y758500D02*
D03*
Y733100D02*
D03*
Y707700D02*
D03*
Y682300D02*
D03*
Y656900D02*
D03*
Y631500D02*
D03*
Y606100D02*
D03*
Y580700D02*
D03*
Y555300D02*
D03*
Y529900D02*
D03*
X431700Y809300D02*
D03*
Y783900D02*
D03*
Y758500D02*
D03*
Y733100D02*
D03*
Y707700D02*
D03*
Y682300D02*
D03*
Y656900D02*
D03*
Y631500D02*
D03*
Y606100D02*
D03*
Y580700D02*
D03*
Y555300D02*
D03*
Y529900D02*
D03*
Y326700D02*
D03*
X406300Y352100D02*
D03*
X431700D02*
D03*
X406300Y377500D02*
D03*
X431700D02*
D03*
X406300Y402900D02*
D03*
X431700D02*
D03*
X406300Y428300D02*
D03*
X431700D02*
D03*
X406300Y453700D02*
D03*
X431700D02*
D03*
X406300Y479100D02*
D03*
X431700D02*
D03*
Y504500D02*
D03*
X406300D02*
D03*
X598750Y861504D02*
D03*
X573350D02*
D03*
X547950D02*
D03*
X522550D02*
D03*
X497150D02*
D03*
X209498Y861000D02*
D03*
X234898D02*
D03*
X260298D02*
D03*
X325500Y388700D02*
D03*
X58000Y232600D02*
D03*
X32600Y207200D02*
D03*
X58000D02*
D03*
X32600Y181800D02*
D03*
X58000D02*
D03*
X32600Y156400D02*
D03*
X58000D02*
D03*
X32600Y131000D02*
D03*
X58000D02*
D03*
X370102Y861000D02*
D03*
X344702D02*
D03*
X319302D02*
D03*
D70*
X406300Y326700D02*
D03*
X325500Y363300D02*
D03*
X32600Y232600D02*
D03*
D71*
X163500Y592500D02*
D03*
X153500Y542500D02*
D03*
X1283499Y272800D02*
D03*
X1293499Y372800D02*
D03*
X1001000Y170000D02*
D03*
X1051000Y160000D02*
D03*
X1293500Y811398D02*
D03*
X1283500Y711398D02*
D03*
X1283500Y497500D02*
D03*
X1293500Y547500D02*
D03*
X1156419Y170500D02*
D03*
X1256419Y160500D02*
D03*
X155000Y352500D02*
D03*
X165000Y402500D02*
D03*
X182000Y662000D02*
D03*
X132000Y672000D02*
D03*
D72*
X533400Y330200D02*
D03*
Y355600D02*
D03*
Y406400D02*
D03*
Y508000D02*
D03*
Y482600D02*
D03*
Y457200D02*
D03*
Y431800D02*
D03*
Y381000D02*
D03*
X558800Y635000D02*
D03*
X584200D02*
D03*
X609600D02*
D03*
X635000D02*
D03*
X736600D02*
D03*
X711200D02*
D03*
X685800D02*
D03*
X660400D02*
D03*
X838200D02*
D03*
X812800D02*
D03*
X787400D02*
D03*
X762000D02*
D03*
X863600D02*
D03*
X889000D02*
D03*
Y660400D02*
D03*
X863600D02*
D03*
X762000D02*
D03*
X787400D02*
D03*
X812800D02*
D03*
X838200D02*
D03*
X660400D02*
D03*
X685800D02*
D03*
X711200D02*
D03*
X736600D02*
D03*
X635000D02*
D03*
X609600D02*
D03*
X584200D02*
D03*
X558800D02*
D03*
X889000Y685800D02*
D03*
X863600D02*
D03*
X762000D02*
D03*
X787400D02*
D03*
X812800D02*
D03*
X838200D02*
D03*
X660400D02*
D03*
X685800D02*
D03*
X711200D02*
D03*
X736600D02*
D03*
X635000D02*
D03*
X609600D02*
D03*
X584200D02*
D03*
X558800D02*
D03*
X889000Y711200D02*
D03*
X863600D02*
D03*
X762000D02*
D03*
X787400D02*
D03*
X812800D02*
D03*
X838200D02*
D03*
X660400D02*
D03*
X685800D02*
D03*
X711200D02*
D03*
X736600D02*
D03*
X635000D02*
D03*
X609600D02*
D03*
X584200D02*
D03*
X558800D02*
D03*
Y533400D02*
D03*
X584200D02*
D03*
X609600D02*
D03*
X635000D02*
D03*
X736600D02*
D03*
X711200D02*
D03*
X685800D02*
D03*
X660400D02*
D03*
X838200D02*
D03*
X812800D02*
D03*
X787400D02*
D03*
X762000D02*
D03*
X863600D02*
D03*
X889000D02*
D03*
Y558800D02*
D03*
X863600D02*
D03*
X762000D02*
D03*
X787400D02*
D03*
X812800D02*
D03*
X838200D02*
D03*
X660400D02*
D03*
X685800D02*
D03*
X711200D02*
D03*
X736600D02*
D03*
X635000D02*
D03*
X609600D02*
D03*
X584200D02*
D03*
X558800D02*
D03*
X889000Y584200D02*
D03*
X863600D02*
D03*
X762000D02*
D03*
X787400D02*
D03*
X812800D02*
D03*
X838200D02*
D03*
X660400D02*
D03*
X685800D02*
D03*
X711200D02*
D03*
X736600D02*
D03*
X635000D02*
D03*
X609600D02*
D03*
X584200D02*
D03*
X558800D02*
D03*
X889000Y609600D02*
D03*
X863600D02*
D03*
X762000D02*
D03*
X787400D02*
D03*
X812800D02*
D03*
X838200D02*
D03*
X660400D02*
D03*
X685800D02*
D03*
X711200D02*
D03*
X736600D02*
D03*
X635000D02*
D03*
X609600D02*
D03*
X584200D02*
D03*
X558800D02*
D03*
Y431800D02*
D03*
X584200D02*
D03*
X609600D02*
D03*
X635000D02*
D03*
X736600D02*
D03*
X711200D02*
D03*
X685800D02*
D03*
X660400D02*
D03*
X838200D02*
D03*
X812800D02*
D03*
X787400D02*
D03*
X762000D02*
D03*
X863600D02*
D03*
X889000D02*
D03*
Y457200D02*
D03*
X863600D02*
D03*
X762000D02*
D03*
X787400D02*
D03*
X812800D02*
D03*
X838200D02*
D03*
X660400D02*
D03*
X685800D02*
D03*
X711200D02*
D03*
X736600D02*
D03*
X635000D02*
D03*
X609600D02*
D03*
X584200D02*
D03*
X558800D02*
D03*
X889000Y482600D02*
D03*
X863600D02*
D03*
X762000D02*
D03*
X787400D02*
D03*
X812800D02*
D03*
X838200D02*
D03*
X660400D02*
D03*
X685800D02*
D03*
X711200D02*
D03*
X736600D02*
D03*
X635000D02*
D03*
X609600D02*
D03*
X584200D02*
D03*
X558800D02*
D03*
X889000Y508000D02*
D03*
X863600D02*
D03*
X762000D02*
D03*
X787400D02*
D03*
X812800D02*
D03*
X838200D02*
D03*
X660400D02*
D03*
X685800D02*
D03*
X711200D02*
D03*
X736600D02*
D03*
X635000D02*
D03*
X609600D02*
D03*
X584200D02*
D03*
X558800D02*
D03*
Y406400D02*
D03*
X584200D02*
D03*
X609600D02*
D03*
X635000D02*
D03*
X736600D02*
D03*
X711200D02*
D03*
X685800D02*
D03*
X660400D02*
D03*
X838200D02*
D03*
X812800D02*
D03*
X787400D02*
D03*
X762000D02*
D03*
X863600D02*
D03*
X889000D02*
D03*
X558800Y381000D02*
D03*
X584200D02*
D03*
X609600D02*
D03*
X635000D02*
D03*
X736600D02*
D03*
X711200D02*
D03*
X685800D02*
D03*
X660400D02*
D03*
X838200D02*
D03*
X812800D02*
D03*
X787400D02*
D03*
X762000D02*
D03*
X863600D02*
D03*
X889000D02*
D03*
X558800Y355600D02*
D03*
X584200D02*
D03*
X609600D02*
D03*
X635000D02*
D03*
X736600D02*
D03*
X711200D02*
D03*
X685800D02*
D03*
X660400D02*
D03*
X838200D02*
D03*
X812800D02*
D03*
X787400D02*
D03*
X762000D02*
D03*
X863600D02*
D03*
X889000D02*
D03*
Y330200D02*
D03*
X863600D02*
D03*
X762000D02*
D03*
X787400D02*
D03*
X812800D02*
D03*
X838200D02*
D03*
X660400D02*
D03*
X685800D02*
D03*
X711200D02*
D03*
X736600D02*
D03*
X635000D02*
D03*
X609600D02*
D03*
X584200D02*
D03*
X558800D02*
D03*
D73*
X968500Y810000D02*
D03*
X1081000Y810000D02*
D03*
X1043500Y80000D02*
D03*
X1193500Y810000D02*
D03*
X1361000Y783802D02*
D03*
X1361000Y665000D02*
D03*
X1361000Y306600D02*
D03*
Y271601D02*
D03*
Y236600D02*
D03*
X1253499Y80000D02*
D03*
X1218500D02*
D03*
X1183499D02*
D03*
X1288500D02*
D03*
X1323500D02*
D03*
X1361000Y397499D02*
D03*
Y432500D02*
D03*
Y467499D02*
D03*
X79750Y512501D02*
D03*
Y547500D02*
D03*
Y582501D02*
D03*
X80000Y397501D02*
D03*
Y362500D02*
D03*
Y327501D02*
D03*
X80000Y754102D02*
D03*
Y719103D02*
D03*
D74*
X1003500Y810000D02*
D03*
X1116000Y810000D02*
D03*
X1008500Y80000D02*
D03*
X1228500Y810000D02*
D03*
X1148500Y80000D02*
D03*
D75*
X1361000Y748802D02*
D03*
X1361000Y630000D02*
D03*
X1361000Y201601D02*
D03*
Y362501D02*
D03*
X79750Y617499D02*
D03*
X80000Y432500D02*
D03*
X80000Y789103D02*
D03*
D76*
X1207848Y247026D02*
D03*
X1175848D02*
D03*
X1153848D02*
D03*
X1131848D02*
D03*
Y215025D02*
D03*
X1153848D02*
D03*
X1175848D02*
D03*
X1207848D02*
D03*
D77*
X1321000Y872500D02*
D03*
X1353500Y872500D02*
D03*
D78*
X1406000Y35000D02*
D03*
Y855000D02*
D03*
X909000Y858000D02*
D03*
X419000D02*
D03*
X909000Y278000D02*
D03*
X419000D02*
D03*
X35000Y35000D02*
D03*
Y855000D02*
D03*
D79*
X471750Y861504D02*
D03*
X184098Y861000D02*
D03*
X293902D02*
D03*
M02*
