G04*
G04 #@! TF.GenerationSoftware,Altium Limited,Altium Designer,19.1.7 (138)*
G04*
G04 Layer_Color=65535*
%FSLAX44Y44*%
%MOMM*%
G71*
G01*
G75*
%ADD10C,0.3500*%
%ADD11C,0.2500*%
%ADD12C,0.4000*%
%ADD13C,0.2540*%
%ADD14C,0.2000*%
%ADD15C,0.3000*%
%ADD16C,0.1270*%
%ADD17C,0.1000*%
%ADD18C,0.1500*%
G36*
X95356Y236790D02*
X95422Y236781D01*
X95497Y236762D01*
X95591Y236744D01*
X95713Y236715D01*
X95834Y236687D01*
X95975Y236659D01*
X96125Y236622D01*
X96294Y236584D01*
X96631Y236509D01*
X96987Y236425D01*
X97334Y236341D01*
X97343D01*
X97390Y236322D01*
X97446Y236303D01*
X97531Y236275D01*
X97634Y236237D01*
X97746Y236191D01*
X97887Y236134D01*
X98028Y236078D01*
X98187Y236003D01*
X98346Y235928D01*
X98684Y235759D01*
X99031Y235553D01*
X99368Y235319D01*
X99377Y235310D01*
X99415Y235281D01*
X99471Y235235D01*
X99555Y235169D01*
X99649Y235085D01*
X99761Y234981D01*
X99883Y234860D01*
X100024Y234719D01*
X100174Y234560D01*
X100324Y234391D01*
X100493Y234194D01*
X100661Y233988D01*
X100830Y233763D01*
X100999Y233529D01*
X101167Y233266D01*
X101327Y232994D01*
X101336Y232985D01*
X101346Y232966D01*
X101364Y232929D01*
X101402Y232882D01*
X101486Y232779D01*
X101608Y232648D01*
X101767Y232516D01*
X101955Y232413D01*
X102058Y232367D01*
X102170Y232329D01*
X102292Y232310D01*
X102423Y232301D01*
X102433D01*
X102442D01*
X102498D01*
X102573Y232320D01*
X102676Y232338D01*
X102789Y232376D01*
X102911Y232432D01*
X103033Y232507D01*
X103145Y232610D01*
X103154Y232620D01*
X103192Y232666D01*
X103239Y232732D01*
X103304Y232826D01*
X103361Y232938D01*
X103407Y233079D01*
X103445Y233238D01*
X103454Y233416D01*
Y233519D01*
X103445Y233632D01*
X103436Y233772D01*
X103407Y233922D01*
X103379Y234082D01*
X103333Y234222D01*
X103276Y234354D01*
X103267Y234372D01*
X103229Y234429D01*
X103164Y234503D01*
X103079Y234597D01*
X102958Y234710D01*
X102817Y234822D01*
X102639Y234925D01*
X102423Y235028D01*
X102405Y235038D01*
X102358Y235056D01*
X102283Y235103D01*
X102208Y235169D01*
X102133Y235244D01*
X102058Y235347D01*
X102011Y235469D01*
X102002Y235544D01*
X101992Y235619D01*
Y235666D01*
X102002Y235713D01*
X102020Y235778D01*
X102039Y235853D01*
X102077Y235938D01*
X102123Y236022D01*
X102189Y236106D01*
X102198Y236116D01*
X102226Y236134D01*
X102264Y236172D01*
X102320Y236209D01*
X102395Y236247D01*
X102480Y236284D01*
X102573Y236303D01*
X102676Y236312D01*
X102686D01*
X102704D01*
X102733D01*
X102770Y236303D01*
X102864Y236284D01*
X102967Y236256D01*
X102976D01*
X102986Y236247D01*
X103014Y236237D01*
X103051Y236219D01*
X103145Y236172D01*
X103267Y236106D01*
X103407Y236022D01*
X103567Y235909D01*
X103745Y235788D01*
X103923Y235628D01*
X104092Y235450D01*
X104270Y235253D01*
X104429Y235019D01*
X104570Y234766D01*
X104691Y234485D01*
X104785Y234175D01*
X104823Y234016D01*
X104851Y233838D01*
X104860Y233660D01*
X104870Y233472D01*
Y233360D01*
X104860Y233276D01*
X104851Y233173D01*
X104832Y233051D01*
X104813Y232929D01*
X104785Y232788D01*
X104748Y232638D01*
X104710Y232488D01*
X104654Y232338D01*
X104588Y232188D01*
X104513Y232038D01*
X104420Y231898D01*
X104326Y231767D01*
X104204Y231645D01*
X104195Y231635D01*
X104176Y231607D01*
X104129Y231570D01*
X104082Y231523D01*
X104007Y231457D01*
X103932Y231392D01*
X103829Y231317D01*
X103726Y231242D01*
X103604Y231167D01*
X103482Y231092D01*
X103342Y231026D01*
X103192Y230961D01*
X103033Y230914D01*
X102873Y230876D01*
X102695Y230848D01*
X102517Y230839D01*
X102498D01*
X102451D01*
X102367Y230848D01*
X102264Y230858D01*
X102133Y230886D01*
X101983Y230914D01*
X101824Y230961D01*
X101645Y231017D01*
X101449Y231101D01*
X101252Y231195D01*
X101055Y231307D01*
X100858Y231448D01*
X100661Y231617D01*
X100464Y231814D01*
X100286Y232038D01*
X100118Y232292D01*
X100108Y232310D01*
X100080Y232357D01*
X100033Y232432D01*
X99968Y232526D01*
X99893Y232648D01*
X99790Y232788D01*
X99686Y232938D01*
X99565Y233098D01*
X99433Y233266D01*
X99284Y233444D01*
X99134Y233622D01*
X98965Y233791D01*
X98796Y233960D01*
X98618Y234119D01*
X98431Y234269D01*
X98243Y234400D01*
X98234D01*
X98215Y234419D01*
X98178Y234438D01*
X98131Y234466D01*
X98065Y234503D01*
X97999Y234541D01*
X97915Y234588D01*
X97812Y234635D01*
X97709Y234682D01*
X97597Y234738D01*
X97334Y234850D01*
X97044Y234963D01*
X96725Y235066D01*
Y231570D01*
X96715Y231523D01*
X96687Y231420D01*
X96640Y231289D01*
X96603Y231223D01*
X96556Y231157D01*
X96500Y231101D01*
X96425Y231054D01*
X96350Y231007D01*
X96256Y230970D01*
X96144Y230951D01*
X96022Y230942D01*
X96012D01*
X95994D01*
X95956D01*
X95909Y230951D01*
X95797Y230979D01*
X95666Y231026D01*
X95600Y231064D01*
X95534Y231111D01*
X95478Y231167D01*
X95422Y231232D01*
X95375Y231317D01*
X95338Y231411D01*
X95319Y231514D01*
X95309Y231635D01*
Y236800D01*
X95319D01*
X95356Y236790D01*
D02*
G37*
G36*
X104157Y136790D02*
X104204D01*
X104307Y136762D01*
X104438Y136715D01*
X104504Y136678D01*
X104570Y136631D01*
X104626Y136575D01*
X104673Y136509D01*
X104720Y136425D01*
X104757Y136331D01*
X104776Y136228D01*
X104785Y136106D01*
Y136041D01*
X104776Y135994D01*
X104748Y135881D01*
X104701Y135750D01*
X104663Y135684D01*
X104616Y135628D01*
X104560Y135563D01*
X104495Y135516D01*
X104410Y135469D01*
X104317Y135431D01*
X104213Y135413D01*
X104092Y135403D01*
X95881D01*
X95872D01*
X95853D01*
X95816D01*
X95769Y135413D01*
X95666Y135441D01*
X95534Y135488D01*
X95469Y135525D01*
X95403Y135572D01*
X95347Y135628D01*
X95300Y135703D01*
X95253Y135778D01*
X95216Y135872D01*
X95197Y135984D01*
X95188Y136106D01*
Y136134D01*
X95197Y136172D01*
Y136219D01*
X95225Y136322D01*
X95272Y136453D01*
X95309Y136519D01*
X95356Y136584D01*
X95413Y136640D01*
X95478Y136687D01*
X95563Y136734D01*
X95656Y136772D01*
X95759Y136790D01*
X95881Y136800D01*
X104092D01*
X104101D01*
X104120D01*
X104157Y136790D01*
D02*
G37*
G36*
X100136Y133116D02*
X100268D01*
X100427Y133098D01*
X100614Y133088D01*
X100821Y133060D01*
X101055Y133032D01*
X101289Y132994D01*
X101542Y132938D01*
X101805Y132882D01*
X102058Y132807D01*
X102320Y132723D01*
X102573Y132620D01*
X102817Y132498D01*
X103051Y132367D01*
X103061D01*
X103070Y132357D01*
X103126Y132329D01*
X103211Y132282D01*
X103323Y132217D01*
X103454Y132123D01*
X103604Y132029D01*
X103754Y131907D01*
X103923Y131776D01*
X104082Y131626D01*
X104232Y131457D01*
X104382Y131279D01*
X104513Y131082D01*
X104626Y130876D01*
X104710Y130651D01*
X104767Y130417D01*
X104785Y130295D01*
Y130117D01*
X104776Y130042D01*
X104757Y129948D01*
X104738Y129836D01*
X104701Y129705D01*
X104654Y129555D01*
X104598Y129395D01*
X104513Y129227D01*
X104410Y129049D01*
X104289Y128871D01*
X104138Y128683D01*
X103970Y128505D01*
X103764Y128327D01*
X103529Y128149D01*
X103258Y127990D01*
X103239Y127980D01*
X103192Y127952D01*
X103117Y127915D01*
X103014Y127868D01*
X102873Y127811D01*
X102714Y127746D01*
X102526Y127680D01*
X102320Y127605D01*
X102086Y127530D01*
X101833Y127465D01*
X101561Y127399D01*
X101271Y127343D01*
X100961Y127296D01*
X100642Y127249D01*
X100305Y127230D01*
X99949Y127221D01*
X99940D01*
X99930D01*
X99902D01*
X99865D01*
X99761D01*
X99630Y127230D01*
X99471Y127240D01*
X99284Y127259D01*
X99068Y127287D01*
X98843Y127315D01*
X98599Y127352D01*
X98346Y127399D01*
X98093Y127465D01*
X97831Y127540D01*
X97578Y127624D01*
X97325Y127727D01*
X97081Y127840D01*
X96856Y127971D01*
X96837Y127980D01*
X96781Y128008D01*
X96697Y128055D01*
X96584Y128130D01*
X96453Y128215D01*
X96303Y128318D01*
X96153Y128430D01*
X95994Y128571D01*
X95825Y128721D01*
X95675Y128889D01*
X95525Y129067D01*
X95394Y129264D01*
X95281Y129470D01*
X95197Y129695D01*
X95141Y129930D01*
X95132Y130051D01*
X95122Y130173D01*
Y130230D01*
X95132Y130305D01*
X95150Y130398D01*
X95178Y130511D01*
X95216Y130642D01*
X95272Y130792D01*
X95338Y130951D01*
X95431Y131129D01*
X95544Y131307D01*
X95684Y131486D01*
X95853Y131673D01*
X96050Y131860D01*
X96284Y132038D01*
X96416Y132132D01*
X96547Y132217D01*
X96697Y132301D01*
X96856Y132385D01*
X96865Y132395D01*
X96912Y132413D01*
X96978Y132451D01*
X97072Y132498D01*
X97184Y132554D01*
X97325Y132620D01*
X97493Y132685D01*
X97681Y132751D01*
X97887Y132826D01*
X98121Y132891D01*
X98374Y132957D01*
X98656Y133013D01*
X98946Y133060D01*
X99265Y133098D01*
X99593Y133116D01*
X99949Y133126D01*
X99958D01*
X99968D01*
X99996D01*
X100033D01*
X100136Y133116D01*
D02*
G37*
%LPC*%
G36*
X100202Y131748D02*
X99949D01*
X99930D01*
X99883D01*
X99818D01*
X99715Y131739D01*
X99593D01*
X99452Y131729D01*
X99293Y131711D01*
X99124Y131692D01*
X98946Y131673D01*
X98749Y131645D01*
X98356Y131570D01*
X97953Y131467D01*
X97756Y131401D01*
X97568Y131326D01*
X97559Y131317D01*
X97521Y131307D01*
X97475Y131279D01*
X97409Y131242D01*
X97334Y131204D01*
X97240Y131148D01*
X97053Y131017D01*
X96865Y130857D01*
X96781Y130754D01*
X96697Y130661D01*
X96631Y130548D01*
X96584Y130436D01*
X96547Y130314D01*
X96537Y130183D01*
Y130155D01*
X96547Y130117D01*
X96556Y130061D01*
X96566Y130005D01*
X96594Y129930D01*
X96622Y129855D01*
X96669Y129770D01*
X96725Y129677D01*
X96790Y129583D01*
X96875Y129489D01*
X96978Y129395D01*
X97100Y129292D01*
X97231Y129199D01*
X97390Y129105D01*
X97578Y129021D01*
X97587Y129011D01*
X97625Y129002D01*
X97681Y128983D01*
X97756Y128955D01*
X97850Y128917D01*
X97962Y128880D01*
X98093Y128842D01*
X98243Y128805D01*
X98412Y128767D01*
X98590Y128730D01*
X98787Y128693D01*
X98993Y128655D01*
X99218Y128627D01*
X99452Y128608D01*
X99705Y128589D01*
X99958D01*
X99977D01*
X100024D01*
X100090D01*
X100193Y128599D01*
X100315D01*
X100455Y128608D01*
X100605Y128627D01*
X100783Y128646D01*
X100961Y128664D01*
X101158Y128693D01*
X101552Y128767D01*
X101955Y128880D01*
X102151Y128946D01*
X102339Y129021D01*
X102348Y129030D01*
X102386Y129039D01*
X102433Y129067D01*
X102498Y129105D01*
X102583Y129142D01*
X102667Y129199D01*
X102854Y129330D01*
X103042Y129499D01*
X103136Y129592D01*
X103211Y129695D01*
X103276Y129808D01*
X103323Y129930D01*
X103361Y130051D01*
X103370Y130183D01*
Y130211D01*
X103361Y130248D01*
X103351Y130305D01*
X103333Y130361D01*
X103314Y130436D01*
X103276Y130511D01*
X103229Y130595D01*
X103164Y130689D01*
X103089Y130783D01*
X103004Y130886D01*
X102892Y130979D01*
X102761Y131082D01*
X102611Y131176D01*
X102433Y131270D01*
X102236Y131364D01*
X102226D01*
X102198Y131382D01*
X102142Y131401D01*
X102077Y131420D01*
X101983Y131448D01*
X101880Y131486D01*
X101758Y131523D01*
X101617Y131551D01*
X101458Y131589D01*
X101289Y131626D01*
X101102Y131654D01*
X100896Y131692D01*
X100680Y131711D01*
X100446Y131729D01*
X100202Y131748D01*
D02*
G37*
%LPD*%
D10*
X661700Y863050D02*
G03*
X661700Y863050I-2000J0D01*
G01*
X1102000Y670000D02*
G03*
X1102000Y670000I-2000J0D01*
G01*
X1224300Y697299D02*
G03*
X1224300Y697299I-2000J0D01*
G01*
X376000Y457000D02*
G03*
X376000Y457000I-2000J0D01*
G01*
X287000Y516902D02*
G03*
X287000Y516902I-3500J0D01*
G01*
X268500Y731000D02*
G03*
X268500Y731000I-2000J0D01*
G01*
D11*
X175529Y615500D02*
G03*
X141471Y615500I-17029J0D01*
G01*
X175529D02*
G03*
X141471Y615500I-17029J0D01*
G01*
Y519500D02*
G03*
X175529Y519500I17029J0D01*
G01*
X961900Y733000D02*
G03*
X961900Y733000I-1250J0D01*
G01*
X1305528Y410800D02*
G03*
X1271470Y410800I-17029J0D01*
G01*
X1305528D02*
G03*
X1271470Y410800I-17029J0D01*
G01*
Y234800D02*
G03*
X1305528Y234800I17029J0D01*
G01*
X1271470D02*
G03*
X1305528Y234800I17029J0D01*
G01*
X978000Y182029D02*
G03*
X978000Y147971I0J-17029D01*
G01*
Y182029D02*
G03*
X978000Y147971I0J-17029D01*
G01*
X1074000D02*
G03*
X1074000Y182029I0J17029D01*
G01*
X1271471Y673398D02*
G03*
X1305529Y673398I17029J0D01*
G01*
X1271471D02*
G03*
X1305529Y673398I17029J0D01*
G01*
Y849398D02*
G03*
X1271471Y849398I-17029J0D01*
G01*
X1305529D02*
G03*
X1271471Y849398I-17029J0D01*
G01*
X1271470Y474500D02*
G03*
X1305529Y474500I17029J0D01*
G01*
X1271470D02*
G03*
X1305529Y474500I17029J0D01*
G01*
Y570500D02*
G03*
X1271470Y570500I-17029J0D01*
G01*
X1294419Y148470D02*
G03*
X1294419Y182529I0J17029D01*
G01*
Y148470D02*
G03*
X1294419Y182529I0J17029D01*
G01*
X1118419D02*
G03*
X1118419Y148470I0J-17029D01*
G01*
Y182529D02*
G03*
X1118419Y148470I0J-17029D01*
G01*
X142971Y329500D02*
G03*
X177029Y329500I17029J0D01*
G01*
Y425500D02*
G03*
X142971Y425500I-17029J0D01*
G01*
X177029D02*
G03*
X142971Y425500I-17029J0D01*
G01*
X205000Y649971D02*
G03*
X205000Y684029I0J17029D01*
G01*
X109000D02*
G03*
X109000Y649971I0J-17029D01*
G01*
Y684029D02*
G03*
X109000Y649971I0J-17029D01*
G01*
X175500Y517500D02*
Y615500D01*
X141500Y519500D02*
Y615500D01*
X1305499Y234800D02*
Y410800D01*
X1271499Y234800D02*
Y410800D01*
X978000Y182000D02*
X1076000D01*
X978000Y148000D02*
X1074000D01*
X1271500Y673398D02*
Y849398D01*
X1305500Y673398D02*
Y849398D01*
X1271500Y474500D02*
Y572500D01*
X1305500Y474500D02*
Y570500D01*
X1118419Y148500D02*
X1294419D01*
X1118419Y182500D02*
X1294419D01*
X143000Y329500D02*
Y425500D01*
X177000Y327500D02*
Y425500D01*
X109000Y650000D02*
X205000D01*
X109000Y684000D02*
X207000D01*
X1126000Y451002D02*
X1119335D01*
X1122668Y447669D02*
Y454334D01*
X1125500Y566753D02*
X1118835D01*
X1122168Y563421D02*
Y570085D01*
X1126000Y509502D02*
X1119335D01*
X1122668Y506170D02*
Y512834D01*
X492002Y98001D02*
Y91336D01*
X495334Y94669D02*
X488670D01*
X558002Y98001D02*
Y91336D01*
X561334Y94669D02*
X554670D01*
X624002Y98001D02*
Y91336D01*
X627334Y94669D02*
X620670D01*
D12*
X801000Y159000D02*
G03*
X801000Y159000I-2000J0D01*
G01*
X1037000Y463500D02*
G03*
X1037000Y463500I-2000J0D01*
G01*
X234500Y431000D02*
Y461000D01*
X697000Y144000D02*
X727000D01*
X1040000Y528000D02*
Y558000D01*
X1216000Y435000D02*
X1246000D01*
X1161000Y407000D02*
Y453000D01*
X1160499Y522751D02*
Y568752D01*
X1161000Y465500D02*
Y511501D01*
X1216340Y457500D02*
X1246340D01*
X1034000Y609373D02*
Y639373D01*
X490004Y133001D02*
X536004D01*
X556004D02*
X602004D01*
X622004D02*
X668003D01*
X237250Y340000D02*
X267250D01*
X233500Y300000D02*
Y330000D01*
D13*
X138744Y740500D02*
G03*
X138744Y740500I-745J0D01*
G01*
X508000Y520170D02*
X545300D01*
Y469900D02*
Y520170D01*
X508000Y469900D02*
X545300D01*
X508000D02*
Y520170D01*
Y469370D02*
X545300D01*
Y419100D02*
Y469370D01*
X508000Y419100D02*
X545300D01*
X508000D02*
Y469370D01*
Y418570D02*
X545300D01*
Y368300D02*
Y418570D01*
X508000Y368300D02*
X545300D01*
X508000D02*
Y418570D01*
Y317500D02*
Y367770D01*
Y317500D02*
X545300D01*
Y367770D01*
X508000D02*
X545300D01*
X289730Y822270D02*
Y831270D01*
X385821Y551180D02*
Y552590D01*
X384303Y554109D02*
X385821Y552590D01*
X379000Y554109D02*
X384303D01*
X339000Y492000D02*
X340623Y493623D01*
X321276Y492000D02*
X339000D01*
X308376Y479100D02*
X321276Y492000D01*
X297000Y479100D02*
X308376D01*
Y486000D02*
X314376Y492000D01*
X297000Y486000D02*
X308376D01*
X273000Y495000D02*
X278500Y500500D01*
X260000Y495000D02*
X273000D01*
X681000Y124000D02*
X692000D01*
X732000D02*
X744500D01*
X1020000Y510500D02*
Y523000D01*
Y563000D02*
Y574000D01*
X1251000Y415000D02*
X1263500D01*
X1200000D02*
X1211000D01*
X1137000Y728000D02*
X1139500D01*
X1140000D02*
X1143000Y725000D01*
X1139000Y728000D02*
X1140000D01*
X1251340Y477500D02*
X1262340D01*
X1198840D02*
X1211340D01*
X1054000Y593373D02*
Y604373D01*
Y644373D02*
Y656873D01*
X1254303Y186500D02*
X1262000D01*
D14*
X655700Y817050D02*
Y867050D01*
X671700Y817050D02*
Y867050D01*
X655700D02*
X671700D01*
X655700Y817050D02*
X671700D01*
X619000Y155500D02*
X744000D01*
X619000Y280500D02*
X744000D01*
Y155500D02*
Y187000D01*
X619000Y155500D02*
Y187000D01*
X744000Y249000D02*
Y280500D01*
X619000Y249000D02*
Y280500D01*
X772500Y26000D02*
Y34000D01*
X757500Y26000D02*
Y34000D01*
X941000Y110000D02*
Y162000D01*
X826000Y144000D02*
X837000D01*
X826000D02*
Y153000D01*
X837000D01*
Y162000D02*
X941000D01*
X837000Y58000D02*
Y162000D01*
Y58000D02*
X941000D01*
Y110000D01*
X1232000Y248000D02*
Y258000D01*
X1241000D01*
X1255000D02*
X1264000D01*
Y248000D02*
Y258000D01*
X1203500Y710000D02*
X1213500D01*
X1203500D02*
Y719000D01*
Y733000D02*
Y742000D01*
X1213500D01*
X984500Y602500D02*
X992500D01*
X984500Y617500D02*
X992500D01*
X984500Y627500D02*
X992500D01*
X984500Y642500D02*
X992500D01*
X978400Y700000D02*
Y708000D01*
X968400Y700000D02*
X978400D01*
Y722000D02*
Y730000D01*
X968400D02*
X978400D01*
X1176094Y276500D02*
Y308000D01*
X1051094Y276500D02*
Y308000D01*
X1176094Y370000D02*
Y401500D01*
X1051094Y370000D02*
Y401500D01*
Y276500D02*
X1176094D01*
X1051094Y401500D02*
X1176094D01*
X1347000Y178599D02*
Y329600D01*
Y178599D02*
X1441000D01*
Y329600D01*
X1347000D02*
X1441000D01*
X1125498Y94000D02*
X1346500D01*
X1125498Y0D02*
Y94000D01*
Y0D02*
X1346500D01*
Y94000D01*
X1104000Y666000D02*
Y716000D01*
X1088000Y666000D02*
Y716000D01*
Y666000D02*
X1104000D01*
X1088000Y716000D02*
X1104000D01*
X1171250Y594000D02*
X1181250D01*
Y603000D01*
Y617000D02*
Y626000D01*
X1171250D02*
X1181250D01*
X1201500Y626000D02*
X1211500D01*
X1201500Y617000D02*
Y626000D01*
Y594000D02*
Y603000D01*
Y594000D02*
X1211500D01*
X1030500Y186500D02*
X1040500D01*
Y195500D01*
Y209500D02*
Y218500D01*
X1030500D02*
X1040500D01*
X1264000Y214500D02*
Y224500D01*
X1255000D02*
X1264000D01*
X1232000D02*
X1241000D01*
X1232000Y214500D02*
Y224500D01*
X986000Y321500D02*
X1038000D01*
X1020000Y425500D02*
Y436500D01*
X1029000D01*
Y425500D02*
Y436500D01*
X1038000Y321500D02*
Y425500D01*
X934000D02*
X1038000D01*
X934000Y321500D02*
Y425500D01*
Y321500D02*
X986000D01*
X1218300Y651299D02*
Y701299D01*
X1234300Y651299D02*
Y701299D01*
X1218300D02*
X1234300D01*
X1218300Y651299D02*
X1234300D01*
X1119848Y261026D02*
X1219848D01*
Y201025D02*
Y261026D01*
X1119848Y201025D02*
Y261026D01*
Y201025D02*
X1219848D01*
X1347000Y490500D02*
X1441000D01*
Y339498D02*
Y490500D01*
X1347000Y339498D02*
X1441000D01*
X1347000D02*
Y490500D01*
X328000Y461000D02*
X378000D01*
X328000Y445000D02*
X378000D01*
Y461000D01*
X328000Y445000D02*
Y461000D01*
X288000Y511902D02*
Y611902D01*
X268000Y511902D02*
Y611902D01*
Y511902D02*
X288000D01*
X268000Y611902D02*
X288000D01*
X262500Y685000D02*
Y735000D01*
X278500Y685000D02*
Y735000D01*
X262500D02*
X278500D01*
X262500Y685000D02*
X278500D01*
X343500Y760601D02*
X353500D01*
X343500Y751600D02*
Y760601D01*
Y728601D02*
Y737600D01*
Y728601D02*
X353500D01*
X261498Y676000D02*
X271498D01*
X261498Y667000D02*
Y676000D01*
Y644000D02*
Y653000D01*
Y644000D02*
X271498D01*
X343998Y716000D02*
X353998D01*
X343998Y707000D02*
Y716000D01*
Y684000D02*
Y693000D01*
Y684000D02*
X353998D01*
X459050Y874204D02*
X611450D01*
X459050Y848804D02*
Y874204D01*
Y848804D02*
X611450D01*
Y874204D01*
X272998Y848300D02*
Y873700D01*
X171398Y848300D02*
X272998D01*
X171398Y873700D02*
X272998D01*
X171398Y848300D02*
Y873700D01*
X312800Y350600D02*
Y401400D01*
Y350600D02*
X338200D01*
Y401400D01*
X312800D02*
X338200D01*
X780500Y26000D02*
Y34000D01*
X795500Y26000D02*
Y34000D01*
X93750Y489500D02*
Y640502D01*
X-250D02*
X93750D01*
X-250Y489500D02*
Y640502D01*
Y489500D02*
X93750D01*
X-0Y304500D02*
X94000D01*
X-0D02*
Y455502D01*
X94000D01*
Y304500D02*
Y455502D01*
X94000Y694101D02*
Y814101D01*
X-1000D02*
X94000D01*
X-1000Y694101D02*
Y814101D01*
Y694101D02*
X94000D01*
X-200Y80000D02*
X90800D01*
X-200Y283600D02*
X90800D01*
Y80000D02*
Y283600D01*
X-200Y80000D02*
Y283600D01*
X281202Y848300D02*
Y873700D01*
X382802D01*
X281202Y848300D02*
X382802D01*
Y873700D01*
X513497Y331648D02*
X520353D01*
X516925Y328220D02*
Y335076D01*
X513878Y337437D02*
X513497Y338199D01*
X512355Y339341D01*
X520353D01*
X514259Y343683D02*
X513878D01*
X513116Y344064D01*
X512736Y344445D01*
X512355Y345207D01*
Y346730D01*
X512736Y347492D01*
X513116Y347873D01*
X513878Y348254D01*
X514640D01*
X515402Y347873D01*
X516544Y347111D01*
X520353Y343302D01*
Y348635D01*
X512355Y350425D02*
X520353Y353472D01*
X512355Y356519D02*
X520353Y353472D01*
X514144Y384428D02*
X521000D01*
X517572Y381000D02*
Y387856D01*
X513002Y394787D02*
Y390979D01*
X516429Y390598D01*
X516049Y390979D01*
X515668Y392121D01*
Y393264D01*
X516049Y394407D01*
X516810Y395168D01*
X517953Y395549D01*
X518715D01*
X519857Y395168D01*
X520619Y394407D01*
X521000Y393264D01*
Y392121D01*
X520619Y390979D01*
X520238Y390598D01*
X519477Y390217D01*
X513002Y397339D02*
X521000Y400386D01*
X513002Y403433D02*
X521000Y400386D01*
X513497Y429840D02*
X520353D01*
X516925Y426412D02*
Y433268D01*
X512355Y436391D02*
Y440580D01*
X515402Y438295D01*
Y439438D01*
X515783Y440199D01*
X516163Y440580D01*
X517306Y440961D01*
X518068D01*
X519210Y440580D01*
X519972Y439818D01*
X520353Y438676D01*
Y437533D01*
X519972Y436391D01*
X519591Y436010D01*
X518830Y435629D01*
X519591Y443132D02*
X519972Y442751D01*
X520353Y443132D01*
X519972Y443513D01*
X519591Y443132D01*
X512355Y446027D02*
Y450216D01*
X515402Y447931D01*
Y449074D01*
X515783Y449835D01*
X516163Y450216D01*
X517306Y450597D01*
X518068D01*
X519210Y450216D01*
X519972Y449454D01*
X520353Y448312D01*
Y447169D01*
X519972Y446027D01*
X519591Y445646D01*
X518830Y445265D01*
X512355Y452387D02*
X520353Y455434D01*
X512355Y458481D02*
X520353Y455434D01*
X514906Y490116D02*
X514144Y489735D01*
X513383Y488974D01*
X513002Y488212D01*
Y486689D01*
X513383Y485927D01*
X514144Y485165D01*
X514906Y484784D01*
X516049Y484403D01*
X517953D01*
X519096Y484784D01*
X519857Y485165D01*
X520619Y485927D01*
X521000Y486689D01*
Y488212D01*
X520619Y488974D01*
X519857Y489735D01*
X519096Y490116D01*
X517953D01*
Y488212D02*
Y490116D01*
X513002Y491945D02*
X521000D01*
X513002D02*
X521000Y497277D01*
X513002D02*
X521000D01*
X513002Y499486D02*
X521000D01*
X513002D02*
Y502152D01*
X513383Y503295D01*
X514144Y504056D01*
X514906Y504437D01*
X516049Y504818D01*
X517953D01*
X519096Y504437D01*
X519857Y504056D01*
X520619Y503295D01*
X521000Y502152D01*
Y499486D01*
X151320Y65645D02*
Y57647D01*
Y65645D02*
X154748D01*
X155890Y65264D01*
X156271Y64883D01*
X156652Y64122D01*
Y63360D01*
X156271Y62598D01*
X155890Y62217D01*
X154748Y61837D01*
X151320D01*
X153986D02*
X156652Y57647D01*
X163394Y65645D02*
X158442D01*
Y57647D01*
X163394D01*
X158442Y61837D02*
X161489D01*
X164727Y65645D02*
X167774Y57647D01*
X170821Y65645D02*
X167774Y57647D01*
X178133Y65645D02*
Y57647D01*
Y65645D02*
X181561D01*
X182704Y65264D01*
X183085Y64883D01*
X183465Y64122D01*
Y63360D01*
X183085Y62598D01*
X182704Y62217D01*
X181561Y61837D01*
X178133D02*
X181561D01*
X182704Y61456D01*
X183085Y61075D01*
X183465Y60313D01*
Y59170D01*
X183085Y58409D01*
X182704Y58028D01*
X181561Y57647D01*
X178133D01*
X151000Y859998D02*
Y852000D01*
X153057Y858094D02*
Y858475D01*
X153438Y859237D01*
X153819Y859617D01*
X154580Y859998D01*
X156104D01*
X156865Y859617D01*
X157246Y859237D01*
X157627Y858475D01*
Y857713D01*
X157246Y856951D01*
X156484Y855809D01*
X152676Y852000D01*
X158008D01*
X165511Y858094D02*
X165130Y858856D01*
X164369Y859617D01*
X163607Y859998D01*
X162083D01*
X161322Y859617D01*
X160560Y858856D01*
X160179Y858094D01*
X159798Y856951D01*
Y855047D01*
X160179Y853904D01*
X160560Y853143D01*
X161322Y852381D01*
X162083Y852000D01*
X163607D01*
X164369Y852381D01*
X165130Y853143D01*
X165511Y853904D01*
X170942Y886838D02*
X175131D01*
X172846Y883791D01*
X173989D01*
X174750Y883410D01*
X175131Y883030D01*
X175512Y881887D01*
Y881125D01*
X175131Y879983D01*
X174370Y879221D01*
X173227Y878840D01*
X172084D01*
X170942Y879221D01*
X170561Y879602D01*
X170180Y880363D01*
X177683Y879602D02*
X177302Y879221D01*
X177683Y878840D01*
X178064Y879221D01*
X177683Y879602D01*
X180578Y886838D02*
X184767D01*
X182482Y883791D01*
X183625D01*
X184387Y883410D01*
X184767Y883030D01*
X185148Y881887D01*
Y881125D01*
X184767Y879983D01*
X184006Y879221D01*
X182863Y878840D01*
X181720D01*
X180578Y879221D01*
X180197Y879602D01*
X179816Y880363D01*
X186938Y886838D02*
X189985Y878840D01*
X193032Y886838D02*
X189985Y878840D01*
X204722Y886069D02*
X203960Y886831D01*
X202818Y887212D01*
X201294D01*
X200152Y886831D01*
X199390Y886069D01*
Y885307D01*
X199771Y884545D01*
X200152Y884165D01*
X200914Y883784D01*
X203199Y883022D01*
X203960Y882641D01*
X204341Y882260D01*
X204722Y881498D01*
Y880356D01*
X203960Y879594D01*
X202818Y879213D01*
X201294D01*
X200152Y879594D01*
X199390Y880356D01*
X206512Y887212D02*
Y879213D01*
Y887212D02*
X209178D01*
X210321Y886831D01*
X211083Y886069D01*
X211464Y885307D01*
X211845Y884165D01*
Y882260D01*
X211464Y881118D01*
X211083Y880356D01*
X210321Y879594D01*
X209178Y879213D01*
X206512D01*
X219729D02*
X216681Y887212D01*
X213635Y879213D01*
X214777Y881879D02*
X218586D01*
X230531Y886069D02*
X229769Y886831D01*
X228626Y887212D01*
X227103D01*
X225960Y886831D01*
X225198Y886069D01*
Y885307D01*
X225579Y884545D01*
X225960Y884165D01*
X226722Y883784D01*
X229007Y883022D01*
X229769Y882641D01*
X230150Y882260D01*
X230531Y881498D01*
Y880356D01*
X229769Y879594D01*
X228626Y879213D01*
X227103D01*
X225960Y879594D01*
X225198Y880356D01*
X238034Y885307D02*
X237653Y886069D01*
X236891Y886831D01*
X236129Y887212D01*
X234606D01*
X233844Y886831D01*
X233083Y886069D01*
X232702Y885307D01*
X232321Y884165D01*
Y882260D01*
X232702Y881118D01*
X233083Y880356D01*
X233844Y879594D01*
X234606Y879213D01*
X236129D01*
X236891Y879594D01*
X237653Y880356D01*
X238034Y881118D01*
X240281Y887212D02*
Y879213D01*
X244851D01*
X255712Y885307D02*
X255331Y886069D01*
X254569Y886831D01*
X253807Y887212D01*
X252284D01*
X251522Y886831D01*
X250760Y886069D01*
X250379Y885307D01*
X249999Y884165D01*
Y882260D01*
X250379Y881118D01*
X250760Y880356D01*
X251522Y879594D01*
X252284Y879213D01*
X253807D01*
X254569Y879594D01*
X255331Y880356D01*
X255712Y881118D01*
Y882260D01*
X253807D02*
X255712D01*
X257540Y887212D02*
Y879213D01*
Y887212D02*
X262872Y879213D01*
Y887212D02*
Y879213D01*
X265081Y887212D02*
Y879213D01*
Y887212D02*
X267747D01*
X268890Y886831D01*
X269652Y886069D01*
X270032Y885307D01*
X270413Y884165D01*
Y882260D01*
X270032Y881118D01*
X269652Y880356D01*
X268890Y879594D01*
X267747Y879213D01*
X265081D01*
X598779Y827856D02*
X598017Y828617D01*
X596875Y828998D01*
X595351D01*
X594208Y828617D01*
X593447Y827856D01*
Y827094D01*
X593828Y826332D01*
X594208Y825951D01*
X594970Y825571D01*
X597256Y824809D01*
X598017Y824428D01*
X598398Y824047D01*
X598779Y823285D01*
Y822143D01*
X598017Y821381D01*
X596875Y821000D01*
X595351D01*
X594208Y821381D01*
X593447Y822143D01*
X600569Y824809D02*
X603997D01*
X605140Y825190D01*
X605520Y825571D01*
X605901Y826332D01*
Y827475D01*
X605520Y828237D01*
X605140Y828617D01*
X603997Y828998D01*
X600569D01*
Y821000D01*
X607691Y828998D02*
Y821000D01*
X573760Y884094D02*
X573379Y884856D01*
X572617Y885617D01*
X571856Y885998D01*
X570332D01*
X569570Y885617D01*
X568809Y884856D01*
X568428Y884094D01*
X568047Y882951D01*
Y881047D01*
X568428Y879904D01*
X568809Y879143D01*
X569570Y878381D01*
X570332Y878000D01*
X571856D01*
X572617Y878381D01*
X573379Y879143D01*
X573760Y879904D01*
X581339Y884856D02*
X580577Y885617D01*
X579435Y885998D01*
X577911D01*
X576769Y885617D01*
X576007Y884856D01*
Y884094D01*
X576388Y883332D01*
X576769Y882951D01*
X577531Y882570D01*
X579816Y881809D01*
X580577Y881428D01*
X580958Y881047D01*
X581339Y880285D01*
Y879143D01*
X580577Y878381D01*
X579435Y878000D01*
X577911D01*
X576769Y878381D01*
X576007Y879143D01*
X483000Y885998D02*
Y878000D01*
Y885998D02*
X486047Y878000D01*
X489094Y885998D02*
X486047Y878000D01*
X489094Y885998D02*
Y878000D01*
X491379Y885998D02*
Y878000D01*
X498387Y884856D02*
X497625Y885617D01*
X496483Y885998D01*
X494959D01*
X493817Y885617D01*
X493055Y884856D01*
Y884094D01*
X493436Y883332D01*
X493817Y882951D01*
X494579Y882570D01*
X496864Y881809D01*
X497625Y881428D01*
X498006Y881047D01*
X498387Y880285D01*
Y879143D01*
X497625Y878381D01*
X496483Y878000D01*
X494959D01*
X493817Y878381D01*
X493055Y879143D01*
X502463Y885998D02*
X501701Y885617D01*
X500939Y884856D01*
X500558Y884094D01*
X500177Y882951D01*
Y881047D01*
X500558Y879904D01*
X500939Y879143D01*
X501701Y878381D01*
X502463Y878000D01*
X503986D01*
X504748Y878381D01*
X505509Y879143D01*
X505890Y879904D01*
X506271Y881047D01*
Y882951D01*
X505890Y884094D01*
X505509Y884856D01*
X504748Y885617D01*
X503986Y885998D01*
X502463D01*
X511000D02*
Y878000D01*
Y885998D02*
X514047Y878000D01*
X517094Y885998D02*
X514047Y878000D01*
X517094Y885998D02*
Y878000D01*
X521664Y885998D02*
X520903Y885617D01*
X520141Y884856D01*
X519760Y884094D01*
X519379Y882951D01*
Y881047D01*
X519760Y879904D01*
X520141Y879143D01*
X520903Y878381D01*
X521664Y878000D01*
X523188D01*
X523950Y878381D01*
X524711Y879143D01*
X525092Y879904D01*
X525473Y881047D01*
Y882951D01*
X525092Y884094D01*
X524711Y884856D01*
X523950Y885617D01*
X523188Y885998D01*
X521664D01*
X532672Y884856D02*
X531910Y885617D01*
X530767Y885998D01*
X529244D01*
X528101Y885617D01*
X527339Y884856D01*
Y884094D01*
X527720Y883332D01*
X528101Y882951D01*
X528863Y882570D01*
X531148Y881809D01*
X531910Y881428D01*
X532291Y881047D01*
X532672Y880285D01*
Y879143D01*
X531910Y878381D01*
X530767Y878000D01*
X529244D01*
X528101Y878381D01*
X527339Y879143D01*
X534462Y885998D02*
Y878000D01*
X545782Y884856D02*
X545020Y885617D01*
X543878Y885998D01*
X542354D01*
X541212Y885617D01*
X540450Y884856D01*
Y884094D01*
X540831Y883332D01*
X541212Y882951D01*
X541974Y882570D01*
X544259Y881809D01*
X545020Y881428D01*
X545401Y881047D01*
X545782Y880285D01*
Y879143D01*
X545020Y878381D01*
X543878Y878000D01*
X542354D01*
X541212Y878381D01*
X540450Y879143D01*
X553285Y884094D02*
X552905Y884856D01*
X552143Y885617D01*
X551381Y885998D01*
X549858D01*
X549096Y885617D01*
X548334Y884856D01*
X547953Y884094D01*
X547572Y882951D01*
Y881047D01*
X547953Y879904D01*
X548334Y879143D01*
X549096Y878381D01*
X549858Y878000D01*
X551381D01*
X552143Y878381D01*
X552905Y879143D01*
X553285Y879904D01*
X555533Y885998D02*
Y878000D01*
X560865Y885998D02*
X555533Y880666D01*
X557437Y882570D02*
X560865Y878000D01*
X597533Y884094D02*
X597152Y884856D01*
X596390Y885617D01*
X595629Y885998D01*
X594105D01*
X593344Y885617D01*
X592582Y884856D01*
X592201Y884094D01*
X591820Y882951D01*
Y881047D01*
X592201Y879904D01*
X592582Y879143D01*
X593344Y878381D01*
X594105Y878000D01*
X595629D01*
X596390Y878381D01*
X597152Y879143D01*
X597533Y879904D01*
Y881047D01*
X595629D02*
X597533D01*
X599361Y885998D02*
Y878000D01*
Y885998D02*
X604693Y878000D01*
Y885998D02*
Y878000D01*
X606903Y885998D02*
Y878000D01*
Y885998D02*
X609569D01*
X610711Y885617D01*
X611473Y884856D01*
X611854Y884094D01*
X612235Y882951D01*
Y881047D01*
X611854Y879904D01*
X611473Y879143D01*
X610711Y878381D01*
X609569Y878000D01*
X606903D01*
X455762Y885998D02*
X459951D01*
X457666Y882951D01*
X458809D01*
X459571Y882570D01*
X459951Y882190D01*
X460332Y881047D01*
Y880285D01*
X459951Y879143D01*
X459190Y878381D01*
X458047Y878000D01*
X456904D01*
X455762Y878381D01*
X455381Y878762D01*
X455000Y879523D01*
X462503Y878762D02*
X462122Y878381D01*
X462503Y878000D01*
X462884Y878381D01*
X462503Y878762D01*
X465398Y885998D02*
X469587D01*
X467302Y882951D01*
X468445D01*
X469207Y882570D01*
X469587Y882190D01*
X469968Y881047D01*
Y880285D01*
X469587Y879143D01*
X468826Y878381D01*
X467683Y878000D01*
X466540D01*
X465398Y878381D01*
X465017Y878762D01*
X464636Y879523D01*
X471758Y885998D02*
X474805Y878000D01*
X477852Y885998D02*
X474805Y878000D01*
X936191Y776000D02*
Y779428D01*
X935810Y780570D01*
X935430Y780951D01*
X934668Y781332D01*
X933525D01*
X932763Y780951D01*
X932383Y780570D01*
X932002Y779428D01*
Y776000D01*
X940000D01*
X932002Y783122D02*
X940000Y785027D01*
X932002Y786931D02*
X940000Y785027D01*
X932002Y786931D02*
X940000Y788835D01*
X932002Y790740D02*
X940000Y788835D01*
X932002Y792339D02*
X940000D01*
X932002D02*
Y795767D01*
X932383Y796910D01*
X932763Y797291D01*
X933525Y797672D01*
X934287D01*
X935049Y797291D01*
X935430Y796910D01*
X935810Y795767D01*
Y792339D01*
Y795005D02*
X940000Y797672D01*
X932002Y805746D02*
X940000D01*
X932002Y807422D02*
X940000D01*
X932002D02*
X940000Y812754D01*
X932002D02*
X940000D01*
X1045002Y798500D02*
X1053000D01*
X1045002D02*
Y801928D01*
X1045383Y803071D01*
X1045763Y803452D01*
X1046525Y803832D01*
X1047287D01*
X1048049Y803452D01*
X1048430Y803071D01*
X1048810Y801928D01*
Y798500D02*
Y801928D01*
X1049191Y803071D01*
X1049572Y803452D01*
X1050334Y803832D01*
X1051477D01*
X1052238Y803452D01*
X1052619Y803071D01*
X1053000Y801928D01*
Y798500D01*
Y811716D02*
X1045002Y808669D01*
X1053000Y805622D01*
X1050334Y806765D02*
Y810574D01*
X1045002Y816249D02*
X1053000D01*
X1045002Y813583D02*
Y818915D01*
Y822533D02*
X1053000D01*
X1045002Y819867D02*
Y825199D01*
Y831103D02*
Y826151D01*
X1053000D01*
Y831103D01*
X1048810Y826151D02*
Y829198D01*
X1045002Y832436D02*
X1053000D01*
X1045002D02*
Y835864D01*
X1045383Y837006D01*
X1045763Y837387D01*
X1046525Y837768D01*
X1047287D01*
X1048049Y837387D01*
X1048430Y837006D01*
X1048810Y835864D01*
Y832436D01*
Y835102D02*
X1053000Y837768D01*
X1045002Y839558D02*
X1048810Y842605D01*
X1053000D01*
X1045002Y845652D02*
X1048810Y842605D01*
X1157750Y800000D02*
X1165748D01*
Y804570D01*
X1157750Y807732D02*
X1158131Y806970D01*
X1158893Y806208D01*
X1159654Y805827D01*
X1160797Y805446D01*
X1162701D01*
X1163844Y805827D01*
X1164606Y806208D01*
X1165367Y806970D01*
X1165748Y807732D01*
Y809255D01*
X1165367Y810017D01*
X1164606Y810779D01*
X1163844Y811160D01*
X1162701Y811540D01*
X1160797D01*
X1159654Y811160D01*
X1158893Y810779D01*
X1158131Y810017D01*
X1157750Y809255D01*
Y807732D01*
X1165748Y819501D02*
X1157750Y816454D01*
X1165748Y813407D01*
X1163082Y814549D02*
Y818358D01*
X1157750Y821367D02*
X1165748D01*
X1157750D02*
Y824033D01*
X1158131Y825176D01*
X1158893Y825937D01*
X1159654Y826318D01*
X1160797Y826699D01*
X1162701D01*
X1163844Y826318D01*
X1164606Y825937D01*
X1165367Y825176D01*
X1165748Y824033D01*
Y821367D01*
X1117428Y792856D02*
Y786000D01*
X1114000Y789428D02*
X1120856D01*
X966000D02*
X972856D01*
X1077000D02*
X1083856D01*
X1227728Y792856D02*
Y786000D01*
X1224300Y789428D02*
X1231156D01*
X1194562Y788319D02*
X1187706D01*
X1002572Y784892D02*
Y791747D01*
X1006000Y788319D02*
X999144D01*
X1318144Y834428D02*
X1325000D01*
X1321572Y831000D02*
Y837856D01*
X1318525Y840217D02*
X1318144Y840979D01*
X1317002Y842121D01*
X1325000D01*
X1317002Y846844D02*
Y851034D01*
X1320049Y848749D01*
Y849891D01*
X1320430Y850653D01*
X1320810Y851034D01*
X1321953Y851415D01*
X1322715D01*
X1323857Y851034D01*
X1324619Y850272D01*
X1325000Y849129D01*
Y847987D01*
X1324619Y846844D01*
X1324238Y846463D01*
X1323477Y846083D01*
X1317002Y853205D02*
X1325000Y856252D01*
X1317002Y859299D02*
X1325000Y856252D01*
X1350906Y843713D02*
X1350144Y843332D01*
X1349383Y842570D01*
X1349002Y841809D01*
Y840285D01*
X1349383Y839523D01*
X1350144Y838762D01*
X1350906Y838381D01*
X1352049Y838000D01*
X1353953D01*
X1355096Y838381D01*
X1355857Y838762D01*
X1356619Y839523D01*
X1357000Y840285D01*
Y841809D01*
X1356619Y842570D01*
X1355857Y843332D01*
X1355096Y843713D01*
X1353953D01*
Y841809D02*
Y843713D01*
X1349002Y845541D02*
X1357000D01*
X1349002D02*
X1357000Y850873D01*
X1349002D02*
X1357000D01*
X1349002Y853083D02*
X1357000D01*
X1349002D02*
Y855749D01*
X1349383Y856891D01*
X1350144Y857653D01*
X1350906Y858034D01*
X1352049Y858415D01*
X1353953D01*
X1355096Y858034D01*
X1355857Y857653D01*
X1356619Y856891D01*
X1357000Y855749D01*
Y853083D01*
X1359157Y817999D02*
Y810000D01*
Y817999D02*
X1362204Y810000D01*
X1365251Y817999D02*
X1362204Y810000D01*
X1365251Y817999D02*
Y810000D01*
X1369821Y817999D02*
X1369059Y817618D01*
X1368298Y816856D01*
X1367917Y816094D01*
X1367536Y814951D01*
Y813047D01*
X1367917Y811905D01*
X1368298Y811143D01*
X1369059Y810381D01*
X1369821Y810000D01*
X1371345D01*
X1372106Y810381D01*
X1372868Y811143D01*
X1373249Y811905D01*
X1373630Y813047D01*
Y814951D01*
X1373249Y816094D01*
X1372868Y816856D01*
X1372106Y817618D01*
X1371345Y817999D01*
X1369821D01*
X1375496D02*
Y810000D01*
Y817999D02*
X1378162D01*
X1379305Y817618D01*
X1380067Y816856D01*
X1380447Y816094D01*
X1380828Y814951D01*
Y813047D01*
X1380447Y811905D01*
X1380067Y811143D01*
X1379305Y810381D01*
X1378162Y810000D01*
X1375496D01*
X1387570Y817999D02*
X1382618D01*
Y810000D01*
X1387570D01*
X1382618Y814190D02*
X1385665D01*
X1388903Y817999D02*
Y810000D01*
Y817999D02*
X1391950Y810000D01*
X1394997Y817999D02*
X1391950Y810000D01*
X1394997Y817999D02*
Y810000D01*
X1335144Y749428D02*
X1342000D01*
X1338572Y746000D02*
Y752856D01*
X1339572Y783802D02*
Y790658D01*
X1335144Y630928D02*
X1342000D01*
X1338572Y627500D02*
Y634356D01*
X1339572Y663000D02*
Y669856D01*
X1363094Y691000D02*
X1360047Y698998D01*
X1357000Y691000D01*
X1358143Y693666D02*
X1361951D01*
X1364960Y698998D02*
Y693285D01*
X1365341Y692143D01*
X1366103Y691381D01*
X1367245Y691000D01*
X1368007D01*
X1369150Y691381D01*
X1369911Y692143D01*
X1370292Y693285D01*
Y698998D01*
X1372502D02*
X1377834Y691000D01*
Y698998D02*
X1372502Y691000D01*
X1389336Y697856D02*
Y691000D01*
X1385908Y694428D02*
X1392764D01*
X1399696Y698998D02*
X1395887D01*
X1395506Y695570D01*
X1395887Y695951D01*
X1397030Y696332D01*
X1398172D01*
X1399315Y695951D01*
X1400076Y695190D01*
X1400457Y694047D01*
Y693285D01*
X1400076Y692143D01*
X1399315Y691381D01*
X1398172Y691000D01*
X1397030D01*
X1395887Y691381D01*
X1395506Y691762D01*
X1395125Y692523D01*
X1402247Y698998D02*
X1405294Y691000D01*
X1408341Y698998D02*
X1405294Y691000D01*
X1341000Y234562D02*
X1333002Y231515D01*
X1341000Y228468D01*
X1338334Y229611D02*
Y233419D01*
X1333002Y236428D02*
X1338715D01*
X1339857Y236809D01*
X1340619Y237571D01*
X1341000Y238713D01*
Y239475D01*
X1340619Y240618D01*
X1339857Y241380D01*
X1338715Y241760D01*
X1333002D01*
Y243969D02*
X1341000Y249302D01*
X1333002D02*
X1341000Y243969D01*
X1334144Y260804D02*
X1341000D01*
X1337572Y257376D02*
Y264232D01*
X1334525Y266593D02*
X1334144Y267355D01*
X1333002Y268498D01*
X1341000D01*
X1334906Y272840D02*
X1334525D01*
X1333763Y273220D01*
X1333383Y273601D01*
X1333002Y274363D01*
Y275886D01*
X1333383Y276648D01*
X1333763Y277029D01*
X1334525Y277410D01*
X1335287D01*
X1336049Y277029D01*
X1337191Y276267D01*
X1341000Y272459D01*
Y277791D01*
X1333002Y279581D02*
X1341000Y282628D01*
X1333002Y285675D02*
X1341000Y282628D01*
Y395462D02*
X1333002Y392415D01*
X1341000Y389367D01*
X1338334Y390510D02*
Y394319D01*
X1333002Y397328D02*
X1338715D01*
X1339857Y397709D01*
X1340619Y398470D01*
X1341000Y399613D01*
Y400375D01*
X1340619Y401517D01*
X1339857Y402279D01*
X1338715Y402660D01*
X1333002D01*
Y404869D02*
X1341000Y410201D01*
X1333002D02*
X1341000Y404869D01*
X1334906Y423989D02*
X1334144Y423608D01*
X1333383Y422846D01*
X1333002Y422084D01*
Y420561D01*
X1333383Y419799D01*
X1334144Y419037D01*
X1334906Y418657D01*
X1336049Y418276D01*
X1337953D01*
X1339096Y418657D01*
X1339857Y419037D01*
X1340619Y419799D01*
X1341000Y420561D01*
Y422084D01*
X1340619Y422846D01*
X1339857Y423608D01*
X1339096Y423989D01*
X1337953D01*
Y422084D02*
Y423989D01*
X1333002Y425817D02*
X1341000D01*
X1333002D02*
X1341000Y431149D01*
X1333002D02*
X1341000D01*
X1333002Y433358D02*
X1341000D01*
X1333002D02*
Y436024D01*
X1333383Y437167D01*
X1334144Y437929D01*
X1334906Y438310D01*
X1336049Y438690D01*
X1337953D01*
X1339096Y438310D01*
X1339857Y437929D01*
X1340619Y437167D01*
X1341000Y436024D01*
Y433358D01*
X1220951Y136998D02*
X1216000D01*
Y129000D01*
X1220951D01*
X1216000Y133190D02*
X1219047D01*
X1222284Y136998D02*
X1227617Y129000D01*
Y136998D02*
X1222284Y129000D01*
X1232073Y136998D02*
Y129000D01*
X1229407Y136998D02*
X1234739D01*
X1247308Y135856D02*
X1246546Y136617D01*
X1245403Y136998D01*
X1243880D01*
X1242737Y136617D01*
X1241975Y135856D01*
Y135094D01*
X1242356Y134332D01*
X1242737Y133951D01*
X1243499Y133570D01*
X1245784Y132809D01*
X1246546Y132428D01*
X1246927Y132047D01*
X1247308Y131285D01*
Y130143D01*
X1246546Y129381D01*
X1245403Y129000D01*
X1243880D01*
X1242737Y129381D01*
X1241975Y130143D01*
X1249098Y136998D02*
Y129000D01*
X1250773Y136998D02*
Y129000D01*
Y136998D02*
X1254201D01*
X1255344Y136617D01*
X1255725Y136237D01*
X1256106Y135475D01*
Y134713D01*
X1255725Y133951D01*
X1255344Y133570D01*
X1254201Y133190D01*
X1250773D01*
X1253440D02*
X1256106Y129000D01*
X1007718Y129998D02*
Y122000D01*
X1009393Y129998D02*
Y122000D01*
Y129998D02*
X1014725Y122000D01*
Y129998D02*
Y122000D01*
X1019601Y129998D02*
Y122000D01*
X1016935Y129998D02*
X1022267D01*
X1034836Y128856D02*
X1034074Y129617D01*
X1032931Y129998D01*
X1031408D01*
X1030265Y129617D01*
X1029503Y128856D01*
Y128094D01*
X1029884Y127332D01*
X1030265Y126951D01*
X1031027Y126571D01*
X1033312Y125809D01*
X1034074Y125428D01*
X1034455Y125047D01*
X1034836Y124285D01*
Y123143D01*
X1034074Y122381D01*
X1032931Y122000D01*
X1031408D01*
X1030265Y122381D01*
X1029503Y123143D01*
X1036626Y129998D02*
Y122000D01*
X1038301Y129998D02*
Y122000D01*
Y129998D02*
X1041729D01*
X1042872Y129617D01*
X1043253Y129237D01*
X1043634Y128475D01*
Y127713D01*
X1043253Y126951D01*
X1042872Y126571D01*
X1041729Y126190D01*
X1038301D01*
X1040967D02*
X1043634Y122000D01*
X1144144Y104428D02*
X1151000D01*
X1147572Y101000D02*
Y107856D01*
X1144525Y110217D02*
X1144144Y110979D01*
X1143002Y112121D01*
X1151000D01*
X1144906Y116463D02*
X1144525D01*
X1143763Y116844D01*
X1143383Y117225D01*
X1143002Y117987D01*
Y119510D01*
X1143383Y120272D01*
X1143763Y120653D01*
X1144525Y121034D01*
X1145287D01*
X1146049Y120653D01*
X1147191Y119891D01*
X1151000Y116082D01*
Y121415D01*
X1143002Y123205D02*
X1151000Y126252D01*
X1143002Y129299D02*
X1151000Y126252D01*
X1285906Y106713D02*
X1285144Y106332D01*
X1284383Y105570D01*
X1284002Y104809D01*
Y103285D01*
X1284383Y102523D01*
X1285144Y101762D01*
X1285906Y101381D01*
X1287049Y101000D01*
X1288953D01*
X1290096Y101381D01*
X1290857Y101762D01*
X1291619Y102523D01*
X1292000Y103285D01*
Y104809D01*
X1291619Y105570D01*
X1290857Y106332D01*
X1290096Y106713D01*
X1288953D01*
Y104809D02*
Y106713D01*
X1284002Y108541D02*
X1292000D01*
X1284002D02*
X1292000Y113874D01*
X1284002D02*
X1292000D01*
X1284002Y116082D02*
X1292000D01*
X1284002D02*
Y118749D01*
X1284383Y119891D01*
X1285144Y120653D01*
X1285906Y121034D01*
X1287049Y121415D01*
X1288953D01*
X1290096Y121034D01*
X1290857Y120653D01*
X1291619Y119891D01*
X1292000Y118749D01*
Y116082D01*
X1180002Y103000D02*
X1188000D01*
X1180002D02*
X1188000Y108332D01*
X1180002D02*
X1188000D01*
X1180002Y112826D02*
X1180383Y112065D01*
X1181144Y111303D01*
X1181906Y110922D01*
X1183049Y110541D01*
X1184953D01*
X1186096Y110922D01*
X1186857Y111303D01*
X1187619Y112065D01*
X1188000Y112826D01*
Y114350D01*
X1187619Y115112D01*
X1186857Y115873D01*
X1186096Y116254D01*
X1184953Y116635D01*
X1183049D01*
X1181906Y116254D01*
X1181144Y115873D01*
X1180383Y115112D01*
X1180002Y114350D01*
Y112826D01*
X1215906Y106713D02*
X1215144Y106332D01*
X1214383Y105570D01*
X1214002Y104809D01*
Y103285D01*
X1214383Y102523D01*
X1215144Y101762D01*
X1215906Y101381D01*
X1217049Y101000D01*
X1218953D01*
X1220096Y101381D01*
X1220857Y101762D01*
X1221619Y102523D01*
X1222000Y103285D01*
Y104809D01*
X1221619Y105570D01*
X1220857Y106332D01*
X1220096Y106713D01*
X1214002Y111245D02*
X1214383Y110484D01*
X1215144Y109722D01*
X1215906Y109341D01*
X1217049Y108960D01*
X1218953D01*
X1220096Y109341D01*
X1220857Y109722D01*
X1221619Y110484D01*
X1222000Y111245D01*
Y112769D01*
X1221619Y113531D01*
X1220857Y114292D01*
X1220096Y114673D01*
X1218953Y115054D01*
X1217049D01*
X1215906Y114673D01*
X1215144Y114292D01*
X1214383Y113531D01*
X1214002Y112769D01*
Y111245D01*
Y116920D02*
X1222000D01*
X1214002D02*
X1222000Y119967D01*
X1214002Y123014D02*
X1222000Y119967D01*
X1214002Y123014D02*
X1222000D01*
X1248421Y101000D02*
X1256419D01*
X1248421D02*
X1256419Y106332D01*
X1248421D02*
X1256419D01*
X1250325Y114254D02*
X1249563Y113874D01*
X1248802Y113112D01*
X1248421Y112350D01*
Y110827D01*
X1248802Y110065D01*
X1249563Y109303D01*
X1250325Y108922D01*
X1251468Y108541D01*
X1253372D01*
X1254515Y108922D01*
X1255276Y109303D01*
X1256038Y110065D01*
X1256419Y110827D01*
Y112350D01*
X1256038Y113112D01*
X1255276Y113874D01*
X1254515Y114254D01*
X1009572Y100144D02*
Y107000D01*
X1013000Y103572D02*
X1006144D01*
X1047000Y102572D02*
X1040144D01*
X367332Y827856D02*
X366571Y828617D01*
X365428Y828998D01*
X363904D01*
X362762Y828617D01*
X362000Y827856D01*
Y827094D01*
X362381Y826332D01*
X362762Y825951D01*
X363523Y825571D01*
X365809Y824809D01*
X366571Y824428D01*
X366951Y824047D01*
X367332Y823285D01*
Y822143D01*
X366571Y821381D01*
X365428Y821000D01*
X363904D01*
X362762Y821381D01*
X362000Y822143D01*
X374074Y828998D02*
X369122D01*
Y821000D01*
X374074D01*
X369122Y825190D02*
X372169D01*
X375407Y828998D02*
Y821000D01*
Y828998D02*
X378834D01*
X379977Y828617D01*
X380358Y828237D01*
X380739Y827475D01*
Y826713D01*
X380358Y825951D01*
X379977Y825571D01*
X378834Y825190D01*
X375407D01*
X378073D02*
X380739Y821000D01*
X382529Y828998D02*
Y821000D01*
X390299D02*
X387252Y828998D01*
X384205Y821000D01*
X385347Y823666D02*
X389156D01*
X392165Y828998D02*
Y821000D01*
X396735D01*
X280762Y887212D02*
X284951D01*
X282666Y884165D01*
X283809D01*
X284570Y883784D01*
X284951Y883403D01*
X285332Y882260D01*
Y881498D01*
X284951Y880356D01*
X284190Y879594D01*
X283047Y879213D01*
X281904D01*
X280762Y879594D01*
X280381Y879975D01*
X280000Y880737D01*
X287503Y879975D02*
X287122Y879594D01*
X287503Y879213D01*
X287884Y879594D01*
X287503Y879975D01*
X290398Y887212D02*
X294587D01*
X292302Y884165D01*
X293445D01*
X294207Y883784D01*
X294587Y883403D01*
X294968Y882260D01*
Y881498D01*
X294587Y880356D01*
X293826Y879594D01*
X292683Y879213D01*
X291540D01*
X290398Y879594D01*
X290017Y879975D01*
X289636Y880737D01*
X296758Y887212D02*
X299805Y879213D01*
X302852Y887212D02*
X299805Y879213D01*
X311802Y887212D02*
Y879213D01*
Y887212D02*
X315230D01*
X316372Y886831D01*
X316753Y886450D01*
X317134Y885688D01*
Y884926D01*
X316753Y884165D01*
X316372Y883784D01*
X315230Y883403D01*
X311802D01*
X314468D02*
X317134Y879213D01*
X318924Y887212D02*
X324256Y879213D01*
Y887212D02*
X318924Y879213D01*
X339868Y887212D02*
Y879213D01*
X337202Y887212D02*
X342534D01*
X343486D02*
X348818Y879213D01*
Y887212D02*
X343486Y879213D01*
X365713Y885307D02*
X365332Y886069D01*
X364570Y886831D01*
X363809Y887212D01*
X362285D01*
X361524Y886831D01*
X360762Y886069D01*
X360381Y885307D01*
X360000Y884165D01*
Y882260D01*
X360381Y881118D01*
X360762Y880356D01*
X361524Y879594D01*
X362285Y879213D01*
X363809D01*
X364570Y879594D01*
X365332Y880356D01*
X365713Y881118D01*
Y882260D01*
X363809D02*
X365713D01*
X367541Y887212D02*
Y879213D01*
Y887212D02*
X372873Y879213D01*
Y887212D02*
Y879213D01*
X375083Y887212D02*
Y879213D01*
Y887212D02*
X377749D01*
X378891Y886831D01*
X379653Y886069D01*
X380034Y885307D01*
X380415Y884165D01*
Y882260D01*
X380034Y881118D01*
X379653Y880356D01*
X378891Y879594D01*
X377749Y879213D01*
X375083D01*
X305821Y345818D02*
Y337820D01*
Y345818D02*
X309249D01*
X310392Y345437D01*
X310773Y345057D01*
X311154Y344295D01*
Y343533D01*
X310773Y342771D01*
X310392Y342391D01*
X309249Y342010D01*
X305821D01*
X308488D02*
X311154Y337820D01*
X318276Y344676D02*
X317514Y345437D01*
X316372Y345818D01*
X314848D01*
X313706Y345437D01*
X312944Y344676D01*
Y343914D01*
X313325Y343152D01*
X313706Y342771D01*
X314467Y342391D01*
X316752Y341629D01*
X317514Y341248D01*
X317895Y340867D01*
X318276Y340105D01*
Y338963D01*
X317514Y338201D01*
X316372Y337820D01*
X314848D01*
X313706Y338201D01*
X312944Y338963D01*
X323875Y345818D02*
X320066Y340486D01*
X325779D01*
X323875Y345818D02*
Y337820D01*
X329093Y345818D02*
X327950Y345437D01*
X327569Y344676D01*
Y343914D01*
X327950Y343152D01*
X328712Y342771D01*
X330235Y342391D01*
X331378Y342010D01*
X332140Y341248D01*
X332521Y340486D01*
Y339343D01*
X332140Y338582D01*
X331759Y338201D01*
X330616Y337820D01*
X329093D01*
X327950Y338201D01*
X327569Y338582D01*
X327188Y339343D01*
Y340486D01*
X327569Y341248D01*
X328331Y342010D01*
X329474Y342391D01*
X330997Y342771D01*
X331759Y343152D01*
X332140Y343914D01*
Y344676D01*
X331759Y345437D01*
X330616Y345818D01*
X329093D01*
X338881D02*
X335072D01*
X334692Y342391D01*
X335072Y342771D01*
X336215Y343152D01*
X337358D01*
X338500Y342771D01*
X339262Y342010D01*
X339643Y340867D01*
Y340105D01*
X339262Y338963D01*
X338500Y338201D01*
X337358Y337820D01*
X336215D01*
X335072Y338201D01*
X334692Y338582D01*
X334311Y339343D01*
X341433Y341248D02*
X348289D01*
X353316Y345818D02*
Y337820D01*
X350650Y345818D02*
X355982D01*
X361886D02*
X356934D01*
Y337820D01*
X361886D01*
X356934Y342010D02*
X359981D01*
X363219Y345818D02*
Y337820D01*
Y345818D02*
X366647D01*
X367789Y345437D01*
X368170Y345057D01*
X368551Y344295D01*
Y343533D01*
X368170Y342771D01*
X367789Y342391D01*
X366647Y342010D01*
X363219D01*
X365885D02*
X368551Y337820D01*
X370341Y345818D02*
Y337820D01*
Y345818D02*
X373388Y337820D01*
X376435Y345818D02*
X373388Y337820D01*
X376435Y345818D02*
Y337820D01*
X37932Y293856D02*
X37171Y294617D01*
X36028Y294998D01*
X34504D01*
X33362Y294617D01*
X32600Y293856D01*
Y293094D01*
X32981Y292332D01*
X33362Y291951D01*
X34123Y291570D01*
X36409Y290809D01*
X37171Y290428D01*
X37551Y290047D01*
X37932Y289285D01*
Y288143D01*
X37171Y287381D01*
X36028Y287000D01*
X34504D01*
X33362Y287381D01*
X32600Y288143D01*
X39722Y294998D02*
Y287000D01*
X41398Y290809D02*
X44826D01*
X45969Y291190D01*
X46350Y291570D01*
X46730Y292332D01*
Y293475D01*
X46350Y294237D01*
X45969Y294617D01*
X44826Y294998D01*
X41398D01*
Y287000D01*
X50806Y294998D02*
X50044Y294617D01*
X49282Y293856D01*
X48901Y293094D01*
X48520Y291951D01*
Y290047D01*
X48901Y288904D01*
X49282Y288143D01*
X50044Y287381D01*
X50806Y287000D01*
X52329D01*
X53091Y287381D01*
X53853Y288143D01*
X54233Y288904D01*
X54614Y290047D01*
Y291951D01*
X54233Y293094D01*
X53853Y293856D01*
X53091Y294617D01*
X52329Y294998D01*
X50806D01*
X57500Y468998D02*
Y461000D01*
Y468998D02*
X60928D01*
X62070Y468618D01*
X62451Y468237D01*
X62832Y467475D01*
Y466713D01*
X62451Y465951D01*
X62070Y465571D01*
X60928Y465190D01*
X57500D01*
X60166D02*
X62832Y461000D01*
X69955Y467856D02*
X69193Y468618D01*
X68050Y468998D01*
X66527D01*
X65384Y468618D01*
X64622Y467856D01*
Y467094D01*
X65003Y466332D01*
X65384Y465951D01*
X66146Y465571D01*
X68431Y464809D01*
X69193Y464428D01*
X69574Y464047D01*
X69955Y463285D01*
Y462143D01*
X69193Y461381D01*
X68050Y461000D01*
X66527D01*
X65384Y461381D01*
X64622Y462143D01*
X75553Y468998D02*
X71745Y463666D01*
X77458D01*
X75553Y468998D02*
Y461000D01*
X80771Y468998D02*
X79629Y468618D01*
X79248Y467856D01*
Y467094D01*
X79629Y466332D01*
X80390Y465951D01*
X81914Y465571D01*
X83056Y465190D01*
X83818Y464428D01*
X84199Y463666D01*
Y462524D01*
X83818Y461762D01*
X83437Y461381D01*
X82295Y461000D01*
X80771D01*
X79629Y461381D01*
X79248Y461762D01*
X78867Y462524D01*
Y463666D01*
X79248Y464428D01*
X80009Y465190D01*
X81152Y465571D01*
X82676Y465951D01*
X83437Y466332D01*
X83818Y467094D01*
Y467856D01*
X83437Y468618D01*
X82295Y468998D01*
X80771D01*
X90560D02*
X86751D01*
X86370Y465571D01*
X86751Y465951D01*
X87893Y466332D01*
X89036D01*
X90179Y465951D01*
X90941Y465190D01*
X91321Y464047D01*
Y463285D01*
X90941Y462143D01*
X90179Y461381D01*
X89036Y461000D01*
X87893D01*
X86751Y461381D01*
X86370Y461762D01*
X85989Y462524D01*
X100928Y431856D02*
Y425000D01*
X97500Y428428D02*
X104356D01*
X106717Y431475D02*
X107479Y431856D01*
X108621Y432999D01*
Y425000D01*
X112963Y431094D02*
Y431475D01*
X113344Y432237D01*
X113725Y432618D01*
X114487Y432999D01*
X116010D01*
X116772Y432618D01*
X117153Y432237D01*
X117534Y431475D01*
Y430714D01*
X117153Y429952D01*
X116391Y428809D01*
X112583Y425000D01*
X117915D01*
X119705Y432999D02*
X122752Y425000D01*
X125799Y432999D02*
X122752Y425000D01*
X102713Y326094D02*
X102332Y326856D01*
X101570Y327617D01*
X100809Y327998D01*
X99285D01*
X98524Y327617D01*
X97762Y326856D01*
X97381Y326094D01*
X97000Y324951D01*
Y323047D01*
X97381Y321904D01*
X97762Y321143D01*
X98524Y320381D01*
X99285Y320000D01*
X100809D01*
X101570Y320381D01*
X102332Y321143D01*
X102713Y321904D01*
Y323047D01*
X100809D02*
X102713D01*
X104541Y327998D02*
Y320000D01*
Y327998D02*
X109873Y320000D01*
Y327998D02*
Y320000D01*
X112083Y327998D02*
Y320000D01*
Y327998D02*
X114749D01*
X115891Y327617D01*
X116653Y326856D01*
X117034Y326094D01*
X117415Y324951D01*
Y323047D01*
X117034Y321904D01*
X116653Y321143D01*
X115891Y320381D01*
X114749Y320000D01*
X112083D01*
X110732Y391306D02*
X107685Y399305D01*
X104639Y391306D01*
X105781Y393972D02*
X109590D01*
X104639Y362999D02*
Y355000D01*
Y362999D02*
X108066D01*
X109209Y362618D01*
X109590Y362237D01*
X109971Y361475D01*
Y360714D01*
X109590Y359952D01*
X109209Y359571D01*
X108066Y359190D01*
X104639D02*
X108066D01*
X109209Y358809D01*
X109590Y358428D01*
X109971Y357667D01*
Y356524D01*
X109590Y355762D01*
X109209Y355381D01*
X108066Y355000D01*
X104639D01*
X42500Y654647D02*
Y646648D01*
Y654647D02*
X45928D01*
X47070Y654266D01*
X47451Y653885D01*
X47832Y653123D01*
Y652361D01*
X47451Y651600D01*
X47070Y651219D01*
X45928Y650838D01*
X42500D01*
X45166D02*
X47832Y646648D01*
X54955Y653504D02*
X54193Y654266D01*
X53050Y654647D01*
X51527D01*
X50384Y654266D01*
X49622Y653504D01*
Y652742D01*
X50003Y651981D01*
X50384Y651600D01*
X51146Y651219D01*
X53431Y650457D01*
X54193Y650076D01*
X54574Y649695D01*
X54955Y648933D01*
Y647791D01*
X54193Y647029D01*
X53050Y646648D01*
X51527D01*
X50384Y647029D01*
X49622Y647791D01*
X57125Y652742D02*
Y653123D01*
X57506Y653885D01*
X57887Y654266D01*
X58649Y654647D01*
X60172D01*
X60934Y654266D01*
X61315Y653885D01*
X61696Y653123D01*
Y652361D01*
X61315Y651600D01*
X60553Y650457D01*
X56745Y646648D01*
X62077D01*
X64629Y654647D02*
X68818D01*
X66533Y651600D01*
X67676D01*
X68437Y651219D01*
X68818Y650838D01*
X69199Y649695D01*
Y648933D01*
X68818Y647791D01*
X68056Y647029D01*
X66914Y646648D01*
X65771D01*
X64629Y647029D01*
X64248Y647410D01*
X63867Y648172D01*
X71370Y652742D02*
Y653123D01*
X71751Y653885D01*
X72132Y654266D01*
X72894Y654647D01*
X74417D01*
X75179Y654266D01*
X75560Y653885D01*
X75940Y653123D01*
Y652361D01*
X75560Y651600D01*
X74798Y650457D01*
X70989Y646648D01*
X76321D01*
X100928Y627856D02*
Y621000D01*
X97500Y624428D02*
X104356D01*
X106717Y627475D02*
X107479Y627856D01*
X108621Y628998D01*
Y621000D01*
X112963Y627094D02*
Y627475D01*
X113344Y628237D01*
X113725Y628617D01*
X114487Y628998D01*
X116010D01*
X116772Y628617D01*
X117153Y628237D01*
X117534Y627475D01*
Y626713D01*
X117153Y625951D01*
X116391Y624809D01*
X112583Y621000D01*
X117915D01*
X119705Y628998D02*
X122752Y621000D01*
X125799Y628998D02*
X122752Y621000D01*
X103213Y511094D02*
X102832Y511856D01*
X102071Y512617D01*
X101309Y512998D01*
X99785D01*
X99024Y512617D01*
X98262Y511856D01*
X97881Y511094D01*
X97500Y509951D01*
Y508047D01*
X97881Y506904D01*
X98262Y506143D01*
X99024Y505381D01*
X99785Y505000D01*
X101309D01*
X102071Y505381D01*
X102832Y506143D01*
X103213Y506904D01*
Y508047D01*
X101309D02*
X103213D01*
X105041Y512998D02*
Y505000D01*
Y512998D02*
X110373Y505000D01*
Y512998D02*
Y505000D01*
X112583Y512998D02*
Y505000D01*
Y512998D02*
X115249D01*
X116391Y512617D01*
X117153Y511856D01*
X117534Y511094D01*
X117915Y509951D01*
Y508047D01*
X117534Y506904D01*
X117153Y506143D01*
X116391Y505381D01*
X115249Y505000D01*
X112583D01*
X100000Y583998D02*
Y576000D01*
Y583998D02*
X103428D01*
X104571Y583617D01*
X104951Y583237D01*
X105332Y582475D01*
Y581713D01*
X104951Y580951D01*
X104571Y580570D01*
X103428Y580190D01*
X100000D01*
X102666D02*
X105332Y576000D01*
X107122Y583998D02*
X112455Y576000D01*
Y583998D02*
X107122Y576000D01*
X102666Y555998D02*
Y548000D01*
X100000Y555998D02*
X105332D01*
X106284D02*
X111616Y548000D01*
Y555998D02*
X106284Y548000D01*
X82550Y825625D02*
X83312Y826006D01*
X84454Y827148D01*
Y819150D01*
X88415Y822578D02*
X95271D01*
X97633Y827148D02*
X99537Y819150D01*
X101441Y827148D02*
X99537Y819150D01*
X101441Y827148D02*
X103346Y819150D01*
X105250Y827148D02*
X103346Y819150D01*
X106850Y827148D02*
Y819150D01*
X108525Y827148D02*
Y819150D01*
Y827148D02*
X111953D01*
X113096Y826767D01*
X113477Y826387D01*
X113858Y825625D01*
Y824863D01*
X113477Y824101D01*
X113096Y823720D01*
X111953Y823340D01*
X108525D01*
X111192D02*
X113858Y819150D01*
X120599Y827148D02*
X115648D01*
Y819150D01*
X120599D01*
X115648Y823340D02*
X118695D01*
X103428Y791856D02*
Y785000D01*
X100000Y788428D02*
X106856D01*
X113787Y792998D02*
X109979D01*
X109598Y789570D01*
X109979Y789951D01*
X111121Y790332D01*
X112264D01*
X113407Y789951D01*
X114168Y789190D01*
X114549Y788047D01*
Y787285D01*
X114168Y786143D01*
X113407Y785381D01*
X112264Y785000D01*
X111121D01*
X109979Y785381D01*
X109598Y785762D01*
X109217Y786524D01*
X116339Y792998D02*
X119386Y785000D01*
X122433Y792998D02*
X119386Y785000D01*
X105713Y721094D02*
X105332Y721856D01*
X104570Y722618D01*
X103809Y722999D01*
X102285D01*
X101523Y722618D01*
X100762Y721856D01*
X100381Y721094D01*
X100000Y719952D01*
Y718047D01*
X100381Y716905D01*
X100762Y716143D01*
X101523Y715381D01*
X102285Y715000D01*
X103809D01*
X104570Y715381D01*
X105332Y716143D01*
X105713Y716905D01*
Y718047D01*
X103809D02*
X105713D01*
X107541Y722999D02*
Y715000D01*
Y722999D02*
X112873Y715000D01*
Y722999D02*
Y715000D01*
X115082Y722999D02*
Y715000D01*
Y722999D02*
X117748D01*
X118891Y722618D01*
X119653Y721856D01*
X120034Y721094D01*
X120415Y719952D01*
Y718047D01*
X120034Y716905D01*
X119653Y716143D01*
X118891Y715381D01*
X117748Y715000D01*
X115082D01*
X100000Y755282D02*
X100762Y755663D01*
X101904Y756805D01*
Y748807D01*
X105865Y752235D02*
X112721D01*
X115082Y756805D02*
X116987Y748807D01*
X118891Y756805D02*
X116987Y748807D01*
X118891Y756805D02*
X120795Y748807D01*
X122700Y756805D02*
X120795Y748807D01*
X151320Y88897D02*
Y73900D01*
Y88897D02*
X157747D01*
X159890Y88183D01*
X160604Y87469D01*
X161318Y86040D01*
Y84612D01*
X160604Y83184D01*
X159890Y82470D01*
X157747Y81756D01*
X151320D02*
X157747D01*
X159890Y81041D01*
X160604Y80327D01*
X161318Y78899D01*
Y76757D01*
X160604Y75328D01*
X159890Y74614D01*
X157747Y73900D01*
X151320D01*
X173244Y83898D02*
Y73900D01*
Y81756D02*
X171816Y83184D01*
X170387Y83898D01*
X168245D01*
X166817Y83184D01*
X165388Y81756D01*
X164674Y79613D01*
Y78185D01*
X165388Y76042D01*
X166817Y74614D01*
X168245Y73900D01*
X170387D01*
X171816Y74614D01*
X173244Y76042D01*
X179385Y88897D02*
Y76757D01*
X180100Y74614D01*
X181528Y73900D01*
X182956D01*
X177243Y83898D02*
X182242D01*
X187241Y88897D02*
Y76757D01*
X187955Y74614D01*
X189383Y73900D01*
X190812D01*
X185098Y83898D02*
X190097D01*
X203666Y85326D02*
X202952Y86754D01*
X201523Y88183D01*
X200095Y88897D01*
X197239D01*
X195811Y88183D01*
X194382Y86754D01*
X193668Y85326D01*
X192954Y83184D01*
Y79613D01*
X193668Y77471D01*
X194382Y76042D01*
X195811Y74614D01*
X197239Y73900D01*
X200095D01*
X201523Y74614D01*
X202952Y76042D01*
X203666Y77471D01*
X216449Y83898D02*
Y73900D01*
Y81756D02*
X215021Y83184D01*
X213592Y83898D01*
X211450D01*
X210022Y83184D01*
X208593Y81756D01*
X207879Y79613D01*
Y78185D01*
X208593Y76042D01*
X210022Y74614D01*
X211450Y73900D01*
X213592D01*
X215021Y74614D01*
X216449Y76042D01*
X220448Y83898D02*
X224733Y73900D01*
X229018Y83898D02*
X224733Y73900D01*
X231446Y79613D02*
X240015D01*
Y81041D01*
X239301Y82470D01*
X238587Y83184D01*
X237159Y83898D01*
X235016D01*
X233588Y83184D01*
X232160Y81756D01*
X231446Y79613D01*
Y78185D01*
X232160Y76042D01*
X233588Y74614D01*
X235016Y73900D01*
X237159D01*
X238587Y74614D01*
X240015Y76042D01*
X243229Y83898D02*
Y73900D01*
Y79613D02*
X243943Y81756D01*
X245371Y83184D01*
X246800Y83898D01*
X248942D01*
X250299D02*
Y73900D01*
Y81041D02*
X252441Y83184D01*
X253869Y83898D01*
X256012D01*
X257440Y83184D01*
X258154Y81041D01*
Y73900D01*
X270651Y83898D02*
Y73900D01*
Y81756D02*
X269223Y83184D01*
X267795Y83898D01*
X265653D01*
X264224Y83184D01*
X262796Y81756D01*
X262082Y79613D01*
Y78185D01*
X262796Y76042D01*
X264224Y74614D01*
X265653Y73900D01*
X267795D01*
X269223Y74614D01*
X270651Y76042D01*
X286434Y88897D02*
Y73900D01*
Y88897D02*
X292147Y73900D01*
X297860Y88897D02*
X292147Y73900D01*
X297860Y88897D02*
Y73900D01*
X310714Y83898D02*
Y73900D01*
Y81756D02*
X309286Y83184D01*
X307858Y83898D01*
X305715D01*
X304287Y83184D01*
X302859Y81756D01*
X302145Y79613D01*
Y78185D01*
X302859Y76042D01*
X304287Y74614D01*
X305715Y73900D01*
X307858D01*
X309286Y74614D01*
X310714Y76042D01*
X316142Y88897D02*
X316856Y88183D01*
X317570Y88897D01*
X316856Y89611D01*
X316142Y88897D01*
X316856Y83898D02*
Y73900D01*
X320212Y83898D02*
Y73900D01*
Y81041D02*
X322355Y83184D01*
X323783Y83898D01*
X325925D01*
X327354Y83184D01*
X328068Y81041D01*
Y73900D01*
X343779Y88897D02*
Y73900D01*
Y88897D02*
X350206D01*
X352348Y88183D01*
X353062Y87469D01*
X353777Y86040D01*
Y84612D01*
X353062Y83184D01*
X352348Y82470D01*
X350206Y81756D01*
X343779D02*
X350206D01*
X352348Y81041D01*
X353062Y80327D01*
X353777Y78899D01*
Y76757D01*
X353062Y75328D01*
X352348Y74614D01*
X350206Y73900D01*
X343779D01*
X360704Y83898D02*
X359275Y83184D01*
X357847Y81756D01*
X357133Y79613D01*
Y78185D01*
X357847Y76042D01*
X359275Y74614D01*
X360704Y73900D01*
X362846D01*
X364274Y74614D01*
X365703Y76042D01*
X366417Y78185D01*
Y79613D01*
X365703Y81756D01*
X364274Y83184D01*
X362846Y83898D01*
X360704D01*
X378271D02*
Y73900D01*
Y81756D02*
X376843Y83184D01*
X375415Y83898D01*
X373272D01*
X371844Y83184D01*
X370416Y81756D01*
X369702Y79613D01*
Y78185D01*
X370416Y76042D01*
X371844Y74614D01*
X373272Y73900D01*
X375415D01*
X376843Y74614D01*
X378271Y76042D01*
X382271Y83898D02*
Y73900D01*
Y79613D02*
X382985Y81756D01*
X384413Y83184D01*
X385841Y83898D01*
X387984D01*
X397910Y88897D02*
Y73900D01*
Y81756D02*
X396482Y83184D01*
X395053Y83898D01*
X392911D01*
X391483Y83184D01*
X390055Y81756D01*
X389340Y79613D01*
Y78185D01*
X390055Y76042D01*
X391483Y74614D01*
X392911Y73900D01*
X395053D01*
X396482Y74614D01*
X397910Y76042D01*
X855980Y177498D02*
Y169500D01*
Y177498D02*
X859408D01*
X860551Y177118D01*
X860931Y176737D01*
X861312Y175975D01*
Y175213D01*
X860931Y174451D01*
X860551Y174070D01*
X859408Y173690D01*
X855980D01*
X858646D02*
X861312Y169500D01*
X865007Y177498D02*
X863864Y177118D01*
X863483Y176356D01*
Y175594D01*
X863864Y174832D01*
X864626Y174451D01*
X866149Y174070D01*
X867292Y173690D01*
X868054Y172928D01*
X868435Y172166D01*
Y171024D01*
X868054Y170262D01*
X867673Y169881D01*
X866530Y169500D01*
X865007D01*
X863864Y169881D01*
X863483Y170262D01*
X863102Y171024D01*
Y172166D01*
X863483Y172928D01*
X864245Y173690D01*
X865387Y174070D01*
X866911Y174451D01*
X867673Y174832D01*
X868054Y175594D01*
Y176356D01*
X867673Y177118D01*
X866530Y177498D01*
X865007D01*
X875557D02*
X871748Y169500D01*
X870225Y177498D02*
X875557D01*
X832000Y216998D02*
Y209000D01*
Y216998D02*
X835428D01*
X836571Y216617D01*
X836951Y216236D01*
X837332Y215475D01*
Y214713D01*
X836951Y213951D01*
X836571Y213570D01*
X835428Y213190D01*
X832000D01*
X834666D02*
X837332Y209000D01*
X841027Y216998D02*
X839884Y216617D01*
X839503Y215856D01*
Y215094D01*
X839884Y214332D01*
X840646Y213951D01*
X842169Y213570D01*
X843312Y213190D01*
X844074Y212428D01*
X844454Y211666D01*
Y210523D01*
X844074Y209762D01*
X843693Y209381D01*
X842550Y209000D01*
X841027D01*
X839884Y209381D01*
X839503Y209762D01*
X839122Y210523D01*
Y211666D01*
X839503Y212428D01*
X840265Y213190D01*
X841407Y213570D01*
X842931Y213951D01*
X843693Y214332D01*
X844074Y215094D01*
Y215856D01*
X843693Y216617D01*
X842550Y216998D01*
X841027D01*
X850815Y215856D02*
X850434Y216617D01*
X849292Y216998D01*
X848530D01*
X847387Y216617D01*
X846626Y215475D01*
X846245Y213570D01*
Y211666D01*
X846626Y210143D01*
X847387Y209381D01*
X848530Y209000D01*
X848911D01*
X850053Y209381D01*
X850815Y210143D01*
X851196Y211285D01*
Y211666D01*
X850815Y212809D01*
X850053Y213570D01*
X848911Y213951D01*
X848530D01*
X847387Y213570D01*
X846626Y212809D01*
X846245Y211666D01*
X855980Y189998D02*
Y182000D01*
Y189998D02*
X859408D01*
X860551Y189618D01*
X860931Y189237D01*
X861312Y188475D01*
Y187713D01*
X860931Y186951D01*
X860551Y186570D01*
X859408Y186190D01*
X855980D01*
X858646D02*
X861312Y182000D01*
X865007Y189998D02*
X863864Y189618D01*
X863483Y188856D01*
Y188094D01*
X863864Y187332D01*
X864626Y186951D01*
X866149Y186570D01*
X867292Y186190D01*
X868054Y185428D01*
X868435Y184666D01*
Y183524D01*
X868054Y182762D01*
X867673Y182381D01*
X866530Y182000D01*
X865007D01*
X863864Y182381D01*
X863483Y182762D01*
X863102Y183524D01*
Y184666D01*
X863483Y185428D01*
X864245Y186190D01*
X865387Y186570D01*
X866911Y186951D01*
X867673Y187332D01*
X868054Y188094D01*
Y188856D01*
X867673Y189618D01*
X866530Y189998D01*
X865007D01*
X874795D02*
X870986D01*
X870605Y186570D01*
X870986Y186951D01*
X872129Y187332D01*
X873271D01*
X874414Y186951D01*
X875176Y186190D01*
X875557Y185047D01*
Y184285D01*
X875176Y183143D01*
X874414Y182381D01*
X873271Y182000D01*
X872129D01*
X870986Y182381D01*
X870605Y182762D01*
X870225Y183524D01*
X932000Y825309D02*
X935428D01*
X936570Y825690D01*
X936951Y826071D01*
X937332Y826832D01*
Y827975D01*
X936951Y828737D01*
X936570Y829118D01*
X935428Y829499D01*
X932000D01*
Y821500D01*
X939122Y827975D02*
X939884Y828356D01*
X941027Y829499D01*
Y821500D01*
X1041000Y881309D02*
X1044428D01*
X1045571Y881690D01*
X1045951Y882070D01*
X1046332Y882832D01*
Y883975D01*
X1045951Y884737D01*
X1045571Y885117D01*
X1044428Y885498D01*
X1041000D01*
Y877500D01*
X1048503Y883594D02*
Y883975D01*
X1048884Y884737D01*
X1049265Y885117D01*
X1050027Y885498D01*
X1051550D01*
X1052312Y885117D01*
X1052693Y884737D01*
X1053074Y883975D01*
Y883213D01*
X1052693Y882451D01*
X1051931Y881309D01*
X1048122Y877500D01*
X1053455D01*
X976000Y101809D02*
X979428D01*
X980571Y102190D01*
X980951Y102570D01*
X981332Y103332D01*
Y104475D01*
X980951Y105237D01*
X980571Y105617D01*
X979428Y105998D01*
X976000D01*
Y98000D01*
X986931Y105998D02*
X983122Y100666D01*
X988835D01*
X986931Y105998D02*
Y98000D01*
X1154352Y881309D02*
X1157780D01*
X1158922Y881690D01*
X1159303Y882070D01*
X1159684Y882832D01*
Y883975D01*
X1159303Y884737D01*
X1158922Y885117D01*
X1157780Y885498D01*
X1154352D01*
Y877500D01*
X1166045Y885498D02*
X1162236D01*
X1161855Y882070D01*
X1162236Y882451D01*
X1163379Y882832D01*
X1164521D01*
X1165664Y882451D01*
X1166425Y881690D01*
X1166806Y880547D01*
Y879785D01*
X1166425Y878643D01*
X1165664Y877881D01*
X1164521Y877500D01*
X1163379D01*
X1162236Y877881D01*
X1161855Y878262D01*
X1161474Y879024D01*
X1421000Y815207D02*
X1424428D01*
X1425571Y815587D01*
X1425951Y815968D01*
X1426332Y816730D01*
Y817873D01*
X1425951Y818634D01*
X1425571Y819015D01*
X1424428Y819396D01*
X1421000D01*
Y811398D01*
X1432693Y818254D02*
X1432312Y819015D01*
X1431169Y819396D01*
X1430408D01*
X1429265Y819015D01*
X1428503Y817873D01*
X1428122Y815968D01*
Y814064D01*
X1428503Y812541D01*
X1429265Y811779D01*
X1430408Y811398D01*
X1430788D01*
X1431931Y811779D01*
X1432693Y812541D01*
X1433074Y813683D01*
Y814064D01*
X1432693Y815207D01*
X1431931Y815968D01*
X1430788Y816349D01*
X1430408D01*
X1429265Y815968D01*
X1428503Y815207D01*
X1428122Y814064D01*
X1426000Y694807D02*
X1429428D01*
X1430570Y695188D01*
X1430951Y695568D01*
X1431332Y696330D01*
Y697473D01*
X1430951Y698235D01*
X1430570Y698615D01*
X1429428Y698996D01*
X1426000D01*
Y690998D01*
X1438454Y698996D02*
X1434646Y690998D01*
X1433122Y698996D02*
X1438454D01*
X958713Y613094D02*
X958332Y613856D01*
X957570Y614617D01*
X956809Y614998D01*
X955285D01*
X954523Y614617D01*
X953762Y613856D01*
X953381Y613094D01*
X953000Y611951D01*
Y610047D01*
X953381Y608904D01*
X953762Y608143D01*
X954523Y607381D01*
X955285Y607000D01*
X956809D01*
X957570Y607381D01*
X958332Y608143D01*
X958713Y608904D01*
X960960Y613475D02*
X961722Y613856D01*
X962865Y614998D01*
Y607000D01*
X958713Y638094D02*
X958332Y638856D01*
X957570Y639617D01*
X956808Y639998D01*
X955285D01*
X954523Y639617D01*
X953762Y638856D01*
X953381Y638094D01*
X953000Y636951D01*
Y635047D01*
X953381Y633904D01*
X953762Y633143D01*
X954523Y632381D01*
X955285Y632000D01*
X956808D01*
X957570Y632381D01*
X958332Y633143D01*
X958713Y633904D01*
X961341Y638094D02*
Y638475D01*
X961722Y639237D01*
X962103Y639617D01*
X962864Y639998D01*
X964388D01*
X965150Y639617D01*
X965530Y639237D01*
X965911Y638475D01*
Y637713D01*
X965530Y636951D01*
X964769Y635809D01*
X960960Y632000D01*
X966292D01*
X1045000Y457525D02*
X1044239Y457144D01*
X1043477Y456382D01*
X1043096Y455621D01*
Y454097D01*
X1043477Y453335D01*
X1044239Y452574D01*
X1045000Y452193D01*
X1046143Y451812D01*
X1048047D01*
X1049190Y452193D01*
X1049952Y452574D01*
X1050713Y453335D01*
X1051094Y454097D01*
Y455621D01*
X1050713Y456382D01*
X1049952Y457144D01*
X1049190Y457525D01*
X1043096Y460534D02*
Y464723D01*
X1046143Y462438D01*
Y463581D01*
X1046524Y464342D01*
X1046905Y464723D01*
X1048047Y465104D01*
X1048809D01*
X1049952Y464723D01*
X1050713Y463962D01*
X1051094Y462819D01*
Y461676D01*
X1050713Y460534D01*
X1050332Y460153D01*
X1049571Y459772D01*
X1126713Y582674D02*
X1126332Y583436D01*
X1125570Y584197D01*
X1124809Y584578D01*
X1123285D01*
X1122523Y584197D01*
X1121762Y583436D01*
X1121381Y582674D01*
X1121000Y581531D01*
Y579627D01*
X1121381Y578484D01*
X1121762Y577723D01*
X1122523Y576961D01*
X1123285Y576580D01*
X1124809D01*
X1125570Y576961D01*
X1126332Y577723D01*
X1126713Y578484D01*
X1132769Y584578D02*
X1128960Y579246D01*
X1134673D01*
X1132769Y584578D02*
Y576580D01*
X1055906Y548213D02*
X1055144Y547832D01*
X1054382Y547071D01*
X1054002Y546309D01*
Y544785D01*
X1054382Y544024D01*
X1055144Y543262D01*
X1055906Y542881D01*
X1057049Y542500D01*
X1058953D01*
X1060096Y542881D01*
X1060857Y543262D01*
X1061619Y544024D01*
X1062000Y544785D01*
Y546309D01*
X1061619Y547071D01*
X1060857Y547832D01*
X1060096Y548213D01*
X1054002Y555031D02*
Y551222D01*
X1057430Y550841D01*
X1057049Y551222D01*
X1056668Y552365D01*
Y553507D01*
X1057049Y554650D01*
X1057810Y555412D01*
X1058953Y555793D01*
X1059715D01*
X1060857Y555412D01*
X1061619Y554650D01*
X1062000Y553507D01*
Y552365D01*
X1061619Y551222D01*
X1061238Y550841D01*
X1060477Y550460D01*
X1055406Y494462D02*
X1054645Y494081D01*
X1053883Y493319D01*
X1053502Y492557D01*
Y491034D01*
X1053883Y490272D01*
X1054645Y489510D01*
X1055406Y489130D01*
X1056549Y488749D01*
X1058453D01*
X1059596Y489130D01*
X1060358Y489510D01*
X1061119Y490272D01*
X1061500Y491034D01*
Y492557D01*
X1061119Y493319D01*
X1060358Y494081D01*
X1059596Y494462D01*
X1054645Y501279D02*
X1053883Y500899D01*
X1053502Y499756D01*
Y498994D01*
X1053883Y497852D01*
X1055025Y497090D01*
X1056930Y496709D01*
X1058834D01*
X1060358Y497090D01*
X1061119Y497852D01*
X1061500Y498994D01*
Y499375D01*
X1061119Y500518D01*
X1060358Y501279D01*
X1059215Y501660D01*
X1058834D01*
X1057692Y501279D01*
X1056930Y500518D01*
X1056549Y499375D01*
Y498994D01*
X1056930Y497852D01*
X1057692Y497090D01*
X1058834Y496709D01*
X1150781Y765713D02*
X1150019Y765332D01*
X1149258Y764570D01*
X1148877Y763809D01*
Y762285D01*
X1149258Y761523D01*
X1150019Y760761D01*
X1150781Y760381D01*
X1151924Y760000D01*
X1153828D01*
X1154971Y760381D01*
X1155732Y760761D01*
X1156494Y761523D01*
X1156875Y762285D01*
Y763809D01*
X1156494Y764570D01*
X1155732Y765332D01*
X1154971Y765713D01*
X1148877Y769864D02*
X1149258Y768722D01*
X1150019Y768341D01*
X1150781D01*
X1151543Y768722D01*
X1151924Y769483D01*
X1152305Y771007D01*
X1152685Y772150D01*
X1153447Y772911D01*
X1154209Y773292D01*
X1155352D01*
X1156113Y772911D01*
X1156494Y772531D01*
X1156875Y771388D01*
Y769864D01*
X1156494Y768722D01*
X1156113Y768341D01*
X1155352Y767960D01*
X1154209D01*
X1153447Y768341D01*
X1152685Y769103D01*
X1152305Y770245D01*
X1151924Y771769D01*
X1151543Y772531D01*
X1150781Y772911D01*
X1150019D01*
X1149258Y772531D01*
X1148877Y771388D01*
Y769864D01*
X954213Y671094D02*
X953832Y671856D01*
X953070Y672617D01*
X952309Y672998D01*
X950785D01*
X950023Y672617D01*
X949262Y671856D01*
X948881Y671094D01*
X948500Y669951D01*
Y668047D01*
X948881Y666904D01*
X949262Y666143D01*
X950023Y665381D01*
X950785Y665000D01*
X952309D01*
X953070Y665381D01*
X953832Y666143D01*
X954213Y666904D01*
X961411Y670332D02*
X961031Y669189D01*
X960269Y668428D01*
X959126Y668047D01*
X958745D01*
X957603Y668428D01*
X956841Y669189D01*
X956460Y670332D01*
Y670713D01*
X956841Y671856D01*
X957603Y672617D01*
X958745Y672998D01*
X959126D01*
X960269Y672617D01*
X961031Y671856D01*
X961411Y670332D01*
Y668428D01*
X961031Y666523D01*
X960269Y665381D01*
X959126Y665000D01*
X958364D01*
X957222Y665381D01*
X956841Y666143D01*
X941359Y689998D02*
Y682000D01*
Y689998D02*
X944025D01*
X945168Y689617D01*
X945930Y688856D01*
X946311Y688094D01*
X946692Y686951D01*
Y685047D01*
X946311Y683904D01*
X945930Y683143D01*
X945168Y682381D01*
X944025Y682000D01*
X941359D01*
X948482Y688475D02*
X949243Y688856D01*
X950386Y689998D01*
Y682000D01*
X1232000Y279599D02*
Y271601D01*
Y279599D02*
X1234666D01*
X1235809Y279218D01*
X1236571Y278457D01*
X1236952Y277695D01*
X1237333Y276552D01*
Y274648D01*
X1236952Y273505D01*
X1236571Y272743D01*
X1235809Y271982D01*
X1234666Y271601D01*
X1232000D01*
X1239503Y277695D02*
Y278076D01*
X1239884Y278838D01*
X1240265Y279218D01*
X1241027Y279599D01*
X1242550D01*
X1243312Y279218D01*
X1243693Y278838D01*
X1244074Y278076D01*
Y277314D01*
X1243693Y276552D01*
X1242931Y275410D01*
X1239123Y271601D01*
X1244455D01*
X959000Y747998D02*
Y740000D01*
Y747998D02*
X961666D01*
X962809Y747617D01*
X963570Y746856D01*
X963951Y746094D01*
X964332Y744951D01*
Y743047D01*
X963951Y741904D01*
X963570Y741143D01*
X962809Y740381D01*
X961666Y740000D01*
X959000D01*
X971454Y747998D02*
X966122Y740000D01*
Y747998D02*
X971454D01*
X966122Y740000D02*
X971454D01*
X977053Y747998D02*
X973245Y742666D01*
X978958D01*
X977053Y747998D02*
Y740000D01*
X1279000Y439998D02*
Y432000D01*
Y439998D02*
X1283951D01*
X1279000Y436190D02*
X1282047D01*
X1284865Y439998D02*
Y434285D01*
X1285246Y433143D01*
X1286008Y432381D01*
X1287151Y432000D01*
X1287912D01*
X1289055Y432381D01*
X1289817Y433143D01*
X1290198Y434285D01*
Y439998D01*
X1292407Y438475D02*
X1293168Y438856D01*
X1294311Y439998D01*
Y432000D01*
X968879Y194498D02*
Y186500D01*
Y194498D02*
X973830D01*
X968879Y190690D02*
X971926D01*
X974744Y194498D02*
Y188785D01*
X975125Y187643D01*
X975887Y186881D01*
X977029Y186500D01*
X977791D01*
X978934Y186881D01*
X979696Y187643D01*
X980076Y188785D01*
Y194498D01*
X982666Y192594D02*
Y192975D01*
X983047Y193737D01*
X983428Y194118D01*
X984190Y194498D01*
X985713D01*
X986475Y194118D01*
X986856Y193737D01*
X987237Y192975D01*
Y192213D01*
X986856Y191451D01*
X986094Y190309D01*
X982285Y186500D01*
X987618D01*
X1269492Y882746D02*
Y874748D01*
Y882746D02*
X1274443D01*
X1269492Y878938D02*
X1272539D01*
X1275357Y882746D02*
Y877033D01*
X1275738Y875891D01*
X1276500Y875129D01*
X1277643Y874748D01*
X1278404D01*
X1279547Y875129D01*
X1280309Y875891D01*
X1280690Y877033D01*
Y882746D01*
X1283660D02*
X1287850D01*
X1285565Y879699D01*
X1286707D01*
X1287469Y879319D01*
X1287850Y878938D01*
X1288231Y877795D01*
Y877033D01*
X1287850Y875891D01*
X1287088Y875129D01*
X1285946Y874748D01*
X1284803D01*
X1283660Y875129D01*
X1283280Y875510D01*
X1282899Y876272D01*
X1310002Y547000D02*
X1318000D01*
X1310002D02*
Y551951D01*
X1313810Y547000D02*
Y550047D01*
X1310002Y552865D02*
X1315715D01*
X1316857Y553246D01*
X1317619Y554008D01*
X1318000Y555151D01*
Y555912D01*
X1317619Y557055D01*
X1316857Y557817D01*
X1315715Y558198D01*
X1310002D01*
Y564215D02*
X1315334Y560407D01*
Y566120D01*
X1310002Y564215D02*
X1318000D01*
X1109000Y194498D02*
Y186500D01*
Y194498D02*
X1113951D01*
X1109000Y190690D02*
X1112047D01*
X1114865Y194498D02*
Y188785D01*
X1115246Y187643D01*
X1116008Y186881D01*
X1117151Y186500D01*
X1117912D01*
X1119055Y186881D01*
X1119817Y187643D01*
X1120198Y188785D01*
Y194498D01*
X1126977D02*
X1123168D01*
X1122787Y191070D01*
X1123168Y191451D01*
X1124311Y191832D01*
X1125454D01*
X1126596Y191451D01*
X1127358Y190690D01*
X1127739Y189547D01*
Y188785D01*
X1127358Y187643D01*
X1126596Y186881D01*
X1125454Y186500D01*
X1124311D01*
X1123168Y186881D01*
X1122787Y187262D01*
X1122407Y188023D01*
X1188000Y308998D02*
Y301000D01*
X1192570D01*
X1193447Y307475D02*
X1194208Y307856D01*
X1195351Y308998D01*
Y301000D01*
X1421000Y168809D02*
X1424428D01*
X1425571Y169190D01*
X1425951Y169571D01*
X1426332Y170332D01*
Y171475D01*
X1425951Y172237D01*
X1425571Y172617D01*
X1424428Y172998D01*
X1421000D01*
Y165000D01*
X1428884Y172998D02*
X1433074D01*
X1430788Y169951D01*
X1431931D01*
X1432693Y169571D01*
X1433074Y169190D01*
X1433454Y168047D01*
Y167285D01*
X1433074Y166143D01*
X1432312Y165381D01*
X1431169Y165000D01*
X1430027D01*
X1428884Y165381D01*
X1428503Y165762D01*
X1428122Y166523D01*
X1334000Y101809D02*
X1337428D01*
X1338570Y102190D01*
X1338951Y102570D01*
X1339332Y103332D01*
Y104475D01*
X1338951Y105237D01*
X1338570Y105617D01*
X1337428Y105998D01*
X1334000D01*
Y98000D01*
X1343027Y105998D02*
X1341884Y105617D01*
X1341503Y104856D01*
Y104094D01*
X1341884Y103332D01*
X1342646Y102951D01*
X1344169Y102570D01*
X1345312Y102190D01*
X1346074Y101428D01*
X1346454Y100666D01*
Y99523D01*
X1346074Y98762D01*
X1345693Y98381D01*
X1344550Y98000D01*
X1343027D01*
X1341884Y98381D01*
X1341503Y98762D01*
X1341122Y99523D01*
Y100666D01*
X1341503Y101428D01*
X1342265Y102190D01*
X1343407Y102570D01*
X1344931Y102951D01*
X1345693Y103332D01*
X1346074Y104094D01*
Y104856D01*
X1345693Y105617D01*
X1344550Y105998D01*
X1343027D01*
X1112285Y729998D02*
X1111524Y729617D01*
X1110762Y728856D01*
X1110381Y728094D01*
X1110000Y726951D01*
Y725047D01*
X1110381Y723904D01*
X1110762Y723143D01*
X1111524Y722381D01*
X1112285Y722000D01*
X1113809D01*
X1114570Y722381D01*
X1115332Y723143D01*
X1115713Y723904D01*
X1116094Y725047D01*
Y726951D01*
X1115713Y728094D01*
X1115332Y728856D01*
X1114570Y729617D01*
X1113809Y729998D01*
X1112285D01*
X1113428Y723523D02*
X1115713Y721238D01*
X1117960Y728475D02*
X1118722Y728856D01*
X1119865Y729998D01*
Y722000D01*
X1164285Y588998D02*
X1163523Y588617D01*
X1162762Y587856D01*
X1162381Y587094D01*
X1162000Y585951D01*
Y584047D01*
X1162381Y582904D01*
X1162762Y582143D01*
X1163523Y581381D01*
X1164285Y581000D01*
X1165809D01*
X1166570Y581381D01*
X1167332Y582143D01*
X1167713Y582904D01*
X1168094Y584047D01*
Y585951D01*
X1167713Y587094D01*
X1167332Y587856D01*
X1166570Y588617D01*
X1165809Y588998D01*
X1164285D01*
X1165428Y582523D02*
X1167713Y580238D01*
X1170341Y587094D02*
Y587475D01*
X1170722Y588237D01*
X1171103Y588617D01*
X1171865Y588998D01*
X1173388D01*
X1174150Y588617D01*
X1174531Y588237D01*
X1174911Y587475D01*
Y586713D01*
X1174531Y585951D01*
X1173769Y584809D01*
X1169960Y581000D01*
X1175292D01*
X1195785Y636998D02*
X1195023Y636617D01*
X1194262Y635856D01*
X1193881Y635094D01*
X1193500Y633951D01*
Y632047D01*
X1193881Y630904D01*
X1194262Y630143D01*
X1195023Y629381D01*
X1195785Y629000D01*
X1197309D01*
X1198071Y629381D01*
X1198832Y630143D01*
X1199213Y630904D01*
X1199594Y632047D01*
Y633951D01*
X1199213Y635094D01*
X1198832Y635856D01*
X1198071Y636617D01*
X1197309Y636998D01*
X1195785D01*
X1196928Y630523D02*
X1199213Y628238D01*
X1202222Y636998D02*
X1206412D01*
X1204126Y633951D01*
X1205269D01*
X1206031Y633571D01*
X1206412Y633190D01*
X1206793Y632047D01*
Y631285D01*
X1206412Y630143D01*
X1205650Y629381D01*
X1204507Y629000D01*
X1203365D01*
X1202222Y629381D01*
X1201841Y629762D01*
X1201460Y630523D01*
X1046285Y229998D02*
X1045524Y229617D01*
X1044762Y228856D01*
X1044381Y228094D01*
X1044000Y226951D01*
Y225047D01*
X1044381Y223904D01*
X1044762Y223143D01*
X1045524Y222381D01*
X1046285Y222000D01*
X1047809D01*
X1048570Y222381D01*
X1049332Y223143D01*
X1049713Y223904D01*
X1050094Y225047D01*
Y226951D01*
X1049713Y228094D01*
X1049332Y228856D01*
X1048570Y229617D01*
X1047809Y229998D01*
X1046285D01*
X1047428Y223524D02*
X1049713Y221238D01*
X1055769Y229998D02*
X1051960Y224666D01*
X1057673D01*
X1055769Y229998D02*
Y222000D01*
X1195785Y754123D02*
X1195023Y753742D01*
X1194262Y752981D01*
X1193881Y752219D01*
X1193500Y751076D01*
Y749172D01*
X1193881Y748029D01*
X1194262Y747268D01*
X1195023Y746506D01*
X1195785Y746125D01*
X1197309D01*
X1198071Y746506D01*
X1198832Y747268D01*
X1199213Y748029D01*
X1199594Y749172D01*
Y751076D01*
X1199213Y752219D01*
X1198832Y752981D01*
X1198071Y753742D01*
X1197309Y754123D01*
X1195785D01*
X1196928Y747648D02*
X1199213Y745363D01*
X1206031Y754123D02*
X1202222D01*
X1201841Y750695D01*
X1202222Y751076D01*
X1203365Y751457D01*
X1204507D01*
X1205650Y751076D01*
X1206412Y750315D01*
X1206793Y749172D01*
Y748410D01*
X1206412Y747268D01*
X1205650Y746506D01*
X1204507Y746125D01*
X1203365D01*
X1202222Y746506D01*
X1201841Y746887D01*
X1201460Y747648D01*
X1270943Y209998D02*
X1270182Y209617D01*
X1269420Y208856D01*
X1269039Y208094D01*
X1268658Y206951D01*
Y205047D01*
X1269039Y203904D01*
X1269420Y203143D01*
X1270182Y202381D01*
X1270943Y202000D01*
X1272467D01*
X1273228Y202381D01*
X1273990Y203143D01*
X1274371Y203904D01*
X1274752Y205047D01*
Y206951D01*
X1274371Y208094D01*
X1273990Y208856D01*
X1273228Y209617D01*
X1272467Y209998D01*
X1270943D01*
X1272086Y203524D02*
X1274371Y201238D01*
X1281189Y208856D02*
X1280808Y209617D01*
X1279665Y209998D01*
X1278903D01*
X1277761Y209617D01*
X1276999Y208475D01*
X1276618Y206570D01*
Y204666D01*
X1276999Y203143D01*
X1277761Y202381D01*
X1278903Y202000D01*
X1279284D01*
X1280427Y202381D01*
X1281189Y203143D01*
X1281570Y204285D01*
Y204666D01*
X1281189Y205809D01*
X1280427Y206570D01*
X1279284Y206951D01*
X1278903D01*
X1277761Y206570D01*
X1276999Y205809D01*
X1276618Y204666D01*
X1093419Y263998D02*
Y256000D01*
Y263998D02*
X1096847D01*
X1097989Y263617D01*
X1098370Y263237D01*
X1098751Y262475D01*
Y261713D01*
X1098370Y260951D01*
X1097989Y260570D01*
X1096847Y260190D01*
X1093419D01*
X1096085D02*
X1098751Y256000D01*
X1100541Y262475D02*
X1101303Y262856D01*
X1102446Y263998D01*
Y256000D01*
X1093000Y247998D02*
Y240000D01*
Y247998D02*
X1096428D01*
X1097570Y247617D01*
X1097951Y247237D01*
X1098332Y246475D01*
Y245713D01*
X1097951Y244951D01*
X1097570Y244571D01*
X1096428Y244190D01*
X1093000D01*
X1095666D02*
X1098332Y240000D01*
X1100503Y246094D02*
Y246475D01*
X1100884Y247237D01*
X1101265Y247617D01*
X1102027Y247998D01*
X1103550D01*
X1104312Y247617D01*
X1104693Y247237D01*
X1105074Y246475D01*
Y245713D01*
X1104693Y244951D01*
X1103931Y243809D01*
X1100122Y240000D01*
X1105454D01*
X1036002Y248000D02*
X1044000D01*
X1036002D02*
Y251428D01*
X1036383Y252570D01*
X1036763Y252951D01*
X1037525Y253332D01*
X1038287D01*
X1039049Y252951D01*
X1039429Y252570D01*
X1039810Y251428D01*
Y248000D01*
Y250666D02*
X1044000Y253332D01*
X1036002Y255884D02*
Y260074D01*
X1039049Y257788D01*
Y258931D01*
X1039429Y259693D01*
X1039810Y260074D01*
X1040953Y260455D01*
X1041715D01*
X1042857Y260074D01*
X1043619Y259312D01*
X1044000Y258169D01*
Y257027D01*
X1043619Y255884D01*
X1043238Y255503D01*
X1042477Y255122D01*
X998000Y502998D02*
Y495000D01*
Y502998D02*
X1001428D01*
X1002570Y502617D01*
X1002951Y502237D01*
X1003332Y501475D01*
Y500713D01*
X1002951Y499951D01*
X1002570Y499571D01*
X1001428Y499190D01*
X998000D01*
X1000666D02*
X1003332Y495000D01*
X1008931Y502998D02*
X1005122Y497666D01*
X1010835D01*
X1008931Y502998D02*
Y495000D01*
X1274002Y629000D02*
X1282000D01*
X1274002D02*
Y632428D01*
X1274383Y633571D01*
X1274763Y633951D01*
X1275525Y634332D01*
X1276287D01*
X1277049Y633951D01*
X1277430Y633571D01*
X1277810Y632428D01*
Y629000D01*
Y631666D02*
X1282000Y634332D01*
X1275144Y640693D02*
X1274383Y640312D01*
X1274002Y639169D01*
Y638408D01*
X1274383Y637265D01*
X1275525Y636503D01*
X1277430Y636122D01*
X1279334D01*
X1280857Y636503D01*
X1281619Y637265D01*
X1282000Y638408D01*
Y638788D01*
X1281619Y639931D01*
X1280857Y640693D01*
X1279715Y641074D01*
X1279334D01*
X1278191Y640693D01*
X1277430Y639931D01*
X1277049Y638788D01*
Y638408D01*
X1277430Y637265D01*
X1278191Y636503D01*
X1279334Y636122D01*
X938359Y504998D02*
Y497000D01*
Y504998D02*
X941787D01*
X942930Y504617D01*
X943310Y504237D01*
X943691Y503475D01*
Y502713D01*
X943310Y501951D01*
X942930Y501570D01*
X941787Y501190D01*
X938359D01*
X941025D02*
X943691Y497000D01*
X950814Y504998D02*
X947005Y497000D01*
X945481Y504998D02*
X950814D01*
X938359Y489687D02*
Y481688D01*
Y489687D02*
X941787D01*
X942930Y489306D01*
X943310Y488925D01*
X943691Y488163D01*
Y487402D01*
X943310Y486640D01*
X942930Y486259D01*
X941787Y485878D01*
X938359D01*
X941025D02*
X943691Y481688D01*
X947386Y489687D02*
X946243Y489306D01*
X945862Y488544D01*
Y487782D01*
X946243Y487021D01*
X947005Y486640D01*
X948528Y486259D01*
X949671Y485878D01*
X950433Y485116D01*
X950814Y484355D01*
Y483212D01*
X950433Y482450D01*
X950052Y482069D01*
X948909Y481688D01*
X947386D01*
X946243Y482069D01*
X945862Y482450D01*
X945481Y483212D01*
Y484355D01*
X945862Y485116D01*
X946624Y485878D01*
X947767Y486259D01*
X949290Y486640D01*
X950052Y487021D01*
X950433Y487782D01*
Y488544D01*
X950052Y489306D01*
X948909Y489687D01*
X947386D01*
X1133000Y656998D02*
Y649000D01*
Y656998D02*
X1136428D01*
X1137570Y656617D01*
X1137951Y656237D01*
X1138332Y655475D01*
Y654713D01*
X1137951Y653951D01*
X1137570Y653570D01*
X1136428Y653190D01*
X1133000D01*
X1135666D02*
X1138332Y649000D01*
X1145074Y654332D02*
X1144693Y653190D01*
X1143931Y652428D01*
X1142788Y652047D01*
X1142408D01*
X1141265Y652428D01*
X1140503Y653190D01*
X1140122Y654332D01*
Y654713D01*
X1140503Y655856D01*
X1141265Y656617D01*
X1142408Y656998D01*
X1142788D01*
X1143931Y656617D01*
X1144693Y655856D01*
X1145074Y654332D01*
Y652428D01*
X1144693Y650524D01*
X1143931Y649381D01*
X1142788Y649000D01*
X1142027D01*
X1140884Y649381D01*
X1140503Y650143D01*
X1175002Y676500D02*
X1183000D01*
X1175002D02*
Y679928D01*
X1175383Y681070D01*
X1175763Y681451D01*
X1176525Y681832D01*
X1177287D01*
X1178049Y681451D01*
X1178429Y681070D01*
X1178810Y679928D01*
Y676500D01*
Y679166D02*
X1183000Y681832D01*
X1176525Y683622D02*
X1176144Y684384D01*
X1175002Y685527D01*
X1183000D01*
X1176525Y689488D02*
X1176144Y690249D01*
X1175002Y691392D01*
X1183000D01*
X1145686Y575837D02*
X1153684D01*
X1145686D02*
Y579265D01*
X1146067Y580407D01*
X1146448Y580788D01*
X1147209Y581169D01*
X1147971D01*
X1148733Y580788D01*
X1149114Y580407D01*
X1149495Y579265D01*
Y575837D01*
Y578503D02*
X1153684Y581169D01*
X1147209Y582959D02*
X1146829Y583721D01*
X1145686Y584864D01*
X1153684D01*
X1147590Y589205D02*
X1147209D01*
X1146448Y589586D01*
X1146067Y589967D01*
X1145686Y590729D01*
Y592252D01*
X1146067Y593014D01*
X1146448Y593395D01*
X1147209Y593776D01*
X1147971D01*
X1148733Y593395D01*
X1149875Y592633D01*
X1153684Y588825D01*
Y594157D01*
X1164951Y758000D02*
X1172949D01*
X1164951D02*
Y761428D01*
X1165332Y762570D01*
X1165713Y762951D01*
X1166474Y763332D01*
X1167236D01*
X1167998Y762951D01*
X1168379Y762570D01*
X1168760Y761428D01*
Y758000D01*
Y760666D02*
X1172949Y763332D01*
X1166474Y765122D02*
X1166094Y765884D01*
X1164951Y767027D01*
X1172949D01*
X1164951Y771749D02*
Y775939D01*
X1167998Y773654D01*
Y774796D01*
X1168379Y775558D01*
X1168760Y775939D01*
X1169902Y776320D01*
X1170664D01*
X1171807Y775939D01*
X1172568Y775177D01*
X1172949Y774035D01*
Y772892D01*
X1172568Y771749D01*
X1172187Y771368D01*
X1171426Y770987D01*
X1047002Y760000D02*
X1055000D01*
X1047002D02*
Y763428D01*
X1047383Y764570D01*
X1047763Y764951D01*
X1048525Y765332D01*
X1049287D01*
X1050049Y764951D01*
X1050430Y764570D01*
X1050810Y763428D01*
Y760000D01*
Y762666D02*
X1055000Y765332D01*
X1048525Y767122D02*
X1048144Y767884D01*
X1047002Y769026D01*
X1055000D01*
X1047002Y776796D02*
X1052334Y772988D01*
Y778701D01*
X1047002Y776796D02*
X1055000D01*
X1205000Y588998D02*
Y581000D01*
Y588998D02*
X1208428D01*
X1209570Y588617D01*
X1209951Y588237D01*
X1210332Y587475D01*
Y586713D01*
X1209951Y585951D01*
X1209570Y585570D01*
X1208428Y585190D01*
X1205000D01*
X1207666D02*
X1210332Y581000D01*
X1212122Y587475D02*
X1212884Y587856D01*
X1214027Y588998D01*
Y581000D01*
X1222558Y587856D02*
X1222177Y588617D01*
X1221035Y588998D01*
X1220273D01*
X1219130Y588617D01*
X1218369Y587475D01*
X1217988Y585570D01*
Y583666D01*
X1218369Y582143D01*
X1219130Y581381D01*
X1220273Y581000D01*
X1220654D01*
X1221796Y581381D01*
X1222558Y582143D01*
X1222939Y583285D01*
Y583666D01*
X1222558Y584809D01*
X1221796Y585570D01*
X1220654Y585951D01*
X1220273D01*
X1219130Y585570D01*
X1218369Y584809D01*
X1217988Y583666D01*
X1126002Y728000D02*
X1134000D01*
X1126002D02*
Y731428D01*
X1126383Y732570D01*
X1126763Y732951D01*
X1127525Y733332D01*
X1128287D01*
X1129049Y732951D01*
X1129429Y732570D01*
X1129810Y731428D01*
Y728000D01*
Y730666D02*
X1134000Y733332D01*
X1127525Y735122D02*
X1127144Y735884D01*
X1126002Y737027D01*
X1134000D01*
X1126002Y746320D02*
X1134000Y742511D01*
X1126002Y740988D02*
Y746320D01*
X1142000Y639998D02*
Y632000D01*
Y639998D02*
X1145428D01*
X1146571Y639617D01*
X1146951Y639237D01*
X1147332Y638475D01*
Y637713D01*
X1146951Y636951D01*
X1146571Y636571D01*
X1145428Y636190D01*
X1142000D01*
X1144666D02*
X1147332Y632000D01*
X1149122Y638475D02*
X1149884Y638856D01*
X1151027Y639998D01*
Y632000D01*
X1156892Y639998D02*
X1155750Y639617D01*
X1155369Y638856D01*
Y638094D01*
X1155750Y637332D01*
X1156511Y636951D01*
X1158035Y636571D01*
X1159177Y636190D01*
X1159939Y635428D01*
X1160320Y634666D01*
Y633523D01*
X1159939Y632762D01*
X1159558Y632381D01*
X1158416Y632000D01*
X1156892D01*
X1155750Y632381D01*
X1155369Y632762D01*
X1154988Y633523D01*
Y634666D01*
X1155369Y635428D01*
X1156130Y636190D01*
X1157273Y636571D01*
X1158796Y636951D01*
X1159558Y637332D01*
X1159939Y638094D01*
Y638856D01*
X1159558Y639617D01*
X1158416Y639998D01*
X1156892D01*
X1260000Y595998D02*
Y588000D01*
Y595998D02*
X1263428D01*
X1264570Y595617D01*
X1264951Y595237D01*
X1265332Y594475D01*
Y593713D01*
X1264951Y592951D01*
X1264570Y592570D01*
X1263428Y592190D01*
X1260000D01*
X1262666D02*
X1265332Y588000D01*
X1267122Y594475D02*
X1267884Y594856D01*
X1269027Y595998D01*
Y588000D01*
X1277939Y593332D02*
X1277558Y592190D01*
X1276796Y591428D01*
X1275654Y591047D01*
X1275273D01*
X1274130Y591428D01*
X1273369Y592190D01*
X1272988Y593332D01*
Y593713D01*
X1273369Y594856D01*
X1274130Y595617D01*
X1275273Y595998D01*
X1275654D01*
X1276796Y595617D01*
X1277558Y594856D01*
X1277939Y593332D01*
Y591428D01*
X1277558Y589524D01*
X1276796Y588381D01*
X1275654Y588000D01*
X1274892D01*
X1273749Y588381D01*
X1273369Y589143D01*
X1026500Y690998D02*
Y683000D01*
Y690998D02*
X1029928D01*
X1031070Y690617D01*
X1031451Y690237D01*
X1031832Y689475D01*
Y688713D01*
X1031451Y687951D01*
X1031070Y687570D01*
X1029928Y687190D01*
X1026500D01*
X1029166D02*
X1031832Y683000D01*
X1034003Y689094D02*
Y689475D01*
X1034384Y690237D01*
X1034765Y690617D01*
X1035527Y690998D01*
X1037050D01*
X1037812Y690617D01*
X1038193Y690237D01*
X1038574Y689475D01*
Y688713D01*
X1038193Y687951D01*
X1037431Y686809D01*
X1033622Y683000D01*
X1038954D01*
X1043030Y690998D02*
X1041887Y690617D01*
X1041125Y689475D01*
X1040745Y687570D01*
Y686428D01*
X1041125Y684523D01*
X1041887Y683381D01*
X1043030Y683000D01*
X1043792D01*
X1044934Y683381D01*
X1045696Y684523D01*
X1046077Y686428D01*
Y687570D01*
X1045696Y689475D01*
X1044934Y690617D01*
X1043792Y690998D01*
X1043030D01*
X1026500Y710998D02*
Y703000D01*
Y710998D02*
X1029928D01*
X1031070Y710617D01*
X1031451Y710237D01*
X1031832Y709475D01*
Y708713D01*
X1031451Y707951D01*
X1031070Y707570D01*
X1029928Y707190D01*
X1026500D01*
X1029166D02*
X1031832Y703000D01*
X1034003Y709094D02*
Y709475D01*
X1034384Y710237D01*
X1034765Y710617D01*
X1035527Y710998D01*
X1037050D01*
X1037812Y710617D01*
X1038193Y710237D01*
X1038574Y709475D01*
Y708713D01*
X1038193Y707951D01*
X1037431Y706809D01*
X1033622Y703000D01*
X1038954D01*
X1040745Y709475D02*
X1041506Y709856D01*
X1042649Y710998D01*
Y703000D01*
X1261000Y612371D02*
Y604373D01*
Y612371D02*
X1264428D01*
X1265570Y611991D01*
X1265951Y611610D01*
X1266332Y610848D01*
Y610086D01*
X1265951Y609324D01*
X1265570Y608944D01*
X1264428Y608563D01*
X1261000D01*
X1263666D02*
X1266332Y604373D01*
X1268503Y610467D02*
Y610848D01*
X1268884Y611610D01*
X1269265Y611991D01*
X1270027Y612371D01*
X1271550D01*
X1272312Y611991D01*
X1272693Y611610D01*
X1273074Y610848D01*
Y610086D01*
X1272693Y609324D01*
X1271931Y608182D01*
X1268122Y604373D01*
X1273455D01*
X1275625Y610467D02*
Y610848D01*
X1276006Y611610D01*
X1276387Y611991D01*
X1277149Y612371D01*
X1278672D01*
X1279434Y611991D01*
X1279815Y611610D01*
X1280196Y610848D01*
Y610086D01*
X1279815Y609324D01*
X1279053Y608182D01*
X1275245Y604373D01*
X1280577D01*
X1006000Y740998D02*
Y733000D01*
Y740998D02*
X1009428D01*
X1010570Y740618D01*
X1010951Y740237D01*
X1011332Y739475D01*
Y738713D01*
X1010951Y737951D01*
X1010570Y737570D01*
X1009428Y737190D01*
X1006000D01*
X1008666D02*
X1011332Y733000D01*
X1013503Y739094D02*
Y739475D01*
X1013884Y740237D01*
X1014265Y740618D01*
X1015027Y740998D01*
X1016550D01*
X1017312Y740618D01*
X1017693Y740237D01*
X1018074Y739475D01*
Y738713D01*
X1017693Y737951D01*
X1016931Y736809D01*
X1013122Y733000D01*
X1018455D01*
X1021006Y740998D02*
X1025196D01*
X1022911Y737951D01*
X1024053D01*
X1024815Y737570D01*
X1025196Y737190D01*
X1025577Y736047D01*
Y735285D01*
X1025196Y734143D01*
X1024434Y733381D01*
X1023291Y733000D01*
X1022149D01*
X1021006Y733381D01*
X1020625Y733762D01*
X1020245Y734524D01*
X1027000Y674698D02*
Y666700D01*
Y674698D02*
X1030428D01*
X1031571Y674318D01*
X1031951Y673937D01*
X1032332Y673175D01*
Y672413D01*
X1031951Y671652D01*
X1031571Y671271D01*
X1030428Y670890D01*
X1027000D01*
X1029666D02*
X1032332Y666700D01*
X1034503Y672794D02*
Y673175D01*
X1034884Y673937D01*
X1035265Y674318D01*
X1036027Y674698D01*
X1037550D01*
X1038312Y674318D01*
X1038693Y673937D01*
X1039074Y673175D01*
Y672413D01*
X1038693Y671652D01*
X1037931Y670509D01*
X1034122Y666700D01*
X1039454D01*
X1045053Y674698D02*
X1041245Y669366D01*
X1046958D01*
X1045053Y674698D02*
Y666700D01*
X944000Y656998D02*
Y649000D01*
Y656998D02*
X947428D01*
X948570Y656617D01*
X948951Y656237D01*
X949332Y655475D01*
Y654713D01*
X948951Y653951D01*
X948570Y653570D01*
X947428Y653190D01*
X944000D01*
X946666D02*
X949332Y649000D01*
X951503Y655094D02*
Y655475D01*
X951884Y656237D01*
X952265Y656617D01*
X953027Y656998D01*
X954550D01*
X955312Y656617D01*
X955693Y656237D01*
X956074Y655475D01*
Y654713D01*
X955693Y653951D01*
X954931Y652809D01*
X951122Y649000D01*
X956454D01*
X962815Y656998D02*
X959006D01*
X958625Y653570D01*
X959006Y653951D01*
X960149Y654332D01*
X961292D01*
X962434Y653951D01*
X963196Y653190D01*
X963577Y652047D01*
Y651285D01*
X963196Y650143D01*
X962434Y649381D01*
X961292Y649000D01*
X960149D01*
X959006Y649381D01*
X958625Y649762D01*
X958245Y650524D01*
X974000Y223728D02*
Y215730D01*
Y223728D02*
X977428D01*
X978570Y223347D01*
X978951Y222967D01*
X979332Y222205D01*
Y221443D01*
X978951Y220681D01*
X978570Y220300D01*
X977428Y219920D01*
X974000D01*
X976666D02*
X979332Y215730D01*
X981503Y221824D02*
Y222205D01*
X981884Y222967D01*
X982265Y223347D01*
X983027Y223728D01*
X984550D01*
X985312Y223347D01*
X985693Y222967D01*
X986074Y222205D01*
Y221443D01*
X985693Y220681D01*
X984931Y219539D01*
X981122Y215730D01*
X986454D01*
X992815Y222586D02*
X992434Y223347D01*
X991292Y223728D01*
X990530D01*
X989387Y223347D01*
X988625Y222205D01*
X988245Y220300D01*
Y218396D01*
X988625Y216873D01*
X989387Y216111D01*
X990530Y215730D01*
X990911D01*
X992053Y216111D01*
X992815Y216873D01*
X993196Y218015D01*
Y218396D01*
X992815Y219539D01*
X992053Y220300D01*
X990911Y220681D01*
X990530D01*
X989387Y220300D01*
X988625Y219539D01*
X988245Y218396D01*
X1253002Y742000D02*
X1261000D01*
X1253002D02*
Y745428D01*
X1253383Y746570D01*
X1253763Y746951D01*
X1254525Y747332D01*
X1255287D01*
X1256049Y746951D01*
X1256430Y746570D01*
X1256810Y745428D01*
Y742000D01*
Y744666D02*
X1261000Y747332D01*
X1254906Y749503D02*
X1254525D01*
X1253763Y749884D01*
X1253383Y750265D01*
X1253002Y751027D01*
Y752550D01*
X1253383Y753312D01*
X1253763Y753693D01*
X1254525Y754074D01*
X1255287D01*
X1256049Y753693D01*
X1257191Y752931D01*
X1261000Y749122D01*
Y754454D01*
X1253002Y761577D02*
X1261000Y757768D01*
X1253002Y756245D02*
Y761577D01*
X1005002Y217000D02*
X1013000D01*
X1005002D02*
Y220428D01*
X1005383Y221570D01*
X1005763Y221951D01*
X1006525Y222332D01*
X1007287D01*
X1008049Y221951D01*
X1008429Y221570D01*
X1008810Y220428D01*
Y217000D01*
Y219666D02*
X1013000Y222332D01*
X1006906Y224503D02*
X1006525D01*
X1005763Y224884D01*
X1005383Y225265D01*
X1005002Y226027D01*
Y227550D01*
X1005383Y228312D01*
X1005763Y228693D01*
X1006525Y229074D01*
X1007287D01*
X1008049Y228693D01*
X1009191Y227931D01*
X1013000Y224122D01*
Y229454D01*
X1005002Y233149D02*
X1005383Y232006D01*
X1006144Y231625D01*
X1006906D01*
X1007668Y232006D01*
X1008049Y232768D01*
X1008429Y234291D01*
X1008810Y235434D01*
X1009572Y236196D01*
X1010334Y236577D01*
X1011477D01*
X1012238Y236196D01*
X1012619Y235815D01*
X1013000Y234672D01*
Y233149D01*
X1012619Y232006D01*
X1012238Y231625D01*
X1011477Y231245D01*
X1010334D01*
X1009572Y231625D01*
X1008810Y232387D01*
X1008429Y233530D01*
X1008049Y235053D01*
X1007668Y235815D01*
X1006906Y236196D01*
X1006144D01*
X1005383Y235815D01*
X1005002Y234672D01*
Y233149D01*
X1230002Y744000D02*
X1238000D01*
X1230002D02*
Y747428D01*
X1230383Y748570D01*
X1230763Y748951D01*
X1231525Y749332D01*
X1232287D01*
X1233049Y748951D01*
X1233429Y748570D01*
X1233810Y747428D01*
Y744000D01*
Y746666D02*
X1238000Y749332D01*
X1231906Y751503D02*
X1231525D01*
X1230763Y751884D01*
X1230383Y752265D01*
X1230002Y753027D01*
Y754550D01*
X1230383Y755312D01*
X1230763Y755693D01*
X1231525Y756074D01*
X1232287D01*
X1233049Y755693D01*
X1234191Y754931D01*
X1238000Y751122D01*
Y756454D01*
X1232668Y763196D02*
X1233810Y762815D01*
X1234572Y762053D01*
X1234953Y760911D01*
Y760530D01*
X1234572Y759387D01*
X1233810Y758625D01*
X1232668Y758245D01*
X1232287D01*
X1231144Y758625D01*
X1230383Y759387D01*
X1230002Y760530D01*
Y760911D01*
X1230383Y762053D01*
X1231144Y762815D01*
X1232668Y763196D01*
X1234572D01*
X1236477Y762815D01*
X1237619Y762053D01*
X1238000Y760911D01*
Y760149D01*
X1237619Y759006D01*
X1236857Y758625D01*
X1172000Y194998D02*
Y187000D01*
Y194998D02*
X1175428D01*
X1176570Y194617D01*
X1176951Y194237D01*
X1177332Y193475D01*
Y192713D01*
X1176951Y191951D01*
X1176570Y191570D01*
X1175428Y191190D01*
X1172000D01*
X1174666D02*
X1177332Y187000D01*
X1179884Y194998D02*
X1184074D01*
X1181788Y191951D01*
X1182931D01*
X1183693Y191570D01*
X1184074Y191190D01*
X1184454Y190047D01*
Y189285D01*
X1184074Y188143D01*
X1183312Y187381D01*
X1182169Y187000D01*
X1181027D01*
X1179884Y187381D01*
X1179503Y187762D01*
X1179122Y188524D01*
X1188530Y194998D02*
X1187387Y194617D01*
X1186625Y193475D01*
X1186245Y191570D01*
Y190428D01*
X1186625Y188524D01*
X1187387Y187381D01*
X1188530Y187000D01*
X1189292D01*
X1190434Y187381D01*
X1191196Y188524D01*
X1191577Y190428D01*
Y191570D01*
X1191196Y193475D01*
X1190434Y194617D01*
X1189292Y194998D01*
X1188530D01*
X1270000Y195998D02*
Y188000D01*
Y195998D02*
X1273428D01*
X1274570Y195617D01*
X1274951Y195237D01*
X1275332Y194475D01*
Y193713D01*
X1274951Y192951D01*
X1274570Y192570D01*
X1273428Y192190D01*
X1270000D01*
X1272666D02*
X1275332Y188000D01*
X1277884Y195998D02*
X1282074D01*
X1279788Y192951D01*
X1280931D01*
X1281693Y192570D01*
X1282074Y192190D01*
X1282455Y191047D01*
Y190285D01*
X1282074Y189143D01*
X1281312Y188381D01*
X1280169Y188000D01*
X1279027D01*
X1277884Y188381D01*
X1277503Y188762D01*
X1277122Y189524D01*
X1284245Y194475D02*
X1285006Y194856D01*
X1286149Y195998D01*
Y188000D01*
X916000Y435998D02*
Y430285D01*
X916381Y429143D01*
X917143Y428381D01*
X918285Y428000D01*
X919047D01*
X920190Y428381D01*
X920951Y429143D01*
X921332Y430285D01*
Y435998D01*
X923541Y434475D02*
X924303Y434856D01*
X925446Y435998D01*
Y428000D01*
X1202898Y272998D02*
Y267285D01*
X1203279Y266143D01*
X1204041Y265381D01*
X1205183Y265000D01*
X1205945D01*
X1207088Y265381D01*
X1207850Y266143D01*
X1208231Y267285D01*
Y272998D01*
X1211201D02*
X1215391D01*
X1213106Y269951D01*
X1214248D01*
X1215010Y269571D01*
X1215391Y269190D01*
X1215772Y268047D01*
Y267285D01*
X1215391Y266143D01*
X1214629Y265381D01*
X1213486Y265000D01*
X1212344D01*
X1211201Y265381D01*
X1210820Y265762D01*
X1210440Y266523D01*
X1198500Y448630D02*
Y440632D01*
Y448630D02*
X1201166D01*
X1202309Y448250D01*
X1203070Y447488D01*
X1203451Y446726D01*
X1203832Y445583D01*
Y443679D01*
X1203451Y442537D01*
X1203070Y441775D01*
X1202309Y441013D01*
X1201166Y440632D01*
X1198500D01*
X1210954Y448630D02*
X1205622Y440632D01*
Y448630D02*
X1210954D01*
X1205622Y440632D02*
X1210954D01*
X1212744Y447107D02*
X1213506Y447488D01*
X1214649Y448630D01*
Y440632D01*
X1184002Y490000D02*
X1192000D01*
X1184002D02*
Y492666D01*
X1184383Y493809D01*
X1185144Y494571D01*
X1185906Y494951D01*
X1187049Y495332D01*
X1188953D01*
X1190096Y494951D01*
X1190857Y494571D01*
X1191619Y493809D01*
X1192000Y492666D01*
Y490000D01*
X1184002Y502454D02*
X1192000Y497122D01*
X1184002D02*
Y502454D01*
X1192000Y497122D02*
Y502454D01*
X1185906Y504626D02*
X1185525D01*
X1184763Y505006D01*
X1184383Y505387D01*
X1184002Y506149D01*
Y507672D01*
X1184383Y508434D01*
X1184763Y508815D01*
X1185525Y509196D01*
X1186287D01*
X1187049Y508815D01*
X1188191Y508053D01*
X1192000Y504245D01*
Y509577D01*
X1020000Y655747D02*
Y647749D01*
Y655747D02*
X1022666D01*
X1023809Y655366D01*
X1024571Y654605D01*
X1024951Y653843D01*
X1025332Y652700D01*
Y650796D01*
X1024951Y649653D01*
X1024571Y648892D01*
X1023809Y648130D01*
X1022666Y647749D01*
X1020000D01*
X1032455Y655747D02*
X1027122Y647749D01*
Y655747D02*
X1032455D01*
X1027122Y647749D02*
X1032455D01*
X1035006Y655747D02*
X1039196D01*
X1036911Y652700D01*
X1038054D01*
X1038815Y652319D01*
X1039196Y651938D01*
X1039577Y650796D01*
Y650034D01*
X1039196Y648892D01*
X1038434Y648130D01*
X1037292Y647749D01*
X1036149D01*
X1035006Y648130D01*
X1034626Y648511D01*
X1034245Y649273D01*
X1418500Y498809D02*
X1421928D01*
X1423070Y499190D01*
X1423451Y499571D01*
X1423832Y500332D01*
Y501475D01*
X1423451Y502237D01*
X1423070Y502617D01*
X1421928Y502998D01*
X1418500D01*
Y495000D01*
X1425622Y501475D02*
X1426384Y501856D01*
X1427527Y502998D01*
Y495000D01*
X1436058Y501856D02*
X1435677Y502617D01*
X1434535Y502998D01*
X1433773D01*
X1432630Y502617D01*
X1431869Y501475D01*
X1431488Y499571D01*
Y497666D01*
X1431869Y496143D01*
X1432630Y495381D01*
X1433773Y495000D01*
X1434154D01*
X1435296Y495381D01*
X1436058Y496143D01*
X1436439Y497285D01*
Y497666D01*
X1436058Y498809D01*
X1435296Y499571D01*
X1434154Y499951D01*
X1433773D01*
X1432630Y499571D01*
X1431869Y498809D01*
X1431488Y497666D01*
X1171461Y428094D02*
X1171080Y428856D01*
X1170319Y429617D01*
X1169557Y429998D01*
X1168034D01*
X1167272Y429617D01*
X1166510Y428856D01*
X1166129Y428094D01*
X1165748Y426951D01*
Y425047D01*
X1166129Y423904D01*
X1166510Y423143D01*
X1167272Y422381D01*
X1168034Y422000D01*
X1169557D01*
X1170319Y422381D01*
X1171080Y423143D01*
X1171461Y423904D01*
X1174470Y429998D02*
X1178660D01*
X1176375Y426951D01*
X1177517D01*
X1178279Y426570D01*
X1178660Y426189D01*
X1179041Y425047D01*
Y424285D01*
X1178660Y423143D01*
X1177898Y422381D01*
X1176755Y422000D01*
X1175613D01*
X1174470Y422381D01*
X1174089Y422762D01*
X1173708Y423523D01*
X1183116Y429998D02*
X1181973Y429617D01*
X1181212Y428475D01*
X1180831Y426570D01*
Y425428D01*
X1181212Y423523D01*
X1181973Y422381D01*
X1183116Y422000D01*
X1183878D01*
X1185020Y422381D01*
X1185782Y423523D01*
X1186163Y425428D01*
Y426570D01*
X1185782Y428475D01*
X1185020Y429617D01*
X1183878Y429998D01*
X1183116D01*
X981000Y586998D02*
Y579000D01*
Y586998D02*
X983666D01*
X984809Y586617D01*
X985570Y585856D01*
X985951Y585094D01*
X986332Y583951D01*
Y582047D01*
X985951Y580904D01*
X985570Y580143D01*
X984809Y579381D01*
X983666Y579000D01*
X981000D01*
X993455Y586998D02*
X988122Y579000D01*
Y586998D02*
X993455D01*
X988122Y579000D02*
X993455D01*
X999815Y586998D02*
X996006D01*
X995625Y583571D01*
X996006Y583951D01*
X997149Y584332D01*
X998291D01*
X999434Y583951D01*
X1000196Y583190D01*
X1000577Y582047D01*
Y581285D01*
X1000196Y580143D01*
X999434Y579381D01*
X998291Y579000D01*
X997149D01*
X996006Y579381D01*
X995625Y579762D01*
X995245Y580523D01*
X655700Y809798D02*
Y804085D01*
X656081Y802943D01*
X656843Y802181D01*
X657985Y801800D01*
X658747D01*
X659890Y802181D01*
X660651Y802943D01*
X661032Y804085D01*
Y809798D01*
X668574D02*
X664765Y801800D01*
X663241Y809798D02*
X668574D01*
X703580Y883998D02*
Y876000D01*
Y883998D02*
X707008D01*
X708150Y883617D01*
X708531Y883237D01*
X708912Y882475D01*
Y881713D01*
X708531Y880951D01*
X708150Y880571D01*
X707008Y880190D01*
X703580D01*
X706246D02*
X708912Y876000D01*
X712607Y883998D02*
X711464Y883617D01*
X711083Y882856D01*
Y882094D01*
X711464Y881332D01*
X712226Y880951D01*
X713749Y880571D01*
X714892Y880190D01*
X715654Y879428D01*
X716034Y878666D01*
Y877523D01*
X715654Y876762D01*
X715273Y876381D01*
X714130Y876000D01*
X712607D01*
X711464Y876381D01*
X711083Y876762D01*
X710702Y877523D01*
Y878666D01*
X711083Y879428D01*
X711845Y880190D01*
X712988Y880571D01*
X714511Y880951D01*
X715273Y881332D01*
X715654Y882094D01*
Y882856D01*
X715273Y883617D01*
X714130Y883998D01*
X712607D01*
X721633D02*
X717825Y878666D01*
X723538D01*
X721633Y883998D02*
Y876000D01*
X734002Y852000D02*
X742000D01*
X734002D02*
Y855428D01*
X734383Y856570D01*
X734763Y856951D01*
X735525Y857332D01*
X736287D01*
X737049Y856951D01*
X737430Y856570D01*
X737810Y855428D01*
Y852000D01*
Y854666D02*
X742000Y857332D01*
X734002Y861027D02*
X734383Y859884D01*
X735144Y859503D01*
X735906D01*
X736668Y859884D01*
X737049Y860646D01*
X737430Y862169D01*
X737810Y863312D01*
X738572Y864074D01*
X739334Y864454D01*
X740477D01*
X741238Y864074D01*
X741619Y863693D01*
X742000Y862550D01*
Y861027D01*
X741619Y859884D01*
X741238Y859503D01*
X740477Y859122D01*
X739334D01*
X738572Y859503D01*
X737810Y860265D01*
X737430Y861407D01*
X737049Y862931D01*
X736668Y863693D01*
X735906Y864074D01*
X735144D01*
X734383Y863693D01*
X734002Y862550D01*
Y861027D01*
Y867006D02*
Y871196D01*
X737049Y868911D01*
Y870053D01*
X737430Y870815D01*
X737810Y871196D01*
X738953Y871577D01*
X739715D01*
X740857Y871196D01*
X741619Y870434D01*
X742000Y869292D01*
Y868149D01*
X741619Y867006D01*
X741238Y866625D01*
X740477Y866245D01*
X736222Y806000D02*
X744220D01*
X736222D02*
Y809428D01*
X736603Y810570D01*
X736983Y810951D01*
X737745Y811332D01*
X738507D01*
X739269Y810951D01*
X739650Y810570D01*
X740030Y809428D01*
Y806000D01*
Y808666D02*
X744220Y811332D01*
X736222Y815027D02*
X736603Y813884D01*
X737364Y813503D01*
X738126D01*
X738888Y813884D01*
X739269Y814646D01*
X739650Y816169D01*
X740030Y817312D01*
X740792Y818074D01*
X741554Y818455D01*
X742697D01*
X743458Y818074D01*
X743839Y817693D01*
X744220Y816550D01*
Y815027D01*
X743839Y813884D01*
X743458Y813503D01*
X742697Y813122D01*
X741554D01*
X740792Y813503D01*
X740030Y814265D01*
X739650Y815407D01*
X739269Y816931D01*
X738888Y817693D01*
X738126Y818074D01*
X737364D01*
X736603Y817693D01*
X736222Y816550D01*
Y815027D01*
X738126Y820625D02*
X737745D01*
X736983Y821006D01*
X736603Y821387D01*
X736222Y822149D01*
Y823672D01*
X736603Y824434D01*
X736983Y824815D01*
X737745Y825196D01*
X738507D01*
X739269Y824815D01*
X740411Y824053D01*
X744220Y820245D01*
Y825577D01*
X692002Y796000D02*
X700000D01*
X692002D02*
Y799428D01*
X692383Y800571D01*
X692763Y800951D01*
X693525Y801332D01*
X694287D01*
X695049Y800951D01*
X695430Y800571D01*
X695810Y799428D01*
Y796000D01*
Y798666D02*
X700000Y801332D01*
X692002Y805027D02*
X692383Y803884D01*
X693144Y803503D01*
X693906D01*
X694668Y803884D01*
X695049Y804646D01*
X695430Y806169D01*
X695810Y807312D01*
X696572Y808074D01*
X697334Y808455D01*
X698476D01*
X699238Y808074D01*
X699619Y807693D01*
X700000Y806550D01*
Y805027D01*
X699619Y803884D01*
X699238Y803503D01*
X698476Y803122D01*
X697334D01*
X696572Y803503D01*
X695810Y804265D01*
X695430Y805407D01*
X695049Y806931D01*
X694668Y807693D01*
X693906Y808074D01*
X693144D01*
X692383Y807693D01*
X692002Y806550D01*
Y805027D01*
X693525Y810245D02*
X693144Y811006D01*
X692002Y812149D01*
X700000D01*
X509906Y553513D02*
X509144Y553132D01*
X508383Y552370D01*
X508002Y551609D01*
Y550085D01*
X508383Y549324D01*
X509144Y548562D01*
X509906Y548181D01*
X511049Y547800D01*
X512953D01*
X514096Y548181D01*
X514857Y548562D01*
X515619Y549324D01*
X516000Y550085D01*
Y551609D01*
X515619Y552370D01*
X514857Y553132D01*
X514096Y553513D01*
X509906Y556141D02*
X509525D01*
X508763Y556522D01*
X508383Y556903D01*
X508002Y557665D01*
Y559188D01*
X508383Y559950D01*
X508763Y560331D01*
X509525Y560712D01*
X510287D01*
X511049Y560331D01*
X512191Y559569D01*
X516000Y555760D01*
Y561092D01*
X508002Y566691D02*
X513334Y562882D01*
Y568596D01*
X508002Y566691D02*
X516000D01*
X464906Y311713D02*
X464144Y311332D01*
X463383Y310570D01*
X463002Y309809D01*
Y308285D01*
X463383Y307523D01*
X464144Y306762D01*
X464906Y306381D01*
X466049Y306000D01*
X467953D01*
X469096Y306381D01*
X469857Y306762D01*
X470619Y307523D01*
X471000Y308285D01*
Y309809D01*
X470619Y310570D01*
X469857Y311332D01*
X469096Y311713D01*
X464906Y314341D02*
X464525D01*
X463763Y314722D01*
X463383Y315103D01*
X463002Y315865D01*
Y317388D01*
X463383Y318150D01*
X463763Y318531D01*
X464525Y318911D01*
X465287D01*
X466049Y318531D01*
X467191Y317769D01*
X471000Y313960D01*
Y319292D01*
X463002Y321844D02*
Y326034D01*
X466049Y323749D01*
Y324891D01*
X466429Y325653D01*
X466810Y326034D01*
X467953Y326415D01*
X468715D01*
X469857Y326034D01*
X470619Y325272D01*
X471000Y324129D01*
Y322987D01*
X470619Y321844D01*
X470238Y321463D01*
X469477Y321082D01*
X644713Y879094D02*
X644332Y879856D01*
X643570Y880617D01*
X642809Y880998D01*
X641285D01*
X640524Y880617D01*
X639762Y879856D01*
X639381Y879094D01*
X639000Y877951D01*
Y876047D01*
X639381Y874904D01*
X639762Y874143D01*
X640524Y873381D01*
X641285Y873000D01*
X642809D01*
X643570Y873381D01*
X644332Y874143D01*
X644713Y874904D01*
X647341Y879094D02*
Y879475D01*
X647722Y880237D01*
X648103Y880617D01*
X648865Y880998D01*
X650388D01*
X651150Y880617D01*
X651531Y880237D01*
X651911Y879475D01*
Y878713D01*
X651531Y877951D01*
X650769Y876809D01*
X646960Y873000D01*
X652292D01*
X654463Y879094D02*
Y879475D01*
X654844Y880237D01*
X655225Y880617D01*
X655987Y880998D01*
X657510D01*
X658272Y880617D01*
X658653Y880237D01*
X659034Y879475D01*
Y878713D01*
X658653Y877951D01*
X657891Y876809D01*
X654082Y873000D01*
X659415D01*
X692000Y30998D02*
Y23000D01*
Y30998D02*
X694666D01*
X695809Y30617D01*
X696570Y29856D01*
X696951Y29094D01*
X697332Y27951D01*
Y26047D01*
X696951Y24904D01*
X696570Y24143D01*
X695809Y23381D01*
X694666Y23000D01*
X692000D01*
X704454Y30998D02*
X699122Y23000D01*
Y30998D02*
X704454D01*
X699122Y23000D02*
X704454D01*
X710815Y29856D02*
X710434Y30617D01*
X709292Y30998D01*
X708530D01*
X707387Y30617D01*
X706625Y29475D01*
X706245Y27571D01*
Y25666D01*
X706625Y24143D01*
X707387Y23381D01*
X708530Y23000D01*
X708911D01*
X710053Y23381D01*
X710815Y24143D01*
X711196Y25285D01*
Y25666D01*
X710815Y26809D01*
X710053Y27571D01*
X708911Y27951D01*
X708530D01*
X707387Y27571D01*
X706625Y26809D01*
X706245Y25666D01*
X204002Y304500D02*
X212000D01*
X204002D02*
Y307928D01*
X204383Y309071D01*
X204763Y309452D01*
X205525Y309832D01*
X206287D01*
X207049Y309452D01*
X207430Y309071D01*
X207810Y307928D01*
Y304500D01*
Y307166D02*
X212000Y309832D01*
X204002Y316955D02*
X212000Y313146D01*
X204002Y311623D02*
Y316955D01*
X206668Y323696D02*
X207810Y323315D01*
X208572Y322553D01*
X208953Y321411D01*
Y321030D01*
X208572Y319887D01*
X207810Y319126D01*
X206668Y318745D01*
X206287D01*
X205144Y319126D01*
X204383Y319887D01*
X204002Y321030D01*
Y321411D01*
X204383Y322553D01*
X205144Y323315D01*
X206668Y323696D01*
X208572D01*
X210476Y323315D01*
X211619Y322553D01*
X212000Y321411D01*
Y320649D01*
X211619Y319507D01*
X210857Y319126D01*
X316002Y462588D02*
X321715D01*
X322857Y462969D01*
X323619Y463731D01*
X324000Y464873D01*
Y465635D01*
X323619Y466778D01*
X322857Y467539D01*
X321715Y467920D01*
X316002D01*
X317144Y474700D02*
X316383Y474319D01*
X316002Y473176D01*
Y472415D01*
X316383Y471272D01*
X317525Y470510D01*
X319430Y470129D01*
X321334D01*
X322857Y470510D01*
X323619Y471272D01*
X324000Y472415D01*
Y472795D01*
X323619Y473938D01*
X322857Y474700D01*
X321715Y475081D01*
X321334D01*
X320191Y474700D01*
X319430Y473938D01*
X319049Y472795D01*
Y472415D01*
X319430Y471272D01*
X320191Y470510D01*
X321334Y470129D01*
X283500Y625498D02*
Y619785D01*
X283881Y618642D01*
X284643Y617880D01*
X285785Y617499D01*
X286547D01*
X287690Y617880D01*
X288451Y618642D01*
X288832Y619785D01*
Y625498D01*
X295612D02*
X291803D01*
X291422Y622070D01*
X291803Y622451D01*
X292946Y622832D01*
X294088D01*
X295231Y622451D01*
X295993Y621689D01*
X296373Y620546D01*
Y619785D01*
X295993Y618642D01*
X295231Y617880D01*
X294088Y617499D01*
X292946D01*
X291803Y617880D01*
X291422Y618261D01*
X291041Y619023D01*
X275000Y745998D02*
Y740285D01*
X275381Y739143D01*
X276143Y738381D01*
X277285Y738000D01*
X278047D01*
X279190Y738381D01*
X279951Y739143D01*
X280332Y740285D01*
Y745998D01*
X286350D02*
X282541Y740666D01*
X288254D01*
X286350Y745998D02*
Y738000D01*
X343500Y536998D02*
Y529000D01*
Y536998D02*
X346928D01*
X348071Y536617D01*
X348451Y536237D01*
X348832Y535475D01*
Y534713D01*
X348451Y533951D01*
X348071Y533571D01*
X346928Y533190D01*
X343500D01*
X346166D02*
X348832Y529000D01*
X355955Y536998D02*
X352146Y529000D01*
X350622Y536998D02*
X355955D01*
X359649D02*
X358507Y536617D01*
X358126Y535856D01*
Y535094D01*
X358507Y534332D01*
X359268Y533951D01*
X360792Y533571D01*
X361934Y533190D01*
X362696Y532428D01*
X363077Y531666D01*
Y530523D01*
X362696Y529762D01*
X362315Y529381D01*
X361173Y529000D01*
X359649D01*
X358507Y529381D01*
X358126Y529762D01*
X357745Y530523D01*
Y531666D01*
X358126Y532428D01*
X358887Y533190D01*
X360030Y533571D01*
X361553Y533951D01*
X362315Y534332D01*
X362696Y535094D01*
Y535856D01*
X362315Y536617D01*
X361173Y536998D01*
X359649D01*
X275000Y479598D02*
Y471600D01*
Y479598D02*
X278428D01*
X279570Y479217D01*
X279951Y478837D01*
X280332Y478075D01*
Y477313D01*
X279951Y476551D01*
X279570Y476171D01*
X278428Y475790D01*
X275000D01*
X277666D02*
X280332Y471600D01*
X287454Y479598D02*
X283646Y471600D01*
X282122Y479598D02*
X287454D01*
X293815D02*
X290006D01*
X289625Y476171D01*
X290006Y476551D01*
X291149Y476932D01*
X292292D01*
X293434Y476551D01*
X294196Y475790D01*
X294577Y474647D01*
Y473885D01*
X294196Y472743D01*
X293434Y471981D01*
X292292Y471600D01*
X291149D01*
X290006Y471981D01*
X289625Y472362D01*
X289245Y473124D01*
X278000Y349998D02*
Y342000D01*
Y349998D02*
X281428D01*
X282570Y349617D01*
X282951Y349237D01*
X283332Y348475D01*
Y347713D01*
X282951Y346951D01*
X282570Y346571D01*
X281428Y346190D01*
X278000D01*
X280666D02*
X283332Y342000D01*
X290455Y349998D02*
X286646Y342000D01*
X285122Y349998D02*
X290455D01*
X296053D02*
X292245Y344666D01*
X297958D01*
X296053Y349998D02*
Y342000D01*
X191002Y582000D02*
X199000D01*
X191002D02*
Y585428D01*
X191383Y586571D01*
X191763Y586951D01*
X192525Y587332D01*
X193287D01*
X194049Y586951D01*
X194430Y586571D01*
X194810Y585428D01*
Y582000D01*
Y584666D02*
X199000Y587332D01*
X192144Y593693D02*
X191383Y593312D01*
X191002Y592169D01*
Y591408D01*
X191383Y590265D01*
X192525Y589503D01*
X194430Y589122D01*
X196334D01*
X197857Y589503D01*
X198619Y590265D01*
X199000Y591408D01*
Y591788D01*
X198619Y592931D01*
X197857Y593693D01*
X196715Y594074D01*
X196334D01*
X195191Y593693D01*
X194430Y592931D01*
X194049Y591788D01*
Y591408D01*
X194430Y590265D01*
X195191Y589503D01*
X196334Y589122D01*
X192906Y596207D02*
X192525D01*
X191763Y596587D01*
X191383Y596968D01*
X191002Y597730D01*
Y599254D01*
X191383Y600015D01*
X191763Y600396D01*
X192525Y600777D01*
X193287D01*
X194049Y600396D01*
X195191Y599634D01*
X199000Y595826D01*
Y601158D01*
X229252Y586003D02*
X237250D01*
X229252D02*
Y589431D01*
X229633Y590574D01*
X230014Y590955D01*
X230775Y591335D01*
X231537D01*
X232299Y590955D01*
X232680Y590574D01*
X233060Y589431D01*
Y586003D01*
Y588670D02*
X237250Y591335D01*
X229252Y597696D02*
Y593887D01*
X232680Y593507D01*
X232299Y593887D01*
X231918Y595030D01*
Y596173D01*
X232299Y597315D01*
X233060Y598077D01*
X234203Y598458D01*
X234965D01*
X236107Y598077D01*
X236869Y597315D01*
X237250Y596173D01*
Y595030D01*
X236869Y593887D01*
X236488Y593507D01*
X235727Y593126D01*
X231918Y605199D02*
X233060Y604818D01*
X233822Y604057D01*
X234203Y602914D01*
Y602533D01*
X233822Y601390D01*
X233060Y600629D01*
X231918Y600248D01*
X231537D01*
X230394Y600629D01*
X229633Y601390D01*
X229252Y602533D01*
Y602914D01*
X229633Y604057D01*
X230394Y604818D01*
X231918Y605199D01*
X233822D01*
X235727Y604818D01*
X236869Y604057D01*
X237250Y602914D01*
Y602152D01*
X236869Y601010D01*
X236107Y600629D01*
X343500Y786595D02*
Y778597D01*
Y786595D02*
X346928D01*
X348071Y786214D01*
X348451Y785833D01*
X348832Y785071D01*
Y784310D01*
X348451Y783548D01*
X348071Y783167D01*
X346928Y782786D01*
X343500D01*
X346166D02*
X348832Y778597D01*
X355193Y786595D02*
X351384D01*
X351003Y783167D01*
X351384Y783548D01*
X352527Y783929D01*
X353669D01*
X354812Y783548D01*
X355574Y782786D01*
X355955Y781644D01*
Y780882D01*
X355574Y779739D01*
X354812Y778978D01*
X353669Y778597D01*
X352527D01*
X351384Y778978D01*
X351003Y779359D01*
X350622Y780120D01*
X362315Y786595D02*
X358507D01*
X358126Y783167D01*
X358507Y783548D01*
X359649Y783929D01*
X360792D01*
X361934Y783548D01*
X362696Y782786D01*
X363077Y781644D01*
Y780882D01*
X362696Y779739D01*
X361934Y778978D01*
X360792Y778597D01*
X359649D01*
X358507Y778978D01*
X358126Y779359D01*
X357745Y780120D01*
X201000Y782998D02*
Y775000D01*
Y782998D02*
X204428D01*
X205571Y782617D01*
X205951Y782237D01*
X206332Y781475D01*
Y780713D01*
X205951Y779951D01*
X205571Y779570D01*
X204428Y779190D01*
X201000D01*
X203666D02*
X206332Y775000D01*
X211931Y782998D02*
X208122Y777666D01*
X213835D01*
X211931Y782998D02*
Y775000D01*
X220196Y780332D02*
X219815Y779190D01*
X219053Y778428D01*
X217911Y778047D01*
X217530D01*
X216387Y778428D01*
X215625Y779190D01*
X215245Y780332D01*
Y780713D01*
X215625Y781856D01*
X216387Y782617D01*
X217530Y782998D01*
X217911D01*
X219053Y782617D01*
X219815Y781856D01*
X220196Y780332D01*
Y778428D01*
X219815Y776524D01*
X219053Y775381D01*
X217911Y775000D01*
X217149D01*
X216006Y775381D01*
X215625Y776143D01*
X310002Y750000D02*
X318000D01*
X310002D02*
Y753428D01*
X310383Y754570D01*
X310763Y754951D01*
X311525Y755332D01*
X312287D01*
X313049Y754951D01*
X313430Y754570D01*
X313810Y753428D01*
Y750000D01*
Y752666D02*
X318000Y755332D01*
X310002Y760931D02*
X315334Y757122D01*
Y762835D01*
X310002Y760931D02*
X318000D01*
X310002Y768053D02*
X315334Y764245D01*
Y769958D01*
X310002Y768053D02*
X318000D01*
X385002Y735000D02*
X393000D01*
X385002D02*
Y738428D01*
X385383Y739570D01*
X385763Y739951D01*
X386525Y740332D01*
X387287D01*
X388049Y739951D01*
X388430Y739570D01*
X388810Y738428D01*
Y735000D01*
Y737666D02*
X393000Y740332D01*
X385002Y745931D02*
X390334Y742122D01*
Y747835D01*
X385002Y745931D02*
X393000D01*
X385002Y750006D02*
Y754196D01*
X388049Y751911D01*
Y753053D01*
X388430Y753815D01*
X388810Y754196D01*
X389953Y754577D01*
X390715D01*
X391857Y754196D01*
X392619Y753434D01*
X393000Y752292D01*
Y751149D01*
X392619Y750006D01*
X392238Y749625D01*
X391477Y749245D01*
X188000Y753998D02*
Y746000D01*
Y753998D02*
X191428D01*
X192570Y753617D01*
X192951Y753237D01*
X193332Y752475D01*
Y751713D01*
X192951Y750951D01*
X192570Y750571D01*
X191428Y750190D01*
X188000D01*
X190666D02*
X193332Y746000D01*
X198931Y753998D02*
X195122Y748666D01*
X200835D01*
X198931Y753998D02*
Y746000D01*
X202245Y752475D02*
X203006Y752856D01*
X204149Y753998D01*
Y746000D01*
X275000Y490598D02*
Y482600D01*
Y490598D02*
X278428D01*
X279570Y490217D01*
X279951Y489837D01*
X280332Y489075D01*
Y488313D01*
X279951Y487551D01*
X279570Y487170D01*
X278428Y486790D01*
X275000D01*
X277666D02*
X280332Y482600D01*
X282884Y490598D02*
X287074D01*
X284788Y487551D01*
X285931D01*
X286693Y487170D01*
X287074Y486790D01*
X287454Y485647D01*
Y484885D01*
X287074Y483743D01*
X286312Y482981D01*
X285169Y482600D01*
X284027D01*
X282884Y482981D01*
X282503Y483362D01*
X282122Y484123D01*
X294196Y487932D02*
X293815Y486790D01*
X293053Y486028D01*
X291911Y485647D01*
X291530D01*
X290387Y486028D01*
X289625Y486790D01*
X289245Y487932D01*
Y488313D01*
X289625Y489456D01*
X290387Y490217D01*
X291530Y490598D01*
X291911D01*
X293053Y490217D01*
X293815Y489456D01*
X294196Y487932D01*
Y486028D01*
X293815Y484123D01*
X293053Y482981D01*
X291911Y482600D01*
X291149D01*
X290006Y482981D01*
X289625Y483743D01*
X257002Y775000D02*
X265000D01*
X257002D02*
Y778428D01*
X257383Y779570D01*
X257763Y779951D01*
X258525Y780332D01*
X259287D01*
X260049Y779951D01*
X260430Y779570D01*
X260810Y778428D01*
Y775000D01*
Y777666D02*
X265000Y780332D01*
X257002Y782884D02*
Y787074D01*
X260049Y784788D01*
Y785931D01*
X260430Y786693D01*
X260810Y787074D01*
X261953Y787455D01*
X262715D01*
X263857Y787074D01*
X264619Y786312D01*
X265000Y785169D01*
Y784027D01*
X264619Y782884D01*
X264238Y782503D01*
X263477Y782122D01*
X258144Y793815D02*
X257383Y793434D01*
X257002Y792291D01*
Y791530D01*
X257383Y790387D01*
X258525Y789625D01*
X260430Y789245D01*
X262334D01*
X263857Y789625D01*
X264619Y790387D01*
X265000Y791530D01*
Y791911D01*
X264619Y793053D01*
X263857Y793815D01*
X262715Y794196D01*
X262334D01*
X261191Y793815D01*
X260430Y793053D01*
X260049Y791911D01*
Y791530D01*
X260430Y790387D01*
X261191Y789625D01*
X262334Y789245D01*
X323002Y660400D02*
X331000D01*
X323002D02*
Y663828D01*
X323383Y664970D01*
X323763Y665351D01*
X324525Y665732D01*
X325287D01*
X326049Y665351D01*
X326429Y664970D01*
X326810Y663828D01*
Y660400D01*
Y663066D02*
X331000Y665732D01*
X323002Y668284D02*
Y672474D01*
X326049Y670188D01*
Y671331D01*
X326429Y672093D01*
X326810Y672474D01*
X327953Y672855D01*
X328715D01*
X329857Y672474D01*
X330619Y671712D01*
X331000Y670569D01*
Y669427D01*
X330619Y668284D01*
X330238Y667903D01*
X329477Y667522D01*
X323002Y679215D02*
Y675406D01*
X326429Y675025D01*
X326049Y675406D01*
X325668Y676549D01*
Y677691D01*
X326049Y678834D01*
X326810Y679596D01*
X327953Y679977D01*
X328715D01*
X329857Y679596D01*
X330619Y678834D01*
X331000Y677691D01*
Y676549D01*
X330619Y675406D01*
X330238Y675025D01*
X329477Y674645D01*
X232000Y677998D02*
Y670000D01*
Y677998D02*
X235428D01*
X236570Y677617D01*
X236951Y677237D01*
X237332Y676475D01*
Y675713D01*
X236951Y674951D01*
X236570Y674570D01*
X235428Y674190D01*
X232000D01*
X234666D02*
X237332Y670000D01*
X239884Y677998D02*
X244074D01*
X241788Y674951D01*
X242931D01*
X243693Y674570D01*
X244074Y674190D01*
X244454Y673047D01*
Y672285D01*
X244074Y671143D01*
X243312Y670381D01*
X242169Y670000D01*
X241027D01*
X239884Y670381D01*
X239503Y670762D01*
X239122Y671524D01*
X250053Y677998D02*
X246245Y672666D01*
X251958D01*
X250053Y677998D02*
Y670000D01*
X310002Y651597D02*
X318000D01*
X310002D02*
Y655024D01*
X310383Y656167D01*
X310763Y656548D01*
X311525Y656929D01*
X312287D01*
X313049Y656548D01*
X313430Y656167D01*
X313810Y655024D01*
Y651597D01*
Y654263D02*
X318000Y656929D01*
X310002Y659481D02*
Y663670D01*
X313049Y661385D01*
Y662528D01*
X313430Y663289D01*
X313810Y663670D01*
X314953Y664051D01*
X315715D01*
X316857Y663670D01*
X317619Y662909D01*
X318000Y661766D01*
Y660623D01*
X317619Y659481D01*
X317238Y659100D01*
X316476Y658719D01*
X311906Y666222D02*
X311525D01*
X310763Y666603D01*
X310383Y666984D01*
X310002Y667746D01*
Y669269D01*
X310383Y670031D01*
X310763Y670412D01*
X311525Y670793D01*
X312287D01*
X313049Y670412D01*
X314191Y669650D01*
X318000Y665841D01*
Y671173D01*
X374285Y769998D02*
X373523Y769617D01*
X372762Y768856D01*
X372381Y768094D01*
X372000Y766951D01*
Y765047D01*
X372381Y763904D01*
X372762Y763143D01*
X373523Y762381D01*
X374285Y762000D01*
X375809D01*
X376570Y762381D01*
X377332Y763143D01*
X377713Y763904D01*
X378094Y765047D01*
Y766951D01*
X377713Y768094D01*
X377332Y768856D01*
X376570Y769617D01*
X375809Y769998D01*
X374285D01*
X375428Y763523D02*
X377713Y761238D01*
X384911Y767332D02*
X384531Y766190D01*
X383769Y765428D01*
X382626Y765047D01*
X382245D01*
X381103Y765428D01*
X380341Y766190D01*
X379960Y767332D01*
Y767713D01*
X380341Y768856D01*
X381103Y769617D01*
X382245Y769998D01*
X382626D01*
X383769Y769617D01*
X384531Y768856D01*
X384911Y767332D01*
Y765428D01*
X384531Y763523D01*
X383769Y762381D01*
X382626Y762000D01*
X381865D01*
X380722Y762381D01*
X380341Y763143D01*
X279285Y640998D02*
X278524Y640617D01*
X277762Y639856D01*
X277381Y639094D01*
X277000Y637951D01*
Y636047D01*
X277381Y634904D01*
X277762Y634143D01*
X278524Y633381D01*
X279285Y633000D01*
X280809D01*
X281570Y633381D01*
X282332Y634143D01*
X282713Y634904D01*
X283094Y636047D01*
Y637951D01*
X282713Y639094D01*
X282332Y639856D01*
X281570Y640617D01*
X280809Y640998D01*
X279285D01*
X280428Y634524D02*
X282713Y632238D01*
X286865Y640998D02*
X285722Y640617D01*
X285341Y639856D01*
Y639094D01*
X285722Y638332D01*
X286484Y637951D01*
X288007Y637570D01*
X289150Y637190D01*
X289911Y636428D01*
X290292Y635666D01*
Y634524D01*
X289911Y633762D01*
X289531Y633381D01*
X288388Y633000D01*
X286865D01*
X285722Y633381D01*
X285341Y633762D01*
X284960Y634524D01*
Y635666D01*
X285341Y636428D01*
X286103Y637190D01*
X287246Y637570D01*
X288769Y637951D01*
X289531Y638332D01*
X289911Y639094D01*
Y639856D01*
X289531Y640617D01*
X288388Y640998D01*
X286865D01*
X354487Y679998D02*
X353725Y679617D01*
X352964Y678856D01*
X352583Y678094D01*
X352202Y676951D01*
Y675047D01*
X352583Y673904D01*
X352964Y673143D01*
X353725Y672381D01*
X354487Y672000D01*
X356011D01*
X356772Y672381D01*
X357534Y673143D01*
X357915Y673904D01*
X358296Y675047D01*
Y676951D01*
X357915Y678094D01*
X357534Y678856D01*
X356772Y679617D01*
X356011Y679998D01*
X354487D01*
X355630Y673523D02*
X357915Y671238D01*
X365494Y679998D02*
X361685Y672000D01*
X360162Y679998D02*
X365494D01*
X593447Y838905D02*
X596875D01*
X598017Y839286D01*
X598398Y839667D01*
X598779Y840428D01*
Y841571D01*
X598398Y842333D01*
X598017Y842714D01*
X596875Y843095D01*
X593447D01*
Y835096D01*
X600569Y841571D02*
X601331Y841952D01*
X602473Y843095D01*
Y835096D01*
X606815Y841190D02*
Y841571D01*
X607196Y842333D01*
X607577Y842714D01*
X608339Y843095D01*
X609862D01*
X610624Y842714D01*
X611005Y842333D01*
X611386Y841571D01*
Y840809D01*
X611005Y840048D01*
X610243Y838905D01*
X606435Y835096D01*
X611767D01*
X151000Y870112D02*
X154428D01*
X155570Y870493D01*
X155951Y870874D01*
X156332Y871636D01*
Y872778D01*
X155951Y873540D01*
X155570Y873921D01*
X154428Y874302D01*
X151000D01*
Y866303D01*
X163074Y871636D02*
X162693Y870493D01*
X161931Y869731D01*
X160788Y869350D01*
X160408D01*
X159265Y869731D01*
X158503Y870493D01*
X158122Y871636D01*
Y872017D01*
X158503Y873159D01*
X159265Y873921D01*
X160408Y874302D01*
X160788D01*
X161931Y873921D01*
X162693Y873159D01*
X163074Y871636D01*
Y869731D01*
X162693Y867827D01*
X161931Y866684D01*
X160788Y866303D01*
X160027D01*
X158884Y866684D01*
X158503Y867446D01*
X346509Y381378D02*
Y375284D01*
X346128Y374142D01*
X345747Y373761D01*
X344985Y373380D01*
X344224D01*
X343462Y373761D01*
X343081Y374142D01*
X342700Y375284D01*
Y376046D01*
X348566Y379855D02*
X349327Y380236D01*
X350470Y381378D01*
Y373380D01*
X235500Y479598D02*
Y471600D01*
Y479598D02*
X238166D01*
X239309Y479217D01*
X240070Y478456D01*
X240451Y477694D01*
X240832Y476551D01*
Y474647D01*
X240451Y473504D01*
X240070Y472743D01*
X239309Y471981D01*
X238166Y471600D01*
X235500D01*
X247193Y478456D02*
X246812Y479217D01*
X245669Y479598D01*
X244907D01*
X243765Y479217D01*
X243003Y478075D01*
X242622Y476171D01*
Y474266D01*
X243003Y472743D01*
X243765Y471981D01*
X244907Y471600D01*
X245288D01*
X246431Y471981D01*
X247193Y472743D01*
X247574Y473885D01*
Y474266D01*
X247193Y475409D01*
X246431Y476171D01*
X245288Y476551D01*
X244907D01*
X243765Y476171D01*
X243003Y475409D01*
X242622Y474266D01*
X217823Y370800D02*
X225821D01*
X217823D02*
Y373466D01*
X218204Y374609D01*
X218966Y375370D01*
X219728Y375751D01*
X220870Y376132D01*
X222775D01*
X223917Y375751D01*
X224679Y375370D01*
X225441Y374609D01*
X225821Y373466D01*
Y370800D01*
X217823Y382493D02*
Y378684D01*
X221251Y378303D01*
X220870Y378684D01*
X220489Y379827D01*
Y380969D01*
X220870Y382112D01*
X221632Y382873D01*
X222775Y383254D01*
X223536D01*
X224679Y382873D01*
X225441Y382112D01*
X225821Y380969D01*
Y379827D01*
X225441Y378684D01*
X225060Y378303D01*
X224298Y377922D01*
X235500Y288998D02*
Y281000D01*
Y288998D02*
X238166D01*
X239309Y288617D01*
X240070Y287856D01*
X240451Y287094D01*
X240832Y285951D01*
Y284047D01*
X240451Y282904D01*
X240070Y282143D01*
X239309Y281381D01*
X238166Y281000D01*
X235500D01*
X246431Y288998D02*
X242622Y283666D01*
X248335D01*
X246431Y288998D02*
Y281000D01*
X808713Y25094D02*
X808332Y25856D01*
X807570Y26617D01*
X806809Y26998D01*
X805285D01*
X804523Y26617D01*
X803762Y25856D01*
X803381Y25094D01*
X803000Y23951D01*
Y22047D01*
X803381Y20904D01*
X803762Y20143D01*
X804523Y19381D01*
X805285Y19000D01*
X806809D01*
X807570Y19381D01*
X808332Y20143D01*
X808713Y20904D01*
X811341Y25094D02*
Y25475D01*
X811722Y26237D01*
X812103Y26617D01*
X812865Y26998D01*
X814388D01*
X815150Y26617D01*
X815531Y26237D01*
X815911Y25475D01*
Y24713D01*
X815531Y23951D01*
X814769Y22809D01*
X810960Y19000D01*
X816292D01*
X818083Y25475D02*
X818844Y25856D01*
X819987Y26998D01*
Y19000D01*
X215906Y508713D02*
X215144Y508332D01*
X214383Y507570D01*
X214002Y506809D01*
Y505285D01*
X214383Y504524D01*
X215144Y503762D01*
X215906Y503381D01*
X217049Y503000D01*
X218953D01*
X220096Y503381D01*
X220857Y503762D01*
X221619Y504524D01*
X222000Y505285D01*
Y506809D01*
X221619Y507570D01*
X220857Y508332D01*
X220096Y508713D01*
X215525Y510960D02*
X215144Y511722D01*
X214002Y512865D01*
X222000D01*
X214002Y518730D02*
X214383Y517587D01*
X215144Y517206D01*
X215906D01*
X216668Y517587D01*
X217049Y518349D01*
X217430Y519873D01*
X217810Y521015D01*
X218572Y521777D01*
X219334Y522158D01*
X220476D01*
X221238Y521777D01*
X221619Y521396D01*
X222000Y520253D01*
Y518730D01*
X221619Y517587D01*
X221238Y517206D01*
X220476Y516826D01*
X219334D01*
X218572Y517206D01*
X217810Y517968D01*
X217430Y519111D01*
X217049Y520634D01*
X216668Y521396D01*
X215906Y521777D01*
X215144D01*
X214383Y521396D01*
X214002Y520253D01*
Y518730D01*
X327966Y600094D02*
X327586Y600856D01*
X326824Y601617D01*
X326062Y601998D01*
X324539D01*
X323777Y601617D01*
X323015Y600856D01*
X322634Y600094D01*
X322253Y598951D01*
Y597047D01*
X322634Y595904D01*
X323015Y595143D01*
X323777Y594381D01*
X324539Y594000D01*
X326062D01*
X326824Y594381D01*
X327586Y595143D01*
X327966Y595904D01*
X330214Y600475D02*
X330975Y600856D01*
X332118Y601998D01*
Y594000D01*
X341411Y601998D02*
X337603Y594000D01*
X336079Y601998D02*
X341411D01*
X241411Y497092D02*
X241031Y497854D01*
X240269Y498616D01*
X239507Y498997D01*
X237983D01*
X237222Y498616D01*
X236460Y497854D01*
X236079Y497092D01*
X235698Y495950D01*
Y494045D01*
X236079Y492903D01*
X236460Y492141D01*
X237222Y491379D01*
X237983Y490998D01*
X239507D01*
X240269Y491379D01*
X241031Y492141D01*
X241411Y492903D01*
X243659Y497473D02*
X244420Y497854D01*
X245563Y498997D01*
Y490998D01*
X254094Y498997D02*
X250286D01*
X249905Y495569D01*
X250286Y495950D01*
X251428Y496331D01*
X252571D01*
X253713Y495950D01*
X254475Y495188D01*
X254856Y494045D01*
Y493284D01*
X254475Y492141D01*
X253713Y491379D01*
X252571Y490998D01*
X251428D01*
X250286Y491379D01*
X249905Y491760D01*
X249524Y492522D01*
X454906Y829034D02*
X454144Y828653D01*
X453383Y827891D01*
X453002Y827130D01*
Y825606D01*
X453383Y824844D01*
X454144Y824083D01*
X454906Y823702D01*
X456049Y823321D01*
X457953D01*
X459096Y823702D01*
X459857Y824083D01*
X460619Y824844D01*
X461000Y825606D01*
Y827130D01*
X460619Y827891D01*
X459857Y828653D01*
X459096Y829034D01*
X454525Y831281D02*
X454144Y832043D01*
X453002Y833186D01*
X461000D01*
X453002Y837908D02*
Y842098D01*
X456049Y839813D01*
Y840955D01*
X456429Y841717D01*
X456810Y842098D01*
X457953Y842479D01*
X458715D01*
X459857Y842098D01*
X460619Y841336D01*
X461000Y840193D01*
Y839051D01*
X460619Y837908D01*
X460238Y837527D01*
X459477Y837147D01*
X241906Y779713D02*
X241144Y779332D01*
X240383Y778570D01*
X240002Y777809D01*
Y776285D01*
X240383Y775524D01*
X241144Y774762D01*
X241906Y774381D01*
X243049Y774000D01*
X244953D01*
X246096Y774381D01*
X246857Y774762D01*
X247619Y775524D01*
X248000Y776285D01*
Y777809D01*
X247619Y778570D01*
X246857Y779332D01*
X246096Y779713D01*
X241525Y781960D02*
X241144Y782722D01*
X240002Y783865D01*
X248000D01*
X241906Y788206D02*
X241525D01*
X240763Y788587D01*
X240383Y788968D01*
X240002Y789730D01*
Y791254D01*
X240383Y792015D01*
X240763Y792396D01*
X241525Y792777D01*
X242287D01*
X243049Y792396D01*
X244191Y791634D01*
X248000Y787826D01*
Y793158D01*
X178713Y825244D02*
X178332Y826006D01*
X177571Y826767D01*
X176809Y827148D01*
X175285D01*
X174524Y826767D01*
X173762Y826006D01*
X173381Y825244D01*
X173000Y824101D01*
Y822197D01*
X173381Y821054D01*
X173762Y820293D01*
X174524Y819531D01*
X175285Y819150D01*
X176809D01*
X177571Y819531D01*
X178332Y820293D01*
X178713Y821054D01*
X180960Y825625D02*
X181722Y826006D01*
X182865Y827148D01*
Y819150D01*
X186826Y825625D02*
X187588Y826006D01*
X188730Y827148D01*
Y819150D01*
X208906Y697713D02*
X208144Y697332D01*
X207383Y696570D01*
X207002Y695809D01*
Y694285D01*
X207383Y693523D01*
X208144Y692762D01*
X208906Y692381D01*
X210049Y692000D01*
X211953D01*
X213096Y692381D01*
X213857Y692762D01*
X214619Y693523D01*
X215000Y694285D01*
Y695809D01*
X214619Y696570D01*
X213857Y697332D01*
X213096Y697713D01*
X208525Y699960D02*
X208144Y700722D01*
X207002Y701865D01*
X215000D01*
X207002Y708111D02*
X207383Y706968D01*
X208525Y706207D01*
X210430Y705826D01*
X211572D01*
X213477Y706207D01*
X214619Y706968D01*
X215000Y708111D01*
Y708873D01*
X214619Y710015D01*
X213477Y710777D01*
X211572Y711158D01*
X210430D01*
X208525Y710777D01*
X207383Y710015D01*
X207002Y708873D01*
Y708111D01*
X903000Y178498D02*
Y172785D01*
X903381Y171642D01*
X904143Y170881D01*
X905285Y170500D01*
X906047D01*
X907190Y170881D01*
X907951Y171642D01*
X908332Y172785D01*
Y178498D01*
X912446D02*
X911303Y178117D01*
X910922Y177356D01*
Y176594D01*
X911303Y175832D01*
X912065Y175451D01*
X913588Y175070D01*
X914731Y174689D01*
X915493Y173928D01*
X915873Y173166D01*
Y172023D01*
X915493Y171262D01*
X915112Y170881D01*
X913969Y170500D01*
X912446D01*
X911303Y170881D01*
X910922Y171262D01*
X910541Y172023D01*
Y173166D01*
X910922Y173928D01*
X911684Y174689D01*
X912827Y175070D01*
X914350Y175451D01*
X915112Y175832D01*
X915493Y176594D01*
Y177356D01*
X915112Y178117D01*
X913969Y178498D01*
X912446D01*
X772502Y60000D02*
X780500D01*
X772502D02*
Y63428D01*
X772883Y64570D01*
X773263Y64951D01*
X774025Y65332D01*
X774787D01*
X775549Y64951D01*
X775930Y64570D01*
X776310Y63428D01*
Y60000D01*
Y62666D02*
X780500Y65332D01*
X775168Y72074D02*
X776310Y71693D01*
X777072Y70931D01*
X777453Y69788D01*
Y69408D01*
X777072Y68265D01*
X776310Y67503D01*
X775168Y67122D01*
X774787D01*
X773644Y67503D01*
X772883Y68265D01*
X772502Y69408D01*
Y69788D01*
X772883Y70931D01*
X773644Y71693D01*
X775168Y72074D01*
X777072D01*
X778977Y71693D01*
X780119Y70931D01*
X780500Y69788D01*
Y69027D01*
X780119Y67884D01*
X779357Y67503D01*
X772502Y76530D02*
X772883Y75387D01*
X774025Y74626D01*
X775930Y74245D01*
X777072D01*
X778977Y74626D01*
X780119Y75387D01*
X780500Y76530D01*
Y77291D01*
X780119Y78434D01*
X778977Y79196D01*
X777072Y79577D01*
X775930D01*
X774025Y79196D01*
X772883Y78434D01*
X772502Y77291D01*
Y76530D01*
X754002Y115034D02*
X762000D01*
X754002D02*
Y118462D01*
X754383Y119605D01*
X754763Y119986D01*
X755525Y120366D01*
X756287D01*
X757049Y119986D01*
X757430Y119605D01*
X757810Y118462D01*
Y115034D01*
Y117700D02*
X762000Y120366D01*
X754002Y124061D02*
X754383Y122918D01*
X755144Y122537D01*
X755906D01*
X756668Y122918D01*
X757049Y123680D01*
X757430Y125203D01*
X757810Y126346D01*
X758572Y127108D01*
X759334Y127489D01*
X760477D01*
X761238Y127108D01*
X761619Y126727D01*
X762000Y125584D01*
Y124061D01*
X761619Y122918D01*
X761238Y122537D01*
X760477Y122156D01*
X759334D01*
X758572Y122537D01*
X757810Y123299D01*
X757430Y124442D01*
X757049Y125965D01*
X756668Y126727D01*
X755906Y127108D01*
X755144D01*
X754383Y126727D01*
X754002Y125584D01*
Y124061D01*
X756668Y134230D02*
X757810Y133849D01*
X758572Y133087D01*
X758953Y131945D01*
Y131564D01*
X758572Y130421D01*
X757810Y129660D01*
X756668Y129279D01*
X756287D01*
X755144Y129660D01*
X754383Y130421D01*
X754002Y131564D01*
Y131945D01*
X754383Y133087D01*
X755144Y133849D01*
X756668Y134230D01*
X758572D01*
X760477Y133849D01*
X761619Y133087D01*
X762000Y131945D01*
Y131183D01*
X761619Y130041D01*
X760857Y129660D01*
X771782Y144000D02*
X779780D01*
X771782D02*
Y147428D01*
X772163Y148570D01*
X772543Y148951D01*
X773305Y149332D01*
X774067D01*
X774829Y148951D01*
X775210Y148570D01*
X775590Y147428D01*
Y144000D01*
Y146666D02*
X779780Y149332D01*
X771782Y153027D02*
X772163Y151884D01*
X772924Y151503D01*
X773686D01*
X774448Y151884D01*
X774829Y152646D01*
X775210Y154169D01*
X775590Y155312D01*
X776352Y156074D01*
X777114Y156454D01*
X778257D01*
X779018Y156074D01*
X779399Y155693D01*
X779780Y154550D01*
Y153027D01*
X779399Y151884D01*
X779018Y151503D01*
X778257Y151122D01*
X777114D01*
X776352Y151503D01*
X775590Y152265D01*
X775210Y153407D01*
X774829Y154931D01*
X774448Y155693D01*
X773686Y156074D01*
X772924D01*
X772163Y155693D01*
X771782Y154550D01*
Y153027D01*
Y160149D02*
X772163Y159006D01*
X772924Y158625D01*
X773686D01*
X774448Y159006D01*
X774829Y159768D01*
X775210Y161292D01*
X775590Y162434D01*
X776352Y163196D01*
X777114Y163577D01*
X778257D01*
X779018Y163196D01*
X779399Y162815D01*
X779780Y161672D01*
Y160149D01*
X779399Y159006D01*
X779018Y158625D01*
X778257Y158245D01*
X777114D01*
X776352Y158625D01*
X775590Y159387D01*
X775210Y160530D01*
X774829Y162053D01*
X774448Y162815D01*
X773686Y163196D01*
X772924D01*
X772163Y162815D01*
X771782Y161672D01*
Y160149D01*
X619003Y294998D02*
Y287000D01*
X623574D01*
X624831Y293094D02*
Y293475D01*
X625212Y294237D01*
X625593Y294617D01*
X626354Y294998D01*
X627878D01*
X628640Y294617D01*
X629020Y294237D01*
X629401Y293475D01*
Y292713D01*
X629020Y291951D01*
X628259Y290809D01*
X624450Y287000D01*
X629782D01*
X493901Y148052D02*
X493520Y148814D01*
X492758Y149576D01*
X491997Y149956D01*
X490473D01*
X489711Y149576D01*
X488950Y148814D01*
X488569Y148052D01*
X488188Y146910D01*
Y145005D01*
X488569Y143862D01*
X488950Y143101D01*
X489711Y142339D01*
X490473Y141958D01*
X491997D01*
X492758Y142339D01*
X493520Y143101D01*
X493901Y143862D01*
X496910Y149956D02*
X501100D01*
X498814Y146910D01*
X499957D01*
X500719Y146529D01*
X501100Y146148D01*
X501480Y145005D01*
Y144243D01*
X501100Y143101D01*
X500338Y142339D01*
X499195Y141958D01*
X498053D01*
X496910Y142339D01*
X496529Y142720D01*
X496148Y143482D01*
X503270Y148433D02*
X504032Y148814D01*
X505175Y149956D01*
Y141958D01*
X559941Y148052D02*
X559560Y148814D01*
X558798Y149576D01*
X558037Y149956D01*
X556513D01*
X555751Y149576D01*
X554990Y148814D01*
X554609Y148052D01*
X554228Y146910D01*
Y145005D01*
X554609Y143862D01*
X554990Y143101D01*
X555751Y142339D01*
X556513Y141958D01*
X558037D01*
X558798Y142339D01*
X559560Y143101D01*
X559941Y143862D01*
X562569Y148052D02*
Y148433D01*
X562950Y149195D01*
X563331Y149576D01*
X564093Y149956D01*
X565616D01*
X566378Y149576D01*
X566759Y149195D01*
X567140Y148433D01*
Y147671D01*
X566759Y146910D01*
X565997Y145767D01*
X562188Y141958D01*
X567520D01*
X574262Y147290D02*
X573881Y146148D01*
X573119Y145386D01*
X571977Y145005D01*
X571596D01*
X570453Y145386D01*
X569691Y146148D01*
X569310Y147290D01*
Y147671D01*
X569691Y148814D01*
X570453Y149576D01*
X571596Y149956D01*
X571977D01*
X573119Y149576D01*
X573881Y148814D01*
X574262Y147290D01*
Y145386D01*
X573881Y143482D01*
X573119Y142339D01*
X571977Y141958D01*
X571215D01*
X570072Y142339D01*
X569691Y143101D01*
X625981Y148052D02*
X625600Y148814D01*
X624838Y149576D01*
X624077Y149956D01*
X622553D01*
X621791Y149576D01*
X621030Y148814D01*
X620649Y148052D01*
X620268Y146910D01*
Y145005D01*
X620649Y143862D01*
X621030Y143101D01*
X621791Y142339D01*
X622553Y141958D01*
X624077D01*
X624838Y142339D01*
X625600Y143101D01*
X625981Y143862D01*
X628609Y148052D02*
Y148433D01*
X628990Y149195D01*
X629371Y149576D01*
X630133Y149956D01*
X631656D01*
X632418Y149576D01*
X632799Y149195D01*
X633180Y148433D01*
Y147671D01*
X632799Y146910D01*
X632037Y145767D01*
X628228Y141958D01*
X633560D01*
X637255Y149956D02*
X636112Y149576D01*
X635731Y148814D01*
Y148052D01*
X636112Y147290D01*
X636874Y146910D01*
X638397Y146529D01*
X639540Y146148D01*
X640302Y145386D01*
X640683Y144624D01*
Y143482D01*
X640302Y142720D01*
X639921Y142339D01*
X638778Y141958D01*
X637255D01*
X636112Y142339D01*
X635731Y142720D01*
X635350Y143482D01*
Y144624D01*
X635731Y145386D01*
X636493Y146148D01*
X637636Y146529D01*
X639159Y146910D01*
X639921Y147290D01*
X640302Y148052D01*
Y148814D01*
X639921Y149576D01*
X638778Y149956D01*
X637255D01*
X467713Y133094D02*
X467332Y133856D01*
X466570Y134617D01*
X465809Y134998D01*
X464285D01*
X463523Y134617D01*
X462762Y133856D01*
X462381Y133094D01*
X462000Y131951D01*
Y130047D01*
X462381Y128904D01*
X462762Y128143D01*
X463523Y127381D01*
X464285Y127000D01*
X465809D01*
X466570Y127381D01*
X467332Y128143D01*
X467713Y128904D01*
X470341Y133094D02*
Y133475D01*
X470722Y134237D01*
X471103Y134617D01*
X471865Y134998D01*
X473388D01*
X474150Y134617D01*
X474531Y134237D01*
X474911Y133475D01*
Y132713D01*
X474531Y131951D01*
X473769Y130809D01*
X469960Y127000D01*
X475292D01*
X482415Y134998D02*
X478606Y127000D01*
X477082Y134998D02*
X482415D01*
X804713Y190094D02*
X804332Y190856D01*
X803570Y191617D01*
X802809Y191998D01*
X801285D01*
X800524Y191617D01*
X799762Y190856D01*
X799381Y190094D01*
X799000Y188951D01*
Y187047D01*
X799381Y185904D01*
X799762Y185143D01*
X800524Y184381D01*
X801285Y184000D01*
X802809D01*
X803570Y184381D01*
X804332Y185143D01*
X804713Y185904D01*
X807341Y190094D02*
Y190475D01*
X807722Y191236D01*
X808103Y191617D01*
X808865Y191998D01*
X810388D01*
X811150Y191617D01*
X811531Y191236D01*
X811911Y190475D01*
Y189713D01*
X811531Y188951D01*
X810769Y187809D01*
X806960Y184000D01*
X812292D01*
X818653Y190856D02*
X818272Y191617D01*
X817130Y191998D01*
X816368D01*
X815225Y191617D01*
X814463Y190475D01*
X814082Y188570D01*
Y186666D01*
X814463Y185143D01*
X815225Y184381D01*
X816368Y184000D01*
X816749D01*
X817891Y184381D01*
X818653Y185143D01*
X819034Y186285D01*
Y186666D01*
X818653Y187809D01*
X817891Y188570D01*
X816749Y188951D01*
X816368D01*
X815225Y188570D01*
X814463Y187809D01*
X814082Y186666D01*
X733713Y23094D02*
X733332Y23856D01*
X732570Y24617D01*
X731809Y24998D01*
X730285D01*
X729523Y24617D01*
X728762Y23856D01*
X728381Y23094D01*
X728000Y21951D01*
Y20047D01*
X728381Y18904D01*
X728762Y18143D01*
X729523Y17381D01*
X730285Y17000D01*
X731809D01*
X732570Y17381D01*
X733332Y18143D01*
X733713Y18904D01*
X736341Y23094D02*
Y23475D01*
X736722Y24237D01*
X737103Y24617D01*
X737865Y24998D01*
X739388D01*
X740150Y24617D01*
X740531Y24237D01*
X740911Y23475D01*
Y22713D01*
X740531Y21951D01*
X739769Y20809D01*
X735960Y17000D01*
X741292D01*
X747653Y24998D02*
X743844D01*
X743463Y21570D01*
X743844Y21951D01*
X744987Y22332D01*
X746129D01*
X747272Y21951D01*
X748034Y21190D01*
X748415Y20047D01*
Y19285D01*
X748034Y18143D01*
X747272Y17381D01*
X746129Y17000D01*
X744987D01*
X743844Y17381D01*
X743463Y17762D01*
X743083Y18523D01*
X368002Y524597D02*
X376000D01*
X368002D02*
Y528024D01*
X368382Y529167D01*
X368763Y529548D01*
X369525Y529929D01*
X370287D01*
X371049Y529548D01*
X371429Y529167D01*
X371810Y528024D01*
Y524597D01*
Y527263D02*
X376000Y529929D01*
X368002Y537051D02*
X376000Y533242D01*
X368002Y531719D02*
Y537051D01*
Y544174D02*
X376000Y540365D01*
X368002Y538841D02*
Y544174D01*
X216002Y594000D02*
X224000D01*
X216002D02*
Y597428D01*
X216383Y598571D01*
X216763Y598951D01*
X217525Y599332D01*
X218287D01*
X219049Y598951D01*
X219430Y598571D01*
X219810Y597428D01*
Y594000D01*
Y596666D02*
X224000Y599332D01*
X217144Y605693D02*
X216383Y605312D01*
X216002Y604169D01*
Y603408D01*
X216383Y602265D01*
X217525Y601503D01*
X219430Y601122D01*
X221334D01*
X222857Y601503D01*
X223619Y602265D01*
X224000Y603408D01*
Y603788D01*
X223619Y604931D01*
X222857Y605693D01*
X221715Y606074D01*
X221334D01*
X220191Y605693D01*
X219430Y604931D01*
X219049Y603788D01*
Y603408D01*
X219430Y602265D01*
X220191Y601503D01*
X221334Y601122D01*
X216002Y609730D02*
X216383Y608587D01*
X217144Y608206D01*
X217906D01*
X218668Y608587D01*
X219049Y609349D01*
X219430Y610873D01*
X219810Y612015D01*
X220572Y612777D01*
X221334Y613158D01*
X222477D01*
X223238Y612777D01*
X223619Y612396D01*
X224000Y611254D01*
Y609730D01*
X223619Y608587D01*
X223238Y608206D01*
X222477Y607826D01*
X221334D01*
X220572Y608206D01*
X219810Y608968D01*
X219430Y610111D01*
X219049Y611634D01*
X218668Y612396D01*
X217906Y612777D01*
X217144D01*
X216383Y612396D01*
X216002Y611254D01*
Y609730D01*
X196000Y532998D02*
Y525000D01*
Y532998D02*
X199428D01*
X200570Y532617D01*
X200951Y532237D01*
X201332Y531475D01*
Y530713D01*
X200951Y529951D01*
X200570Y529570D01*
X199428Y529190D01*
X196000D01*
X198666D02*
X201332Y525000D01*
X207693Y531856D02*
X207312Y532617D01*
X206169Y532998D01*
X205408D01*
X204265Y532617D01*
X203503Y531475D01*
X203122Y529570D01*
Y527666D01*
X203503Y526143D01*
X204265Y525381D01*
X205408Y525000D01*
X205788D01*
X206931Y525381D01*
X207693Y526143D01*
X208074Y527285D01*
Y527666D01*
X207693Y528809D01*
X206931Y529570D01*
X205788Y529951D01*
X205408D01*
X204265Y529570D01*
X203503Y528809D01*
X203122Y527666D01*
X215158Y532998D02*
X211349Y525000D01*
X209826Y532998D02*
X215158D01*
X463002Y473797D02*
X471000D01*
X463002D02*
Y477225D01*
X463383Y478367D01*
X463763Y478748D01*
X464525Y479129D01*
X465287D01*
X466049Y478748D01*
X466429Y478367D01*
X466810Y477225D01*
Y473797D01*
Y476463D02*
X471000Y479129D01*
X464144Y485490D02*
X463383Y485109D01*
X463002Y483966D01*
Y483204D01*
X463383Y482062D01*
X464525Y481300D01*
X466429Y480919D01*
X468334D01*
X469857Y481300D01*
X470619Y482062D01*
X471000Y483204D01*
Y483585D01*
X470619Y484728D01*
X469857Y485490D01*
X468715Y485870D01*
X468334D01*
X467191Y485490D01*
X466429Y484728D01*
X466049Y483585D01*
Y483204D01*
X466429Y482062D01*
X467191Y481300D01*
X468334Y480919D01*
X464144Y492193D02*
X463383Y491812D01*
X463002Y490669D01*
Y489908D01*
X463383Y488765D01*
X464525Y488003D01*
X466429Y487622D01*
X468334D01*
X469857Y488003D01*
X470619Y488765D01*
X471000Y489908D01*
Y490289D01*
X470619Y491431D01*
X469857Y492193D01*
X468715Y492574D01*
X468334D01*
X467191Y492193D01*
X466429Y491431D01*
X466049Y490289D01*
Y489908D01*
X466429Y488765D01*
X467191Y488003D01*
X468334Y487622D01*
X356000Y593781D02*
Y585783D01*
Y593781D02*
X359428D01*
X360570Y593400D01*
X360951Y593019D01*
X361332Y592257D01*
Y591496D01*
X360951Y590734D01*
X360570Y590353D01*
X359428Y589972D01*
X356000D01*
X358666D02*
X361332Y585783D01*
X367693Y592638D02*
X367312Y593400D01*
X366169Y593781D01*
X365407D01*
X364265Y593400D01*
X363503Y592257D01*
X363122Y590353D01*
Y588449D01*
X363503Y586925D01*
X364265Y586163D01*
X365407Y585783D01*
X365788D01*
X366931Y586163D01*
X367693Y586925D01*
X368074Y588068D01*
Y588449D01*
X367693Y589591D01*
X366931Y590353D01*
X365788Y590734D01*
X365407D01*
X364265Y590353D01*
X363503Y589591D01*
X363122Y588449D01*
X374396Y593781D02*
X370587D01*
X370206Y590353D01*
X370587Y590734D01*
X371730Y591115D01*
X372873D01*
X374015Y590734D01*
X374777Y589972D01*
X375158Y588830D01*
Y588068D01*
X374777Y586925D01*
X374015Y586163D01*
X372873Y585783D01*
X371730D01*
X370587Y586163D01*
X370206Y586544D01*
X369826Y587306D01*
X462002Y755000D02*
X470000D01*
X462002D02*
Y758428D01*
X462383Y759570D01*
X462763Y759951D01*
X463525Y760332D01*
X464287D01*
X465049Y759951D01*
X465429Y759570D01*
X465810Y758428D01*
Y755000D01*
Y757666D02*
X470000Y760332D01*
X463144Y766693D02*
X462383Y766312D01*
X462002Y765169D01*
Y764408D01*
X462383Y763265D01*
X463525Y762503D01*
X465429Y762122D01*
X467334D01*
X468857Y762503D01*
X469619Y763265D01*
X470000Y764408D01*
Y764788D01*
X469619Y765931D01*
X468857Y766693D01*
X467715Y767074D01*
X467334D01*
X466191Y766693D01*
X465429Y765931D01*
X465049Y764788D01*
Y764408D01*
X465429Y763265D01*
X466191Y762503D01*
X467334Y762122D01*
X462002Y772634D02*
X467334Y768826D01*
Y774539D01*
X462002Y772634D02*
X470000D01*
X368002Y549997D02*
X376000D01*
X368002D02*
Y553424D01*
X368382Y554567D01*
X368763Y554948D01*
X369525Y555329D01*
X370287D01*
X371049Y554948D01*
X371429Y554567D01*
X371810Y553424D01*
Y549997D01*
Y552663D02*
X376000Y555329D01*
X369144Y561689D02*
X368382Y561309D01*
X368002Y560166D01*
Y559404D01*
X368382Y558262D01*
X369525Y557500D01*
X371429Y557119D01*
X373334D01*
X374857Y557500D01*
X375619Y558262D01*
X376000Y559404D01*
Y559785D01*
X375619Y560928D01*
X374857Y561689D01*
X373715Y562070D01*
X373334D01*
X372191Y561689D01*
X371429Y560928D01*
X371049Y559785D01*
Y559404D01*
X371429Y558262D01*
X372191Y557500D01*
X373334Y557119D01*
X368002Y564584D02*
Y568774D01*
X371049Y566488D01*
Y567631D01*
X371429Y568393D01*
X371810Y568774D01*
X372953Y569155D01*
X373715D01*
X374857Y568774D01*
X375619Y568012D01*
X376000Y566869D01*
Y565727D01*
X375619Y564584D01*
X375238Y564203D01*
X374476Y563822D01*
X383000Y521386D02*
Y513388D01*
Y521386D02*
X386428D01*
X387570Y521006D01*
X387951Y520625D01*
X388332Y519863D01*
Y519101D01*
X387951Y518340D01*
X387570Y517959D01*
X386428Y517578D01*
X383000D01*
X385666D02*
X388332Y513388D01*
X394693Y520244D02*
X394312Y521006D01*
X393169Y521386D01*
X392407D01*
X391265Y521006D01*
X390503Y519863D01*
X390122Y517959D01*
Y516054D01*
X390503Y514531D01*
X391265Y513769D01*
X392407Y513388D01*
X392788D01*
X393931Y513769D01*
X394693Y514531D01*
X395074Y515673D01*
Y516054D01*
X394693Y517197D01*
X393931Y517959D01*
X392788Y518340D01*
X392407D01*
X391265Y517959D01*
X390503Y517197D01*
X390122Y516054D01*
X396826Y519863D02*
X397587Y520244D01*
X398730Y521386D01*
Y513388D01*
X463002Y501000D02*
X471000D01*
X463002D02*
Y504428D01*
X463383Y505570D01*
X463763Y505951D01*
X464525Y506332D01*
X465287D01*
X466049Y505951D01*
X466429Y505570D01*
X466810Y504428D01*
Y501000D01*
Y503666D02*
X471000Y506332D01*
X464144Y512693D02*
X463383Y512312D01*
X463002Y511169D01*
Y510407D01*
X463383Y509265D01*
X464525Y508503D01*
X466429Y508122D01*
X468334D01*
X469857Y508503D01*
X470619Y509265D01*
X471000Y510407D01*
Y510788D01*
X470619Y511931D01*
X469857Y512693D01*
X468715Y513074D01*
X468334D01*
X467191Y512693D01*
X466429Y511931D01*
X466049Y510788D01*
Y510407D01*
X466429Y509265D01*
X467191Y508503D01*
X468334Y508122D01*
X463002Y517111D02*
X463383Y515968D01*
X464525Y515206D01*
X466429Y514826D01*
X467572D01*
X469477Y515206D01*
X470619Y515968D01*
X471000Y517111D01*
Y517873D01*
X470619Y519015D01*
X469477Y519777D01*
X467572Y520158D01*
X466429D01*
X464525Y519777D01*
X463383Y519015D01*
X463002Y517873D01*
Y517111D01*
X382501Y614988D02*
X390500D01*
X382501D02*
Y618416D01*
X382882Y619559D01*
X383263Y619939D01*
X384025Y620320D01*
X384787D01*
X385548Y619939D01*
X385929Y619559D01*
X386310Y618416D01*
Y614988D01*
Y617654D02*
X390500Y620320D01*
X382501Y626681D02*
Y622872D01*
X385929Y622491D01*
X385548Y622872D01*
X385168Y624015D01*
Y625157D01*
X385548Y626300D01*
X386310Y627062D01*
X387453Y627443D01*
X388214D01*
X389357Y627062D01*
X390119Y626300D01*
X390500Y625157D01*
Y624015D01*
X390119Y622872D01*
X389738Y622491D01*
X388976Y622110D01*
X382501Y631137D02*
X382882Y629995D01*
X383644Y629614D01*
X384406D01*
X385168Y629995D01*
X385548Y630756D01*
X385929Y632280D01*
X386310Y633422D01*
X387072Y634184D01*
X387834Y634565D01*
X388976D01*
X389738Y634184D01*
X390119Y633803D01*
X390500Y632661D01*
Y631137D01*
X390119Y629995D01*
X389738Y629614D01*
X388976Y629233D01*
X387834D01*
X387072Y629614D01*
X386310Y630375D01*
X385929Y631518D01*
X385548Y633041D01*
X385168Y633803D01*
X384406Y634184D01*
X383644D01*
X382882Y633803D01*
X382501Y632661D01*
Y631137D01*
X463002Y598600D02*
X471000D01*
X463002D02*
Y602028D01*
X463383Y603171D01*
X463763Y603551D01*
X464525Y603932D01*
X465287D01*
X466049Y603551D01*
X466429Y603171D01*
X466810Y602028D01*
Y598600D01*
Y601266D02*
X471000Y603932D01*
X463002Y610293D02*
Y606484D01*
X466429Y606103D01*
X466049Y606484D01*
X465668Y607627D01*
Y608769D01*
X466049Y609912D01*
X466810Y610674D01*
X467953Y611054D01*
X468715D01*
X469857Y610674D01*
X470619Y609912D01*
X471000Y608769D01*
Y607627D01*
X470619Y606484D01*
X470238Y606103D01*
X469477Y605722D01*
X463002Y618177D02*
X471000Y614368D01*
X463002Y612845D02*
Y618177D01*
Y537400D02*
X471000D01*
X463002D02*
Y540828D01*
X463383Y541970D01*
X463763Y542351D01*
X464525Y542732D01*
X465287D01*
X466049Y542351D01*
X466429Y541970D01*
X466810Y540828D01*
Y537400D01*
Y540066D02*
X471000Y542732D01*
X463002Y549093D02*
Y545284D01*
X466429Y544903D01*
X466049Y545284D01*
X465668Y546427D01*
Y547569D01*
X466049Y548712D01*
X466810Y549474D01*
X467953Y549855D01*
X468715D01*
X469857Y549474D01*
X470619Y548712D01*
X471000Y547569D01*
Y546427D01*
X470619Y545284D01*
X470238Y544903D01*
X469477Y544522D01*
X464144Y556215D02*
X463383Y555834D01*
X463002Y554692D01*
Y553930D01*
X463383Y552787D01*
X464525Y552025D01*
X466429Y551645D01*
X468334D01*
X469857Y552025D01*
X470619Y552787D01*
X471000Y553930D01*
Y554311D01*
X470619Y555453D01*
X469857Y556215D01*
X468715Y556596D01*
X468334D01*
X467191Y556215D01*
X466429Y555453D01*
X466049Y554311D01*
Y553930D01*
X466429Y552787D01*
X467191Y552025D01*
X468334Y551645D01*
X463002Y564188D02*
X471000D01*
X463002D02*
Y567616D01*
X463383Y568759D01*
X463763Y569140D01*
X464525Y569520D01*
X465287D01*
X466049Y569140D01*
X466429Y568759D01*
X466810Y567616D01*
Y564188D01*
Y566854D02*
X471000Y569520D01*
X463002Y575881D02*
Y572072D01*
X466429Y571691D01*
X466049Y572072D01*
X465668Y573215D01*
Y574357D01*
X466049Y575500D01*
X466810Y576262D01*
X467953Y576643D01*
X468715D01*
X469857Y576262D01*
X470619Y575500D01*
X471000Y574357D01*
Y573215D01*
X470619Y572072D01*
X470238Y571691D01*
X469477Y571310D01*
X463002Y582241D02*
X468334Y578433D01*
Y584146D01*
X463002Y582241D02*
X471000D01*
X569002Y790000D02*
X577000D01*
X569002D02*
Y793428D01*
X569383Y794570D01*
X569763Y794951D01*
X570525Y795332D01*
X571287D01*
X572049Y794951D01*
X572430Y794570D01*
X572810Y793428D01*
Y790000D01*
Y792666D02*
X577000Y795332D01*
X569002Y801693D02*
Y797884D01*
X572430Y797503D01*
X572049Y797884D01*
X571668Y799027D01*
Y800169D01*
X572049Y801312D01*
X572810Y802074D01*
X573953Y802455D01*
X574715D01*
X575857Y802074D01*
X576619Y801312D01*
X577000Y800169D01*
Y799027D01*
X576619Y797884D01*
X576238Y797503D01*
X575476Y797122D01*
X569002Y805006D02*
Y809196D01*
X572049Y806911D01*
Y808053D01*
X572430Y808815D01*
X572810Y809196D01*
X573953Y809577D01*
X574715D01*
X575857Y809196D01*
X576619Y808434D01*
X577000Y807291D01*
Y806149D01*
X576619Y805006D01*
X576238Y804625D01*
X575476Y804245D01*
X544002Y785000D02*
X552000D01*
X544002D02*
Y788428D01*
X544383Y789570D01*
X544763Y789951D01*
X545525Y790332D01*
X546287D01*
X547049Y789951D01*
X547430Y789570D01*
X547810Y788428D01*
Y785000D01*
Y787666D02*
X552000Y790332D01*
X544002Y796693D02*
Y792884D01*
X547430Y792503D01*
X547049Y792884D01*
X546668Y794027D01*
Y795169D01*
X547049Y796312D01*
X547810Y797074D01*
X548953Y797455D01*
X549715D01*
X550857Y797074D01*
X551619Y796312D01*
X552000Y795169D01*
Y794027D01*
X551619Y792884D01*
X551238Y792503D01*
X550476Y792122D01*
X545906Y799625D02*
X545525D01*
X544763Y800006D01*
X544383Y800387D01*
X544002Y801149D01*
Y802672D01*
X544383Y803434D01*
X544763Y803815D01*
X545525Y804196D01*
X546287D01*
X547049Y803815D01*
X548191Y803053D01*
X552000Y799245D01*
Y804577D01*
X511002Y801000D02*
X519000D01*
X511002D02*
Y804428D01*
X511383Y805570D01*
X511763Y805951D01*
X512525Y806332D01*
X513287D01*
X514049Y805951D01*
X514430Y805570D01*
X514810Y804428D01*
Y801000D01*
Y803666D02*
X519000Y806332D01*
X511002Y812693D02*
Y808884D01*
X514430Y808503D01*
X514049Y808884D01*
X513668Y810027D01*
Y811169D01*
X514049Y812312D01*
X514810Y813074D01*
X515953Y813455D01*
X516715D01*
X517857Y813074D01*
X518619Y812312D01*
X519000Y811169D01*
Y810027D01*
X518619Y808884D01*
X518238Y808503D01*
X517477Y808122D01*
X512525Y815245D02*
X512144Y816006D01*
X511002Y817149D01*
X519000D01*
X493002Y797000D02*
X501000D01*
X493002D02*
Y800428D01*
X493383Y801571D01*
X493763Y801951D01*
X494525Y802332D01*
X495287D01*
X496049Y801951D01*
X496429Y801571D01*
X496810Y800428D01*
Y797000D01*
Y799666D02*
X501000Y802332D01*
X493002Y808693D02*
Y804884D01*
X496429Y804503D01*
X496049Y804884D01*
X495668Y806027D01*
Y807169D01*
X496049Y808312D01*
X496810Y809074D01*
X497953Y809454D01*
X498715D01*
X499857Y809074D01*
X500619Y808312D01*
X501000Y807169D01*
Y806027D01*
X500619Y804884D01*
X500238Y804503D01*
X499477Y804122D01*
X493002Y813530D02*
X493383Y812387D01*
X494525Y811626D01*
X496429Y811245D01*
X497572D01*
X499477Y811626D01*
X500619Y812387D01*
X501000Y813530D01*
Y814292D01*
X500619Y815434D01*
X499477Y816196D01*
X497572Y816577D01*
X496429D01*
X494525Y816196D01*
X493383Y815434D01*
X493002Y814292D01*
Y813530D01*
X302002Y801800D02*
X310000D01*
X302002D02*
Y805228D01*
X302383Y806370D01*
X302763Y806751D01*
X303525Y807132D01*
X304287D01*
X305049Y806751D01*
X305429Y806370D01*
X305810Y805228D01*
Y801800D01*
Y804466D02*
X310000Y807132D01*
X302002Y812731D02*
X307334Y808922D01*
Y814635D01*
X302002Y812731D02*
X310000D01*
X302002Y817949D02*
X302383Y816806D01*
X303144Y816425D01*
X303906D01*
X304668Y816806D01*
X305049Y817568D01*
X305429Y819092D01*
X305810Y820234D01*
X306572Y820996D01*
X307334Y821377D01*
X308477D01*
X309238Y820996D01*
X309619Y820615D01*
X310000Y819472D01*
Y817949D01*
X309619Y816806D01*
X309238Y816425D01*
X308477Y816045D01*
X307334D01*
X306572Y816425D01*
X305810Y817187D01*
X305429Y818330D01*
X305049Y819853D01*
X304668Y820615D01*
X303906Y820996D01*
X303144D01*
X302383Y820615D01*
X302002Y819472D01*
Y817949D01*
X341002Y799000D02*
X349000D01*
X341002D02*
Y802428D01*
X341383Y803570D01*
X341763Y803951D01*
X342525Y804332D01*
X343287D01*
X344049Y803951D01*
X344430Y803570D01*
X344810Y802428D01*
Y799000D01*
Y801666D02*
X349000Y804332D01*
X341002Y809931D02*
X346334Y806122D01*
Y811835D01*
X341002Y809931D02*
X349000D01*
X341002Y818577D02*
X349000Y814768D01*
X341002Y813245D02*
Y818577D01*
X462002Y668000D02*
X470000D01*
X462002D02*
Y671428D01*
X462383Y672570D01*
X462763Y672951D01*
X463525Y673332D01*
X464287D01*
X465049Y672951D01*
X465429Y672570D01*
X465810Y671428D01*
Y668000D01*
Y670666D02*
X470000Y673332D01*
X462002Y678931D02*
X467334Y675122D01*
Y680835D01*
X462002Y678931D02*
X470000D01*
X463144Y686815D02*
X462383Y686434D01*
X462002Y685292D01*
Y684530D01*
X462383Y683387D01*
X463525Y682626D01*
X465429Y682245D01*
X467334D01*
X468857Y682626D01*
X469619Y683387D01*
X470000Y684530D01*
Y684911D01*
X469619Y686053D01*
X468857Y686815D01*
X467715Y687196D01*
X467334D01*
X466191Y686815D01*
X465429Y686053D01*
X465049Y684911D01*
Y684530D01*
X465429Y683387D01*
X466191Y682626D01*
X467334Y682245D01*
X463002Y401012D02*
X471000D01*
X463002D02*
Y404440D01*
X463383Y405582D01*
X463763Y405963D01*
X464525Y406344D01*
X465287D01*
X466049Y405963D01*
X466429Y405582D01*
X466810Y404440D01*
Y401012D01*
Y403678D02*
X471000Y406344D01*
X463002Y411943D02*
X468334Y408134D01*
Y413847D01*
X463002Y411943D02*
X471000D01*
X463002Y419827D02*
Y416018D01*
X466429Y415637D01*
X466049Y416018D01*
X465668Y417161D01*
Y418303D01*
X466049Y419446D01*
X466810Y420208D01*
X467953Y420589D01*
X468715D01*
X469857Y420208D01*
X470619Y419446D01*
X471000Y418303D01*
Y417161D01*
X470619Y416018D01*
X470238Y415637D01*
X469477Y415256D01*
X463002Y447500D02*
X471000D01*
X463002D02*
Y450928D01*
X463383Y452070D01*
X463763Y452451D01*
X464525Y452832D01*
X465287D01*
X466049Y452451D01*
X466429Y452070D01*
X466810Y450928D01*
Y447500D01*
Y450166D02*
X471000Y452832D01*
X463002Y458431D02*
X468334Y454622D01*
Y460335D01*
X463002Y458431D02*
X471000D01*
X464906Y462125D02*
X464525D01*
X463763Y462506D01*
X463383Y462887D01*
X463002Y463649D01*
Y465172D01*
X463383Y465934D01*
X463763Y466315D01*
X464525Y466696D01*
X465287D01*
X466049Y466315D01*
X467191Y465553D01*
X471000Y461744D01*
Y467077D01*
X382501Y417000D02*
X390500D01*
X382501D02*
Y420428D01*
X382882Y421571D01*
X383263Y421951D01*
X384025Y422332D01*
X384787D01*
X385548Y421951D01*
X385929Y421571D01*
X386310Y420428D01*
Y417000D01*
Y419666D02*
X390500Y422332D01*
X382501Y427931D02*
X387834Y424122D01*
Y429835D01*
X382501Y427931D02*
X390500D01*
X382501Y433530D02*
X382882Y432387D01*
X384025Y431626D01*
X385929Y431245D01*
X387072D01*
X388976Y431626D01*
X390119Y432387D01*
X390500Y433530D01*
Y434291D01*
X390119Y435434D01*
X388976Y436196D01*
X387072Y436577D01*
X385929D01*
X384025Y436196D01*
X382882Y435434D01*
X382501Y434291D01*
Y433530D01*
X471002Y375612D02*
X479000D01*
X471002D02*
Y379040D01*
X471383Y380182D01*
X471763Y380563D01*
X472525Y380944D01*
X473287D01*
X474049Y380563D01*
X474430Y380182D01*
X474810Y379040D01*
Y375612D01*
Y378278D02*
X479000Y380944D01*
X471002Y383496D02*
Y387686D01*
X474049Y385400D01*
Y386543D01*
X474430Y387305D01*
X474810Y387686D01*
X475953Y388066D01*
X476715D01*
X477857Y387686D01*
X478619Y386924D01*
X479000Y385781D01*
Y384638D01*
X478619Y383496D01*
X478238Y383115D01*
X477477Y382734D01*
X471002Y391761D02*
X471383Y390618D01*
X472144Y390237D01*
X472906D01*
X473668Y390618D01*
X474049Y391380D01*
X474430Y392903D01*
X474810Y394046D01*
X475572Y394808D01*
X476334Y395189D01*
X477477D01*
X478238Y394808D01*
X478619Y394427D01*
X479000Y393284D01*
Y391761D01*
X478619Y390618D01*
X478238Y390237D01*
X477477Y389856D01*
X476334D01*
X475572Y390237D01*
X474810Y390999D01*
X474430Y392142D01*
X474049Y393665D01*
X473668Y394427D01*
X472906Y394808D01*
X472144D01*
X471383Y394427D01*
X471002Y393284D01*
Y391761D01*
Y348000D02*
X479000D01*
X471002D02*
Y351428D01*
X471383Y352570D01*
X471763Y352951D01*
X472525Y353332D01*
X473287D01*
X474049Y352951D01*
X474430Y352570D01*
X474810Y351428D01*
Y348000D01*
Y350666D02*
X479000Y353332D01*
X471002Y355884D02*
Y360074D01*
X474049Y357788D01*
Y358931D01*
X474430Y359693D01*
X474810Y360074D01*
X475953Y360454D01*
X476715D01*
X477857Y360074D01*
X478619Y359312D01*
X479000Y358169D01*
Y357027D01*
X478619Y355884D01*
X478238Y355503D01*
X477477Y355122D01*
X471002Y367577D02*
X479000Y363768D01*
X471002Y362245D02*
Y367577D01*
X385002Y689800D02*
X393000D01*
X385002D02*
Y693228D01*
X385383Y694370D01*
X385763Y694751D01*
X386525Y695132D01*
X387287D01*
X388049Y694751D01*
X388430Y694370D01*
X388810Y693228D01*
Y689800D01*
Y692466D02*
X393000Y695132D01*
X385002Y697684D02*
Y701874D01*
X388049Y699588D01*
Y700731D01*
X388430Y701493D01*
X388810Y701874D01*
X389953Y702254D01*
X390715D01*
X391857Y701874D01*
X392619Y701112D01*
X393000Y699969D01*
Y698827D01*
X392619Y697684D01*
X392238Y697303D01*
X391477Y696922D01*
X385002Y704806D02*
Y708996D01*
X388049Y706711D01*
Y707853D01*
X388430Y708615D01*
X388810Y708996D01*
X389953Y709377D01*
X390715D01*
X391857Y708996D01*
X392619Y708234D01*
X393000Y707092D01*
Y705949D01*
X392619Y704806D01*
X392238Y704426D01*
X391477Y704045D01*
X5000Y463809D02*
X8428D01*
X9570Y464190D01*
X9951Y464570D01*
X10332Y465332D01*
Y466475D01*
X9951Y467237D01*
X9570Y467617D01*
X8428Y467998D01*
X5000D01*
Y460000D01*
X12122Y466475D02*
X12884Y466856D01*
X14027Y467998D01*
Y460000D01*
X22558Y467998D02*
X18749D01*
X18369Y464570D01*
X18749Y464951D01*
X19892Y465332D01*
X21035D01*
X22177Y464951D01*
X22939Y464190D01*
X23320Y463047D01*
Y462285D01*
X22939Y461143D01*
X22177Y460381D01*
X21035Y460000D01*
X19892D01*
X18749Y460381D01*
X18369Y460762D01*
X17988Y461524D01*
X362000Y840595D02*
X365428D01*
X366571Y840976D01*
X366951Y841357D01*
X367332Y842119D01*
Y843262D01*
X366951Y844023D01*
X366571Y844404D01*
X365428Y844785D01*
X362000D01*
Y836787D01*
X369122Y843262D02*
X369884Y843643D01*
X371027Y844785D01*
Y836787D01*
X378796Y844785D02*
X374988Y839453D01*
X380701D01*
X378796Y844785D02*
Y836787D01*
X4980Y651309D02*
X8408D01*
X9550Y651690D01*
X9931Y652070D01*
X10312Y652832D01*
Y653975D01*
X9931Y654737D01*
X9550Y655117D01*
X8408Y655498D01*
X4980D01*
Y647500D01*
X12102Y653975D02*
X12864Y654356D01*
X14007Y655498D01*
Y647500D01*
X17968Y653975D02*
X18729Y654356D01*
X19872Y655498D01*
Y647500D01*
X54610Y822959D02*
X58038D01*
X59180Y823340D01*
X59561Y823720D01*
X59942Y824482D01*
Y825625D01*
X59561Y826387D01*
X59180Y826767D01*
X58038Y827148D01*
X54610D01*
Y819150D01*
X61732Y825625D02*
X62494Y826006D01*
X63637Y827148D01*
Y819150D01*
X69883Y827148D02*
X68740Y826767D01*
X67979Y825625D01*
X67598Y823720D01*
Y822578D01*
X67979Y820674D01*
X68740Y819531D01*
X69883Y819150D01*
X70645D01*
X71787Y819531D01*
X72549Y820674D01*
X72930Y822578D01*
Y823720D01*
X72549Y825625D01*
X71787Y826767D01*
X70645Y827148D01*
X69883D01*
X152000Y307998D02*
Y300000D01*
Y307998D02*
X156951D01*
X152000Y304190D02*
X155047D01*
X157865Y307998D02*
Y302285D01*
X158246Y301143D01*
X159008Y300381D01*
X160151Y300000D01*
X160912D01*
X162055Y300381D01*
X162817Y301143D01*
X163198Y302285D01*
Y307998D01*
X167311D02*
X166168Y307617D01*
X165788Y306856D01*
Y306094D01*
X166168Y305332D01*
X166930Y304951D01*
X168454Y304571D01*
X169596Y304190D01*
X170358Y303428D01*
X170739Y302666D01*
Y301524D01*
X170358Y300762D01*
X169977Y300381D01*
X168834Y300000D01*
X167311D01*
X166168Y300381D01*
X165788Y300762D01*
X165407Y301524D01*
Y302666D01*
X165788Y303428D01*
X166549Y304190D01*
X167692Y304571D01*
X169215Y304951D01*
X169977Y305332D01*
X170358Y306094D01*
Y306856D01*
X169977Y307617D01*
X168834Y307998D01*
X167311D01*
X179070Y634195D02*
Y626197D01*
Y634195D02*
X184021D01*
X179070Y630386D02*
X182117D01*
X184935Y634195D02*
Y628482D01*
X185316Y627339D01*
X186078Y626578D01*
X187221Y626197D01*
X187982D01*
X189125Y626578D01*
X189887Y627339D01*
X190268Y628482D01*
Y634195D01*
X197809D02*
X194000Y626197D01*
X192477Y634195D02*
X197809D01*
X109000Y695998D02*
Y688000D01*
Y695998D02*
X113951D01*
X109000Y692190D02*
X112047D01*
X114865Y695998D02*
Y690285D01*
X115246Y689143D01*
X116008Y688381D01*
X117151Y688000D01*
X117912D01*
X119055Y688381D01*
X119817Y689143D01*
X120198Y690285D01*
Y695998D01*
X126977Y694856D02*
X126596Y695617D01*
X125454Y695998D01*
X124692D01*
X123549Y695617D01*
X122788Y694475D01*
X122407Y692570D01*
Y690666D01*
X122788Y689143D01*
X123549Y688381D01*
X124692Y688000D01*
X125073D01*
X126215Y688381D01*
X126977Y689143D01*
X127358Y690285D01*
Y690666D01*
X126977Y691809D01*
X126215Y692570D01*
X125073Y692951D01*
X124692D01*
X123549Y692570D01*
X122788Y691809D01*
X122407Y690666D01*
X156783Y753998D02*
Y746000D01*
Y753998D02*
X159449D01*
X160591Y753617D01*
X161353Y752856D01*
X161734Y752094D01*
X162115Y750951D01*
Y749047D01*
X161734Y747904D01*
X161353Y747143D01*
X160591Y746381D01*
X159449Y746000D01*
X156783D01*
X164667Y753998D02*
X168856D01*
X166571Y750951D01*
X167714D01*
X168475Y750571D01*
X168856Y750190D01*
X169237Y749047D01*
Y748285D01*
X168856Y747143D01*
X168095Y746381D01*
X166952Y746000D01*
X165809D01*
X164667Y746381D01*
X164286Y746762D01*
X163905Y747523D01*
X356856Y390011D02*
X356095Y389630D01*
X355333Y388868D01*
X354952Y388107D01*
Y386583D01*
X355333Y385822D01*
X356095Y385060D01*
X356856Y384679D01*
X357999Y384298D01*
X359903D01*
X361046Y384679D01*
X361808Y385060D01*
X362570Y385822D01*
X362950Y386583D01*
Y388107D01*
X362570Y388868D01*
X361808Y389630D01*
X361046Y390011D01*
X356856Y392639D02*
X356476D01*
X355714Y393020D01*
X355333Y393401D01*
X354952Y394163D01*
Y395686D01*
X355333Y396448D01*
X355714Y396829D01*
X356476Y397210D01*
X357237D01*
X357999Y396829D01*
X359142Y396067D01*
X362950Y392258D01*
Y397590D01*
X354952Y401666D02*
X355333Y400523D01*
X356476Y399762D01*
X358380Y399381D01*
X359523D01*
X361427Y399762D01*
X362570Y400523D01*
X362950Y401666D01*
Y402427D01*
X362570Y403570D01*
X361427Y404332D01*
X359523Y404713D01*
X358380D01*
X356476Y404332D01*
X355333Y403570D01*
X354952Y402427D01*
Y401666D01*
X282573Y817624D02*
X282192Y818386D01*
X281430Y819147D01*
X280669Y819528D01*
X279145D01*
X278384Y819147D01*
X277622Y818386D01*
X277241Y817624D01*
X276860Y816481D01*
Y814577D01*
X277241Y813434D01*
X277622Y812673D01*
X278384Y811911D01*
X279145Y811530D01*
X280669D01*
X281430Y811911D01*
X282192Y812673D01*
X282573Y813434D01*
X284820Y818005D02*
X285582Y818386D01*
X286725Y819528D01*
Y811530D01*
X295637Y816862D02*
X295256Y815720D01*
X294494Y814958D01*
X293352Y814577D01*
X292971D01*
X291828Y814958D01*
X291066Y815720D01*
X290686Y816862D01*
Y817243D01*
X291066Y818386D01*
X291828Y819147D01*
X292971Y819528D01*
X293352D01*
X294494Y819147D01*
X295256Y818386D01*
X295637Y816862D01*
Y814958D01*
X295256Y813054D01*
X294494Y811911D01*
X293352Y811530D01*
X292590D01*
X291447Y811911D01*
X291066Y812673D01*
X5000Y290809D02*
X8428D01*
X9570Y291190D01*
X9951Y291570D01*
X10332Y292332D01*
Y293475D01*
X9951Y294237D01*
X9570Y294617D01*
X8428Y294998D01*
X5000D01*
Y287000D01*
X12122Y293475D02*
X12884Y293856D01*
X14027Y294998D01*
Y287000D01*
X18749Y294998D02*
X22939D01*
X20654Y291951D01*
X21796D01*
X22558Y291570D01*
X22939Y291190D01*
X23320Y290047D01*
Y289285D01*
X22939Y288143D01*
X22177Y287381D01*
X21035Y287000D01*
X19892D01*
X18749Y287381D01*
X18369Y287762D01*
X17988Y288524D01*
X142971Y159095D02*
Y151097D01*
Y159095D02*
X146398D01*
X147541Y158714D01*
X147922Y158333D01*
X148303Y157571D01*
Y156810D01*
X147922Y156048D01*
X147541Y155667D01*
X146398Y155286D01*
X142971D01*
X145637D02*
X148303Y151097D01*
X154663Y157952D02*
X154283Y158714D01*
X153140Y159095D01*
X152378D01*
X151236Y158714D01*
X150474Y157571D01*
X150093Y155667D01*
Y153763D01*
X150474Y152239D01*
X151236Y151477D01*
X152378Y151097D01*
X152759D01*
X153902Y151477D01*
X154663Y152239D01*
X155044Y153382D01*
Y153763D01*
X154663Y154905D01*
X153902Y155667D01*
X152759Y156048D01*
X152378D01*
X151236Y155667D01*
X150474Y154905D01*
X150093Y153763D01*
X161748Y156429D02*
X161367Y155286D01*
X160605Y154524D01*
X159462Y154144D01*
X159081D01*
X157939Y154524D01*
X157177Y155286D01*
X156796Y156429D01*
Y156810D01*
X157177Y157952D01*
X157939Y158714D01*
X159081Y159095D01*
X159462D01*
X160605Y158714D01*
X161367Y157952D01*
X161748Y156429D01*
Y154524D01*
X161367Y152620D01*
X160605Y151477D01*
X159462Y151097D01*
X158701D01*
X157558Y151477D01*
X157177Y152239D01*
X142971Y146498D02*
Y138500D01*
Y146498D02*
X146398D01*
X147541Y146117D01*
X147922Y145737D01*
X148303Y144975D01*
Y144213D01*
X147922Y143451D01*
X147541Y143070D01*
X146398Y142690D01*
X142971D01*
X145637D02*
X148303Y138500D01*
X155425Y146498D02*
X151616Y138500D01*
X150093Y146498D02*
X155425D01*
X159500D02*
X158358Y146117D01*
X157596Y144975D01*
X157215Y143070D01*
Y141928D01*
X157596Y140023D01*
X158358Y138881D01*
X159500Y138500D01*
X160262D01*
X161405Y138881D01*
X162167Y140023D01*
X162547Y141928D01*
Y143070D01*
X162167Y144975D01*
X161405Y146117D01*
X160262Y146498D01*
X159500D01*
X142971Y186998D02*
Y179000D01*
Y186998D02*
X146398D01*
X147541Y186617D01*
X147922Y186237D01*
X148303Y185475D01*
Y184713D01*
X147922Y183951D01*
X147541Y183570D01*
X146398Y183190D01*
X142971D01*
X145637D02*
X148303Y179000D01*
X155425Y186998D02*
X151616Y179000D01*
X150093Y186998D02*
X155425D01*
X157596Y185094D02*
Y185475D01*
X157977Y186237D01*
X158358Y186617D01*
X159120Y186998D01*
X160643D01*
X161405Y186617D01*
X161786Y186237D01*
X162167Y185475D01*
Y184713D01*
X161786Y183951D01*
X161024Y182809D01*
X157215Y179000D01*
X162547D01*
X142971Y171898D02*
Y163900D01*
Y171898D02*
X146398D01*
X147541Y171517D01*
X147922Y171137D01*
X148303Y170375D01*
Y169613D01*
X147922Y168851D01*
X147541Y168470D01*
X146398Y168090D01*
X142971D01*
X145637D02*
X148303Y163900D01*
X155425Y171898D02*
X151616Y163900D01*
X150093Y171898D02*
X155425D01*
X157215Y170375D02*
X157977Y170756D01*
X159120Y171898D01*
Y163900D01*
D15*
X249500Y426000D02*
X304500D01*
Y428500D01*
X249500Y426000D02*
Y428500D01*
X304500Y463500D02*
Y466000D01*
X249500Y463500D02*
Y466000D01*
X304500D01*
X679500Y49000D02*
Y129000D01*
Y49000D02*
X692000D01*
X679500Y129000D02*
X692000D01*
X732000Y49000D02*
X744500D01*
X732000Y129000D02*
X744500D01*
Y49000D02*
Y129000D01*
X945000Y510500D02*
X1025000D01*
Y523000D01*
X945000Y510500D02*
Y523000D01*
X1025000Y563000D02*
Y575500D01*
X945000Y563000D02*
Y575500D01*
X1025000D01*
X1263500Y340000D02*
Y420000D01*
X1251000D02*
X1263500D01*
X1251000Y340000D02*
X1263500D01*
X1198500Y420000D02*
X1211000D01*
X1198500Y340000D02*
X1211000D01*
X1198500D02*
Y420000D01*
X986750Y681001D02*
Y695001D01*
X1263840Y472500D02*
Y552500D01*
X1251340D02*
X1263840D01*
X1251340Y472500D02*
X1263840D01*
X1198840Y552500D02*
X1211340D01*
X1198840Y472500D02*
X1211340D01*
X1198840D02*
Y552500D01*
X1049000Y591873D02*
X1129000D01*
Y604373D01*
X1049000Y591873D02*
Y604373D01*
X1129000Y644373D02*
Y656873D01*
X1049000Y644373D02*
Y656873D01*
X1129000D01*
X232250Y355000D02*
Y410000D01*
Y355000D02*
X234750D01*
X232250Y410000D02*
X234750D01*
X269750Y355000D02*
X272250D01*
X269750Y410000D02*
X272250D01*
Y355000D02*
Y410000D01*
X248500Y335000D02*
X303500D01*
X248500Y332500D02*
Y335000D01*
X303500Y332500D02*
Y335000D01*
X248500Y295000D02*
Y297500D01*
X303500Y295000D02*
Y297500D01*
X248500Y295000D02*
X303500D01*
X300Y166800D02*
X10300D01*
Y196800D01*
X300D02*
X10300D01*
X187000Y737750D02*
Y742000D01*
Y725000D02*
Y727750D01*
Y712250D02*
Y715000D01*
Y698000D02*
Y702250D01*
X143000Y698000D02*
Y702250D01*
Y712250D02*
Y715000D01*
Y725000D02*
Y727750D01*
Y737750D02*
Y742000D01*
Y698000D02*
X187000D01*
X143000Y742000D02*
X187000D01*
D16*
X945500Y796000D02*
Y890000D01*
X1026500D01*
Y796000D02*
Y890000D01*
X945500Y796000D02*
X1026500D01*
X1058000Y796000D02*
X1139000D01*
Y890000D01*
X1058000D02*
X1139000D01*
X1058000Y796000D02*
Y890000D01*
X1066500Y0D02*
Y94000D01*
X985500Y0D02*
X1066500D01*
X985500D02*
Y94000D01*
X1066500D01*
X1170500Y796000D02*
X1251500D01*
Y890000D01*
X1170500D02*
X1251500D01*
X1170500Y796000D02*
Y890000D01*
X1347000Y806802D02*
X1441000D01*
Y725802D02*
Y806802D01*
X1347000Y725802D02*
X1441000D01*
X1347000D02*
Y806802D01*
X1347000Y607000D02*
Y688000D01*
Y607000D02*
X1441000D01*
Y688000D01*
X1347000D02*
X1441000D01*
D17*
X1221285Y642570D02*
X1220999Y643142D01*
X1220428Y643713D01*
X1219856Y643999D01*
X1218714D01*
X1218143Y643713D01*
X1217571Y643142D01*
X1217286Y642570D01*
X1217000Y641713D01*
Y640285D01*
X1217286Y639428D01*
X1217571Y638857D01*
X1218143Y638286D01*
X1218714Y638000D01*
X1219856D01*
X1220428Y638286D01*
X1220999Y638857D01*
X1221285Y639428D01*
X1226969Y643999D02*
X1224113Y638000D01*
X1222970Y643999D02*
X1226969D01*
X1217000Y634999D02*
Y629000D01*
Y634999D02*
X1219571D01*
X1220428Y634713D01*
X1220714Y634427D01*
X1220999Y633856D01*
Y633285D01*
X1220714Y632714D01*
X1220428Y632428D01*
X1219571Y632142D01*
X1217000D01*
X1218999D02*
X1220999Y629000D01*
X1225770Y634999D02*
X1222913D01*
X1222627Y632428D01*
X1222913Y632714D01*
X1223770Y632999D01*
X1224627D01*
X1225484Y632714D01*
X1226055Y632142D01*
X1226341Y631285D01*
Y630714D01*
X1226055Y629857D01*
X1225484Y629286D01*
X1224627Y629000D01*
X1223770D01*
X1222913Y629286D01*
X1222627Y629571D01*
X1222342Y630143D01*
X303001Y367000D02*
X309000D01*
X303001D02*
Y369571D01*
X303287Y370428D01*
X303573Y370714D01*
X304144Y370999D01*
X304715D01*
X305287Y370714D01*
X305572Y370428D01*
X305858Y369571D01*
Y367000D01*
Y369000D02*
X309000Y370999D01*
X303001Y373770D02*
X303287Y372913D01*
X303858Y372627D01*
X304429D01*
X305001Y372913D01*
X305287Y373484D01*
X305572Y374627D01*
X305858Y375484D01*
X306429Y376055D01*
X307000Y376341D01*
X307857D01*
X308429Y376055D01*
X308714Y375770D01*
X309000Y374913D01*
Y373770D01*
X308714Y372913D01*
X308429Y372627D01*
X307857Y372342D01*
X307000D01*
X306429Y372627D01*
X305858Y373199D01*
X305572Y374056D01*
X305287Y375198D01*
X305001Y375770D01*
X304429Y376055D01*
X303858D01*
X303287Y375770D01*
X303001Y374913D01*
Y373770D01*
X304144Y377683D02*
X303858Y378255D01*
X303001Y379112D01*
X309000D01*
Y424999D02*
Y419000D01*
Y424999D02*
X311571D01*
X312428Y424713D01*
X312714Y424427D01*
X312999Y423856D01*
Y423285D01*
X312714Y422714D01*
X312428Y422428D01*
X311571Y422142D01*
X309000D01*
X311000D02*
X312999Y419000D01*
X315770Y424999D02*
X314913Y424713D01*
X314627Y424142D01*
Y423571D01*
X314913Y422999D01*
X315484Y422714D01*
X316627Y422428D01*
X317484Y422142D01*
X318055Y421571D01*
X318341Y421000D01*
Y420143D01*
X318055Y419571D01*
X317770Y419286D01*
X316912Y419000D01*
X315770D01*
X314913Y419286D01*
X314627Y419571D01*
X314342Y420143D01*
Y421000D01*
X314627Y421571D01*
X315199Y422142D01*
X316056Y422428D01*
X317198Y422714D01*
X317770Y422999D01*
X318055Y423571D01*
Y424142D01*
X317770Y424713D01*
X316912Y424999D01*
X315770D01*
X321397D02*
X320540Y424713D01*
X319969Y423856D01*
X319683Y422428D01*
Y421571D01*
X319969Y420143D01*
X320540Y419286D01*
X321397Y419000D01*
X321969D01*
X322826Y419286D01*
X323397Y420143D01*
X323683Y421571D01*
Y422428D01*
X323397Y423856D01*
X322826Y424713D01*
X321969Y424999D01*
X321397D01*
X309000Y409999D02*
Y404000D01*
Y409999D02*
X311571D01*
X312428Y409713D01*
X312714Y409427D01*
X312999Y408856D01*
Y408285D01*
X312714Y407714D01*
X312428Y407428D01*
X311571Y407142D01*
X309000D01*
X311000D02*
X312999Y404000D01*
X318341Y409999D02*
X315484Y404000D01*
X314342Y409999D02*
X318341D01*
X323111Y409142D02*
X322826Y409713D01*
X321969Y409999D01*
X321397D01*
X320540Y409713D01*
X319969Y408856D01*
X319683Y407428D01*
Y406000D01*
X319969Y404857D01*
X320540Y404286D01*
X321397Y404000D01*
X321683D01*
X322540Y404286D01*
X323111Y404857D01*
X323397Y405714D01*
Y406000D01*
X323111Y406856D01*
X322540Y407428D01*
X321683Y407714D01*
X321397D01*
X320540Y407428D01*
X319969Y406856D01*
X319683Y406000D01*
X303001Y383369D02*
X309000D01*
X303001D02*
Y385940D01*
X303287Y386797D01*
X303573Y387083D01*
X304144Y387368D01*
X304715D01*
X305287Y387083D01*
X305572Y386797D01*
X305858Y385940D01*
Y383369D01*
Y385369D02*
X309000Y387368D01*
X303001Y392710D02*
X309000Y389853D01*
X303001Y388711D02*
Y392710D01*
Y394624D02*
Y397766D01*
X305287Y396052D01*
Y396909D01*
X305572Y397480D01*
X305858Y397766D01*
X306715Y398052D01*
X307286D01*
X308143Y397766D01*
X308714Y397195D01*
X309000Y396338D01*
Y395481D01*
X308714Y394624D01*
X308429Y394338D01*
X307857Y394053D01*
X338234Y565174D02*
X337949Y565745D01*
X337378Y566316D01*
X336806Y566602D01*
X335664D01*
X335092Y566316D01*
X334521Y565745D01*
X334235Y565174D01*
X333950Y564317D01*
Y562889D01*
X334235Y562032D01*
X334521Y561460D01*
X335092Y560889D01*
X335664Y560603D01*
X336806D01*
X337378Y560889D01*
X337949Y561460D01*
X338234Y562032D01*
X339920Y565459D02*
X340491Y565745D01*
X341348Y566602D01*
Y560603D01*
X347747Y565745D02*
X347461Y566316D01*
X346604Y566602D01*
X346033D01*
X345176Y566316D01*
X344604Y565459D01*
X344319Y564031D01*
Y562603D01*
X344604Y561460D01*
X345176Y560889D01*
X346033Y560603D01*
X346318D01*
X347175Y560889D01*
X347747Y561460D01*
X348032Y562317D01*
Y562603D01*
X347747Y563460D01*
X347175Y564031D01*
X346318Y564317D01*
X346033D01*
X345176Y564031D01*
X344604Y563460D01*
X344319Y562603D01*
X334430Y524917D02*
X333858Y524632D01*
X333287Y524060D01*
X333001Y523489D01*
Y522346D01*
X333287Y521775D01*
X333858Y521204D01*
X334430Y520918D01*
X335286Y520633D01*
X336715D01*
X337572Y520918D01*
X338143Y521204D01*
X338714Y521775D01*
X339000Y522346D01*
Y523489D01*
X338714Y524060D01*
X338143Y524632D01*
X337572Y524917D01*
X334144Y526603D02*
X333858Y527174D01*
X333001Y528031D01*
X339000D01*
X333001Y533858D02*
X337000Y531002D01*
Y535287D01*
X333001Y533858D02*
X339000D01*
D18*
X1137001Y676500D02*
X1143000D01*
X1137001D02*
Y679071D01*
X1137287Y679928D01*
X1137573Y680213D01*
X1138144Y680499D01*
X1138715D01*
X1139286Y680213D01*
X1139572Y679928D01*
X1139858Y679071D01*
Y676500D01*
Y678500D02*
X1143000Y680499D01*
X1138144Y681842D02*
X1137858Y682413D01*
X1137001Y683270D01*
X1143000D01*
X1137001Y687955D02*
X1137287Y687098D01*
X1138144Y686526D01*
X1139572Y686241D01*
X1140429D01*
X1141857Y686526D01*
X1142714Y687098D01*
X1143000Y687955D01*
Y688526D01*
X1142714Y689383D01*
X1141857Y689954D01*
X1140429Y690240D01*
X1139572D01*
X1138144Y689954D01*
X1137287Y689383D01*
X1137001Y688526D01*
Y687955D01*
X1176152Y701299D02*
X1182150D01*
X1176152D02*
Y703870D01*
X1176437Y704727D01*
X1176723Y705013D01*
X1177294Y705298D01*
X1177866D01*
X1178437Y705013D01*
X1178723Y704727D01*
X1179008Y703870D01*
Y701299D01*
Y703299D02*
X1182150Y705298D01*
X1177294Y706641D02*
X1177009Y707212D01*
X1176152Y708069D01*
X1182150D01*
X1176152Y714468D02*
Y711611D01*
X1178723Y711326D01*
X1178437Y711611D01*
X1178151Y712468D01*
Y713325D01*
X1178437Y714182D01*
X1179008Y714753D01*
X1179865Y715039D01*
X1180436D01*
X1181293Y714753D01*
X1181865Y714182D01*
X1182150Y713325D01*
Y712468D01*
X1181865Y711611D01*
X1181579Y711326D01*
X1181008Y711040D01*
X1231000Y710679D02*
Y706394D01*
X1231286Y705537D01*
X1231857Y704966D01*
X1232714Y704680D01*
X1233285D01*
X1234142Y704966D01*
X1234714Y705537D01*
X1234999Y706394D01*
Y710679D01*
X1236942Y709251D02*
Y709537D01*
X1237227Y710108D01*
X1237513Y710393D01*
X1238084Y710679D01*
X1239227D01*
X1239798Y710393D01*
X1240084Y710108D01*
X1240369Y709537D01*
Y708965D01*
X1240084Y708394D01*
X1239512Y707537D01*
X1236656Y704680D01*
X1240655D01*
M02*
