M48
;Layer_Color=9474304
;FILE_FORMAT=4:4
METRIC,LZ
;TYPE=PLATED
T1F00S00C0.3000
T2F00S00C0.7500
T3F00S00C0.9000
T4F00S00C0.9500
T5F00S00C1.0000
T6F00S00C1.4000
T7F00S00C2.7500
T8F00S00C3.2000
%
T01
X00025822Y00075096
X00065822
X00105Y00078
X00097Y00086
X00105822Y00035096
X00145822
X00185821
X00225821
X00265821
X00305821
X00345821
X00385821
X00425821
X00465821
X00474072Y00064096
X00443Y00078
X00545825Y00065034
Y00051097
X00545821Y00035096
Y00091975
X00609422
X00609511Y00064096
Y00049347
Y00035096
X00678798
Y00048096
Y00065034
Y00094096
X00711022Y00091095
X00732572Y00090172
X00744Y00078
X0075Y00072
X00742615Y00054096
X00745822Y00035096
X00765Y00057
X00804Y00044
X0085Y00065
X00865
X0088
X00895
X0091
X00925
Y0008
Y00095
X0091
Y0008
X00895
Y00095
Y0011
X0091
X00925
X0088
Y00095
Y0008
X00865
Y00095
X0085
Y0008
Y0011
X00865
X00822822Y00109196
X00767Y00111651
X00985822Y00075096
Y00035096
X01025822
X01065822
X01066Y00058
X01073Y00065
X01105822Y00075096
Y00035096
X01145822
X01185822
X01225821
X01265821
X01305821
X01345821
Y00075096
X01385821
Y00115096
Y00155096
Y00195096
Y00235096
Y00275096
Y00315096
Y00355096
Y00395096
Y00435096
Y00475096
X01355Y004975
X01361Y00504
X01345821Y00155096
Y00115096
X01305821
Y00155096
X01308475Y00200525
X01317Y00209
X01305821Y00235096
Y00315096
Y00355096
Y00395096
Y00435096
Y00475096
X01265821
Y00435096
X01185822
Y00475096
Y00395096
Y00315096
X01225821
X01185822Y00275096
X01161Y0027
X0119Y00231
X01105822Y00235096
X010845Y0027
X01065822Y00275096
X01066Y00296
X01040998Y00319
X01031Y003375
Y003525
X01016
Y003375
X01001
Y003525
Y003675
X01016
X01031
Y003825
Y003975
X01016
Y003825
X01001
Y003975
Y004125
X01016
X01031
X00986
X00985821Y00422
Y00432196
X009703
X00970002Y00422
X00971Y004125
Y003975
Y003825
X00986
Y003975
X00956
Y003825
X00941
Y003975
Y004125
X00956
Y003675
X00941
Y003525
Y003375
X00956
Y003525
X00971
Y003375
X00986
Y003525
Y003675
X00971
X00985822Y00275096
X01025822
Y00235096
X00979Y00234
X00985822Y00155096
Y00115096
X01025822
X01019Y00179
X01105822Y00155096
Y00115096
X01265821
X01248Y00179
X01105822Y00315096
Y00355096
Y00395096
X01090614Y00387938
X0108
Y003975
X01079822Y00377449
Y0045861
X01105822Y00475096
Y00435096
X00986Y00495
X00928Y00498738
Y00477488
Y00453754
Y00319
X00913Y003302
X00865822Y00275096
X00825822
X00785822
X00745822
X00705822
X00665822
X00625821
X00585821
X00545821
Y00195096
X00585821
X00545821Y00155096
X006545Y00215
X006645
X00856505Y00201
X0085Y00155
X00865
X0088
X00895
X0091
X00925
Y0014
Y00125
X0091
Y0014
X00895
Y00125
X0088
Y0014
X00865
Y00125
X0085
Y0014
X00505821Y00155096
X00465821
X00425821
Y00195096
X00443Y00199
X00454249Y00239
X0046Y00245
X00485Y00235
X00495
X00521Y00215
X005334Y002
X00505821Y00275096
X00494Y00334
X00488Y00328
X00468Y00342
X00465821Y00355096
X00464Y00393
X00488
X00499Y004318
X0048Y0044
X0043985Y00466
X00385821Y00475096
X00396Y00491
X0034665Y00457
X0033395Y004475
X003255Y00414225
X00304Y00419
Y00406
X0034665Y00405995
X00372Y003775
X00386Y0034
X00346645Y00329
X00345821Y00315096
Y00275096
X00305821
X00299Y00293
X00265821Y00275096
X00225821
X00223Y00293495
X00225821Y00355096
Y00395096
X00243Y00387
X0026Y00378
X00225821Y00435096
Y00475096
X00222Y00490998
X00205Y00501
X00196Y00492
X001965Y00419
X00265821Y00475096
X00265Y00501
X00271Y00507
X00302Y00491
X00301998Y00466
X0051Y00491
X004447Y003267
X0037Y00215
Y00204
X00385821Y00195096
Y00155096
Y00115096
X00425821
X00345821
Y00155096
Y00195096
X00305821
Y00155096
Y00115096
X00265821
Y00155096
Y00195096
X00225821
Y00155096
Y00115096
X00185821
Y00155096
Y00195096
X00191Y00215
X00185Y00221
X001965Y002326
Y00242
X00146Y002326
X00145822Y00275096
X00157Y00291235
X00145822Y00315096
X00157Y00197
X00152Y00131
X00145822Y00115096
X00105822
X00108Y00144
Y00155
Y00168
Y001818
X00132998Y00197
X00073Y00202
Y00209
X00065822Y00275096
X00025822
Y00315096
Y00355096
Y00395096
Y00435096
Y00475096
X00065822
X00100002Y003525
X00109
X0014Y00292
X00025822Y00115096
Y00515096
Y00555096
Y00595096
X00065822
X00115Y00606352
X001075Y00616
X00105822Y00635096
Y00675096
X00065822
X00025822
Y00715096
Y00755096
Y00795096
X00105822Y00835096
X00025822Y00635096
X00100002Y00536
X001069Y00542532
X00131Y00518
X00137Y00566998
X00193Y00574253
X00206Y005805
X0022Y00588
X00235698Y00580725
X00225821Y00635096
X00265821
X00274Y0062
X00265821Y00675096
X00225821
X00222982Y00694659
X00201Y00695
X001635Y0072
X00184Y0075
X00209Y00750498
X002105Y007873
X0023Y00777
X00235698Y00823
X00201Y00825
X0018415Y0080645
X00185821Y00795096
X00145822
Y00835096
X001464Y00754102
X00246Y0074
X00293814Y00748807
X00293908Y00768
X00293814Y0080645
X00305821Y00795096
X00314376Y007873
X00327Y00777
X00327Y00739998
X00314376Y00719751
Y007095
X00305Y00667
X00304998Y00652999
X00351123
X00362Y00667
X00375249Y00679
X00393Y006695
X00340623Y00677
X0036Y0072
Y00744
X00355Y00827
X00385821Y00835096
X00391838Y00813377
X00398999Y00796998
X00446Y008093
X00476999Y00815998
X00485Y008093
X00506Y007873
X0052255Y00797
X0049715Y007585
X00501Y00731
X0047325Y0072
X00452Y00730747
X00452248Y007506
X00465221Y0078
X00475Y00771
X00452Y00694661
X00465221Y006569
X004655Y00644
X00453Y00621
X00466Y00592
X00505821Y00595096
Y00635096
X00489062Y006315
X00488Y00668
X00505821Y00675096
X0048785Y005553
X00499Y00535
Y00526
X00518Y00516
X00453Y00529
X00443999Y00511999
X00443Y00567
X00372Y0057925
Y006061
X00349Y00571
X00339Y00554109
X00342375Y00543
X00360937Y00551
X00360875Y00525
X00145822Y00635096
X00274Y00823
X00284324Y00823321
X00305821Y00835096
X00319Y00816
X005478Y008093
X00561Y00815
X0057335
X00585821Y00795096
X00625821
X00669Y00771
X00687702Y0078
X0071Y00771
X00735Y00787
X00745822Y00795096
X00785822
X00825822
X00865822
X00905822
X00865822Y00835096
X00825822
X00785822
X00745822
X00711652Y0087
X00561Y0087505
X00585821Y00835096
X00925994Y00551096
Y00538455
Y00527108
X00950219Y00521
X00974822Y00532496
Y00542346
X00974821Y00553409
X00983Y00517
X00951Y0057496
X00945822Y00595096
Y00635096
Y00675096
X00945Y00720498
X00945822Y00795096
Y00835096
X00985822
X01025822
X01065822
X01105822
X01145822
Y00795096
X01065822
X01025822
X01046Y0075
Y00742
X01055Y00742421
Y00750002
X01046421Y00720498
X01Y00746125
X01003001Y00659933
X01025822Y00635096
Y00595096
X01065822
X01079826Y0058465
X0108Y00576
X01105822Y00595096
Y00555096
Y00515096
X01079822Y00515972
X01185822Y00515096
Y00555096
X01208Y0054825
X01256
X01251498Y005775
X01316Y00572
X01322Y00578
X01310996Y00592
X01303Y0064
X01265997Y00648999
X01246234Y00647749
X01226Y0065
X01226875Y00669551
X012263Y00693926
X0121005Y00706597
X01199Y00709285
X0117975Y00720498
X01180017Y00737037
X01215Y00755
X01243184Y00752
X01243Y00763
X01231Y00786
X01225821Y00835096
X01265821
X01305821
Y00795096
X0132Y00786
X013Y00719
X01274Y00727
X0125Y00706
X01227998Y00726999
X01139498Y00720498
X01159Y007
X01165748Y00649999
X01151998
X01182Y00663
X01209537Y00643
X0107155Y00659933
X01103Y00744
X01305821Y00515096
X01345821
X01385821
Y00555096
Y00595096
Y00635096
Y00675096
Y00715096
Y00755096
Y00795096
X01345821Y00835096
Y00715096
Y00595096
Y00555096
T02
X01131848Y00215025
X01153848
X01175848
X01207848
Y00247026
X01175848
X01153848
X01131848
T03
X005588Y003302
Y003556
Y00381
Y004064
Y004318
X005842
X006096
X00635
X006604
X006858
X007112
X007366
X00762
X007874
X008128
X008382
X008636
X00889
Y004572
X008636
X008382
X008128
X007874
X00762
X007366
X007112
X006858
X006604
X00635
X006096
X005842
X005588
Y004826
X005842
X006096
X00635
X006604
X006858
X007112
X007366
X00762
X007874
X008128
X008382
X008636
X00889
Y00508
X008636
X008382
X008128
X007874
X00762
X007366
X007112
X006858
X006604
X00635
X006096
X005842
X005588
X005842Y004064
X006096
X00635
X006604
X006858
X007112
X007366
X00762
X007874
X008128
X008382
X008636
X00889
Y00381
X008636
X008382
X008128
X007874
X00762
X007366
X007112
X006858
X006604
X00635
X006096
X005842
Y003556
X006096
X00635
X006604
X006858
X007112
X007366
X00762
X007874
X008128
X008382
X008636
X00889
Y003302
X008636
X008382
X008128
X007874
X00762
X007366
X007112
X006858
X006604
X00635
X006096
X005842
X005334
Y003556
Y00381
Y004064
Y004318
Y004572
Y004826
Y00508
X004317Y005045
Y004791
Y004537
Y004283
Y004029
Y003775
Y003521
Y003267
X004063
Y003521
Y003775
Y004029
Y004283
Y004537
Y004791
Y005045
X003255Y003887
Y003633
X00058Y002326
X000326
Y002072
X00058
Y001818
X000326
Y001564
X00058
Y00131
X000326
X004063Y005299
Y005553
Y005807
Y006061
Y006315
Y006569
Y006823
Y007077
Y007331
Y007585
Y007839
Y008093
X004317
Y007839
Y007585
Y007331
Y007077
Y006823
Y006569
Y006315
Y006061
Y005807
Y005553
Y005299
X0047175Y00861504
X0049715
X0052255
X00370102Y00861
X00344702
X00319302
X00293902
X00260298
X00234898
X00209498
X00184098
X0054795Y00861504
X0057335
X0059875
X006096Y007112
Y006858
Y006604
Y00635
X005842
X005588
Y006604
X005842
Y006858
X005588
Y007112
X005842
X00635
Y006858
Y006604
Y00635
X006604
X006858
X007112
X007366
X00762
X007874
X008128
X008382
X008636
X00889
Y006604
X008636
X008382
X008128
X007874
X00762
X007366
X007112
X006858
X006604
Y006858
X006858
X007112
X007366
X00762
X007874
X008128
X008382
X008636
X00889
Y007112
X008636
X008382
X008128
X007874
X00762
X007366
X007112
X006858
X006604
Y006096
Y005842
Y005588
Y005334
X00635
X006096
X005842
X005588
Y005588
X005842
X006096
X00635
Y005842
X006096
X005842
X005588
Y006096
X005842
X006096
X00635
X006858
Y005842
Y005588
Y005334
X007112
X007366
X00762
X007874
X008128
X008382
X008636
X00889
Y005588
X008636
X008382
X008128
X007874
X00762
X007366
X007112
Y005842
X007366
X00762
X007874
X008128
X008382
X008636
X00889
Y006096
X008636
X008382
X008128
X007874
X00762
X007366
X007112
T04
X01321Y008725
X013535Y008725
T05
X01001Y0017
X01051Y0016
X01156419Y001705
X01256419Y001605
X01283499Y002728
X01293499Y003728
X012835Y004975
X00165Y004025
X00155Y003525
X00132Y00672
X00182Y00662
X001635Y005925
X001535Y005425
X012935Y005475
X012835Y00711398
X012935Y00811398
T06
X010085Y0008
X010435
X011485
X01183499
X012185
X01253499
X012885
X013235
X01361Y00201601
Y002366
Y00271601
Y003066
Y00362501
Y00397499
Y004325
Y00467499
X0008Y004325
Y00397501
Y003625
Y00327501
X0007975Y00512501
Y005475
Y00582501
Y00617499
X0008Y00719103
Y00754102
Y00789103
X009685Y0081
X010035
X01081Y0081
X01116
X011935
X012285
X01361Y00783802
Y00748802
X01361Y00665
Y0063
T07
X00909Y00278
X00419
Y00858
X00909
T08
X00035Y00035
X01406
X00035Y00855
X01406
M30
