G04*
G04 #@! TF.GenerationSoftware,Altium Limited,Altium Designer,19.1.7 (138)*
G04*
G04 Layer_Color=2752767*
%FSLAX44Y44*%
%MOMM*%
G71*
G01*
G75*
%ADD98C,0.0508*%
%ADD99C,0.0677*%
D98*
X404268Y807268D02*
Y811332D01*
X408332D01*
Y807268D01*
X404268D01*
Y781868D02*
Y785932D01*
X408332D01*
Y781868D01*
X404268D01*
Y756468D02*
Y760532D01*
X408332D01*
Y756468D01*
X404268D01*
Y731068D02*
Y735132D01*
X408332D01*
Y731068D01*
X404268D01*
Y705668D02*
Y709732D01*
X408332D01*
Y705668D01*
X404268D01*
Y680268D02*
Y684332D01*
X408332D01*
Y680268D01*
X404268D01*
Y654868D02*
Y658932D01*
X408332D01*
Y654868D01*
X404268D01*
Y629468D02*
Y633532D01*
X408332D01*
Y629468D01*
X404268D01*
Y604068D02*
Y608132D01*
X408332D01*
Y604068D01*
X404268D01*
Y578668D02*
Y582732D01*
X408332D01*
Y578668D01*
X404268D01*
Y553268D02*
Y557332D01*
X408332D01*
Y553268D01*
X404268D01*
Y527868D02*
Y531932D01*
X408332D01*
Y527868D01*
X404268D01*
X429668Y807268D02*
Y811332D01*
X433732D01*
Y807268D01*
X429668D01*
Y781868D02*
Y785932D01*
X433732D01*
Y781868D01*
X429668D01*
Y756468D02*
Y760532D01*
X433732D01*
Y756468D01*
X429668D01*
Y731068D02*
Y735132D01*
X433732D01*
Y731068D01*
X429668D01*
Y705668D02*
Y709732D01*
X433732D01*
Y705668D01*
X429668D01*
Y680268D02*
Y684332D01*
X433732D01*
Y680268D01*
X429668D01*
Y654868D02*
Y658932D01*
X433732D01*
Y654868D01*
X429668D01*
Y629468D02*
Y633532D01*
X433732D01*
Y629468D01*
X429668D01*
Y604068D02*
Y608132D01*
X433732D01*
Y604068D01*
X429668D01*
Y578668D02*
Y582732D01*
X433732D01*
Y578668D01*
X429668D01*
Y553268D02*
Y557332D01*
X433732D01*
Y553268D01*
X429668D01*
Y527868D02*
Y531932D01*
X433732D01*
Y527868D01*
X429668D01*
X404268Y324668D02*
Y328732D01*
X408332D01*
Y324668D01*
X404268D01*
X429668D02*
Y328732D01*
X433732D01*
Y324668D01*
X429668D01*
X404268Y350068D02*
Y354132D01*
X408332D01*
Y350068D01*
X404268D01*
X429668D02*
Y354132D01*
X433732D01*
Y350068D01*
X429668D01*
X404268Y375468D02*
Y379532D01*
X408332D01*
Y375468D01*
X404268D01*
X429668D02*
Y379532D01*
X433732D01*
Y375468D01*
X429668D01*
X404268Y400868D02*
Y404932D01*
X408332D01*
Y400868D01*
X404268D01*
X429668D02*
Y404932D01*
X433732D01*
Y400868D01*
X429668D01*
X404268Y426268D02*
Y430332D01*
X408332D01*
Y426268D01*
X404268D01*
X429668D02*
Y430332D01*
X433732D01*
Y426268D01*
X429668D01*
X404268Y451668D02*
Y455732D01*
X408332D01*
Y451668D01*
X404268D01*
X429668D02*
Y455732D01*
X433732D01*
Y451668D01*
X429668D01*
X404268Y477068D02*
Y481132D01*
X408332D01*
Y477068D01*
X404268D01*
X429668D02*
Y481132D01*
X433732D01*
Y477068D01*
X429668D01*
Y502468D02*
Y506532D01*
X433732D01*
Y502468D01*
X429668D01*
X404268D02*
Y506532D01*
X408332D01*
Y502468D01*
X404268D01*
X925000Y92968D02*
X922968Y97032D01*
X927032D01*
X925000Y92968D01*
Y77968D02*
X922968Y82032D01*
X927032D01*
X925000Y77968D01*
Y62968D02*
X922968Y67032D01*
X927032D01*
X925000Y62968D01*
X910000Y92968D02*
X907968Y97032D01*
X912032D01*
X910000Y92968D01*
Y77968D02*
X907968Y82032D01*
X912032D01*
X910000Y77968D01*
Y62968D02*
X907968Y67032D01*
X912032D01*
X910000Y62968D01*
X895000Y92968D02*
X892968Y97032D01*
X897032D01*
X895000Y92968D01*
Y77968D02*
X892968Y82032D01*
X897032D01*
X895000Y77968D01*
Y62968D02*
X892968Y67032D01*
X897032D01*
X895000Y62968D01*
X880000Y92968D02*
X877968Y97032D01*
X882032D01*
X880000Y92968D01*
Y77968D02*
X877968Y82032D01*
X882032D01*
X880000Y77968D01*
Y62968D02*
X877968Y67032D01*
X882032D01*
X880000Y62968D01*
X865000Y92968D02*
X862968Y97032D01*
X867032D01*
X865000Y92968D01*
Y77968D02*
X862968Y82032D01*
X867032D01*
X865000Y77968D01*
Y62968D02*
X862968Y67032D01*
X867032D01*
X865000Y62968D01*
X850000Y92968D02*
X847968Y97032D01*
X852032D01*
X850000Y92968D01*
Y77968D02*
X847968Y82032D01*
X852032D01*
X850000Y77968D01*
Y62968D02*
X847968Y67032D01*
X852032D01*
X850000Y62968D01*
X925000Y122968D02*
X922968Y127032D01*
X927032D01*
X925000Y122968D01*
Y137968D02*
X922968Y142032D01*
X927032D01*
X925000Y137968D01*
Y152968D02*
X922968Y157032D01*
X927032D01*
X925000Y152968D01*
X910000Y122968D02*
X907968Y127032D01*
X912032D01*
X910000Y122968D01*
Y137968D02*
X907968Y142032D01*
X912032D01*
X910000Y137968D01*
Y152968D02*
X907968Y157032D01*
X912032D01*
X910000Y152968D01*
X895000Y122968D02*
X892968Y127032D01*
X897032D01*
X895000Y122968D01*
Y137968D02*
X892968Y142032D01*
X897032D01*
X895000Y137968D01*
Y152968D02*
X892968Y157032D01*
X897032D01*
X895000Y152968D01*
X880000Y122968D02*
X877968Y127032D01*
X882032D01*
X880000Y122968D01*
Y137968D02*
X877968Y142032D01*
X882032D01*
X880000Y137968D01*
Y152968D02*
X877968Y157032D01*
X882032D01*
X880000Y152968D01*
X865000Y122968D02*
X862968Y127032D01*
X867032D01*
X865000Y122968D01*
Y137968D02*
X862968Y142032D01*
X867032D01*
X865000Y137968D01*
Y152968D02*
X862968Y157032D01*
X867032D01*
X865000Y152968D01*
X850000D02*
X847968Y157032D01*
X852032D01*
X850000Y152968D01*
Y137968D02*
X847968Y142032D01*
X852032D01*
X850000Y137968D01*
Y122968D02*
X847968Y127032D01*
X852032D01*
X850000Y122968D01*
X925000Y107968D02*
X922968Y112032D01*
X927032D01*
X925000Y107968D01*
X910000D02*
X907968Y112032D01*
X912032D01*
X910000Y107968D01*
X895000D02*
X892968Y112032D01*
X897032D01*
X895000Y107968D01*
X880000D02*
X877968Y112032D01*
X882032D01*
X880000Y107968D01*
X865000D02*
X862968Y112032D01*
X867032D01*
X865000Y107968D01*
X850000D02*
X847968Y112032D01*
X852032D01*
X850000Y107968D01*
X531368Y328168D02*
Y332232D01*
X535432D01*
Y328168D01*
X531368D01*
Y353568D02*
Y357632D01*
X535432D01*
Y353568D01*
X531368D01*
Y404368D02*
Y408432D01*
X535432D01*
Y404368D01*
X531368D01*
Y505968D02*
Y510032D01*
X535432D01*
Y505968D01*
X531368D01*
Y480568D02*
Y484632D01*
X535432D01*
Y480568D01*
X531368D01*
Y455168D02*
Y459232D01*
X535432D01*
Y455168D01*
X531368D01*
Y429768D02*
Y433832D01*
X535432D01*
Y429768D01*
X531368D01*
Y378968D02*
Y383032D01*
X535432D01*
Y378968D01*
X531368D01*
X556768Y632968D02*
Y637032D01*
X560832D01*
Y632968D01*
X556768D01*
X582168D02*
Y637032D01*
X586232D01*
Y632968D01*
X582168D01*
X607568D02*
Y637032D01*
X611632D01*
Y632968D01*
X607568D01*
X632968D02*
Y637032D01*
X637032D01*
Y632968D01*
X632968D01*
X734568D02*
Y637032D01*
X738632D01*
Y632968D01*
X734568D01*
X709168D02*
Y637032D01*
X713232D01*
Y632968D01*
X709168D01*
X683768D02*
Y637032D01*
X687832D01*
Y632968D01*
X683768D01*
X658368D02*
Y637032D01*
X662432D01*
Y632968D01*
X658368D01*
X836168D02*
Y637032D01*
X840232D01*
Y632968D01*
X836168D01*
X810768D02*
Y637032D01*
X814832D01*
Y632968D01*
X810768D01*
X785368D02*
Y637032D01*
X789432D01*
Y632968D01*
X785368D01*
X759968D02*
Y637032D01*
X764032D01*
Y632968D01*
X759968D01*
X861568D02*
Y637032D01*
X865632D01*
Y632968D01*
X861568D01*
X886968D02*
Y637032D01*
X891032D01*
Y632968D01*
X886968D01*
Y658368D02*
Y662432D01*
X891032D01*
Y658368D01*
X886968D01*
X861568D02*
Y662432D01*
X865632D01*
Y658368D01*
X861568D01*
X759968D02*
Y662432D01*
X764032D01*
Y658368D01*
X759968D01*
X785368D02*
Y662432D01*
X789432D01*
Y658368D01*
X785368D01*
X810768D02*
Y662432D01*
X814832D01*
Y658368D01*
X810768D01*
X836168D02*
Y662432D01*
X840232D01*
Y658368D01*
X836168D01*
X658368D02*
Y662432D01*
X662432D01*
Y658368D01*
X658368D01*
X683768D02*
Y662432D01*
X687832D01*
Y658368D01*
X683768D01*
X709168D02*
Y662432D01*
X713232D01*
Y658368D01*
X709168D01*
X734568D02*
Y662432D01*
X738632D01*
Y658368D01*
X734568D01*
X632968D02*
Y662432D01*
X637032D01*
Y658368D01*
X632968D01*
X607568D02*
Y662432D01*
X611632D01*
Y658368D01*
X607568D01*
X582168D02*
Y662432D01*
X586232D01*
Y658368D01*
X582168D01*
X556768D02*
Y662432D01*
X560832D01*
Y658368D01*
X556768D01*
X886968Y683768D02*
Y687832D01*
X891032D01*
Y683768D01*
X886968D01*
X861568D02*
Y687832D01*
X865632D01*
Y683768D01*
X861568D01*
X759968D02*
Y687832D01*
X764032D01*
Y683768D01*
X759968D01*
X785368D02*
Y687832D01*
X789432D01*
Y683768D01*
X785368D01*
X810768D02*
Y687832D01*
X814832D01*
Y683768D01*
X810768D01*
X836168D02*
Y687832D01*
X840232D01*
Y683768D01*
X836168D01*
X658368D02*
Y687832D01*
X662432D01*
Y683768D01*
X658368D01*
X683768D02*
Y687832D01*
X687832D01*
Y683768D01*
X683768D01*
X709168D02*
Y687832D01*
X713232D01*
Y683768D01*
X709168D01*
X734568D02*
Y687832D01*
X738632D01*
Y683768D01*
X734568D01*
X632968D02*
Y687832D01*
X637032D01*
Y683768D01*
X632968D01*
X607568D02*
Y687832D01*
X611632D01*
Y683768D01*
X607568D01*
X582168D02*
Y687832D01*
X586232D01*
Y683768D01*
X582168D01*
X556768D02*
Y687832D01*
X560832D01*
Y683768D01*
X556768D01*
X886968Y709168D02*
Y713232D01*
X891032D01*
Y709168D01*
X886968D01*
X861568D02*
Y713232D01*
X865632D01*
Y709168D01*
X861568D01*
X759968D02*
Y713232D01*
X764032D01*
Y709168D01*
X759968D01*
X785368D02*
Y713232D01*
X789432D01*
Y709168D01*
X785368D01*
X810768D02*
Y713232D01*
X814832D01*
Y709168D01*
X810768D01*
X836168D02*
Y713232D01*
X840232D01*
Y709168D01*
X836168D01*
X658368D02*
Y713232D01*
X662432D01*
Y709168D01*
X658368D01*
X683768D02*
Y713232D01*
X687832D01*
Y709168D01*
X683768D01*
X709168D02*
Y713232D01*
X713232D01*
Y709168D01*
X709168D01*
X734568D02*
Y713232D01*
X738632D01*
Y709168D01*
X734568D01*
X632968D02*
Y713232D01*
X637032D01*
Y709168D01*
X632968D01*
X607568D02*
Y713232D01*
X611632D01*
Y709168D01*
X607568D01*
X582168D02*
Y713232D01*
X586232D01*
Y709168D01*
X582168D01*
X556768D02*
Y713232D01*
X560832D01*
Y709168D01*
X556768D01*
Y531368D02*
Y535432D01*
X560832D01*
Y531368D01*
X556768D01*
X582168D02*
Y535432D01*
X586232D01*
Y531368D01*
X582168D01*
X607568D02*
Y535432D01*
X611632D01*
Y531368D01*
X607568D01*
X632968D02*
Y535432D01*
X637032D01*
Y531368D01*
X632968D01*
X734568D02*
Y535432D01*
X738632D01*
Y531368D01*
X734568D01*
X709168D02*
Y535432D01*
X713232D01*
Y531368D01*
X709168D01*
X683768D02*
Y535432D01*
X687832D01*
Y531368D01*
X683768D01*
X658368D02*
Y535432D01*
X662432D01*
Y531368D01*
X658368D01*
X836168D02*
Y535432D01*
X840232D01*
Y531368D01*
X836168D01*
X810768D02*
Y535432D01*
X814832D01*
Y531368D01*
X810768D01*
X785368D02*
Y535432D01*
X789432D01*
Y531368D01*
X785368D01*
X759968D02*
Y535432D01*
X764032D01*
Y531368D01*
X759968D01*
X861568D02*
Y535432D01*
X865632D01*
Y531368D01*
X861568D01*
X886968D02*
Y535432D01*
X891032D01*
Y531368D01*
X886968D01*
Y556768D02*
Y560832D01*
X891032D01*
Y556768D01*
X886968D01*
X861568D02*
Y560832D01*
X865632D01*
Y556768D01*
X861568D01*
X759968D02*
Y560832D01*
X764032D01*
Y556768D01*
X759968D01*
X785368D02*
Y560832D01*
X789432D01*
Y556768D01*
X785368D01*
X810768D02*
Y560832D01*
X814832D01*
Y556768D01*
X810768D01*
X836168D02*
Y560832D01*
X840232D01*
Y556768D01*
X836168D01*
X658368D02*
Y560832D01*
X662432D01*
Y556768D01*
X658368D01*
X683768D02*
Y560832D01*
X687832D01*
Y556768D01*
X683768D01*
X709168D02*
Y560832D01*
X713232D01*
Y556768D01*
X709168D01*
X734568D02*
Y560832D01*
X738632D01*
Y556768D01*
X734568D01*
X632968D02*
Y560832D01*
X637032D01*
Y556768D01*
X632968D01*
X607568D02*
Y560832D01*
X611632D01*
Y556768D01*
X607568D01*
X582168D02*
Y560832D01*
X586232D01*
Y556768D01*
X582168D01*
X556768D02*
Y560832D01*
X560832D01*
Y556768D01*
X556768D01*
X886968Y582168D02*
Y586232D01*
X891032D01*
Y582168D01*
X886968D01*
X861568D02*
Y586232D01*
X865632D01*
Y582168D01*
X861568D01*
X759968D02*
Y586232D01*
X764032D01*
Y582168D01*
X759968D01*
X785368D02*
Y586232D01*
X789432D01*
Y582168D01*
X785368D01*
X810768D02*
Y586232D01*
X814832D01*
Y582168D01*
X810768D01*
X836168D02*
Y586232D01*
X840232D01*
Y582168D01*
X836168D01*
X658368D02*
Y586232D01*
X662432D01*
Y582168D01*
X658368D01*
X683768D02*
Y586232D01*
X687832D01*
Y582168D01*
X683768D01*
X709168D02*
Y586232D01*
X713232D01*
Y582168D01*
X709168D01*
X734568D02*
Y586232D01*
X738632D01*
Y582168D01*
X734568D01*
X632968D02*
Y586232D01*
X637032D01*
Y582168D01*
X632968D01*
X607568D02*
Y586232D01*
X611632D01*
Y582168D01*
X607568D01*
X582168D02*
Y586232D01*
X586232D01*
Y582168D01*
X582168D01*
X556768D02*
Y586232D01*
X560832D01*
Y582168D01*
X556768D01*
X886968Y607568D02*
Y611632D01*
X891032D01*
Y607568D01*
X886968D01*
X861568D02*
Y611632D01*
X865632D01*
Y607568D01*
X861568D01*
X759968D02*
Y611632D01*
X764032D01*
Y607568D01*
X759968D01*
X785368D02*
Y611632D01*
X789432D01*
Y607568D01*
X785368D01*
X810768D02*
Y611632D01*
X814832D01*
Y607568D01*
X810768D01*
X836168D02*
Y611632D01*
X840232D01*
Y607568D01*
X836168D01*
X658368D02*
Y611632D01*
X662432D01*
Y607568D01*
X658368D01*
X683768D02*
Y611632D01*
X687832D01*
Y607568D01*
X683768D01*
X709168D02*
Y611632D01*
X713232D01*
Y607568D01*
X709168D01*
X734568D02*
Y611632D01*
X738632D01*
Y607568D01*
X734568D01*
X632968D02*
Y611632D01*
X637032D01*
Y607568D01*
X632968D01*
X607568D02*
Y611632D01*
X611632D01*
Y607568D01*
X607568D01*
X582168D02*
Y611632D01*
X586232D01*
Y607568D01*
X582168D01*
X556768D02*
Y611632D01*
X560832D01*
Y607568D01*
X556768D01*
Y429768D02*
Y433832D01*
X560832D01*
Y429768D01*
X556768D01*
X582168D02*
Y433832D01*
X586232D01*
Y429768D01*
X582168D01*
X607568D02*
Y433832D01*
X611632D01*
Y429768D01*
X607568D01*
X632968D02*
Y433832D01*
X637032D01*
Y429768D01*
X632968D01*
X734568D02*
Y433832D01*
X738632D01*
Y429768D01*
X734568D01*
X709168D02*
Y433832D01*
X713232D01*
Y429768D01*
X709168D01*
X683768D02*
Y433832D01*
X687832D01*
Y429768D01*
X683768D01*
X658368D02*
Y433832D01*
X662432D01*
Y429768D01*
X658368D01*
X836168D02*
Y433832D01*
X840232D01*
Y429768D01*
X836168D01*
X810768D02*
Y433832D01*
X814832D01*
Y429768D01*
X810768D01*
X785368D02*
Y433832D01*
X789432D01*
Y429768D01*
X785368D01*
X759968D02*
Y433832D01*
X764032D01*
Y429768D01*
X759968D01*
X861568D02*
Y433832D01*
X865632D01*
Y429768D01*
X861568D01*
X886968D02*
Y433832D01*
X891032D01*
Y429768D01*
X886968D01*
Y455168D02*
Y459232D01*
X891032D01*
Y455168D01*
X886968D01*
X861568D02*
Y459232D01*
X865632D01*
Y455168D01*
X861568D01*
X759968D02*
Y459232D01*
X764032D01*
Y455168D01*
X759968D01*
X785368D02*
Y459232D01*
X789432D01*
Y455168D01*
X785368D01*
X810768D02*
Y459232D01*
X814832D01*
Y455168D01*
X810768D01*
X836168D02*
Y459232D01*
X840232D01*
Y455168D01*
X836168D01*
X658368D02*
Y459232D01*
X662432D01*
Y455168D01*
X658368D01*
X683768D02*
Y459232D01*
X687832D01*
Y455168D01*
X683768D01*
X709168D02*
Y459232D01*
X713232D01*
Y455168D01*
X709168D01*
X734568D02*
Y459232D01*
X738632D01*
Y455168D01*
X734568D01*
X632968D02*
Y459232D01*
X637032D01*
Y455168D01*
X632968D01*
X607568D02*
Y459232D01*
X611632D01*
Y455168D01*
X607568D01*
X582168D02*
Y459232D01*
X586232D01*
Y455168D01*
X582168D01*
X556768D02*
Y459232D01*
X560832D01*
Y455168D01*
X556768D01*
X886968Y480568D02*
Y484632D01*
X891032D01*
Y480568D01*
X886968D01*
X861568D02*
Y484632D01*
X865632D01*
Y480568D01*
X861568D01*
X759968D02*
Y484632D01*
X764032D01*
Y480568D01*
X759968D01*
X785368D02*
Y484632D01*
X789432D01*
Y480568D01*
X785368D01*
X810768D02*
Y484632D01*
X814832D01*
Y480568D01*
X810768D01*
X836168D02*
Y484632D01*
X840232D01*
Y480568D01*
X836168D01*
X658368D02*
Y484632D01*
X662432D01*
Y480568D01*
X658368D01*
X683768D02*
Y484632D01*
X687832D01*
Y480568D01*
X683768D01*
X709168D02*
Y484632D01*
X713232D01*
Y480568D01*
X709168D01*
X734568D02*
Y484632D01*
X738632D01*
Y480568D01*
X734568D01*
X632968D02*
Y484632D01*
X637032D01*
Y480568D01*
X632968D01*
X607568D02*
Y484632D01*
X611632D01*
Y480568D01*
X607568D01*
X582168D02*
Y484632D01*
X586232D01*
Y480568D01*
X582168D01*
X556768D02*
Y484632D01*
X560832D01*
Y480568D01*
X556768D01*
X886968Y505968D02*
Y510032D01*
X891032D01*
Y505968D01*
X886968D01*
X861568D02*
Y510032D01*
X865632D01*
Y505968D01*
X861568D01*
X759968D02*
Y510032D01*
X764032D01*
Y505968D01*
X759968D01*
X785368D02*
Y510032D01*
X789432D01*
Y505968D01*
X785368D01*
X810768D02*
Y510032D01*
X814832D01*
Y505968D01*
X810768D01*
X836168D02*
Y510032D01*
X840232D01*
Y505968D01*
X836168D01*
X658368D02*
Y510032D01*
X662432D01*
Y505968D01*
X658368D01*
X683768D02*
Y510032D01*
X687832D01*
Y505968D01*
X683768D01*
X709168D02*
Y510032D01*
X713232D01*
Y505968D01*
X709168D01*
X734568D02*
Y510032D01*
X738632D01*
Y505968D01*
X734568D01*
X632968D02*
Y510032D01*
X637032D01*
Y505968D01*
X632968D01*
X607568D02*
Y510032D01*
X611632D01*
Y505968D01*
X607568D01*
X582168D02*
Y510032D01*
X586232D01*
Y505968D01*
X582168D01*
X556768D02*
Y510032D01*
X560832D01*
Y505968D01*
X556768D01*
Y404368D02*
Y408432D01*
X560832D01*
Y404368D01*
X556768D01*
X582168D02*
Y408432D01*
X586232D01*
Y404368D01*
X582168D01*
X607568D02*
Y408432D01*
X611632D01*
Y404368D01*
X607568D01*
X632968D02*
Y408432D01*
X637032D01*
Y404368D01*
X632968D01*
X734568D02*
Y408432D01*
X738632D01*
Y404368D01*
X734568D01*
X709168D02*
Y408432D01*
X713232D01*
Y404368D01*
X709168D01*
X683768D02*
Y408432D01*
X687832D01*
Y404368D01*
X683768D01*
X658368D02*
Y408432D01*
X662432D01*
Y404368D01*
X658368D01*
X836168D02*
Y408432D01*
X840232D01*
Y404368D01*
X836168D01*
X810768D02*
Y408432D01*
X814832D01*
Y404368D01*
X810768D01*
X785368D02*
Y408432D01*
X789432D01*
Y404368D01*
X785368D01*
X759968D02*
Y408432D01*
X764032D01*
Y404368D01*
X759968D01*
X861568D02*
Y408432D01*
X865632D01*
Y404368D01*
X861568D01*
X886968D02*
Y408432D01*
X891032D01*
Y404368D01*
X886968D01*
X556768Y378968D02*
Y383032D01*
X560832D01*
Y378968D01*
X556768D01*
X582168D02*
Y383032D01*
X586232D01*
Y378968D01*
X582168D01*
X607568D02*
Y383032D01*
X611632D01*
Y378968D01*
X607568D01*
X632968D02*
Y383032D01*
X637032D01*
Y378968D01*
X632968D01*
X734568D02*
Y383032D01*
X738632D01*
Y378968D01*
X734568D01*
X709168D02*
Y383032D01*
X713232D01*
Y378968D01*
X709168D01*
X683768D02*
Y383032D01*
X687832D01*
Y378968D01*
X683768D01*
X658368D02*
Y383032D01*
X662432D01*
Y378968D01*
X658368D01*
X836168D02*
Y383032D01*
X840232D01*
Y378968D01*
X836168D01*
X810768D02*
Y383032D01*
X814832D01*
Y378968D01*
X810768D01*
X785368D02*
Y383032D01*
X789432D01*
Y378968D01*
X785368D01*
X759968D02*
Y383032D01*
X764032D01*
Y378968D01*
X759968D01*
X861568D02*
Y383032D01*
X865632D01*
Y378968D01*
X861568D01*
X886968D02*
Y383032D01*
X891032D01*
Y378968D01*
X886968D01*
X556768Y353568D02*
Y357632D01*
X560832D01*
Y353568D01*
X556768D01*
X582168D02*
Y357632D01*
X586232D01*
Y353568D01*
X582168D01*
X607568D02*
Y357632D01*
X611632D01*
Y353568D01*
X607568D01*
X632968D02*
Y357632D01*
X637032D01*
Y353568D01*
X632968D01*
X734568D02*
Y357632D01*
X738632D01*
Y353568D01*
X734568D01*
X709168D02*
Y357632D01*
X713232D01*
Y353568D01*
X709168D01*
X683768D02*
Y357632D01*
X687832D01*
Y353568D01*
X683768D01*
X658368D02*
Y357632D01*
X662432D01*
Y353568D01*
X658368D01*
X836168D02*
Y357632D01*
X840232D01*
Y353568D01*
X836168D01*
X810768D02*
Y357632D01*
X814832D01*
Y353568D01*
X810768D01*
X785368D02*
Y357632D01*
X789432D01*
Y353568D01*
X785368D01*
X759968D02*
Y357632D01*
X764032D01*
Y353568D01*
X759968D01*
X861568D02*
Y357632D01*
X865632D01*
Y353568D01*
X861568D01*
X886968D02*
Y357632D01*
X891032D01*
Y353568D01*
X886968D01*
Y328168D02*
Y332232D01*
X891032D01*
Y328168D01*
X886968D01*
X861568D02*
Y332232D01*
X865632D01*
Y328168D01*
X861568D01*
X759968D02*
Y332232D01*
X764032D01*
Y328168D01*
X759968D01*
X785368D02*
Y332232D01*
X789432D01*
Y328168D01*
X785368D01*
X810768D02*
Y332232D01*
X814832D01*
Y328168D01*
X810768D01*
X836168D02*
Y332232D01*
X840232D01*
Y328168D01*
X836168D01*
X658368D02*
Y332232D01*
X662432D01*
Y328168D01*
X658368D01*
X683768D02*
Y332232D01*
X687832D01*
Y328168D01*
X683768D01*
X709168D02*
Y332232D01*
X713232D01*
Y328168D01*
X709168D01*
X734568D02*
Y332232D01*
X738632D01*
Y328168D01*
X734568D01*
X632968D02*
Y332232D01*
X637032D01*
Y328168D01*
X632968D01*
X607568D02*
Y332232D01*
X611632D01*
Y328168D01*
X607568D01*
X582168D02*
Y332232D01*
X586232D01*
Y328168D01*
X582168D01*
X556768D02*
Y332232D01*
X560832D01*
Y328168D01*
X556768D01*
X968500Y807968D02*
X969516Y808984D01*
X970532D01*
X969516Y810000D01*
X970532Y811016D01*
X969516D01*
X968500Y812032D01*
X967484Y811016D01*
X966468D01*
X967484Y810000D01*
X966468Y808984D01*
X967484D01*
X968500Y807968D01*
X1003500D02*
X1004516Y808984D01*
X1005532D01*
X1004516Y810000D01*
X1005532Y811016D01*
X1004516D01*
X1003500Y812032D01*
X1002484Y811016D01*
X1001468D01*
X1002484Y810000D01*
X1001468Y808984D01*
X1002484D01*
X1003500Y807968D01*
X1116000Y807968D02*
X1117016Y808984D01*
X1118032D01*
X1117016Y810000D01*
X1118032Y811016D01*
X1117016D01*
X1116000Y812032D01*
X1114984Y811016D01*
X1113968D01*
X1114984Y810000D01*
X1113968Y808984D01*
X1114984D01*
X1116000Y807968D01*
X1081000D02*
X1082016Y808984D01*
X1083032D01*
X1082016Y810000D01*
X1083032Y811016D01*
X1082016D01*
X1081000Y812032D01*
X1079984Y811016D01*
X1078968D01*
X1079984Y810000D01*
X1078968Y808984D01*
X1079984D01*
X1081000Y807968D01*
X1043500Y77968D02*
X1044516Y78984D01*
X1045532D01*
X1044516Y80000D01*
X1045532Y81016D01*
X1044516D01*
X1043500Y82032D01*
X1042484Y81016D01*
X1041468D01*
X1042484Y80000D01*
X1041468Y78984D01*
X1042484D01*
X1043500Y77968D01*
X1008500D02*
X1009516Y78984D01*
X1010532D01*
X1009516Y80000D01*
X1010532Y81016D01*
X1009516D01*
X1008500Y82032D01*
X1007484Y81016D01*
X1006468D01*
X1007484Y80000D01*
X1006468Y78984D01*
X1007484D01*
X1008500Y77968D01*
X1228500Y807968D02*
X1229516Y808984D01*
X1230532D01*
X1229516Y810000D01*
X1230532Y811016D01*
X1229516D01*
X1228500Y812032D01*
X1227484Y811016D01*
X1226468D01*
X1227484Y810000D01*
X1226468Y808984D01*
X1227484D01*
X1228500Y807968D01*
X1193500D02*
X1194516Y808984D01*
X1195532D01*
X1194516Y810000D01*
X1195532Y811016D01*
X1194516D01*
X1193500Y812032D01*
X1192484Y811016D01*
X1191468D01*
X1192484Y810000D01*
X1191468Y808984D01*
X1192484D01*
X1193500Y807968D01*
X1361000Y781770D02*
X1362016Y782786D01*
X1363032D01*
X1362016Y783802D01*
X1363032Y784818D01*
X1362016D01*
X1361000Y785834D01*
X1359984Y784818D01*
X1358968D01*
X1359984Y783802D01*
X1358968Y782786D01*
X1359984D01*
X1361000Y781770D01*
Y746770D02*
X1362016Y747786D01*
X1363032D01*
X1362016Y748802D01*
X1363032Y749818D01*
X1362016D01*
X1361000Y750834D01*
X1359984Y749818D01*
X1358968D01*
X1359984Y748802D01*
X1358968Y747786D01*
X1359984D01*
X1361000Y746770D01*
X1361000Y627968D02*
X1362016Y628984D01*
X1363032D01*
X1362016Y630000D01*
X1363032Y631016D01*
X1362016D01*
X1361000Y632032D01*
X1359984Y631016D01*
X1358968D01*
X1359984Y630000D01*
X1358968Y628984D01*
X1359984D01*
X1361000Y627968D01*
Y662968D02*
X1362016Y663984D01*
X1363032D01*
X1362016Y665000D01*
X1363032Y666016D01*
X1362016D01*
X1361000Y667032D01*
X1359984Y666016D01*
X1358968D01*
X1359984Y665000D01*
X1358968Y663984D01*
X1359984D01*
X1361000Y662968D01*
X1361000Y304568D02*
X1362016Y305584D01*
X1363032D01*
X1362016Y306600D01*
X1363032Y307616D01*
X1362016D01*
X1361000Y308632D01*
X1359984Y307616D01*
X1358968D01*
X1359984Y306600D01*
X1358968Y305584D01*
X1359984D01*
X1361000Y304568D01*
Y269569D02*
X1362016Y270585D01*
X1363032D01*
X1362016Y271601D01*
X1363032Y272617D01*
X1362016D01*
X1361000Y273633D01*
X1359984Y272617D01*
X1358968D01*
X1359984Y271601D01*
X1358968Y270585D01*
X1359984D01*
X1361000Y269569D01*
Y234568D02*
X1362016Y235584D01*
X1363032D01*
X1362016Y236600D01*
X1363032Y237616D01*
X1362016D01*
X1361000Y238632D01*
X1359984Y237616D01*
X1358968D01*
X1359984Y236600D01*
X1358968Y235584D01*
X1359984D01*
X1361000Y234568D01*
Y199569D02*
X1362016Y200585D01*
X1363032D01*
X1362016Y201601D01*
X1363032Y202617D01*
X1362016D01*
X1361000Y203633D01*
X1359984Y202617D01*
X1358968D01*
X1359984Y201601D01*
X1358968Y200585D01*
X1359984D01*
X1361000Y199569D01*
X1253499Y77968D02*
X1254515Y78984D01*
X1255531D01*
X1254515Y80000D01*
X1255531Y81016D01*
X1254515D01*
X1253499Y82032D01*
X1252483Y81016D01*
X1251467D01*
X1252483Y80000D01*
X1251467Y78984D01*
X1252483D01*
X1253499Y77968D01*
X1218500D02*
X1219516Y78984D01*
X1220532D01*
X1219516Y80000D01*
X1220532Y81016D01*
X1219516D01*
X1218500Y82032D01*
X1217484Y81016D01*
X1216468D01*
X1217484Y80000D01*
X1216468Y78984D01*
X1217484D01*
X1218500Y77968D01*
X1183499D02*
X1184515Y78984D01*
X1185531D01*
X1184515Y80000D01*
X1185531Y81016D01*
X1184515D01*
X1183499Y82032D01*
X1182483Y81016D01*
X1181467D01*
X1182483Y80000D01*
X1181467Y78984D01*
X1182483D01*
X1183499Y77968D01*
X1148500D02*
X1149516Y78984D01*
X1150532D01*
X1149516Y80000D01*
X1150532Y81016D01*
X1149516D01*
X1148500Y82032D01*
X1147484Y81016D01*
X1146468D01*
X1147484Y80000D01*
X1146468Y78984D01*
X1147484D01*
X1148500Y77968D01*
X1288500D02*
X1289516Y78984D01*
X1290532D01*
X1289516Y80000D01*
X1290532Y81016D01*
X1289516D01*
X1288500Y82032D01*
X1287484Y81016D01*
X1286468D01*
X1287484Y80000D01*
X1286468Y78984D01*
X1287484D01*
X1288500Y77968D01*
X1323500D02*
X1324516Y78984D01*
X1325532D01*
X1324516Y80000D01*
X1325532Y81016D01*
X1324516D01*
X1323500Y82032D01*
X1322484Y81016D01*
X1321468D01*
X1322484Y80000D01*
X1321468Y78984D01*
X1322484D01*
X1323500Y77968D01*
X971000Y335468D02*
X968968Y339532D01*
X973032D01*
X971000Y335468D01*
X956000D02*
X953968Y339532D01*
X958032D01*
X956000Y335468D01*
X941000D02*
X938968Y339532D01*
X943032D01*
X941000Y335468D01*
X971000Y350468D02*
X968968Y354532D01*
X973032D01*
X971000Y350468D01*
X956000D02*
X953968Y354532D01*
X958032D01*
X956000Y350468D01*
X941000D02*
X938968Y354532D01*
X943032D01*
X941000Y350468D01*
X971000Y365468D02*
X968968Y369532D01*
X973032D01*
X971000Y365468D01*
X956000D02*
X953968Y369532D01*
X958032D01*
X956000Y365468D01*
X941000D02*
X938968Y369532D01*
X943032D01*
X941000Y365468D01*
X971000Y380468D02*
X968968Y384533D01*
X973032D01*
X971000Y380468D01*
X956000D02*
X953968Y384533D01*
X958032D01*
X956000Y380468D01*
X941000D02*
X938968Y384533D01*
X943032D01*
X941000Y380468D01*
X971000Y395468D02*
X968968Y399532D01*
X973032D01*
X971000Y395468D01*
X956000D02*
X953968Y399532D01*
X958032D01*
X956000Y395468D01*
X941000D02*
X938968Y399532D01*
X943032D01*
X941000Y395468D01*
X971000Y410468D02*
X968968Y414532D01*
X973032D01*
X971000Y410468D01*
X956000D02*
X953968Y414532D01*
X958032D01*
X956000Y410468D01*
X941000D02*
X938968Y414532D01*
X943032D01*
X941000Y410468D01*
X1001000Y335468D02*
X998968Y339532D01*
X1003032D01*
X1001000Y335468D01*
X1016000D02*
X1013968Y339532D01*
X1018032D01*
X1016000Y335468D01*
X1031000D02*
X1028968Y339532D01*
X1033032D01*
X1031000Y335468D01*
X1001000Y350468D02*
X998968Y354532D01*
X1003032D01*
X1001000Y350468D01*
X1016000D02*
X1013968Y354532D01*
X1018032D01*
X1016000Y350468D01*
X1031000D02*
X1028968Y354532D01*
X1033032D01*
X1031000Y350468D01*
X1001000Y365468D02*
X998968Y369532D01*
X1003032D01*
X1001000Y365468D01*
X1016000D02*
X1013968Y369532D01*
X1018032D01*
X1016000Y365468D01*
X1031000D02*
X1028968Y369532D01*
X1033032D01*
X1031000Y365468D01*
X1001000Y380468D02*
X998968Y384533D01*
X1003032D01*
X1001000Y380468D01*
X1016000D02*
X1013968Y384533D01*
X1018032D01*
X1016000Y380468D01*
X1031000D02*
X1028968Y384533D01*
X1033032D01*
X1031000Y380468D01*
X1001000Y395468D02*
X998968Y399532D01*
X1003032D01*
X1001000Y395468D01*
X1016000D02*
X1013968Y399532D01*
X1018032D01*
X1016000Y395468D01*
X1031000D02*
X1028968Y399532D01*
X1033032D01*
X1031000Y395468D01*
Y410468D02*
X1028968Y414532D01*
X1033032D01*
X1031000Y410468D01*
X1016000D02*
X1013968Y414532D01*
X1018032D01*
X1016000Y410468D01*
X1001000D02*
X998968Y414532D01*
X1003032D01*
X1001000Y410468D01*
X986000Y335468D02*
X983968Y339532D01*
X988032D01*
X986000Y335468D01*
Y350468D02*
X983968Y354532D01*
X988032D01*
X986000Y350468D01*
Y365468D02*
X983968Y369532D01*
X988032D01*
X986000Y365468D01*
Y380468D02*
X983968Y384533D01*
X988032D01*
X986000Y380468D01*
Y395468D02*
X983968Y399532D01*
X988032D01*
X986000Y395468D01*
Y410468D02*
X983968Y414532D01*
X988032D01*
X986000Y410468D01*
X1205816Y244994D02*
X1206832Y247026D01*
X1205816Y249058D01*
X1207848Y248042D01*
X1209880Y249058D01*
X1208864Y247026D01*
X1209880Y244994D01*
X1207848Y246010D01*
X1205816Y244994D01*
X1173816D02*
X1174832Y247026D01*
X1173816Y249058D01*
X1175848Y248042D01*
X1177880Y249058D01*
X1176864Y247026D01*
X1177880Y244994D01*
X1175848Y246010D01*
X1173816Y244994D01*
X1151816D02*
X1152832Y247026D01*
X1151816Y249058D01*
X1153848Y248042D01*
X1155880Y249058D01*
X1154864Y247026D01*
X1155880Y244994D01*
X1153848Y246010D01*
X1151816Y244994D01*
X1129816D02*
X1130832Y247026D01*
X1129816Y249058D01*
X1131848Y248042D01*
X1133880Y249058D01*
X1132864Y247026D01*
X1133880Y244994D01*
X1131848Y246010D01*
X1129816Y244994D01*
Y212993D02*
X1130832Y215025D01*
X1129816Y217057D01*
X1131848Y216041D01*
X1133880Y217057D01*
X1132864Y215025D01*
X1133880Y212993D01*
X1131848Y214009D01*
X1129816Y212993D01*
X1151816D02*
X1152832Y215025D01*
X1151816Y217057D01*
X1153848Y216041D01*
X1155880Y217057D01*
X1154864Y215025D01*
X1155880Y212993D01*
X1153848Y214009D01*
X1151816Y212993D01*
X1173816D02*
X1174832Y215025D01*
X1173816Y217057D01*
X1175848Y216041D01*
X1177880Y217057D01*
X1176864Y215025D01*
X1177880Y212993D01*
X1175848Y214009D01*
X1173816Y212993D01*
X1205816D02*
X1206832Y215025D01*
X1205816Y217057D01*
X1207848Y216041D01*
X1209880Y217057D01*
X1208864Y215025D01*
X1209880Y212993D01*
X1207848Y214009D01*
X1205816Y212993D01*
X1319984Y871484D02*
Y870468D01*
X1322016D01*
Y871484D01*
X1323032D01*
Y873516D01*
X1322016D01*
Y874532D01*
X1319984D01*
Y873516D01*
X1318968D01*
Y871484D01*
X1319984D01*
X1352484Y871484D02*
Y870468D01*
X1354516D01*
Y871484D01*
X1355532D01*
Y873516D01*
X1354516D01*
Y874532D01*
X1352484D01*
Y873516D01*
X1351468D01*
Y871484D01*
X1352484D01*
X1361000Y360469D02*
X1362016Y361485D01*
X1363032D01*
X1362016Y362501D01*
X1363032Y363517D01*
X1362016D01*
X1361000Y364533D01*
X1359984Y363517D01*
X1358968D01*
X1359984Y362501D01*
X1358968Y361485D01*
X1359984D01*
X1361000Y360469D01*
Y395467D02*
X1362016Y396483D01*
X1363032D01*
X1362016Y397499D01*
X1363032Y398515D01*
X1362016D01*
X1361000Y399531D01*
X1359984Y398515D01*
X1358968D01*
X1359984Y397499D01*
X1358968Y396483D01*
X1359984D01*
X1361000Y395467D01*
Y430468D02*
X1362016Y431484D01*
X1363032D01*
X1362016Y432500D01*
X1363032Y433517D01*
X1362016D01*
X1361000Y434533D01*
X1359984Y433517D01*
X1358968D01*
X1359984Y432500D01*
X1358968Y431484D01*
X1359984D01*
X1361000Y430468D01*
Y465467D02*
X1362016Y466483D01*
X1363032D01*
X1362016Y467499D01*
X1363032Y468515D01*
X1362016D01*
X1361000Y469531D01*
X1359984Y468515D01*
X1358968D01*
X1359984Y467499D01*
X1358968Y466483D01*
X1359984D01*
X1361000Y465467D01*
X1403968Y32968D02*
X1404984D01*
X1406000Y33984D01*
X1407016Y32968D01*
X1408032D01*
Y33984D01*
X1407016Y35000D01*
X1408032Y36016D01*
Y37032D01*
X1407016D01*
X1406000Y36016D01*
X1404984Y37032D01*
X1403968D01*
Y36016D01*
X1404984Y35000D01*
X1403968Y33984D01*
Y32968D01*
Y852968D02*
X1404984D01*
X1406000Y853984D01*
X1407016Y852968D01*
X1408032D01*
Y853984D01*
X1407016Y855000D01*
X1408032Y856016D01*
Y857032D01*
X1407016D01*
X1406000Y856016D01*
X1404984Y857032D01*
X1403968D01*
Y856016D01*
X1404984Y855000D01*
X1403968Y853984D01*
Y852968D01*
X906968Y858000D02*
X909000Y860032D01*
X911032Y858000D01*
X909000Y855968D01*
X906968Y858000D01*
X416968D02*
X419000Y860032D01*
X421032Y858000D01*
X419000Y855968D01*
X416968Y858000D01*
X906968Y278000D02*
X909000Y280032D01*
X911032Y278000D01*
X909000Y275968D01*
X906968Y278000D01*
X416968D02*
X419000Y280032D01*
X421032Y278000D01*
X419000Y275968D01*
X416968Y278000D01*
X596718Y859472D02*
Y863536D01*
X600782D01*
Y859472D01*
X596718D01*
X571318D02*
Y863536D01*
X575382D01*
Y859472D01*
X571318D01*
X545918D02*
Y863536D01*
X549982D01*
Y859472D01*
X545918D01*
X520518D02*
Y863536D01*
X524582D01*
Y859472D01*
X520518D01*
X495118D02*
Y863536D01*
X499182D01*
Y859472D01*
X495118D01*
X469718D02*
Y863536D01*
X473782D01*
Y859472D01*
X469718D01*
X182066Y858968D02*
Y863032D01*
X186130D01*
Y858968D01*
X182066D01*
X207466D02*
Y863032D01*
X211530D01*
Y858968D01*
X207466D01*
X232866D02*
Y863032D01*
X236930D01*
Y858968D01*
X232866D01*
X258266D02*
Y863032D01*
X262330D01*
Y858968D01*
X258266D01*
X323468Y386668D02*
Y390732D01*
X327532D01*
Y386668D01*
X323468D01*
Y361268D02*
Y365332D01*
X327532D01*
Y361268D01*
X323468D01*
X79750Y510469D02*
X80766Y511485D01*
X81782D01*
X80766Y512501D01*
X81782Y513517D01*
X80766D01*
X79750Y514533D01*
X78734Y513517D01*
X77718D01*
X78734Y512501D01*
X77718Y511485D01*
X78734D01*
X79750Y510469D01*
Y545467D02*
X80766Y546483D01*
X81782D01*
X80766Y547500D01*
X81782Y548516D01*
X80766D01*
X79750Y549532D01*
X78734Y548516D01*
X77718D01*
X78734Y547500D01*
X77718Y546483D01*
X78734D01*
X79750Y545467D01*
Y580469D02*
X80766Y581485D01*
X81782D01*
X80766Y582501D01*
X81782Y583517D01*
X80766D01*
X79750Y584533D01*
X78734Y583517D01*
X77718D01*
X78734Y582501D01*
X77718Y581485D01*
X78734D01*
X79750Y580469D01*
Y615467D02*
X80766Y616483D01*
X81782D01*
X80766Y617499D01*
X81782Y618515D01*
X80766D01*
X79750Y619531D01*
X78734Y618515D01*
X77718D01*
X78734Y617499D01*
X77718Y616483D01*
X78734D01*
X79750Y615467D01*
X80000Y430467D02*
X81016Y431483D01*
X82032D01*
X81016Y432500D01*
X82032Y433516D01*
X81016D01*
X80000Y434532D01*
X78984Y433516D01*
X77968D01*
X78984Y432500D01*
X77968Y431483D01*
X78984D01*
X80000Y430467D01*
Y395469D02*
X81016Y396485D01*
X82032D01*
X81016Y397501D01*
X82032Y398517D01*
X81016D01*
X80000Y399533D01*
X78984Y398517D01*
X77968D01*
X78984Y397501D01*
X77968Y396485D01*
X78984D01*
X80000Y395469D01*
Y360468D02*
X81016Y361484D01*
X82032D01*
X81016Y362500D01*
X82032Y363516D01*
X81016D01*
X80000Y364532D01*
X78984Y363516D01*
X77968D01*
X78984Y362500D01*
X77968Y361484D01*
X78984D01*
X80000Y360468D01*
Y325469D02*
X81016Y326485D01*
X82032D01*
X81016Y327501D01*
X82032Y328517D01*
X81016D01*
X80000Y329533D01*
X78984Y328517D01*
X77968D01*
X78984Y327501D01*
X77968Y326485D01*
X78984D01*
X80000Y325469D01*
X80000Y787071D02*
X81016Y788087D01*
X82032D01*
X81016Y789103D01*
X82032Y790119D01*
X81016D01*
X80000Y791135D01*
X78984Y790119D01*
X77968D01*
X78984Y789103D01*
X77968Y788087D01*
X78984D01*
X80000Y787071D01*
Y752070D02*
X81016Y753086D01*
X82032D01*
X81016Y754102D01*
X82032Y755118D01*
X81016D01*
X80000Y756134D01*
X78984Y755118D01*
X77968D01*
X78984Y754102D01*
X77968Y753086D01*
X78984D01*
X80000Y752070D01*
Y717071D02*
X81016Y718087D01*
X82032D01*
X81016Y719103D01*
X82032Y720119D01*
X81016D01*
X80000Y721135D01*
X78984Y720119D01*
X77968D01*
X78984Y719103D01*
X77968Y718087D01*
X78984D01*
X80000Y717071D01*
X32968Y32968D02*
X33984D01*
X35000Y33984D01*
X36016Y32968D01*
X37032D01*
Y33984D01*
X36016Y35000D01*
X37032Y36016D01*
Y37032D01*
X36016D01*
X35000Y36016D01*
X33984Y37032D01*
X32968D01*
Y36016D01*
X33984Y35000D01*
X32968Y33984D01*
Y32968D01*
Y852968D02*
X33984D01*
X35000Y853984D01*
X36016Y852968D01*
X37032D01*
Y853984D01*
X36016Y855000D01*
X37032Y856016D01*
Y857032D01*
X36016D01*
X35000Y856016D01*
X33984Y857032D01*
X32968D01*
Y856016D01*
X33984Y855000D01*
X32968Y853984D01*
Y852968D01*
X30568Y230568D02*
Y234632D01*
X34632D01*
Y230568D01*
X30568D01*
X55968D02*
Y234632D01*
X60032D01*
Y230568D01*
X55968D01*
X30568Y205168D02*
Y209232D01*
X34632D01*
Y205168D01*
X30568D01*
X55968D02*
Y209232D01*
X60032D01*
Y205168D01*
X55968D01*
X30568Y179768D02*
Y183832D01*
X34632D01*
Y179768D01*
X30568D01*
X55968D02*
Y183832D01*
X60032D01*
Y179768D01*
X55968D01*
X30568Y154368D02*
Y158432D01*
X34632D01*
Y154368D01*
X30568D01*
X55968D02*
Y158432D01*
X60032D01*
Y154368D01*
X55968D01*
X30568Y128968D02*
Y133032D01*
X34632D01*
Y128968D01*
X30568D01*
X55968D02*
Y133032D01*
X60032D01*
Y128968D01*
X55968D01*
X368070Y858968D02*
Y863032D01*
X372134D01*
Y858968D01*
X368070D01*
X342670D02*
Y863032D01*
X346734D01*
Y858968D01*
X342670D01*
X317270D02*
Y863032D01*
X321334D01*
Y858968D01*
X317270D01*
X291870D02*
Y863032D01*
X295934D01*
Y858968D01*
X291870D01*
X293814Y804418D02*
X291782Y808482D01*
X295846D01*
X293814Y804418D01*
X184150D02*
X182118Y808482D01*
X186182D01*
X184150Y804418D01*
X372000Y375468D02*
X369968Y379532D01*
X374032D01*
X372000Y375468D01*
X201000Y822968D02*
X198968Y827032D01*
X203032D01*
X201000Y822968D01*
X210500Y785268D02*
X208468Y789332D01*
X212532D01*
X210500Y785268D01*
X235698Y820968D02*
X233666Y825032D01*
X237730D01*
X235698Y820968D01*
X1079826Y582618D02*
X1077794Y586682D01*
X1081858D01*
X1079826Y582618D01*
X1066000Y293968D02*
X1063968Y298032D01*
X1068032D01*
X1066000Y293968D01*
X1090614Y385906D02*
X1088582Y389970D01*
X1092646D01*
X1090614Y385906D01*
X1079822Y375417D02*
X1077790Y379481D01*
X1081854D01*
X1079822Y375417D01*
X1080000Y385906D02*
X1077968Y389970D01*
X1082032D01*
X1080000Y385906D01*
X913000Y328168D02*
X910968Y332232D01*
X915032D01*
X913000Y328168D01*
X928000Y451722D02*
X925968Y455786D01*
X930032D01*
X928000Y451722D01*
Y475456D02*
X925968Y479520D01*
X930032D01*
X928000Y475456D01*
Y496706D02*
X925968Y500770D01*
X930032D01*
X928000Y496706D01*
X970002Y419968D02*
X967970Y424032D01*
X972034D01*
X970002Y419968D01*
X970300Y430164D02*
X968268Y434228D01*
X972332D01*
X970300Y430164D01*
X985821Y419968D02*
X983789Y424032D01*
X987853D01*
X985821Y419968D01*
Y430164D02*
X983789Y434228D01*
X987853D01*
X985821Y430164D01*
X1079822Y513940D02*
X1077790Y518004D01*
X1081854D01*
X1079822Y513940D01*
X1079822Y456578D02*
X1077790Y460642D01*
X1081854D01*
X1079822Y456578D01*
X925994Y525076D02*
X923962Y529140D01*
X928026D01*
X925994Y525076D01*
X974821Y551377D02*
X972790Y555441D01*
X976853D01*
X974821Y551377D01*
X974822Y530464D02*
X972790Y534528D01*
X976854D01*
X974822Y530464D01*
Y540314D02*
X972790Y544378D01*
X976854D01*
X974822Y540314D01*
X925994Y536423D02*
X923962Y540487D01*
X928026D01*
X925994Y536423D01*
Y549064D02*
X923962Y553128D01*
X928026D01*
X925994Y549064D01*
X474072Y62064D02*
X472040Y66128D01*
X476104D01*
X474072Y62064D01*
X822822Y107164D02*
X820790Y111228D01*
X824854D01*
X822822Y107164D01*
X742615Y52064D02*
X740583Y56128D01*
X744647D01*
X742615Y52064D01*
X732572Y88140D02*
X730540Y92204D01*
X734604D01*
X732572Y88140D01*
X711022Y89063D02*
X708990Y93127D01*
X713054D01*
X711022Y89063D01*
X545821Y89943D02*
X543789Y94007D01*
X547854D01*
X545821Y89943D01*
X609422D02*
X607390Y94007D01*
X611454D01*
X609422Y89943D01*
X678798Y92064D02*
X676766Y96128D01*
X680830D01*
X678798Y92064D01*
Y63002D02*
X676766Y67066D01*
X680830D01*
X678798Y63002D01*
X609511Y62064D02*
X607480Y66128D01*
X611544D01*
X609511Y62064D01*
X545825Y63002D02*
X543793Y67066D01*
X547857D01*
X545825Y63002D01*
Y49065D02*
X543793Y53129D01*
X547857D01*
X545825Y49065D01*
X609511Y47315D02*
X607480Y51379D01*
X611544D01*
X609511Y47315D01*
X678798Y46064D02*
X676766Y50128D01*
X680830D01*
X678798Y46064D01*
Y33064D02*
X676766Y37128D01*
X680830D01*
X678798Y33064D01*
X609511D02*
X607480Y37128D01*
X611544D01*
X609511Y33064D01*
X1385821Y793064D02*
X1383789Y797128D01*
X1387853D01*
X1385821Y793064D01*
Y753064D02*
X1383789Y757128D01*
X1387853D01*
X1385821Y753064D01*
Y713064D02*
X1383789Y717128D01*
X1387853D01*
X1385821Y713064D01*
Y673064D02*
X1383789Y677128D01*
X1387853D01*
X1385821Y673064D01*
Y633064D02*
X1383789Y637128D01*
X1387853D01*
X1385821Y633064D01*
Y593064D02*
X1383789Y597128D01*
X1387853D01*
X1385821Y593064D01*
Y553064D02*
X1383789Y557128D01*
X1387853D01*
X1385821Y553064D01*
Y513064D02*
X1383789Y517128D01*
X1387853D01*
X1385821Y513064D01*
Y473064D02*
X1383789Y477128D01*
X1387853D01*
X1385821Y473064D01*
Y433064D02*
X1383789Y437128D01*
X1387853D01*
X1385821Y433064D01*
Y393064D02*
X1383789Y397128D01*
X1387853D01*
X1385821Y393064D01*
Y353064D02*
X1383789Y357128D01*
X1387853D01*
X1385821Y353064D01*
Y313064D02*
X1383789Y317128D01*
X1387853D01*
X1385821Y313064D01*
Y273064D02*
X1383789Y277128D01*
X1387853D01*
X1385821Y273064D01*
Y233064D02*
X1383789Y237128D01*
X1387853D01*
X1385821Y233064D01*
Y193064D02*
X1383789Y197128D01*
X1387853D01*
X1385821Y193064D01*
Y153064D02*
X1383789Y157128D01*
X1387853D01*
X1385821Y153064D01*
Y113064D02*
X1383789Y117128D01*
X1387853D01*
X1385821Y113064D01*
Y73064D02*
X1383789Y77128D01*
X1387853D01*
X1385821Y73064D01*
X1345821Y833064D02*
X1343789Y837128D01*
X1347853D01*
X1345821Y833064D01*
Y713064D02*
X1343789Y717128D01*
X1347853D01*
X1345821Y713064D01*
Y593064D02*
X1343789Y597128D01*
X1347853D01*
X1345821Y593064D01*
Y553064D02*
X1343789Y557128D01*
X1347853D01*
X1345821Y553064D01*
Y513064D02*
X1343789Y517128D01*
X1347853D01*
X1345821Y513064D01*
Y153064D02*
X1343789Y157128D01*
X1347853D01*
X1345821Y153064D01*
Y113064D02*
X1343789Y117128D01*
X1347853D01*
X1345821Y113064D01*
Y73064D02*
X1343789Y77128D01*
X1347853D01*
X1345821Y73064D01*
Y33064D02*
X1343789Y37128D01*
X1347853D01*
X1345821Y33064D01*
X1305821Y833064D02*
X1303789Y837128D01*
X1307853D01*
X1305821Y833064D01*
Y793064D02*
X1303789Y797128D01*
X1307853D01*
X1305821Y793064D01*
Y513064D02*
X1303789Y517128D01*
X1307853D01*
X1305821Y513064D01*
Y473064D02*
X1303789Y477128D01*
X1307853D01*
X1305821Y473064D01*
Y433064D02*
X1303789Y437128D01*
X1307853D01*
X1305821Y433064D01*
Y393064D02*
X1303789Y397128D01*
X1307853D01*
X1305821Y393064D01*
Y353064D02*
X1303789Y357128D01*
X1307853D01*
X1305821Y353064D01*
Y313064D02*
X1303789Y317128D01*
X1307853D01*
X1305821Y313064D01*
Y233064D02*
X1303789Y237128D01*
X1307853D01*
X1305821Y233064D01*
Y153064D02*
X1303789Y157128D01*
X1307853D01*
X1305821Y153064D01*
Y113064D02*
X1303789Y117128D01*
X1307853D01*
X1305821Y113064D01*
Y33064D02*
X1303789Y37128D01*
X1307853D01*
X1305821Y33064D01*
X1265821Y833064D02*
X1263789Y837128D01*
X1267853D01*
X1265821Y833064D01*
Y473064D02*
X1263789Y477128D01*
X1267853D01*
X1265821Y473064D01*
Y433064D02*
X1263789Y437128D01*
X1267853D01*
X1265821Y433064D01*
Y113064D02*
X1263789Y117128D01*
X1267853D01*
X1265821Y113064D01*
Y33064D02*
X1263789Y37128D01*
X1267853D01*
X1265821Y33064D01*
X1225821Y833064D02*
X1223789Y837128D01*
X1227853D01*
X1225821Y833064D01*
Y313064D02*
X1223789Y317128D01*
X1227853D01*
X1225821Y313064D01*
Y33064D02*
X1223789Y37128D01*
X1227853D01*
X1225821Y33064D01*
X1185822Y553064D02*
X1183790Y557128D01*
X1187853D01*
X1185822Y553064D01*
Y513064D02*
X1183790Y517128D01*
X1187853D01*
X1185822Y513064D01*
Y473064D02*
X1183790Y477128D01*
X1187853D01*
X1185822Y473064D01*
Y433064D02*
X1183790Y437128D01*
X1187853D01*
X1185822Y433064D01*
Y393064D02*
X1183790Y397128D01*
X1187853D01*
X1185822Y393064D01*
Y313064D02*
X1183790Y317128D01*
X1187853D01*
X1185822Y313064D01*
Y273064D02*
X1183790Y277128D01*
X1187853D01*
X1185822Y273064D01*
Y33064D02*
X1183790Y37128D01*
X1187853D01*
X1185822Y33064D01*
X1145822Y833064D02*
X1143790Y837128D01*
X1147853D01*
X1145822Y833064D01*
Y793064D02*
X1143790Y797128D01*
X1147853D01*
X1145822Y793064D01*
Y33064D02*
X1143790Y37128D01*
X1147853D01*
X1145822Y33064D01*
X1105822Y833064D02*
X1103790Y837128D01*
X1107853D01*
X1105822Y833064D01*
Y593064D02*
X1103790Y597128D01*
X1107853D01*
X1105822Y593064D01*
Y553064D02*
X1103790Y557128D01*
X1107853D01*
X1105822Y553064D01*
Y513064D02*
X1103790Y517128D01*
X1107853D01*
X1105822Y513064D01*
Y473064D02*
X1103790Y477128D01*
X1107853D01*
X1105822Y473064D01*
Y433064D02*
X1103790Y437128D01*
X1107853D01*
X1105822Y433064D01*
Y393064D02*
X1103790Y397128D01*
X1107853D01*
X1105822Y393064D01*
Y353064D02*
X1103790Y357128D01*
X1107853D01*
X1105822Y353064D01*
Y313064D02*
X1103790Y317128D01*
X1107853D01*
X1105822Y313064D01*
Y233064D02*
X1103790Y237128D01*
X1107853D01*
X1105822Y233064D01*
Y153064D02*
X1103790Y157128D01*
X1107853D01*
X1105822Y153064D01*
Y113064D02*
X1103790Y117128D01*
X1107853D01*
X1105822Y113064D01*
Y73064D02*
X1103790Y77128D01*
X1107853D01*
X1105822Y73064D01*
Y33064D02*
X1103790Y37128D01*
X1107853D01*
X1105822Y33064D01*
X1065822Y833064D02*
X1063790Y837128D01*
X1067853D01*
X1065822Y833064D01*
Y793064D02*
X1063790Y797128D01*
X1067853D01*
X1065822Y793064D01*
Y593064D02*
X1063790Y597128D01*
X1067853D01*
X1065822Y593064D01*
Y273064D02*
X1063790Y277128D01*
X1067853D01*
X1065822Y273064D01*
Y33064D02*
X1063790Y37128D01*
X1067853D01*
X1065822Y33064D01*
X1025822Y833064D02*
X1023790Y837128D01*
X1027853D01*
X1025822Y833064D01*
Y793064D02*
X1023790Y797128D01*
X1027853D01*
X1025822Y793064D01*
Y633064D02*
X1023790Y637128D01*
X1027853D01*
X1025822Y633064D01*
Y593064D02*
X1023790Y597128D01*
X1027853D01*
X1025822Y593064D01*
Y273064D02*
X1023790Y277128D01*
X1027853D01*
X1025822Y273064D01*
Y233064D02*
X1023790Y237128D01*
X1027853D01*
X1025822Y233064D01*
Y113064D02*
X1023790Y117128D01*
X1027853D01*
X1025822Y113064D01*
Y33064D02*
X1023790Y37128D01*
X1027853D01*
X1025822Y33064D01*
X985822Y833064D02*
X983790Y837128D01*
X987853D01*
X985822Y833064D01*
Y273064D02*
X983790Y277128D01*
X987853D01*
X985822Y273064D01*
Y153064D02*
X983790Y157128D01*
X987853D01*
X985822Y153064D01*
Y113064D02*
X983790Y117128D01*
X987853D01*
X985822Y113064D01*
Y73064D02*
X983790Y77128D01*
X987853D01*
X985822Y73064D01*
Y33064D02*
X983790Y37128D01*
X987853D01*
X985822Y33064D01*
X945822Y833064D02*
X943790Y837128D01*
X947853D01*
X945822Y833064D01*
Y793064D02*
X943790Y797128D01*
X947853D01*
X945822Y793064D01*
Y673064D02*
X943790Y677128D01*
X947853D01*
X945822Y673064D01*
Y633064D02*
X943790Y637128D01*
X947853D01*
X945822Y633064D01*
Y593064D02*
X943790Y597128D01*
X947853D01*
X945822Y593064D01*
X905822Y793064D02*
X903790Y797128D01*
X907853D01*
X905822Y793064D01*
X865822Y833064D02*
X863790Y837128D01*
X867853D01*
X865822Y833064D01*
Y793064D02*
X863790Y797128D01*
X867853D01*
X865822Y793064D01*
Y273064D02*
X863790Y277128D01*
X867853D01*
X865822Y273064D01*
X825822Y833064D02*
X823790Y837128D01*
X827853D01*
X825822Y833064D01*
Y793064D02*
X823790Y797128D01*
X827853D01*
X825822Y793064D01*
Y273064D02*
X823790Y277128D01*
X827853D01*
X825822Y273064D01*
X785822Y833064D02*
X783790Y837128D01*
X787853D01*
X785822Y833064D01*
Y793064D02*
X783790Y797128D01*
X787853D01*
X785822Y793064D01*
Y273064D02*
X783790Y277128D01*
X787853D01*
X785822Y273064D01*
X745822Y833064D02*
X743790Y837128D01*
X747853D01*
X745822Y833064D01*
Y793064D02*
X743790Y797128D01*
X747853D01*
X745822Y793064D01*
Y273064D02*
X743790Y277128D01*
X747853D01*
X745822Y273064D01*
Y33064D02*
X743790Y37128D01*
X747853D01*
X745822Y33064D01*
X705822Y273064D02*
X703790Y277128D01*
X707853D01*
X705822Y273064D01*
X665822D02*
X663790Y277128D01*
X667853D01*
X665822Y273064D01*
X625821Y793064D02*
X623789Y797128D01*
X627854D01*
X625821Y793064D01*
Y273064D02*
X623789Y277128D01*
X627854D01*
X625821Y273064D01*
X585821Y833064D02*
X583789Y837128D01*
X587854D01*
X585821Y833064D01*
Y793064D02*
X583789Y797128D01*
X587854D01*
X585821Y793064D01*
Y273064D02*
X583789Y277128D01*
X587854D01*
X585821Y273064D01*
Y193064D02*
X583789Y197128D01*
X587854D01*
X585821Y193064D01*
X545821Y273064D02*
X543789Y277128D01*
X547854D01*
X545821Y273064D01*
Y193064D02*
X543789Y197128D01*
X547854D01*
X545821Y193064D01*
Y153064D02*
X543789Y157128D01*
X547854D01*
X545821Y153064D01*
Y33064D02*
X543789Y37128D01*
X547854D01*
X545821Y33064D01*
X505821Y673064D02*
X503789Y677128D01*
X507854D01*
X505821Y673064D01*
Y633064D02*
X503789Y637128D01*
X507854D01*
X505821Y633064D01*
Y593064D02*
X503789Y597128D01*
X507854D01*
X505821Y593064D01*
Y273064D02*
X503789Y277128D01*
X507854D01*
X505821Y273064D01*
Y153064D02*
X503789Y157128D01*
X507854D01*
X505821Y153064D01*
X465821Y353064D02*
X463789Y357128D01*
X467854D01*
X465821Y353064D01*
Y153064D02*
X463789Y157128D01*
X467854D01*
X465821Y153064D01*
Y33064D02*
X463789Y37128D01*
X467854D01*
X465821Y33064D01*
X425821Y193064D02*
X423789Y197128D01*
X427854D01*
X425821Y193064D01*
Y153064D02*
X423789Y157128D01*
X427854D01*
X425821Y153064D01*
Y113064D02*
X423789Y117128D01*
X427854D01*
X425821Y113064D01*
Y33064D02*
X423789Y37128D01*
X427854D01*
X425821Y33064D01*
X385821Y833064D02*
X383789Y837128D01*
X387854D01*
X385821Y833064D01*
Y473064D02*
X383789Y477128D01*
X387854D01*
X385821Y473064D01*
Y193064D02*
X383789Y197128D01*
X387854D01*
X385821Y193064D01*
Y153064D02*
X383789Y157128D01*
X387854D01*
X385821Y153064D01*
Y113064D02*
X383789Y117128D01*
X387854D01*
X385821Y113064D01*
Y33064D02*
X383789Y37128D01*
X387854D01*
X385821Y33064D01*
X345821Y313064D02*
X343789Y317128D01*
X347854D01*
X345821Y313064D01*
Y273064D02*
X343789Y277128D01*
X347854D01*
X345821Y273064D01*
Y193064D02*
X343789Y197128D01*
X347854D01*
X345821Y193064D01*
Y153064D02*
X343789Y157128D01*
X347854D01*
X345821Y153064D01*
Y113064D02*
X343789Y117128D01*
X347854D01*
X345821Y113064D01*
Y33064D02*
X343789Y37128D01*
X347854D01*
X345821Y33064D01*
X305821Y833064D02*
X303790Y837128D01*
X307854D01*
X305821Y833064D01*
Y793064D02*
X303790Y797128D01*
X307854D01*
X305821Y793064D01*
Y273064D02*
X303790Y277128D01*
X307854D01*
X305821Y273064D01*
Y193064D02*
X303790Y197128D01*
X307854D01*
X305821Y193064D01*
Y153064D02*
X303790Y157128D01*
X307854D01*
X305821Y153064D01*
Y113064D02*
X303790Y117128D01*
X307854D01*
X305821Y113064D01*
Y33064D02*
X303790Y37128D01*
X307854D01*
X305821Y33064D01*
X265821Y673064D02*
X263790Y677128D01*
X267854D01*
X265821Y673064D01*
Y633064D02*
X263790Y637128D01*
X267854D01*
X265821Y633064D01*
Y473064D02*
X263790Y477128D01*
X267854D01*
X265821Y473064D01*
Y273064D02*
X263790Y277128D01*
X267854D01*
X265821Y273064D01*
Y193064D02*
X263790Y197128D01*
X267854D01*
X265821Y193064D01*
Y153064D02*
X263790Y157128D01*
X267854D01*
X265821Y153064D01*
Y113064D02*
X263790Y117128D01*
X267854D01*
X265821Y113064D01*
Y33064D02*
X263790Y37128D01*
X267854D01*
X265821Y33064D01*
X225821Y673064D02*
X223790Y677128D01*
X227854D01*
X225821Y673064D01*
Y633064D02*
X223790Y637128D01*
X227854D01*
X225821Y633064D01*
Y473064D02*
X223790Y477128D01*
X227854D01*
X225821Y473064D01*
Y433064D02*
X223790Y437128D01*
X227854D01*
X225821Y433064D01*
Y393064D02*
X223790Y397128D01*
X227854D01*
X225821Y393064D01*
Y353064D02*
X223790Y357128D01*
X227854D01*
X225821Y353064D01*
Y273064D02*
X223790Y277128D01*
X227854D01*
X225821Y273064D01*
Y193064D02*
X223790Y197128D01*
X227854D01*
X225821Y193064D01*
Y153064D02*
X223790Y157128D01*
X227854D01*
X225821Y153064D01*
Y113064D02*
X223790Y117128D01*
X227854D01*
X225821Y113064D01*
Y33064D02*
X223790Y37128D01*
X227854D01*
X225821Y33064D01*
X185821Y793064D02*
X183790Y797128D01*
X187854D01*
X185821Y793064D01*
Y193064D02*
X183790Y197128D01*
X187854D01*
X185821Y193064D01*
Y153064D02*
X183790Y157128D01*
X187854D01*
X185821Y153064D01*
Y113064D02*
X183790Y117128D01*
X187854D01*
X185821Y113064D01*
Y33064D02*
X183790Y37128D01*
X187854D01*
X185821Y33064D01*
X145822Y833064D02*
X143790Y837128D01*
X147854D01*
X145822Y833064D01*
Y793064D02*
X143790Y797128D01*
X147854D01*
X145822Y793064D01*
Y633064D02*
X143790Y637128D01*
X147854D01*
X145822Y633064D01*
Y313064D02*
X143790Y317128D01*
X147854D01*
X145822Y313064D01*
Y273064D02*
X143790Y277128D01*
X147854D01*
X145822Y273064D01*
Y113064D02*
X143790Y117128D01*
X147854D01*
X145822Y113064D01*
Y33064D02*
X143790Y37128D01*
X147854D01*
X145822Y33064D01*
X105822Y833064D02*
X103790Y837128D01*
X107854D01*
X105822Y833064D01*
Y673064D02*
X103790Y677128D01*
X107854D01*
X105822Y673064D01*
Y633064D02*
X103790Y637128D01*
X107854D01*
X105822Y633064D01*
Y113064D02*
X103790Y117128D01*
X107854D01*
X105822Y113064D01*
Y33064D02*
X103790Y37128D01*
X107854D01*
X105822Y33064D01*
X65822Y673064D02*
X63790Y677128D01*
X67854D01*
X65822Y673064D01*
Y593064D02*
X63790Y597128D01*
X67854D01*
X65822Y593064D01*
Y473064D02*
X63790Y477128D01*
X67854D01*
X65822Y473064D01*
Y273064D02*
X63790Y277128D01*
X67854D01*
X65822Y273064D01*
Y73064D02*
X63790Y77128D01*
X67854D01*
X65822Y73064D01*
X25822Y793064D02*
X23790Y797128D01*
X27854D01*
X25822Y793064D01*
Y753064D02*
X23790Y757128D01*
X27854D01*
X25822Y753064D01*
Y713064D02*
X23790Y717128D01*
X27854D01*
X25822Y713064D01*
Y673064D02*
X23790Y677128D01*
X27854D01*
X25822Y673064D01*
Y633064D02*
X23790Y637128D01*
X27854D01*
X25822Y633064D01*
Y593064D02*
X23790Y597128D01*
X27854D01*
X25822Y593064D01*
Y553064D02*
X23790Y557128D01*
X27854D01*
X25822Y553064D01*
Y513064D02*
X23790Y517128D01*
X27854D01*
X25822Y513064D01*
Y473064D02*
X23790Y477128D01*
X27854D01*
X25822Y473064D01*
Y433064D02*
X23790Y437128D01*
X27854D01*
X25822Y433064D01*
Y393064D02*
X23790Y397128D01*
X27854D01*
X25822Y393064D01*
Y353064D02*
X23790Y357128D01*
X27854D01*
X25822Y353064D01*
Y313064D02*
X23790Y317128D01*
X27854D01*
X25822Y313064D01*
Y273064D02*
X23790Y277128D01*
X27854D01*
X25822Y273064D01*
Y113064D02*
X23790Y117128D01*
X27854D01*
X25822Y113064D01*
Y73064D02*
X23790Y77128D01*
X27854D01*
X25822Y73064D01*
X1226300Y691894D02*
X1224268Y695958D01*
X1228332D01*
X1226300Y691894D01*
X1226875Y667519D02*
X1224843Y671583D01*
X1228907D01*
X1226875Y667519D01*
X443000Y75968D02*
X440968Y80032D01*
X445032D01*
X443000Y75968D01*
Y196968D02*
X440968Y201032D01*
X445032D01*
X443000Y196968D01*
X533400Y197968D02*
X531368Y202032D01*
X535432D01*
X533400Y197968D01*
X521000Y212968D02*
X518968Y217032D01*
X523032D01*
X521000Y212968D01*
X499000Y429768D02*
X496968Y433832D01*
X501032D01*
X499000Y429768D01*
X1208000Y546218D02*
X1205968Y550282D01*
X1210032D01*
X1208000Y546218D01*
X1256000D02*
X1253968Y550282D01*
X1258032D01*
X1256000Y546218D01*
X501000Y728968D02*
X498968Y733032D01*
X503032D01*
X501000Y728968D01*
X452000Y728715D02*
X449968Y732779D01*
X454032D01*
X452000Y728715D01*
Y692629D02*
X449968Y696693D01*
X454032D01*
X452000Y692629D01*
X209000Y748466D02*
X206968Y752530D01*
X211032D01*
X209000Y748466D01*
X184000Y747968D02*
X181968Y752032D01*
X186032D01*
X184000Y747968D01*
X391838Y811345D02*
X389806Y815409D01*
X393870D01*
X391838Y811345D01*
X398999Y794966D02*
X396967Y799030D01*
X401031D01*
X398999Y794966D01*
X476999Y813966D02*
X474967Y818030D01*
X479031D01*
X476999Y813966D01*
X485000Y807268D02*
X482968Y811332D01*
X487032D01*
X485000Y807268D01*
X446000D02*
X443968Y811332D01*
X448032D01*
X446000Y807268D01*
X711652Y867968D02*
X709620Y872032D01*
X713684D01*
X711652Y867968D01*
X561000Y873018D02*
X558968Y877082D01*
X563032D01*
X561000Y873018D01*
Y812968D02*
X558968Y817032D01*
X563032D01*
X561000Y812968D01*
X284324Y821289D02*
X282292Y825353D01*
X286356D01*
X284324Y821289D01*
X100002Y533968D02*
X97970Y538032D01*
X102034D01*
X100002Y533968D01*
X107500Y613968D02*
X105468Y618032D01*
X109532D01*
X107500Y613968D01*
X360937Y548968D02*
X358904Y553032D01*
X362968D01*
X360937Y548968D01*
X301998Y463968D02*
X299966Y468032D01*
X304030D01*
X301998Y463968D01*
X333950Y445468D02*
X331918Y449532D01*
X335982D01*
X333950Y445468D01*
X157000Y194968D02*
X154968Y199032D01*
X159032D01*
X157000Y194968D01*
X132998D02*
X130966Y199032D01*
X135030D01*
X132998Y194968D01*
X468000Y339968D02*
X465968Y344032D01*
X470032D01*
X468000Y339968D01*
X767000Y109619D02*
X764968Y113683D01*
X769032D01*
X767000Y109619D01*
X1019000Y176968D02*
X1016968Y181032D01*
X1021032D01*
X1019000Y176968D01*
X1248000D02*
X1245968Y181032D01*
X1250032D01*
X1248000Y176968D01*
X986000Y492968D02*
X983968Y497032D01*
X988032D01*
X986000Y492968D01*
X983000Y514968D02*
X980968Y519032D01*
X985032D01*
X983000Y514968D01*
X950219Y518968D02*
X948187Y523032D01*
X952252D01*
X950219Y518968D01*
X1209537Y640968D02*
X1207505Y645032D01*
X1211569D01*
X1209537Y640968D01*
X1246234Y645717D02*
X1244202Y649781D01*
X1248266D01*
X1246234Y645717D01*
X1227998Y724967D02*
X1225965Y729031D01*
X1230030D01*
X1227998Y724967D01*
X1159000Y697968D02*
X1156968Y702032D01*
X1161032D01*
X1159000Y697968D01*
X1199000Y707253D02*
X1196968Y711317D01*
X1201032D01*
X1199000Y707253D01*
X945000Y718466D02*
X942968Y722530D01*
X947032D01*
X945000Y718466D01*
X1046421D02*
X1044389Y722530D01*
X1048453D01*
X1046421Y718466D01*
X1055000Y747970D02*
X1052968Y752034D01*
X1057032D01*
X1055000Y747970D01*
X1046000Y739968D02*
X1043968Y744032D01*
X1048032D01*
X1046000Y739968D01*
X1055000Y740389D02*
X1052968Y744453D01*
X1057032D01*
X1055000Y740389D01*
X1046000Y747968D02*
X1043968Y752032D01*
X1048032D01*
X1046000Y747968D01*
X1080000Y573968D02*
X1077968Y578032D01*
X1082032D01*
X1080000Y573968D01*
X951000Y572928D02*
X948968Y576992D01*
X953032D01*
X951000Y572928D01*
X1080000Y395468D02*
X1077968Y399532D01*
X1082032D01*
X1080000Y395468D01*
X489062Y629468D02*
X487030Y633532D01*
X491095D01*
X489062Y629468D01*
X339000Y552077D02*
X336968Y556141D01*
X341032D01*
X339000Y552077D01*
X157000Y289203D02*
X154968Y293267D01*
X159032D01*
X157000Y289203D01*
X152000Y128968D02*
X149968Y133032D01*
X154032D01*
X152000Y128968D01*
X108000Y141968D02*
X105968Y146032D01*
X110032D01*
X108000Y141968D01*
X140000Y289968D02*
X137968Y294032D01*
X142032D01*
X140000Y289968D01*
X196500Y230568D02*
X194468Y234632D01*
X198532D01*
X196500Y230568D01*
X185000Y218968D02*
X182968Y223032D01*
X187032D01*
X185000Y218968D01*
X196500Y239968D02*
X194468Y244032D01*
X198532D01*
X196500Y239968D01*
X223000Y291463D02*
X220968Y295527D01*
X225032D01*
X223000Y291463D01*
X299000Y290968D02*
X296968Y295032D01*
X301032D01*
X299000Y290968D01*
X346645Y326968D02*
X344613Y331032D01*
X348677D01*
X346645Y326968D01*
X360875Y522968D02*
X358843Y527032D01*
X362907D01*
X360875Y522968D01*
X302000Y488968D02*
X299968Y493032D01*
X304032D01*
X302000Y488968D01*
X222000Y488966D02*
X219968Y493030D01*
X224032D01*
X222000Y488966D01*
X201000Y692968D02*
X198968Y697032D01*
X203032D01*
X201000Y692968D01*
X222982Y692626D02*
X220950Y696691D01*
X225014D01*
X222982Y692626D01*
X314376Y707468D02*
X312344Y711532D01*
X316408D01*
X314376Y707468D01*
X804000Y41968D02*
X801968Y46032D01*
X806032D01*
X804000Y41968D01*
X765000Y54968D02*
X762968Y59032D01*
X767032D01*
X765000Y54968D01*
X1251498Y575468D02*
X1249466Y579532D01*
X1253530D01*
X1251498Y575468D01*
X1303000Y637968D02*
X1300968Y642032D01*
X1305032D01*
X1303000Y637968D01*
X1310996Y589968D02*
X1308964Y594032D01*
X1313028D01*
X1310996Y589968D01*
X1265997Y646967D02*
X1263966Y651031D01*
X1268029D01*
X1265997Y646967D01*
X1243184Y749968D02*
X1241152Y754032D01*
X1245216D01*
X1243184Y749968D01*
X1300000Y716968D02*
X1297968Y721032D01*
X1302032D01*
X1300000Y716968D01*
X1274000Y724968D02*
X1271968Y729032D01*
X1276032D01*
X1274000Y724968D01*
X1361000Y501968D02*
X1358968Y506032D01*
X1363032D01*
X1361000Y501968D01*
X1355000Y495468D02*
X1352968Y499532D01*
X1357032D01*
X1355000Y495468D01*
X1322000Y575968D02*
X1319968Y580032D01*
X1324032D01*
X1322000Y575968D01*
X1316000Y569968D02*
X1313968Y574032D01*
X1318032D01*
X1316000Y569968D01*
X393000Y667468D02*
X390968Y671532D01*
X395032D01*
X393000Y667468D01*
X372000Y577218D02*
X369968Y581282D01*
X374032D01*
X372000Y577218D01*
X349000Y568968D02*
X346968Y573032D01*
X351032D01*
X349000Y568968D01*
X340623Y674968D02*
X338591Y679032D01*
X342655D01*
X340623Y674968D01*
X443000Y564968D02*
X440968Y569032D01*
X445032D01*
X443000Y564968D01*
X1182000Y660968D02*
X1179968Y665032D01*
X1184032D01*
X1182000Y660968D01*
X1003001Y657901D02*
X1000969Y661965D01*
X1005033D01*
X1003001Y657901D01*
X1000000Y744093D02*
X997968Y748157D01*
X1002032D01*
X1000000Y744093D01*
X375249Y676968D02*
X373217Y681032D01*
X377281D01*
X375249Y676968D01*
X342375Y540968D02*
X340343Y545032D01*
X344407D01*
X342375Y540968D01*
X1250000Y703968D02*
X1247968Y708032D01*
X1252032D01*
X1250000Y703968D01*
X1210050Y704565D02*
X1208018Y708629D01*
X1212082D01*
X1210050Y704565D01*
X1179750Y718466D02*
X1177718Y722530D01*
X1181782D01*
X1179750Y718466D01*
X1180017Y735005D02*
X1177985Y739069D01*
X1182049D01*
X1180017Y735005D01*
X1215000Y752968D02*
X1212968Y757032D01*
X1217032D01*
X1215000Y752968D01*
X452248Y748568D02*
X450216Y752632D01*
X454280D01*
X452248Y748568D01*
X497150Y756468D02*
X495118Y760532D01*
X499182D01*
X497150Y756468D01*
X475000Y768968D02*
X472968Y773032D01*
X477032D01*
X475000Y768968D01*
X1243000Y760968D02*
X1240968Y765032D01*
X1245032D01*
X1243000Y760968D01*
X453000Y526968D02*
X450968Y531032D01*
X455032D01*
X453000Y526968D01*
X443999Y509967D02*
X441967Y514031D01*
X446031D01*
X443999Y509967D01*
X518000Y513968D02*
X515968Y518032D01*
X520032D01*
X518000Y513968D01*
X495000Y232968D02*
X492968Y237032D01*
X497032D01*
X495000Y232968D01*
X979000Y231968D02*
X976968Y236032D01*
X981032D01*
X979000Y231968D01*
X485000Y232968D02*
X482968Y237032D01*
X487032D01*
X485000Y232968D01*
X1190000Y228968D02*
X1187968Y233032D01*
X1192032D01*
X1190000Y228968D01*
X510000Y488968D02*
X507968Y493032D01*
X512032D01*
X510000Y488968D01*
X439850Y463968D02*
X437818Y468032D01*
X441882D01*
X439850Y463968D01*
X396000Y488968D02*
X393968Y493032D01*
X398032D01*
X396000Y488968D01*
X710000Y768968D02*
X707968Y773032D01*
X712032D01*
X710000Y768968D01*
X669000D02*
X666968Y773032D01*
X671032D01*
X669000Y768968D01*
X293908Y765968D02*
X291876Y770032D01*
X295940D01*
X293908Y765968D01*
X131000Y515968D02*
X128968Y520032D01*
X133032D01*
X131000Y515968D01*
X444700Y324668D02*
X442668Y328732D01*
X446732D01*
X444700Y324668D01*
X370000Y201968D02*
X367968Y206032D01*
X372032D01*
X370000Y201968D01*
X664500Y212968D02*
X662468Y217032D01*
X666532D01*
X664500Y212968D01*
X654500D02*
X652468Y217032D01*
X656532D01*
X654500Y212968D01*
X370000D02*
X367968Y217032D01*
X372032D01*
X370000Y212968D01*
X191000D02*
X188968Y217032D01*
X193032D01*
X191000Y212968D01*
X196000Y489968D02*
X193968Y494032D01*
X198032D01*
X196000Y489968D01*
X205000Y498968D02*
X202968Y503032D01*
X207032D01*
X205000Y498968D01*
X265000D02*
X262968Y503032D01*
X267032D01*
X265000Y498968D01*
X271000Y504968D02*
X268968Y509032D01*
X273032D01*
X271000Y504968D01*
X351123Y650966D02*
X349091Y655031D01*
X353155D01*
X351123Y650966D01*
X304998D02*
X302966Y655031D01*
X307030D01*
X304998Y650966D01*
X293814Y746775D02*
X291782Y750839D01*
X295846D01*
X293814Y746775D01*
X360000Y741968D02*
X357968Y746032D01*
X362032D01*
X360000Y741968D01*
X196500Y416968D02*
X194468Y421032D01*
X198532D01*
X196500Y416968D01*
X304000D02*
X301968Y421032D01*
X306032D01*
X304000Y416968D01*
X146000Y230568D02*
X143968Y234632D01*
X148032D01*
X146000Y230568D01*
X454249Y236968D02*
X452217Y241032D01*
X456281D01*
X454249Y236968D01*
X460000Y242968D02*
X457968Y247032D01*
X462032D01*
X460000Y242968D01*
X386000Y337968D02*
X383968Y342032D01*
X388032D01*
X386000Y337968D01*
X499000Y523968D02*
X496968Y528032D01*
X501032D01*
X499000Y523968D01*
X488000Y325968D02*
X485968Y330032D01*
X490032D01*
X488000Y325968D01*
X494000Y331968D02*
X491968Y336032D01*
X496032D01*
X494000Y331968D01*
X499000Y532968D02*
X496968Y537032D01*
X501032D01*
X499000Y532968D01*
X487850Y553268D02*
X485818Y557332D01*
X489882D01*
X487850Y553268D01*
X346650Y454968D02*
X344618Y459032D01*
X348682D01*
X346650Y454968D01*
X464000Y390968D02*
X461968Y395032D01*
X466032D01*
X464000Y390968D01*
X488000D02*
X485968Y395032D01*
X490032D01*
X488000Y390968D01*
X362000Y664968D02*
X359968Y669032D01*
X364032D01*
X362000Y664968D01*
X305000D02*
X302968Y669032D01*
X307032D01*
X305000Y664968D01*
X193000Y572221D02*
X190968Y576285D01*
X195032D01*
X193000Y572221D01*
X206000Y578468D02*
X203968Y582532D01*
X208032D01*
X206000Y578468D01*
X235698Y578693D02*
X233666Y582757D01*
X237730D01*
X235698Y578693D01*
X220000Y585968D02*
X217968Y590032D01*
X222032D01*
X220000Y585968D01*
X163500Y717968D02*
X161468Y722032D01*
X165532D01*
X163500Y717968D01*
X325500Y412193D02*
X323468Y416257D01*
X327532D01*
X325500Y412193D01*
X304000Y403968D02*
X301968Y408032D01*
X306032D01*
X304000Y403968D01*
X346650Y403963D02*
X344618Y408027D01*
X348682D01*
X346650Y403963D01*
X146400Y752070D02*
X144368Y756134D01*
X148432D01*
X146400Y752070D01*
X687702Y777968D02*
X685670Y782032D01*
X689734D01*
X687702Y777968D01*
X465221D02*
X463189Y782032D01*
X467253D01*
X465221Y777968D01*
Y654868D02*
X463189Y658932D01*
X467253D01*
X465221Y654868D01*
X466000Y589968D02*
X463968Y594032D01*
X468032D01*
X466000Y589968D01*
X480000Y437968D02*
X477968Y442032D01*
X482032D01*
X480000Y437968D01*
X488000Y665968D02*
X485968Y670032D01*
X490032D01*
X488000Y665968D01*
X473250Y717968D02*
X471218Y722032D01*
X475282D01*
X473250Y717968D01*
X735000Y784968D02*
X732968Y789032D01*
X737032D01*
X735000Y784968D01*
X506000Y785268D02*
X503968Y789332D01*
X508032D01*
X506000Y785268D01*
X573350Y812968D02*
X571318Y817032D01*
X575382D01*
X573350Y812968D01*
X547800Y807268D02*
X545768Y811332D01*
X549832D01*
X547800Y807268D01*
X522550Y794968D02*
X520518Y799032D01*
X524582D01*
X522550Y794968D01*
X115000Y604320D02*
X112968Y608384D01*
X117032D01*
X115000Y604320D01*
X137000Y564966D02*
X134968Y569030D01*
X139032D01*
X137000Y564966D01*
X465500Y641968D02*
X463468Y646032D01*
X467532D01*
X465500Y641968D01*
X106900Y540499D02*
X104868Y544563D01*
X108932D01*
X106900Y540499D01*
X109000Y350468D02*
X106968Y354532D01*
X111032D01*
X109000Y350468D01*
X372000Y604068D02*
X369968Y608132D01*
X374032D01*
X372000Y604068D01*
X73000Y206968D02*
X70968Y211032D01*
X75032D01*
X73000Y206968D01*
Y199968D02*
X70968Y204032D01*
X75032D01*
X73000Y199968D01*
X108000Y179768D02*
X105968Y183832D01*
X110032D01*
X108000Y179768D01*
X453000Y618968D02*
X450968Y623032D01*
X455032D01*
X453000Y618968D01*
X274000Y617968D02*
X271968Y622032D01*
X276032D01*
X274000Y617968D01*
X319000Y813968D02*
X316968Y818032D01*
X321032D01*
X319000Y813968D01*
X355000Y824968D02*
X352968Y829032D01*
X357032D01*
X355000Y824968D01*
X327000Y737966D02*
X324968Y742030D01*
X329032D01*
X327000Y737966D01*
X246000Y737968D02*
X243968Y742032D01*
X248032D01*
X246000Y737968D01*
X314376Y785268D02*
X312344Y789332D01*
X316408D01*
X314376Y785268D01*
Y717719D02*
X312344Y721783D01*
X316408D01*
X314376Y717719D01*
X100002Y350468D02*
X97970Y354532D01*
X102034D01*
X100002Y350468D01*
X97000Y83968D02*
X94968Y88032D01*
X99032D01*
X97000Y83968D01*
X105000Y75968D02*
X102968Y80032D01*
X107032D01*
X105000Y75968D01*
X108000Y152968D02*
X105968Y157032D01*
X110032D01*
X108000Y152968D01*
Y165968D02*
X105968Y170032D01*
X110032D01*
X108000Y165968D01*
X243000Y384968D02*
X240968Y389032D01*
X245032D01*
X243000Y384968D01*
X260000Y375968D02*
X257968Y380032D01*
X262032D01*
X260000Y375968D01*
X360000Y717968D02*
X357968Y722032D01*
X362032D01*
X360000Y717968D01*
X274000Y820968D02*
X271968Y825032D01*
X276032D01*
X274000Y820968D01*
X327000Y774968D02*
X324968Y779032D01*
X329032D01*
X327000Y774968D01*
X230000D02*
X227968Y779032D01*
X232032D01*
X230000Y774968D01*
X744000Y75968D02*
X741968Y80032D01*
X746032D01*
X744000Y75968D01*
X750000Y69968D02*
X747968Y74032D01*
X752032D01*
X750000Y69968D01*
X856505Y198968D02*
X854473Y203032D01*
X858537D01*
X856505Y198968D01*
X1317000Y206968D02*
X1314968Y211032D01*
X1319032D01*
X1317000Y206968D01*
X1308475Y198493D02*
X1306443Y202557D01*
X1310507D01*
X1308475Y198493D01*
X1073000Y62968D02*
X1070968Y67032D01*
X1075032D01*
X1073000Y62968D01*
X1066000Y55968D02*
X1063968Y60032D01*
X1068032D01*
X1066000Y55968D01*
X1231000Y783968D02*
X1228968Y788032D01*
X1233032D01*
X1231000Y783968D01*
X1320000D02*
X1317968Y788032D01*
X1322032D01*
X1320000Y783968D01*
X928000Y316968D02*
X925968Y321032D01*
X930032D01*
X928000Y316968D01*
X1040998D02*
X1038966Y321032D01*
X1043030D01*
X1040998Y316968D01*
X1084500Y267968D02*
X1082468Y272032D01*
X1086532D01*
X1084500Y267968D01*
X1161000D02*
X1158968Y272032D01*
X1163032D01*
X1161000Y267968D01*
X1226000Y647968D02*
X1223968Y652032D01*
X1228032D01*
X1226000Y647968D01*
X1165748Y647967D02*
X1163716Y652031D01*
X1167780D01*
X1165748Y647967D01*
X1151998D02*
X1149966Y652031D01*
X1154030D01*
X1151998Y647967D01*
X1071550Y657901D02*
X1069518Y661965D01*
X1073582D01*
X1071550Y657901D01*
X1139498Y718466D02*
X1137466Y722530D01*
X1141530D01*
X1139498Y718466D01*
X1103000Y741968D02*
X1100968Y746032D01*
X1105032D01*
X1103000Y741968D01*
D99*
X165532Y592500D02*
G03*
X165532Y592500I-2032J0D01*
G01*
X155532Y542500D02*
G03*
X155532Y542500I-2032J0D01*
G01*
X1285531Y272800D02*
G03*
X1285531Y272800I-2032J0D01*
G01*
X1295531Y372800D02*
G03*
X1295531Y372800I-2032J0D01*
G01*
X1003032Y170000D02*
G03*
X1003032Y170000I-2032J0D01*
G01*
X1053032Y160000D02*
G03*
X1053032Y160000I-2032J0D01*
G01*
X1295532Y811398D02*
G03*
X1295532Y811398I-2032J0D01*
G01*
X1285532Y711398D02*
G03*
X1285532Y711398I-2032J0D01*
G01*
X1285532Y497500D02*
G03*
X1285532Y497500I-2032J0D01*
G01*
X1295532Y547500D02*
G03*
X1295532Y547500I-2032J0D01*
G01*
X1158451Y170500D02*
G03*
X1158451Y170500I-2032J0D01*
G01*
X1258451Y160500D02*
G03*
X1258451Y160500I-2032J0D01*
G01*
X157032Y352500D02*
G03*
X157032Y352500I-2032J0D01*
G01*
X167032Y402500D02*
G03*
X167032Y402500I-2032J0D01*
G01*
X184032Y662000D02*
G03*
X184032Y662000I-2032J0D01*
G01*
X134032Y672000D02*
G03*
X134032Y672000I-2032J0D01*
G01*
M02*
