G04*
G04 #@! TF.GenerationSoftware,Altium Limited,Altium Designer,19.1.7 (138)*
G04*
G04 Layer_Color=32896*
%FSLAX44Y44*%
%MOMM*%
G71*
G01*
G75*
%ADD14C,0.2000*%
%ADD82C,0.5000*%
G36*
X454560Y307535D02*
X454797Y307498D01*
X455010Y307448D01*
X455222Y307386D01*
X455422Y307298D01*
X455610Y307211D01*
X455772Y307111D01*
X455934Y307011D01*
X456072Y306911D01*
X456209Y306811D01*
X456310Y306723D01*
X456409Y306636D01*
X456472Y306573D01*
X456534Y306523D01*
X456559Y306486D01*
X456572Y306473D01*
X456734Y306311D01*
X456859Y306136D01*
X456984Y305948D01*
X457084Y305749D01*
X457172Y305548D01*
X457247Y305349D01*
X457297Y305149D01*
X457347Y304949D01*
X457384Y304761D01*
X457409Y304599D01*
X457434Y304436D01*
X457447Y304299D01*
X457459Y304186D01*
Y304036D01*
X457447Y303787D01*
X457434Y303549D01*
X457397Y303312D01*
X457347Y303099D01*
X457222Y302687D01*
X457059Y302312D01*
X456872Y301974D01*
X456659Y301662D01*
X456422Y301400D01*
X456197Y301162D01*
X455960Y300950D01*
X455722Y300787D01*
X455510Y300637D01*
X455322Y300525D01*
X455160Y300437D01*
X455035Y300375D01*
X454985Y300350D01*
X454947Y300337D01*
X454935Y300325D01*
X454922D01*
X454785Y300287D01*
X454660Y300262D01*
X454610Y300250D01*
X454572D01*
X454547D01*
X454535D01*
X454397Y300262D01*
X454272Y300287D01*
X454160Y300337D01*
X454060Y300387D01*
X453985Y300437D01*
X453935Y300487D01*
X453898Y300512D01*
X453885Y300525D01*
X453798Y300637D01*
X453735Y300750D01*
X453685Y300862D01*
X453660Y300962D01*
X453635Y301050D01*
X453623Y301112D01*
Y301175D01*
X453635Y301275D01*
X453648Y301375D01*
X453710Y301537D01*
X453810Y301674D01*
X453910Y301775D01*
X454010Y301862D01*
X454110Y301924D01*
X454173Y301949D01*
X454198Y301962D01*
X454485Y302099D01*
X454722Y302237D01*
X454910Y302387D01*
X455072Y302537D01*
X455185Y302662D01*
X455272Y302762D01*
X455322Y302837D01*
X455335Y302862D01*
X455410Y303037D01*
X455472Y303224D01*
X455510Y303437D01*
X455547Y303636D01*
X455560Y303824D01*
X455572Y303974D01*
Y304111D01*
X455560Y304349D01*
X455510Y304561D01*
X455447Y304749D01*
X455372Y304899D01*
X455285Y305024D01*
X455222Y305111D01*
X455172Y305174D01*
X455160Y305186D01*
X455010Y305324D01*
X454847Y305424D01*
X454685Y305499D01*
X454535Y305548D01*
X454397Y305574D01*
X454297Y305599D01*
X454222D01*
X454210D01*
X454198D01*
X454022Y305586D01*
X453860Y305561D01*
X453710Y305511D01*
X453573Y305448D01*
X453323Y305311D01*
X453110Y305136D01*
X452948Y304961D01*
X452835Y304824D01*
X452785Y304761D01*
X452760Y304711D01*
X452748Y304686D01*
X452735Y304674D01*
X452523Y304311D01*
X452298Y303961D01*
X452073Y303649D01*
X451848Y303349D01*
X451623Y303074D01*
X451398Y302812D01*
X451198Y302587D01*
X450998Y302374D01*
X450811Y302187D01*
X450648Y302024D01*
X450498Y301887D01*
X450373Y301775D01*
X450261Y301687D01*
X450186Y301625D01*
X450136Y301587D01*
X450123Y301574D01*
X449674Y301262D01*
X449211Y300987D01*
X448761Y300762D01*
X448549Y300662D01*
X448336Y300562D01*
X448149Y300487D01*
X447962Y300412D01*
X447812Y300350D01*
X447674Y300300D01*
X447562Y300262D01*
X447487Y300237D01*
X447424Y300212D01*
X447412D01*
X446949Y300100D01*
X446474Y299987D01*
X446025Y299888D01*
X445800Y299837D01*
X445600Y299788D01*
X445412Y299750D01*
X445250Y299713D01*
X445087Y299675D01*
X444962Y299650D01*
X444862Y299625D01*
X444775Y299613D01*
X444725Y299600D01*
X444712D01*
Y306486D01*
X444725Y306648D01*
X444750Y306786D01*
X444800Y306911D01*
X444862Y307023D01*
X444937Y307111D01*
X445012Y307186D01*
X445100Y307248D01*
X445187Y307298D01*
X445362Y307360D01*
X445512Y307398D01*
X445575Y307411D01*
X445625D01*
X445650D01*
X445662D01*
X445825Y307398D01*
X445975Y307373D01*
X446100Y307323D01*
X446199Y307261D01*
X446300Y307198D01*
X446375Y307123D01*
X446437Y307036D01*
X446487Y306948D01*
X446549Y306773D01*
X446587Y306636D01*
X446599Y306573D01*
Y301912D01*
X447024Y302049D01*
X447412Y302199D01*
X447762Y302349D01*
X447912Y302424D01*
X448049Y302487D01*
X448186Y302549D01*
X448299Y302612D01*
X448386Y302662D01*
X448474Y302712D01*
X448536Y302749D01*
X448586Y302774D01*
X448611Y302799D01*
X448624D01*
X448874Y302974D01*
X449124Y303174D01*
X449361Y303387D01*
X449586Y303612D01*
X449811Y303836D01*
X450011Y304074D01*
X450211Y304311D01*
X450386Y304536D01*
X450548Y304749D01*
X450686Y304949D01*
X450823Y305136D01*
X450923Y305299D01*
X451011Y305424D01*
X451073Y305523D01*
X451111Y305586D01*
X451123Y305611D01*
X451348Y305948D01*
X451586Y306248D01*
X451848Y306511D01*
X452110Y306736D01*
X452373Y306923D01*
X452635Y307073D01*
X452898Y307198D01*
X453160Y307311D01*
X453398Y307386D01*
X453610Y307448D01*
X453810Y307486D01*
X453985Y307523D01*
X454123Y307535D01*
X454235Y307548D01*
X454297D01*
X454323D01*
X454560Y307535D01*
D02*
G37*
G36*
X457523Y825807D02*
X457973Y825782D01*
X458398Y825720D01*
X458811Y825658D01*
X459198Y825583D01*
X459560Y825495D01*
X459898Y825408D01*
X460210Y825308D01*
X460485Y825208D01*
X460735Y825120D01*
X460947Y825033D01*
X461135Y824958D01*
X461272Y824895D01*
X461372Y824845D01*
X461435Y824808D01*
X461460Y824795D01*
X461822Y824583D01*
X462135Y824345D01*
X462410Y824108D01*
X462635Y823870D01*
X462834Y823621D01*
X462997Y823383D01*
X463134Y823146D01*
X463247Y822921D01*
X463322Y822708D01*
X463384Y822508D01*
X463434Y822333D01*
X463459Y822184D01*
X463484Y822058D01*
X463497Y821958D01*
Y821721D01*
X463472Y821559D01*
X463397Y821246D01*
X463284Y820946D01*
X463134Y820671D01*
X462959Y820409D01*
X462760Y820172D01*
X462560Y819947D01*
X462347Y819747D01*
X462122Y819572D01*
X461922Y819409D01*
X461722Y819284D01*
X461547Y819159D01*
X461397Y819072D01*
X461285Y819009D01*
X461210Y818972D01*
X461197Y818959D01*
X461185D01*
X460872Y818784D01*
X460547Y818622D01*
X460210Y818484D01*
X459860Y818372D01*
X459523Y818272D01*
X459173Y818197D01*
X458835Y818122D01*
X458523Y818072D01*
X458211Y818035D01*
X457936Y817997D01*
X457686Y817984D01*
X457473Y817960D01*
X457298D01*
X457161Y817947D01*
X457111D01*
X457073D01*
X457061D01*
X457048D01*
X456573Y817960D01*
X456136Y817984D01*
X455711Y818035D01*
X455324Y818097D01*
X454949Y818172D01*
X454612Y818260D01*
X454299Y818347D01*
X454024Y818447D01*
X453774Y818534D01*
X453549Y818622D01*
X453362Y818709D01*
X453212Y818784D01*
X453087Y818847D01*
X452999Y818897D01*
X452937Y818922D01*
X452924Y818934D01*
X452712Y819047D01*
X452512Y819159D01*
X452337Y819272D01*
X452162Y819397D01*
X451850Y819634D01*
X451587Y819884D01*
X451362Y820134D01*
X451175Y820371D01*
X451025Y820609D01*
X450900Y820846D01*
X450812Y821059D01*
X450737Y821259D01*
X450687Y821434D01*
X450650Y821584D01*
X450625Y821709D01*
X450613Y821809D01*
Y821883D01*
X450625Y822046D01*
X450638Y822208D01*
X450713Y822521D01*
X450825Y822821D01*
X450975Y823096D01*
X451150Y823358D01*
X451350Y823596D01*
X451550Y823821D01*
X451775Y824020D01*
X451987Y824208D01*
X452187Y824358D01*
X452387Y824495D01*
X452562Y824608D01*
X452712Y824708D01*
X452825Y824770D01*
X452900Y824808D01*
X452924Y824820D01*
X453224Y824995D01*
X453549Y825145D01*
X453887Y825283D01*
X454224Y825395D01*
X454574Y825495D01*
X454911Y825583D01*
X455249Y825645D01*
X455574Y825695D01*
X455874Y825733D01*
X456161Y825770D01*
X456411Y825795D01*
X456623Y825807D01*
X456799Y825820D01*
X456936D01*
X456986D01*
X457023D01*
X457036D01*
X457048D01*
X457523Y825807D01*
D02*
G37*
G36*
X453737Y815773D02*
X453887Y815748D01*
X454012Y815698D01*
X454112Y815635D01*
X454212Y815573D01*
X454287Y815485D01*
X454349Y815410D01*
X454399Y815323D01*
X454462Y815148D01*
X454499Y814998D01*
X454512Y814935D01*
Y814036D01*
X456436D01*
X456599Y814023D01*
X456749Y813998D01*
X456874Y813948D01*
X456973Y813886D01*
X457073Y813823D01*
X457148Y813736D01*
X457211Y813661D01*
X457261Y813573D01*
X457323Y813398D01*
X457361Y813248D01*
X457373Y813186D01*
Y813098D01*
X457361Y812936D01*
X457336Y812798D01*
X457286Y812673D01*
X457223Y812561D01*
X457161Y812474D01*
X457073Y812399D01*
X456998Y812336D01*
X456911Y812286D01*
X456736Y812224D01*
X456586Y812186D01*
X456524D01*
X456474Y812173D01*
X456449D01*
X456436D01*
X454512D01*
Y808599D01*
X462272Y811336D01*
X462384Y811361D01*
X462497Y811386D01*
X462572D01*
X462584D01*
X462597D01*
X462734Y811374D01*
X462859Y811336D01*
X462972Y811286D01*
X463059Y811236D01*
X463134Y811174D01*
X463197Y811124D01*
X463234Y811086D01*
X463247Y811074D01*
X463334Y810949D01*
X463409Y810836D01*
X463459Y810724D01*
X463484Y810611D01*
X463509Y810524D01*
X463522Y810449D01*
Y810387D01*
X463509Y810274D01*
X463497Y810174D01*
X463422Y809987D01*
X463322Y809849D01*
X463209Y809724D01*
X463084Y809637D01*
X462984Y809587D01*
X462909Y809549D01*
X462897Y809537D01*
X462884D01*
X454399Y806588D01*
X454249Y806537D01*
X454099Y806513D01*
X453962Y806488D01*
X453837Y806462D01*
X453737D01*
X453662Y806450D01*
X453612D01*
X453599D01*
X453424Y806462D01*
X453274Y806475D01*
X453149Y806513D01*
X453037Y806562D01*
X452937Y806612D01*
X452862Y806662D01*
X452799Y806725D01*
X452749Y806800D01*
X452674Y806925D01*
X452637Y807025D01*
X452625Y807112D01*
Y812173D01*
X451625D01*
X451462Y812186D01*
X451312Y812211D01*
X451187Y812261D01*
X451087Y812324D01*
X450988Y812386D01*
X450913Y812461D01*
X450850Y812548D01*
X450800Y812636D01*
X450737Y812811D01*
X450700Y812948D01*
Y813011D01*
X450687Y813061D01*
Y813098D01*
X450700Y813261D01*
X450725Y813411D01*
X450775Y813536D01*
X450838Y813636D01*
X450900Y813736D01*
X450988Y813811D01*
X451075Y813873D01*
X451162Y813923D01*
X451325Y813986D01*
X451475Y814023D01*
X451537Y814036D01*
X451587D01*
X451612D01*
X451625D01*
X452625D01*
Y814835D01*
X452637Y814998D01*
X452662Y815148D01*
X452712Y815273D01*
X452775Y815385D01*
X452850Y815473D01*
X452924Y815548D01*
X453012Y815623D01*
X453099Y815673D01*
X453274Y815735D01*
X453424Y815773D01*
X453487Y815785D01*
X453537D01*
X453562D01*
X453574D01*
X453737Y815773D01*
D02*
G37*
G36*
X395424Y306649D02*
X395562Y306625D01*
X395687Y306574D01*
X395799Y306512D01*
X395887Y306450D01*
X395962Y306362D01*
X396024Y306287D01*
X396074Y306200D01*
X396137Y306025D01*
X396174Y305875D01*
X396187Y305812D01*
Y305725D01*
X396174Y305562D01*
X396149Y305425D01*
X396099Y305300D01*
X396037Y305187D01*
X395974Y305100D01*
X395899Y305025D01*
X395812Y304963D01*
X395724Y304912D01*
X395549Y304850D01*
X395412Y304813D01*
X395350D01*
X395299Y304800D01*
X395275D01*
X395262D01*
X384315D01*
X384152Y304813D01*
X384015Y304837D01*
X383890Y304888D01*
X383777Y304950D01*
X383690Y305012D01*
X383615Y305087D01*
X383553Y305175D01*
X383503Y305262D01*
X383440Y305437D01*
X383402Y305575D01*
Y305637D01*
X383390Y305687D01*
Y305725D01*
X383402Y305887D01*
X383428Y306037D01*
X383478Y306162D01*
X383540Y306262D01*
X383602Y306362D01*
X383677Y306437D01*
X383765Y306500D01*
X383852Y306550D01*
X384027Y306612D01*
X384165Y306649D01*
X384227Y306662D01*
X384277D01*
X384302D01*
X384315D01*
X395262D01*
X395424Y306649D01*
D02*
G37*
G36*
X381428Y825620D02*
X381803Y825583D01*
X382165Y825533D01*
X382503Y825470D01*
X382815Y825395D01*
X383102Y825295D01*
X383365Y825208D01*
X383602Y825108D01*
X383827Y825008D01*
X384015Y824920D01*
X384177Y824833D01*
X384302Y824745D01*
X384415Y824683D01*
X384490Y824633D01*
X384540Y824595D01*
X384552Y824583D01*
X384840Y824345D01*
X385102Y824083D01*
X385327Y823796D01*
X385514Y823508D01*
X385677Y823221D01*
X385814Y822933D01*
X385914Y822646D01*
X386002Y822358D01*
X386077Y822096D01*
X386127Y821859D01*
X386164Y821634D01*
X386189Y821446D01*
X386202Y821284D01*
X386214Y821171D01*
Y821071D01*
X386202Y820734D01*
X386152Y820421D01*
X386089Y820122D01*
X386002Y819834D01*
X385902Y819572D01*
X385789Y819322D01*
X385664Y819109D01*
X385539Y818897D01*
X385414Y818722D01*
X385289Y818559D01*
X385177Y818422D01*
X385077Y818309D01*
X384990Y818222D01*
X384927Y818159D01*
X384877Y818122D01*
X384865Y818110D01*
X384602Y817910D01*
X384327Y817747D01*
X384052Y817597D01*
X383765Y817472D01*
X383477Y817360D01*
X383190Y817272D01*
X382915Y817197D01*
X382653Y817135D01*
X382403Y817085D01*
X382165Y817060D01*
X381965Y817035D01*
X381790Y817010D01*
X381640D01*
X381528Y816997D01*
X381465D01*
X381440D01*
X381078Y817010D01*
X380728Y817047D01*
X380416Y817097D01*
X380116Y817172D01*
X379828Y817247D01*
X379578Y817347D01*
X379341Y817447D01*
X379141Y817547D01*
X378954Y817647D01*
X378791Y817747D01*
X378654Y817847D01*
X378529Y817922D01*
X378441Y817997D01*
X378379Y818047D01*
X378341Y818084D01*
X378329Y818097D01*
X378129Y818309D01*
X377966Y818547D01*
X377816Y818784D01*
X377691Y819047D01*
X377579Y819297D01*
X377491Y819559D01*
X377416Y819809D01*
X377354Y820046D01*
X377304Y820272D01*
X377279Y820484D01*
X377254Y820684D01*
X377229Y820846D01*
Y820984D01*
X377216Y821084D01*
Y821171D01*
X377229Y821396D01*
X377242Y821609D01*
X377267Y821809D01*
X377304Y821996D01*
X377341Y822159D01*
X377392Y822308D01*
X377441Y822458D01*
X377491Y822583D01*
X377541Y822683D01*
X377579Y822783D01*
X377629Y822858D01*
X377666Y822933D01*
X377704Y822983D01*
X377729Y823021D01*
X377754Y823033D01*
Y823046D01*
X377454Y822783D01*
X377179Y822546D01*
X376942Y822321D01*
X376729Y822121D01*
X376554Y821958D01*
X376429Y821834D01*
X376379Y821796D01*
X376342Y821759D01*
X376329Y821746D01*
X376317Y821734D01*
X376054Y821459D01*
X375792Y821171D01*
X375554Y820859D01*
X375342Y820571D01*
X375242Y820446D01*
X375154Y820321D01*
X375067Y820209D01*
X375005Y820109D01*
X374955Y820034D01*
X374917Y819971D01*
X374892Y819934D01*
X374880Y819922D01*
X374805Y819797D01*
X374705Y819709D01*
X374580Y819647D01*
X374467Y819609D01*
X374367Y819584D01*
X374280Y819559D01*
X374217D01*
X374192D01*
X374055Y819572D01*
X373930Y819597D01*
X373817Y819647D01*
X373717Y819697D01*
X373630Y819734D01*
X373568Y819784D01*
X373530Y819809D01*
X373517Y819822D01*
X373418Y819922D01*
X373343Y820034D01*
X373293Y820146D01*
X373255Y820247D01*
X373230Y820334D01*
X373218Y820409D01*
Y820471D01*
X373230Y820559D01*
X373242Y820646D01*
X373293Y820796D01*
X373317Y820846D01*
X373330Y820896D01*
X373355Y820921D01*
Y820934D01*
X373568Y821284D01*
X373792Y821609D01*
X374005Y821908D01*
X374217Y822196D01*
X374430Y822458D01*
X374630Y822696D01*
X374830Y822921D01*
X375017Y823121D01*
X375179Y823296D01*
X375342Y823446D01*
X375480Y823571D01*
X375592Y823683D01*
X375692Y823758D01*
X375754Y823821D01*
X375804Y823858D01*
X375817Y823870D01*
X376292Y824208D01*
X376792Y824495D01*
X377291Y824733D01*
X377529Y824845D01*
X377754Y824945D01*
X377966Y825020D01*
X378166Y825095D01*
X378341Y825158D01*
X378491Y825220D01*
X378616Y825258D01*
X378704Y825283D01*
X378754Y825308D01*
X378779D01*
X379203Y825420D01*
X379603Y825495D01*
X379991Y825558D01*
X380166Y825570D01*
X380328Y825595D01*
X380478Y825608D01*
X380616Y825620D01*
X380728D01*
X380841Y825633D01*
X380916D01*
X380978D01*
X381016D01*
X381028D01*
X381428Y825620D01*
D02*
G37*
G36*
X378241Y814535D02*
X378566Y814510D01*
X378879Y814473D01*
X379179Y814410D01*
X379453Y814335D01*
X379716Y814248D01*
X379966Y814148D01*
X380203Y814036D01*
X380416Y813911D01*
X380616Y813786D01*
X380803Y813648D01*
X380978Y813511D01*
X381141Y813361D01*
X381291Y813211D01*
X381540Y812911D01*
X381753Y812598D01*
X381928Y812299D01*
X382065Y812024D01*
X382178Y811774D01*
X382240Y811561D01*
X382278Y811474D01*
X382290Y811399D01*
X382315Y811349D01*
Y811299D01*
X382328Y811274D01*
Y811261D01*
X384377Y813361D01*
X384515Y813486D01*
X384640Y813598D01*
X384752Y813686D01*
X384865Y813773D01*
X384952Y813848D01*
X385039Y813898D01*
X385202Y813986D01*
X385314Y814036D01*
X385402Y814061D01*
X385452Y814073D01*
X385464D01*
X385564Y814061D01*
X385652Y814048D01*
X385789Y813961D01*
X385889Y813848D01*
X385952Y813723D01*
X386002Y813598D01*
X386014Y813486D01*
X386027Y813398D01*
Y813373D01*
X386002Y807875D01*
X385989Y807712D01*
X385964Y807575D01*
X385914Y807462D01*
X385852Y807350D01*
X385789Y807262D01*
X385702Y807200D01*
X385627Y807137D01*
X385539Y807087D01*
X385364Y807025D01*
X385215Y806987D01*
X385152D01*
X385102Y806975D01*
X385077D01*
X385065D01*
X384902Y806987D01*
X384765Y807012D01*
X384640Y807062D01*
X384527Y807112D01*
X384440Y807187D01*
X384365Y807262D01*
X384302Y807350D01*
X384252Y807437D01*
X384190Y807600D01*
X384152Y807750D01*
Y807800D01*
X384140Y807850D01*
Y810824D01*
X382303Y809099D01*
X382215Y808987D01*
X382140Y808874D01*
X382053Y808787D01*
X381978Y808712D01*
X381828Y808587D01*
X381703Y808512D01*
X381590Y808462D01*
X381503Y808437D01*
X381453Y808425D01*
X381428D01*
X381328Y808437D01*
X381228Y808462D01*
X381141Y808500D01*
X381053Y808549D01*
X380991Y808599D01*
X380941Y808637D01*
X380916Y808662D01*
X380903Y808674D01*
X380828Y808774D01*
X380766Y808874D01*
X380716Y808987D01*
X380678Y809087D01*
X380666Y809162D01*
X380653Y809237D01*
X380641Y809287D01*
Y809299D01*
X380628Y809512D01*
X380616Y809699D01*
X380603Y809887D01*
X380591Y810049D01*
X380578Y810186D01*
Y810286D01*
X380566Y810349D01*
Y810374D01*
X380491Y810724D01*
X380403Y811049D01*
X380291Y811311D01*
X380191Y811549D01*
X380078Y811724D01*
X380041Y811799D01*
X379991Y811849D01*
X379966Y811899D01*
X379941Y811936D01*
X379916Y811949D01*
Y811961D01*
X379778Y812099D01*
X379641Y812211D01*
X379478Y812311D01*
X379316Y812399D01*
X379154Y812474D01*
X378979Y812536D01*
X378654Y812623D01*
X378491Y812661D01*
X378354Y812686D01*
X378229Y812698D01*
X378116Y812711D01*
X378016Y812723D01*
X377954D01*
X377904D01*
X377891D01*
X377654Y812711D01*
X377429Y812686D01*
X377216Y812648D01*
X377017Y812598D01*
X376829Y812536D01*
X376654Y812474D01*
X376492Y812399D01*
X376342Y812324D01*
X376204Y812249D01*
X376092Y812173D01*
X375979Y812111D01*
X375904Y812049D01*
X375829Y811999D01*
X375779Y811961D01*
X375754Y811936D01*
X375742Y811924D01*
X375642Y811799D01*
X375554Y811674D01*
X375405Y811411D01*
X375304Y811161D01*
X375229Y810911D01*
X375192Y810686D01*
X375167Y810599D01*
Y810524D01*
X375154Y810449D01*
Y810361D01*
X375167Y810112D01*
X375205Y809887D01*
X375267Y809674D01*
X375330Y809512D01*
X375379Y809362D01*
X375442Y809262D01*
X375480Y809199D01*
X375492Y809174D01*
X375704Y808937D01*
X375917Y808737D01*
X376129Y808575D01*
X376317Y808449D01*
X376492Y808350D01*
X376617Y808287D01*
X376667Y808262D01*
X376704Y808250D01*
X376729Y808237D01*
X376742D01*
X376879Y808187D01*
X376992Y808137D01*
X377091Y808075D01*
X377179Y808012D01*
X377254Y807937D01*
X377317Y807875D01*
X377404Y807725D01*
X377467Y807587D01*
X377491Y807475D01*
X377504Y807400D01*
Y807375D01*
X377491Y807237D01*
X377467Y807125D01*
X377429Y807012D01*
X377379Y806912D01*
X377329Y806837D01*
X377291Y806775D01*
X377267Y806737D01*
X377254Y806725D01*
X377154Y806637D01*
X377042Y806562D01*
X376942Y806513D01*
X376842Y806488D01*
X376742Y806462D01*
X376667Y806450D01*
X376617D01*
X376604D01*
X376479Y806462D01*
X376367Y806475D01*
X376317Y806488D01*
X376279D01*
X376254Y806500D01*
X376242D01*
X375979Y806600D01*
X375729Y806700D01*
X375504Y806812D01*
X375280Y806937D01*
X375080Y807075D01*
X374892Y807200D01*
X374717Y807337D01*
X374567Y807462D01*
X374430Y807587D01*
X374305Y807700D01*
X374205Y807800D01*
X374117Y807900D01*
X374055Y807975D01*
X374005Y808025D01*
X373980Y808062D01*
X373967Y808075D01*
X373830Y808275D01*
X373717Y808475D01*
X373617Y808674D01*
X373530Y808874D01*
X373467Y809074D01*
X373405Y809262D01*
X373317Y809624D01*
X373280Y809787D01*
X373255Y809937D01*
X373242Y810062D01*
X373230Y810186D01*
X373218Y810274D01*
Y810399D01*
X373230Y810711D01*
X373268Y810999D01*
X373330Y811286D01*
X373405Y811549D01*
X373493Y811799D01*
X373592Y812036D01*
X373705Y812249D01*
X373817Y812449D01*
X373917Y812636D01*
X374030Y812786D01*
X374130Y812923D01*
X374217Y813036D01*
X374292Y813123D01*
X374355Y813198D01*
X374392Y813236D01*
X374405Y813248D01*
X374667Y813473D01*
X374930Y813673D01*
X375217Y813848D01*
X375504Y813998D01*
X375804Y814123D01*
X376092Y814236D01*
X376379Y814323D01*
X376642Y814386D01*
X376904Y814436D01*
X377141Y814485D01*
X377354Y814510D01*
X377529Y814523D01*
X377679Y814535D01*
X377791Y814548D01*
X377866D01*
X377891D01*
X378241Y814535D01*
D02*
G37*
%LPC*%
G36*
X457236Y823996D02*
X457148D01*
X457086D01*
X457061D01*
X456724D01*
X456386Y823970D01*
X456074Y823945D01*
X455774Y823908D01*
X455499Y823858D01*
X455236Y823808D01*
X454999Y823758D01*
X454774Y823708D01*
X454574Y823658D01*
X454399Y823608D01*
X454249Y823558D01*
X454124Y823508D01*
X454024Y823471D01*
X453949Y823446D01*
X453899Y823433D01*
X453887Y823421D01*
X453637Y823308D01*
X453424Y823183D01*
X453249Y823058D01*
X453087Y822921D01*
X452949Y822796D01*
X452837Y822671D01*
X452749Y822546D01*
X452674Y822421D01*
X452612Y822308D01*
X452575Y822208D01*
X452537Y822109D01*
X452525Y822033D01*
X452512Y821958D01*
X452500Y821908D01*
Y821871D01*
X452512Y821696D01*
X452562Y821534D01*
X452625Y821384D01*
X452712Y821234D01*
X452825Y821109D01*
X452937Y820971D01*
X453187Y820759D01*
X453437Y820584D01*
X453562Y820509D01*
X453662Y820459D01*
X453749Y820409D01*
X453812Y820371D01*
X453862Y820359D01*
X453874Y820346D01*
X454124Y820247D01*
X454387Y820159D01*
X454924Y820022D01*
X455449Y819922D01*
X455711Y819884D01*
X455949Y819859D01*
X456174Y819834D01*
X456386Y819809D01*
X456573Y819797D01*
X456736D01*
X456874Y819784D01*
X456961D01*
X457023D01*
X457048D01*
X457386D01*
X457711Y819809D01*
X458023Y819834D01*
X458311Y819859D01*
X458586Y819909D01*
X458835Y819947D01*
X459060Y819996D01*
X459273Y820046D01*
X459460Y820084D01*
X459623Y820134D01*
X459760Y820184D01*
X459885Y820221D01*
X459973Y820247D01*
X460048Y820272D01*
X460085Y820296D01*
X460098D01*
X460360Y820421D01*
X460597Y820546D01*
X460798Y820671D01*
X460972Y820809D01*
X461122Y820934D01*
X461235Y821071D01*
X461335Y821196D01*
X461422Y821321D01*
X461485Y821434D01*
X461535Y821534D01*
X461560Y821634D01*
X461585Y821709D01*
X461597Y821784D01*
X461610Y821834D01*
Y821871D01*
X461597Y822046D01*
X461547Y822208D01*
X461485Y822371D01*
X461397Y822521D01*
X461297Y822658D01*
X461172Y822783D01*
X460922Y823008D01*
X460672Y823183D01*
X460560Y823258D01*
X460448Y823308D01*
X460360Y823358D01*
X460298Y823396D01*
X460248Y823408D01*
X460235Y823421D01*
X459985Y823521D01*
X459723Y823608D01*
X459185Y823758D01*
X458661Y823858D01*
X458398Y823895D01*
X458161Y823921D01*
X457923Y823945D01*
X457723Y823970D01*
X457536Y823983D01*
X457373D01*
X457236Y823996D01*
D02*
G37*
G36*
X381815Y823646D02*
X381765D01*
X381728D01*
X381715D01*
X381515Y823633D01*
X381328Y823608D01*
X381141Y823583D01*
X380966Y823533D01*
X380653Y823408D01*
X380516Y823346D01*
X380378Y823283D01*
X380266Y823208D01*
X380166Y823146D01*
X380078Y823083D01*
X380003Y823021D01*
X379941Y822971D01*
X379903Y822946D01*
X379878Y822921D01*
X379866Y822908D01*
X379728Y822771D01*
X379616Y822621D01*
X379516Y822483D01*
X379428Y822333D01*
X379353Y822184D01*
X379291Y822033D01*
X379203Y821759D01*
X379141Y821521D01*
X379128Y821421D01*
X379116Y821334D01*
X379104Y821259D01*
Y821159D01*
X379116Y820984D01*
X379128Y820821D01*
X379216Y820509D01*
X379316Y820221D01*
X379453Y819984D01*
X379578Y819784D01*
X379628Y819709D01*
X379678Y819647D01*
X379728Y819597D01*
X379766Y819559D01*
X379778Y819534D01*
X379791Y819522D01*
X379928Y819397D01*
X380053Y819297D01*
X380203Y819209D01*
X380341Y819122D01*
X380616Y818997D01*
X380878Y818922D01*
X381103Y818872D01*
X381190Y818859D01*
X381278Y818847D01*
X381353Y818834D01*
X381403D01*
X381428D01*
X381440D01*
X381653Y818847D01*
X381865Y818859D01*
X382240Y818934D01*
X382590Y819034D01*
X382740Y819084D01*
X382878Y819147D01*
X383003Y819197D01*
X383115Y819259D01*
X383215Y819309D01*
X383290Y819347D01*
X383352Y819397D01*
X383402Y819422D01*
X383427Y819434D01*
X383440Y819447D01*
X383602Y819572D01*
X383727Y819709D01*
X383852Y819834D01*
X383952Y819971D01*
X384040Y820109D01*
X384115Y820247D01*
X384165Y820384D01*
X384215Y820509D01*
X384277Y820734D01*
X384302Y820821D01*
X384315Y820909D01*
X384327Y820971D01*
Y821071D01*
X384315Y821271D01*
X384290Y821459D01*
X384252Y821634D01*
X384215Y821809D01*
X384090Y822109D01*
X383952Y822371D01*
X383877Y822496D01*
X383802Y822596D01*
X383740Y822683D01*
X383690Y822746D01*
X383640Y822808D01*
X383602Y822846D01*
X383577Y822871D01*
X383565Y822883D01*
X383415Y823021D01*
X383265Y823133D01*
X383115Y823233D01*
X382952Y823321D01*
X382803Y823396D01*
X382640Y823458D01*
X382353Y823546D01*
X382228Y823583D01*
X382103Y823608D01*
X381990Y823621D01*
X381903Y823633D01*
X381815Y823646D01*
D02*
G37*
%LPD*%
D14*
X393600Y824540D02*
X444400D01*
Y311460D02*
Y824540D01*
X393600Y311460D02*
Y824540D01*
Y311460D02*
X444400D01*
X383539Y777000D02*
Y780428D01*
X383920Y781570D01*
X384300Y781951D01*
X385062Y782332D01*
X386205D01*
X386967Y781951D01*
X387347Y781570D01*
X387728Y780428D01*
Y777000D01*
X379730D01*
X386205Y784122D02*
X386586Y784884D01*
X387728Y786027D01*
X379730D01*
X387728Y795320D02*
X379730Y791511D01*
X387728Y789988D02*
Y795320D01*
D82*
X1983000Y972500D02*
G03*
X1983000Y972500I-2500J0D01*
G01*
M02*
