G04 Layer_Color=8421504*
%FSLAX44Y44*%
%MOMM*%
G71*
G01*
G75*
%ADD10C,1.0000*%
%ADD11R,1.1000X0.6500*%
%ADD12R,0.9000X0.6500*%
%ADD13R,0.9000X0.8000*%
%ADD14O,0.6000X1.9000*%
%ADD15R,0.8000X0.9000*%
%ADD19R,0.6500X0.9000*%
%ADD20R,0.6500X1.1000*%
%ADD21O,1.9000X0.6000*%
%ADD22O,2.3000X0.6000*%
%ADD24R,3.0000X3.2000*%
%ADD25R,3.2000X3.0000*%
%ADD26O,2.5000X0.7000*%
%ADD27O,0.7000X2.5000*%
%ADD29R,0.9000X3.2000*%
%ADD30R,1.5500X5.2000*%
%ADD31R,2.9000X5.4000*%
%ADD32R,0.8500X0.6000*%
%ADD33R,2.6162X2.7432*%
%ADD34R,2.7432X2.6162*%
%ADD35R,2.0000X0.5300*%
%ADD36R,1.0000X1.3000*%
%ADD37R,2.6000X4.2000*%
%ADD38R,1.1000X1.7000*%
%ADD62R,5.6000X6.4000*%
D10*
X20000Y-30000D02*
D03*
X2460000D02*
D03*
Y920000D02*
D03*
D11*
X2192625Y749500D02*
D03*
X2242875Y589500D02*
D03*
X2300375D02*
D03*
X2185375D02*
D03*
X2357875D02*
D03*
X2250125Y749500D02*
D03*
X2307500Y749960D02*
D03*
X2365125Y749500D02*
D03*
X1617125Y720000D02*
D03*
X1616625Y270000D02*
D03*
X2192875Y299500D02*
D03*
X2243125Y139500D02*
D03*
X2300625D02*
D03*
X2185625D02*
D03*
X2358125D02*
D03*
X2250375Y299500D02*
D03*
X2307750Y299960D02*
D03*
X2365375Y299500D02*
D03*
X1102875Y202500D02*
D03*
X387125Y744601D02*
D03*
X305123Y660000D02*
D03*
X387623Y700000D02*
D03*
X1252125Y725000D02*
D03*
X1257125Y610000D02*
D03*
X1243625Y610000D02*
D03*
D12*
X2171875Y740000D02*
D03*
Y759000D02*
D03*
X2263625Y599000D02*
D03*
Y580000D02*
D03*
X2321125Y599000D02*
D03*
Y580000D02*
D03*
X2206125Y599000D02*
D03*
Y580000D02*
D03*
X2378625Y599000D02*
D03*
Y580000D02*
D03*
X2229375Y740000D02*
D03*
Y759000D02*
D03*
X2286750Y740460D02*
D03*
Y759460D02*
D03*
X2344375Y740000D02*
D03*
Y759000D02*
D03*
X1637875Y710500D02*
D03*
Y729500D02*
D03*
X1637375Y260500D02*
D03*
Y279500D02*
D03*
X2172125Y290000D02*
D03*
Y309000D02*
D03*
X2263875Y149000D02*
D03*
Y130000D02*
D03*
X2321375Y149000D02*
D03*
Y130000D02*
D03*
X2206375Y149000D02*
D03*
Y130000D02*
D03*
X2378875Y149000D02*
D03*
Y130000D02*
D03*
X2229625Y290000D02*
D03*
Y309000D02*
D03*
X2287000Y290460D02*
D03*
Y309460D02*
D03*
X2344625Y290000D02*
D03*
Y309000D02*
D03*
X1082125Y193000D02*
D03*
Y212000D02*
D03*
X407875Y754101D02*
D03*
Y735100D02*
D03*
X325873Y669500D02*
D03*
Y650500D02*
D03*
X408373Y709500D02*
D03*
Y690500D02*
D03*
X1272875Y734500D02*
D03*
Y715500D02*
D03*
X1277875Y619500D02*
D03*
Y600500D02*
D03*
X1222875Y600500D02*
D03*
Y619500D02*
D03*
D13*
X2207250Y770001D02*
D03*
Y784002D02*
D03*
X2170750Y585001D02*
D03*
Y599002D02*
D03*
Y568998D02*
D03*
Y554999D02*
D03*
X2214750Y671999D02*
D03*
Y657999D02*
D03*
X2334750Y656998D02*
D03*
Y642998D02*
D03*
X2228250Y585001D02*
D03*
Y599002D02*
D03*
X2285750Y568998D02*
D03*
Y554999D02*
D03*
Y585001D02*
D03*
Y599002D02*
D03*
X2343250Y568998D02*
D03*
Y554999D02*
D03*
X2264750Y754498D02*
D03*
Y740498D02*
D03*
Y770002D02*
D03*
Y784002D02*
D03*
X2322250Y770001D02*
D03*
Y784002D02*
D03*
X2379750Y770001D02*
D03*
Y784002D02*
D03*
Y754498D02*
D03*
Y740498D02*
D03*
X2322250Y754498D02*
D03*
Y740498D02*
D03*
X2207250Y754498D02*
D03*
Y740498D02*
D03*
X2343250Y585001D02*
D03*
Y599002D02*
D03*
X2228250Y568998D02*
D03*
Y554999D02*
D03*
X1608500Y625998D02*
D03*
Y639998D02*
D03*
X1608000Y175998D02*
D03*
Y189998D02*
D03*
X2207500Y320001D02*
D03*
Y334002D02*
D03*
X2171000Y135001D02*
D03*
Y149002D02*
D03*
Y118998D02*
D03*
Y104999D02*
D03*
X2215000Y221999D02*
D03*
Y207999D02*
D03*
X2335000Y206998D02*
D03*
Y192998D02*
D03*
X2228500Y135001D02*
D03*
Y149002D02*
D03*
X2286000Y118998D02*
D03*
Y104999D02*
D03*
Y135001D02*
D03*
Y149002D02*
D03*
X2343500Y118998D02*
D03*
Y104999D02*
D03*
X2265000Y304498D02*
D03*
Y290498D02*
D03*
Y320002D02*
D03*
Y334002D02*
D03*
X2322500Y320001D02*
D03*
Y334002D02*
D03*
X2380000Y320001D02*
D03*
Y334002D02*
D03*
Y304498D02*
D03*
Y290498D02*
D03*
X2322500Y304498D02*
D03*
Y290498D02*
D03*
X2207500Y304498D02*
D03*
Y290498D02*
D03*
X2343500Y135001D02*
D03*
Y149002D02*
D03*
X2228500Y118998D02*
D03*
Y104999D02*
D03*
X270000Y310498D02*
D03*
Y324498D02*
D03*
X425250Y504498D02*
D03*
Y518498D02*
D03*
X192500Y612999D02*
D03*
Y626998D02*
D03*
X892500Y402002D02*
D03*
Y388002D02*
D03*
X975000Y634502D02*
D03*
Y620502D02*
D03*
Y402002D02*
D03*
Y388002D02*
D03*
X265500Y555398D02*
D03*
Y569398D02*
D03*
X900000Y575499D02*
D03*
Y589499D02*
D03*
X975000Y550498D02*
D03*
Y564498D02*
D03*
X280500Y555398D02*
D03*
Y569398D02*
D03*
X895702Y208373D02*
D03*
Y222373D02*
D03*
X192500Y154502D02*
D03*
Y140502D02*
D03*
X975000Y170498D02*
D03*
Y184498D02*
D03*
X192500Y114502D02*
D03*
Y100502D02*
D03*
X375000Y735498D02*
D03*
Y749498D02*
D03*
X422500Y736600D02*
D03*
Y750600D02*
D03*
X192500Y444502D02*
D03*
Y430502D02*
D03*
Y477002D02*
D03*
Y463002D02*
D03*
X265998Y426752D02*
D03*
Y412752D02*
D03*
X192500Y366402D02*
D03*
Y352402D02*
D03*
X375000Y703552D02*
D03*
Y689552D02*
D03*
X292500Y648998D02*
D03*
Y662998D02*
D03*
X424000Y692998D02*
D03*
Y706998D02*
D03*
X1290000Y717999D02*
D03*
Y731999D02*
D03*
X1067500Y207002D02*
D03*
Y193002D02*
D03*
X1310000Y717999D02*
D03*
Y731999D02*
D03*
X1206176Y707002D02*
D03*
Y693002D02*
D03*
X1206176Y737002D02*
D03*
Y723002D02*
D03*
X1209926Y602998D02*
D03*
Y616998D02*
D03*
X1221176Y662799D02*
D03*
Y676799D02*
D03*
X1055000Y502002D02*
D03*
Y488002D02*
D03*
X1120000Y297998D02*
D03*
Y311998D02*
D03*
X432500Y432998D02*
D03*
Y446998D02*
D03*
X280000Y517400D02*
D03*
Y531400D02*
D03*
X270000Y70498D02*
D03*
Y84498D02*
D03*
X385998Y845499D02*
D03*
Y859499D02*
D03*
X1222125Y737002D02*
D03*
Y723002D02*
D03*
X1105000Y442002D02*
D03*
Y428002D02*
D03*
X32998Y149501D02*
D03*
Y135501D02*
D03*
X32998Y179003D02*
D03*
Y165003D02*
D03*
X975000Y604501D02*
D03*
Y590501D02*
D03*
X1210001Y630499D02*
D03*
Y644499D02*
D03*
X1206176Y662799D02*
D03*
Y676799D02*
D03*
X270000Y719502D02*
D03*
Y705502D02*
D03*
X307500Y764502D02*
D03*
Y750502D02*
D03*
X292300Y750498D02*
D03*
Y764498D02*
D03*
X341500Y652999D02*
D03*
Y666998D02*
D03*
X372500Y554997D02*
D03*
Y568997D02*
D03*
X372500Y534502D02*
D03*
Y520502D02*
D03*
X192500Y402002D02*
D03*
Y388002D02*
D03*
Y532002D02*
D03*
Y518002D02*
D03*
X192500Y550498D02*
D03*
Y564498D02*
D03*
Y580498D02*
D03*
Y594498D02*
D03*
D14*
X2230300Y644000D02*
D03*
X2243000D02*
D03*
X2255700D02*
D03*
X2268400D02*
D03*
X2281100D02*
D03*
X2293800D02*
D03*
X2306500D02*
D03*
X2319200D02*
D03*
X2230300Y691000D02*
D03*
X2243000D02*
D03*
X2255700D02*
D03*
X2268400D02*
D03*
X2281100D02*
D03*
X2293800D02*
D03*
X2306500D02*
D03*
X2319200D02*
D03*
X2230550Y194000D02*
D03*
X2243250D02*
D03*
X2255950D02*
D03*
X2268650D02*
D03*
X2281350D02*
D03*
X2294050D02*
D03*
X2306750D02*
D03*
X2319450D02*
D03*
X2230550Y241000D02*
D03*
X2243250D02*
D03*
X2255950D02*
D03*
X2268650D02*
D03*
X2281350D02*
D03*
X2294050D02*
D03*
X2306750D02*
D03*
X2319450D02*
D03*
D15*
X2207748Y562000D02*
D03*
X2193748D02*
D03*
X2262748D02*
D03*
X2248748D02*
D03*
X2377748Y559500D02*
D03*
X2363748D02*
D03*
X2172752Y779500D02*
D03*
X2186752D02*
D03*
X2230252D02*
D03*
X2244252D02*
D03*
X2287752D02*
D03*
X2301752D02*
D03*
X2345252D02*
D03*
X2359252D02*
D03*
X2320248Y559500D02*
D03*
X2306248D02*
D03*
X1620498Y695000D02*
D03*
X1634498D02*
D03*
X1634502Y680000D02*
D03*
X1620502D02*
D03*
X1620498Y665000D02*
D03*
X1634498D02*
D03*
X1610498Y610000D02*
D03*
X1624498D02*
D03*
X1654502Y610000D02*
D03*
X1640502D02*
D03*
X1690498Y617500D02*
D03*
X1704498D02*
D03*
X1852002Y602500D02*
D03*
X1838002D02*
D03*
X1619998Y245000D02*
D03*
X1633998D02*
D03*
X1634002Y230000D02*
D03*
X1620002D02*
D03*
X1619998Y215000D02*
D03*
X1633998D02*
D03*
X1609998Y160000D02*
D03*
X1623998D02*
D03*
X1654002Y160000D02*
D03*
X1640002D02*
D03*
X1689998Y167500D02*
D03*
X1703998D02*
D03*
X1851502Y152500D02*
D03*
X1837502D02*
D03*
X2207998Y112000D02*
D03*
X2193998D02*
D03*
X2262998D02*
D03*
X2248998D02*
D03*
X2377998Y109500D02*
D03*
X2363998D02*
D03*
X2173002Y329500D02*
D03*
X2187001D02*
D03*
X2230502D02*
D03*
X2244502D02*
D03*
X2288002D02*
D03*
X2302002D02*
D03*
X2345502D02*
D03*
X2359502D02*
D03*
X2320498Y109500D02*
D03*
X2306498D02*
D03*
X327998Y346000D02*
D03*
X341998D02*
D03*
X860498Y703650D02*
D03*
X874498D02*
D03*
X395748Y518000D02*
D03*
X409748D02*
D03*
X327998Y405995D02*
D03*
X341998D02*
D03*
X395748Y501000D02*
D03*
X409748D02*
D03*
X327998Y360000D02*
D03*
X341998D02*
D03*
X327998Y390000D02*
D03*
X341998D02*
D03*
X917504Y842500D02*
D03*
X903504D02*
D03*
X887002Y842500D02*
D03*
X873002D02*
D03*
X835498Y842500D02*
D03*
X849498D02*
D03*
X802998D02*
D03*
X816998D02*
D03*
X860498Y680000D02*
D03*
X874498D02*
D03*
X263498Y751250D02*
D03*
X277498D02*
D03*
X1302998Y192500D02*
D03*
X1316998D02*
D03*
X1284501Y192500D02*
D03*
X1270502D02*
D03*
X1052001Y207000D02*
D03*
X1038001D02*
D03*
X1047002Y655000D02*
D03*
X1033002D02*
D03*
X1076002Y671000D02*
D03*
X1062002D02*
D03*
X1076252Y725000D02*
D03*
X1062252D02*
D03*
X1296040Y607500D02*
D03*
X1310040D02*
D03*
X1075960Y706001D02*
D03*
X1061960D02*
D03*
X1075960Y688001D02*
D03*
X1061960D02*
D03*
X1296040Y592000D02*
D03*
X1310040D02*
D03*
X1243848Y585500D02*
D03*
X1257848D02*
D03*
X1165498Y682500D02*
D03*
X1179498D02*
D03*
X1142999Y662500D02*
D03*
X1156999D02*
D03*
X1025298Y486800D02*
D03*
X1039298D02*
D03*
X1025298Y501800D02*
D03*
X1039298D02*
D03*
X1325498Y624373D02*
D03*
X1339498D02*
D03*
X1137500Y296000D02*
D03*
X1151500D02*
D03*
X1137500Y311400D02*
D03*
X1151500D02*
D03*
X333002Y282750D02*
D03*
X319002D02*
D03*
X327998Y375500D02*
D03*
X341998D02*
D03*
X839502Y632500D02*
D03*
X825502D02*
D03*
X371998Y583250D02*
D03*
X385998D02*
D03*
X332002Y501902D02*
D03*
X318002D02*
D03*
X1047002Y670950D02*
D03*
X1033002D02*
D03*
X1296748Y640000D02*
D03*
X1310748D02*
D03*
X1133001Y580000D02*
D03*
X1119001D02*
D03*
X156302Y154260D02*
D03*
X142302D02*
D03*
X142998Y179660D02*
D03*
X156998D02*
D03*
X1296498Y625000D02*
D03*
X1310498D02*
D03*
X262998Y766302D02*
D03*
X276998D02*
D03*
X392998Y768750D02*
D03*
X406998D02*
D03*
D19*
X1624000Y627625D02*
D03*
X1643000D02*
D03*
X1623500Y177625D02*
D03*
X1642500D02*
D03*
X1316500Y207125D02*
D03*
X1297500D02*
D03*
X1316500Y243525D02*
D03*
X1297500D02*
D03*
D20*
X1633500Y648375D02*
D03*
X1633000Y198375D02*
D03*
X1307000Y227875D02*
D03*
Y264275D02*
D03*
D21*
X1723500Y635550D02*
D03*
Y648250D02*
D03*
Y660950D02*
D03*
Y673650D02*
D03*
Y686350D02*
D03*
Y699050D02*
D03*
Y711750D02*
D03*
Y724450D02*
D03*
X1676500Y635550D02*
D03*
Y648250D02*
D03*
Y660950D02*
D03*
Y673650D02*
D03*
Y686350D02*
D03*
Y699050D02*
D03*
Y711750D02*
D03*
Y724450D02*
D03*
X1723000Y185550D02*
D03*
Y198250D02*
D03*
Y210950D02*
D03*
Y223650D02*
D03*
Y236350D02*
D03*
Y249050D02*
D03*
Y261750D02*
D03*
Y274450D02*
D03*
X1676000Y185550D02*
D03*
Y198250D02*
D03*
Y210950D02*
D03*
Y223650D02*
D03*
Y236350D02*
D03*
Y249050D02*
D03*
Y261750D02*
D03*
Y274450D02*
D03*
X348500Y517452D02*
D03*
Y530152D02*
D03*
Y542852D02*
D03*
Y555552D02*
D03*
Y568252D02*
D03*
Y580952D02*
D03*
Y593652D02*
D03*
Y606352D02*
D03*
X301500Y517452D02*
D03*
Y530152D02*
D03*
Y542852D02*
D03*
Y555552D02*
D03*
Y568252D02*
D03*
Y580952D02*
D03*
Y593652D02*
D03*
Y606352D02*
D03*
D22*
X1850500Y624200D02*
D03*
Y636900D02*
D03*
Y649600D02*
D03*
Y662300D02*
D03*
Y675000D02*
D03*
Y687700D02*
D03*
Y700400D02*
D03*
Y713100D02*
D03*
Y725800D02*
D03*
X1759500Y624200D02*
D03*
Y636900D02*
D03*
Y649600D02*
D03*
Y662300D02*
D03*
Y675000D02*
D03*
Y687700D02*
D03*
Y700400D02*
D03*
Y713100D02*
D03*
Y725800D02*
D03*
X1850000Y174200D02*
D03*
Y186900D02*
D03*
Y199600D02*
D03*
Y212300D02*
D03*
Y225000D02*
D03*
Y237700D02*
D03*
Y250400D02*
D03*
Y263100D02*
D03*
Y275800D02*
D03*
X1759000Y174200D02*
D03*
Y186900D02*
D03*
Y199600D02*
D03*
Y212300D02*
D03*
Y225000D02*
D03*
Y237700D02*
D03*
Y250400D02*
D03*
Y263100D02*
D03*
Y275800D02*
D03*
D24*
X1082000Y550000D02*
D03*
X1014000D02*
D03*
D25*
X1290340Y478501D02*
D03*
Y546500D02*
D03*
X1290000Y414000D02*
D03*
Y346000D02*
D03*
D26*
X296500Y266800D02*
D03*
Y254100D02*
D03*
Y241400D02*
D03*
Y228700D02*
D03*
X345500Y266800D02*
D03*
Y254100D02*
D03*
Y241400D02*
D03*
Y228700D02*
D03*
X293000Y729050D02*
D03*
Y716350D02*
D03*
Y703650D02*
D03*
Y690950D02*
D03*
X342000Y729050D02*
D03*
Y716350D02*
D03*
Y703650D02*
D03*
Y690950D02*
D03*
X1182000Y600950D02*
D03*
Y613650D02*
D03*
Y626350D02*
D03*
Y639050D02*
D03*
X1133000Y600950D02*
D03*
Y613650D02*
D03*
Y626350D02*
D03*
Y639050D02*
D03*
X1258000Y694050D02*
D03*
Y681350D02*
D03*
Y668650D02*
D03*
Y655950D02*
D03*
X1307000Y694050D02*
D03*
Y681350D02*
D03*
Y668650D02*
D03*
Y655950D02*
D03*
D27*
X419050Y477500D02*
D03*
X406350D02*
D03*
X393650D02*
D03*
X380950D02*
D03*
X419050Y428500D02*
D03*
X406350D02*
D03*
X393650D02*
D03*
X380950D02*
D03*
D29*
X1083100Y457500D02*
D03*
X1070400D02*
D03*
X1057700D02*
D03*
X1045000D02*
D03*
X1032300D02*
D03*
X1019600D02*
D03*
X1006900D02*
D03*
D30*
X1163250Y725000D02*
D03*
X1181750D02*
D03*
D31*
X1232000Y387500D02*
D03*
X1133000D02*
D03*
D32*
X1041150Y715000D02*
D03*
X1019650Y705500D02*
D03*
Y724500D02*
D03*
D33*
X345995Y445000D02*
D03*
X299005D02*
D03*
X346495Y315000D02*
D03*
X299505D02*
D03*
D34*
X299250Y405995D02*
D03*
Y359005D02*
D03*
D35*
X146400Y732700D02*
D03*
Y720000D02*
D03*
Y707300D02*
D03*
X183600D02*
D03*
Y720000D02*
D03*
Y732700D02*
D03*
D36*
X1036750Y688001D02*
D03*
X1020750D02*
D03*
D37*
X1138500Y485751D02*
D03*
X1202500D02*
D03*
X1138500Y545751D02*
D03*
X1202500D02*
D03*
D38*
X1061000Y635000D02*
D03*
X1034000D02*
D03*
X1061000Y610000D02*
D03*
X1034000D02*
D03*
D62*
X1045106Y358500D02*
D03*
M02*
