G04 Layer_Color=32896*
%FSLAX44Y44*%
%MOMM*%
G71*
G01*
G75*
%ADD58C,0.2000*%
G36*
X199824Y63986D02*
X199921Y63972D01*
X199991Y63958D01*
X200018D01*
X200282Y63861D01*
X200545Y63750D01*
X200781Y63626D01*
X201003Y63501D01*
X201211Y63376D01*
X201405Y63237D01*
X201585Y63112D01*
X201738Y62988D01*
X201877Y62877D01*
X202001Y62766D01*
X202112Y62655D01*
X202196Y62572D01*
X202265Y62502D01*
X202307Y62447D01*
X202334Y62419D01*
X202348Y62405D01*
X202515Y62183D01*
X202653Y61961D01*
X202764Y61739D01*
X202861Y61518D01*
X202945Y61296D01*
X203014Y61074D01*
X203069Y60866D01*
X203111Y60672D01*
X203139Y60477D01*
X203153Y60311D01*
X203166Y60159D01*
Y60034D01*
Y59923D01*
Y59853D01*
Y59798D01*
Y59784D01*
X203125Y59451D01*
X203069Y59146D01*
X203000Y58855D01*
X202903Y58591D01*
X202792Y58342D01*
X202681Y58120D01*
X202556Y57926D01*
X202445Y57745D01*
X202320Y57579D01*
X202209Y57440D01*
X202099Y57329D01*
X202001Y57232D01*
X201918Y57163D01*
X201863Y57107D01*
X201821Y57080D01*
X201807Y57066D01*
X201558Y56885D01*
X201308Y56747D01*
X201045Y56608D01*
X200781Y56497D01*
X200504Y56400D01*
X200240Y56317D01*
X199991Y56261D01*
X199741Y56206D01*
X199519Y56164D01*
X199311Y56137D01*
X199117Y56109D01*
X198964Y56095D01*
X198826Y56081D01*
X198645D01*
X198312Y56095D01*
X197994Y56137D01*
X197675Y56192D01*
X197383Y56275D01*
X197106Y56372D01*
X196842Y56469D01*
X196607Y56580D01*
X196385Y56691D01*
X196177Y56816D01*
X196010Y56927D01*
X195844Y57024D01*
X195719Y57121D01*
X195622Y57204D01*
X195539Y57260D01*
X195497Y57302D01*
X195483Y57315D01*
X195248Y57551D01*
X195040Y57787D01*
X194859Y58037D01*
X194707Y58272D01*
X194568Y58522D01*
X194471Y58758D01*
X194374Y58980D01*
X194305Y59188D01*
X194249Y59396D01*
X194207Y59576D01*
X194180Y59742D01*
X194152Y59881D01*
Y59992D01*
X194138Y60075D01*
Y60131D01*
Y60145D01*
Y60367D01*
X194152Y60561D01*
X194166Y60755D01*
X194194Y60921D01*
X194221Y61088D01*
X194249Y61240D01*
X194291Y61365D01*
X194318Y61490D01*
X194346Y61587D01*
X194388Y61684D01*
X194415Y61753D01*
X194443Y61823D01*
X194471Y61864D01*
X194485Y61906D01*
X194499Y61920D01*
Y61934D01*
X192252D01*
Y57926D01*
X192238Y57759D01*
X192210Y57621D01*
X192169Y57496D01*
X192099Y57385D01*
X192030Y57302D01*
X191961Y57218D01*
X191780Y57107D01*
X191614Y57052D01*
X191462Y57010D01*
X191406Y56996D01*
X191323D01*
X191156Y57010D01*
X191018Y57038D01*
X190893Y57080D01*
X190782Y57135D01*
X190699Y57218D01*
X190616Y57288D01*
X190505Y57454D01*
X190449Y57634D01*
X190408Y57773D01*
X190394Y57842D01*
Y57884D01*
Y57912D01*
Y57926D01*
Y63750D01*
X196191D01*
X196343Y63737D01*
X196468Y63723D01*
X196579Y63681D01*
X196676Y63626D01*
X196759Y63570D01*
X196829Y63501D01*
X196926Y63362D01*
X196995Y63223D01*
X197023Y63099D01*
X197037Y63001D01*
Y62988D01*
Y62974D01*
X197023Y62849D01*
X196981Y62710D01*
X196926Y62572D01*
X196856Y62447D01*
X196787Y62350D01*
X196731Y62253D01*
X196690Y62197D01*
X196676Y62183D01*
X196565Y62031D01*
X196454Y61864D01*
X196302Y61518D01*
X196177Y61185D01*
X196107Y60852D01*
X196080Y60699D01*
X196052Y60574D01*
X196038Y60450D01*
Y60339D01*
X196024Y60255D01*
Y60186D01*
Y60145D01*
Y60131D01*
X196038Y59964D01*
X196052Y59812D01*
X196149Y59521D01*
X196274Y59257D01*
X196413Y59021D01*
X196551Y58841D01*
X196676Y58702D01*
X196731Y58647D01*
X196773Y58605D01*
X196787Y58591D01*
X196801Y58577D01*
X196953Y58453D01*
X197106Y58356D01*
X197258Y58259D01*
X197411Y58189D01*
X197730Y58064D01*
X198007Y57981D01*
X198271Y57940D01*
X198368Y57912D01*
X198465D01*
X198534Y57898D01*
X198645D01*
X199048Y57926D01*
X199408Y57981D01*
X199713Y58050D01*
X199977Y58148D01*
X200088Y58189D01*
X200199Y58245D01*
X200282Y58286D01*
X200351Y58314D01*
X200407Y58356D01*
X200448Y58369D01*
X200462Y58397D01*
X200476D01*
X200615Y58494D01*
X200726Y58619D01*
X200837Y58730D01*
X200934Y58855D01*
X201072Y59104D01*
X201183Y59354D01*
X201239Y59576D01*
X201266Y59673D01*
X201280Y59756D01*
X201294Y59826D01*
X201308Y59881D01*
Y59909D01*
Y59923D01*
X201294Y60200D01*
X201253Y60464D01*
X201155Y60713D01*
X201031Y60949D01*
X200878Y61157D01*
X200712Y61351D01*
X200518Y61531D01*
X200337Y61684D01*
X200143Y61823D01*
X199949Y61947D01*
X199769Y62045D01*
X199616Y62128D01*
X199477Y62197D01*
X199380Y62239D01*
X199311Y62266D01*
X199283Y62280D01*
X199117Y62350D01*
X199006Y62461D01*
X198923Y62585D01*
X198853Y62724D01*
X198826Y62835D01*
X198812Y62946D01*
X198798Y63015D01*
Y63029D01*
Y63043D01*
X198812Y63182D01*
X198839Y63307D01*
X198881Y63418D01*
X198923Y63515D01*
X198978Y63598D01*
X199020Y63653D01*
X199048Y63695D01*
X199061Y63709D01*
X199158Y63806D01*
X199269Y63875D01*
X199366Y63931D01*
X199477Y63958D01*
X199561Y63986D01*
X199630Y64000D01*
X199699D01*
X199824Y63986D01*
D02*
G37*
G36*
X202986Y46748D02*
X202972Y46581D01*
X202945Y46443D01*
X202903Y46304D01*
X202834Y46207D01*
X202764Y46110D01*
X202681Y46040D01*
X202515Y45916D01*
X202334Y45860D01*
X202196Y45819D01*
X202126Y45805D01*
X202043D01*
X201877Y45819D01*
X201738Y45846D01*
X201599Y45888D01*
X201502Y45957D01*
X201405Y46027D01*
X201336Y46096D01*
X201211Y46276D01*
X201155Y46443D01*
X201114Y46595D01*
X201100Y46665D01*
Y46706D01*
Y46734D01*
Y46748D01*
Y51310D01*
X200670Y51172D01*
X200282Y51019D01*
X199949Y50880D01*
X199658Y50742D01*
X199519Y50672D01*
X199408Y50617D01*
X199311Y50561D01*
X199242Y50506D01*
X199172Y50478D01*
X199131Y50451D01*
X199103Y50423D01*
X199089D01*
X198826Y50243D01*
X198576Y50048D01*
X198340Y49826D01*
X198104Y49605D01*
X197675Y49147D01*
X197480Y48911D01*
X197300Y48675D01*
X197148Y48467D01*
X196995Y48259D01*
X196870Y48079D01*
X196759Y47927D01*
X196676Y47788D01*
X196621Y47691D01*
X196579Y47635D01*
X196565Y47608D01*
X196343Y47261D01*
X196107Y46970D01*
X195844Y46706D01*
X195594Y46484D01*
X195331Y46290D01*
X195053Y46137D01*
X194804Y46013D01*
X194554Y45902D01*
X194318Y45832D01*
X194097Y45763D01*
X193902Y45721D01*
X193722Y45694D01*
X193583Y45680D01*
X193472Y45666D01*
X193389D01*
X193153Y45680D01*
X192918Y45708D01*
X192696Y45763D01*
X192488Y45832D01*
X192113Y45999D01*
X191933Y46096D01*
X191780Y46193D01*
X191642Y46304D01*
X191517Y46401D01*
X191406Y46484D01*
X191309Y46567D01*
X191240Y46637D01*
X191184Y46692D01*
X191156Y46720D01*
X191143Y46734D01*
X190990Y46900D01*
X190851Y47081D01*
X190727Y47275D01*
X190629Y47469D01*
X190546Y47677D01*
X190477Y47871D01*
X190366Y48273D01*
X190324Y48453D01*
X190296Y48634D01*
X190283Y48786D01*
X190269Y48925D01*
X190255Y49036D01*
Y49119D01*
Y49175D01*
Y49188D01*
Y49438D01*
X190283Y49674D01*
X190366Y50118D01*
X190491Y50534D01*
X190657Y50908D01*
X190837Y51241D01*
X191059Y51546D01*
X191281Y51824D01*
X191517Y52059D01*
X191767Y52253D01*
X191989Y52434D01*
X192210Y52572D01*
X192391Y52697D01*
X192557Y52780D01*
X192682Y52836D01*
X192765Y52877D01*
X192779Y52891D01*
X192793D01*
X192931Y52933D01*
X193056Y52961D01*
X193112Y52975D01*
X193181D01*
X193320Y52961D01*
X193445Y52933D01*
X193556Y52891D01*
X193653Y52836D01*
X193722Y52780D01*
X193791Y52739D01*
X193819Y52711D01*
X193833Y52697D01*
X193916Y52586D01*
X193972Y52475D01*
X194027Y52364D01*
X194055Y52267D01*
X194069Y52170D01*
X194083Y52101D01*
Y52059D01*
Y52045D01*
X194055Y51851D01*
X193999Y51685D01*
X193902Y51546D01*
X193791Y51435D01*
X193694Y51352D01*
X193597Y51297D01*
X193542Y51269D01*
X193514Y51255D01*
X193237Y51116D01*
X193001Y50978D01*
X192807Y50825D01*
X192640Y50672D01*
X192529Y50548D01*
X192446Y50451D01*
X192391Y50381D01*
X192377Y50353D01*
X192294Y50187D01*
X192238Y49993D01*
X192197Y49799D01*
X192169Y49591D01*
X192155Y49410D01*
X192141Y49258D01*
Y49202D01*
Y49161D01*
Y49133D01*
Y49119D01*
X192155Y48870D01*
X192197Y48661D01*
X192266Y48467D01*
X192335Y48315D01*
X192418Y48190D01*
X192474Y48093D01*
X192529Y48038D01*
X192543Y48024D01*
X192696Y47885D01*
X192862Y47788D01*
X193029Y47719D01*
X193181Y47677D01*
X193320Y47635D01*
X193431Y47621D01*
X193528D01*
X193694Y47635D01*
X193861Y47663D01*
X194013Y47705D01*
X194152Y47760D01*
X194402Y47913D01*
X194610Y48079D01*
X194762Y48259D01*
X194887Y48398D01*
X194929Y48467D01*
X194956Y48509D01*
X194984Y48537D01*
Y48551D01*
X195206Y48911D01*
X195428Y49258D01*
X195650Y49577D01*
X195872Y49868D01*
X196094Y50146D01*
X196302Y50395D01*
X196510Y50631D01*
X196704Y50839D01*
X196884Y51019D01*
X197050Y51186D01*
X197203Y51324D01*
X197328Y51435D01*
X197439Y51532D01*
X197508Y51588D01*
X197564Y51629D01*
X197577Y51643D01*
X198021Y51948D01*
X198493Y52226D01*
X198937Y52462D01*
X199366Y52656D01*
X199561Y52725D01*
X199741Y52808D01*
X199893Y52864D01*
X200032Y52919D01*
X200143Y52947D01*
X200226Y52975D01*
X200282Y53002D01*
X200296D01*
X200767Y53113D01*
X201225Y53224D01*
X201682Y53335D01*
X201891Y53377D01*
X202099Y53418D01*
X202279Y53460D01*
X202459Y53502D01*
X202612Y53529D01*
X202736Y53557D01*
X202847Y53585D01*
X202917Y53599D01*
X202972Y53613D01*
X202986D01*
Y46748D01*
D02*
G37*
G36*
X215183Y740736D02*
X215169Y740569D01*
X215142Y740430D01*
X215100Y740292D01*
X215030Y740195D01*
X214961Y740098D01*
X214878Y740028D01*
X214712Y739903D01*
X214531Y739848D01*
X214393Y739806D01*
X214323Y739792D01*
X214240D01*
X214074Y739806D01*
X213935Y739834D01*
X213796Y739876D01*
X213699Y739945D01*
X213602Y740014D01*
X213533Y740084D01*
X213408Y740264D01*
X213353Y740430D01*
X213311Y740583D01*
X213297Y740652D01*
Y740694D01*
Y740722D01*
Y740736D01*
Y745298D01*
X212867Y745160D01*
X212479Y745007D01*
X212146Y744868D01*
X211855Y744730D01*
X211716Y744660D01*
X211605Y744605D01*
X211508Y744549D01*
X211439Y744494D01*
X211369Y744466D01*
X211328Y744438D01*
X211300Y744411D01*
X211286D01*
X211023Y744230D01*
X210773Y744036D01*
X210537Y743814D01*
X210301Y743592D01*
X209872Y743135D01*
X209677Y742899D01*
X209497Y742663D01*
X209345Y742455D01*
X209192Y742247D01*
X209067Y742067D01*
X208956Y741914D01*
X208873Y741776D01*
X208818Y741679D01*
X208776Y741623D01*
X208762Y741595D01*
X208540Y741249D01*
X208304Y740957D01*
X208041Y740694D01*
X207791Y740472D01*
X207528Y740278D01*
X207250Y740125D01*
X207001Y740001D01*
X206751Y739890D01*
X206515Y739820D01*
X206293Y739751D01*
X206099Y739709D01*
X205919Y739682D01*
X205780Y739668D01*
X205669Y739654D01*
X205586D01*
X205350Y739668D01*
X205115Y739695D01*
X204893Y739751D01*
X204685Y739820D01*
X204310Y739987D01*
X204130Y740084D01*
X203977Y740181D01*
X203839Y740292D01*
X203714Y740389D01*
X203603Y740472D01*
X203506Y740555D01*
X203437Y740625D01*
X203381Y740680D01*
X203353Y740708D01*
X203340Y740722D01*
X203187Y740888D01*
X203048Y741068D01*
X202923Y741263D01*
X202826Y741457D01*
X202743Y741665D01*
X202674Y741859D01*
X202563Y742261D01*
X202521Y742441D01*
X202493Y742622D01*
X202480Y742774D01*
X202466Y742913D01*
X202452Y743024D01*
Y743107D01*
Y743163D01*
Y743176D01*
Y743426D01*
X202480Y743662D01*
X202563Y744106D01*
X202688Y744522D01*
X202854Y744896D01*
X203034Y745229D01*
X203256Y745534D01*
X203478Y745811D01*
X203714Y746047D01*
X203964Y746241D01*
X204185Y746422D01*
X204407Y746560D01*
X204588Y746685D01*
X204754Y746768D01*
X204879Y746824D01*
X204962Y746865D01*
X204976Y746879D01*
X204990D01*
X205128Y746921D01*
X205253Y746949D01*
X205309Y746963D01*
X205378D01*
X205517Y746949D01*
X205642Y746921D01*
X205753Y746879D01*
X205850Y746824D01*
X205919Y746768D01*
X205988Y746727D01*
X206016Y746699D01*
X206030Y746685D01*
X206113Y746574D01*
X206169Y746463D01*
X206224Y746352D01*
X206252Y746255D01*
X206266Y746158D01*
X206280Y746089D01*
Y746047D01*
Y746033D01*
X206252Y745839D01*
X206196Y745673D01*
X206099Y745534D01*
X205988Y745423D01*
X205891Y745340D01*
X205794Y745284D01*
X205739Y745257D01*
X205711Y745243D01*
X205434Y745104D01*
X205198Y744965D01*
X205004Y744813D01*
X204837Y744660D01*
X204726Y744536D01*
X204643Y744438D01*
X204588Y744369D01*
X204574Y744341D01*
X204491Y744175D01*
X204435Y743981D01*
X204394Y743787D01*
X204366Y743579D01*
X204352Y743398D01*
X204338Y743246D01*
Y743190D01*
Y743149D01*
Y743121D01*
Y743107D01*
X204352Y742857D01*
X204394Y742649D01*
X204463Y742455D01*
X204532Y742303D01*
X204615Y742178D01*
X204671Y742081D01*
X204726Y742025D01*
X204740Y742011D01*
X204893Y741873D01*
X205059Y741776D01*
X205226Y741706D01*
X205378Y741665D01*
X205517Y741623D01*
X205628Y741609D01*
X205725D01*
X205891Y741623D01*
X206058Y741651D01*
X206210Y741693D01*
X206349Y741748D01*
X206598Y741900D01*
X206807Y742067D01*
X206959Y742247D01*
X207084Y742386D01*
X207125Y742455D01*
X207153Y742497D01*
X207181Y742525D01*
Y742538D01*
X207403Y742899D01*
X207625Y743246D01*
X207847Y743565D01*
X208069Y743856D01*
X208291Y744133D01*
X208498Y744383D01*
X208706Y744619D01*
X208901Y744827D01*
X209081Y745007D01*
X209247Y745173D01*
X209400Y745312D01*
X209525Y745423D01*
X209636Y745520D01*
X209705Y745576D01*
X209760Y745617D01*
X209774Y745631D01*
X210218Y745936D01*
X210690Y746214D01*
X211133Y746449D01*
X211563Y746644D01*
X211758Y746713D01*
X211938Y746796D01*
X212090Y746852D01*
X212229Y746907D01*
X212340Y746935D01*
X212423Y746963D01*
X212479Y746990D01*
X212493D01*
X212964Y747101D01*
X213422Y747212D01*
X213880Y747323D01*
X214088Y747365D01*
X214296Y747406D01*
X214476Y747448D01*
X214656Y747489D01*
X214809Y747517D01*
X214933Y747545D01*
X215044Y747573D01*
X215114Y747587D01*
X215169Y747600D01*
X215183D01*
Y740736D01*
D02*
G37*
G36*
X250421Y63087D02*
X250518Y63073D01*
X250588Y63059D01*
X250615D01*
X250879Y62962D01*
X251142Y62851D01*
X251378Y62726D01*
X251600Y62601D01*
X251808Y62476D01*
X252002Y62338D01*
X252182Y62213D01*
X252335Y62088D01*
X252474Y61977D01*
X252598Y61866D01*
X252709Y61755D01*
X252793Y61672D01*
X252862Y61603D01*
X252903Y61547D01*
X252931Y61519D01*
X252945Y61506D01*
X253112Y61284D01*
X253250Y61062D01*
X253361Y60840D01*
X253458Y60618D01*
X253542Y60396D01*
X253611Y60174D01*
X253666Y59966D01*
X253708Y59772D01*
X253736Y59578D01*
X253750Y59411D01*
X253763Y59259D01*
Y59134D01*
Y59023D01*
Y58954D01*
Y58898D01*
Y58884D01*
X253722Y58552D01*
X253666Y58246D01*
X253597Y57955D01*
X253500Y57692D01*
X253389Y57442D01*
X253278Y57220D01*
X253153Y57026D01*
X253042Y56846D01*
X252917Y56679D01*
X252806Y56541D01*
X252696Y56430D01*
X252598Y56333D01*
X252515Y56263D01*
X252460Y56208D01*
X252418Y56180D01*
X252404Y56166D01*
X252155Y55986D01*
X251905Y55847D01*
X251642Y55709D01*
X251378Y55598D01*
X251101Y55500D01*
X250837Y55417D01*
X250588Y55362D01*
X250338Y55306D01*
X250116Y55265D01*
X249908Y55237D01*
X249714Y55209D01*
X249561Y55195D01*
X249423Y55182D01*
X249242D01*
X248909Y55195D01*
X248591Y55237D01*
X248272Y55293D01*
X247980Y55376D01*
X247703Y55473D01*
X247439Y55570D01*
X247204Y55681D01*
X246982Y55792D01*
X246774Y55917D01*
X246607Y56027D01*
X246441Y56125D01*
X246316Y56222D01*
X246219Y56305D01*
X246136Y56360D01*
X246094Y56402D01*
X246080Y56416D01*
X245844Y56652D01*
X245637Y56887D01*
X245456Y57137D01*
X245304Y57373D01*
X245165Y57622D01*
X245068Y57858D01*
X244971Y58080D01*
X244902Y58288D01*
X244846Y58496D01*
X244804Y58676D01*
X244777Y58843D01*
X244749Y58981D01*
Y59092D01*
X244735Y59176D01*
Y59231D01*
Y59245D01*
Y59467D01*
X244749Y59661D01*
X244763Y59855D01*
X244790Y60022D01*
X244818Y60188D01*
X244846Y60341D01*
X244888Y60465D01*
X244915Y60590D01*
X244943Y60687D01*
X244985Y60784D01*
X245012Y60854D01*
X245040Y60923D01*
X245068Y60965D01*
X245082Y61006D01*
X245096Y61020D01*
Y61034D01*
X242849D01*
Y57026D01*
X242835Y56860D01*
X242807Y56721D01*
X242766Y56596D01*
X242696Y56485D01*
X242627Y56402D01*
X242558Y56319D01*
X242377Y56208D01*
X242211Y56152D01*
X242058Y56111D01*
X242003Y56097D01*
X241920D01*
X241753Y56111D01*
X241615Y56139D01*
X241490Y56180D01*
X241379Y56236D01*
X241296Y56319D01*
X241213Y56388D01*
X241101Y56554D01*
X241046Y56735D01*
X241004Y56873D01*
X240991Y56943D01*
Y56985D01*
Y57012D01*
Y57026D01*
Y62851D01*
X246788D01*
X246940Y62837D01*
X247065Y62823D01*
X247176Y62782D01*
X247273Y62726D01*
X247356Y62670D01*
X247425Y62601D01*
X247523Y62463D01*
X247592Y62324D01*
X247620Y62199D01*
X247633Y62102D01*
Y62088D01*
Y62074D01*
X247620Y61949D01*
X247578Y61811D01*
X247523Y61672D01*
X247453Y61547D01*
X247384Y61450D01*
X247328Y61353D01*
X247287Y61297D01*
X247273Y61284D01*
X247162Y61131D01*
X247051Y60965D01*
X246898Y60618D01*
X246774Y60285D01*
X246704Y59952D01*
X246677Y59800D01*
X246649Y59675D01*
X246635Y59550D01*
Y59439D01*
X246621Y59356D01*
Y59287D01*
Y59245D01*
Y59231D01*
X246635Y59065D01*
X246649Y58912D01*
X246746Y58621D01*
X246871Y58357D01*
X247010Y58122D01*
X247148Y57941D01*
X247273Y57803D01*
X247328Y57747D01*
X247370Y57706D01*
X247384Y57692D01*
X247398Y57678D01*
X247550Y57553D01*
X247703Y57456D01*
X247855Y57359D01*
X248008Y57290D01*
X248327Y57165D01*
X248604Y57081D01*
X248868Y57040D01*
X248965Y57012D01*
X249062D01*
X249131Y56998D01*
X249242D01*
X249645Y57026D01*
X250005Y57081D01*
X250310Y57151D01*
X250574Y57248D01*
X250685Y57290D01*
X250795Y57345D01*
X250879Y57387D01*
X250948Y57414D01*
X251004Y57456D01*
X251045Y57470D01*
X251059Y57498D01*
X251073D01*
X251212Y57595D01*
X251322Y57719D01*
X251434Y57830D01*
X251531Y57955D01*
X251669Y58205D01*
X251780Y58454D01*
X251836Y58676D01*
X251863Y58773D01*
X251877Y58857D01*
X251891Y58926D01*
X251905Y58981D01*
Y59009D01*
Y59023D01*
X251891Y59300D01*
X251849Y59564D01*
X251752Y59814D01*
X251628Y60049D01*
X251475Y60257D01*
X251309Y60452D01*
X251115Y60632D01*
X250934Y60784D01*
X250740Y60923D01*
X250546Y61048D01*
X250366Y61145D01*
X250213Y61228D01*
X250074Y61297D01*
X249977Y61339D01*
X249908Y61367D01*
X249880Y61381D01*
X249714Y61450D01*
X249603Y61561D01*
X249520Y61686D01*
X249450Y61824D01*
X249423Y61936D01*
X249409Y62046D01*
X249395Y62116D01*
Y62130D01*
Y62144D01*
X249409Y62282D01*
X249436Y62407D01*
X249478Y62518D01*
X249520Y62615D01*
X249575Y62698D01*
X249617Y62754D01*
X249645Y62795D01*
X249658Y62809D01*
X249755Y62906D01*
X249866Y62976D01*
X249963Y63031D01*
X250074Y63059D01*
X250158Y63087D01*
X250227Y63100D01*
X250296D01*
X250421Y63087D01*
D02*
G37*
G36*
X252987Y51964D02*
X253125Y51936D01*
X253250Y51895D01*
X253347Y51839D01*
X253444Y51770D01*
X253514Y51687D01*
X253625Y51520D01*
X253680Y51354D01*
X253722Y51201D01*
X253736Y51146D01*
Y51104D01*
Y51076D01*
Y51063D01*
X253722Y50896D01*
X253694Y50758D01*
X253652Y50619D01*
X253597Y50522D01*
X253528Y50425D01*
X253444Y50355D01*
X253278Y50231D01*
X253112Y50175D01*
X252959Y50134D01*
X252903Y50120D01*
X241892D01*
X241726Y50134D01*
X241587Y50161D01*
X241462Y50203D01*
X241351Y50272D01*
X241268Y50342D01*
X241185Y50411D01*
X241074Y50591D01*
X241018Y50758D01*
X240977Y50910D01*
X240963Y50979D01*
Y51021D01*
Y51049D01*
Y51063D01*
X240977Y51229D01*
X241004Y51368D01*
X241046Y51493D01*
X241101Y51590D01*
X241185Y51687D01*
X241254Y51756D01*
X241420Y51867D01*
X241601Y51922D01*
X241740Y51964D01*
X241809Y51978D01*
X252820D01*
X252987Y51964D01*
D02*
G37*
G36*
X251587Y744586D02*
X251725Y744559D01*
X251850Y744517D01*
X251947Y744462D01*
X252044Y744392D01*
X252114Y744309D01*
X252225Y744143D01*
X252280Y743976D01*
X252322Y743824D01*
X252336Y743768D01*
Y743727D01*
Y743699D01*
Y743685D01*
X252322Y743519D01*
X252294Y743380D01*
X252252Y743241D01*
X252197Y743144D01*
X252128Y743047D01*
X252044Y742978D01*
X251878Y742853D01*
X251712Y742797D01*
X251559Y742756D01*
X251504Y742742D01*
X240492D01*
X240326Y742756D01*
X240187Y742784D01*
X240062Y742825D01*
X239951Y742895D01*
X239868Y742964D01*
X239785Y743033D01*
X239674Y743214D01*
X239618Y743380D01*
X239577Y743532D01*
X239563Y743602D01*
Y743643D01*
Y743671D01*
Y743685D01*
X239577Y743851D01*
X239604Y743990D01*
X239646Y744115D01*
X239701Y744212D01*
X239785Y744309D01*
X239854Y744379D01*
X240021Y744490D01*
X240201Y744545D01*
X240340Y744586D01*
X240409Y744600D01*
X251420D01*
X251587Y744586D01*
D02*
G37*
G36*
X923521Y63087D02*
X923618Y63073D01*
X923688Y63059D01*
X923715D01*
X923979Y62962D01*
X924242Y62851D01*
X924478Y62726D01*
X924700Y62601D01*
X924908Y62476D01*
X925102Y62338D01*
X925282Y62213D01*
X925435Y62088D01*
X925574Y61977D01*
X925698Y61866D01*
X925809Y61755D01*
X925892Y61672D01*
X925962Y61603D01*
X926003Y61547D01*
X926031Y61519D01*
X926045Y61505D01*
X926211Y61284D01*
X926350Y61062D01*
X926461Y60840D01*
X926558Y60618D01*
X926641Y60396D01*
X926711Y60174D01*
X926766Y59966D01*
X926808Y59772D01*
X926836Y59578D01*
X926850Y59411D01*
X926863Y59259D01*
Y59134D01*
Y59023D01*
Y58954D01*
Y58898D01*
Y58884D01*
X926822Y58552D01*
X926766Y58246D01*
X926697Y57955D01*
X926600Y57692D01*
X926489Y57442D01*
X926378Y57220D01*
X926253Y57026D01*
X926142Y56846D01*
X926017Y56679D01*
X925906Y56541D01*
X925796Y56430D01*
X925698Y56333D01*
X925615Y56263D01*
X925560Y56208D01*
X925518Y56180D01*
X925504Y56166D01*
X925255Y55986D01*
X925005Y55847D01*
X924742Y55708D01*
X924478Y55598D01*
X924201Y55500D01*
X923937Y55417D01*
X923688Y55362D01*
X923438Y55306D01*
X923216Y55265D01*
X923008Y55237D01*
X922814Y55209D01*
X922661Y55195D01*
X922523Y55182D01*
X922342D01*
X922009Y55195D01*
X921690Y55237D01*
X921371Y55293D01*
X921080Y55376D01*
X920803Y55473D01*
X920539Y55570D01*
X920304Y55681D01*
X920082Y55792D01*
X919874Y55917D01*
X919707Y56027D01*
X919541Y56125D01*
X919416Y56222D01*
X919319Y56305D01*
X919236Y56360D01*
X919194Y56402D01*
X919180Y56416D01*
X918944Y56652D01*
X918736Y56887D01*
X918556Y57137D01*
X918404Y57373D01*
X918265Y57622D01*
X918168Y57858D01*
X918071Y58080D01*
X918001Y58288D01*
X917946Y58496D01*
X917904Y58676D01*
X917877Y58843D01*
X917849Y58981D01*
Y59092D01*
X917835Y59176D01*
Y59231D01*
Y59245D01*
Y59467D01*
X917849Y59661D01*
X917863Y59855D01*
X917890Y60022D01*
X917918Y60188D01*
X917946Y60341D01*
X917988Y60465D01*
X918015Y60590D01*
X918043Y60687D01*
X918085Y60784D01*
X918112Y60854D01*
X918140Y60923D01*
X918168Y60965D01*
X918182Y61006D01*
X918196Y61020D01*
Y61034D01*
X915949D01*
Y57026D01*
X915935Y56860D01*
X915907Y56721D01*
X915866Y56596D01*
X915796Y56485D01*
X915727Y56402D01*
X915658Y56319D01*
X915477Y56208D01*
X915311Y56152D01*
X915158Y56111D01*
X915103Y56097D01*
X915020D01*
X914853Y56111D01*
X914715Y56139D01*
X914590Y56180D01*
X914479Y56235D01*
X914396Y56319D01*
X914312Y56388D01*
X914202Y56554D01*
X914146Y56735D01*
X914104Y56873D01*
X914090Y56943D01*
Y56984D01*
Y57012D01*
Y57026D01*
Y62851D01*
X919887D01*
X920040Y62837D01*
X920165Y62823D01*
X920276Y62781D01*
X920373Y62726D01*
X920456Y62670D01*
X920526Y62601D01*
X920622Y62463D01*
X920692Y62324D01*
X920720Y62199D01*
X920733Y62102D01*
Y62088D01*
Y62074D01*
X920720Y61949D01*
X920678Y61811D01*
X920622Y61672D01*
X920553Y61547D01*
X920484Y61450D01*
X920428Y61353D01*
X920387Y61297D01*
X920373Y61284D01*
X920262Y61131D01*
X920151Y60965D01*
X919998Y60618D01*
X919874Y60285D01*
X919804Y59952D01*
X919777Y59800D01*
X919749Y59675D01*
X919735Y59550D01*
Y59439D01*
X919721Y59356D01*
Y59287D01*
Y59245D01*
Y59231D01*
X919735Y59065D01*
X919749Y58912D01*
X919846Y58621D01*
X919971Y58357D01*
X920109Y58122D01*
X920248Y57941D01*
X920373Y57803D01*
X920428Y57747D01*
X920470Y57706D01*
X920484Y57692D01*
X920498Y57678D01*
X920650Y57553D01*
X920803Y57456D01*
X920955Y57359D01*
X921108Y57290D01*
X921427Y57165D01*
X921704Y57081D01*
X921968Y57040D01*
X922065Y57012D01*
X922162D01*
X922231Y56998D01*
X922342D01*
X922744Y57026D01*
X923105Y57081D01*
X923410Y57151D01*
X923674Y57248D01*
X923784Y57290D01*
X923895Y57345D01*
X923979Y57387D01*
X924048Y57414D01*
X924103Y57456D01*
X924145Y57470D01*
X924159Y57498D01*
X924173D01*
X924312Y57595D01*
X924423Y57719D01*
X924533Y57830D01*
X924631Y57955D01*
X924769Y58205D01*
X924880Y58454D01*
X924936Y58676D01*
X924963Y58773D01*
X924977Y58857D01*
X924991Y58926D01*
X925005Y58981D01*
Y59009D01*
Y59023D01*
X924991Y59300D01*
X924949Y59564D01*
X924852Y59814D01*
X924728Y60049D01*
X924575Y60257D01*
X924409Y60451D01*
X924214Y60632D01*
X924034Y60784D01*
X923840Y60923D01*
X923646Y61048D01*
X923466Y61145D01*
X923313Y61228D01*
X923174Y61297D01*
X923077Y61339D01*
X923008Y61367D01*
X922980Y61381D01*
X922814Y61450D01*
X922703Y61561D01*
X922620Y61686D01*
X922550Y61824D01*
X922523Y61936D01*
X922509Y62046D01*
X922495Y62116D01*
Y62130D01*
Y62144D01*
X922509Y62282D01*
X922536Y62407D01*
X922578Y62518D01*
X922620Y62615D01*
X922675Y62698D01*
X922717Y62754D01*
X922744Y62795D01*
X922758Y62809D01*
X922855Y62906D01*
X922966Y62976D01*
X923063Y63031D01*
X923174Y63059D01*
X923258Y63087D01*
X923327Y63100D01*
X923396D01*
X923521Y63087D01*
D02*
G37*
G36*
X926683Y45848D02*
X926669Y45682D01*
X926641Y45543D01*
X926600Y45404D01*
X926531Y45307D01*
X926461Y45210D01*
X926378Y45141D01*
X926211Y45016D01*
X926031Y44960D01*
X925892Y44919D01*
X925823Y44905D01*
X925740D01*
X925574Y44919D01*
X925435Y44947D01*
X925296Y44988D01*
X925199Y45058D01*
X925102Y45127D01*
X925033Y45196D01*
X924908Y45377D01*
X924852Y45543D01*
X924811Y45696D01*
X924797Y45765D01*
Y45806D01*
Y45834D01*
Y45848D01*
Y50411D01*
X924367Y50272D01*
X923979Y50120D01*
X923646Y49981D01*
X923355Y49842D01*
X923216Y49773D01*
X923105Y49717D01*
X923008Y49662D01*
X922939Y49606D01*
X922869Y49579D01*
X922828Y49551D01*
X922800Y49523D01*
X922786D01*
X922523Y49343D01*
X922273Y49149D01*
X922037Y48927D01*
X921801Y48705D01*
X921371Y48247D01*
X921177Y48012D01*
X920997Y47776D01*
X920844Y47568D01*
X920692Y47360D01*
X920567Y47179D01*
X920456Y47027D01*
X920373Y46888D01*
X920317Y46791D01*
X920276Y46736D01*
X920262Y46708D01*
X920040Y46361D01*
X919804Y46070D01*
X919541Y45806D01*
X919291Y45585D01*
X919028Y45391D01*
X918750Y45238D01*
X918501Y45113D01*
X918251Y45002D01*
X918015Y44933D01*
X917793Y44864D01*
X917599Y44822D01*
X917419Y44794D01*
X917280Y44780D01*
X917169Y44766D01*
X917086D01*
X916850Y44780D01*
X916615Y44808D01*
X916393Y44864D01*
X916185Y44933D01*
X915810Y45099D01*
X915630Y45196D01*
X915477Y45293D01*
X915339Y45404D01*
X915214Y45501D01*
X915103Y45585D01*
X915006Y45668D01*
X914937Y45737D01*
X914881Y45793D01*
X914853Y45820D01*
X914839Y45834D01*
X914687Y46001D01*
X914548Y46181D01*
X914423Y46375D01*
X914326Y46569D01*
X914243Y46777D01*
X914174Y46972D01*
X914063Y47374D01*
X914021Y47554D01*
X913993Y47734D01*
X913980Y47887D01*
X913966Y48025D01*
X913952Y48136D01*
Y48220D01*
Y48275D01*
Y48289D01*
Y48539D01*
X913980Y48774D01*
X914063Y49218D01*
X914188Y49634D01*
X914354Y50009D01*
X914534Y50342D01*
X914756Y50647D01*
X914978Y50924D01*
X915214Y51160D01*
X915463Y51354D01*
X915685Y51534D01*
X915907Y51673D01*
X916088Y51798D01*
X916254Y51881D01*
X916379Y51936D01*
X916462Y51978D01*
X916476Y51992D01*
X916490D01*
X916628Y52033D01*
X916753Y52061D01*
X916809Y52075D01*
X916878D01*
X917017Y52061D01*
X917142Y52033D01*
X917253Y51992D01*
X917350Y51936D01*
X917419Y51881D01*
X917488Y51839D01*
X917516Y51811D01*
X917530Y51798D01*
X917613Y51687D01*
X917669Y51576D01*
X917724Y51465D01*
X917752Y51368D01*
X917766Y51271D01*
X917779Y51201D01*
Y51160D01*
Y51146D01*
X917752Y50952D01*
X917696Y50785D01*
X917599Y50647D01*
X917488Y50536D01*
X917391Y50452D01*
X917294Y50397D01*
X917239Y50369D01*
X917211Y50355D01*
X916934Y50217D01*
X916698Y50078D01*
X916504Y49925D01*
X916337Y49773D01*
X916226Y49648D01*
X916143Y49551D01*
X916088Y49482D01*
X916074Y49454D01*
X915991Y49288D01*
X915935Y49093D01*
X915893Y48899D01*
X915866Y48691D01*
X915852Y48511D01*
X915838Y48358D01*
Y48303D01*
Y48261D01*
Y48233D01*
Y48220D01*
X915852Y47970D01*
X915893Y47762D01*
X915963Y47568D01*
X916032Y47415D01*
X916115Y47290D01*
X916171Y47193D01*
X916226Y47138D01*
X916240Y47124D01*
X916393Y46985D01*
X916559Y46888D01*
X916725Y46819D01*
X916878Y46777D01*
X917017Y46736D01*
X917128Y46722D01*
X917225D01*
X917391Y46736D01*
X917558Y46763D01*
X917710Y46805D01*
X917849Y46860D01*
X918099Y47013D01*
X918307Y47179D01*
X918459Y47360D01*
X918584Y47498D01*
X918625Y47568D01*
X918653Y47609D01*
X918681Y47637D01*
Y47651D01*
X918903Y48012D01*
X919125Y48358D01*
X919347Y48677D01*
X919568Y48969D01*
X919790Y49246D01*
X919998Y49496D01*
X920207Y49731D01*
X920401Y49939D01*
X920581Y50120D01*
X920747Y50286D01*
X920900Y50425D01*
X921025Y50536D01*
X921136Y50633D01*
X921205Y50688D01*
X921261Y50730D01*
X921274Y50744D01*
X921718Y51049D01*
X922190Y51326D01*
X922634Y51562D01*
X923063Y51756D01*
X923258Y51825D01*
X923438Y51909D01*
X923590Y51964D01*
X923729Y52020D01*
X923840Y52047D01*
X923923Y52075D01*
X923979Y52103D01*
X923993D01*
X924464Y52214D01*
X924922Y52325D01*
X925379Y52436D01*
X925587Y52477D01*
X925796Y52519D01*
X925976Y52560D01*
X926156Y52602D01*
X926309Y52630D01*
X926433Y52657D01*
X926544Y52685D01*
X926614Y52699D01*
X926669Y52713D01*
X926683D01*
Y45848D01*
D02*
G37*
G36*
X926383Y740735D02*
X926369Y740569D01*
X926341Y740430D01*
X926300Y740292D01*
X926230Y740195D01*
X926161Y740098D01*
X926078Y740028D01*
X925911Y739903D01*
X925731Y739848D01*
X925592Y739806D01*
X925523Y739792D01*
X925440D01*
X925274Y739806D01*
X925135Y739834D01*
X924996Y739876D01*
X924899Y739945D01*
X924802Y740014D01*
X924733Y740084D01*
X924608Y740264D01*
X924552Y740430D01*
X924511Y740583D01*
X924497Y740652D01*
Y740694D01*
Y740722D01*
Y740735D01*
Y745298D01*
X924067Y745160D01*
X923679Y745007D01*
X923346Y744868D01*
X923055Y744730D01*
X922916Y744660D01*
X922805Y744605D01*
X922708Y744549D01*
X922639Y744494D01*
X922569Y744466D01*
X922528Y744438D01*
X922500Y744411D01*
X922486D01*
X922223Y744230D01*
X921973Y744036D01*
X921737Y743814D01*
X921501Y743592D01*
X921071Y743135D01*
X920877Y742899D01*
X920697Y742663D01*
X920544Y742455D01*
X920392Y742247D01*
X920267Y742067D01*
X920156Y741914D01*
X920073Y741776D01*
X920017Y741679D01*
X919976Y741623D01*
X919962Y741595D01*
X919740Y741249D01*
X919504Y740957D01*
X919241Y740694D01*
X918991Y740472D01*
X918728Y740278D01*
X918450Y740125D01*
X918201Y740001D01*
X917951Y739890D01*
X917715Y739820D01*
X917493Y739751D01*
X917299Y739709D01*
X917119Y739681D01*
X916980Y739668D01*
X916869Y739654D01*
X916786D01*
X916550Y739668D01*
X916315Y739695D01*
X916093Y739751D01*
X915885Y739820D01*
X915510Y739987D01*
X915330Y740084D01*
X915177Y740181D01*
X915039Y740292D01*
X914914Y740389D01*
X914803Y740472D01*
X914706Y740555D01*
X914637Y740625D01*
X914581Y740680D01*
X914553Y740708D01*
X914539Y740722D01*
X914387Y740888D01*
X914248Y741068D01*
X914123Y741263D01*
X914026Y741457D01*
X913943Y741665D01*
X913874Y741859D01*
X913763Y742261D01*
X913721Y742441D01*
X913693Y742622D01*
X913680Y742774D01*
X913666Y742913D01*
X913652Y743024D01*
Y743107D01*
Y743163D01*
Y743176D01*
Y743426D01*
X913680Y743662D01*
X913763Y744106D01*
X913888Y744522D01*
X914054Y744896D01*
X914234Y745229D01*
X914456Y745534D01*
X914678Y745811D01*
X914914Y746047D01*
X915163Y746241D01*
X915385Y746422D01*
X915607Y746560D01*
X915788Y746685D01*
X915954Y746768D01*
X916079Y746824D01*
X916162Y746865D01*
X916176Y746879D01*
X916190D01*
X916328Y746921D01*
X916453Y746949D01*
X916509Y746962D01*
X916578D01*
X916717Y746949D01*
X916842Y746921D01*
X916953Y746879D01*
X917050Y746824D01*
X917119Y746768D01*
X917188Y746727D01*
X917216Y746699D01*
X917230Y746685D01*
X917313Y746574D01*
X917369Y746463D01*
X917424Y746352D01*
X917452Y746255D01*
X917466Y746158D01*
X917479Y746089D01*
Y746047D01*
Y746033D01*
X917452Y745839D01*
X917396Y745673D01*
X917299Y745534D01*
X917188Y745423D01*
X917091Y745340D01*
X916994Y745284D01*
X916939Y745257D01*
X916911Y745243D01*
X916634Y745104D01*
X916398Y744965D01*
X916204Y744813D01*
X916037Y744660D01*
X915926Y744536D01*
X915843Y744438D01*
X915788Y744369D01*
X915774Y744341D01*
X915691Y744175D01*
X915635Y743981D01*
X915593Y743787D01*
X915566Y743578D01*
X915552Y743398D01*
X915538Y743246D01*
Y743190D01*
Y743149D01*
Y743121D01*
Y743107D01*
X915552Y742857D01*
X915593Y742649D01*
X915663Y742455D01*
X915732Y742303D01*
X915815Y742178D01*
X915871Y742081D01*
X915926Y742025D01*
X915940Y742011D01*
X916093Y741873D01*
X916259Y741776D01*
X916425Y741706D01*
X916578Y741665D01*
X916717Y741623D01*
X916828Y741609D01*
X916925D01*
X917091Y741623D01*
X917258Y741651D01*
X917410Y741692D01*
X917549Y741748D01*
X917798Y741900D01*
X918007Y742067D01*
X918159Y742247D01*
X918284Y742386D01*
X918326Y742455D01*
X918353Y742497D01*
X918381Y742524D01*
Y742538D01*
X918603Y742899D01*
X918825Y743246D01*
X919047Y743565D01*
X919268Y743856D01*
X919490Y744133D01*
X919698Y744383D01*
X919906Y744619D01*
X920101Y744827D01*
X920281Y745007D01*
X920447Y745173D01*
X920600Y745312D01*
X920725Y745423D01*
X920836Y745520D01*
X920905Y745576D01*
X920960Y745617D01*
X920974Y745631D01*
X921418Y745936D01*
X921890Y746214D01*
X922334Y746449D01*
X922763Y746644D01*
X922958Y746713D01*
X923138Y746796D01*
X923290Y746852D01*
X923429Y746907D01*
X923540Y746935D01*
X923623Y746962D01*
X923679Y746990D01*
X923693D01*
X924164Y747101D01*
X924622Y747212D01*
X925079Y747323D01*
X925287Y747365D01*
X925496Y747406D01*
X925676Y747448D01*
X925856Y747489D01*
X926009Y747517D01*
X926133Y747545D01*
X926244Y747573D01*
X926314Y747587D01*
X926369Y747600D01*
X926383D01*
Y740735D01*
D02*
G37*
G36*
X961621Y63087D02*
X961718Y63073D01*
X961787Y63059D01*
X961815D01*
X962079Y62962D01*
X962342Y62851D01*
X962578Y62726D01*
X962800Y62601D01*
X963008Y62476D01*
X963202Y62338D01*
X963382Y62213D01*
X963535Y62088D01*
X963674Y61977D01*
X963798Y61866D01*
X963909Y61755D01*
X963992Y61672D01*
X964062Y61603D01*
X964103Y61547D01*
X964131Y61519D01*
X964145Y61505D01*
X964312Y61284D01*
X964450Y61062D01*
X964561Y60840D01*
X964658Y60618D01*
X964741Y60396D01*
X964811Y60174D01*
X964866Y59966D01*
X964908Y59772D01*
X964936Y59578D01*
X964949Y59411D01*
X964963Y59259D01*
Y59134D01*
Y59023D01*
Y58954D01*
Y58898D01*
Y58884D01*
X964922Y58552D01*
X964866Y58246D01*
X964797Y57955D01*
X964700Y57692D01*
X964589Y57442D01*
X964478Y57220D01*
X964353Y57026D01*
X964242Y56846D01*
X964117Y56679D01*
X964006Y56541D01*
X963895Y56430D01*
X963798Y56333D01*
X963715Y56263D01*
X963660Y56208D01*
X963618Y56180D01*
X963604Y56166D01*
X963355Y55986D01*
X963105Y55847D01*
X962841Y55708D01*
X962578Y55598D01*
X962301Y55500D01*
X962037Y55417D01*
X961787Y55362D01*
X961538Y55306D01*
X961316Y55265D01*
X961108Y55237D01*
X960914Y55209D01*
X960761Y55195D01*
X960622Y55182D01*
X960442D01*
X960109Y55195D01*
X959790Y55237D01*
X959471Y55293D01*
X959180Y55376D01*
X958903Y55473D01*
X958639Y55570D01*
X958404Y55681D01*
X958182Y55792D01*
X957974Y55917D01*
X957807Y56027D01*
X957641Y56125D01*
X957516Y56222D01*
X957419Y56305D01*
X957336Y56360D01*
X957294Y56402D01*
X957280Y56416D01*
X957045Y56652D01*
X956836Y56887D01*
X956656Y57137D01*
X956504Y57373D01*
X956365Y57622D01*
X956268Y57858D01*
X956171Y58080D01*
X956101Y58288D01*
X956046Y58496D01*
X956004Y58676D01*
X955977Y58843D01*
X955949Y58981D01*
Y59092D01*
X955935Y59176D01*
Y59231D01*
Y59245D01*
Y59467D01*
X955949Y59661D01*
X955963Y59855D01*
X955991Y60022D01*
X956018Y60188D01*
X956046Y60341D01*
X956087Y60465D01*
X956115Y60590D01*
X956143Y60687D01*
X956185Y60784D01*
X956212Y60854D01*
X956240Y60923D01*
X956268Y60965D01*
X956282Y61006D01*
X956296Y61020D01*
Y61034D01*
X954049D01*
Y57026D01*
X954035Y56860D01*
X954007Y56721D01*
X953966Y56596D01*
X953896Y56485D01*
X953827Y56402D01*
X953758Y56319D01*
X953577Y56208D01*
X953411Y56152D01*
X953258Y56111D01*
X953203Y56097D01*
X953120D01*
X952953Y56111D01*
X952815Y56139D01*
X952690Y56180D01*
X952579Y56235D01*
X952496Y56319D01*
X952412Y56388D01*
X952301Y56554D01*
X952246Y56735D01*
X952204Y56873D01*
X952190Y56943D01*
Y56984D01*
Y57012D01*
Y57026D01*
Y62851D01*
X957988D01*
X958140Y62837D01*
X958265Y62823D01*
X958376Y62781D01*
X958473Y62726D01*
X958556Y62670D01*
X958625Y62601D01*
X958723Y62463D01*
X958792Y62324D01*
X958820Y62199D01*
X958833Y62102D01*
Y62088D01*
Y62074D01*
X958820Y61949D01*
X958778Y61811D01*
X958723Y61672D01*
X958653Y61547D01*
X958584Y61450D01*
X958528Y61353D01*
X958487Y61297D01*
X958473Y61284D01*
X958362Y61131D01*
X958251Y60965D01*
X958099Y60618D01*
X957974Y60285D01*
X957904Y59952D01*
X957877Y59800D01*
X957849Y59675D01*
X957835Y59550D01*
Y59439D01*
X957821Y59356D01*
Y59287D01*
Y59245D01*
Y59231D01*
X957835Y59065D01*
X957849Y58912D01*
X957946Y58621D01*
X958071Y58357D01*
X958209Y58122D01*
X958348Y57941D01*
X958473Y57803D01*
X958528Y57747D01*
X958570Y57706D01*
X958584Y57692D01*
X958598Y57678D01*
X958750Y57553D01*
X958903Y57456D01*
X959055Y57359D01*
X959208Y57290D01*
X959527Y57165D01*
X959804Y57081D01*
X960068Y57040D01*
X960165Y57012D01*
X960262D01*
X960331Y56998D01*
X960442D01*
X960844Y57026D01*
X961205Y57081D01*
X961510Y57151D01*
X961774Y57248D01*
X961885Y57290D01*
X961995Y57345D01*
X962079Y57387D01*
X962148Y57414D01*
X962204Y57456D01*
X962245Y57470D01*
X962259Y57498D01*
X962273D01*
X962411Y57595D01*
X962523Y57719D01*
X962633Y57830D01*
X962730Y57955D01*
X962869Y58205D01*
X962980Y58454D01*
X963036Y58676D01*
X963063Y58773D01*
X963077Y58857D01*
X963091Y58926D01*
X963105Y58981D01*
Y59009D01*
Y59023D01*
X963091Y59300D01*
X963049Y59564D01*
X962952Y59814D01*
X962828Y60049D01*
X962675Y60257D01*
X962509Y60451D01*
X962315Y60632D01*
X962134Y60784D01*
X961940Y60923D01*
X961746Y61048D01*
X961566Y61145D01*
X961413Y61228D01*
X961274Y61297D01*
X961177Y61339D01*
X961108Y61367D01*
X961080Y61381D01*
X960914Y61450D01*
X960803Y61561D01*
X960720Y61686D01*
X960650Y61824D01*
X960622Y61936D01*
X960609Y62046D01*
X960595Y62116D01*
Y62130D01*
Y62144D01*
X960609Y62282D01*
X960636Y62407D01*
X960678Y62518D01*
X960720Y62615D01*
X960775Y62698D01*
X960817Y62754D01*
X960844Y62795D01*
X960858Y62809D01*
X960955Y62906D01*
X961066Y62976D01*
X961163Y63031D01*
X961274Y63059D01*
X961357Y63087D01*
X961427Y63100D01*
X961496D01*
X961621Y63087D01*
D02*
G37*
G36*
X964187Y51964D02*
X964325Y51936D01*
X964450Y51895D01*
X964547Y51839D01*
X964644Y51770D01*
X964714Y51687D01*
X964825Y51520D01*
X964880Y51354D01*
X964922Y51201D01*
X964936Y51146D01*
Y51104D01*
Y51076D01*
Y51063D01*
X964922Y50896D01*
X964894Y50757D01*
X964852Y50619D01*
X964797Y50522D01*
X964728Y50425D01*
X964644Y50355D01*
X964478Y50230D01*
X964312Y50175D01*
X964159Y50134D01*
X964103Y50120D01*
X953092D01*
X952926Y50134D01*
X952787Y50161D01*
X952662Y50203D01*
X952551Y50272D01*
X952468Y50342D01*
X952385Y50411D01*
X952274Y50591D01*
X952218Y50757D01*
X952177Y50910D01*
X952163Y50979D01*
Y51021D01*
Y51049D01*
Y51063D01*
X952177Y51229D01*
X952204Y51368D01*
X952246Y51493D01*
X952301Y51590D01*
X952385Y51687D01*
X952454Y51756D01*
X952620Y51867D01*
X952801Y51922D01*
X952939Y51964D01*
X953009Y51978D01*
X964020D01*
X964187Y51964D01*
D02*
G37*
G36*
X962787Y744586D02*
X962925Y744559D01*
X963050Y744517D01*
X963147Y744462D01*
X963244Y744392D01*
X963314Y744309D01*
X963425Y744143D01*
X963480Y743976D01*
X963522Y743824D01*
X963536Y743768D01*
Y743727D01*
Y743699D01*
Y743685D01*
X963522Y743519D01*
X963494Y743380D01*
X963452Y743241D01*
X963397Y743144D01*
X963328Y743047D01*
X963244Y742978D01*
X963078Y742853D01*
X962912Y742797D01*
X962759Y742756D01*
X962703Y742742D01*
X951692D01*
X951526Y742756D01*
X951387Y742784D01*
X951262Y742825D01*
X951151Y742895D01*
X951068Y742964D01*
X950985Y743033D01*
X950874Y743214D01*
X950818Y743380D01*
X950777Y743532D01*
X950763Y743602D01*
Y743643D01*
Y743671D01*
Y743685D01*
X950777Y743851D01*
X950804Y743990D01*
X950846Y744115D01*
X950901Y744212D01*
X950985Y744309D01*
X951054Y744379D01*
X951220Y744489D01*
X951401Y744545D01*
X951539Y744586D01*
X951609Y744600D01*
X962620D01*
X962787Y744586D01*
D02*
G37*
G36*
X241031Y807972D02*
X241170Y807944D01*
X241309Y807903D01*
X241406Y807834D01*
X241503Y807764D01*
X241572Y807681D01*
X241697Y807515D01*
X241752Y807334D01*
X241794Y807196D01*
X241808Y807126D01*
Y807085D01*
Y807057D01*
Y807043D01*
X241794Y806877D01*
X241766Y806738D01*
X241725Y806599D01*
X241655Y806502D01*
X241586Y806405D01*
X241517Y806336D01*
X241336Y806211D01*
X241170Y806155D01*
X241017Y806114D01*
X240948Y806100D01*
X236302D01*
X236441Y805670D01*
X236593Y805282D01*
X236732Y804949D01*
X236871Y804658D01*
X236940Y804519D01*
X236996Y804408D01*
X237051Y804311D01*
X237106Y804242D01*
X237134Y804172D01*
X237162Y804131D01*
X237190Y804103D01*
Y804089D01*
X237370Y803826D01*
X237564Y803576D01*
X237786Y803340D01*
X238008Y803104D01*
X238466Y802674D01*
X238701Y802480D01*
X238937Y802300D01*
X239145Y802148D01*
X239353Y801995D01*
X239534Y801870D01*
X239686Y801759D01*
X239825Y801676D01*
X239922Y801620D01*
X239977Y801579D01*
X240005Y801565D01*
X240352Y801343D01*
X240643Y801107D01*
X240907Y800844D01*
X241128Y800594D01*
X241322Y800331D01*
X241475Y800053D01*
X241600Y799804D01*
X241711Y799554D01*
X241780Y799318D01*
X241849Y799097D01*
X241891Y798902D01*
X241919Y798722D01*
X241933Y798583D01*
X241947Y798472D01*
Y798417D01*
Y798389D01*
X241933Y798153D01*
X241905Y797918D01*
X241849Y797696D01*
X241780Y797488D01*
X241614Y797113D01*
X241517Y796933D01*
X241420Y796780D01*
X241309Y796642D01*
X241212Y796517D01*
X241128Y796406D01*
X241045Y796309D01*
X240976Y796240D01*
X240920Y796184D01*
X240893Y796156D01*
X240879Y796143D01*
X240712Y795990D01*
X240532Y795851D01*
X240338Y795726D01*
X240144Y795629D01*
X239936Y795546D01*
X239741Y795477D01*
X239339Y795366D01*
X239159Y795324D01*
X238979Y795297D01*
X238826Y795283D01*
X238687Y795269D01*
X238577Y795255D01*
X238174D01*
X237939Y795283D01*
X237495Y795366D01*
X237079Y795491D01*
X236704Y795657D01*
X236371Y795837D01*
X236066Y796059D01*
X235789Y796281D01*
X235553Y796517D01*
X235359Y796767D01*
X235179Y796989D01*
X235040Y797210D01*
X234915Y797391D01*
X234832Y797557D01*
X234777Y797682D01*
X234735Y797765D01*
X234721Y797779D01*
Y797793D01*
X234680Y797932D01*
X234652Y798056D01*
X234638Y798112D01*
Y798140D01*
Y798167D01*
Y798181D01*
X234652Y798320D01*
X234680Y798445D01*
X234721Y798556D01*
X234777Y798653D01*
X234832Y798722D01*
X234874Y798791D01*
X234901Y798819D01*
X234915Y798833D01*
X235026Y798916D01*
X235137Y798972D01*
X235248Y799027D01*
X235345Y799055D01*
X235442Y799069D01*
X235512Y799083D01*
X235567D01*
X235761Y799055D01*
X235928Y798999D01*
X236066Y798902D01*
X236177Y798791D01*
X236261Y798694D01*
X236316Y798597D01*
X236344Y798542D01*
X236358Y798514D01*
X236496Y798237D01*
X236635Y798001D01*
X236787Y797807D01*
X236940Y797640D01*
X237065Y797529D01*
X237162Y797446D01*
X237231Y797391D01*
X237259Y797377D01*
X237425Y797294D01*
X237620Y797238D01*
X237814Y797197D01*
X238022Y797169D01*
X238202Y797155D01*
X238355Y797141D01*
X238493D01*
X238743Y797155D01*
X238951Y797197D01*
X239145Y797266D01*
X239298Y797335D01*
X239422Y797418D01*
X239520Y797474D01*
X239575Y797529D01*
X239589Y797543D01*
X239728Y797696D01*
X239825Y797862D01*
X239894Y798029D01*
X239936Y798181D01*
X239977Y798320D01*
X239991Y798431D01*
Y798500D01*
Y798528D01*
X239977Y798694D01*
X239949Y798861D01*
X239908Y799013D01*
X239853Y799152D01*
X239700Y799402D01*
X239534Y799610D01*
X239353Y799762D01*
X239214Y799887D01*
X239145Y799929D01*
X239104Y799956D01*
X239076Y799984D01*
X239062D01*
X238701Y800206D01*
X238355Y800428D01*
X238036Y800650D01*
X237745Y800872D01*
X237467Y801094D01*
X237218Y801302D01*
X236982Y801510D01*
X236774Y801704D01*
X236593Y801884D01*
X236427Y802050D01*
X236288Y802203D01*
X236177Y802328D01*
X236080Y802439D01*
X236025Y802508D01*
X235983Y802564D01*
X235969Y802578D01*
X235664Y803021D01*
X235387Y803493D01*
X235151Y803937D01*
X234957Y804367D01*
X234888Y804561D01*
X234804Y804741D01*
X234749Y804893D01*
X234693Y805032D01*
X234666Y805143D01*
X234638Y805226D01*
X234610Y805282D01*
Y805296D01*
X234499Y805767D01*
X234388Y806225D01*
X234277Y806683D01*
X234236Y806890D01*
X234194Y807099D01*
X234153Y807279D01*
X234111Y807459D01*
X234083Y807612D01*
X234056Y807737D01*
X234028Y807848D01*
X234014Y807917D01*
X234000Y807972D01*
Y807986D01*
X240865D01*
X241031Y807972D01*
D02*
G37*
G36*
X987605Y689980D02*
Y689786D01*
X987619Y689592D01*
X987633Y689273D01*
X987661Y688996D01*
X987688Y688774D01*
X987730Y688607D01*
X987758Y688482D01*
X987772Y688413D01*
X987785Y688385D01*
X987869Y688205D01*
X987966Y688053D01*
X988077Y687914D01*
X988174Y687803D01*
X988285Y687720D01*
X988354Y687650D01*
X988410Y687609D01*
X988437Y687595D01*
X988618Y687498D01*
X988798Y687428D01*
X988978Y687373D01*
X989158Y687345D01*
X989311Y687318D01*
X989422Y687304D01*
X989533D01*
X989838Y687331D01*
X990101Y687387D01*
X990337Y687470D01*
X990531Y687567D01*
X990684Y687664D01*
X990795Y687747D01*
X990864Y687803D01*
X990892Y687831D01*
X990975Y687942D01*
X991058Y688066D01*
X991128Y688219D01*
X991183Y688372D01*
X991280Y688704D01*
X991350Y689037D01*
X991391Y689342D01*
X991405Y689481D01*
X991419Y689606D01*
Y689703D01*
X991433Y689772D01*
Y689828D01*
Y689842D01*
X992958Y689620D01*
Y689273D01*
X992931Y688954D01*
X992889Y688649D01*
X992847Y688372D01*
X992778Y688108D01*
X992709Y687872D01*
X992626Y687664D01*
X992556Y687470D01*
X992473Y687304D01*
X992390Y687151D01*
X992320Y687026D01*
X992251Y686929D01*
X992196Y686846D01*
X992154Y686790D01*
X992126Y686763D01*
X992112Y686749D01*
X991932Y686582D01*
X991738Y686430D01*
X991544Y686305D01*
X991322Y686194D01*
X991114Y686097D01*
X990892Y686028D01*
X990684Y685958D01*
X990476Y685917D01*
X990282Y685875D01*
X990101Y685847D01*
X989935Y685820D01*
X989796Y685806D01*
X989685Y685792D01*
X989519D01*
X989103Y685806D01*
X988728Y685861D01*
X988396Y685931D01*
X988104Y686028D01*
X987980Y686069D01*
X987869Y686111D01*
X987772Y686139D01*
X987702Y686180D01*
X987633Y686208D01*
X987591Y686236D01*
X987564Y686250D01*
X987550D01*
X987259Y686444D01*
X986995Y686652D01*
X986787Y686874D01*
X986620Y687082D01*
X986482Y687276D01*
X986385Y687442D01*
X986357Y687498D01*
X986329Y687539D01*
X986315Y687567D01*
Y687581D01*
X986246Y687761D01*
X986177Y687942D01*
X986080Y688344D01*
X986010Y688760D01*
X985969Y689162D01*
X985941Y689342D01*
X985927Y689523D01*
Y689675D01*
X985913Y689814D01*
Y689925D01*
Y690008D01*
Y690063D01*
Y690077D01*
Y698801D01*
X987605D01*
Y689980D01*
D02*
G37*
G36*
X251061Y757828D02*
X251324Y757801D01*
X251574Y757759D01*
X251824Y757703D01*
X252045Y757634D01*
X252253Y757565D01*
X252448Y757482D01*
X252614Y757412D01*
X252780Y757329D01*
X252919Y757246D01*
X253030Y757177D01*
X253141Y757107D01*
X253210Y757052D01*
X253280Y757010D01*
X253307Y756982D01*
X253321Y756968D01*
X253502Y756802D01*
X253668Y756608D01*
X253821Y756414D01*
X253959Y756219D01*
X254084Y756012D01*
X254181Y755817D01*
X254361Y755415D01*
X254431Y755235D01*
X254486Y755069D01*
X254528Y754916D01*
X254569Y754791D01*
X254597Y754680D01*
X254611Y754597D01*
X254625Y754541D01*
Y754528D01*
X253058Y754250D01*
X252975Y754652D01*
X252864Y754999D01*
X252739Y755304D01*
X252600Y755540D01*
X252489Y755734D01*
X252378Y755859D01*
X252309Y755942D01*
X252281Y755970D01*
X252032Y756164D01*
X251782Y756303D01*
X251518Y756414D01*
X251283Y756483D01*
X251061Y756525D01*
X250978Y756538D01*
X250894D01*
X250825Y756552D01*
X250742D01*
X250409Y756525D01*
X250118Y756469D01*
X249854Y756372D01*
X249632Y756275D01*
X249466Y756164D01*
X249341Y756067D01*
X249258Y756012D01*
X249230Y755984D01*
X249119Y755873D01*
X249036Y755762D01*
X248883Y755512D01*
X248773Y755276D01*
X248703Y755055D01*
X248662Y754847D01*
X248648Y754694D01*
X248634Y754625D01*
Y754583D01*
Y754555D01*
Y754541D01*
X248648Y754347D01*
X248675Y754167D01*
X248703Y753987D01*
X248759Y753834D01*
X248897Y753557D01*
X249036Y753335D01*
X249189Y753155D01*
X249327Y753030D01*
X249383Y752988D01*
X249410Y752961D01*
X249438Y752933D01*
X249452D01*
X249757Y752752D01*
X250076Y752628D01*
X250381Y752531D01*
X250659Y752475D01*
X250894Y752433D01*
X250991Y752420D01*
X251089D01*
X251158Y752406D01*
X251338D01*
X251421Y752420D01*
X251491Y752433D01*
X251518D01*
X251685Y751060D01*
X251449Y751116D01*
X251227Y751158D01*
X251047Y751185D01*
X250881Y751213D01*
X250756D01*
X250659Y751227D01*
X250575D01*
X250381Y751213D01*
X250187Y751199D01*
X249840Y751116D01*
X249535Y751005D01*
X249272Y750880D01*
X249064Y750742D01*
X248981Y750686D01*
X248911Y750631D01*
X248856Y750589D01*
X248814Y750547D01*
X248800Y750534D01*
X248786Y750520D01*
X248662Y750381D01*
X248551Y750242D01*
X248454Y750104D01*
X248370Y749951D01*
X248246Y749660D01*
X248148Y749369D01*
X248107Y749119D01*
X248093Y749022D01*
X248079Y748925D01*
X248065Y748855D01*
Y748786D01*
Y748758D01*
Y748745D01*
X248079Y748537D01*
X248093Y748342D01*
X248190Y747968D01*
X248301Y747649D01*
X248440Y747372D01*
X248523Y747247D01*
X248592Y747150D01*
X248648Y747053D01*
X248703Y746983D01*
X248759Y746928D01*
X248800Y746886D01*
X248814Y746858D01*
X248828Y746844D01*
X248981Y746706D01*
X249133Y746595D01*
X249286Y746498D01*
X249438Y746401D01*
X249757Y746262D01*
X250062Y746179D01*
X250312Y746123D01*
X250437Y746109D01*
X250520Y746096D01*
X250603Y746082D01*
X250714D01*
X251047Y746109D01*
X251366Y746179D01*
X251629Y746262D01*
X251865Y746373D01*
X252059Y746484D01*
X252198Y746567D01*
X252240Y746609D01*
X252281Y746637D01*
X252295Y746664D01*
X252309D01*
X252420Y746789D01*
X252531Y746914D01*
X252725Y747205D01*
X252878Y747524D01*
X253002Y747843D01*
X253099Y748134D01*
X253127Y748259D01*
X253155Y748370D01*
X253183Y748467D01*
X253197Y748537D01*
X253210Y748578D01*
Y748592D01*
X254778Y748384D01*
X254736Y748093D01*
X254680Y747815D01*
X254597Y747552D01*
X254514Y747302D01*
X254417Y747066D01*
X254306Y746858D01*
X254195Y746650D01*
X254084Y746484D01*
X253973Y746318D01*
X253876Y746179D01*
X253779Y746054D01*
X253696Y745957D01*
X253613Y745874D01*
X253557Y745818D01*
X253529Y745790D01*
X253515Y745777D01*
X253307Y745596D01*
X253072Y745444D01*
X252850Y745319D01*
X252614Y745194D01*
X252378Y745097D01*
X252143Y745028D01*
X251921Y744958D01*
X251699Y744903D01*
X251491Y744861D01*
X251310Y744834D01*
X251144Y744806D01*
X250991Y744792D01*
X250881D01*
X250783Y744778D01*
X250714D01*
X250367Y744792D01*
X250048Y744834D01*
X249743Y744889D01*
X249452Y744958D01*
X249175Y745042D01*
X248925Y745139D01*
X248689Y745250D01*
X248481Y745361D01*
X248287Y745458D01*
X248121Y745569D01*
X247968Y745666D01*
X247857Y745749D01*
X247760Y745818D01*
X247691Y745874D01*
X247649Y745915D01*
X247635Y745929D01*
X247413Y746151D01*
X247233Y746387D01*
X247067Y746623D01*
X246928Y746872D01*
X246803Y747108D01*
X246706Y747344D01*
X246623Y747566D01*
X246554Y747788D01*
X246498Y747996D01*
X246470Y748176D01*
X246443Y748342D01*
X246415Y748495D01*
Y748606D01*
X246401Y748703D01*
Y748758D01*
Y748772D01*
Y748994D01*
X246429Y749216D01*
X246498Y749618D01*
X246609Y749965D01*
X246665Y750117D01*
X246720Y750256D01*
X246775Y750395D01*
X246831Y750506D01*
X246886Y750603D01*
X246942Y750672D01*
X246984Y750742D01*
X247011Y750783D01*
X247025Y750811D01*
X247039Y750825D01*
X247289Y751116D01*
X247580Y751352D01*
X247871Y751532D01*
X248148Y751685D01*
X248412Y751796D01*
X248523Y751837D01*
X248606Y751865D01*
X248689Y751893D01*
X248745Y751907D01*
X248786Y751920D01*
X248800D01*
X248495Y752087D01*
X248232Y752253D01*
X247996Y752433D01*
X247816Y752614D01*
X247663Y752766D01*
X247566Y752891D01*
X247497Y752974D01*
X247483Y752988D01*
Y753002D01*
X247330Y753266D01*
X247219Y753529D01*
X247136Y753779D01*
X247081Y754015D01*
X247053Y754209D01*
X247025Y754375D01*
Y754430D01*
Y754472D01*
Y754500D01*
Y754514D01*
X247039Y754833D01*
X247094Y755138D01*
X247178Y755415D01*
X247261Y755665D01*
X247344Y755873D01*
X247386Y755956D01*
X247427Y756025D01*
X247455Y756081D01*
X247483Y756136D01*
X247497Y756150D01*
Y756164D01*
X247691Y756441D01*
X247913Y756677D01*
X248135Y756885D01*
X248356Y757066D01*
X248551Y757204D01*
X248703Y757301D01*
X248773Y757343D01*
X248814Y757371D01*
X248842Y757384D01*
X248856D01*
X249189Y757537D01*
X249521Y757648D01*
X249854Y757731D01*
X250145Y757787D01*
X250409Y757814D01*
X250506Y757828D01*
X250603Y757842D01*
X250783D01*
X251061Y757828D01*
D02*
G37*
G36*
X984318Y690507D02*
Y689065D01*
X978743D01*
Y686000D01*
X977176D01*
Y689065D01*
X975443D01*
Y690507D01*
X977176D01*
Y698801D01*
X978466D01*
X984318Y690507D01*
D02*
G37*
G36*
X924649Y853540D02*
X924967Y853513D01*
X925259Y853471D01*
X925536Y853402D01*
X925800Y853332D01*
X926035Y853249D01*
X926257Y853166D01*
X926451Y853083D01*
X926632Y852986D01*
X926784Y852903D01*
X926923Y852819D01*
X927034Y852750D01*
X927117Y852681D01*
X927172Y852639D01*
X927214Y852611D01*
X927228Y852597D01*
X927422Y852417D01*
X927589Y852209D01*
X927741Y852001D01*
X927880Y851765D01*
X927991Y851543D01*
X928102Y851321D01*
X928185Y851086D01*
X928254Y850878D01*
X928324Y850670D01*
X928365Y850475D01*
X928407Y850295D01*
X928435Y850143D01*
X928448Y850018D01*
X928462Y849935D01*
X928476Y849879D01*
Y849851D01*
X926867Y849685D01*
X926854Y849907D01*
X926840Y850115D01*
X926757Y850475D01*
X926646Y850808D01*
X926590Y850947D01*
X926521Y851072D01*
X926465Y851183D01*
X926396Y851280D01*
X926340Y851363D01*
X926299Y851432D01*
X926243Y851488D01*
X926216Y851529D01*
X926202Y851543D01*
X926188Y851557D01*
X926049Y851682D01*
X925910Y851793D01*
X925758Y851876D01*
X925605Y851959D01*
X925300Y852084D01*
X925009Y852167D01*
X924759Y852209D01*
X924649Y852237D01*
X924551D01*
X924468Y852251D01*
X924163D01*
X923969Y852223D01*
X923622Y852154D01*
X923331Y852043D01*
X923067Y851932D01*
X922873Y851807D01*
X922790Y851751D01*
X922721Y851696D01*
X922665Y851654D01*
X922624Y851627D01*
X922610Y851613D01*
X922596Y851599D01*
X922471Y851474D01*
X922374Y851349D01*
X922277Y851224D01*
X922208Y851086D01*
X922083Y850822D01*
X922000Y850573D01*
X921958Y850365D01*
X921930Y850267D01*
Y850184D01*
X921916Y850129D01*
Y850073D01*
Y850046D01*
Y850032D01*
X921930Y849865D01*
X921944Y849699D01*
X922027Y849366D01*
X922152Y849047D01*
X922291Y848756D01*
X922430Y848506D01*
X922485Y848409D01*
X922554Y848312D01*
X922596Y848243D01*
X922638Y848187D01*
X922651Y848159D01*
X922665Y848146D01*
X922818Y847951D01*
X922998Y847743D01*
X923206Y847522D01*
X923428Y847300D01*
X923886Y846842D01*
X924357Y846412D01*
X924579Y846204D01*
X924801Y846024D01*
X924995Y845857D01*
X925162Y845719D01*
X925300Y845594D01*
X925397Y845511D01*
X925467Y845441D01*
X925495Y845427D01*
X925744Y845219D01*
X925966Y845025D01*
X926188Y844845D01*
X926382Y844665D01*
X926576Y844498D01*
X926743Y844332D01*
X926895Y844193D01*
X927034Y844054D01*
X927159Y843930D01*
X927256Y843819D01*
X927353Y843722D01*
X927422Y843652D01*
X927492Y843583D01*
X927533Y843541D01*
X927547Y843514D01*
X927561Y843500D01*
X927811Y843195D01*
X928018Y842889D01*
X928199Y842598D01*
X928337Y842335D01*
X928448Y842113D01*
X928490Y842016D01*
X928532Y841946D01*
X928559Y841877D01*
X928573Y841835D01*
X928587Y841808D01*
Y841794D01*
X928656Y841600D01*
X928698Y841406D01*
X928740Y841225D01*
X928754Y841059D01*
X928767Y840920D01*
Y840809D01*
Y840740D01*
Y840712D01*
X920294D01*
Y842224D01*
X926604D01*
X926382Y842529D01*
X926271Y842668D01*
X926160Y842792D01*
X926063Y842903D01*
X925994Y842987D01*
X925938Y843042D01*
X925924Y843056D01*
X925841Y843139D01*
X925730Y843250D01*
X925605Y843361D01*
X925467Y843486D01*
X925175Y843763D01*
X924870Y844027D01*
X924579Y844276D01*
X924454Y844387D01*
X924330Y844484D01*
X924246Y844568D01*
X924163Y844623D01*
X924121Y844665D01*
X924108Y844678D01*
X923802Y844942D01*
X923511Y845192D01*
X923248Y845414D01*
X923012Y845635D01*
X922790Y845830D01*
X922596Y846024D01*
X922416Y846190D01*
X922249Y846343D01*
X922111Y846468D01*
X922000Y846592D01*
X921903Y846689D01*
X921819Y846773D01*
X921764Y846842D01*
X921708Y846884D01*
X921694Y846911D01*
X921681Y846925D01*
X921417Y847230D01*
X921209Y847508D01*
X921029Y847771D01*
X920876Y848007D01*
X920765Y848201D01*
X920682Y848354D01*
X920654Y848409D01*
X920640Y848451D01*
X920627Y848465D01*
Y848478D01*
X920516Y848756D01*
X920446Y849033D01*
X920391Y849283D01*
X920349Y849519D01*
X920322Y849713D01*
X920308Y849865D01*
Y849921D01*
Y849962D01*
Y849976D01*
Y849990D01*
X920322Y850267D01*
X920349Y850531D01*
X920405Y850781D01*
X920474Y851030D01*
X920557Y851252D01*
X920654Y851460D01*
X920751Y851654D01*
X920849Y851821D01*
X920946Y851987D01*
X921043Y852126D01*
X921140Y852251D01*
X921223Y852348D01*
X921292Y852417D01*
X921348Y852486D01*
X921376Y852514D01*
X921389Y852528D01*
X921597Y852708D01*
X921819Y852861D01*
X922055Y852999D01*
X922305Y853124D01*
X922541Y853221D01*
X922790Y853305D01*
X923026Y853374D01*
X923262Y853429D01*
X923470Y853471D01*
X923678Y853499D01*
X923858Y853527D01*
X924010Y853540D01*
X924135Y853554D01*
X924316D01*
X924649Y853540D01*
D02*
G37*
G36*
X932373Y844692D02*
Y844498D01*
X932387Y844304D01*
X932401Y843985D01*
X932429Y843708D01*
X932456Y843486D01*
X932498Y843319D01*
X932526Y843195D01*
X932540Y843125D01*
X932553Y843098D01*
X932637Y842917D01*
X932734Y842765D01*
X932845Y842626D01*
X932942Y842515D01*
X933053Y842432D01*
X933122Y842363D01*
X933178Y842321D01*
X933205Y842307D01*
X933386Y842210D01*
X933566Y842141D01*
X933746Y842085D01*
X933926Y842057D01*
X934079Y842030D01*
X934190Y842016D01*
X934301D01*
X934606Y842044D01*
X934870Y842099D01*
X935105Y842182D01*
X935299Y842279D01*
X935452Y842376D01*
X935563Y842460D01*
X935632Y842515D01*
X935660Y842543D01*
X935743Y842654D01*
X935826Y842778D01*
X935896Y842931D01*
X935951Y843084D01*
X936048Y843417D01*
X936118Y843749D01*
X936159Y844054D01*
X936173Y844193D01*
X936187Y844318D01*
Y844415D01*
X936201Y844484D01*
Y844540D01*
Y844554D01*
X937726Y844332D01*
Y843985D01*
X937699Y843666D01*
X937657Y843361D01*
X937615Y843084D01*
X937546Y842820D01*
X937477Y842584D01*
X937394Y842376D01*
X937324Y842182D01*
X937241Y842016D01*
X937158Y841863D01*
X937088Y841738D01*
X937019Y841641D01*
X936964Y841558D01*
X936922Y841503D01*
X936894Y841475D01*
X936880Y841461D01*
X936700Y841295D01*
X936506Y841142D01*
X936312Y841017D01*
X936090Y840906D01*
X935882Y840809D01*
X935660Y840740D01*
X935452Y840670D01*
X935244Y840629D01*
X935050Y840587D01*
X934870Y840560D01*
X934703Y840532D01*
X934564Y840518D01*
X934454Y840504D01*
X934287D01*
X933871Y840518D01*
X933496Y840574D01*
X933164Y840643D01*
X932872Y840740D01*
X932748Y840781D01*
X932637Y840823D01*
X932540Y840851D01*
X932470Y840892D01*
X932401Y840920D01*
X932359Y840948D01*
X932332Y840962D01*
X932318D01*
X932027Y841156D01*
X931763Y841364D01*
X931555Y841586D01*
X931388Y841794D01*
X931250Y841988D01*
X931153Y842154D01*
X931125Y842210D01*
X931097Y842252D01*
X931083Y842279D01*
Y842293D01*
X931014Y842473D01*
X930945Y842654D01*
X930848Y843056D01*
X930778Y843472D01*
X930737Y843874D01*
X930709Y844054D01*
X930695Y844235D01*
Y844387D01*
X930681Y844526D01*
Y844637D01*
Y844720D01*
Y844776D01*
Y844789D01*
Y853513D01*
X932373D01*
Y844692D01*
D02*
G37*
G36*
X258605Y748980D02*
Y748786D01*
X258619Y748592D01*
X258633Y748273D01*
X258661Y747996D01*
X258688Y747774D01*
X258730Y747607D01*
X258758Y747483D01*
X258772Y747413D01*
X258785Y747385D01*
X258869Y747205D01*
X258966Y747053D01*
X259077Y746914D01*
X259174Y746803D01*
X259285Y746720D01*
X259354Y746650D01*
X259410Y746609D01*
X259437Y746595D01*
X259618Y746498D01*
X259798Y746429D01*
X259978Y746373D01*
X260159Y746345D01*
X260311Y746318D01*
X260422Y746304D01*
X260533D01*
X260838Y746331D01*
X261101Y746387D01*
X261337Y746470D01*
X261531Y746567D01*
X261684Y746664D01*
X261795Y746747D01*
X261864Y746803D01*
X261892Y746831D01*
X261975Y746942D01*
X262058Y747066D01*
X262128Y747219D01*
X262183Y747372D01*
X262280Y747704D01*
X262350Y748037D01*
X262391Y748342D01*
X262405Y748481D01*
X262419Y748606D01*
Y748703D01*
X262433Y748772D01*
Y748828D01*
Y748842D01*
X263958Y748620D01*
Y748273D01*
X263931Y747954D01*
X263889Y747649D01*
X263848Y747372D01*
X263778Y747108D01*
X263709Y746872D01*
X263626Y746664D01*
X263556Y746470D01*
X263473Y746304D01*
X263390Y746151D01*
X263321Y746026D01*
X263251Y745929D01*
X263196Y745846D01*
X263154Y745790D01*
X263126Y745763D01*
X263112Y745749D01*
X262932Y745583D01*
X262738Y745430D01*
X262544Y745305D01*
X262322Y745194D01*
X262114Y745097D01*
X261892Y745028D01*
X261684Y744958D01*
X261476Y744917D01*
X261282Y744875D01*
X261101Y744847D01*
X260935Y744820D01*
X260796Y744806D01*
X260686Y744792D01*
X260519D01*
X260103Y744806D01*
X259729Y744861D01*
X259396Y744931D01*
X259104Y745028D01*
X258980Y745069D01*
X258869Y745111D01*
X258772Y745139D01*
X258702Y745180D01*
X258633Y745208D01*
X258591Y745236D01*
X258564Y745250D01*
X258550D01*
X258258Y745444D01*
X257995Y745652D01*
X257787Y745874D01*
X257621Y746082D01*
X257482Y746276D01*
X257385Y746442D01*
X257357Y746498D01*
X257329Y746539D01*
X257315Y746567D01*
Y746581D01*
X257246Y746761D01*
X257177Y746942D01*
X257080Y747344D01*
X257010Y747760D01*
X256969Y748162D01*
X256941Y748342D01*
X256927Y748523D01*
Y748675D01*
X256913Y748814D01*
Y748925D01*
Y749008D01*
Y749063D01*
Y749077D01*
Y757801D01*
X258605D01*
Y748980D01*
D02*
G37*
G36*
X924549Y814125D02*
X924854Y814069D01*
X925145Y814000D01*
X925409Y813903D01*
X925658Y813792D01*
X925880Y813681D01*
X926074Y813556D01*
X926255Y813445D01*
X926421Y813320D01*
X926560Y813210D01*
X926671Y813099D01*
X926768Y813001D01*
X926837Y812918D01*
X926893Y812863D01*
X926920Y812821D01*
X926934Y812807D01*
X927114Y812558D01*
X927253Y812308D01*
X927392Y812045D01*
X927503Y811781D01*
X927600Y811504D01*
X927683Y811240D01*
X927739Y810991D01*
X927794Y810741D01*
X927836Y810519D01*
X927863Y810311D01*
X927891Y810117D01*
X927905Y809964D01*
X927919Y809826D01*
Y809728D01*
Y809673D01*
Y809645D01*
X927905Y809313D01*
X927863Y808994D01*
X927808Y808674D01*
X927725Y808383D01*
X927628Y808106D01*
X927531Y807842D01*
X927420Y807607D01*
X927309Y807385D01*
X927184Y807177D01*
X927073Y807010D01*
X926976Y806844D01*
X926879Y806719D01*
X926796Y806622D01*
X926740Y806539D01*
X926698Y806497D01*
X926685Y806483D01*
X926449Y806248D01*
X926213Y806040D01*
X925963Y805859D01*
X925728Y805707D01*
X925478Y805568D01*
X925242Y805471D01*
X925020Y805374D01*
X924812Y805304D01*
X924604Y805249D01*
X924424Y805207D01*
X924258Y805180D01*
X924119Y805152D01*
X924008D01*
X923925Y805138D01*
X923633D01*
X923439Y805152D01*
X923245Y805166D01*
X923079Y805194D01*
X922912Y805221D01*
X922760Y805249D01*
X922635Y805291D01*
X922510Y805318D01*
X922413Y805346D01*
X922316Y805388D01*
X922247Y805415D01*
X922177Y805443D01*
X922136Y805471D01*
X922094Y805485D01*
X922080Y805499D01*
X922066D01*
Y803252D01*
X926074D01*
X926241Y803238D01*
X926379Y803210D01*
X926504Y803169D01*
X926615Y803099D01*
X926698Y803030D01*
X926782Y802961D01*
X926893Y802781D01*
X926948Y802614D01*
X926990Y802461D01*
X927003Y802406D01*
Y802364D01*
Y802337D01*
Y802323D01*
X926990Y802156D01*
X926962Y802018D01*
X926920Y801893D01*
X926865Y801782D01*
X926782Y801699D01*
X926712Y801616D01*
X926546Y801505D01*
X926366Y801449D01*
X926227Y801407D01*
X926158Y801394D01*
X920250D01*
Y807191D01*
X920264Y807343D01*
X920277Y807468D01*
X920319Y807579D01*
X920374Y807676D01*
X920430Y807759D01*
X920499Y807829D01*
X920638Y807926D01*
X920777Y807995D01*
X920901Y808023D01*
X920999Y808037D01*
X921026D01*
X921151Y808023D01*
X921290Y807981D01*
X921428Y807926D01*
X921553Y807856D01*
X921650Y807787D01*
X921747Y807731D01*
X921803Y807690D01*
X921817Y807676D01*
X921969Y807565D01*
X922136Y807454D01*
X922482Y807302D01*
X922815Y807177D01*
X923148Y807107D01*
X923301Y807080D01*
X923426Y807052D01*
X923550Y807038D01*
X923661D01*
X923745Y807024D01*
X923869D01*
X924036Y807038D01*
X924188Y807052D01*
X924480Y807149D01*
X924743Y807274D01*
X924979Y807412D01*
X925159Y807551D01*
X925298Y807676D01*
X925353Y807731D01*
X925395Y807773D01*
X925409Y807787D01*
X925423Y807801D01*
X925547Y807953D01*
X925644Y808106D01*
X925742Y808259D01*
X925811Y808411D01*
X925936Y808730D01*
X926019Y809007D01*
X926060Y809271D01*
X926088Y809368D01*
Y809465D01*
X926102Y809534D01*
Y809604D01*
Y809632D01*
Y809645D01*
X926074Y810048D01*
X926019Y810408D01*
X925949Y810713D01*
X925853Y810977D01*
X925811Y811088D01*
X925755Y811199D01*
X925714Y811282D01*
X925686Y811351D01*
X925644Y811407D01*
X925631Y811448D01*
X925603Y811462D01*
Y811476D01*
X925506Y811615D01*
X925381Y811726D01*
X925270Y811836D01*
X925145Y811934D01*
X924895Y812072D01*
X924646Y812183D01*
X924424Y812239D01*
X924327Y812266D01*
X924244Y812280D01*
X924174Y812294D01*
X924119Y812308D01*
X924077D01*
X923800Y812294D01*
X923536Y812253D01*
X923287Y812156D01*
X923051Y812031D01*
X922843Y811878D01*
X922649Y811712D01*
X922469Y811518D01*
X922316Y811337D01*
X922177Y811143D01*
X922053Y810949D01*
X921955Y810769D01*
X921872Y810616D01*
X921803Y810477D01*
X921761Y810380D01*
X921733Y810311D01*
X921720Y810283D01*
X921650Y810117D01*
X921539Y810006D01*
X921415Y809923D01*
X921276Y809853D01*
X921165Y809826D01*
X921054Y809812D01*
X920985Y809798D01*
X920957D01*
X920818Y809812D01*
X920693Y809839D01*
X920583Y809881D01*
X920485Y809923D01*
X920402Y809978D01*
X920347Y810020D01*
X920305Y810048D01*
X920291Y810061D01*
X920194Y810158D01*
X920125Y810269D01*
X920069Y810367D01*
X920042Y810477D01*
X920014Y810561D01*
X920000Y810630D01*
Y810686D01*
Y810699D01*
X920014Y810824D01*
X920028Y810921D01*
X920042Y810991D01*
Y811018D01*
X920139Y811282D01*
X920250Y811545D01*
X920374Y811781D01*
X920499Y812003D01*
X920624Y812211D01*
X920763Y812405D01*
X920888Y812585D01*
X921012Y812738D01*
X921123Y812877D01*
X921234Y813001D01*
X921345Y813112D01*
X921428Y813196D01*
X921498Y813265D01*
X921553Y813307D01*
X921581Y813334D01*
X921595Y813348D01*
X921817Y813515D01*
X922039Y813653D01*
X922261Y813764D01*
X922482Y813861D01*
X922704Y813944D01*
X922926Y814014D01*
X923134Y814069D01*
X923328Y814111D01*
X923523Y814139D01*
X923689Y814153D01*
X923841Y814166D01*
X924216D01*
X924549Y814125D01*
D02*
G37*
G36*
X937419Y813972D02*
X937557Y813944D01*
X937696Y813903D01*
X937793Y813834D01*
X937890Y813764D01*
X937960Y813681D01*
X938084Y813515D01*
X938140Y813334D01*
X938182Y813196D01*
X938195Y813126D01*
Y813085D01*
Y813057D01*
Y813043D01*
X938182Y812877D01*
X938154Y812738D01*
X938112Y812599D01*
X938043Y812502D01*
X937973Y812405D01*
X937904Y812336D01*
X937724Y812211D01*
X937557Y812156D01*
X937405Y812114D01*
X937336Y812100D01*
X932690D01*
X932828Y811670D01*
X932981Y811282D01*
X933120Y810949D01*
X933258Y810658D01*
X933327Y810519D01*
X933383Y810408D01*
X933438Y810311D01*
X933494Y810242D01*
X933522Y810172D01*
X933549Y810131D01*
X933577Y810103D01*
Y810089D01*
X933757Y809826D01*
X933952Y809576D01*
X934174Y809340D01*
X934395Y809105D01*
X934853Y808674D01*
X935089Y808480D01*
X935325Y808300D01*
X935533Y808148D01*
X935741Y807995D01*
X935921Y807870D01*
X936074Y807759D01*
X936212Y807676D01*
X936309Y807620D01*
X936365Y807579D01*
X936392Y807565D01*
X936739Y807343D01*
X937030Y807107D01*
X937294Y806844D01*
X937516Y806594D01*
X937710Y806331D01*
X937862Y806053D01*
X937987Y805804D01*
X938098Y805554D01*
X938168Y805318D01*
X938237Y805097D01*
X938279Y804902D01*
X938306Y804722D01*
X938320Y804583D01*
X938334Y804472D01*
Y804417D01*
Y804389D01*
X938320Y804153D01*
X938292Y803918D01*
X938237Y803696D01*
X938168Y803488D01*
X938001Y803113D01*
X937904Y802933D01*
X937807Y802781D01*
X937696Y802642D01*
X937599Y802517D01*
X937516Y802406D01*
X937433Y802309D01*
X937363Y802240D01*
X937308Y802184D01*
X937280Y802156D01*
X937266Y802142D01*
X937100Y801990D01*
X936919Y801851D01*
X936725Y801727D01*
X936531Y801629D01*
X936323Y801546D01*
X936129Y801477D01*
X935727Y801366D01*
X935546Y801324D01*
X935366Y801296D01*
X935214Y801283D01*
X935075Y801269D01*
X934964Y801255D01*
X934562D01*
X934326Y801283D01*
X933882Y801366D01*
X933466Y801491D01*
X933092Y801657D01*
X932759Y801837D01*
X932454Y802059D01*
X932176Y802281D01*
X931941Y802517D01*
X931747Y802767D01*
X931566Y802989D01*
X931428Y803210D01*
X931303Y803391D01*
X931219Y803557D01*
X931164Y803682D01*
X931122Y803765D01*
X931109Y803779D01*
Y803793D01*
X931067Y803932D01*
X931039Y804056D01*
X931025Y804112D01*
Y804140D01*
Y804167D01*
Y804181D01*
X931039Y804320D01*
X931067Y804445D01*
X931109Y804556D01*
X931164Y804653D01*
X931219Y804722D01*
X931261Y804791D01*
X931289Y804819D01*
X931303Y804833D01*
X931414Y804916D01*
X931525Y804972D01*
X931636Y805027D01*
X931733Y805055D01*
X931830Y805069D01*
X931899Y805083D01*
X931954D01*
X932149Y805055D01*
X932315Y804999D01*
X932454Y804902D01*
X932565Y804791D01*
X932648Y804694D01*
X932703Y804597D01*
X932731Y804542D01*
X932745Y804514D01*
X932884Y804237D01*
X933022Y804001D01*
X933175Y803807D01*
X933327Y803640D01*
X933452Y803529D01*
X933549Y803446D01*
X933619Y803391D01*
X933646Y803377D01*
X933813Y803294D01*
X934007Y803238D01*
X934201Y803196D01*
X934409Y803169D01*
X934589Y803155D01*
X934742Y803141D01*
X934881D01*
X935130Y803155D01*
X935338Y803196D01*
X935533Y803266D01*
X935685Y803335D01*
X935810Y803418D01*
X935907Y803474D01*
X935963Y803529D01*
X935976Y803543D01*
X936115Y803696D01*
X936212Y803862D01*
X936282Y804029D01*
X936323Y804181D01*
X936365Y804320D01*
X936379Y804431D01*
Y804500D01*
Y804528D01*
X936365Y804694D01*
X936337Y804861D01*
X936295Y805013D01*
X936240Y805152D01*
X936087Y805402D01*
X935921Y805610D01*
X935741Y805762D01*
X935602Y805887D01*
X935533Y805929D01*
X935491Y805956D01*
X935463Y805984D01*
X935449D01*
X935089Y806206D01*
X934742Y806428D01*
X934423Y806650D01*
X934132Y806872D01*
X933855Y807094D01*
X933605Y807302D01*
X933369Y807510D01*
X933161Y807704D01*
X932981Y807884D01*
X932814Y808051D01*
X932676Y808203D01*
X932565Y808328D01*
X932468Y808439D01*
X932412Y808508D01*
X932371Y808564D01*
X932357Y808577D01*
X932052Y809021D01*
X931774Y809493D01*
X931538Y809937D01*
X931344Y810367D01*
X931275Y810561D01*
X931192Y810741D01*
X931136Y810893D01*
X931081Y811032D01*
X931053Y811143D01*
X931025Y811226D01*
X930998Y811282D01*
Y811296D01*
X930887Y811767D01*
X930776Y812225D01*
X930665Y812682D01*
X930623Y812890D01*
X930582Y813099D01*
X930540Y813279D01*
X930498Y813459D01*
X930471Y813612D01*
X930443Y813736D01*
X930415Y813847D01*
X930401Y813917D01*
X930387Y813972D01*
Y813986D01*
X937252D01*
X937419Y813972D01*
D02*
G37*
G36*
X239077Y831323D02*
X239216Y831295D01*
X239355Y831254D01*
X239452Y831198D01*
X239549Y831129D01*
X239618Y831046D01*
X239743Y830879D01*
X239799Y830713D01*
X239840Y830560D01*
X239854Y830505D01*
Y830463D01*
Y830435D01*
Y830421D01*
Y819493D01*
X239840Y819327D01*
X239812Y819188D01*
X239771Y819063D01*
X239701Y818952D01*
X239632Y818869D01*
X239563Y818786D01*
X239382Y818675D01*
X239216Y818619D01*
X239063Y818578D01*
X238994Y818564D01*
X238911D01*
X238745Y818578D01*
X238606Y818606D01*
X238481Y818647D01*
X238384Y818703D01*
X238287Y818786D01*
X238218Y818855D01*
X238107Y819022D01*
X238051Y819202D01*
X238009Y819341D01*
X237996Y819410D01*
Y819452D01*
Y819479D01*
Y819493D01*
Y830421D01*
X238009Y830588D01*
X238037Y830726D01*
X238079Y830851D01*
X238134Y830948D01*
X238204Y831046D01*
X238287Y831115D01*
X238453Y831226D01*
X238620Y831281D01*
X238772Y831323D01*
X238828Y831337D01*
X238911D01*
X239077Y831323D01*
D02*
G37*
G36*
X924044Y832723D02*
X924350Y832667D01*
X924641Y832598D01*
X924904Y832501D01*
X925154Y832390D01*
X925376Y832279D01*
X925570Y832154D01*
X925750Y832043D01*
X925917Y831918D01*
X926055Y831808D01*
X926166Y831697D01*
X926263Y831600D01*
X926333Y831516D01*
X926388Y831461D01*
X926416Y831419D01*
X926430Y831405D01*
X926610Y831156D01*
X926749Y830906D01*
X926888Y830643D01*
X926998Y830379D01*
X927095Y830102D01*
X927179Y829838D01*
X927234Y829589D01*
X927290Y829339D01*
X927331Y829117D01*
X927359Y828909D01*
X927387Y828715D01*
X927401Y828562D01*
X927414Y828424D01*
Y828327D01*
Y828271D01*
Y828243D01*
X927401Y827911D01*
X927359Y827592D01*
X927303Y827273D01*
X927220Y826981D01*
X927123Y826704D01*
X927026Y826441D01*
X926915Y826205D01*
X926804Y825983D01*
X926680Y825775D01*
X926569Y825608D01*
X926471Y825442D01*
X926374Y825317D01*
X926291Y825220D01*
X926236Y825137D01*
X926194Y825095D01*
X926180Y825081D01*
X925944Y824846D01*
X925709Y824638D01*
X925459Y824457D01*
X925223Y824305D01*
X924974Y824166D01*
X924738Y824069D01*
X924516Y823972D01*
X924308Y823903D01*
X924100Y823847D01*
X923920Y823805D01*
X923753Y823778D01*
X923615Y823750D01*
X923504D01*
X923420Y823736D01*
X923129D01*
X922935Y823750D01*
X922741Y823764D01*
X922574Y823792D01*
X922408Y823819D01*
X922255Y823847D01*
X922131Y823889D01*
X922006Y823916D01*
X921909Y823944D01*
X921812Y823986D01*
X921742Y824014D01*
X921673Y824041D01*
X921631Y824069D01*
X921590Y824083D01*
X921576Y824097D01*
X921562D01*
Y821850D01*
X925570D01*
X925736Y821836D01*
X925875Y821808D01*
X926000Y821767D01*
X926111Y821697D01*
X926194Y821628D01*
X926277Y821559D01*
X926388Y821378D01*
X926444Y821212D01*
X926485Y821059D01*
X926499Y821004D01*
Y820963D01*
Y820935D01*
Y820921D01*
X926485Y820754D01*
X926458Y820616D01*
X926416Y820491D01*
X926360Y820380D01*
X926277Y820297D01*
X926208Y820214D01*
X926041Y820103D01*
X925861Y820047D01*
X925723Y820005D01*
X925653Y819992D01*
X919745D01*
Y825789D01*
X919759Y825941D01*
X919773Y826066D01*
X919815Y826177D01*
X919870Y826274D01*
X919926Y826357D01*
X919995Y826427D01*
X920134Y826524D01*
X920272Y826593D01*
X920397Y826621D01*
X920494Y826635D01*
X920522D01*
X920647Y826621D01*
X920785Y826579D01*
X920924Y826524D01*
X921049Y826454D01*
X921146Y826385D01*
X921243Y826329D01*
X921299Y826288D01*
X921312Y826274D01*
X921465Y826163D01*
X921631Y826052D01*
X921978Y825900D01*
X922311Y825775D01*
X922644Y825705D01*
X922796Y825678D01*
X922921Y825650D01*
X923046Y825636D01*
X923157D01*
X923240Y825622D01*
X923365D01*
X923531Y825636D01*
X923684Y825650D01*
X923975Y825747D01*
X924239Y825872D01*
X924474Y826011D01*
X924655Y826149D01*
X924793Y826274D01*
X924849Y826329D01*
X924890Y826371D01*
X924904Y826385D01*
X924918Y826399D01*
X925043Y826551D01*
X925140Y826704D01*
X925237Y826857D01*
X925306Y827009D01*
X925431Y827328D01*
X925515Y827605D01*
X925556Y827869D01*
X925584Y827966D01*
Y828063D01*
X925598Y828132D01*
Y828202D01*
Y828230D01*
Y828243D01*
X925570Y828646D01*
X925515Y829006D01*
X925445Y829311D01*
X925348Y829575D01*
X925306Y829686D01*
X925251Y829797D01*
X925209Y829880D01*
X925182Y829949D01*
X925140Y830005D01*
X925126Y830046D01*
X925098Y830060D01*
Y830074D01*
X925001Y830213D01*
X924877Y830324D01*
X924766Y830435D01*
X924641Y830532D01*
X924391Y830670D01*
X924141Y830781D01*
X923920Y830837D01*
X923823Y830864D01*
X923739Y830878D01*
X923670Y830892D01*
X923615Y830906D01*
X923573D01*
X923296Y830892D01*
X923032Y830851D01*
X922782Y830754D01*
X922547Y830629D01*
X922339Y830476D01*
X922144Y830310D01*
X921964Y830116D01*
X921812Y829935D01*
X921673Y829741D01*
X921548Y829547D01*
X921451Y829367D01*
X921368Y829214D01*
X921299Y829075D01*
X921257Y828978D01*
X921229Y828909D01*
X921215Y828881D01*
X921146Y828715D01*
X921035Y828604D01*
X920910Y828521D01*
X920771Y828451D01*
X920661Y828424D01*
X920550Y828410D01*
X920480Y828396D01*
X920452D01*
X920314Y828410D01*
X920189Y828438D01*
X920078Y828479D01*
X919981Y828521D01*
X919898Y828576D01*
X919842Y828618D01*
X919801Y828646D01*
X919787Y828659D01*
X919690Y828756D01*
X919620Y828867D01*
X919565Y828964D01*
X919537Y829075D01*
X919510Y829159D01*
X919496Y829228D01*
Y829284D01*
Y829297D01*
X919510Y829422D01*
X919523Y829519D01*
X919537Y829589D01*
Y829616D01*
X919634Y829880D01*
X919745Y830143D01*
X919870Y830379D01*
X919995Y830601D01*
X920120Y830809D01*
X920258Y831003D01*
X920383Y831183D01*
X920508Y831336D01*
X920619Y831475D01*
X920730Y831600D01*
X920841Y831711D01*
X920924Y831794D01*
X920993Y831863D01*
X921049Y831905D01*
X921077Y831932D01*
X921090Y831946D01*
X921312Y832113D01*
X921534Y832251D01*
X921756Y832362D01*
X921978Y832459D01*
X922200Y832543D01*
X922422Y832612D01*
X922630Y832667D01*
X922824Y832709D01*
X923018Y832737D01*
X923185Y832751D01*
X923337Y832765D01*
X923712D01*
X924044Y832723D01*
D02*
G37*
G36*
X931700D02*
X931839Y832695D01*
X931977Y832654D01*
X932074Y832598D01*
X932171Y832529D01*
X932241Y832446D01*
X932365Y832279D01*
X932421Y832113D01*
X932463Y831960D01*
X932476Y831905D01*
Y831863D01*
Y831835D01*
Y831821D01*
Y820893D01*
X932463Y820727D01*
X932435Y820588D01*
X932393Y820463D01*
X932324Y820352D01*
X932254Y820269D01*
X932185Y820186D01*
X932005Y820075D01*
X931839Y820019D01*
X931686Y819978D01*
X931617Y819964D01*
X931533D01*
X931367Y819978D01*
X931228Y820005D01*
X931104Y820047D01*
X931006Y820103D01*
X930909Y820186D01*
X930840Y820255D01*
X930729Y820422D01*
X930674Y820602D01*
X930632Y820741D01*
X930618Y820810D01*
Y820852D01*
Y820879D01*
Y820893D01*
Y831821D01*
X930632Y831988D01*
X930660Y832126D01*
X930701Y832251D01*
X930757Y832348D01*
X930826Y832446D01*
X930909Y832515D01*
X931076Y832626D01*
X931242Y832681D01*
X931395Y832723D01*
X931450Y832737D01*
X931533D01*
X931700Y832723D01*
D02*
G37*
%LPC*%
G36*
X978743Y696276D02*
Y690507D01*
X982779D01*
X978743Y696276D01*
D02*
G37*
%LPD*%
D58*
X249856Y780798D02*
Y831598D01*
X915336D01*
X249856Y780798D02*
X915336D01*
Y831598D01*
X201797Y732740D02*
X252597D01*
Y67260D02*
Y732740D01*
X201797Y67260D02*
Y732740D01*
Y67260D02*
X252597D01*
X912997Y732740D02*
X963797D01*
Y67260D02*
Y732740D01*
X912997Y67260D02*
Y732740D01*
Y67260D02*
X963797D01*
M02*
