M48
;Layer_Color=9474304
;FILE_FORMAT=4:4
METRIC,LZ
;TYPE=PLATED
T1F00S00C0.3000
T2F00S00C0.5000
T3F00S00C0.7500
T4F00S00C0.9000
T5F00S00C0.9500
T6F00S00C1.0000
T7F00S00C1.4000
T8F00S00C3.2000
%
T01
X00096Y00016
X00146
X00196
X00175Y00061302
X001625Y00073802
X00146Y00066
Y00116
X001525Y001375
X001575Y001675
X00146Y00166
X00156998Y00205
X001725
X0019Y002225
X00196Y00166
X001825Y0012886
X00096Y00116
X00046
Y00166
Y00216
X000125Y0014
X00239897Y000625
X003375Y0006
X0035Y0006315
X00346Y00016
X00296
X00315Y000925
X00346Y00116
X003455Y001355
X0033Y001675
X003575Y002
X00389756Y0020516
X003897Y002222
Y002372
X00446Y00216
Y00166
Y00116
Y00066
X00496
X00546
X00596
X00646
X00696
X00746
Y00016
X00696
X00646
X00596
X00546
X00496
X00446
X00396
Y00066
X0039Y000925
X003825Y00085
X003575Y000925
X00796Y00066
X00846
Y00016
X00896
X00895702Y000679
X00975Y00075
X00996Y00116
X01046
Y00066
Y00016
X01096
X01146
Y00066
Y00116
Y00216
X01096
X010245Y00207
X00996Y00216
X009675Y00207002
X0091Y001975
X00896Y002349
X00996Y00166
X01075Y0015426
X00996Y00016
X00796
X01196
X01246
X01296
X01346
X01396
Y00066
X01446
Y00116
Y00166
Y00216
X01396
X013975Y001925
X01396Y00166
Y00116
X01346Y00166
X013275Y001925
X01296Y00166
Y00116
Y00066
X01196Y00116
Y00166
X012605Y001925
X01548Y00146
Y00096
X01598
Y00046
X01648
Y00096
X0169Y00115
Y00141
X01708Y00098
X0174
X01748Y00046
X01698
X01798
X01816Y000535
X01848Y00046
X01852Y000625
X01898Y00046
X01837502Y00127502
X01870499Y00187
X018695Y002
X01872Y002125
X01887Y002325
X01872Y0025
X01698Y00246
X0170355Y00215
X016495Y00211
X016545Y00225
X01651Y00244
X01607Y002225
X01582Y00235
X01593Y00182
X01736722Y001675
X01948Y00196
X019745Y001975
X01948Y00246
X01998Y00146
X020277Y001068
Y000957
X02116Y00096
Y00146
X02171Y001575
Y0016646
X022175Y001575
X02215Y00195
X0219Y00215
X022425
X0228Y0022
X0232Y002225
X02305Y001575
X02263875
X02276Y00096
X02316
Y00046
X02266
X02216
X0217025
X02213Y00096
X02216Y00246
X01948Y00046
X02366
X02381Y00086
X02416Y00096
Y00146
X02351993Y001575
X023725Y002
X02366Y00246
X0238Y0028
X02416Y00296
Y00346
X02366Y00396
X0241Y00445
X0236575Y00496
X0238075Y00536
X0241575Y00546
Y00596
X02351743Y006075
X0237225Y0065
X0230475Y006075
X02263625
X0221725
X0221475Y00645
X0217075Y0061646
Y006075
X0211575Y00596
Y00546
X020282Y005457
Y005568
X019985Y00596
X01975Y006475
X019485Y00646
Y00496
X0199Y00445
X01948Y00396
Y00346
X01998
X020145Y002825
X02116Y00296
Y00346
X0216Y00344
X02172Y00396
X02216
X02266
X02316
X02311Y00342
X02275Y00343
X02276019Y0028
X02229625Y00280375
X022075Y002795
X02172125Y0028
Y00271125
X02333313Y00280313
X0231575Y00496
Y00546
X0227575
X0226575Y00496
X0221575
X0217
X0213Y00445
X0221275Y00546
X018985Y00496
X018485
X018525Y005125
X018165Y005035
X017985Y00496
X017485
X016985
X016485
X015985
Y00546
X015485
Y00596
X015935Y00632
X016905Y00591
Y00565
X017085Y00548
X017405
X01737222Y006175
X01838002Y00577502
X01870999Y00637
X0187Y0065
X01848Y00396
X01798
X01748
X01698
X01648
X01598
Y00346
X01548
Y00296
X01601
X01677Y002925
X0170355Y0032555
X017295Y00302499
X017645Y003125
X01813Y00313
X01829499Y00302499
X01879499Y00265
X01898Y00346
Y00396
X01648Y00346
X0163Y00445
X016485Y00546
X01446Y00566
Y00616
X01396
Y00566
X01352024Y005905
Y006055
X01325Y0064
X012825Y00645
X01267875Y00634877
X0131Y0058
X01346Y00466
X01396
X01446
Y00516
Y00416
Y00366
Y00316
Y00266
X01396Y00316
Y00366
Y00416
X01346Y00316
X01296
X01246
Y00266
X01196
Y00316
Y00366
Y00416
X01152Y0034625
X0109Y003525
Y003375
X01075
X0106
Y003525
X01075
Y003675
X0106
Y003825
X01075
Y003975
X0106
Y004125
X01075
X0109
Y003975
Y003825
Y003675
X01045
X0103
Y003525
Y003375
X01045
Y003525
X01015
Y003375
X01
Y003525
Y003675
X01015
Y003825
X01
Y003975
X01015
X0103
Y003825
X01045
Y003975
Y004125
X0103
X01015
X01
X00996Y00466
Y00516
X010075Y00515
X01055
X010425Y00575
X010305Y00575499
X010255Y00587
X010375Y005875
X010475Y005875
X01075Y005875
X010704Y00575
X01082125Y0057525
X010925Y00575
X01102875
X011025Y005875
X010925
X01007876Y00605976
X00996353Y00596853
X00996Y00617499
X00875Y0060095
X00846Y00616
X00796
X008925Y00452
Y003725
X00896Y00316
Y00266
X00996
X009857Y00285
X00996Y00316
X01046
X01096
X011075Y00285
X01096Y00266
X01146
X01046
X00975Y003728
X01146Y00516
X00746Y00616
X00696
X00646
X00596
X00546
X00496
X004625Y00615
X00396Y00616
Y00566
X003676Y004775
X0039365Y0045
X0041905Y0046
X0045Y004925
X00446Y00416
Y00366
Y00316
Y00266
X00346Y00335
X00319128Y003455
Y0039
X002737Y003988
X002734Y003734
X002675Y004825
X003025Y004925
X00315896Y00568252
X00325Y00615
X00346Y00616
X00296
X00201999Y00626998
X0018Y00584999
X0018Y005575
X00205133Y005525
X0018Y004775
Y00445
X00196Y00316
Y00266
X00146
Y00316
X00095Y0029
Y0028
X00096Y00266
X00046
X00018Y0028
X000125Y0029
X00046Y00316
Y00366
Y00416
Y00466
Y00516
Y00566
Y00616
X00345995Y0042
X003255Y006825
X00315298Y007125
X0032Y00754101
X0034315Y00754102
X00346Y00766
X003Y00775
X002923Y00741196
X00275Y0072905
X00263498Y007327
X0025Y007775
Y00805
X00246Y00816
X00196
Y00766
X002Y007325
X001635Y0072
X001464Y00742746
X00146Y00766
Y00816
X00125Y00852498
X001175Y00859998
X001075Y00864999
X00098499Y008775
X00046Y00816
Y00766
Y00716
Y00666
X0013Y00665
X001275Y0068
Y00690998
X00142998Y00689552
X00355Y006525
X00396Y00666
X00439Y00654902
X00451
X00496Y00666
X00546
X00596
X00646
X00696
X00746
Y00716
X00696
X00646
X00596
X00546
X00496
X004625Y00752529
X004225Y007625
X003775Y0077
X00375Y00725
X00365Y007175
X004075Y007225
X00796Y00716
Y00666
X00896Y00716
X009775Y00715
X0097Y00725
X00970498Y007375
X009825
X00996Y00766
X010275Y0076875
Y00754102
Y00783802
X01046Y00766
X01096
X01118Y0078
X0113
X0114Y007715
X01096Y00816
Y00716
X010305Y00715
X010625Y0066
X00996Y00816
X00946
X009175Y008675
X008875Y0086
X00835Y008525
X007925Y008425
X01196Y00816
Y00766
X01169099Y007675
X0116947Y007575
X011625Y007625
X01155Y007675
X01154783Y007575
X01192846Y00690998
X01233127Y00666375
X01258Y00705
X012825Y00705
X01325
X01320898Y00754102
X0131Y00745
X01296Y00766
X01446
Y00716
Y00666
X01396
Y00716
Y00816
X01346Y00666
X015825Y00685
X016075Y00672499
X01655Y00675
X0165Y00661
X016515Y00694
X016985Y00696
X0170405Y00665
X016775Y007425
X0170405Y0077555
X0173Y00752499
X01765Y007625
X018135Y00763
X01829999Y00752499
X01879999Y00714999
X018725Y007
X018875Y006825
X018725Y006625
X018985Y00796
Y00846
X018485
X017985
X017485
X016985
X016485
X015985
Y00796
X015485
Y00746
X016015
X016485Y00796
X019485
Y00846
X019985Y00796
X02015Y007325
X019485Y00696
X0211575Y00746
Y00796
X0215975Y00794
X0217175Y00846
X0221575
X0226575
X0231575
X0231075Y00792
X0227475Y00793
X02275769Y0073
X02229375Y00730375
X0220725Y007295
X02171875Y0073
Y00721125
X0221575Y00696
X0218975Y00665
X0224225
X0227975Y0067
X0231975Y006725
X02333063Y00730313
X0237975Y0073
X0236575Y00696
X0241575Y00746
Y00796
X0236575Y00846
T02
X012415Y00346
T03
X01190848Y00215025
X01212848
X01234848
X01266848
Y00247026
X01234848
X01212848
X01190848
T04
X00076187Y0012886
X00101587
Y0015426
X00076187
Y0017966
X00101587
Y0020506
X00076187
Y0023046
X00101587
X00214497Y002349
Y002095
Y001841
Y001587
Y001333
Y001079
Y000825
X00239897
Y001079
Y001333
Y001587
Y001841
Y002095
Y002349
X00293496Y0019975
Y0017435
Y0014895
Y0012355
Y0009815
Y0007275
X00925697Y000825
Y001079
Y001333
Y001587
Y001841
Y002095
Y002349
X00951097
Y002095
Y001841
Y001587
Y001333
Y001079
Y000825
X015363Y001692
Y001946
Y0022
Y002454
X015617
Y0022
Y001946
Y001692
X019033
X019287
Y001946
X019033
Y0022
X019287
Y002454
X019033
X020023
Y0022
Y001946
Y001692
X020277
Y001946
Y0022
Y002454
X020998
X021252
Y0022
X020998
Y001946
X021252
Y001692
X020998
X024253Y001692
Y001946
Y0022
Y002454
X024507
Y0022
Y001946
Y001692
Y002708
X024253
X0242505Y006192
Y006446
X0245045
Y006192
X0212495Y006192
Y006446
X0209955
Y006192
X020282
X020028
Y006446
X020282
X020277Y002708
X020023
X020998
X021252
X019287
X019033
X015617
X015622Y006192
Y006446
X019038
Y006192
X019292
Y006446
X015368
Y006192
X015363Y002708
X00951097Y002603
X00925697
Y002857
Y003111
Y003365
Y003619
Y003873
Y004127
Y004381
Y004635
Y004889
Y005143
Y005397
X00951097
Y005651
X00925697
Y005905
X00951097
Y006159
X00925697
Y006413
X00951097
Y005143
Y004889
Y004635
Y004381
Y004127
Y003873
Y003619
Y003365
Y003111
Y002857
X003676Y003698
Y003952
X00239897Y003873
X00214497
Y004127
Y004381
Y004635
Y004889
Y005143
Y005397
X00239897
Y005651
X00214497
Y005905
X00239897
Y006159
X00214497
Y006413
X00239897
Y005143
Y004889
Y004635
Y004381
Y004127
Y003619
X00214497
Y003365
Y003111
Y002857
Y002603
X00239897
Y002857
Y003111
Y003365
Y006667
X00214497
Y006921
X00239897
Y007175
X00214497
X00265096Y00793498
X00290496
X00315896
X00341296
Y00818898
X00315896
X00290496
X00265096
X00289898Y008475
X00315298
X00340698
X00366098
X00366696Y00818898
X00392096
X00417496
X00442896
Y00793498
X00417496
X00392096
X00366696
X00468296
X00493696
X00519096
X00544496
X00569896
X00595296
X00620696
X00646096
X00671496
X00696896
X00722296
X00747696
Y00818898
X00722296
X00696896
X00671496
X00646096
X00620696
X00595296
X00569896
X00544496
X00519096
X00493696
X00468296
X00773096
Y00793498
X00798496
X00823896
X00849296
X00874696
X00900096
Y00818898
X00874696
X00849296
X00823896
X00798496
X0084Y00731102
Y00705702
Y00680302
Y00654902
X00925697Y006667
X00951097
Y006921
X00925697
Y007175
X00951097
X015368Y007208
Y006954
Y0067
X015622
Y006954
Y007208
X019038
Y006954
Y0067
X019292
Y006954
Y007208
X020028
Y006954
Y0067
X020282
Y006954
Y007208
X0209955
X0212495
Y006954
X0209955
Y0067
X0212495
X0242505Y0067
Y006954
Y007208
X0245045
Y006954
Y0067
T05
X0138Y008725
X014125Y008725
T06
X004794Y00086506
Y00111906
Y00137306
Y00162706
Y00188106
Y00213506
Y00238906
X005048
Y00213506
Y00188106
Y00162706
Y00137306
Y00111906
Y00086506
X005302
Y00111906
Y00137306
Y00162706
Y00188106
Y00213506
Y00238906
X005556
Y00213506
Y00188106
Y00162706
Y00137306
Y00111906
Y00086506
X00581
Y00111906
Y00137306
Y00162706
Y00188106
Y00213506
Y00238906
X006064
Y00213506
Y00188106
Y00162706
Y00137306
Y00111906
Y00086506
X006318
Y00111906
Y00137306
Y00162706
Y00188106
Y00213506
Y00238906
X006572
Y00213506
Y00188106
Y00162706
Y00137306
Y00111906
Y00086506
X006826
Y00111906
Y00137306
Y00162706
Y00188106
Y00213506
Y00238906
X00708
Y00213506
Y00188106
Y00162706
Y00137306
Y00111906
Y00086506
X007334
Y00111906
Y00137306
Y00162706
Y00188106
Y00213506
Y00238906
X007588
Y00213506
Y00188106
Y00162706
Y00137306
Y00111906
Y00086506
X007842
Y00111906
Y00137306
Y00162706
Y00188106
Y00213506
Y00238906
X008096
Y00213506
Y00188106
Y00162706
Y00137306
Y00111906
Y00086506
X00835
Y00111906
Y00137306
Y00162706
Y00188106
Y00213506
Y00238906
X008604
Y00213506
Y00188106
Y00162706
Y00137306
Y00111906
Y00086506
X0106Y0017
X0111Y0016
X01215419Y001705
X01315419Y001605
X01952Y00101
X02002Y00091
X020025Y00541
X019525Y00551
X013525Y005475
X013425Y004975
X01352499Y003728
X01342499Y002728
X008604Y00264306
X00835
X008096
X007842
X007588
Y00289706
Y00315106
Y00340506
Y00365906
Y00391306
Y00416706
Y00442106
Y00467506
Y00492906
Y00518306
Y00543706
Y00569106
X007842
Y00543706
Y00518306
Y00492906
Y00467506
Y00442106
Y00416706
Y00391306
Y00365906
Y00340506
Y00315106
Y00289706
X008096
Y00315106
Y00340506
Y00365906
Y00391306
Y00416706
Y00442106
Y00467506
Y00492906
Y00518306
Y00543706
Y00569106
X00835
Y00543706
Y00518306
Y00492906
Y00467506
Y00442106
Y00416706
Y00391306
Y00365906
Y00340506
Y00315106
Y00289706
X008604
Y00315106
Y00340506
Y00365906
Y00391306
Y00416706
Y00442106
Y00467506
Y00492906
Y00518306
Y00543706
Y00569106
X007334
X00708
X006826
X006572
X006318
X006064
X00581
X005556
X005302
X005048
X004794
Y00543706
Y00518306
Y00492906
Y00467506
Y00442106
Y00416706
Y00391306
Y00365906
Y00340506
Y00315106
Y00289706
Y00264306
X005048
Y00289706
Y00315106
Y00340506
Y00365906
Y00391306
Y00416706
Y00442106
Y00467506
Y00492906
Y00518306
Y00543706
X005302
Y00518306
Y00492906
Y00467506
Y00442106
Y00416706
Y00391306
Y00365906
Y00340506
Y00315106
Y00289706
Y00264306
X005556
Y00289706
Y00315106
Y00340506
Y00365906
Y00391306
Y00416706
Y00442106
Y00467506
Y00492906
Y00518306
Y00543706
X00581
Y00518306
Y00492906
Y00467506
Y00442106
Y00416706
Y00391306
Y00365906
Y00340506
Y00315106
Y00289706
Y00264306
X006064
Y00289706
Y00315106
Y00340506
Y00365906
Y00391306
Y00416706
Y00442106
Y00467506
Y00492906
Y00518306
Y00543706
X006318
Y00518306
Y00492906
Y00467506
Y00442106
Y00416706
Y00391306
Y00365906
Y00340506
Y00315106
Y00289706
Y00264306
X006572
Y00289706
Y00315106
Y00340506
Y00365906
Y00391306
Y00416706
Y00442106
Y00467506
Y00492906
Y00518306
Y00543706
X006826
Y00518306
Y00492906
Y00467506
Y00442106
Y00416706
Y00391306
Y00365906
Y00340506
Y00315106
Y00289706
Y00264306
X00708
Y00289706
Y00315106
Y00340506
Y00365906
Y00391306
Y00416706
Y00442106
Y00467506
Y00492906
Y00518306
Y00543706
X007334
Y00518306
Y00492906
Y00467506
Y00442106
Y00416706
Y00391306
Y00365906
Y00340506
Y00315106
Y00289706
Y00264306
X00155Y003525
X00165Y004025
X001535Y005425
X001635Y005925
X00155Y0079
X00165Y0084
X013525Y00811398
X013425Y00711398
T07
X010675Y0008
X011025
X012075
X01242499
X012775
X01312499
X013475
X013825
X0142Y00201601
Y002366
X016945Y0008
X01729499
X017645
X01799499
X018345
X018695
X02188501Y000795
X02223499
X02258501
X02293499
X023285
X023635
X023625Y003595
X0236325Y005295
X0232825
X02293249
X02258251
X0222325
X02188251
X021875Y003595
X022225
X02257501
X022925
X02327501
X018695Y0036
X01834501
X017995
X01764501
X017295
X016945
X01695Y0053
X01729999
X01765
X01799999
X01835
X0187
X0142Y00467499
Y004325
Y00397499
Y00362501
Y003066
Y00271601
X0142Y0063
X0007975Y00617499
Y00582501
Y005475
Y00512501
X0008Y004325
Y00397501
Y003625
Y00327501
X0008Y00719103
Y00754102
Y00789103
X010275Y0081
X010625
X0114Y0081
X01175
X012525
X012875
X0142Y00783802
Y00748802
X0142Y00665
X01695Y0081
X0173
X01765001
X018
X01835001
X0187
X0218725Y008095
X0222225
X02257251
X0229225
X02327251
X0236225
T08
X00035Y00035
X00222798Y00025599
X00942797
X01465Y00035
X01537Y00035
X02027
X021Y00035
X0245Y00035
X0245Y00405
X0244975Y00485
X0209975Y00485
X020275Y00485
X02027Y00405
X021Y00405
X01537Y00405
X015375Y00485
X00222798Y00775599
X00035Y00855
X00942797Y00775599
X01465Y00855
X015375Y00855
X020275
X0209975Y00855
X0244975
M30
