G04 Layer_Color=16711680*
%FSLAX44Y44*%
%MOMM*%
G71*
G01*
G75*
%ADD16C,1.0000*%
%ADD17C,0.3000*%
%ADD58C,0.2000*%
G36*
X2068003Y1087345D02*
X2068253D01*
X2068586Y1087303D01*
X2068961Y1087262D01*
X2069378Y1087178D01*
X2070336Y1087012D01*
X2071419Y1086720D01*
X2072544Y1086303D01*
X2073710Y1085804D01*
X2074335Y1085470D01*
X2074918Y1085096D01*
X2075501Y1084721D01*
X2076084Y1084262D01*
X2076667Y1083763D01*
X2077209Y1083221D01*
X2077751Y1082638D01*
X2078250Y1082013D01*
X2078709Y1081305D01*
X2079125Y1080513D01*
X2079500Y1079722D01*
X2079875Y1078805D01*
X2080167Y1077889D01*
X2080417Y1076848D01*
X2080583Y1075765D01*
X2080708Y1074598D01*
Y1074557D01*
Y1074348D01*
Y1074098D01*
Y1073682D01*
Y1073224D01*
X2080667Y1072682D01*
X2080583Y1072099D01*
X2080500Y1071391D01*
X2080333Y1070683D01*
X2080167Y1069933D01*
X2079958Y1069141D01*
X2079667Y1068308D01*
X2079292Y1067517D01*
X2078875Y1066684D01*
X2078417Y1065850D01*
X2077834Y1065059D01*
X2077792Y1065017D01*
X2077667Y1064851D01*
X2077459Y1064642D01*
X2077167Y1064351D01*
X2076792Y1063976D01*
X2076334Y1063601D01*
X2075793Y1063185D01*
X2075210Y1062768D01*
X2074543Y1062310D01*
X2073752Y1061893D01*
X2072960Y1061518D01*
X2072044Y1061143D01*
X2071086Y1060852D01*
X2070044Y1060643D01*
X2068961Y1060477D01*
X2067795Y1060435D01*
X2044676D01*
X2044467Y1060477D01*
X2044009Y1060602D01*
X2043468Y1060768D01*
X2042926Y1061102D01*
X2042676Y1061310D01*
X2042468Y1061601D01*
X2042260Y1061893D01*
X2042135Y1062268D01*
X2042051Y1062685D01*
X2042010Y1063185D01*
Y1063226D01*
Y1063309D01*
Y1063434D01*
X2042051Y1063643D01*
X2042176Y1064101D01*
X2042385Y1064601D01*
X2042510Y1064851D01*
X2042718Y1065142D01*
X2042968Y1065351D01*
X2043218Y1065559D01*
X2043593Y1065767D01*
X2043968Y1065892D01*
X2044426Y1065975D01*
X2044926Y1066017D01*
X2068170D01*
X2068420Y1066059D01*
X2068711Y1066100D01*
X2069086Y1066184D01*
X2069503Y1066267D01*
X2069961Y1066392D01*
X2070461Y1066517D01*
X2070961Y1066725D01*
X2071502Y1066934D01*
X2072044Y1067225D01*
X2072585Y1067558D01*
X2073127Y1067933D01*
X2073668Y1068391D01*
X2074210Y1068891D01*
Y1068933D01*
X2074252Y1068975D01*
X2074335Y1069100D01*
X2074376Y1069266D01*
X2074460Y1069474D01*
X2074585Y1069725D01*
X2074751Y1070349D01*
X2074960Y1071099D01*
X2075085Y1071974D01*
X2075168Y1072974D01*
Y1074057D01*
Y1074098D01*
Y1074140D01*
X2075126Y1074390D01*
X2075085Y1074765D01*
X2075001Y1075265D01*
X2074835Y1075848D01*
X2074626Y1076514D01*
X2074376Y1077223D01*
X2074043Y1077972D01*
X2073585Y1078680D01*
X2073085Y1079389D01*
X2072460Y1080055D01*
X2071711Y1080638D01*
X2070877Y1081138D01*
X2069878Y1081513D01*
X2068753Y1081763D01*
X2068128Y1081805D01*
X2067462Y1081846D01*
X2044676D01*
X2044467Y1081888D01*
X2044009Y1082013D01*
X2043468Y1082180D01*
X2042926Y1082513D01*
X2042676Y1082721D01*
X2042468Y1083013D01*
X2042260Y1083304D01*
X2042135Y1083679D01*
X2042051Y1084096D01*
X2042010Y1084596D01*
Y1084637D01*
Y1084721D01*
Y1084846D01*
X2042051Y1085054D01*
X2042176Y1085470D01*
X2042385Y1086012D01*
X2042510Y1086262D01*
X2042718Y1086512D01*
X2042968Y1086720D01*
X2043218Y1086970D01*
X2043593Y1087137D01*
X2043968Y1087262D01*
X2044426Y1087345D01*
X2044926Y1087387D01*
X2067753D01*
X2068003Y1087345D01*
D02*
G37*
G36*
X2045467Y1122128D02*
X2045925Y1122003D01*
X2046467Y1121795D01*
X2046717Y1121628D01*
X2047009Y1121420D01*
X2047258Y1121211D01*
X2047467Y1120920D01*
X2047675Y1120545D01*
X2047800Y1120170D01*
X2047883Y1119712D01*
X2047925Y1119170D01*
Y1110172D01*
X2079583D01*
X2079750Y1110131D01*
X2080208Y1110006D01*
X2080750Y1109798D01*
X2081041Y1109673D01*
X2081333Y1109464D01*
X2081583Y1109214D01*
X2081791Y1108964D01*
X2081958Y1108589D01*
X2082124Y1108215D01*
X2082208Y1107756D01*
X2082249Y1107256D01*
Y1107215D01*
Y1107132D01*
Y1107007D01*
X2082208Y1106798D01*
X2082083Y1106340D01*
X2081875Y1105840D01*
X2081708Y1105549D01*
X2081541Y1105299D01*
X2081291Y1105049D01*
X2081000Y1104840D01*
X2080667Y1104632D01*
X2080250Y1104507D01*
X2079792Y1104424D01*
X2079292Y1104382D01*
X2047925D01*
Y1095260D01*
Y1095218D01*
Y1095135D01*
Y1095010D01*
X2047883Y1094801D01*
X2047758Y1094343D01*
X2047550Y1093802D01*
X2047425Y1093552D01*
X2047217Y1093260D01*
X2046967Y1093010D01*
X2046675Y1092802D01*
X2046342Y1092594D01*
X2045967Y1092469D01*
X2045509Y1092385D01*
X2045009Y1092344D01*
X2044717D01*
X2044551Y1092385D01*
X2044093Y1092510D01*
X2043509Y1092719D01*
X2043259Y1092843D01*
X2042968Y1093052D01*
X2042718Y1093302D01*
X2042510Y1093593D01*
X2042343Y1093927D01*
X2042176Y1094302D01*
X2042093Y1094760D01*
X2042051Y1095260D01*
Y1119170D01*
Y1119212D01*
Y1119295D01*
Y1119462D01*
X2042093Y1119628D01*
X2042218Y1120128D01*
X2042426Y1120670D01*
X2042593Y1120961D01*
X2042760Y1121211D01*
X2043009Y1121461D01*
X2043301Y1121711D01*
X2043634Y1121878D01*
X2044051Y1122044D01*
X2044467Y1122128D01*
X2045009Y1122169D01*
X2045259D01*
X2045467Y1122128D01*
D02*
G37*
G36*
X2073168Y1053354D02*
X2073418Y1053312D01*
X2073710Y1053229D01*
X2074001Y1053104D01*
X2074293Y1052937D01*
X2074626Y1052687D01*
X2074668Y1052645D01*
X2074793Y1052562D01*
X2074960Y1052396D01*
X2075168Y1052229D01*
X2075459Y1051979D01*
X2075793Y1051646D01*
X2076501Y1050938D01*
X2077292Y1050105D01*
X2078084Y1049188D01*
X2078792Y1048188D01*
X2079084Y1047688D01*
X2079375Y1047189D01*
Y1047147D01*
X2079417Y1047064D01*
X2079500Y1046939D01*
X2079583Y1046730D01*
X2079667Y1046439D01*
X2079792Y1046147D01*
X2079917Y1045772D01*
X2080042Y1045397D01*
X2080167Y1044939D01*
X2080292Y1044439D01*
X2080500Y1043356D01*
X2080667Y1042106D01*
X2080708Y1040732D01*
Y1040649D01*
Y1040440D01*
X2080667Y1040107D01*
X2080625Y1039649D01*
X2080542Y1039107D01*
X2080417Y1038483D01*
X2080250Y1037774D01*
X2080042Y1037025D01*
X2079750Y1036191D01*
X2079375Y1035358D01*
X2078959Y1034483D01*
X2078417Y1033609D01*
X2077792Y1032734D01*
X2077084Y1031859D01*
X2076251Y1031026D01*
X2075293Y1030235D01*
X2075210Y1030193D01*
X2075043Y1030068D01*
X2074710Y1029860D01*
X2074293Y1029568D01*
X2073752Y1029277D01*
X2073085Y1028902D01*
X2072294Y1028527D01*
X2071419Y1028152D01*
X2070461Y1027777D01*
X2069336Y1027402D01*
X2068170Y1027027D01*
X2066878Y1026736D01*
X2065504Y1026444D01*
X2064046Y1026236D01*
X2062504Y1026111D01*
X2060880Y1026069D01*
X2060213D01*
X2059922Y1026111D01*
X2059630D01*
X2059255Y1026152D01*
X2058422Y1026194D01*
X2057506Y1026319D01*
X2056464Y1026444D01*
X2055298Y1026652D01*
X2054132Y1026902D01*
X2052882Y1027194D01*
X2051632Y1027569D01*
X2050424Y1028027D01*
X2049175Y1028568D01*
X2048008Y1029193D01*
X2046884Y1029901D01*
X2045884Y1030734D01*
X2045842Y1030776D01*
X2045717Y1030901D01*
X2045509Y1031109D01*
X2045217Y1031401D01*
X2044926Y1031776D01*
X2044551Y1032234D01*
X2044176Y1032734D01*
X2043801Y1033317D01*
X2043426Y1033984D01*
X2043051Y1034692D01*
X2042676Y1035442D01*
X2042385Y1036275D01*
X2042093Y1037108D01*
X2041885Y1038024D01*
X2041760Y1038982D01*
X2041718Y1039982D01*
Y1040024D01*
Y1040190D01*
Y1040399D01*
Y1040690D01*
X2041760Y1041023D01*
X2041801Y1041440D01*
X2041843Y1041898D01*
X2041885Y1042398D01*
X2042051Y1043481D01*
X2042260Y1044606D01*
X2042593Y1045689D01*
X2042801Y1046230D01*
X2043009Y1046689D01*
Y1046730D01*
X2043093Y1046814D01*
X2043176Y1046939D01*
X2043259Y1047147D01*
X2043426Y1047397D01*
X2043634Y1047647D01*
X2044134Y1048313D01*
X2044467Y1048646D01*
X2044801Y1049021D01*
X2045217Y1049438D01*
X2045676Y1049813D01*
X2046175Y1050229D01*
X2046675Y1050604D01*
X2047300Y1050979D01*
X2047925Y1051354D01*
X2047966D01*
X2048050Y1051396D01*
X2048175Y1051479D01*
X2048341Y1051562D01*
X2048800Y1051687D01*
X2049299Y1051729D01*
X2049508D01*
X2049716Y1051687D01*
X2049966Y1051604D01*
X2050299Y1051521D01*
X2050632Y1051354D01*
X2050966Y1051146D01*
X2051299Y1050854D01*
X2051341Y1050813D01*
X2051424Y1050688D01*
X2051549Y1050521D01*
X2051674Y1050271D01*
X2051841Y1049979D01*
X2051965Y1049646D01*
X2052049Y1049313D01*
X2052090Y1048896D01*
Y1048813D01*
X2052049Y1048646D01*
X2052007Y1048355D01*
X2051882Y1048022D01*
X2051674Y1047647D01*
X2051424Y1047230D01*
X2051007Y1046855D01*
X2050466Y1046480D01*
X2050383Y1046439D01*
X2050174Y1046314D01*
X2049883Y1046064D01*
X2049508Y1045772D01*
X2049133Y1045397D01*
X2048716Y1044898D01*
X2048341Y1044398D01*
X2048008Y1043773D01*
X2047966Y1043731D01*
X2047925Y1043523D01*
X2047800Y1043231D01*
X2047675Y1042815D01*
X2047592Y1042273D01*
X2047467Y1041648D01*
X2047425Y1040857D01*
X2047383Y1039982D01*
Y1039940D01*
Y1039857D01*
Y1039649D01*
X2047425Y1039441D01*
X2047467Y1039149D01*
X2047550Y1038816D01*
X2047758Y1038066D01*
X2047925Y1037608D01*
X2048091Y1037191D01*
X2048341Y1036691D01*
X2048633Y1036233D01*
X2048966Y1035775D01*
X2049383Y1035317D01*
X2049799Y1034858D01*
X2050341Y1034400D01*
X2050383Y1034359D01*
X2050508Y1034275D01*
X2050716Y1034150D01*
X2051007Y1033984D01*
X2051382Y1033734D01*
X2051841Y1033525D01*
X2052382Y1033276D01*
X2053007Y1033026D01*
X2053715Y1032734D01*
X2054507Y1032484D01*
X2055340Y1032276D01*
X2056298Y1032067D01*
X2057339Y1031859D01*
X2058422Y1031734D01*
X2059630Y1031651D01*
X2060880Y1031609D01*
X2061505D01*
X2061921Y1031651D01*
X2062463Y1031693D01*
X2063088Y1031734D01*
X2063796Y1031817D01*
X2064546Y1031943D01*
X2065337Y1032067D01*
X2066212Y1032234D01*
X2067045Y1032484D01*
X2067920Y1032734D01*
X2068753Y1033026D01*
X2069586Y1033359D01*
X2070419Y1033775D01*
X2071169Y1034233D01*
X2071211Y1034275D01*
X2071336Y1034359D01*
X2071544Y1034483D01*
X2071752Y1034692D01*
X2072085Y1034983D01*
X2072377Y1035275D01*
X2072752Y1035650D01*
X2073085Y1036066D01*
X2073460Y1036483D01*
X2073835Y1037025D01*
X2074126Y1037566D01*
X2074418Y1038149D01*
X2074668Y1038774D01*
X2074876Y1039441D01*
X2075001Y1040107D01*
X2075043Y1040857D01*
Y1040899D01*
Y1041065D01*
X2075001Y1041273D01*
X2074960Y1041565D01*
X2074918Y1041940D01*
X2074835Y1042398D01*
X2074710Y1042856D01*
X2074543Y1043398D01*
X2074335Y1043981D01*
X2074043Y1044564D01*
X2073710Y1045189D01*
X2073335Y1045856D01*
X2072877Y1046480D01*
X2072335Y1047147D01*
X2071711Y1047772D01*
X2071002Y1048397D01*
X2070961Y1048438D01*
X2070836Y1048563D01*
X2070669Y1048730D01*
X2070461Y1048980D01*
X2070294Y1049271D01*
X2070128Y1049605D01*
X2070003Y1050021D01*
X2069961Y1050438D01*
Y1050479D01*
Y1050646D01*
X2070003Y1050854D01*
X2070086Y1051104D01*
X2070169Y1051438D01*
X2070336Y1051771D01*
X2070544Y1052146D01*
X2070836Y1052479D01*
X2070877Y1052521D01*
X2071002Y1052604D01*
X2071169Y1052770D01*
X2071419Y1052937D01*
X2071711Y1053104D01*
X2072044Y1053270D01*
X2072419Y1053354D01*
X2072835Y1053395D01*
X2073002D01*
X2073168Y1053354D01*
D02*
G37*
G36*
X2045301Y996618D02*
X2045592Y996535D01*
X2078209Y987329D01*
X2078250D01*
X2078292Y987287D01*
X2078584Y987204D01*
X2078959Y986954D01*
X2079375Y986662D01*
X2079792Y986204D01*
X2080167Y985621D01*
X2080333Y985246D01*
X2080458Y984871D01*
X2080500Y984413D01*
X2080542Y983913D01*
Y983871D01*
Y983788D01*
Y983663D01*
X2080500Y983455D01*
X2080417Y982997D01*
X2080250Y982455D01*
X2080000Y981872D01*
X2079583Y981289D01*
X2079333Y980997D01*
X2079042Y980789D01*
X2078667Y980581D01*
X2078292Y980414D01*
X2045717Y970083D01*
X2045634D01*
X2045426Y970042D01*
X2045092Y970000D01*
X2044551D01*
X2044342Y970042D01*
X2044093Y970125D01*
X2043759Y970208D01*
X2043426Y970333D01*
X2043093Y970542D01*
X2042801Y970833D01*
X2042760Y970875D01*
X2042676Y971000D01*
X2042551Y971166D01*
X2042385Y971375D01*
X2042260Y971666D01*
X2042135Y972000D01*
X2042051Y972374D01*
X2042010Y972791D01*
Y972833D01*
Y972874D01*
X2042051Y973124D01*
X2042135Y973457D01*
X2042301Y973874D01*
X2042593Y974291D01*
X2042801Y974499D01*
X2043009Y974707D01*
X2043301Y974915D01*
X2043634Y975124D01*
X2044009Y975290D01*
X2044426Y975415D01*
X2071502Y983871D01*
X2043926Y991245D01*
X2043884D01*
X2043843Y991286D01*
X2043634Y991369D01*
X2043301Y991495D01*
X2042968Y991744D01*
X2042635Y992078D01*
X2042301Y992494D01*
X2042093Y993036D01*
X2042010Y993369D01*
Y993702D01*
Y993744D01*
Y993911D01*
X2042051Y994119D01*
X2042093Y994369D01*
X2042218Y994702D01*
X2042343Y995035D01*
X2042551Y995410D01*
X2042801Y995743D01*
X2042843Y995785D01*
X2042926Y995868D01*
X2043134Y996035D01*
X2043343Y996202D01*
X2043634Y996368D01*
X2044009Y996535D01*
X2044384Y996618D01*
X2044842Y996660D01*
X2045092D01*
X2045301Y996618D01*
D02*
G37*
G36*
X2064421Y1021320D02*
X2064879Y1021195D01*
X2065379Y1021029D01*
X2065879Y1020654D01*
X2066129Y1020445D01*
X2066337Y1020154D01*
X2066503Y1019862D01*
X2066628Y1019446D01*
X2066712Y1019029D01*
X2066753Y1018529D01*
Y1005699D01*
Y1005658D01*
Y1005574D01*
Y1005449D01*
X2066712Y1005283D01*
X2066587Y1004824D01*
X2066420Y1004366D01*
X2066087Y1003866D01*
X2065879Y1003616D01*
X2065587Y1003408D01*
X2065295Y1003242D01*
X2064921Y1003117D01*
X2064504Y1003033D01*
X2064004Y1002991D01*
X2063754D01*
X2063546Y1003033D01*
X2063129Y1003117D01*
X2062588Y1003325D01*
X2062088Y1003658D01*
X2061880Y1003866D01*
X2061630Y1004116D01*
X2061463Y1004449D01*
X2061338Y1004824D01*
X2061255Y1005241D01*
X2061213Y1005699D01*
Y1018529D01*
Y1018571D01*
Y1018654D01*
Y1018779D01*
X2061255Y1018987D01*
X2061380Y1019446D01*
X2061546Y1019946D01*
X2061880Y1020487D01*
X2062130Y1020695D01*
X2062379Y1020904D01*
X2062713Y1021112D01*
X2063088Y1021237D01*
X2063504Y1021320D01*
X2064004Y1021362D01*
X2064254D01*
X2064421Y1021320D01*
D02*
G37*
G36*
X1475301Y-208382D02*
X1475592Y-208465D01*
X1508209Y-217671D01*
X1508250D01*
X1508292Y-217713D01*
X1508584Y-217796D01*
X1508959Y-218046D01*
X1509375Y-218338D01*
X1509792Y-218796D01*
X1510167Y-219379D01*
X1510333Y-219754D01*
X1510458Y-220129D01*
X1510500Y-220587D01*
X1510542Y-221087D01*
Y-221129D01*
Y-221212D01*
Y-221337D01*
X1510500Y-221545D01*
X1510417Y-222003D01*
X1510250Y-222545D01*
X1510000Y-223128D01*
X1509583Y-223711D01*
X1509333Y-224003D01*
X1509042Y-224211D01*
X1508667Y-224419D01*
X1508292Y-224586D01*
X1475717Y-234917D01*
X1475634D01*
X1475426Y-234958D01*
X1475092Y-235000D01*
X1474551D01*
X1474342Y-234958D01*
X1474093Y-234875D01*
X1473759Y-234792D01*
X1473426Y-234667D01*
X1473093Y-234459D01*
X1472801Y-234167D01*
X1472760Y-234125D01*
X1472676Y-234000D01*
X1472551Y-233834D01*
X1472385Y-233625D01*
X1472260Y-233334D01*
X1472135Y-233001D01*
X1472051Y-232626D01*
X1472010Y-232209D01*
Y-232167D01*
Y-232126D01*
X1472051Y-231876D01*
X1472135Y-231543D01*
X1472301Y-231126D01*
X1472593Y-230709D01*
X1472801Y-230501D01*
X1473009Y-230293D01*
X1473301Y-230085D01*
X1473634Y-229876D01*
X1474009Y-229710D01*
X1474426Y-229585D01*
X1501502Y-221129D01*
X1473926Y-213755D01*
X1473884D01*
X1473843Y-213714D01*
X1473634Y-213631D01*
X1473301Y-213505D01*
X1472968Y-213256D01*
X1472635Y-212922D01*
X1472301Y-212506D01*
X1472093Y-211964D01*
X1472010Y-211631D01*
Y-211298D01*
Y-211256D01*
Y-211089D01*
X1472051Y-210881D01*
X1472093Y-210631D01*
X1472218Y-210298D01*
X1472343Y-209965D01*
X1472551Y-209590D01*
X1472801Y-209257D01*
X1472843Y-209215D01*
X1472926Y-209132D01*
X1473134Y-208965D01*
X1473343Y-208798D01*
X1473634Y-208632D01*
X1474009Y-208465D01*
X1474384Y-208382D01*
X1474842Y-208340D01*
X1475092D01*
X1475301Y-208382D01*
D02*
G37*
G36*
X1475467Y-82872D02*
X1475925Y-82997D01*
X1476467Y-83205D01*
X1476717Y-83372D01*
X1477009Y-83581D01*
X1477258Y-83789D01*
X1477467Y-84080D01*
X1477675Y-84455D01*
X1477800Y-84830D01*
X1477883Y-85288D01*
X1477925Y-85830D01*
Y-94828D01*
X1509583D01*
X1509750Y-94869D01*
X1510208Y-94994D01*
X1510750Y-95203D01*
X1511041Y-95327D01*
X1511333Y-95536D01*
X1511583Y-95786D01*
X1511791Y-96036D01*
X1511958Y-96411D01*
X1512124Y-96785D01*
X1512208Y-97244D01*
X1512249Y-97744D01*
Y-97785D01*
Y-97868D01*
Y-97993D01*
X1512208Y-98202D01*
X1512083Y-98660D01*
X1511875Y-99160D01*
X1511708Y-99451D01*
X1511541Y-99701D01*
X1511291Y-99951D01*
X1511000Y-100160D01*
X1510667Y-100368D01*
X1510250Y-100493D01*
X1509792Y-100576D01*
X1509292Y-100618D01*
X1477925D01*
Y-109740D01*
Y-109782D01*
Y-109865D01*
Y-109990D01*
X1477883Y-110199D01*
X1477758Y-110657D01*
X1477550Y-111198D01*
X1477425Y-111448D01*
X1477217Y-111740D01*
X1476967Y-111990D01*
X1476675Y-112198D01*
X1476342Y-112406D01*
X1475967Y-112531D01*
X1475509Y-112615D01*
X1475009Y-112656D01*
X1474717D01*
X1474551Y-112615D01*
X1474093Y-112490D01*
X1473509Y-112281D01*
X1473259Y-112156D01*
X1472968Y-111948D01*
X1472718Y-111698D01*
X1472510Y-111407D01*
X1472343Y-111073D01*
X1472176Y-110698D01*
X1472093Y-110240D01*
X1472051Y-109740D01*
Y-85830D01*
Y-85788D01*
Y-85705D01*
Y-85538D01*
X1472093Y-85372D01*
X1472218Y-84872D01*
X1472426Y-84330D01*
X1472593Y-84039D01*
X1472760Y-83789D01*
X1473009Y-83539D01*
X1473301Y-83289D01*
X1473634Y-83122D01*
X1474051Y-82956D01*
X1474467Y-82872D01*
X1475009Y-82831D01*
X1475259D01*
X1475467Y-82872D01*
D02*
G37*
G36*
X2045301Y-203382D02*
X2045592Y-203465D01*
X2078209Y-212671D01*
X2078250D01*
X2078292Y-212713D01*
X2078584Y-212796D01*
X2078959Y-213046D01*
X2079375Y-213338D01*
X2079792Y-213796D01*
X2080167Y-214379D01*
X2080333Y-214754D01*
X2080458Y-215129D01*
X2080500Y-215587D01*
X2080542Y-216087D01*
Y-216129D01*
Y-216212D01*
Y-216337D01*
X2080500Y-216545D01*
X2080417Y-217003D01*
X2080250Y-217545D01*
X2080000Y-218128D01*
X2079583Y-218711D01*
X2079333Y-219003D01*
X2079042Y-219211D01*
X2078667Y-219419D01*
X2078292Y-219586D01*
X2045717Y-229917D01*
X2045634D01*
X2045426Y-229958D01*
X2045092Y-230000D01*
X2044551D01*
X2044342Y-229958D01*
X2044093Y-229875D01*
X2043759Y-229792D01*
X2043426Y-229667D01*
X2043093Y-229459D01*
X2042801Y-229167D01*
X2042760Y-229125D01*
X2042676Y-229000D01*
X2042551Y-228834D01*
X2042385Y-228625D01*
X2042260Y-228334D01*
X2042135Y-228001D01*
X2042051Y-227626D01*
X2042010Y-227209D01*
Y-227167D01*
Y-227126D01*
X2042051Y-226876D01*
X2042135Y-226542D01*
X2042301Y-226126D01*
X2042593Y-225709D01*
X2042801Y-225501D01*
X2043009Y-225293D01*
X2043301Y-225085D01*
X2043634Y-224876D01*
X2044009Y-224710D01*
X2044426Y-224585D01*
X2071502Y-216129D01*
X2043926Y-208755D01*
X2043884D01*
X2043843Y-208714D01*
X2043634Y-208631D01*
X2043301Y-208505D01*
X2042968Y-208256D01*
X2042635Y-207922D01*
X2042301Y-207506D01*
X2042093Y-206964D01*
X2042010Y-206631D01*
Y-206298D01*
Y-206256D01*
Y-206089D01*
X2042051Y-205881D01*
X2042093Y-205631D01*
X2042218Y-205298D01*
X2042343Y-204965D01*
X2042551Y-204590D01*
X2042801Y-204257D01*
X2042843Y-204215D01*
X2042926Y-204132D01*
X2043134Y-203965D01*
X2043343Y-203798D01*
X2043634Y-203632D01*
X2044009Y-203465D01*
X2044384Y-203382D01*
X2044842Y-203340D01*
X2045092D01*
X2045301Y-203382D01*
D02*
G37*
G36*
X1498003Y-117655D02*
X1498253D01*
X1498586Y-117697D01*
X1498961Y-117738D01*
X1499378Y-117822D01*
X1500336Y-117988D01*
X1501419Y-118280D01*
X1502544Y-118696D01*
X1503710Y-119196D01*
X1504335Y-119530D01*
X1504918Y-119904D01*
X1505501Y-120279D01*
X1506084Y-120738D01*
X1506667Y-121237D01*
X1507209Y-121779D01*
X1507751Y-122362D01*
X1508250Y-122987D01*
X1508709Y-123695D01*
X1509125Y-124487D01*
X1509500Y-125278D01*
X1509875Y-126194D01*
X1510167Y-127111D01*
X1510417Y-128152D01*
X1510583Y-129235D01*
X1510708Y-130402D01*
Y-130443D01*
Y-130652D01*
Y-130902D01*
Y-131318D01*
Y-131776D01*
X1510667Y-132318D01*
X1510583Y-132901D01*
X1510500Y-133609D01*
X1510333Y-134318D01*
X1510167Y-135067D01*
X1509958Y-135859D01*
X1509667Y-136692D01*
X1509292Y-137483D01*
X1508875Y-138316D01*
X1508417Y-139150D01*
X1507834Y-139941D01*
X1507792Y-139983D01*
X1507667Y-140149D01*
X1507459Y-140358D01*
X1507167Y-140649D01*
X1506792Y-141024D01*
X1506334Y-141399D01*
X1505793Y-141816D01*
X1505210Y-142232D01*
X1504543Y-142690D01*
X1503752Y-143107D01*
X1502960Y-143482D01*
X1502044Y-143857D01*
X1501086Y-144148D01*
X1500044Y-144357D01*
X1498961Y-144523D01*
X1497795Y-144565D01*
X1474676D01*
X1474467Y-144523D01*
X1474009Y-144398D01*
X1473468Y-144232D01*
X1472926Y-143898D01*
X1472676Y-143690D01*
X1472468Y-143399D01*
X1472260Y-143107D01*
X1472135Y-142732D01*
X1472051Y-142315D01*
X1472010Y-141816D01*
Y-141774D01*
Y-141691D01*
Y-141566D01*
X1472051Y-141357D01*
X1472176Y-140899D01*
X1472385Y-140399D01*
X1472510Y-140149D01*
X1472718Y-139858D01*
X1472968Y-139649D01*
X1473218Y-139441D01*
X1473593Y-139233D01*
X1473968Y-139108D01*
X1474426Y-139025D01*
X1474926Y-138983D01*
X1498170D01*
X1498420Y-138941D01*
X1498711Y-138900D01*
X1499086Y-138816D01*
X1499503Y-138733D01*
X1499961Y-138608D01*
X1500461Y-138483D01*
X1500961Y-138275D01*
X1501502Y-138067D01*
X1502044Y-137775D01*
X1502585Y-137442D01*
X1503127Y-137067D01*
X1503668Y-136608D01*
X1504210Y-136109D01*
Y-136067D01*
X1504252Y-136025D01*
X1504335Y-135900D01*
X1504376Y-135734D01*
X1504460Y-135526D01*
X1504585Y-135275D01*
X1504751Y-134651D01*
X1504960Y-133901D01*
X1505085Y-133026D01*
X1505168Y-132026D01*
Y-130943D01*
Y-130902D01*
Y-130860D01*
X1505126Y-130610D01*
X1505085Y-130235D01*
X1505001Y-129735D01*
X1504835Y-129152D01*
X1504626Y-128486D01*
X1504376Y-127778D01*
X1504043Y-127028D01*
X1503585Y-126320D01*
X1503085Y-125611D01*
X1502460Y-124945D01*
X1501711Y-124362D01*
X1500877Y-123862D01*
X1499878Y-123487D01*
X1498753Y-123237D01*
X1498128Y-123195D01*
X1497462Y-123154D01*
X1474676D01*
X1474467Y-123112D01*
X1474009Y-122987D01*
X1473468Y-122820D01*
X1472926Y-122487D01*
X1472676Y-122279D01*
X1472468Y-121987D01*
X1472260Y-121696D01*
X1472135Y-121321D01*
X1472051Y-120904D01*
X1472010Y-120404D01*
Y-120363D01*
Y-120279D01*
Y-120154D01*
X1472051Y-119946D01*
X1472176Y-119530D01*
X1472385Y-118988D01*
X1472510Y-118738D01*
X1472718Y-118488D01*
X1472968Y-118280D01*
X1473218Y-118030D01*
X1473593Y-117863D01*
X1473968Y-117738D01*
X1474426Y-117655D01*
X1474926Y-117613D01*
X1497753D01*
X1498003Y-117655D01*
D02*
G37*
G36*
X1494421Y-183680D02*
X1494879Y-183805D01*
X1495379Y-183971D01*
X1495879Y-184346D01*
X1496129Y-184555D01*
X1496337Y-184846D01*
X1496503Y-185138D01*
X1496628Y-185554D01*
X1496712Y-185971D01*
X1496753Y-186471D01*
Y-199301D01*
Y-199342D01*
Y-199426D01*
Y-199551D01*
X1496712Y-199717D01*
X1496587Y-200176D01*
X1496420Y-200634D01*
X1496087Y-201134D01*
X1495879Y-201384D01*
X1495587Y-201592D01*
X1495295Y-201758D01*
X1494921Y-201884D01*
X1494504Y-201967D01*
X1494004Y-202008D01*
X1493754D01*
X1493546Y-201967D01*
X1493129Y-201884D01*
X1492588Y-201675D01*
X1492088Y-201342D01*
X1491880Y-201134D01*
X1491630Y-200884D01*
X1491463Y-200550D01*
X1491338Y-200176D01*
X1491255Y-199759D01*
X1491213Y-199301D01*
Y-186471D01*
Y-186429D01*
Y-186346D01*
Y-186221D01*
X1491255Y-186013D01*
X1491380Y-185554D01*
X1491546Y-185054D01*
X1491880Y-184513D01*
X1492130Y-184305D01*
X1492379Y-184096D01*
X1492713Y-183888D01*
X1493088Y-183763D01*
X1493504Y-183680D01*
X1494004Y-183638D01*
X1494254D01*
X1494421Y-183680D01*
D02*
G37*
G36*
X1503168Y-151646D02*
X1503418Y-151688D01*
X1503710Y-151771D01*
X1504001Y-151896D01*
X1504293Y-152063D01*
X1504626Y-152313D01*
X1504668Y-152354D01*
X1504793Y-152438D01*
X1504960Y-152604D01*
X1505168Y-152771D01*
X1505459Y-153021D01*
X1505793Y-153354D01*
X1506501Y-154062D01*
X1507292Y-154895D01*
X1508084Y-155812D01*
X1508792Y-156812D01*
X1509084Y-157312D01*
X1509375Y-157811D01*
Y-157853D01*
X1509417Y-157936D01*
X1509500Y-158061D01*
X1509583Y-158270D01*
X1509667Y-158561D01*
X1509792Y-158853D01*
X1509917Y-159228D01*
X1510042Y-159603D01*
X1510167Y-160061D01*
X1510292Y-160561D01*
X1510500Y-161644D01*
X1510667Y-162894D01*
X1510708Y-164268D01*
Y-164351D01*
Y-164560D01*
X1510667Y-164893D01*
X1510625Y-165351D01*
X1510542Y-165893D01*
X1510417Y-166518D01*
X1510250Y-167226D01*
X1510042Y-167976D01*
X1509750Y-168809D01*
X1509375Y-169642D01*
X1508959Y-170516D01*
X1508417Y-171391D01*
X1507792Y-172266D01*
X1507084Y-173141D01*
X1506251Y-173974D01*
X1505293Y-174765D01*
X1505210Y-174807D01*
X1505043Y-174932D01*
X1504710Y-175140D01*
X1504293Y-175432D01*
X1503752Y-175723D01*
X1503085Y-176098D01*
X1502294Y-176473D01*
X1501419Y-176848D01*
X1500461Y-177223D01*
X1499336Y-177598D01*
X1498170Y-177973D01*
X1496878Y-178265D01*
X1495504Y-178556D01*
X1494046Y-178764D01*
X1492504Y-178889D01*
X1490880Y-178931D01*
X1490213D01*
X1489922Y-178889D01*
X1489630D01*
X1489255Y-178848D01*
X1488422Y-178806D01*
X1487506Y-178681D01*
X1486464Y-178556D01*
X1485298Y-178348D01*
X1484132Y-178098D01*
X1482882Y-177806D01*
X1481632Y-177431D01*
X1480424Y-176973D01*
X1479175Y-176432D01*
X1478008Y-175807D01*
X1476884Y-175099D01*
X1475884Y-174266D01*
X1475842Y-174224D01*
X1475717Y-174099D01*
X1475509Y-173891D01*
X1475217Y-173599D01*
X1474926Y-173224D01*
X1474551Y-172766D01*
X1474176Y-172266D01*
X1473801Y-171683D01*
X1473426Y-171016D01*
X1473051Y-170308D01*
X1472676Y-169558D01*
X1472385Y-168725D01*
X1472093Y-167892D01*
X1471885Y-166976D01*
X1471760Y-166018D01*
X1471718Y-165018D01*
Y-164976D01*
Y-164810D01*
Y-164601D01*
Y-164310D01*
X1471760Y-163976D01*
X1471801Y-163560D01*
X1471843Y-163102D01*
X1471885Y-162602D01*
X1472051Y-161519D01*
X1472260Y-160394D01*
X1472593Y-159311D01*
X1472801Y-158770D01*
X1473009Y-158311D01*
Y-158270D01*
X1473093Y-158186D01*
X1473176Y-158061D01*
X1473259Y-157853D01*
X1473426Y-157603D01*
X1473634Y-157353D01*
X1474134Y-156687D01*
X1474467Y-156354D01*
X1474801Y-155979D01*
X1475217Y-155562D01*
X1475676Y-155187D01*
X1476175Y-154771D01*
X1476675Y-154396D01*
X1477300Y-154021D01*
X1477925Y-153646D01*
X1477966D01*
X1478050Y-153604D01*
X1478175Y-153521D01*
X1478341Y-153438D01*
X1478800Y-153313D01*
X1479299Y-153271D01*
X1479508D01*
X1479716Y-153313D01*
X1479966Y-153396D01*
X1480299Y-153479D01*
X1480632Y-153646D01*
X1480966Y-153854D01*
X1481299Y-154146D01*
X1481341Y-154187D01*
X1481424Y-154312D01*
X1481549Y-154479D01*
X1481674Y-154729D01*
X1481841Y-155021D01*
X1481965Y-155354D01*
X1482049Y-155687D01*
X1482090Y-156103D01*
Y-156187D01*
X1482049Y-156354D01*
X1482007Y-156645D01*
X1481882Y-156978D01*
X1481674Y-157353D01*
X1481424Y-157770D01*
X1481007Y-158145D01*
X1480466Y-158520D01*
X1480383Y-158561D01*
X1480174Y-158686D01*
X1479883Y-158936D01*
X1479508Y-159228D01*
X1479133Y-159603D01*
X1478716Y-160103D01*
X1478341Y-160602D01*
X1478008Y-161227D01*
X1477966Y-161269D01*
X1477925Y-161477D01*
X1477800Y-161769D01*
X1477675Y-162185D01*
X1477592Y-162727D01*
X1477467Y-163352D01*
X1477425Y-164143D01*
X1477383Y-165018D01*
Y-165060D01*
Y-165143D01*
Y-165351D01*
X1477425Y-165560D01*
X1477467Y-165851D01*
X1477550Y-166184D01*
X1477758Y-166934D01*
X1477925Y-167392D01*
X1478091Y-167809D01*
X1478341Y-168309D01*
X1478633Y-168767D01*
X1478966Y-169225D01*
X1479383Y-169683D01*
X1479799Y-170142D01*
X1480341Y-170600D01*
X1480383Y-170641D01*
X1480508Y-170725D01*
X1480716Y-170850D01*
X1481007Y-171016D01*
X1481382Y-171266D01*
X1481841Y-171475D01*
X1482382Y-171724D01*
X1483007Y-171975D01*
X1483715Y-172266D01*
X1484507Y-172516D01*
X1485340Y-172724D01*
X1486298Y-172933D01*
X1487339Y-173141D01*
X1488422Y-173266D01*
X1489630Y-173349D01*
X1490880Y-173391D01*
X1491505D01*
X1491921Y-173349D01*
X1492463Y-173307D01*
X1493088Y-173266D01*
X1493796Y-173183D01*
X1494546Y-173057D01*
X1495337Y-172933D01*
X1496212Y-172766D01*
X1497045Y-172516D01*
X1497920Y-172266D01*
X1498753Y-171975D01*
X1499586Y-171641D01*
X1500419Y-171225D01*
X1501169Y-170767D01*
X1501211Y-170725D01*
X1501336Y-170641D01*
X1501544Y-170516D01*
X1501752Y-170308D01*
X1502085Y-170017D01*
X1502377Y-169725D01*
X1502752Y-169350D01*
X1503085Y-168934D01*
X1503460Y-168517D01*
X1503835Y-167976D01*
X1504126Y-167434D01*
X1504418Y-166851D01*
X1504668Y-166226D01*
X1504876Y-165560D01*
X1505001Y-164893D01*
X1505043Y-164143D01*
Y-164102D01*
Y-163935D01*
X1505001Y-163727D01*
X1504960Y-163435D01*
X1504918Y-163060D01*
X1504835Y-162602D01*
X1504710Y-162144D01*
X1504543Y-161602D01*
X1504335Y-161019D01*
X1504043Y-160436D01*
X1503710Y-159811D01*
X1503335Y-159144D01*
X1502877Y-158520D01*
X1502335Y-157853D01*
X1501711Y-157228D01*
X1501002Y-156603D01*
X1500961Y-156562D01*
X1500836Y-156437D01*
X1500669Y-156270D01*
X1500461Y-156020D01*
X1500294Y-155729D01*
X1500128Y-155395D01*
X1500003Y-154979D01*
X1499961Y-154562D01*
Y-154521D01*
Y-154354D01*
X1500003Y-154146D01*
X1500086Y-153896D01*
X1500169Y-153562D01*
X1500336Y-153229D01*
X1500544Y-152854D01*
X1500836Y-152521D01*
X1500877Y-152479D01*
X1501002Y-152396D01*
X1501169Y-152229D01*
X1501419Y-152063D01*
X1501711Y-151896D01*
X1502044Y-151730D01*
X1502419Y-151646D01*
X1502835Y-151605D01*
X1503002D01*
X1503168Y-151646D01*
D02*
G37*
G36*
X1485467Y1117128D02*
X1485925Y1117003D01*
X1486467Y1116795D01*
X1486717Y1116628D01*
X1487009Y1116420D01*
X1487258Y1116211D01*
X1487467Y1115920D01*
X1487675Y1115545D01*
X1487800Y1115170D01*
X1487883Y1114712D01*
X1487925Y1114170D01*
Y1105172D01*
X1519583D01*
X1519750Y1105131D01*
X1520208Y1105006D01*
X1520750Y1104798D01*
X1521041Y1104673D01*
X1521333Y1104464D01*
X1521583Y1104214D01*
X1521791Y1103964D01*
X1521958Y1103589D01*
X1522124Y1103215D01*
X1522208Y1102756D01*
X1522249Y1102256D01*
Y1102215D01*
Y1102132D01*
Y1102007D01*
X1522208Y1101798D01*
X1522083Y1101340D01*
X1521875Y1100840D01*
X1521708Y1100549D01*
X1521541Y1100299D01*
X1521291Y1100049D01*
X1521000Y1099840D01*
X1520667Y1099632D01*
X1520250Y1099507D01*
X1519792Y1099424D01*
X1519292Y1099382D01*
X1487925D01*
Y1090260D01*
Y1090218D01*
Y1090135D01*
Y1090010D01*
X1487883Y1089801D01*
X1487758Y1089343D01*
X1487550Y1088802D01*
X1487425Y1088552D01*
X1487217Y1088260D01*
X1486967Y1088010D01*
X1486675Y1087802D01*
X1486342Y1087594D01*
X1485967Y1087469D01*
X1485509Y1087385D01*
X1485009Y1087344D01*
X1484717D01*
X1484551Y1087385D01*
X1484093Y1087510D01*
X1483509Y1087719D01*
X1483259Y1087843D01*
X1482968Y1088052D01*
X1482718Y1088302D01*
X1482510Y1088593D01*
X1482343Y1088927D01*
X1482176Y1089302D01*
X1482093Y1089760D01*
X1482051Y1090260D01*
Y1114170D01*
Y1114212D01*
Y1114295D01*
Y1114462D01*
X1482093Y1114628D01*
X1482218Y1115128D01*
X1482426Y1115670D01*
X1482593Y1115961D01*
X1482760Y1116211D01*
X1483009Y1116461D01*
X1483301Y1116711D01*
X1483634Y1116878D01*
X1484051Y1117044D01*
X1484467Y1117128D01*
X1485009Y1117169D01*
X1485259D01*
X1485467Y1117128D01*
D02*
G37*
G36*
X202498Y985972D02*
X202880Y985868D01*
X203296Y985729D01*
X203748Y985451D01*
X203921Y985243D01*
X204095Y985034D01*
X204268Y984757D01*
X204373Y984444D01*
X204442Y984097D01*
X204477Y983680D01*
Y983646D01*
Y983576D01*
Y983472D01*
X204442Y983333D01*
X204338Y982951D01*
X204199Y982534D01*
X203887Y982118D01*
X203713Y981909D01*
X203470Y981736D01*
X203227Y981597D01*
X202880Y981493D01*
X202532Y981423D01*
X202116Y981389D01*
X191387D01*
Y976632D01*
X201664D01*
X201803Y976597D01*
X202185Y976493D01*
X202602Y976354D01*
X203018Y976076D01*
X203227Y975868D01*
X203400Y975659D01*
X203539Y975382D01*
X203643Y975069D01*
X203713Y974722D01*
X203748Y974305D01*
Y974271D01*
Y974201D01*
Y974097D01*
X203713Y973958D01*
X203643Y973576D01*
X203470Y973160D01*
X203192Y972708D01*
X203018Y972535D01*
X202775Y972361D01*
X202532Y972187D01*
X202220Y972083D01*
X201873Y972014D01*
X201456Y971979D01*
X191387D01*
Y964653D01*
X202324D01*
X202498Y964618D01*
X202880Y964514D01*
X203296Y964375D01*
X203748Y964097D01*
X203921Y963889D01*
X204095Y963680D01*
X204268Y963403D01*
X204373Y963090D01*
X204442Y962743D01*
X204477Y962326D01*
Y962292D01*
Y962222D01*
Y962118D01*
X204442Y961979D01*
X204338Y961597D01*
X204199Y961181D01*
X203887Y960729D01*
X203713Y960556D01*
X203470Y960382D01*
X203227Y960208D01*
X202880Y960104D01*
X202532Y960035D01*
X202116Y960000D01*
X186873D01*
Y986007D01*
X202324D01*
X202498Y985972D01*
D02*
G37*
G36*
X75381Y991632D02*
X75798Y991597D01*
X76249Y991527D01*
X76770Y991458D01*
X77326Y991354D01*
X77881Y991215D01*
X78506Y991041D01*
X79131Y990868D01*
X79756Y990625D01*
X80346Y990312D01*
X80971Y990000D01*
X81527Y989618D01*
X82083Y989166D01*
X82117Y989132D01*
X82187Y989062D01*
X82325Y988923D01*
X82499Y988715D01*
X82708Y988472D01*
X82916Y988159D01*
X83159Y987812D01*
X83437Y987430D01*
X83680Y986979D01*
X83923Y986493D01*
X84131Y985937D01*
X84339Y985382D01*
X84513Y984757D01*
X84652Y984097D01*
X84721Y983368D01*
X84756Y982639D01*
Y982604D01*
Y982465D01*
X84721Y982257D01*
Y981979D01*
X84652Y981632D01*
X84582Y981215D01*
X84478Y980798D01*
X84374Y980312D01*
X84200Y979791D01*
X83992Y979271D01*
X83749Y978715D01*
X83437Y978194D01*
X83089Y977639D01*
X82673Y977118D01*
X82187Y976632D01*
X81631Y976146D01*
X81666Y976111D01*
X81770Y976041D01*
X81944Y975937D01*
X82187Y975764D01*
X82464Y975555D01*
X82742Y975278D01*
X83089Y974965D01*
X83402Y974583D01*
X83749Y974132D01*
X84062Y973611D01*
X84339Y973055D01*
X84617Y972396D01*
X84860Y971701D01*
X85034Y970903D01*
X85138Y970069D01*
X85173Y969132D01*
Y969097D01*
Y969028D01*
Y968923D01*
X85138Y968750D01*
Y968542D01*
X85103Y968298D01*
X84999Y967708D01*
X84860Y967014D01*
X84652Y966250D01*
X84305Y965417D01*
X83888Y964583D01*
X83367Y963750D01*
X83055Y963333D01*
X82673Y962917D01*
X82291Y962535D01*
X81874Y962153D01*
X81388Y961805D01*
X80867Y961458D01*
X80312Y961146D01*
X79721Y960868D01*
X79062Y960625D01*
X78367Y960417D01*
X77603Y960278D01*
X76805Y960139D01*
X75937Y960070D01*
X74999Y960035D01*
X64201D01*
Y991666D01*
X75069D01*
X75381Y991632D01*
D02*
G37*
G36*
X22917Y991597D02*
X23264Y991562D01*
X23646Y991493D01*
X24097Y991423D01*
X24548Y991354D01*
X25521Y991041D01*
X25972Y990868D01*
X26458Y990625D01*
X26875Y990382D01*
X27292Y990034D01*
X27639Y989687D01*
X27917Y989270D01*
X27951Y989236D01*
X28021Y989166D01*
X28159Y989027D01*
X28368Y988819D01*
X28576Y988576D01*
X28784Y988298D01*
X29062Y987951D01*
X29305Y987569D01*
X29548Y987118D01*
X29826Y986666D01*
X30034Y986145D01*
X30278Y985555D01*
X30451Y984965D01*
X30590Y984305D01*
X30659Y983646D01*
X30694Y982916D01*
Y982882D01*
Y982743D01*
Y982569D01*
X30659Y982291D01*
X30625Y981979D01*
X30590Y981597D01*
X30521Y981180D01*
X30451Y980764D01*
X30208Y979791D01*
X30034Y979271D01*
X29861Y978784D01*
X29618Y978264D01*
X29340Y977778D01*
X29028Y977291D01*
X28680Y976840D01*
X28646Y976805D01*
X28576Y976736D01*
X28472Y976632D01*
X28298Y976493D01*
X28090Y976319D01*
X27847Y976111D01*
X27534Y975903D01*
X27222Y975694D01*
X26840Y975486D01*
X26389Y975278D01*
X25937Y975069D01*
X25417Y974896D01*
X24861Y974757D01*
X24271Y974653D01*
X23646Y974583D01*
X22951Y974548D01*
X14618D01*
Y961979D01*
Y961944D01*
Y961875D01*
Y961771D01*
X14583Y961597D01*
X14479Y961215D01*
X14340Y960799D01*
X14062Y960347D01*
X13854Y960139D01*
X13646Y959965D01*
X13368Y959792D01*
X13055Y959688D01*
X12708Y959618D01*
X12292Y959583D01*
X12083D01*
X11944Y959618D01*
X11562Y959722D01*
X11146Y959896D01*
X10938Y960000D01*
X10729Y960174D01*
X10521Y960347D01*
X10347Y960590D01*
X10208Y960868D01*
X10104Y961181D01*
X10035Y961562D01*
X10000Y961979D01*
Y991632D01*
X22639D01*
X22917Y991597D01*
D02*
G37*
G36*
X149200Y985937D02*
X149512Y985902D01*
X149894Y985833D01*
X150345Y985764D01*
X150866Y985625D01*
X151422Y985451D01*
X151977Y985208D01*
X152602Y984930D01*
X153227Y984583D01*
X153818Y984166D01*
X154443Y983680D01*
X155068Y983125D01*
X155623Y982465D01*
X156179Y981701D01*
X156214Y981666D01*
X156283Y981527D01*
X156422Y981319D01*
X156561Y981041D01*
X156769Y980659D01*
X156977Y980243D01*
X157186Y979757D01*
X157429Y979201D01*
X157672Y978576D01*
X157880Y977882D01*
X158089Y977153D01*
X158297Y976354D01*
X158436Y975555D01*
X158575Y974687D01*
X158644Y973750D01*
X158679Y972812D01*
Y972743D01*
Y972569D01*
Y972326D01*
X158644Y971944D01*
X158609Y971528D01*
X158540Y971007D01*
X158470Y970417D01*
X158366Y969792D01*
X158227Y969097D01*
X158054Y968368D01*
X157845Y967639D01*
X157568Y966875D01*
X157290Y966111D01*
X156943Y965312D01*
X156526Y964549D01*
X156075Y963819D01*
X156040Y963785D01*
X155936Y963646D01*
X155797Y963438D01*
X155554Y963160D01*
X155276Y962847D01*
X154929Y962465D01*
X154547Y962083D01*
X154095Y961701D01*
X153575Y961285D01*
X153019Y960903D01*
X152429Y960556D01*
X151769Y960208D01*
X151075Y959931D01*
X150345Y959722D01*
X149582Y959583D01*
X148748Y959549D01*
X148540D01*
X148332Y959583D01*
X148019Y959618D01*
X147637Y959688D01*
X147186Y959792D01*
X146700Y959896D01*
X146144Y960104D01*
X145589Y960312D01*
X144998Y960590D01*
X144373Y960938D01*
X143783Y961354D01*
X143158Y961875D01*
X142568Y962430D01*
X141978Y963090D01*
X141422Y963854D01*
X141387Y963889D01*
X141318Y964028D01*
X141179Y964236D01*
X141040Y964549D01*
X140832Y964896D01*
X140623Y965347D01*
X140380Y965833D01*
X140172Y966423D01*
X139929Y967048D01*
X139686Y967743D01*
X139478Y968472D01*
X139269Y969271D01*
X139130Y970104D01*
X138991Y970972D01*
X138922Y971875D01*
X138887Y972812D01*
Y972882D01*
Y973055D01*
X138922Y973298D01*
Y973680D01*
X138957Y974097D01*
X139026Y974618D01*
X139096Y975208D01*
X139235Y975833D01*
X139373Y976493D01*
X139547Y977222D01*
X139755Y977951D01*
X139998Y978715D01*
X140311Y979479D01*
X140658Y980243D01*
X141075Y981007D01*
X141526Y981736D01*
X141561Y981771D01*
X141665Y981909D01*
X141839Y982118D01*
X142047Y982396D01*
X142325Y982708D01*
X142672Y983090D01*
X143089Y983472D01*
X143540Y983854D01*
X144026Y984236D01*
X144582Y984618D01*
X145172Y985000D01*
X145797Y985312D01*
X146491Y985590D01*
X147186Y985798D01*
X147950Y985937D01*
X148748Y985972D01*
X148957D01*
X149200Y985937D01*
D02*
G37*
G36*
X181005Y985972D02*
X181422Y985868D01*
X181873Y985694D01*
X182116Y985590D01*
X182324Y985416D01*
X182533Y985208D01*
X182741Y985000D01*
X182880Y984687D01*
X183019Y984375D01*
X183088Y983993D01*
X183123Y983576D01*
Y983541D01*
Y983472D01*
Y983368D01*
X183088Y983194D01*
X182984Y982812D01*
X182810Y982361D01*
X182672Y982152D01*
X182498Y981909D01*
X182324Y981701D01*
X182081Y981527D01*
X181769Y981354D01*
X181456Y981250D01*
X181074Y981180D01*
X180623Y981146D01*
X175206D01*
Y961979D01*
Y961944D01*
Y961875D01*
Y961771D01*
X175172Y961597D01*
X175067Y961215D01*
X174894Y960764D01*
X174790Y960556D01*
X174616Y960312D01*
X174408Y960104D01*
X174199Y959931D01*
X173887Y959757D01*
X173574Y959653D01*
X173193Y959583D01*
X172776Y959549D01*
X172568D01*
X172394Y959583D01*
X172012Y959688D01*
X171595Y959861D01*
X171352Y959965D01*
X171144Y960139D01*
X170935Y960347D01*
X170762Y960590D01*
X170588Y960868D01*
X170484Y961181D01*
X170415Y961562D01*
X170380Y961979D01*
Y981146D01*
X164686D01*
X164512Y981180D01*
X164130Y981284D01*
X163713Y981458D01*
X163470Y981562D01*
X163262Y981736D01*
X163054Y981944D01*
X162880Y982187D01*
X162707Y982465D01*
X162602Y982777D01*
X162533Y983159D01*
X162498Y983576D01*
Y983611D01*
Y983680D01*
Y983784D01*
X162533Y983958D01*
X162637Y984340D01*
X162811Y984791D01*
X162915Y985034D01*
X163088Y985243D01*
X163262Y985451D01*
X163505Y985625D01*
X163783Y985798D01*
X164095Y985902D01*
X164477Y985972D01*
X164894Y986007D01*
X180866D01*
X181005Y985972D01*
D02*
G37*
G36*
X131179Y991666D02*
X131561Y991562D01*
X131978Y991388D01*
X132186Y991284D01*
X132429Y991111D01*
X132603Y990902D01*
X132776Y990694D01*
X132950Y990382D01*
X133054Y990069D01*
X133124Y989687D01*
X133158Y989270D01*
Y961910D01*
Y961875D01*
Y961805D01*
Y961701D01*
X133124Y961562D01*
X133054Y961181D01*
X132915Y960764D01*
X132672Y960312D01*
X132499Y960139D01*
X132325Y959965D01*
X132082Y959792D01*
X131804Y959688D01*
X131492Y959618D01*
X131144Y959583D01*
X131075D01*
X130901Y959618D01*
X130658Y959653D01*
X130311Y959757D01*
X129929Y959965D01*
X129547Y960208D01*
X129130Y960590D01*
X128922Y960799D01*
X128714Y961076D01*
X114339Y983159D01*
Y961979D01*
Y961944D01*
Y961875D01*
Y961771D01*
X114304Y961597D01*
X114200Y961215D01*
X114061Y960799D01*
X113749Y960347D01*
X113575Y960139D01*
X113332Y959965D01*
X113089Y959792D01*
X112742Y959688D01*
X112395Y959618D01*
X111978Y959583D01*
X111770D01*
X111631Y959618D01*
X111249Y959722D01*
X110832Y959896D01*
X110624Y960000D01*
X110415Y960174D01*
X110207Y960347D01*
X110034Y960590D01*
X109895Y960868D01*
X109790Y961181D01*
X109721Y961562D01*
X109686Y961979D01*
Y989409D01*
Y989444D01*
Y989513D01*
Y989618D01*
X109721Y989757D01*
X109790Y990138D01*
X109964Y990555D01*
X110207Y990972D01*
X110381Y991180D01*
X110589Y991354D01*
X110832Y991493D01*
X111110Y991597D01*
X111422Y991666D01*
X111804Y991701D01*
X111874D01*
X112047Y991666D01*
X112325Y991632D01*
X112638Y991527D01*
X113020Y991354D01*
X113436Y991111D01*
X113853Y990763D01*
X114235Y990277D01*
X128505Y968576D01*
Y989270D01*
Y989305D01*
Y989375D01*
Y989479D01*
X128540Y989652D01*
X128644Y990034D01*
X128783Y990486D01*
X129061Y990937D01*
X129235Y991145D01*
X129478Y991319D01*
X129721Y991493D01*
X130033Y991597D01*
X130380Y991666D01*
X130797Y991701D01*
X131005D01*
X131179Y991666D01*
D02*
G37*
G36*
X1513168Y1048354D02*
X1513418Y1048312D01*
X1513710Y1048229D01*
X1514001Y1048104D01*
X1514293Y1047937D01*
X1514626Y1047687D01*
X1514668Y1047645D01*
X1514793Y1047562D01*
X1514960Y1047396D01*
X1515168Y1047229D01*
X1515459Y1046979D01*
X1515793Y1046646D01*
X1516501Y1045938D01*
X1517292Y1045105D01*
X1518084Y1044188D01*
X1518792Y1043188D01*
X1519084Y1042688D01*
X1519375Y1042189D01*
Y1042147D01*
X1519417Y1042064D01*
X1519500Y1041939D01*
X1519583Y1041730D01*
X1519667Y1041439D01*
X1519792Y1041147D01*
X1519917Y1040772D01*
X1520042Y1040397D01*
X1520167Y1039939D01*
X1520292Y1039439D01*
X1520500Y1038356D01*
X1520667Y1037106D01*
X1520708Y1035732D01*
Y1035649D01*
Y1035440D01*
X1520667Y1035107D01*
X1520625Y1034649D01*
X1520542Y1034107D01*
X1520417Y1033483D01*
X1520250Y1032774D01*
X1520042Y1032025D01*
X1519750Y1031191D01*
X1519375Y1030358D01*
X1518959Y1029483D01*
X1518417Y1028609D01*
X1517792Y1027734D01*
X1517084Y1026859D01*
X1516251Y1026026D01*
X1515293Y1025235D01*
X1515210Y1025193D01*
X1515043Y1025068D01*
X1514710Y1024860D01*
X1514293Y1024568D01*
X1513752Y1024277D01*
X1513085Y1023902D01*
X1512294Y1023527D01*
X1511419Y1023152D01*
X1510461Y1022777D01*
X1509336Y1022402D01*
X1508170Y1022027D01*
X1506878Y1021736D01*
X1505504Y1021444D01*
X1504046Y1021236D01*
X1502504Y1021111D01*
X1500880Y1021069D01*
X1500213D01*
X1499922Y1021111D01*
X1499630D01*
X1499255Y1021152D01*
X1498422Y1021194D01*
X1497506Y1021319D01*
X1496464Y1021444D01*
X1495298Y1021652D01*
X1494132Y1021902D01*
X1492882Y1022194D01*
X1491632Y1022569D01*
X1490424Y1023027D01*
X1489175Y1023568D01*
X1488008Y1024193D01*
X1486884Y1024901D01*
X1485884Y1025734D01*
X1485842Y1025776D01*
X1485717Y1025901D01*
X1485509Y1026109D01*
X1485217Y1026401D01*
X1484926Y1026776D01*
X1484551Y1027234D01*
X1484176Y1027734D01*
X1483801Y1028317D01*
X1483426Y1028984D01*
X1483051Y1029692D01*
X1482676Y1030442D01*
X1482385Y1031275D01*
X1482093Y1032108D01*
X1481885Y1033024D01*
X1481760Y1033982D01*
X1481718Y1034982D01*
Y1035024D01*
Y1035190D01*
Y1035399D01*
Y1035690D01*
X1481760Y1036023D01*
X1481801Y1036440D01*
X1481843Y1036898D01*
X1481885Y1037398D01*
X1482051Y1038481D01*
X1482260Y1039606D01*
X1482593Y1040689D01*
X1482801Y1041230D01*
X1483009Y1041689D01*
Y1041730D01*
X1483093Y1041814D01*
X1483176Y1041939D01*
X1483259Y1042147D01*
X1483426Y1042397D01*
X1483634Y1042647D01*
X1484134Y1043313D01*
X1484467Y1043646D01*
X1484801Y1044021D01*
X1485217Y1044438D01*
X1485676Y1044813D01*
X1486175Y1045229D01*
X1486675Y1045604D01*
X1487300Y1045979D01*
X1487925Y1046354D01*
X1487966D01*
X1488050Y1046396D01*
X1488175Y1046479D01*
X1488341Y1046562D01*
X1488800Y1046687D01*
X1489299Y1046729D01*
X1489508D01*
X1489716Y1046687D01*
X1489966Y1046604D01*
X1490299Y1046521D01*
X1490632Y1046354D01*
X1490966Y1046146D01*
X1491299Y1045854D01*
X1491341Y1045813D01*
X1491424Y1045688D01*
X1491549Y1045521D01*
X1491674Y1045271D01*
X1491841Y1044979D01*
X1491965Y1044646D01*
X1492049Y1044313D01*
X1492090Y1043896D01*
Y1043813D01*
X1492049Y1043646D01*
X1492007Y1043355D01*
X1491882Y1043022D01*
X1491674Y1042647D01*
X1491424Y1042230D01*
X1491007Y1041855D01*
X1490466Y1041480D01*
X1490383Y1041439D01*
X1490174Y1041314D01*
X1489883Y1041064D01*
X1489508Y1040772D01*
X1489133Y1040397D01*
X1488716Y1039898D01*
X1488341Y1039398D01*
X1488008Y1038773D01*
X1487966Y1038731D01*
X1487925Y1038523D01*
X1487800Y1038231D01*
X1487675Y1037815D01*
X1487592Y1037273D01*
X1487467Y1036648D01*
X1487425Y1035857D01*
X1487383Y1034982D01*
Y1034940D01*
Y1034857D01*
Y1034649D01*
X1487425Y1034441D01*
X1487467Y1034149D01*
X1487550Y1033816D01*
X1487758Y1033066D01*
X1487925Y1032608D01*
X1488091Y1032191D01*
X1488341Y1031691D01*
X1488633Y1031233D01*
X1488966Y1030775D01*
X1489383Y1030317D01*
X1489799Y1029858D01*
X1490341Y1029400D01*
X1490383Y1029359D01*
X1490508Y1029275D01*
X1490716Y1029150D01*
X1491007Y1028984D01*
X1491382Y1028734D01*
X1491841Y1028525D01*
X1492382Y1028276D01*
X1493007Y1028026D01*
X1493715Y1027734D01*
X1494507Y1027484D01*
X1495340Y1027276D01*
X1496298Y1027067D01*
X1497339Y1026859D01*
X1498422Y1026734D01*
X1499630Y1026651D01*
X1500880Y1026609D01*
X1501505D01*
X1501921Y1026651D01*
X1502463Y1026693D01*
X1503088Y1026734D01*
X1503796Y1026817D01*
X1504546Y1026943D01*
X1505337Y1027067D01*
X1506212Y1027234D01*
X1507045Y1027484D01*
X1507920Y1027734D01*
X1508753Y1028026D01*
X1509586Y1028359D01*
X1510419Y1028775D01*
X1511169Y1029234D01*
X1511211Y1029275D01*
X1511336Y1029359D01*
X1511544Y1029483D01*
X1511752Y1029692D01*
X1512085Y1029983D01*
X1512377Y1030275D01*
X1512752Y1030650D01*
X1513085Y1031066D01*
X1513460Y1031483D01*
X1513835Y1032025D01*
X1514126Y1032566D01*
X1514418Y1033149D01*
X1514668Y1033774D01*
X1514876Y1034441D01*
X1515001Y1035107D01*
X1515043Y1035857D01*
Y1035899D01*
Y1036065D01*
X1515001Y1036273D01*
X1514960Y1036565D01*
X1514918Y1036940D01*
X1514835Y1037398D01*
X1514710Y1037856D01*
X1514543Y1038398D01*
X1514335Y1038981D01*
X1514043Y1039564D01*
X1513710Y1040189D01*
X1513335Y1040856D01*
X1512877Y1041480D01*
X1512335Y1042147D01*
X1511711Y1042772D01*
X1511002Y1043397D01*
X1510961Y1043438D01*
X1510836Y1043563D01*
X1510669Y1043730D01*
X1510461Y1043980D01*
X1510294Y1044271D01*
X1510128Y1044605D01*
X1510003Y1045021D01*
X1509961Y1045438D01*
Y1045479D01*
Y1045646D01*
X1510003Y1045854D01*
X1510086Y1046104D01*
X1510169Y1046438D01*
X1510336Y1046771D01*
X1510544Y1047146D01*
X1510836Y1047479D01*
X1510877Y1047521D01*
X1511002Y1047604D01*
X1511169Y1047770D01*
X1511419Y1047937D01*
X1511711Y1048104D01*
X1512044Y1048270D01*
X1512419Y1048354D01*
X1512835Y1048395D01*
X1513002D01*
X1513168Y1048354D01*
D02*
G37*
G36*
X1508003Y1082345D02*
X1508253D01*
X1508586Y1082303D01*
X1508961Y1082262D01*
X1509378Y1082178D01*
X1510336Y1082012D01*
X1511419Y1081720D01*
X1512544Y1081304D01*
X1513710Y1080804D01*
X1514335Y1080470D01*
X1514918Y1080096D01*
X1515501Y1079721D01*
X1516084Y1079262D01*
X1516667Y1078763D01*
X1517209Y1078221D01*
X1517751Y1077638D01*
X1518250Y1077013D01*
X1518709Y1076305D01*
X1519125Y1075513D01*
X1519500Y1074722D01*
X1519875Y1073805D01*
X1520167Y1072889D01*
X1520417Y1071848D01*
X1520583Y1070765D01*
X1520708Y1069598D01*
Y1069557D01*
Y1069348D01*
Y1069098D01*
Y1068682D01*
Y1068224D01*
X1520667Y1067682D01*
X1520583Y1067099D01*
X1520500Y1066391D01*
X1520333Y1065683D01*
X1520167Y1064933D01*
X1519958Y1064141D01*
X1519667Y1063308D01*
X1519292Y1062517D01*
X1518875Y1061684D01*
X1518417Y1060851D01*
X1517834Y1060059D01*
X1517792Y1060017D01*
X1517667Y1059851D01*
X1517459Y1059642D01*
X1517167Y1059351D01*
X1516792Y1058976D01*
X1516334Y1058601D01*
X1515793Y1058185D01*
X1515210Y1057768D01*
X1514543Y1057310D01*
X1513752Y1056893D01*
X1512960Y1056518D01*
X1512044Y1056143D01*
X1511086Y1055852D01*
X1510044Y1055643D01*
X1508961Y1055477D01*
X1507795Y1055435D01*
X1484676D01*
X1484467Y1055477D01*
X1484009Y1055602D01*
X1483468Y1055768D01*
X1482926Y1056102D01*
X1482676Y1056310D01*
X1482468Y1056601D01*
X1482260Y1056893D01*
X1482135Y1057268D01*
X1482051Y1057685D01*
X1482010Y1058185D01*
Y1058226D01*
Y1058309D01*
Y1058434D01*
X1482051Y1058643D01*
X1482176Y1059101D01*
X1482385Y1059601D01*
X1482510Y1059851D01*
X1482718Y1060142D01*
X1482968Y1060351D01*
X1483218Y1060559D01*
X1483593Y1060767D01*
X1483968Y1060892D01*
X1484426Y1060975D01*
X1484926Y1061017D01*
X1508170D01*
X1508420Y1061059D01*
X1508711Y1061100D01*
X1509086Y1061184D01*
X1509503Y1061267D01*
X1509961Y1061392D01*
X1510461Y1061517D01*
X1510961Y1061725D01*
X1511502Y1061934D01*
X1512044Y1062225D01*
X1512585Y1062558D01*
X1513127Y1062933D01*
X1513668Y1063391D01*
X1514210Y1063891D01*
Y1063933D01*
X1514252Y1063975D01*
X1514335Y1064100D01*
X1514376Y1064266D01*
X1514460Y1064474D01*
X1514585Y1064725D01*
X1514751Y1065349D01*
X1514960Y1066099D01*
X1515085Y1066974D01*
X1515168Y1067974D01*
Y1069057D01*
Y1069098D01*
Y1069140D01*
X1515126Y1069390D01*
X1515085Y1069765D01*
X1515001Y1070265D01*
X1514835Y1070848D01*
X1514626Y1071514D01*
X1514376Y1072223D01*
X1514043Y1072972D01*
X1513585Y1073680D01*
X1513085Y1074389D01*
X1512460Y1075055D01*
X1511711Y1075638D01*
X1510877Y1076138D01*
X1509878Y1076513D01*
X1508753Y1076763D01*
X1508128Y1076805D01*
X1507462Y1076846D01*
X1484676D01*
X1484467Y1076888D01*
X1484009Y1077013D01*
X1483468Y1077180D01*
X1482926Y1077513D01*
X1482676Y1077721D01*
X1482468Y1078013D01*
X1482260Y1078304D01*
X1482135Y1078679D01*
X1482051Y1079096D01*
X1482010Y1079596D01*
Y1079637D01*
Y1079721D01*
Y1079846D01*
X1482051Y1080054D01*
X1482176Y1080470D01*
X1482385Y1081012D01*
X1482510Y1081262D01*
X1482718Y1081512D01*
X1482968Y1081720D01*
X1483218Y1081970D01*
X1483593Y1082137D01*
X1483968Y1082262D01*
X1484426Y1082345D01*
X1484926Y1082387D01*
X1507753D01*
X1508003Y1082345D01*
D02*
G37*
G36*
X1504421Y1016320D02*
X1504879Y1016195D01*
X1505379Y1016029D01*
X1505879Y1015654D01*
X1506129Y1015445D01*
X1506337Y1015154D01*
X1506503Y1014862D01*
X1506628Y1014446D01*
X1506712Y1014029D01*
X1506753Y1013529D01*
Y1000699D01*
Y1000658D01*
Y1000574D01*
Y1000449D01*
X1506712Y1000283D01*
X1506587Y999824D01*
X1506420Y999366D01*
X1506087Y998866D01*
X1505879Y998616D01*
X1505587Y998408D01*
X1505295Y998242D01*
X1504921Y998117D01*
X1504504Y998033D01*
X1504004Y997992D01*
X1503754D01*
X1503546Y998033D01*
X1503129Y998117D01*
X1502588Y998325D01*
X1502088Y998658D01*
X1501880Y998866D01*
X1501630Y999116D01*
X1501463Y999449D01*
X1501338Y999824D01*
X1501255Y1000241D01*
X1501213Y1000699D01*
Y1013529D01*
Y1013571D01*
Y1013654D01*
Y1013779D01*
X1501255Y1013988D01*
X1501380Y1014446D01*
X1501546Y1014946D01*
X1501880Y1015487D01*
X1502130Y1015695D01*
X1502379Y1015904D01*
X1502713Y1016112D01*
X1503088Y1016237D01*
X1503504Y1016320D01*
X1504004Y1016362D01*
X1504254D01*
X1504421Y1016320D01*
D02*
G37*
G36*
X47951Y991875D02*
X48298Y991840D01*
X48680Y991805D01*
X49097Y991770D01*
X49999Y991632D01*
X50937Y991458D01*
X51840Y991180D01*
X52291Y991007D01*
X52673Y990833D01*
X52708D01*
X52777Y990763D01*
X52881Y990694D01*
X53055Y990625D01*
X53263Y990486D01*
X53472Y990312D01*
X54027Y989895D01*
X54305Y989618D01*
X54618Y989340D01*
X54965Y988993D01*
X55277Y988611D01*
X55624Y988194D01*
X55937Y987777D01*
X56249Y987257D01*
X56562Y986736D01*
Y986701D01*
X56597Y986632D01*
X56666Y986527D01*
X56736Y986389D01*
X56840Y986007D01*
X56874Y985590D01*
Y985555D01*
Y985416D01*
X56840Y985243D01*
X56770Y985034D01*
X56701Y984757D01*
X56562Y984479D01*
X56388Y984201D01*
X56145Y983923D01*
X56111Y983889D01*
X56006Y983819D01*
X55868Y983715D01*
X55659Y983611D01*
X55416Y983472D01*
X55138Y983368D01*
X54861Y983298D01*
X54513Y983264D01*
X54444D01*
X54305Y983298D01*
X54062Y983333D01*
X53784Y983437D01*
X53472Y983611D01*
X53124Y983819D01*
X52812Y984166D01*
X52499Y984618D01*
X52465Y984687D01*
X52361Y984861D01*
X52152Y985104D01*
X51909Y985416D01*
X51597Y985729D01*
X51180Y986076D01*
X50763Y986389D01*
X50243Y986666D01*
X50208Y986701D01*
X50034Y986736D01*
X49791Y986840D01*
X49444Y986944D01*
X48993Y987014D01*
X48472Y987118D01*
X47812Y987152D01*
X47083Y987187D01*
X46805D01*
X46631Y987152D01*
X46389Y987118D01*
X46111Y987048D01*
X45486Y986875D01*
X45104Y986736D01*
X44756Y986597D01*
X44340Y986389D01*
X43958Y986145D01*
X43576Y985868D01*
X43194Y985520D01*
X42812Y985173D01*
X42430Y984722D01*
X42395Y984687D01*
X42326Y984583D01*
X42222Y984409D01*
X42083Y984166D01*
X41875Y983854D01*
X41701Y983472D01*
X41493Y983021D01*
X41284Y982500D01*
X41041Y981909D01*
X40833Y981250D01*
X40659Y980555D01*
X40486Y979757D01*
X40312Y978889D01*
X40208Y977986D01*
X40139Y976979D01*
X40104Y975937D01*
Y975868D01*
Y975694D01*
Y975416D01*
X40139Y975069D01*
X40173Y974618D01*
X40208Y974097D01*
X40277Y973507D01*
X40382Y972882D01*
X40486Y972222D01*
X40625Y971493D01*
X40833Y970798D01*
X41041Y970069D01*
X41284Y969375D01*
X41562Y968680D01*
X41909Y967986D01*
X42291Y967361D01*
X42326Y967326D01*
X42395Y967222D01*
X42500Y967048D01*
X42673Y966875D01*
X42916Y966597D01*
X43159Y966354D01*
X43472Y966042D01*
X43819Y965764D01*
X44166Y965451D01*
X44618Y965139D01*
X45069Y964896D01*
X45555Y964653D01*
X46076Y964444D01*
X46631Y964271D01*
X47187Y964167D01*
X47812Y964132D01*
X47986D01*
X48159Y964167D01*
X48402Y964201D01*
X48715Y964236D01*
X49097Y964305D01*
X49479Y964410D01*
X49930Y964549D01*
X50416Y964722D01*
X50902Y964965D01*
X51423Y965243D01*
X51979Y965555D01*
X52499Y965937D01*
X53055Y966389D01*
X53576Y966910D01*
X54097Y967500D01*
X54131Y967535D01*
X54236Y967639D01*
X54374Y967778D01*
X54583Y967951D01*
X54826Y968090D01*
X55104Y968229D01*
X55451Y968333D01*
X55798Y968368D01*
X55972D01*
X56145Y968333D01*
X56354Y968264D01*
X56631Y968194D01*
X56909Y968055D01*
X57222Y967882D01*
X57499Y967639D01*
X57534Y967604D01*
X57604Y967500D01*
X57743Y967361D01*
X57881Y967153D01*
X58020Y966910D01*
X58159Y966632D01*
X58229Y966319D01*
X58263Y965972D01*
Y965937D01*
Y965833D01*
X58229Y965694D01*
X58194Y965486D01*
X58124Y965243D01*
X58020Y965000D01*
X57881Y964757D01*
X57673Y964479D01*
X57638Y964444D01*
X57569Y964340D01*
X57430Y964201D01*
X57291Y964028D01*
X57083Y963785D01*
X56805Y963507D01*
X56215Y962917D01*
X55520Y962257D01*
X54756Y961597D01*
X53923Y961007D01*
X53506Y960764D01*
X53090Y960521D01*
X53055D01*
X52986Y960486D01*
X52881Y960417D01*
X52708Y960347D01*
X52465Y960278D01*
X52222Y960174D01*
X51909Y960070D01*
X51597Y959965D01*
X51215Y959861D01*
X50798Y959757D01*
X49895Y959583D01*
X48854Y959445D01*
X47708Y959410D01*
X47465D01*
X47187Y959445D01*
X46805Y959479D01*
X46354Y959549D01*
X45833Y959653D01*
X45243Y959792D01*
X44618Y959965D01*
X43923Y960208D01*
X43229Y960521D01*
X42500Y960868D01*
X41771Y961319D01*
X41041Y961840D01*
X40312Y962430D01*
X39618Y963125D01*
X38958Y963924D01*
X38923Y963993D01*
X38819Y964132D01*
X38646Y964410D01*
X38402Y964757D01*
X38159Y965208D01*
X37847Y965764D01*
X37534Y966423D01*
X37222Y967153D01*
X36909Y967951D01*
X36597Y968889D01*
X36284Y969861D01*
X36041Y970937D01*
X35798Y972083D01*
X35625Y973298D01*
X35521Y974583D01*
X35486Y975937D01*
Y975972D01*
Y976041D01*
Y976146D01*
Y976284D01*
Y976493D01*
X35521Y976736D01*
Y976979D01*
X35555Y977291D01*
X35590Y977986D01*
X35694Y978750D01*
X35798Y979618D01*
X35972Y980590D01*
X36180Y981562D01*
X36423Y982604D01*
X36736Y983646D01*
X37118Y984652D01*
X37569Y985694D01*
X38090Y986666D01*
X38680Y987604D01*
X39375Y988437D01*
X39409Y988472D01*
X39513Y988576D01*
X39687Y988750D01*
X39930Y988993D01*
X40243Y989236D01*
X40625Y989548D01*
X41041Y989861D01*
X41527Y990173D01*
X42083Y990486D01*
X42673Y990798D01*
X43298Y991111D01*
X43993Y991354D01*
X44687Y991597D01*
X45451Y991770D01*
X46250Y991875D01*
X47083Y991909D01*
X47673D01*
X47951Y991875D01*
D02*
G37*
G36*
X1485301Y991618D02*
X1485592Y991535D01*
X1518209Y982329D01*
X1518250D01*
X1518292Y982287D01*
X1518584Y982204D01*
X1518959Y981954D01*
X1519375Y981662D01*
X1519792Y981204D01*
X1520167Y980621D01*
X1520333Y980246D01*
X1520458Y979871D01*
X1520500Y979413D01*
X1520542Y978913D01*
Y978871D01*
Y978788D01*
Y978663D01*
X1520500Y978455D01*
X1520417Y977997D01*
X1520250Y977455D01*
X1520000Y976872D01*
X1519583Y976289D01*
X1519333Y975997D01*
X1519042Y975789D01*
X1518667Y975581D01*
X1518292Y975414D01*
X1485717Y965083D01*
X1485634D01*
X1485426Y965042D01*
X1485092Y965000D01*
X1484551D01*
X1484342Y965042D01*
X1484093Y965125D01*
X1483759Y965208D01*
X1483426Y965333D01*
X1483093Y965542D01*
X1482801Y965833D01*
X1482760Y965875D01*
X1482676Y966000D01*
X1482551Y966166D01*
X1482385Y966375D01*
X1482260Y966666D01*
X1482135Y967000D01*
X1482051Y967374D01*
X1482010Y967791D01*
Y967833D01*
Y967874D01*
X1482051Y968124D01*
X1482135Y968457D01*
X1482301Y968874D01*
X1482593Y969291D01*
X1482801Y969499D01*
X1483009Y969707D01*
X1483301Y969915D01*
X1483634Y970124D01*
X1484009Y970290D01*
X1484426Y970415D01*
X1511502Y978871D01*
X1483926Y986245D01*
X1483884D01*
X1483843Y986286D01*
X1483634Y986369D01*
X1483301Y986495D01*
X1482968Y986744D01*
X1482635Y987078D01*
X1482301Y987494D01*
X1482093Y988036D01*
X1482010Y988369D01*
Y988702D01*
Y988744D01*
Y988911D01*
X1482051Y989119D01*
X1482093Y989369D01*
X1482218Y989702D01*
X1482343Y990035D01*
X1482551Y990410D01*
X1482801Y990743D01*
X1482843Y990785D01*
X1482926Y990868D01*
X1483134Y991035D01*
X1483343Y991202D01*
X1483634Y991368D01*
X1484009Y991535D01*
X1484384Y991618D01*
X1484842Y991660D01*
X1485092D01*
X1485301Y991618D01*
D02*
G37*
G36*
X2064421Y-178680D02*
X2064879Y-178805D01*
X2065379Y-178971D01*
X2065879Y-179346D01*
X2066129Y-179555D01*
X2066337Y-179846D01*
X2066503Y-180138D01*
X2066628Y-180554D01*
X2066712Y-180971D01*
X2066753Y-181471D01*
Y-194301D01*
Y-194342D01*
Y-194426D01*
Y-194551D01*
X2066712Y-194717D01*
X2066587Y-195176D01*
X2066420Y-195634D01*
X2066087Y-196134D01*
X2065879Y-196384D01*
X2065587Y-196592D01*
X2065295Y-196758D01*
X2064921Y-196884D01*
X2064504Y-196967D01*
X2064004Y-197008D01*
X2063754D01*
X2063546Y-196967D01*
X2063129Y-196884D01*
X2062588Y-196675D01*
X2062088Y-196342D01*
X2061880Y-196134D01*
X2061630Y-195884D01*
X2061463Y-195550D01*
X2061338Y-195176D01*
X2061255Y-194759D01*
X2061213Y-194301D01*
Y-181471D01*
Y-181429D01*
Y-181346D01*
Y-181221D01*
X2061255Y-181012D01*
X2061380Y-180554D01*
X2061546Y-180054D01*
X2061880Y-179513D01*
X2062130Y-179305D01*
X2062379Y-179096D01*
X2062713Y-178888D01*
X2063088Y-178763D01*
X2063504Y-178680D01*
X2064004Y-178638D01*
X2064254D01*
X2064421Y-178680D01*
D02*
G37*
G36*
X-205881Y912949D02*
X-205631Y912907D01*
X-205298Y912782D01*
X-204965Y912657D01*
X-204590Y912449D01*
X-204257Y912199D01*
X-204215Y912157D01*
X-204132Y912074D01*
X-203965Y911865D01*
X-203798Y911657D01*
X-203632Y911366D01*
X-203465Y910991D01*
X-203382Y910616D01*
X-203340Y910158D01*
Y910074D01*
Y909908D01*
X-203382Y909699D01*
X-203465Y909408D01*
X-212671Y876791D01*
Y876749D01*
X-212713Y876708D01*
X-212796Y876416D01*
X-213046Y876041D01*
X-213338Y875625D01*
X-213796Y875208D01*
X-214379Y874833D01*
X-214754Y874667D01*
X-215129Y874542D01*
X-215587Y874500D01*
X-216087Y874458D01*
X-216337D01*
X-216545Y874500D01*
X-217003Y874583D01*
X-217545Y874750D01*
X-218128Y875000D01*
X-218711Y875416D01*
X-219003Y875667D01*
X-219211Y875958D01*
X-219419Y876333D01*
X-219586Y876708D01*
X-229917Y909283D01*
Y909324D01*
Y909366D01*
X-229958Y909575D01*
X-230000Y909908D01*
Y910241D01*
Y910283D01*
Y910449D01*
X-229958Y910658D01*
X-229875Y910907D01*
X-229792Y911241D01*
X-229667Y911574D01*
X-229459Y911907D01*
X-229167Y912199D01*
X-229125Y912240D01*
X-229000Y912324D01*
X-228834Y912449D01*
X-228625Y912615D01*
X-228334Y912740D01*
X-228001Y912865D01*
X-227626Y912949D01*
X-227209Y912990D01*
X-227126D01*
X-226876Y912949D01*
X-226542Y912865D01*
X-226126Y912699D01*
X-225709Y912407D01*
X-225501Y912199D01*
X-225293Y911991D01*
X-225085Y911699D01*
X-224876Y911366D01*
X-224710Y910991D01*
X-224585Y910574D01*
X-216129Y883498D01*
X-208755Y911074D01*
Y911116D01*
X-208714Y911157D01*
X-208631Y911366D01*
X-208505Y911699D01*
X-208256Y912032D01*
X-207922Y912365D01*
X-207506Y912699D01*
X-206964Y912907D01*
X-206631Y912990D01*
X-206089D01*
X-205881Y912949D01*
D02*
G37*
G36*
X-181012Y893745D02*
X-180554Y893620D01*
X-180054Y893454D01*
X-179513Y893120D01*
X-179305Y892870D01*
X-179096Y892620D01*
X-178888Y892287D01*
X-178763Y891912D01*
X-178680Y891496D01*
X-178638Y890996D01*
Y890954D01*
Y890871D01*
Y890746D01*
X-178680Y890579D01*
X-178805Y890121D01*
X-178971Y889621D01*
X-179346Y889121D01*
X-179555Y888871D01*
X-179846Y888663D01*
X-180138Y888496D01*
X-180554Y888372D01*
X-180971Y888288D01*
X-181471Y888247D01*
X-194551D01*
X-194717Y888288D01*
X-195176Y888413D01*
X-195634Y888580D01*
X-196134Y888913D01*
X-196384Y889121D01*
X-196592Y889413D01*
X-196758Y889705D01*
X-196884Y890079D01*
X-196967Y890496D01*
X-197008Y890996D01*
Y891038D01*
Y891121D01*
Y891246D01*
X-196967Y891454D01*
X-196884Y891871D01*
X-196675Y892412D01*
X-196342Y892912D01*
X-196134Y893120D01*
X-195884Y893370D01*
X-195550Y893537D01*
X-195176Y893662D01*
X-194759Y893745D01*
X-194301Y893787D01*
X-181221D01*
X-181012Y893745D01*
D02*
G37*
G36*
X-114946Y912949D02*
X-114530Y912824D01*
X-113988Y912615D01*
X-113738Y912490D01*
X-113488Y912282D01*
X-113280Y912032D01*
X-113030Y911782D01*
X-112863Y911407D01*
X-112738Y911032D01*
X-112655Y910574D01*
X-112613Y910074D01*
Y887538D01*
Y887497D01*
Y887413D01*
Y887247D01*
X-112655Y886997D01*
Y886747D01*
X-112697Y886414D01*
X-112738Y886039D01*
X-112822Y885622D01*
X-112988Y884664D01*
X-113280Y883581D01*
X-113696Y882456D01*
X-114196Y881290D01*
X-114530Y880665D01*
X-114904Y880082D01*
X-115279Y879499D01*
X-115738Y878916D01*
X-116237Y878333D01*
X-116779Y877791D01*
X-117362Y877249D01*
X-117987Y876749D01*
X-118695Y876291D01*
X-119487Y875875D01*
X-120278Y875500D01*
X-121194Y875125D01*
X-122111Y874833D01*
X-123152Y874583D01*
X-124235Y874417D01*
X-125402Y874292D01*
X-126776D01*
X-127318Y874333D01*
X-127901Y874417D01*
X-128609Y874500D01*
X-129317Y874667D01*
X-130067Y874833D01*
X-130859Y875042D01*
X-131692Y875333D01*
X-132483Y875708D01*
X-133316Y876125D01*
X-134150Y876583D01*
X-134941Y877166D01*
X-134983Y877208D01*
X-135149Y877333D01*
X-135358Y877541D01*
X-135649Y877833D01*
X-136024Y878207D01*
X-136399Y878666D01*
X-136816Y879207D01*
X-137232Y879790D01*
X-137690Y880457D01*
X-138107Y881248D01*
X-138482Y882040D01*
X-138857Y882956D01*
X-139148Y883914D01*
X-139356Y884956D01*
X-139523Y886039D01*
X-139565Y887205D01*
Y910074D01*
Y910116D01*
Y910199D01*
Y910324D01*
X-139523Y910533D01*
X-139398Y910991D01*
X-139232Y911532D01*
X-138898Y912074D01*
X-138690Y912324D01*
X-138399Y912532D01*
X-138107Y912740D01*
X-137732Y912865D01*
X-137315Y912949D01*
X-136816Y912990D01*
X-136566D01*
X-136357Y912949D01*
X-135899Y912824D01*
X-135399Y912615D01*
X-135149Y912490D01*
X-134858Y912282D01*
X-134649Y912032D01*
X-134441Y911782D01*
X-134233Y911407D01*
X-134108Y911032D01*
X-134025Y910574D01*
X-133983Y910074D01*
Y887205D01*
Y887163D01*
Y887039D01*
Y886830D01*
X-133941Y886580D01*
X-133900Y886289D01*
X-133816Y885914D01*
X-133733Y885497D01*
X-133608Y885039D01*
X-133483Y884539D01*
X-133275Y884039D01*
X-133067Y883498D01*
X-132775Y882956D01*
X-132442Y882415D01*
X-132067Y881873D01*
X-131608Y881332D01*
X-131109Y880790D01*
X-131067D01*
X-131025Y880749D01*
X-130900Y880665D01*
X-130734Y880623D01*
X-130526Y880540D01*
X-130275Y880415D01*
X-129651Y880249D01*
X-128901Y880040D01*
X-128026Y879915D01*
X-127026Y879832D01*
X-125860D01*
X-125610Y879874D01*
X-125235Y879915D01*
X-124735Y879999D01*
X-124152Y880165D01*
X-123486Y880374D01*
X-122778Y880623D01*
X-122028Y880957D01*
X-121320Y881415D01*
X-120611Y881915D01*
X-119945Y882540D01*
X-119362Y883289D01*
X-118862Y884123D01*
X-118487Y885122D01*
X-118237Y886247D01*
X-118195Y886872D01*
X-118154Y887538D01*
Y910074D01*
Y910116D01*
Y910199D01*
Y910324D01*
X-118112Y910533D01*
X-117987Y910991D01*
X-117820Y911532D01*
X-117487Y912074D01*
X-117279Y912324D01*
X-116987Y912532D01*
X-116696Y912740D01*
X-116321Y912865D01*
X-115904Y912949D01*
X-115404Y912990D01*
X-115154D01*
X-114946Y912949D01*
D02*
G37*
G36*
X-158976Y21240D02*
X-158560Y21198D01*
X-158102Y21157D01*
X-157602Y21115D01*
X-156519Y20949D01*
X-155394Y20740D01*
X-154311Y20407D01*
X-153770Y20199D01*
X-153311Y19991D01*
X-153270D01*
X-153186Y19907D01*
X-153061Y19824D01*
X-152853Y19741D01*
X-152603Y19574D01*
X-152353Y19366D01*
X-151687Y18866D01*
X-151354Y18533D01*
X-150979Y18199D01*
X-150562Y17783D01*
X-150187Y17325D01*
X-149770Y16825D01*
X-149396Y16325D01*
X-149021Y15700D01*
X-148646Y15075D01*
Y15033D01*
X-148604Y14950D01*
X-148521Y14825D01*
X-148438Y14658D01*
X-148313Y14200D01*
X-148271Y13700D01*
Y13659D01*
Y13492D01*
X-148313Y13284D01*
X-148396Y13034D01*
X-148479Y12701D01*
X-148646Y12368D01*
X-148854Y12034D01*
X-149146Y11701D01*
X-149187Y11659D01*
X-149312Y11576D01*
X-149479Y11451D01*
X-149729Y11326D01*
X-150021Y11159D01*
X-150354Y11034D01*
X-150687Y10951D01*
X-151103Y10910D01*
X-151187D01*
X-151354Y10951D01*
X-151645Y10993D01*
X-151978Y11118D01*
X-152353Y11326D01*
X-152770Y11576D01*
X-153145Y11993D01*
X-153520Y12534D01*
X-153561Y12617D01*
X-153686Y12826D01*
X-153936Y13117D01*
X-154228Y13492D01*
X-154603Y13867D01*
X-155103Y14284D01*
X-155602Y14658D01*
X-156227Y14992D01*
X-156269Y15033D01*
X-156477Y15075D01*
X-156769Y15200D01*
X-157185Y15325D01*
X-157727Y15408D01*
X-158352Y15533D01*
X-159143Y15575D01*
X-160018Y15617D01*
X-160351D01*
X-160559Y15575D01*
X-160851Y15533D01*
X-161184Y15450D01*
X-161934Y15242D01*
X-162392Y15075D01*
X-162809Y14908D01*
X-163309Y14658D01*
X-163767Y14367D01*
X-164225Y14034D01*
X-164683Y13617D01*
X-165142Y13201D01*
X-165600Y12659D01*
X-165641Y12617D01*
X-165725Y12492D01*
X-165850Y12284D01*
X-166016Y11993D01*
X-166266Y11618D01*
X-166475Y11159D01*
X-166724Y10618D01*
X-166975Y9993D01*
X-167266Y9285D01*
X-167516Y8493D01*
X-167724Y7660D01*
X-167933Y6702D01*
X-168141Y5661D01*
X-168266Y4578D01*
X-168349Y3370D01*
X-168391Y2120D01*
Y2037D01*
Y1829D01*
Y1495D01*
X-168349Y1079D01*
X-168307Y537D01*
X-168266Y-88D01*
X-168183Y-796D01*
X-168057Y-1546D01*
X-167933Y-2337D01*
X-167766Y-3212D01*
X-167516Y-4045D01*
X-167266Y-4920D01*
X-166975Y-5753D01*
X-166641Y-6586D01*
X-166225Y-7419D01*
X-165766Y-8169D01*
X-165725Y-8211D01*
X-165641Y-8336D01*
X-165516Y-8544D01*
X-165308Y-8752D01*
X-165017Y-9085D01*
X-164725Y-9377D01*
X-164350Y-9752D01*
X-163934Y-10085D01*
X-163517Y-10460D01*
X-162976Y-10835D01*
X-162434Y-11127D01*
X-161851Y-11418D01*
X-161226Y-11668D01*
X-160559Y-11876D01*
X-159893Y-12001D01*
X-159143Y-12043D01*
X-158935D01*
X-158727Y-12001D01*
X-158435Y-11960D01*
X-158060Y-11918D01*
X-157602Y-11835D01*
X-157144Y-11710D01*
X-156602Y-11543D01*
X-156019Y-11335D01*
X-155436Y-11043D01*
X-154811Y-10710D01*
X-154144Y-10335D01*
X-153520Y-9877D01*
X-152853Y-9335D01*
X-152228Y-8711D01*
X-151603Y-8002D01*
X-151562Y-7961D01*
X-151437Y-7836D01*
X-151270Y-7669D01*
X-151020Y-7461D01*
X-150729Y-7294D01*
X-150395Y-7128D01*
X-149979Y-7003D01*
X-149562Y-6961D01*
X-149354D01*
X-149146Y-7003D01*
X-148896Y-7086D01*
X-148562Y-7169D01*
X-148229Y-7336D01*
X-147854Y-7544D01*
X-147521Y-7836D01*
X-147479Y-7877D01*
X-147396Y-8002D01*
X-147229Y-8169D01*
X-147063Y-8419D01*
X-146896Y-8711D01*
X-146730Y-9044D01*
X-146646Y-9419D01*
X-146605Y-9835D01*
Y-9877D01*
Y-10002D01*
X-146646Y-10168D01*
X-146688Y-10418D01*
X-146771Y-10710D01*
X-146896Y-11002D01*
X-147063Y-11293D01*
X-147313Y-11626D01*
X-147354Y-11668D01*
X-147438Y-11793D01*
X-147604Y-11960D01*
X-147771Y-12168D01*
X-148021Y-12459D01*
X-148354Y-12793D01*
X-149062Y-13501D01*
X-149895Y-14292D01*
X-150812Y-15084D01*
X-151812Y-15792D01*
X-152312Y-16084D01*
X-152811Y-16375D01*
X-152853D01*
X-152936Y-16417D01*
X-153061Y-16500D01*
X-153270Y-16583D01*
X-153561Y-16667D01*
X-153853Y-16792D01*
X-154228Y-16917D01*
X-154603Y-17042D01*
X-155061Y-17167D01*
X-155561Y-17292D01*
X-156644Y-17500D01*
X-157893Y-17666D01*
X-159268Y-17708D01*
X-159560D01*
X-159893Y-17666D01*
X-160351Y-17625D01*
X-160893Y-17542D01*
X-161518Y-17417D01*
X-162226Y-17250D01*
X-162976Y-17042D01*
X-163809Y-16750D01*
X-164642Y-16375D01*
X-165516Y-15959D01*
X-166391Y-15417D01*
X-167266Y-14792D01*
X-168141Y-14084D01*
X-168974Y-13251D01*
X-169765Y-12293D01*
X-169807Y-12210D01*
X-169932Y-12043D01*
X-170140Y-11710D01*
X-170432Y-11293D01*
X-170723Y-10752D01*
X-171098Y-10085D01*
X-171473Y-9294D01*
X-171848Y-8419D01*
X-172223Y-7461D01*
X-172598Y-6336D01*
X-172973Y-5170D01*
X-173265Y-3878D01*
X-173556Y-2504D01*
X-173764Y-1046D01*
X-173889Y496D01*
X-173931Y2120D01*
Y2162D01*
Y2245D01*
Y2370D01*
Y2537D01*
Y2787D01*
X-173889Y3078D01*
Y3370D01*
X-173848Y3745D01*
X-173806Y4578D01*
X-173681Y5494D01*
X-173556Y6536D01*
X-173348Y7702D01*
X-173098Y8868D01*
X-172806Y10118D01*
X-172431Y11368D01*
X-171973Y12576D01*
X-171432Y13825D01*
X-170807Y14992D01*
X-170099Y16116D01*
X-169265Y17116D01*
X-169224Y17158D01*
X-169099Y17283D01*
X-168891Y17491D01*
X-168599Y17783D01*
X-168224Y18074D01*
X-167766Y18449D01*
X-167266Y18824D01*
X-166683Y19199D01*
X-166016Y19574D01*
X-165308Y19949D01*
X-164558Y20324D01*
X-163725Y20615D01*
X-162892Y20907D01*
X-161976Y21115D01*
X-161018Y21240D01*
X-160018Y21282D01*
X-159310D01*
X-158976Y21240D01*
D02*
G37*
G36*
X-80372Y912907D02*
X-79872Y912782D01*
X-79330Y912574D01*
X-79039Y912407D01*
X-78789Y912240D01*
X-78539Y911991D01*
X-78289Y911699D01*
X-78122Y911366D01*
X-77956Y910949D01*
X-77872Y910533D01*
X-77831Y909991D01*
Y909949D01*
Y909866D01*
Y909741D01*
X-77872Y909533D01*
X-77997Y909075D01*
X-78205Y908533D01*
X-78372Y908283D01*
X-78580Y907991D01*
X-78789Y907742D01*
X-79080Y907533D01*
X-79455Y907325D01*
X-79830Y907200D01*
X-80288Y907117D01*
X-80830Y907075D01*
X-89828D01*
Y875708D01*
Y875667D01*
Y875583D01*
Y875416D01*
X-89869Y875250D01*
X-89994Y874792D01*
X-90203Y874250D01*
X-90327Y873959D01*
X-90536Y873667D01*
X-90786Y873417D01*
X-91036Y873209D01*
X-91411Y873042D01*
X-91785Y872876D01*
X-92244Y872792D01*
X-92744Y872751D01*
X-92993D01*
X-93202Y872792D01*
X-93660Y872917D01*
X-94160Y873126D01*
X-94451Y873292D01*
X-94701Y873459D01*
X-94951Y873709D01*
X-95160Y874000D01*
X-95368Y874333D01*
X-95493Y874750D01*
X-95576Y875208D01*
X-95618Y875708D01*
Y907075D01*
X-104990D01*
X-105199Y907117D01*
X-105657Y907242D01*
X-106198Y907450D01*
X-106448Y907575D01*
X-106740Y907783D01*
X-106990Y908033D01*
X-107198Y908325D01*
X-107406Y908658D01*
X-107531Y909033D01*
X-107615Y909491D01*
X-107656Y909991D01*
Y910033D01*
Y910116D01*
Y910283D01*
X-107615Y910449D01*
X-107490Y910907D01*
X-107281Y911491D01*
X-107156Y911741D01*
X-106948Y912032D01*
X-106698Y912282D01*
X-106407Y912490D01*
X-106073Y912657D01*
X-105698Y912824D01*
X-105240Y912907D01*
X-104740Y912949D01*
X-80538D01*
X-80372Y912907D01*
D02*
G37*
G36*
X-158976Y913240D02*
X-158560Y913198D01*
X-158102Y913157D01*
X-157602Y913115D01*
X-156519Y912949D01*
X-155394Y912740D01*
X-154311Y912407D01*
X-153770Y912199D01*
X-153311Y911991D01*
X-153270D01*
X-153186Y911907D01*
X-153061Y911824D01*
X-152853Y911741D01*
X-152603Y911574D01*
X-152353Y911366D01*
X-151687Y910866D01*
X-151354Y910533D01*
X-150979Y910199D01*
X-150562Y909783D01*
X-150187Y909324D01*
X-149770Y908825D01*
X-149396Y908325D01*
X-149021Y907700D01*
X-148646Y907075D01*
Y907033D01*
X-148604Y906950D01*
X-148521Y906825D01*
X-148438Y906658D01*
X-148313Y906200D01*
X-148271Y905700D01*
Y905659D01*
Y905492D01*
X-148313Y905284D01*
X-148396Y905034D01*
X-148479Y904701D01*
X-148646Y904368D01*
X-148854Y904034D01*
X-149146Y903701D01*
X-149187Y903659D01*
X-149312Y903576D01*
X-149479Y903451D01*
X-149729Y903326D01*
X-150021Y903159D01*
X-150354Y903035D01*
X-150687Y902951D01*
X-151103Y902909D01*
X-151187D01*
X-151354Y902951D01*
X-151645Y902993D01*
X-151978Y903118D01*
X-152353Y903326D01*
X-152770Y903576D01*
X-153145Y903993D01*
X-153520Y904534D01*
X-153561Y904617D01*
X-153686Y904826D01*
X-153936Y905117D01*
X-154228Y905492D01*
X-154603Y905867D01*
X-155103Y906284D01*
X-155602Y906658D01*
X-156227Y906992D01*
X-156269Y907033D01*
X-156477Y907075D01*
X-156769Y907200D01*
X-157185Y907325D01*
X-157727Y907408D01*
X-158352Y907533D01*
X-159143Y907575D01*
X-160018Y907617D01*
X-160351D01*
X-160559Y907575D01*
X-160851Y907533D01*
X-161184Y907450D01*
X-161934Y907242D01*
X-162392Y907075D01*
X-162809Y906908D01*
X-163309Y906658D01*
X-163767Y906367D01*
X-164225Y906034D01*
X-164683Y905617D01*
X-165142Y905201D01*
X-165600Y904659D01*
X-165641Y904617D01*
X-165725Y904492D01*
X-165850Y904284D01*
X-166016Y903993D01*
X-166266Y903618D01*
X-166475Y903159D01*
X-166724Y902618D01*
X-166975Y901993D01*
X-167266Y901285D01*
X-167516Y900493D01*
X-167724Y899660D01*
X-167933Y898702D01*
X-168141Y897661D01*
X-168266Y896578D01*
X-168349Y895370D01*
X-168391Y894120D01*
Y894037D01*
Y893829D01*
Y893495D01*
X-168349Y893079D01*
X-168307Y892537D01*
X-168266Y891912D01*
X-168183Y891204D01*
X-168057Y890454D01*
X-167933Y889663D01*
X-167766Y888788D01*
X-167516Y887955D01*
X-167266Y887080D01*
X-166975Y886247D01*
X-166641Y885414D01*
X-166225Y884581D01*
X-165766Y883831D01*
X-165725Y883789D01*
X-165641Y883664D01*
X-165516Y883456D01*
X-165308Y883248D01*
X-165017Y882915D01*
X-164725Y882623D01*
X-164350Y882248D01*
X-163934Y881915D01*
X-163517Y881540D01*
X-162976Y881165D01*
X-162434Y880873D01*
X-161851Y880582D01*
X-161226Y880332D01*
X-160559Y880124D01*
X-159893Y879999D01*
X-159143Y879957D01*
X-158935D01*
X-158727Y879999D01*
X-158435Y880040D01*
X-158060Y880082D01*
X-157602Y880165D01*
X-157144Y880290D01*
X-156602Y880457D01*
X-156019Y880665D01*
X-155436Y880957D01*
X-154811Y881290D01*
X-154144Y881665D01*
X-153520Y882123D01*
X-152853Y882665D01*
X-152228Y883289D01*
X-151603Y883998D01*
X-151562Y884039D01*
X-151437Y884164D01*
X-151270Y884331D01*
X-151020Y884539D01*
X-150729Y884706D01*
X-150395Y884872D01*
X-149979Y884997D01*
X-149562Y885039D01*
X-149354D01*
X-149146Y884997D01*
X-148896Y884914D01*
X-148562Y884831D01*
X-148229Y884664D01*
X-147854Y884456D01*
X-147521Y884164D01*
X-147479Y884123D01*
X-147396Y883998D01*
X-147229Y883831D01*
X-147063Y883581D01*
X-146896Y883289D01*
X-146730Y882956D01*
X-146646Y882581D01*
X-146605Y882165D01*
Y882123D01*
Y881998D01*
X-146646Y881832D01*
X-146688Y881582D01*
X-146771Y881290D01*
X-146896Y880998D01*
X-147063Y880707D01*
X-147313Y880374D01*
X-147354Y880332D01*
X-147438Y880207D01*
X-147604Y880040D01*
X-147771Y879832D01*
X-148021Y879540D01*
X-148354Y879207D01*
X-149062Y878499D01*
X-149895Y877708D01*
X-150812Y876916D01*
X-151812Y876208D01*
X-152312Y875916D01*
X-152811Y875625D01*
X-152853D01*
X-152936Y875583D01*
X-153061Y875500D01*
X-153270Y875416D01*
X-153561Y875333D01*
X-153853Y875208D01*
X-154228Y875083D01*
X-154603Y874958D01*
X-155061Y874833D01*
X-155561Y874708D01*
X-156644Y874500D01*
X-157893Y874333D01*
X-159268Y874292D01*
X-159560D01*
X-159893Y874333D01*
X-160351Y874375D01*
X-160893Y874458D01*
X-161518Y874583D01*
X-162226Y874750D01*
X-162976Y874958D01*
X-163809Y875250D01*
X-164642Y875625D01*
X-165516Y876041D01*
X-166391Y876583D01*
X-167266Y877208D01*
X-168141Y877916D01*
X-168974Y878749D01*
X-169765Y879707D01*
X-169807Y879790D01*
X-169932Y879957D01*
X-170140Y880290D01*
X-170432Y880707D01*
X-170723Y881248D01*
X-171098Y881915D01*
X-171473Y882706D01*
X-171848Y883581D01*
X-172223Y884539D01*
X-172598Y885664D01*
X-172973Y886830D01*
X-173265Y888122D01*
X-173556Y889496D01*
X-173764Y890954D01*
X-173889Y892495D01*
X-173931Y894120D01*
Y894162D01*
Y894245D01*
Y894370D01*
Y894537D01*
Y894787D01*
X-173889Y895078D01*
Y895370D01*
X-173848Y895745D01*
X-173806Y896578D01*
X-173681Y897494D01*
X-173556Y898536D01*
X-173348Y899702D01*
X-173098Y900868D01*
X-172806Y902118D01*
X-172431Y903368D01*
X-171973Y904576D01*
X-171432Y905825D01*
X-170807Y906992D01*
X-170099Y908117D01*
X-169265Y909116D01*
X-169224Y909158D01*
X-169099Y909283D01*
X-168891Y909491D01*
X-168599Y909783D01*
X-168224Y910074D01*
X-167766Y910449D01*
X-167266Y910824D01*
X-166683Y911199D01*
X-166016Y911574D01*
X-165308Y911949D01*
X-164558Y912324D01*
X-163725Y912615D01*
X-162892Y912907D01*
X-161976Y913115D01*
X-161018Y913240D01*
X-160018Y913282D01*
X-159310D01*
X-158976Y913240D01*
D02*
G37*
G36*
X2626988Y892745D02*
X2627446Y892620D01*
X2627946Y892454D01*
X2628487Y892120D01*
X2628695Y891870D01*
X2628904Y891620D01*
X2629112Y891287D01*
X2629237Y890912D01*
X2629320Y890496D01*
X2629362Y889996D01*
Y889954D01*
Y889871D01*
Y889746D01*
X2629320Y889579D01*
X2629195Y889121D01*
X2629029Y888621D01*
X2628654Y888121D01*
X2628445Y887871D01*
X2628154Y887663D01*
X2627862Y887496D01*
X2627446Y887372D01*
X2627029Y887288D01*
X2626529Y887247D01*
X2613449D01*
X2613282Y887288D01*
X2612824Y887413D01*
X2612366Y887580D01*
X2611866Y887913D01*
X2611617Y888121D01*
X2611408Y888413D01*
X2611241Y888705D01*
X2611117Y889080D01*
X2611033Y889496D01*
X2610992Y889996D01*
Y890038D01*
Y890121D01*
Y890246D01*
X2611033Y890454D01*
X2611117Y890871D01*
X2611325Y891412D01*
X2611658Y891912D01*
X2611866Y892120D01*
X2612116Y892370D01*
X2612450Y892537D01*
X2612824Y892662D01*
X2613241Y892745D01*
X2613699Y892787D01*
X2626779D01*
X2626988Y892745D01*
D02*
G37*
G36*
X2649023Y912240D02*
X2649440Y912198D01*
X2649898Y912157D01*
X2650398Y912115D01*
X2651481Y911949D01*
X2652606Y911740D01*
X2653689Y911407D01*
X2654231Y911199D01*
X2654689Y910991D01*
X2654731D01*
X2654814Y910907D01*
X2654939Y910824D01*
X2655147Y910741D01*
X2655397Y910574D01*
X2655647Y910366D01*
X2656313Y909866D01*
X2656646Y909532D01*
X2657021Y909199D01*
X2657438Y908783D01*
X2657813Y908325D01*
X2658229Y907825D01*
X2658604Y907325D01*
X2658979Y906700D01*
X2659354Y906075D01*
Y906033D01*
X2659396Y905950D01*
X2659479Y905825D01*
X2659562Y905658D01*
X2659688Y905200D01*
X2659729Y904700D01*
Y904659D01*
Y904492D01*
X2659688Y904284D01*
X2659604Y904034D01*
X2659521Y903701D01*
X2659354Y903367D01*
X2659146Y903034D01*
X2658854Y902701D01*
X2658813Y902659D01*
X2658688Y902576D01*
X2658521Y902451D01*
X2658271Y902326D01*
X2657979Y902159D01*
X2657646Y902035D01*
X2657313Y901951D01*
X2656896Y901909D01*
X2656813D01*
X2656646Y901951D01*
X2656355Y901993D01*
X2656022Y902118D01*
X2655647Y902326D01*
X2655230Y902576D01*
X2654855Y902993D01*
X2654480Y903534D01*
X2654439Y903617D01*
X2654314Y903826D01*
X2654064Y904117D01*
X2653772Y904492D01*
X2653398Y904867D01*
X2652898Y905284D01*
X2652397Y905658D01*
X2651773Y905992D01*
X2651731Y906033D01*
X2651523Y906075D01*
X2651231Y906200D01*
X2650815Y906325D01*
X2650273Y906408D01*
X2649648Y906533D01*
X2648857Y906575D01*
X2647982Y906617D01*
X2647649D01*
X2647440Y906575D01*
X2647149Y906533D01*
X2646816Y906450D01*
X2646066Y906242D01*
X2645608Y906075D01*
X2645191Y905909D01*
X2644691Y905658D01*
X2644233Y905367D01*
X2643775Y905034D01*
X2643317Y904617D01*
X2642858Y904201D01*
X2642400Y903659D01*
X2642358Y903617D01*
X2642275Y903492D01*
X2642150Y903284D01*
X2641984Y902993D01*
X2641734Y902618D01*
X2641525Y902159D01*
X2641276Y901618D01*
X2641025Y900993D01*
X2640734Y900285D01*
X2640484Y899493D01*
X2640276Y898660D01*
X2640067Y897702D01*
X2639859Y896661D01*
X2639734Y895578D01*
X2639651Y894370D01*
X2639609Y893120D01*
Y893037D01*
Y892829D01*
Y892495D01*
X2639651Y892079D01*
X2639692Y891537D01*
X2639734Y890912D01*
X2639818Y890204D01*
X2639943Y889454D01*
X2640067Y888663D01*
X2640234Y887788D01*
X2640484Y886955D01*
X2640734Y886080D01*
X2641025Y885247D01*
X2641359Y884414D01*
X2641775Y883581D01*
X2642234Y882831D01*
X2642275Y882789D01*
X2642358Y882664D01*
X2642484Y882456D01*
X2642692Y882248D01*
X2642983Y881915D01*
X2643275Y881623D01*
X2643650Y881248D01*
X2644066Y880915D01*
X2644483Y880540D01*
X2645024Y880165D01*
X2645566Y879874D01*
X2646149Y879582D01*
X2646774Y879332D01*
X2647440Y879124D01*
X2648107Y878999D01*
X2648857Y878957D01*
X2649065D01*
X2649273Y878999D01*
X2649565Y879040D01*
X2649940Y879082D01*
X2650398Y879165D01*
X2650856Y879290D01*
X2651398Y879457D01*
X2651981Y879665D01*
X2652564Y879957D01*
X2653189Y880290D01*
X2653856Y880665D01*
X2654480Y881123D01*
X2655147Y881665D01*
X2655772Y882290D01*
X2656396Y882998D01*
X2656438Y883039D01*
X2656563Y883164D01*
X2656730Y883331D01*
X2656980Y883539D01*
X2657271Y883706D01*
X2657605Y883873D01*
X2658021Y883997D01*
X2658438Y884039D01*
X2658646D01*
X2658854Y883997D01*
X2659104Y883914D01*
X2659438Y883831D01*
X2659771Y883664D01*
X2660146Y883456D01*
X2660479Y883164D01*
X2660521Y883123D01*
X2660604Y882998D01*
X2660771Y882831D01*
X2660937Y882581D01*
X2661104Y882290D01*
X2661270Y881956D01*
X2661354Y881581D01*
X2661395Y881165D01*
Y881123D01*
Y880998D01*
X2661354Y880832D01*
X2661312Y880582D01*
X2661229Y880290D01*
X2661104Y879998D01*
X2660937Y879707D01*
X2660687Y879374D01*
X2660645Y879332D01*
X2660562Y879207D01*
X2660396Y879040D01*
X2660229Y878832D01*
X2659979Y878540D01*
X2659646Y878207D01*
X2658938Y877499D01*
X2658105Y876708D01*
X2657188Y875916D01*
X2656188Y875208D01*
X2655688Y874916D01*
X2655189Y874625D01*
X2655147D01*
X2655063Y874583D01*
X2654939Y874500D01*
X2654731Y874417D01*
X2654439Y874333D01*
X2654147Y874208D01*
X2653772Y874083D01*
X2653398Y873958D01*
X2652939Y873833D01*
X2652439Y873708D01*
X2651356Y873500D01*
X2650107Y873334D01*
X2648732Y873292D01*
X2648440D01*
X2648107Y873334D01*
X2647649Y873375D01*
X2647107Y873458D01*
X2646483Y873583D01*
X2645774Y873750D01*
X2645024Y873958D01*
X2644191Y874250D01*
X2643358Y874625D01*
X2642484Y875041D01*
X2641609Y875583D01*
X2640734Y876208D01*
X2639859Y876916D01*
X2639026Y877749D01*
X2638235Y878707D01*
X2638193Y878790D01*
X2638068Y878957D01*
X2637860Y879290D01*
X2637568Y879707D01*
X2637277Y880248D01*
X2636902Y880915D01*
X2636527Y881706D01*
X2636152Y882581D01*
X2635777Y883539D01*
X2635402Y884664D01*
X2635027Y885830D01*
X2634735Y887122D01*
X2634444Y888496D01*
X2634236Y889954D01*
X2634111Y891496D01*
X2634069Y893120D01*
Y893162D01*
Y893245D01*
Y893370D01*
Y893537D01*
Y893787D01*
X2634111Y894078D01*
Y894370D01*
X2634152Y894745D01*
X2634194Y895578D01*
X2634319Y896494D01*
X2634444Y897536D01*
X2634652Y898702D01*
X2634902Y899868D01*
X2635194Y901118D01*
X2635569Y902368D01*
X2636027Y903576D01*
X2636568Y904825D01*
X2637193Y905992D01*
X2637901Y907116D01*
X2638734Y908116D01*
X2638776Y908158D01*
X2638901Y908283D01*
X2639109Y908491D01*
X2639401Y908783D01*
X2639776Y909074D01*
X2640234Y909449D01*
X2640734Y909824D01*
X2641317Y910199D01*
X2641984Y910574D01*
X2642692Y910949D01*
X2643441Y911324D01*
X2644275Y911615D01*
X2645108Y911907D01*
X2646024Y912115D01*
X2646982Y912240D01*
X2647982Y912282D01*
X2648690D01*
X2649023Y912240D01*
D02*
G37*
G36*
X2602119Y911949D02*
X2602369Y911907D01*
X2602702Y911782D01*
X2603035Y911657D01*
X2603410Y911449D01*
X2603743Y911199D01*
X2603785Y911157D01*
X2603868Y911074D01*
X2604035Y910865D01*
X2604202Y910657D01*
X2604368Y910366D01*
X2604535Y909991D01*
X2604618Y909616D01*
X2604660Y909158D01*
Y909074D01*
Y908908D01*
X2604618Y908699D01*
X2604535Y908408D01*
X2595329Y875791D01*
Y875750D01*
X2595287Y875708D01*
X2595204Y875416D01*
X2594954Y875041D01*
X2594662Y874625D01*
X2594204Y874208D01*
X2593621Y873833D01*
X2593246Y873667D01*
X2592871Y873542D01*
X2592413Y873500D01*
X2591913Y873458D01*
X2591663D01*
X2591455Y873500D01*
X2590997Y873583D01*
X2590455Y873750D01*
X2589872Y874000D01*
X2589289Y874417D01*
X2588997Y874667D01*
X2588789Y874958D01*
X2588581Y875333D01*
X2588414Y875708D01*
X2578083Y908283D01*
Y908325D01*
Y908366D01*
X2578042Y908575D01*
X2578000Y908908D01*
Y909241D01*
Y909283D01*
Y909449D01*
X2578042Y909658D01*
X2578125Y909908D01*
X2578208Y910241D01*
X2578333Y910574D01*
X2578542Y910907D01*
X2578833Y911199D01*
X2578875Y911240D01*
X2579000Y911324D01*
X2579166Y911449D01*
X2579375Y911615D01*
X2579666Y911740D01*
X2579999Y911865D01*
X2580374Y911949D01*
X2580791Y911990D01*
X2580874D01*
X2581124Y911949D01*
X2581458Y911865D01*
X2581874Y911699D01*
X2582291Y911407D01*
X2582499Y911199D01*
X2582707Y910991D01*
X2582915Y910699D01*
X2583124Y910366D01*
X2583290Y909991D01*
X2583415Y909574D01*
X2591871Y882498D01*
X2599245Y910074D01*
Y910116D01*
X2599286Y910157D01*
X2599370Y910366D01*
X2599495Y910699D01*
X2599744Y911032D01*
X2600078Y911365D01*
X2600494Y911699D01*
X2601036Y911907D01*
X2601369Y911990D01*
X2601910D01*
X2602119Y911949D01*
D02*
G37*
G36*
X2727628Y911907D02*
X2728128Y911782D01*
X2728670Y911574D01*
X2728961Y911407D01*
X2729211Y911240D01*
X2729461Y910991D01*
X2729711Y910699D01*
X2729878Y910366D01*
X2730044Y909949D01*
X2730128Y909532D01*
X2730169Y908991D01*
Y908949D01*
Y908866D01*
Y908741D01*
X2730128Y908533D01*
X2730003Y908075D01*
X2729795Y907533D01*
X2729628Y907283D01*
X2729420Y906992D01*
X2729211Y906742D01*
X2728920Y906533D01*
X2728545Y906325D01*
X2728170Y906200D01*
X2727712Y906117D01*
X2727170Y906075D01*
X2718172D01*
Y874708D01*
Y874667D01*
Y874583D01*
Y874417D01*
X2718131Y874250D01*
X2718006Y873792D01*
X2717798Y873250D01*
X2717673Y872959D01*
X2717464Y872667D01*
X2717214Y872417D01*
X2716964Y872209D01*
X2716589Y872042D01*
X2716215Y871876D01*
X2715757Y871792D01*
X2715256Y871751D01*
X2715007D01*
X2714798Y871792D01*
X2714340Y871917D01*
X2713840Y872125D01*
X2713549Y872292D01*
X2713299Y872459D01*
X2713049Y872709D01*
X2712841Y873000D01*
X2712632Y873334D01*
X2712507Y873750D01*
X2712424Y874208D01*
X2712382Y874708D01*
Y906075D01*
X2703010D01*
X2702802Y906117D01*
X2702343Y906242D01*
X2701801Y906450D01*
X2701552Y906575D01*
X2701260Y906783D01*
X2701010Y907033D01*
X2700802Y907325D01*
X2700594Y907658D01*
X2700469Y908033D01*
X2700385Y908491D01*
X2700344Y908991D01*
Y909033D01*
Y909116D01*
Y909283D01*
X2700385Y909449D01*
X2700510Y909908D01*
X2700719Y910491D01*
X2700844Y910741D01*
X2701052Y911032D01*
X2701302Y911282D01*
X2701593Y911490D01*
X2701927Y911657D01*
X2702302Y911824D01*
X2702760Y911907D01*
X2703260Y911949D01*
X2727462D01*
X2727628Y911907D01*
D02*
G37*
G36*
X2693054Y911949D02*
X2693470Y911824D01*
X2694012Y911615D01*
X2694262Y911490D01*
X2694512Y911282D01*
X2694720Y911032D01*
X2694970Y910782D01*
X2695137Y910407D01*
X2695262Y910032D01*
X2695345Y909574D01*
X2695387Y909074D01*
Y886538D01*
Y886497D01*
Y886413D01*
Y886247D01*
X2695345Y885997D01*
Y885747D01*
X2695303Y885414D01*
X2695262Y885039D01*
X2695178Y884622D01*
X2695012Y883664D01*
X2694720Y882581D01*
X2694304Y881456D01*
X2693804Y880290D01*
X2693470Y879665D01*
X2693095Y879082D01*
X2692721Y878499D01*
X2692262Y877916D01*
X2691762Y877333D01*
X2691221Y876791D01*
X2690638Y876249D01*
X2690013Y875750D01*
X2689305Y875291D01*
X2688513Y874875D01*
X2687722Y874500D01*
X2686805Y874125D01*
X2685889Y873833D01*
X2684848Y873583D01*
X2683765Y873417D01*
X2682598Y873292D01*
X2681223D01*
X2680682Y873334D01*
X2680099Y873417D01*
X2679391Y873500D01*
X2678683Y873667D01*
X2677933Y873833D01*
X2677141Y874042D01*
X2676308Y874333D01*
X2675517Y874708D01*
X2674684Y875125D01*
X2673850Y875583D01*
X2673059Y876166D01*
X2673017Y876208D01*
X2672851Y876333D01*
X2672643Y876541D01*
X2672351Y876833D01*
X2671976Y877207D01*
X2671601Y877666D01*
X2671184Y878207D01*
X2670768Y878790D01*
X2670310Y879457D01*
X2669893Y880248D01*
X2669518Y881040D01*
X2669143Y881956D01*
X2668852Y882914D01*
X2668643Y883956D01*
X2668477Y885039D01*
X2668435Y886205D01*
Y909074D01*
Y909116D01*
Y909199D01*
Y909324D01*
X2668477Y909532D01*
X2668602Y909991D01*
X2668768Y910532D01*
X2669102Y911074D01*
X2669310Y911324D01*
X2669601Y911532D01*
X2669893Y911740D01*
X2670268Y911865D01*
X2670685Y911949D01*
X2671184Y911990D01*
X2671434D01*
X2671643Y911949D01*
X2672101Y911824D01*
X2672601Y911615D01*
X2672851Y911490D01*
X2673142Y911282D01*
X2673351Y911032D01*
X2673559Y910782D01*
X2673767Y910407D01*
X2673892Y910032D01*
X2673976Y909574D01*
X2674017Y909074D01*
Y886205D01*
Y886163D01*
Y886039D01*
Y885830D01*
X2674059Y885580D01*
X2674100Y885289D01*
X2674184Y884914D01*
X2674267Y884497D01*
X2674392Y884039D01*
X2674517Y883539D01*
X2674725Y883039D01*
X2674933Y882498D01*
X2675225Y881956D01*
X2675558Y881415D01*
X2675933Y880873D01*
X2676392Y880332D01*
X2676891Y879790D01*
X2676933D01*
X2676975Y879749D01*
X2677100Y879665D01*
X2677266Y879623D01*
X2677474Y879540D01*
X2677725Y879415D01*
X2678349Y879249D01*
X2679099Y879040D01*
X2679974Y878915D01*
X2680974Y878832D01*
X2682140D01*
X2682390Y878874D01*
X2682765Y878915D01*
X2683265Y878999D01*
X2683848Y879165D01*
X2684514Y879374D01*
X2685222Y879623D01*
X2685972Y879957D01*
X2686681Y880415D01*
X2687389Y880915D01*
X2688055Y881540D01*
X2688638Y882290D01*
X2689138Y883123D01*
X2689513Y884122D01*
X2689763Y885247D01*
X2689805Y885872D01*
X2689846Y886538D01*
Y909074D01*
Y909116D01*
Y909199D01*
Y909324D01*
X2689888Y909532D01*
X2690013Y909991D01*
X2690180Y910532D01*
X2690513Y911074D01*
X2690721Y911324D01*
X2691013Y911532D01*
X2691304Y911740D01*
X2691679Y911865D01*
X2692096Y911949D01*
X2692596Y911990D01*
X2692845D01*
X2693054Y911949D01*
D02*
G37*
G36*
X-181012Y1745D02*
X-180554Y1620D01*
X-180054Y1454D01*
X-179513Y1120D01*
X-179305Y870D01*
X-179096Y620D01*
X-178888Y287D01*
X-178763Y-88D01*
X-178680Y-504D01*
X-178638Y-1004D01*
Y-1046D01*
Y-1129D01*
Y-1254D01*
X-178680Y-1421D01*
X-178805Y-1879D01*
X-178971Y-2379D01*
X-179346Y-2879D01*
X-179555Y-3129D01*
X-179846Y-3337D01*
X-180138Y-3503D01*
X-180554Y-3628D01*
X-180971Y-3712D01*
X-181471Y-3753D01*
X-194551D01*
X-194717Y-3712D01*
X-195176Y-3587D01*
X-195634Y-3420D01*
X-196134Y-3087D01*
X-196384Y-2879D01*
X-196592Y-2587D01*
X-196758Y-2295D01*
X-196884Y-1920D01*
X-196967Y-1504D01*
X-197008Y-1004D01*
Y-962D01*
Y-879D01*
Y-754D01*
X-196967Y-546D01*
X-196884Y-129D01*
X-196675Y412D01*
X-196342Y912D01*
X-196134Y1120D01*
X-195884Y1370D01*
X-195550Y1537D01*
X-195176Y1662D01*
X-194759Y1745D01*
X-194301Y1787D01*
X-181221D01*
X-181012Y1745D01*
D02*
G37*
G36*
X2727628Y19907D02*
X2728128Y19782D01*
X2728670Y19574D01*
X2728961Y19407D01*
X2729211Y19240D01*
X2729461Y18990D01*
X2729711Y18699D01*
X2729878Y18366D01*
X2730044Y17949D01*
X2730128Y17533D01*
X2730169Y16991D01*
Y16949D01*
Y16866D01*
Y16741D01*
X2730128Y16533D01*
X2730003Y16075D01*
X2729795Y15533D01*
X2729628Y15283D01*
X2729420Y14992D01*
X2729211Y14742D01*
X2728920Y14533D01*
X2728545Y14325D01*
X2728170Y14200D01*
X2727712Y14117D01*
X2727170Y14075D01*
X2718172D01*
Y-17292D01*
Y-17334D01*
Y-17417D01*
Y-17584D01*
X2718131Y-17750D01*
X2718006Y-18208D01*
X2717798Y-18750D01*
X2717673Y-19041D01*
X2717464Y-19333D01*
X2717214Y-19583D01*
X2716964Y-19791D01*
X2716589Y-19958D01*
X2716215Y-20124D01*
X2715757Y-20208D01*
X2715256Y-20249D01*
X2715007D01*
X2714798Y-20208D01*
X2714340Y-20083D01*
X2713840Y-19875D01*
X2713549Y-19708D01*
X2713299Y-19541D01*
X2713049Y-19291D01*
X2712841Y-19000D01*
X2712632Y-18666D01*
X2712507Y-18250D01*
X2712424Y-17792D01*
X2712382Y-17292D01*
Y14075D01*
X2703010D01*
X2702802Y14117D01*
X2702343Y14242D01*
X2701801Y14450D01*
X2701552Y14575D01*
X2701260Y14783D01*
X2701010Y15033D01*
X2700802Y15325D01*
X2700594Y15658D01*
X2700469Y16033D01*
X2700385Y16491D01*
X2700344Y16991D01*
Y17033D01*
Y17116D01*
Y17283D01*
X2700385Y17449D01*
X2700510Y17908D01*
X2700719Y18491D01*
X2700844Y18741D01*
X2701052Y19032D01*
X2701302Y19282D01*
X2701593Y19490D01*
X2701927Y19657D01*
X2702302Y19824D01*
X2702760Y19907D01*
X2703260Y19949D01*
X2727462D01*
X2727628Y19907D01*
D02*
G37*
G36*
X2693054Y19949D02*
X2693470Y19824D01*
X2694012Y19615D01*
X2694262Y19490D01*
X2694512Y19282D01*
X2694720Y19032D01*
X2694970Y18782D01*
X2695137Y18407D01*
X2695262Y18032D01*
X2695345Y17574D01*
X2695387Y17074D01*
Y-5462D01*
Y-5503D01*
Y-5587D01*
Y-5753D01*
X2695345Y-6003D01*
Y-6253D01*
X2695303Y-6586D01*
X2695262Y-6961D01*
X2695178Y-7378D01*
X2695012Y-8336D01*
X2694720Y-9419D01*
X2694304Y-10544D01*
X2693804Y-11710D01*
X2693470Y-12335D01*
X2693095Y-12918D01*
X2692721Y-13501D01*
X2692262Y-14084D01*
X2691762Y-14668D01*
X2691221Y-15209D01*
X2690638Y-15751D01*
X2690013Y-16250D01*
X2689305Y-16709D01*
X2688513Y-17125D01*
X2687722Y-17500D01*
X2686805Y-17875D01*
X2685889Y-18167D01*
X2684848Y-18417D01*
X2683765Y-18583D01*
X2682598Y-18708D01*
X2681223D01*
X2680682Y-18666D01*
X2680099Y-18583D01*
X2679391Y-18500D01*
X2678683Y-18333D01*
X2677933Y-18167D01*
X2677141Y-17958D01*
X2676308Y-17667D01*
X2675517Y-17292D01*
X2674684Y-16875D01*
X2673850Y-16417D01*
X2673059Y-15834D01*
X2673017Y-15792D01*
X2672851Y-15667D01*
X2672643Y-15459D01*
X2672351Y-15167D01*
X2671976Y-14792D01*
X2671601Y-14334D01*
X2671184Y-13793D01*
X2670768Y-13210D01*
X2670310Y-12543D01*
X2669893Y-11752D01*
X2669518Y-10960D01*
X2669143Y-10044D01*
X2668852Y-9086D01*
X2668643Y-8044D01*
X2668477Y-6961D01*
X2668435Y-5795D01*
Y17074D01*
Y17116D01*
Y17199D01*
Y17324D01*
X2668477Y17533D01*
X2668602Y17991D01*
X2668768Y18532D01*
X2669102Y19074D01*
X2669310Y19324D01*
X2669601Y19532D01*
X2669893Y19740D01*
X2670268Y19865D01*
X2670685Y19949D01*
X2671184Y19990D01*
X2671434D01*
X2671643Y19949D01*
X2672101Y19824D01*
X2672601Y19615D01*
X2672851Y19490D01*
X2673142Y19282D01*
X2673351Y19032D01*
X2673559Y18782D01*
X2673767Y18407D01*
X2673892Y18032D01*
X2673976Y17574D01*
X2674017Y17074D01*
Y-5795D01*
Y-5836D01*
Y-5961D01*
Y-6170D01*
X2674059Y-6420D01*
X2674100Y-6711D01*
X2674184Y-7086D01*
X2674267Y-7503D01*
X2674392Y-7961D01*
X2674517Y-8461D01*
X2674725Y-8961D01*
X2674933Y-9502D01*
X2675225Y-10044D01*
X2675558Y-10585D01*
X2675933Y-11127D01*
X2676392Y-11668D01*
X2676891Y-12210D01*
X2676933D01*
X2676975Y-12251D01*
X2677100Y-12335D01*
X2677266Y-12377D01*
X2677474Y-12460D01*
X2677725Y-12585D01*
X2678349Y-12751D01*
X2679099Y-12960D01*
X2679974Y-13085D01*
X2680974Y-13168D01*
X2682140D01*
X2682390Y-13126D01*
X2682765Y-13085D01*
X2683265Y-13001D01*
X2683848Y-12835D01*
X2684514Y-12626D01*
X2685222Y-12377D01*
X2685972Y-12043D01*
X2686681Y-11585D01*
X2687389Y-11085D01*
X2688055Y-10460D01*
X2688638Y-9711D01*
X2689138Y-8877D01*
X2689513Y-7878D01*
X2689763Y-6753D01*
X2689805Y-6128D01*
X2689846Y-5462D01*
Y17074D01*
Y17116D01*
Y17199D01*
Y17324D01*
X2689888Y17533D01*
X2690013Y17991D01*
X2690180Y18532D01*
X2690513Y19074D01*
X2690721Y19324D01*
X2691013Y19532D01*
X2691304Y19740D01*
X2691679Y19865D01*
X2692096Y19949D01*
X2692596Y19990D01*
X2692845D01*
X2693054Y19949D01*
D02*
G37*
G36*
X2602119D02*
X2602369Y19907D01*
X2602702Y19782D01*
X2603035Y19657D01*
X2603410Y19449D01*
X2603743Y19199D01*
X2603785Y19157D01*
X2603868Y19074D01*
X2604035Y18865D01*
X2604202Y18657D01*
X2604368Y18366D01*
X2604535Y17991D01*
X2604618Y17616D01*
X2604660Y17158D01*
Y17074D01*
Y16908D01*
X2604618Y16699D01*
X2604535Y16408D01*
X2595329Y-16209D01*
Y-16250D01*
X2595287Y-16292D01*
X2595204Y-16584D01*
X2594954Y-16959D01*
X2594662Y-17375D01*
X2594204Y-17792D01*
X2593621Y-18167D01*
X2593246Y-18333D01*
X2592871Y-18458D01*
X2592413Y-18500D01*
X2591913Y-18542D01*
X2591663D01*
X2591455Y-18500D01*
X2590997Y-18417D01*
X2590455Y-18250D01*
X2589872Y-18000D01*
X2589289Y-17584D01*
X2588997Y-17334D01*
X2588789Y-17042D01*
X2588581Y-16667D01*
X2588414Y-16292D01*
X2578083Y16283D01*
Y16324D01*
Y16366D01*
X2578042Y16574D01*
X2578000Y16908D01*
Y17241D01*
Y17283D01*
Y17449D01*
X2578042Y17658D01*
X2578125Y17908D01*
X2578208Y18241D01*
X2578333Y18574D01*
X2578542Y18907D01*
X2578833Y19199D01*
X2578875Y19240D01*
X2579000Y19324D01*
X2579166Y19449D01*
X2579375Y19615D01*
X2579666Y19740D01*
X2579999Y19865D01*
X2580374Y19949D01*
X2580791Y19990D01*
X2580874D01*
X2581124Y19949D01*
X2581458Y19865D01*
X2581874Y19699D01*
X2582291Y19407D01*
X2582499Y19199D01*
X2582707Y18990D01*
X2582915Y18699D01*
X2583124Y18366D01*
X2583290Y17991D01*
X2583415Y17574D01*
X2591871Y-9502D01*
X2599245Y18074D01*
Y18116D01*
X2599286Y18157D01*
X2599370Y18366D01*
X2599495Y18699D01*
X2599744Y19032D01*
X2600078Y19365D01*
X2600494Y19699D01*
X2601036Y19907D01*
X2601369Y19990D01*
X2601910D01*
X2602119Y19949D01*
D02*
G37*
G36*
X2073168Y-146646D02*
X2073418Y-146688D01*
X2073710Y-146771D01*
X2074001Y-146896D01*
X2074293Y-147063D01*
X2074626Y-147313D01*
X2074668Y-147354D01*
X2074793Y-147438D01*
X2074960Y-147604D01*
X2075168Y-147771D01*
X2075459Y-148021D01*
X2075793Y-148354D01*
X2076501Y-149062D01*
X2077292Y-149895D01*
X2078084Y-150812D01*
X2078792Y-151812D01*
X2079084Y-152312D01*
X2079375Y-152811D01*
Y-152853D01*
X2079417Y-152936D01*
X2079500Y-153061D01*
X2079583Y-153270D01*
X2079667Y-153561D01*
X2079792Y-153853D01*
X2079917Y-154228D01*
X2080042Y-154603D01*
X2080167Y-155061D01*
X2080292Y-155561D01*
X2080500Y-156644D01*
X2080667Y-157893D01*
X2080708Y-159268D01*
Y-159351D01*
Y-159560D01*
X2080667Y-159893D01*
X2080625Y-160351D01*
X2080542Y-160893D01*
X2080417Y-161518D01*
X2080250Y-162226D01*
X2080042Y-162976D01*
X2079750Y-163809D01*
X2079375Y-164642D01*
X2078959Y-165516D01*
X2078417Y-166391D01*
X2077792Y-167266D01*
X2077084Y-168141D01*
X2076251Y-168974D01*
X2075293Y-169765D01*
X2075210Y-169807D01*
X2075043Y-169932D01*
X2074710Y-170140D01*
X2074293Y-170432D01*
X2073752Y-170723D01*
X2073085Y-171098D01*
X2072294Y-171473D01*
X2071419Y-171848D01*
X2070461Y-172223D01*
X2069336Y-172598D01*
X2068170Y-172973D01*
X2066878Y-173265D01*
X2065504Y-173556D01*
X2064046Y-173764D01*
X2062504Y-173889D01*
X2060880Y-173931D01*
X2060213D01*
X2059922Y-173889D01*
X2059630D01*
X2059255Y-173848D01*
X2058422Y-173806D01*
X2057506Y-173681D01*
X2056464Y-173556D01*
X2055298Y-173348D01*
X2054132Y-173098D01*
X2052882Y-172806D01*
X2051632Y-172431D01*
X2050424Y-171973D01*
X2049175Y-171432D01*
X2048008Y-170807D01*
X2046884Y-170099D01*
X2045884Y-169265D01*
X2045842Y-169224D01*
X2045717Y-169099D01*
X2045509Y-168891D01*
X2045217Y-168599D01*
X2044926Y-168224D01*
X2044551Y-167766D01*
X2044176Y-167266D01*
X2043801Y-166683D01*
X2043426Y-166016D01*
X2043051Y-165308D01*
X2042676Y-164558D01*
X2042385Y-163725D01*
X2042093Y-162892D01*
X2041885Y-161976D01*
X2041760Y-161018D01*
X2041718Y-160018D01*
Y-159976D01*
Y-159810D01*
Y-159601D01*
Y-159310D01*
X2041760Y-158976D01*
X2041801Y-158560D01*
X2041843Y-158102D01*
X2041885Y-157602D01*
X2042051Y-156519D01*
X2042260Y-155394D01*
X2042593Y-154311D01*
X2042801Y-153770D01*
X2043009Y-153311D01*
Y-153270D01*
X2043093Y-153186D01*
X2043176Y-153061D01*
X2043259Y-152853D01*
X2043426Y-152603D01*
X2043634Y-152353D01*
X2044134Y-151687D01*
X2044467Y-151354D01*
X2044801Y-150979D01*
X2045217Y-150562D01*
X2045676Y-150187D01*
X2046175Y-149770D01*
X2046675Y-149396D01*
X2047300Y-149021D01*
X2047925Y-148646D01*
X2047966D01*
X2048050Y-148604D01*
X2048175Y-148521D01*
X2048341Y-148438D01*
X2048800Y-148313D01*
X2049299Y-148271D01*
X2049508D01*
X2049716Y-148313D01*
X2049966Y-148396D01*
X2050299Y-148479D01*
X2050632Y-148646D01*
X2050966Y-148854D01*
X2051299Y-149146D01*
X2051341Y-149187D01*
X2051424Y-149312D01*
X2051549Y-149479D01*
X2051674Y-149729D01*
X2051841Y-150021D01*
X2051965Y-150354D01*
X2052049Y-150687D01*
X2052090Y-151103D01*
Y-151187D01*
X2052049Y-151354D01*
X2052007Y-151645D01*
X2051882Y-151978D01*
X2051674Y-152353D01*
X2051424Y-152770D01*
X2051007Y-153145D01*
X2050466Y-153520D01*
X2050383Y-153561D01*
X2050174Y-153686D01*
X2049883Y-153936D01*
X2049508Y-154228D01*
X2049133Y-154603D01*
X2048716Y-155103D01*
X2048341Y-155602D01*
X2048008Y-156227D01*
X2047966Y-156269D01*
X2047925Y-156477D01*
X2047800Y-156769D01*
X2047675Y-157185D01*
X2047592Y-157727D01*
X2047467Y-158352D01*
X2047425Y-159143D01*
X2047383Y-160018D01*
Y-160060D01*
Y-160143D01*
Y-160351D01*
X2047425Y-160559D01*
X2047467Y-160851D01*
X2047550Y-161184D01*
X2047758Y-161934D01*
X2047925Y-162392D01*
X2048091Y-162809D01*
X2048341Y-163309D01*
X2048633Y-163767D01*
X2048966Y-164225D01*
X2049383Y-164683D01*
X2049799Y-165142D01*
X2050341Y-165600D01*
X2050383Y-165641D01*
X2050508Y-165725D01*
X2050716Y-165850D01*
X2051007Y-166016D01*
X2051382Y-166266D01*
X2051841Y-166475D01*
X2052382Y-166724D01*
X2053007Y-166975D01*
X2053715Y-167266D01*
X2054507Y-167516D01*
X2055340Y-167724D01*
X2056298Y-167933D01*
X2057339Y-168141D01*
X2058422Y-168266D01*
X2059630Y-168349D01*
X2060880Y-168391D01*
X2061505D01*
X2061921Y-168349D01*
X2062463Y-168307D01*
X2063088Y-168266D01*
X2063796Y-168183D01*
X2064546Y-168057D01*
X2065337Y-167933D01*
X2066212Y-167766D01*
X2067045Y-167516D01*
X2067920Y-167266D01*
X2068753Y-166975D01*
X2069586Y-166641D01*
X2070419Y-166225D01*
X2071169Y-165766D01*
X2071211Y-165725D01*
X2071336Y-165641D01*
X2071544Y-165516D01*
X2071752Y-165308D01*
X2072085Y-165017D01*
X2072377Y-164725D01*
X2072752Y-164350D01*
X2073085Y-163934D01*
X2073460Y-163517D01*
X2073835Y-162976D01*
X2074126Y-162434D01*
X2074418Y-161851D01*
X2074668Y-161226D01*
X2074876Y-160559D01*
X2075001Y-159893D01*
X2075043Y-159143D01*
Y-159101D01*
Y-158935D01*
X2075001Y-158727D01*
X2074960Y-158435D01*
X2074918Y-158060D01*
X2074835Y-157602D01*
X2074710Y-157144D01*
X2074543Y-156602D01*
X2074335Y-156019D01*
X2074043Y-155436D01*
X2073710Y-154811D01*
X2073335Y-154144D01*
X2072877Y-153520D01*
X2072335Y-152853D01*
X2071711Y-152228D01*
X2071002Y-151603D01*
X2070961Y-151562D01*
X2070836Y-151437D01*
X2070669Y-151270D01*
X2070461Y-151020D01*
X2070294Y-150729D01*
X2070128Y-150395D01*
X2070003Y-149979D01*
X2069961Y-149562D01*
Y-149521D01*
Y-149354D01*
X2070003Y-149146D01*
X2070086Y-148896D01*
X2070169Y-148562D01*
X2070336Y-148229D01*
X2070544Y-147854D01*
X2070836Y-147521D01*
X2070877Y-147479D01*
X2071002Y-147396D01*
X2071169Y-147229D01*
X2071419Y-147063D01*
X2071711Y-146896D01*
X2072044Y-146730D01*
X2072419Y-146646D01*
X2072835Y-146605D01*
X2073002D01*
X2073168Y-146646D01*
D02*
G37*
G36*
X2068003Y-112655D02*
X2068253D01*
X2068586Y-112697D01*
X2068961Y-112738D01*
X2069378Y-112822D01*
X2070336Y-112988D01*
X2071419Y-113280D01*
X2072544Y-113696D01*
X2073710Y-114196D01*
X2074335Y-114530D01*
X2074918Y-114904D01*
X2075501Y-115279D01*
X2076084Y-115738D01*
X2076667Y-116237D01*
X2077209Y-116779D01*
X2077751Y-117362D01*
X2078250Y-117987D01*
X2078709Y-118695D01*
X2079125Y-119487D01*
X2079500Y-120278D01*
X2079875Y-121194D01*
X2080167Y-122111D01*
X2080417Y-123152D01*
X2080583Y-124235D01*
X2080708Y-125402D01*
Y-125443D01*
Y-125652D01*
Y-125902D01*
Y-126318D01*
Y-126776D01*
X2080667Y-127318D01*
X2080583Y-127901D01*
X2080500Y-128609D01*
X2080333Y-129317D01*
X2080167Y-130067D01*
X2079958Y-130859D01*
X2079667Y-131692D01*
X2079292Y-132483D01*
X2078875Y-133316D01*
X2078417Y-134150D01*
X2077834Y-134941D01*
X2077792Y-134983D01*
X2077667Y-135149D01*
X2077459Y-135358D01*
X2077167Y-135649D01*
X2076792Y-136024D01*
X2076334Y-136399D01*
X2075793Y-136816D01*
X2075210Y-137232D01*
X2074543Y-137690D01*
X2073752Y-138107D01*
X2072960Y-138482D01*
X2072044Y-138857D01*
X2071086Y-139148D01*
X2070044Y-139356D01*
X2068961Y-139523D01*
X2067795Y-139565D01*
X2044676D01*
X2044467Y-139523D01*
X2044009Y-139398D01*
X2043468Y-139232D01*
X2042926Y-138898D01*
X2042676Y-138690D01*
X2042468Y-138399D01*
X2042260Y-138107D01*
X2042135Y-137732D01*
X2042051Y-137315D01*
X2042010Y-136816D01*
Y-136774D01*
Y-136691D01*
Y-136566D01*
X2042051Y-136357D01*
X2042176Y-135899D01*
X2042385Y-135399D01*
X2042510Y-135149D01*
X2042718Y-134858D01*
X2042968Y-134649D01*
X2043218Y-134441D01*
X2043593Y-134233D01*
X2043968Y-134108D01*
X2044426Y-134025D01*
X2044926Y-133983D01*
X2068170D01*
X2068420Y-133941D01*
X2068711Y-133900D01*
X2069086Y-133816D01*
X2069503Y-133733D01*
X2069961Y-133608D01*
X2070461Y-133483D01*
X2070961Y-133275D01*
X2071502Y-133067D01*
X2072044Y-132775D01*
X2072585Y-132442D01*
X2073127Y-132067D01*
X2073668Y-131608D01*
X2074210Y-131109D01*
Y-131067D01*
X2074252Y-131025D01*
X2074335Y-130900D01*
X2074376Y-130734D01*
X2074460Y-130526D01*
X2074585Y-130275D01*
X2074751Y-129651D01*
X2074960Y-128901D01*
X2075085Y-128026D01*
X2075168Y-127026D01*
Y-125943D01*
Y-125902D01*
Y-125860D01*
X2075126Y-125610D01*
X2075085Y-125235D01*
X2075001Y-124735D01*
X2074835Y-124152D01*
X2074626Y-123486D01*
X2074376Y-122778D01*
X2074043Y-122028D01*
X2073585Y-121320D01*
X2073085Y-120611D01*
X2072460Y-119945D01*
X2071711Y-119362D01*
X2070877Y-118862D01*
X2069878Y-118487D01*
X2068753Y-118237D01*
X2068128Y-118195D01*
X2067462Y-118154D01*
X2044676D01*
X2044467Y-118112D01*
X2044009Y-117987D01*
X2043468Y-117820D01*
X2042926Y-117487D01*
X2042676Y-117279D01*
X2042468Y-116987D01*
X2042260Y-116696D01*
X2042135Y-116321D01*
X2042051Y-115904D01*
X2042010Y-115404D01*
Y-115363D01*
Y-115279D01*
Y-115154D01*
X2042051Y-114946D01*
X2042176Y-114530D01*
X2042385Y-113988D01*
X2042510Y-113738D01*
X2042718Y-113488D01*
X2042968Y-113280D01*
X2043218Y-113030D01*
X2043593Y-112863D01*
X2043968Y-112738D01*
X2044426Y-112655D01*
X2044926Y-112613D01*
X2067753D01*
X2068003Y-112655D01*
D02*
G37*
G36*
X2045467Y-77872D02*
X2045925Y-77997D01*
X2046467Y-78205D01*
X2046717Y-78372D01*
X2047009Y-78580D01*
X2047258Y-78789D01*
X2047467Y-79080D01*
X2047675Y-79455D01*
X2047800Y-79830D01*
X2047883Y-80288D01*
X2047925Y-80830D01*
Y-89828D01*
X2079583D01*
X2079750Y-89869D01*
X2080208Y-89994D01*
X2080750Y-90203D01*
X2081041Y-90327D01*
X2081333Y-90536D01*
X2081583Y-90786D01*
X2081791Y-91036D01*
X2081958Y-91411D01*
X2082124Y-91785D01*
X2082208Y-92244D01*
X2082249Y-92744D01*
Y-92785D01*
Y-92868D01*
Y-92993D01*
X2082208Y-93202D01*
X2082083Y-93660D01*
X2081875Y-94160D01*
X2081708Y-94451D01*
X2081541Y-94701D01*
X2081291Y-94951D01*
X2081000Y-95160D01*
X2080667Y-95368D01*
X2080250Y-95493D01*
X2079792Y-95576D01*
X2079292Y-95618D01*
X2047925D01*
Y-104740D01*
Y-104782D01*
Y-104865D01*
Y-104990D01*
X2047883Y-105199D01*
X2047758Y-105657D01*
X2047550Y-106198D01*
X2047425Y-106448D01*
X2047217Y-106740D01*
X2046967Y-106990D01*
X2046675Y-107198D01*
X2046342Y-107406D01*
X2045967Y-107531D01*
X2045509Y-107615D01*
X2045009Y-107656D01*
X2044717D01*
X2044551Y-107615D01*
X2044093Y-107490D01*
X2043509Y-107281D01*
X2043259Y-107156D01*
X2042968Y-106948D01*
X2042718Y-106698D01*
X2042510Y-106407D01*
X2042343Y-106073D01*
X2042176Y-105698D01*
X2042093Y-105240D01*
X2042051Y-104740D01*
Y-80830D01*
Y-80788D01*
Y-80705D01*
Y-80538D01*
X2042093Y-80372D01*
X2042218Y-79872D01*
X2042426Y-79330D01*
X2042593Y-79039D01*
X2042760Y-78789D01*
X2043009Y-78539D01*
X2043301Y-78289D01*
X2043634Y-78122D01*
X2044051Y-77956D01*
X2044467Y-77872D01*
X2045009Y-77831D01*
X2045259D01*
X2045467Y-77872D01*
D02*
G37*
G36*
X-80372Y20907D02*
X-79872Y20782D01*
X-79330Y20574D01*
X-79039Y20407D01*
X-78789Y20240D01*
X-78539Y19991D01*
X-78289Y19699D01*
X-78122Y19366D01*
X-77956Y18949D01*
X-77872Y18533D01*
X-77831Y17991D01*
Y17949D01*
Y17866D01*
Y17741D01*
X-77872Y17533D01*
X-77997Y17075D01*
X-78205Y16533D01*
X-78372Y16283D01*
X-78580Y15991D01*
X-78789Y15742D01*
X-79080Y15533D01*
X-79455Y15325D01*
X-79830Y15200D01*
X-80288Y15117D01*
X-80830Y15075D01*
X-89828D01*
Y-16292D01*
Y-16334D01*
Y-16417D01*
Y-16583D01*
X-89869Y-16750D01*
X-89994Y-17208D01*
X-90203Y-17750D01*
X-90327Y-18041D01*
X-90536Y-18333D01*
X-90786Y-18583D01*
X-91036Y-18791D01*
X-91411Y-18958D01*
X-91785Y-19124D01*
X-92244Y-19208D01*
X-92744Y-19249D01*
X-92993D01*
X-93202Y-19208D01*
X-93660Y-19083D01*
X-94160Y-18874D01*
X-94451Y-18708D01*
X-94701Y-18541D01*
X-94951Y-18291D01*
X-95160Y-18000D01*
X-95368Y-17666D01*
X-95493Y-17250D01*
X-95576Y-16792D01*
X-95618Y-16292D01*
Y15075D01*
X-104990D01*
X-105199Y15117D01*
X-105657Y15242D01*
X-106198Y15450D01*
X-106448Y15575D01*
X-106740Y15783D01*
X-106990Y16033D01*
X-107198Y16325D01*
X-107406Y16658D01*
X-107531Y17033D01*
X-107615Y17491D01*
X-107656Y17991D01*
Y18033D01*
Y18116D01*
Y18283D01*
X-107615Y18449D01*
X-107490Y18908D01*
X-107281Y19491D01*
X-107156Y19741D01*
X-106948Y20032D01*
X-106698Y20282D01*
X-106407Y20490D01*
X-106073Y20657D01*
X-105698Y20824D01*
X-105240Y20907D01*
X-104740Y20949D01*
X-80538D01*
X-80372Y20907D01*
D02*
G37*
G36*
X2649023Y20240D02*
X2649440Y20199D01*
X2649898Y20157D01*
X2650398Y20115D01*
X2651481Y19949D01*
X2652606Y19740D01*
X2653689Y19407D01*
X2654231Y19199D01*
X2654689Y18990D01*
X2654731D01*
X2654814Y18907D01*
X2654939Y18824D01*
X2655147Y18741D01*
X2655397Y18574D01*
X2655647Y18366D01*
X2656313Y17866D01*
X2656646Y17533D01*
X2657021Y17199D01*
X2657438Y16783D01*
X2657813Y16324D01*
X2658229Y15825D01*
X2658604Y15325D01*
X2658979Y14700D01*
X2659354Y14075D01*
Y14033D01*
X2659396Y13950D01*
X2659479Y13825D01*
X2659562Y13658D01*
X2659688Y13200D01*
X2659729Y12701D01*
Y12659D01*
Y12492D01*
X2659688Y12284D01*
X2659604Y12034D01*
X2659521Y11701D01*
X2659354Y11367D01*
X2659146Y11034D01*
X2658854Y10701D01*
X2658813Y10659D01*
X2658688Y10576D01*
X2658521Y10451D01*
X2658271Y10326D01*
X2657979Y10159D01*
X2657646Y10035D01*
X2657313Y9951D01*
X2656896Y9909D01*
X2656813D01*
X2656646Y9951D01*
X2656355Y9993D01*
X2656022Y10118D01*
X2655647Y10326D01*
X2655230Y10576D01*
X2654855Y10993D01*
X2654480Y11534D01*
X2654439Y11617D01*
X2654314Y11826D01*
X2654064Y12117D01*
X2653772Y12492D01*
X2653398Y12867D01*
X2652898Y13284D01*
X2652397Y13658D01*
X2651773Y13992D01*
X2651731Y14033D01*
X2651523Y14075D01*
X2651231Y14200D01*
X2650815Y14325D01*
X2650273Y14408D01*
X2649648Y14533D01*
X2648857Y14575D01*
X2647982Y14617D01*
X2647649D01*
X2647440Y14575D01*
X2647149Y14533D01*
X2646816Y14450D01*
X2646066Y14242D01*
X2645608Y14075D01*
X2645191Y13908D01*
X2644691Y13658D01*
X2644233Y13367D01*
X2643775Y13034D01*
X2643317Y12617D01*
X2642858Y12201D01*
X2642400Y11659D01*
X2642358Y11617D01*
X2642275Y11492D01*
X2642150Y11284D01*
X2641984Y10993D01*
X2641734Y10618D01*
X2641525Y10159D01*
X2641276Y9618D01*
X2641025Y8993D01*
X2640734Y8285D01*
X2640484Y7494D01*
X2640276Y6660D01*
X2640067Y5702D01*
X2639859Y4661D01*
X2639734Y3578D01*
X2639651Y2370D01*
X2639609Y1120D01*
Y1037D01*
Y829D01*
Y495D01*
X2639651Y79D01*
X2639692Y-463D01*
X2639734Y-1088D01*
X2639818Y-1796D01*
X2639943Y-2546D01*
X2640067Y-3337D01*
X2640234Y-4212D01*
X2640484Y-5045D01*
X2640734Y-5920D01*
X2641025Y-6753D01*
X2641359Y-7586D01*
X2641775Y-8419D01*
X2642234Y-9169D01*
X2642275Y-9211D01*
X2642358Y-9336D01*
X2642484Y-9544D01*
X2642692Y-9752D01*
X2642983Y-10085D01*
X2643275Y-10377D01*
X2643650Y-10752D01*
X2644066Y-11085D01*
X2644483Y-11460D01*
X2645024Y-11835D01*
X2645566Y-12126D01*
X2646149Y-12418D01*
X2646774Y-12668D01*
X2647440Y-12876D01*
X2648107Y-13001D01*
X2648857Y-13043D01*
X2649065D01*
X2649273Y-13001D01*
X2649565Y-12960D01*
X2649940Y-12918D01*
X2650398Y-12835D01*
X2650856Y-12710D01*
X2651398Y-12543D01*
X2651981Y-12335D01*
X2652564Y-12043D01*
X2653189Y-11710D01*
X2653856Y-11335D01*
X2654480Y-10877D01*
X2655147Y-10335D01*
X2655772Y-9711D01*
X2656396Y-9002D01*
X2656438Y-8961D01*
X2656563Y-8836D01*
X2656730Y-8669D01*
X2656980Y-8461D01*
X2657271Y-8294D01*
X2657605Y-8127D01*
X2658021Y-8003D01*
X2658438Y-7961D01*
X2658646D01*
X2658854Y-8003D01*
X2659104Y-8086D01*
X2659438Y-8169D01*
X2659771Y-8336D01*
X2660146Y-8544D01*
X2660479Y-8836D01*
X2660521Y-8877D01*
X2660604Y-9002D01*
X2660771Y-9169D01*
X2660937Y-9419D01*
X2661104Y-9711D01*
X2661270Y-10044D01*
X2661354Y-10419D01*
X2661395Y-10835D01*
Y-10877D01*
Y-11002D01*
X2661354Y-11168D01*
X2661312Y-11418D01*
X2661229Y-11710D01*
X2661104Y-12002D01*
X2660937Y-12293D01*
X2660687Y-12626D01*
X2660645Y-12668D01*
X2660562Y-12793D01*
X2660396Y-12960D01*
X2660229Y-13168D01*
X2659979Y-13460D01*
X2659646Y-13793D01*
X2658938Y-14501D01*
X2658105Y-15292D01*
X2657188Y-16084D01*
X2656188Y-16792D01*
X2655688Y-17084D01*
X2655189Y-17375D01*
X2655147D01*
X2655063Y-17417D01*
X2654939Y-17500D01*
X2654731Y-17584D01*
X2654439Y-17667D01*
X2654147Y-17792D01*
X2653772Y-17917D01*
X2653398Y-18042D01*
X2652939Y-18167D01*
X2652439Y-18292D01*
X2651356Y-18500D01*
X2650107Y-18666D01*
X2648732Y-18708D01*
X2648440D01*
X2648107Y-18666D01*
X2647649Y-18625D01*
X2647107Y-18542D01*
X2646483Y-18417D01*
X2645774Y-18250D01*
X2645024Y-18042D01*
X2644191Y-17750D01*
X2643358Y-17375D01*
X2642484Y-16959D01*
X2641609Y-16417D01*
X2640734Y-15792D01*
X2639859Y-15084D01*
X2639026Y-14251D01*
X2638235Y-13293D01*
X2638193Y-13210D01*
X2638068Y-13043D01*
X2637860Y-12710D01*
X2637568Y-12293D01*
X2637277Y-11752D01*
X2636902Y-11085D01*
X2636527Y-10294D01*
X2636152Y-9419D01*
X2635777Y-8461D01*
X2635402Y-7336D01*
X2635027Y-6170D01*
X2634735Y-4878D01*
X2634444Y-3504D01*
X2634236Y-2046D01*
X2634111Y-505D01*
X2634069Y1120D01*
Y1162D01*
Y1245D01*
Y1370D01*
Y1537D01*
Y1787D01*
X2634111Y2078D01*
Y2370D01*
X2634152Y2745D01*
X2634194Y3578D01*
X2634319Y4494D01*
X2634444Y5536D01*
X2634652Y6702D01*
X2634902Y7868D01*
X2635194Y9118D01*
X2635569Y10368D01*
X2636027Y11576D01*
X2636568Y12825D01*
X2637193Y13992D01*
X2637901Y15116D01*
X2638734Y16116D01*
X2638776Y16158D01*
X2638901Y16283D01*
X2639109Y16491D01*
X2639401Y16783D01*
X2639776Y17074D01*
X2640234Y17449D01*
X2640734Y17824D01*
X2641317Y18199D01*
X2641984Y18574D01*
X2642692Y18949D01*
X2643441Y19324D01*
X2644275Y19615D01*
X2645108Y19907D01*
X2646024Y20115D01*
X2646982Y20240D01*
X2647982Y20282D01*
X2648690D01*
X2649023Y20240D01*
D02*
G37*
G36*
X-205881Y20949D02*
X-205631Y20907D01*
X-205298Y20782D01*
X-204965Y20657D01*
X-204590Y20449D01*
X-204257Y20199D01*
X-204215Y20157D01*
X-204132Y20074D01*
X-203965Y19865D01*
X-203798Y19657D01*
X-203632Y19366D01*
X-203465Y18991D01*
X-203382Y18616D01*
X-203340Y18158D01*
Y18074D01*
Y17908D01*
X-203382Y17699D01*
X-203465Y17408D01*
X-212671Y-15209D01*
Y-15251D01*
X-212713Y-15292D01*
X-212796Y-15584D01*
X-213046Y-15959D01*
X-213338Y-16375D01*
X-213796Y-16792D01*
X-214379Y-17167D01*
X-214754Y-17333D01*
X-215129Y-17458D01*
X-215587Y-17500D01*
X-216087Y-17542D01*
X-216337D01*
X-216545Y-17500D01*
X-217003Y-17417D01*
X-217545Y-17250D01*
X-218128Y-17000D01*
X-218711Y-16583D01*
X-219003Y-16334D01*
X-219211Y-16042D01*
X-219419Y-15667D01*
X-219586Y-15292D01*
X-229917Y17283D01*
Y17325D01*
Y17366D01*
X-229958Y17574D01*
X-230000Y17908D01*
Y18241D01*
Y18283D01*
Y18449D01*
X-229958Y18657D01*
X-229875Y18908D01*
X-229792Y19241D01*
X-229667Y19574D01*
X-229459Y19907D01*
X-229167Y20199D01*
X-229125Y20240D01*
X-229000Y20324D01*
X-228834Y20449D01*
X-228625Y20615D01*
X-228334Y20740D01*
X-228001Y20865D01*
X-227626Y20949D01*
X-227209Y20990D01*
X-227126D01*
X-226876Y20949D01*
X-226542Y20865D01*
X-226126Y20699D01*
X-225709Y20407D01*
X-225501Y20199D01*
X-225293Y19991D01*
X-225085Y19699D01*
X-224876Y19366D01*
X-224710Y18991D01*
X-224585Y18574D01*
X-216129Y-8502D01*
X-208755Y19074D01*
Y19116D01*
X-208714Y19157D01*
X-208631Y19366D01*
X-208505Y19699D01*
X-208256Y20032D01*
X-207922Y20365D01*
X-207506Y20699D01*
X-206964Y20907D01*
X-206631Y20990D01*
X-206089D01*
X-205881Y20949D01*
D02*
G37*
G36*
X-114946D02*
X-114530Y20824D01*
X-113988Y20615D01*
X-113738Y20490D01*
X-113488Y20282D01*
X-113280Y20032D01*
X-113030Y19782D01*
X-112863Y19407D01*
X-112738Y19032D01*
X-112655Y18574D01*
X-112613Y18074D01*
Y-4462D01*
Y-4503D01*
Y-4586D01*
Y-4753D01*
X-112655Y-5003D01*
Y-5253D01*
X-112697Y-5586D01*
X-112738Y-5961D01*
X-112822Y-6378D01*
X-112988Y-7336D01*
X-113280Y-8419D01*
X-113696Y-9544D01*
X-114196Y-10710D01*
X-114530Y-11335D01*
X-114904Y-11918D01*
X-115279Y-12501D01*
X-115738Y-13084D01*
X-116237Y-13668D01*
X-116779Y-14209D01*
X-117362Y-14751D01*
X-117987Y-15251D01*
X-118695Y-15709D01*
X-119487Y-16125D01*
X-120278Y-16500D01*
X-121194Y-16875D01*
X-122111Y-17167D01*
X-123152Y-17417D01*
X-124235Y-17583D01*
X-125402Y-17708D01*
X-126776D01*
X-127318Y-17666D01*
X-127901Y-17583D01*
X-128609Y-17500D01*
X-129317Y-17333D01*
X-130067Y-17167D01*
X-130859Y-16958D01*
X-131692Y-16667D01*
X-132483Y-16292D01*
X-133316Y-15875D01*
X-134150Y-15417D01*
X-134941Y-14834D01*
X-134983Y-14792D01*
X-135149Y-14667D01*
X-135358Y-14459D01*
X-135649Y-14167D01*
X-136024Y-13793D01*
X-136399Y-13334D01*
X-136816Y-12793D01*
X-137232Y-12210D01*
X-137690Y-11543D01*
X-138107Y-10752D01*
X-138482Y-9960D01*
X-138857Y-9044D01*
X-139148Y-8086D01*
X-139356Y-7044D01*
X-139523Y-5961D01*
X-139565Y-4795D01*
Y18074D01*
Y18116D01*
Y18199D01*
Y18324D01*
X-139523Y18533D01*
X-139398Y18991D01*
X-139232Y19532D01*
X-138898Y20074D01*
X-138690Y20324D01*
X-138399Y20532D01*
X-138107Y20740D01*
X-137732Y20865D01*
X-137315Y20949D01*
X-136816Y20990D01*
X-136566D01*
X-136357Y20949D01*
X-135899Y20824D01*
X-135399Y20615D01*
X-135149Y20490D01*
X-134858Y20282D01*
X-134649Y20032D01*
X-134441Y19782D01*
X-134233Y19407D01*
X-134108Y19032D01*
X-134025Y18574D01*
X-133983Y18074D01*
Y-4795D01*
Y-4836D01*
Y-4961D01*
Y-5170D01*
X-133941Y-5420D01*
X-133900Y-5711D01*
X-133816Y-6086D01*
X-133733Y-6503D01*
X-133608Y-6961D01*
X-133483Y-7461D01*
X-133275Y-7961D01*
X-133067Y-8502D01*
X-132775Y-9044D01*
X-132442Y-9585D01*
X-132067Y-10127D01*
X-131608Y-10668D01*
X-131109Y-11210D01*
X-131067D01*
X-131025Y-11251D01*
X-130900Y-11335D01*
X-130734Y-11377D01*
X-130526Y-11460D01*
X-130275Y-11585D01*
X-129651Y-11751D01*
X-128901Y-11960D01*
X-128026Y-12085D01*
X-127026Y-12168D01*
X-125860D01*
X-125610Y-12126D01*
X-125235Y-12085D01*
X-124735Y-12001D01*
X-124152Y-11835D01*
X-123486Y-11626D01*
X-122778Y-11377D01*
X-122028Y-11043D01*
X-121320Y-10585D01*
X-120611Y-10085D01*
X-119945Y-9460D01*
X-119362Y-8711D01*
X-118862Y-7877D01*
X-118487Y-6878D01*
X-118237Y-5753D01*
X-118195Y-5128D01*
X-118154Y-4462D01*
Y18074D01*
Y18116D01*
Y18199D01*
Y18324D01*
X-118112Y18533D01*
X-117987Y18991D01*
X-117820Y19532D01*
X-117487Y20074D01*
X-117279Y20324D01*
X-116987Y20532D01*
X-116696Y20740D01*
X-116321Y20865D01*
X-115904Y20949D01*
X-115404Y20990D01*
X-115154D01*
X-114946Y20949D01*
D02*
G37*
G36*
X2626988Y745D02*
X2627446Y620D01*
X2627946Y454D01*
X2628487Y120D01*
X2628695Y-130D01*
X2628904Y-380D01*
X2629112Y-713D01*
X2629237Y-1088D01*
X2629320Y-1504D01*
X2629362Y-2004D01*
Y-2046D01*
Y-2129D01*
Y-2254D01*
X2629320Y-2421D01*
X2629195Y-2879D01*
X2629029Y-3379D01*
X2628654Y-3879D01*
X2628445Y-4129D01*
X2628154Y-4337D01*
X2627862Y-4503D01*
X2627446Y-4628D01*
X2627029Y-4712D01*
X2626529Y-4753D01*
X2613449D01*
X2613282Y-4712D01*
X2612824Y-4587D01*
X2612366Y-4420D01*
X2611866Y-4087D01*
X2611617Y-3879D01*
X2611408Y-3587D01*
X2611241Y-3295D01*
X2611117Y-2921D01*
X2611033Y-2504D01*
X2610992Y-2004D01*
Y-1963D01*
Y-1879D01*
Y-1754D01*
X2611033Y-1546D01*
X2611117Y-1129D01*
X2611325Y-588D01*
X2611658Y-88D01*
X2611866Y120D01*
X2612116Y370D01*
X2612450Y537D01*
X2612824Y662D01*
X2613241Y745D01*
X2613699Y787D01*
X2626779D01*
X2626988Y745D01*
D02*
G37*
%LPC*%
G36*
X74617Y986944D02*
X68819D01*
Y978541D01*
X75277D01*
X75555Y978576D01*
X75867Y978611D01*
X76249Y978680D01*
X76666Y978750D01*
X77117Y978889D01*
X77603Y979062D01*
X78089Y979271D01*
X78541Y979548D01*
X78958Y979896D01*
X79339Y980277D01*
X79687Y980764D01*
X79930Y981319D01*
X80069Y981944D01*
X80138Y982673D01*
Y982708D01*
Y982777D01*
Y982882D01*
X80103Y983021D01*
X80069Y983368D01*
X79964Y983854D01*
X79791Y984340D01*
X79513Y984861D01*
X79166Y985382D01*
X78680Y985833D01*
X78610Y985868D01*
X78402Y986007D01*
X78089Y986180D01*
X77638Y986389D01*
X77048Y986597D01*
X76353Y986770D01*
X75555Y986909D01*
X74617Y986944D01*
D02*
G37*
G36*
X74791Y973819D02*
X68819D01*
Y964757D01*
X75242D01*
X75520Y964792D01*
X75867Y964826D01*
X76284Y964896D01*
X76770Y965000D01*
X77256Y965139D01*
X77777Y965312D01*
X78298Y965555D01*
X78784Y965833D01*
X79270Y966180D01*
X79687Y966632D01*
X80034Y967118D01*
X80312Y967708D01*
X80485Y968403D01*
X80555Y969167D01*
Y969236D01*
Y969375D01*
X80520Y969583D01*
X80450Y969896D01*
X80381Y970243D01*
X80242Y970625D01*
X80069Y971076D01*
X79826Y971493D01*
X79513Y971944D01*
X79166Y972361D01*
X78680Y972743D01*
X78124Y973090D01*
X77464Y973403D01*
X76701Y973611D01*
X75798Y973785D01*
X74791Y973819D01*
D02*
G37*
G36*
X22222Y986979D02*
X14618D01*
Y979271D01*
X23090D01*
X23229Y979305D01*
X23437Y979340D01*
X23680Y979375D01*
X23958Y979479D01*
X24236Y979583D01*
X24514Y979722D01*
X24792Y979930D01*
X25104Y980173D01*
X25347Y980451D01*
X25590Y980798D01*
X25798Y981215D01*
X25937Y981701D01*
X26042Y982291D01*
X26076Y982916D01*
Y982951D01*
Y983090D01*
X26042Y983298D01*
X26007Y983541D01*
X25972Y983854D01*
X25868Y984201D01*
X25764Y984583D01*
X25590Y984965D01*
X25382Y985312D01*
X25139Y985694D01*
X24826Y986041D01*
X24444Y986354D01*
X23993Y986597D01*
X23507Y986805D01*
X22917Y986944D01*
X22222Y986979D01*
D02*
G37*
G36*
X148748Y981354D02*
X148505D01*
X148332Y981319D01*
X148123Y981284D01*
X147880Y981215D01*
X147325Y981007D01*
X147012Y980868D01*
X146700Y980694D01*
X146353Y980451D01*
X146040Y980208D01*
X145693Y979896D01*
X145380Y979514D01*
X145068Y979097D01*
X144755Y978611D01*
Y978576D01*
X144686Y978507D01*
X144651Y978368D01*
X144547Y978194D01*
X144443Y977951D01*
X144339Y977673D01*
X144235Y977326D01*
X144096Y976979D01*
X143957Y976562D01*
X143853Y976111D01*
X143748Y975659D01*
X143644Y975139D01*
X143505Y974028D01*
X143436Y972812D01*
Y972778D01*
Y972673D01*
Y972500D01*
X143471Y972257D01*
Y971944D01*
X143505Y971597D01*
X143540Y971215D01*
X143610Y970798D01*
X143748Y969896D01*
X143991Y968889D01*
X144304Y967917D01*
X144755Y966944D01*
X144790Y966910D01*
X144825Y966840D01*
X144894Y966701D01*
X145033Y966528D01*
X145346Y966076D01*
X145797Y965590D01*
X146387Y965069D01*
X147047Y964618D01*
X147429Y964444D01*
X147846Y964305D01*
X148297Y964236D01*
X148748Y964201D01*
X148853D01*
X148991Y964236D01*
X149165D01*
X149373Y964271D01*
X149616Y964340D01*
X150207Y964549D01*
X150519Y964688D01*
X150832Y964861D01*
X151179Y965104D01*
X151491Y965347D01*
X151839Y965660D01*
X152151Y966042D01*
X152464Y966458D01*
X152741Y966944D01*
Y966979D01*
X152811Y967048D01*
X152880Y967187D01*
X152950Y967396D01*
X153054Y967639D01*
X153193Y967917D01*
X153297Y968229D01*
X153436Y968611D01*
X153575Y969028D01*
X153679Y969479D01*
X153922Y970486D01*
X154061Y971597D01*
X154130Y972812D01*
Y972847D01*
Y972951D01*
Y973160D01*
X154095Y973403D01*
Y973680D01*
X154061Y974028D01*
X154026Y974410D01*
X153957Y974826D01*
X153818Y975729D01*
X153575Y976701D01*
X153262Y977673D01*
X152845Y978611D01*
Y978646D01*
X152776Y978715D01*
X152707Y978854D01*
X152568Y979028D01*
X152255Y979479D01*
X151804Y980000D01*
X151214Y980486D01*
X150519Y980937D01*
X150103Y981111D01*
X149686Y981250D01*
X149234Y981319D01*
X148748Y981354D01*
D02*
G37*
%LPD*%
D16*
X1640000Y445000D02*
X1980000D01*
X1505750D02*
X1620000D01*
X2420000D02*
X2505250D01*
X2140000D02*
X2400000D01*
X2000000D02*
X2120000D01*
D17*
X1501005Y890000D02*
X1501248Y-1005D01*
X2063255Y890000D02*
X2063497Y-0D01*
D58*
X-20000Y879749D02*
X-5000Y890999D01*
X-20000Y879749D02*
Y891003D01*
Y902249D02*
X-5000Y890999D01*
X-20000Y890994D02*
X2551006D01*
X-20000D02*
Y902249D01*
X-77003Y891003D02*
X-20000D01*
X2515000Y890990D02*
X2572003D01*
X2515000Y879744D02*
Y890999D01*
X2500000Y890994D02*
X2515000Y879744D01*
Y890990D02*
Y902245D01*
X2500000Y890994D02*
X2515000Y902245D01*
X2500000Y-1006D02*
X2515000Y10245D01*
Y-1010D02*
Y10245D01*
X2500000Y-1006D02*
X2515000Y-12256D01*
Y-1001D01*
Y-1010D02*
X2572003D01*
X-77003Y-997D02*
X-20000D01*
Y-1006D02*
Y10249D01*
Y-1006D02*
X2551006D01*
X-20000Y10249D02*
X-5000Y-1001D01*
X-20000Y-12251D02*
Y-997D01*
Y-12251D02*
X-5000Y-1001D01*
M02*
