G04 Layer_Color=8388736*
%FSLAX44Y44*%
%MOMM*%
G71*
G01*
G75*
%ADD44R,0.8532X1.3032*%
%ADD45R,0.8532X1.1032*%
%ADD46R,1.0532X0.8032*%
%ADD47R,4.4032X2.8032*%
%ADD48R,1.1032X1.0032*%
%ADD49R,2.2032X1.0032*%
%ADD50R,1.5032X1.2032*%
%ADD51O,2.7032X0.9032*%
%ADD52R,1.3032X0.8532*%
%ADD53R,1.1032X0.8532*%
%ADD54R,1.0032X1.1032*%
%ADD55C,2.2032*%
%ADD56C,1.8032*%
%ADD57C,2.1032*%
%ADD58R,2.5032X2.5032*%
%ADD59C,2.5032*%
%ADD60C,2.7032*%
%ADD61R,2.7032X2.7032*%
%ADD62R,2.7032X2.7032*%
%ADD63R,2.1032X2.1032*%
%ADD64C,6.2032*%
%ADD65R,2.5032X2.5032*%
G36*
X855626Y810511D02*
X855762D01*
X856094Y810472D01*
X856484Y810414D01*
X856913Y810336D01*
X857342Y810219D01*
X857752Y810063D01*
X857771D01*
X857791Y810043D01*
X857849Y810024D01*
X857927Y809985D01*
X858122Y809868D01*
X858376Y809731D01*
X858649Y809536D01*
X858922Y809302D01*
X859195Y809029D01*
X859429Y808717D01*
X859449Y808678D01*
X859527Y808561D01*
X859624Y808366D01*
X859722Y808132D01*
X859839Y807839D01*
X859956Y807488D01*
X860034Y807117D01*
X860073Y806708D01*
X858454Y806590D01*
Y806610D01*
Y806649D01*
X858435Y806708D01*
X858415Y806786D01*
X858376Y807000D01*
X858298Y807273D01*
X858181Y807566D01*
X858025Y807859D01*
X857810Y808151D01*
X857557Y808405D01*
X857518Y808424D01*
X857420Y808502D01*
X857245Y808600D01*
X857011Y808717D01*
X856698Y808834D01*
X856308Y808931D01*
X855860Y809009D01*
X855333Y809029D01*
X855079D01*
X854962Y809009D01*
X854806D01*
X854475Y808951D01*
X854104Y808892D01*
X853733Y808795D01*
X853382Y808658D01*
X853226Y808561D01*
X853090Y808463D01*
X853070Y808444D01*
X852992Y808366D01*
X852875Y808249D01*
X852758Y808073D01*
X852621Y807878D01*
X852524Y807644D01*
X852446Y807390D01*
X852407Y807098D01*
Y807059D01*
Y806981D01*
X852426Y806844D01*
X852465Y806688D01*
X852524Y806513D01*
X852621Y806317D01*
X852738Y806142D01*
X852895Y805966D01*
X852914Y805947D01*
X853012Y805888D01*
X853070Y805849D01*
X853148Y805791D01*
X853265Y805752D01*
X853402Y805693D01*
X853558Y805615D01*
X853733Y805537D01*
X853928Y805479D01*
X854163Y805401D01*
X854436Y805303D01*
X854728Y805225D01*
X855060Y805147D01*
X855431Y805049D01*
X855450D01*
X855528Y805030D01*
X855626Y805010D01*
X855762Y804971D01*
X855938Y804932D01*
X856133Y804874D01*
X856562Y804776D01*
X857030Y804640D01*
X857498Y804503D01*
X857732Y804445D01*
X857927Y804367D01*
X858122Y804289D01*
X858279Y804230D01*
X858298D01*
X858337Y804211D01*
X858376Y804172D01*
X858454Y804133D01*
X858649Y804016D01*
X858903Y803879D01*
X859176Y803684D01*
X859449Y803450D01*
X859703Y803196D01*
X859917Y802923D01*
X859937Y802884D01*
X859995Y802787D01*
X860093Y802631D01*
X860190Y802396D01*
X860288Y802143D01*
X860385Y801831D01*
X860444Y801480D01*
X860463Y801109D01*
Y801089D01*
Y801070D01*
Y801012D01*
Y800933D01*
X860424Y800738D01*
X860385Y800485D01*
X860327Y800192D01*
X860210Y799861D01*
X860073Y799509D01*
X859878Y799178D01*
X859859Y799139D01*
X859761Y799022D01*
X859644Y798866D01*
X859449Y798671D01*
X859215Y798437D01*
X858922Y798202D01*
X858571Y797988D01*
X858181Y797773D01*
X858161D01*
X858122Y797754D01*
X858064Y797734D01*
X857986Y797695D01*
X857888Y797656D01*
X857771Y797617D01*
X857459Y797539D01*
X857108Y797442D01*
X856679Y797364D01*
X856230Y797305D01*
X855723Y797286D01*
X855431D01*
X855294Y797305D01*
X855118D01*
X854923Y797325D01*
X854709Y797344D01*
X854260Y797403D01*
X853772Y797500D01*
X853285Y797617D01*
X852816Y797773D01*
X852797D01*
X852758Y797793D01*
X852700Y797832D01*
X852621Y797871D01*
X852407Y797988D01*
X852153Y798163D01*
X851841Y798378D01*
X851548Y798632D01*
X851236Y798944D01*
X850963Y799295D01*
Y799314D01*
X850944Y799334D01*
X850905Y799392D01*
X850866Y799470D01*
X850807Y799568D01*
X850749Y799685D01*
X850632Y799978D01*
X850515Y800309D01*
X850398Y800719D01*
X850320Y801148D01*
X850281Y801616D01*
X851880Y801753D01*
Y801733D01*
Y801714D01*
X851900Y801597D01*
X851939Y801421D01*
X851978Y801187D01*
X852056Y800933D01*
X852134Y800660D01*
X852251Y800407D01*
X852387Y800153D01*
X852407Y800134D01*
X852465Y800056D01*
X852563Y799939D01*
X852719Y799802D01*
X852895Y799646D01*
X853109Y799470D01*
X853382Y799314D01*
X853675Y799158D01*
X853694D01*
X853714Y799139D01*
X853831Y799100D01*
X854006Y799041D01*
X854260Y798983D01*
X854533Y798905D01*
X854884Y798846D01*
X855255Y798807D01*
X855645Y798788D01*
X855801D01*
X855996Y798807D01*
X856211Y798827D01*
X856484Y798846D01*
X856757Y798905D01*
X857050Y798963D01*
X857342Y799061D01*
X857381Y799080D01*
X857459Y799119D01*
X857596Y799178D01*
X857752Y799275D01*
X857947Y799392D01*
X858122Y799529D01*
X858298Y799685D01*
X858454Y799861D01*
X858474Y799880D01*
X858513Y799958D01*
X858571Y800056D01*
X858649Y800192D01*
X858708Y800348D01*
X858766Y800543D01*
X858805Y800738D01*
X858825Y800953D01*
Y800972D01*
Y801050D01*
X858805Y801168D01*
X858786Y801304D01*
X858747Y801480D01*
X858669Y801655D01*
X858591Y801831D01*
X858474Y802006D01*
X858454Y802026D01*
X858415Y802084D01*
X858317Y802162D01*
X858201Y802279D01*
X858044Y802396D01*
X857849Y802514D01*
X857596Y802650D01*
X857323Y802767D01*
X857303Y802787D01*
X857225Y802806D01*
X857069Y802845D01*
X856972Y802884D01*
X856854Y802923D01*
X856698Y802962D01*
X856542Y803001D01*
X856347Y803060D01*
X856152Y803118D01*
X855918Y803177D01*
X855645Y803235D01*
X855352Y803313D01*
X855040Y803391D01*
X855021D01*
X854962Y803411D01*
X854865Y803430D01*
X854748Y803469D01*
X854611Y803508D01*
X854455Y803547D01*
X854084Y803645D01*
X853675Y803782D01*
X853265Y803918D01*
X852895Y804055D01*
X852719Y804113D01*
X852582Y804191D01*
X852563D01*
X852543Y804211D01*
X852426Y804289D01*
X852270Y804386D01*
X852075Y804523D01*
X851841Y804698D01*
X851627Y804893D01*
X851412Y805127D01*
X851217Y805381D01*
X851197Y805420D01*
X851139Y805518D01*
X851080Y805654D01*
X851002Y805849D01*
X850905Y806083D01*
X850846Y806356D01*
X850788Y806668D01*
X850768Y806981D01*
Y807000D01*
Y807020D01*
Y807078D01*
Y807156D01*
X850807Y807332D01*
X850846Y807566D01*
X850905Y807859D01*
X851002Y808151D01*
X851139Y808483D01*
X851314Y808795D01*
Y808814D01*
X851334Y808834D01*
X851412Y808931D01*
X851548Y809087D01*
X851724Y809283D01*
X851939Y809478D01*
X852212Y809692D01*
X852543Y809907D01*
X852914Y810082D01*
X852934D01*
X852953Y810102D01*
X853012Y810121D01*
X853109Y810160D01*
X853207Y810180D01*
X853324Y810219D01*
X853597Y810316D01*
X853948Y810394D01*
X854338Y810453D01*
X854787Y810511D01*
X855255Y810531D01*
X855489D01*
X855626Y810511D01*
D02*
G37*
G36*
X848642Y808814D02*
X841697D01*
Y804815D01*
X847706D01*
Y803313D01*
X841697D01*
Y797500D01*
X840000D01*
Y810316D01*
X848642D01*
Y808814D01*
D02*
G37*
G36*
X443125Y73011D02*
X443262D01*
X443594Y72972D01*
X443984Y72914D01*
X444413Y72836D01*
X444842Y72719D01*
X445252Y72563D01*
X445271D01*
X445291Y72543D01*
X445349Y72524D01*
X445427Y72485D01*
X445622Y72368D01*
X445876Y72231D01*
X446149Y72036D01*
X446422Y71802D01*
X446695Y71529D01*
X446929Y71217D01*
X446949Y71178D01*
X447027Y71061D01*
X447124Y70866D01*
X447222Y70632D01*
X447339Y70339D01*
X447456Y69988D01*
X447534Y69617D01*
X447573Y69208D01*
X445954Y69090D01*
Y69110D01*
Y69149D01*
X445935Y69208D01*
X445915Y69286D01*
X445876Y69500D01*
X445798Y69773D01*
X445681Y70066D01*
X445525Y70359D01*
X445310Y70651D01*
X445057Y70905D01*
X445018Y70924D01*
X444920Y71002D01*
X444745Y71100D01*
X444510Y71217D01*
X444198Y71334D01*
X443808Y71431D01*
X443360Y71509D01*
X442833Y71529D01*
X442579D01*
X442462Y71509D01*
X442306D01*
X441975Y71451D01*
X441604Y71392D01*
X441233Y71295D01*
X440882Y71158D01*
X440726Y71061D01*
X440590Y70963D01*
X440570Y70944D01*
X440492Y70866D01*
X440375Y70749D01*
X440258Y70573D01*
X440121Y70378D01*
X440024Y70144D01*
X439946Y69890D01*
X439907Y69598D01*
Y69559D01*
Y69481D01*
X439926Y69344D01*
X439965Y69188D01*
X440024Y69012D01*
X440121Y68817D01*
X440238Y68642D01*
X440395Y68466D01*
X440414Y68447D01*
X440512Y68388D01*
X440570Y68349D01*
X440648Y68291D01*
X440765Y68252D01*
X440902Y68193D01*
X441058Y68115D01*
X441233Y68037D01*
X441428Y67979D01*
X441662Y67901D01*
X441936Y67803D01*
X442228Y67725D01*
X442560Y67647D01*
X442930Y67549D01*
X442950D01*
X443028Y67530D01*
X443125Y67510D01*
X443262Y67471D01*
X443438Y67432D01*
X443633Y67374D01*
X444062Y67276D01*
X444530Y67140D01*
X444998Y67003D01*
X445232Y66945D01*
X445427Y66867D01*
X445622Y66789D01*
X445779Y66730D01*
X445798D01*
X445837Y66711D01*
X445876Y66672D01*
X445954Y66633D01*
X446149Y66516D01*
X446403Y66379D01*
X446676Y66184D01*
X446949Y65950D01*
X447202Y65696D01*
X447417Y65423D01*
X447437Y65384D01*
X447495Y65287D01*
X447593Y65131D01*
X447690Y64896D01*
X447788Y64643D01*
X447885Y64331D01*
X447944Y63980D01*
X447963Y63609D01*
Y63590D01*
Y63570D01*
Y63512D01*
Y63433D01*
X447924Y63238D01*
X447885Y62985D01*
X447827Y62692D01*
X447710Y62361D01*
X447573Y62009D01*
X447378Y61678D01*
X447359Y61639D01*
X447261Y61522D01*
X447144Y61366D01*
X446949Y61171D01*
X446715Y60936D01*
X446422Y60702D01*
X446071Y60488D01*
X445681Y60273D01*
X445662D01*
X445622Y60254D01*
X445564Y60234D01*
X445486Y60195D01*
X445388Y60156D01*
X445271Y60117D01*
X444959Y60039D01*
X444608Y59942D01*
X444179Y59864D01*
X443730Y59805D01*
X443223Y59786D01*
X442930D01*
X442794Y59805D01*
X442618D01*
X442423Y59825D01*
X442209Y59844D01*
X441760Y59903D01*
X441272Y60000D01*
X440785Y60117D01*
X440317Y60273D01*
X440297D01*
X440258Y60293D01*
X440199Y60332D01*
X440121Y60371D01*
X439907Y60488D01*
X439653Y60663D01*
X439341Y60878D01*
X439049Y61132D01*
X438736Y61444D01*
X438463Y61795D01*
Y61814D01*
X438444Y61834D01*
X438405Y61892D01*
X438366Y61970D01*
X438307Y62068D01*
X438249Y62185D01*
X438132Y62478D01*
X438015Y62809D01*
X437898Y63219D01*
X437820Y63648D01*
X437781Y64116D01*
X439380Y64253D01*
Y64233D01*
Y64214D01*
X439400Y64097D01*
X439439Y63921D01*
X439478Y63687D01*
X439556Y63433D01*
X439634Y63160D01*
X439751Y62907D01*
X439887Y62653D01*
X439907Y62634D01*
X439965Y62556D01*
X440063Y62439D01*
X440219Y62302D01*
X440395Y62146D01*
X440609Y61970D01*
X440882Y61814D01*
X441175Y61658D01*
X441194D01*
X441214Y61639D01*
X441331Y61600D01*
X441506Y61541D01*
X441760Y61483D01*
X442033Y61405D01*
X442384Y61346D01*
X442755Y61307D01*
X443145Y61288D01*
X443301D01*
X443496Y61307D01*
X443711Y61327D01*
X443984Y61346D01*
X444257Y61405D01*
X444550Y61463D01*
X444842Y61561D01*
X444881Y61580D01*
X444959Y61619D01*
X445096Y61678D01*
X445252Y61775D01*
X445447Y61892D01*
X445622Y62029D01*
X445798Y62185D01*
X445954Y62361D01*
X445974Y62380D01*
X446013Y62458D01*
X446071Y62556D01*
X446149Y62692D01*
X446208Y62848D01*
X446266Y63043D01*
X446305Y63238D01*
X446325Y63453D01*
Y63472D01*
Y63551D01*
X446305Y63667D01*
X446286Y63804D01*
X446247Y63980D01*
X446169Y64155D01*
X446091Y64331D01*
X445974Y64506D01*
X445954Y64526D01*
X445915Y64584D01*
X445817Y64662D01*
X445700Y64779D01*
X445544Y64896D01*
X445349Y65013D01*
X445096Y65150D01*
X444823Y65267D01*
X444803Y65287D01*
X444725Y65306D01*
X444569Y65345D01*
X444472Y65384D01*
X444355Y65423D01*
X444198Y65462D01*
X444042Y65501D01*
X443847Y65560D01*
X443652Y65618D01*
X443418Y65677D01*
X443145Y65735D01*
X442852Y65813D01*
X442540Y65891D01*
X442521D01*
X442462Y65911D01*
X442365Y65930D01*
X442248Y65969D01*
X442111Y66008D01*
X441955Y66047D01*
X441585Y66145D01*
X441175Y66281D01*
X440765Y66418D01*
X440395Y66555D01*
X440219Y66613D01*
X440082Y66691D01*
X440063D01*
X440043Y66711D01*
X439926Y66789D01*
X439770Y66886D01*
X439575Y67023D01*
X439341Y67198D01*
X439127Y67393D01*
X438912Y67628D01*
X438717Y67881D01*
X438697Y67920D01*
X438639Y68018D01*
X438580Y68154D01*
X438502Y68349D01*
X438405Y68583D01*
X438346Y68856D01*
X438288Y69169D01*
X438268Y69481D01*
Y69500D01*
Y69520D01*
Y69578D01*
Y69656D01*
X438307Y69832D01*
X438346Y70066D01*
X438405Y70359D01*
X438502Y70651D01*
X438639Y70983D01*
X438814Y71295D01*
Y71314D01*
X438834Y71334D01*
X438912Y71431D01*
X439049Y71587D01*
X439224Y71782D01*
X439439Y71978D01*
X439712Y72192D01*
X440043Y72407D01*
X440414Y72582D01*
X440434D01*
X440453Y72602D01*
X440512Y72621D01*
X440609Y72660D01*
X440707Y72680D01*
X440824Y72719D01*
X441097Y72816D01*
X441448Y72894D01*
X441838Y72953D01*
X442287Y73011D01*
X442755Y73031D01*
X442989D01*
X443125Y73011D01*
D02*
G37*
G36*
X436142Y71314D02*
X429197D01*
Y67315D01*
X435206D01*
Y65813D01*
X429197D01*
Y60000D01*
X427500D01*
Y72816D01*
X436142D01*
Y71314D01*
D02*
G37*
D44*
X147500Y157875D02*
D03*
X240000Y139625D02*
D03*
D45*
X157000Y137125D02*
D03*
X138000D02*
D03*
X230500Y160375D02*
D03*
X249500D02*
D03*
D46*
X145750Y227500D02*
D03*
X124250Y218000D02*
D03*
Y237000D02*
D03*
X399250Y250000D02*
D03*
X420750Y259500D02*
D03*
Y240500D02*
D03*
D47*
X132500Y672000D02*
D03*
Y608000D02*
D03*
X262500Y672000D02*
D03*
Y608000D02*
D03*
D48*
X87500Y672002D02*
D03*
Y658002D02*
D03*
X222500Y672002D02*
D03*
Y658002D02*
D03*
X197500Y672002D02*
D03*
Y658002D02*
D03*
X177500Y672002D02*
D03*
Y658002D02*
D03*
X362500Y164502D02*
D03*
Y150502D02*
D03*
X345000Y164502D02*
D03*
Y150502D02*
D03*
X240000Y105498D02*
D03*
Y119498D02*
D03*
X200000Y147002D02*
D03*
Y133002D02*
D03*
X140000Y105498D02*
D03*
Y119498D02*
D03*
X362500Y344502D02*
D03*
Y330502D02*
D03*
X180000Y147002D02*
D03*
Y133002D02*
D03*
X345000Y344502D02*
D03*
Y330502D02*
D03*
X200000Y117002D02*
D03*
Y103002D02*
D03*
X180000Y117002D02*
D03*
Y103002D02*
D03*
D49*
X324000Y652000D02*
D03*
Y628000D02*
D03*
X381000Y652000D02*
D03*
Y628000D02*
D03*
D50*
X187500Y623000D02*
D03*
Y607000D02*
D03*
D51*
X273500Y254600D02*
D03*
X226500Y318100D02*
D03*
Y305400D02*
D03*
Y292700D02*
D03*
Y280000D02*
D03*
Y267300D02*
D03*
Y254600D02*
D03*
Y241900D02*
D03*
X273500Y318100D02*
D03*
Y305400D02*
D03*
Y292700D02*
D03*
Y280000D02*
D03*
Y267300D02*
D03*
Y241900D02*
D03*
Y444600D02*
D03*
X226500Y508100D02*
D03*
Y495400D02*
D03*
Y482700D02*
D03*
Y470000D02*
D03*
Y457300D02*
D03*
Y444600D02*
D03*
Y431900D02*
D03*
X273500Y508100D02*
D03*
Y495400D02*
D03*
Y482700D02*
D03*
Y470000D02*
D03*
Y457300D02*
D03*
Y431900D02*
D03*
D52*
X402875Y157500D02*
D03*
Y337500D02*
D03*
D53*
X382125Y148000D02*
D03*
Y167000D02*
D03*
Y328000D02*
D03*
Y347000D02*
D03*
D54*
X257002Y340000D02*
D03*
X243002D02*
D03*
X257002Y530000D02*
D03*
X243002D02*
D03*
D55*
X655000Y297500D02*
D03*
Y447500D02*
D03*
X750000Y525000D02*
D03*
Y300000D02*
D03*
Y27500D02*
D03*
Y252500D02*
D03*
X655000Y197500D02*
D03*
Y47500D02*
D03*
D56*
X912500Y360000D02*
D03*
X837500D02*
D03*
X910000Y117500D02*
D03*
X835000D02*
D03*
D57*
X795000Y727500D02*
D03*
Y627500D02*
D03*
X295400Y780000D02*
D03*
X270000D02*
D03*
D58*
X322500Y80000D02*
D03*
D59*
X357500D02*
D03*
X430000Y300000D02*
D03*
X582400Y376200D02*
D03*
X607800Y300000D02*
D03*
X531600D02*
D03*
X430000Y376200D02*
D03*
Y120000D02*
D03*
X582400Y196200D02*
D03*
X607800Y120000D02*
D03*
X531600D02*
D03*
X430000Y196200D02*
D03*
X80000Y472500D02*
D03*
Y152500D02*
D03*
Y187500D02*
D03*
Y292501D02*
D03*
Y257500D02*
D03*
Y222501D02*
D03*
D60*
X900000Y290800D02*
D03*
Y240000D02*
D03*
X900000Y645400D02*
D03*
X240800Y50000D02*
D03*
X190000D02*
D03*
X640000Y540000D02*
D03*
Y740000D02*
D03*
X440000Y690000D02*
D03*
Y590000D02*
D03*
D61*
X900000Y189200D02*
D03*
X900000Y594600D02*
D03*
D62*
X139200Y50000D02*
D03*
D63*
X244600Y780000D02*
D03*
D64*
X50000Y770000D02*
D03*
X900000D02*
D03*
X50000Y50000D02*
D03*
X900000D02*
D03*
D65*
X80000Y507500D02*
D03*
Y327500D02*
D03*
M02*
