G04 Layer_Physical_Order=2*
G04 Layer_Color=16711680*
%FSLAX44Y44*%
%MOMM*%
G71*
G01*
G75*
%ADD21C,1.0000*%
%ADD22C,0.5000*%
%ADD25C,2.0000*%
%ADD26C,3.0000*%
%ADD27R,2.3000X2.3000*%
%ADD28C,2.3000*%
%ADD29C,2.5000*%
%ADD30R,2.5000X2.5000*%
%ADD31C,2.0000*%
%ADD32C,1.9000*%
%ADD33R,2.5000X2.5000*%
%ADD34R,1.9000X1.9000*%
%ADD35C,1.6000*%
%ADD36C,6.0000*%
%ADD37R,2.3000X2.3000*%
%ADD38C,0.6000*%
G36*
X857500Y327500D02*
X882500Y302500D01*
X882500Y282500D01*
X857500Y282500D01*
X855000Y282500D01*
X852500Y282500D01*
X737500Y282500D01*
X710000Y255000D01*
X670000D01*
X665000Y250000D01*
X592500Y177500D01*
X577500D01*
X567500Y187500D01*
X565000Y190000D01*
Y202500D01*
X575000Y212500D01*
X712500Y350000D01*
X715000Y352500D01*
X832500D01*
X857500Y327500D01*
D02*
G37*
G36*
X707500Y220000D02*
Y215000D01*
Y205000D01*
X712500Y200000D01*
X722500Y190000D01*
X840000D01*
X850000Y200000D01*
X875000D01*
Y185000D01*
X870000Y180000D01*
X842500Y152500D01*
X842500Y130000D01*
X835000Y122500D01*
X682500D01*
X665000Y105000D01*
X600000D01*
X592500Y112500D01*
Y125000D01*
X602500Y135000D01*
X640000D01*
X662500Y157500D01*
Y195000D01*
Y215000D01*
X672500Y225000D01*
X675000Y227500D01*
X700000D01*
X707500Y220000D01*
D02*
G37*
G36*
X340000Y673155D02*
X339914Y672500D01*
X340000Y671845D01*
Y487500D01*
X415000Y412500D01*
X412500Y410000D01*
Y372964D01*
X395368Y355832D01*
X393765Y353743D01*
X392757Y351311D01*
X392414Y348700D01*
Y260086D01*
X380000D01*
X377389Y259743D01*
X374957Y258735D01*
X372868Y257132D01*
X371265Y255043D01*
X370257Y252610D01*
X369914Y250000D01*
X370257Y247390D01*
X371265Y244957D01*
X372868Y242868D01*
X374957Y241265D01*
X377389Y240257D01*
X380000Y239914D01*
X392414D01*
Y147500D01*
X392757Y144890D01*
X393765Y142457D01*
X395368Y140368D01*
X412500Y123236D01*
Y0D01*
X2500D01*
X0Y2500D01*
X-0Y817460D01*
X2540Y820000D01*
X340000D01*
Y673155D01*
D02*
G37*
%LPC*%
G36*
X248730Y241230D02*
X244604D01*
X244781Y240338D01*
X246006Y238506D01*
X247838Y237281D01*
X248730Y237104D01*
Y241230D01*
D02*
G37*
G36*
X255396D02*
X251270D01*
Y237104D01*
X252162Y237281D01*
X253994Y238506D01*
X255219Y240338D01*
X255396Y241230D01*
D02*
G37*
G36*
X310000Y250569D02*
X307912Y250294D01*
X305965Y249488D01*
X304294Y248206D01*
X303012Y246535D01*
X302206Y244588D01*
X301931Y242500D01*
X302206Y240412D01*
X302435Y239858D01*
Y191864D01*
X299895Y190167D01*
X299588Y190294D01*
X297500Y190569D01*
X295412Y190294D01*
X293465Y189488D01*
X291794Y188206D01*
X290512Y186535D01*
X289706Y184588D01*
X289431Y182500D01*
X289706Y180412D01*
X289935Y179858D01*
Y105000D01*
X290193Y103042D01*
X290949Y101218D01*
X292151Y99651D01*
X306000Y85802D01*
Y63500D01*
X339000D01*
Y96500D01*
X316698D01*
X305065Y108134D01*
Y140636D01*
X307605Y142333D01*
X307912Y142206D01*
X310000Y141931D01*
X312088Y142206D01*
X314035Y143012D01*
X315706Y144294D01*
X316988Y145965D01*
X317794Y147912D01*
X318069Y150000D01*
X317794Y152088D01*
X317565Y152642D01*
Y239858D01*
X317794Y240412D01*
X318069Y242500D01*
X317794Y244588D01*
X316988Y246535D01*
X315706Y248206D01*
X314035Y249488D01*
X312088Y250294D01*
X310000Y250569D01*
D02*
G37*
G36*
X96500Y344000D02*
X63500D01*
Y311000D01*
X75391D01*
X75768Y308460D01*
X73655Y307819D01*
X70789Y306287D01*
X68276Y304225D01*
X66214Y301712D01*
X64682Y298846D01*
X63739Y295736D01*
X63420Y292501D01*
X63739Y289267D01*
X64682Y286156D01*
X66214Y283290D01*
X68276Y280777D01*
X70789Y278715D01*
X73655Y277183D01*
X76765Y276240D01*
Y273761D01*
X73655Y272818D01*
X70789Y271285D01*
X68276Y269224D01*
X66214Y266711D01*
X64682Y263845D01*
X63739Y260735D01*
X63420Y257500D01*
X63739Y254265D01*
X64682Y251155D01*
X66214Y248289D01*
X68276Y245776D01*
X70789Y243714D01*
X73655Y242182D01*
X76765Y241239D01*
Y238762D01*
X73655Y237819D01*
X70789Y236287D01*
X68276Y234225D01*
X66214Y231712D01*
X64682Y228846D01*
X63739Y225736D01*
X63420Y222501D01*
X63739Y219267D01*
X64682Y216156D01*
X66214Y213290D01*
X68276Y210778D01*
X70789Y208716D01*
X73655Y207183D01*
X76765Y206240D01*
Y203762D01*
X73655Y202818D01*
X70789Y201286D01*
X68276Y199224D01*
X66214Y196712D01*
X64682Y193845D01*
X63739Y190735D01*
X63420Y187500D01*
X63739Y184266D01*
X64682Y181156D01*
X66214Y178289D01*
X68276Y175777D01*
X70789Y173715D01*
X73655Y172183D01*
X76765Y171239D01*
X80000Y170921D01*
X83235Y171239D01*
X86345Y172183D01*
X89211Y173715D01*
X91724Y175777D01*
X93785Y178289D01*
X95318Y181156D01*
X96261Y184266D01*
X96580Y187500D01*
X96261Y190735D01*
X95318Y193845D01*
X93785Y196712D01*
X91724Y199224D01*
X89211Y201286D01*
X86345Y202818D01*
X83235Y203762D01*
Y206240D01*
X86345Y207183D01*
X89211Y208716D01*
X91724Y210778D01*
X93785Y213290D01*
X95318Y216156D01*
X96261Y219267D01*
X96580Y222501D01*
X96261Y225736D01*
X95318Y228846D01*
X93785Y231712D01*
X91724Y234225D01*
X89211Y236287D01*
X86345Y237819D01*
X83235Y238762D01*
Y241239D01*
X86345Y242182D01*
X89211Y243714D01*
X91724Y245776D01*
X93785Y248289D01*
X95318Y251155D01*
X96261Y254265D01*
X96580Y257500D01*
X96261Y260735D01*
X95318Y263845D01*
X93785Y266711D01*
X91724Y269224D01*
X89211Y271285D01*
X86345Y272818D01*
X83235Y273761D01*
Y276240D01*
X86345Y277183D01*
X89211Y278715D01*
X91724Y280777D01*
X93785Y283290D01*
X95318Y286156D01*
X96261Y289267D01*
X96580Y292501D01*
X96261Y295736D01*
X95318Y298846D01*
X93785Y301712D01*
X91724Y304225D01*
X89211Y306287D01*
X86345Y307819D01*
X84232Y308460D01*
X84609Y311000D01*
X96500D01*
Y344000D01*
D02*
G37*
G36*
X165000Y270569D02*
X162911Y270294D01*
X160965Y269488D01*
X159294Y268206D01*
X158012Y266535D01*
X157206Y264588D01*
X156931Y262500D01*
X157206Y260412D01*
X157435Y259858D01*
Y185142D01*
X157206Y184588D01*
X156931Y182500D01*
X157206Y180412D01*
X158012Y178465D01*
X159294Y176794D01*
X160965Y175512D01*
X162911Y174706D01*
X165000Y174431D01*
X167088Y174706D01*
X169035Y175512D01*
X170706Y176794D01*
X171988Y178465D01*
X172794Y180412D01*
X173069Y182500D01*
X172794Y184588D01*
X172565Y185142D01*
Y259858D01*
X172794Y260412D01*
X173069Y262500D01*
X172794Y264588D01*
X171988Y266535D01*
X170706Y268206D01*
X169035Y269488D01*
X167088Y270294D01*
X165000Y270569D01*
D02*
G37*
G36*
X278770Y165396D02*
Y161270D01*
X282896D01*
X282719Y162162D01*
X281494Y163994D01*
X279662Y165219D01*
X278770Y165396D01*
D02*
G37*
G36*
X361230Y311230D02*
X357104D01*
X357281Y310338D01*
X358506Y308506D01*
X360338Y307281D01*
X361230Y307104D01*
Y311230D01*
D02*
G37*
G36*
X367896D02*
X363770D01*
Y307104D01*
X364662Y307281D01*
X366494Y308506D01*
X367719Y310338D01*
X367896Y311230D01*
D02*
G37*
G36*
X361230Y317896D02*
X360338Y317719D01*
X358506Y316494D01*
X357281Y314662D01*
X357104Y313770D01*
X361230D01*
Y317896D01*
D02*
G37*
G36*
X248730Y247896D02*
X247838Y247719D01*
X246006Y246494D01*
X244781Y244662D01*
X244604Y243770D01*
X248730D01*
Y247896D01*
D02*
G37*
G36*
X251270D02*
Y243770D01*
X255396D01*
X255219Y244662D01*
X253994Y246494D01*
X252162Y247719D01*
X251270Y247896D01*
D02*
G37*
G36*
X322500Y465569D02*
X320412Y465294D01*
X318465Y464488D01*
X316794Y463206D01*
X315512Y461535D01*
X314706Y459588D01*
X314431Y457500D01*
X314706Y455412D01*
X314935Y454858D01*
Y270142D01*
X314706Y269588D01*
X314431Y267500D01*
X314706Y265412D01*
X315512Y263465D01*
X316794Y261794D01*
X318465Y260512D01*
X320412Y259706D01*
X322500Y259431D01*
X324588Y259706D01*
X326535Y260512D01*
X328206Y261794D01*
X329488Y263465D01*
X330294Y265412D01*
X330569Y267500D01*
X330294Y269588D01*
X330065Y270142D01*
Y454858D01*
X330294Y455412D01*
X330569Y457500D01*
X330294Y459588D01*
X329488Y461535D01*
X328206Y463206D01*
X326535Y464488D01*
X324588Y465294D01*
X322500Y465569D01*
D02*
G37*
G36*
X276230Y165396D02*
X275338Y165219D01*
X273506Y163994D01*
X272281Y162162D01*
X272104Y161270D01*
X276230D01*
Y165396D01*
D02*
G37*
G36*
X356230Y78730D02*
X343506D01*
X343821Y76335D01*
X345236Y72920D01*
X347486Y69987D01*
X350419Y67736D01*
X353835Y66322D01*
X356230Y66006D01*
Y78730D01*
D02*
G37*
G36*
X371494D02*
X358770D01*
Y66006D01*
X361165Y66322D01*
X364581Y67736D01*
X367513Y69987D01*
X369764Y72920D01*
X371179Y76335D01*
X371494Y78730D01*
D02*
G37*
G36*
X356230Y93994D02*
X353835Y93679D01*
X350419Y92264D01*
X347486Y90014D01*
X345236Y87081D01*
X343821Y83665D01*
X343506Y81270D01*
X356230D01*
Y93994D01*
D02*
G37*
G36*
X50000Y85108D02*
X44508Y84676D01*
X39151Y83390D01*
X34061Y81282D01*
X29364Y78403D01*
X25175Y74825D01*
X21597Y70636D01*
X18718Y65939D01*
X16610Y60849D01*
X15324Y55492D01*
X14892Y50000D01*
X15324Y44508D01*
X16610Y39151D01*
X18718Y34061D01*
X21597Y29364D01*
X25175Y25175D01*
X29364Y21597D01*
X34061Y18719D01*
X39151Y16610D01*
X44508Y15324D01*
X50000Y14892D01*
X55492Y15324D01*
X60849Y16610D01*
X65939Y18719D01*
X70636Y21597D01*
X74825Y25175D01*
X78403Y29364D01*
X81282Y34061D01*
X83390Y39151D01*
X84676Y44508D01*
X85108Y50000D01*
X84676Y55492D01*
X83390Y60849D01*
X81282Y65939D01*
X78403Y70636D01*
X74825Y74825D01*
X70636Y78403D01*
X65939Y81282D01*
X60849Y83390D01*
X55492Y84676D01*
X50000Y85108D01*
D02*
G37*
G36*
X188730Y48730D02*
X175012D01*
X175178Y47052D01*
X176038Y44217D01*
X177434Y41604D01*
X179314Y39314D01*
X181604Y37434D01*
X184217Y36038D01*
X187052Y35178D01*
X188730Y35013D01*
Y48730D01*
D02*
G37*
G36*
X204988D02*
X191270D01*
Y35013D01*
X192948Y35178D01*
X195783Y36038D01*
X198396Y37434D01*
X200686Y39314D01*
X202566Y41604D01*
X203962Y44217D01*
X204822Y47052D01*
X204988Y48730D01*
D02*
G37*
G36*
X358770Y93994D02*
Y81270D01*
X371494D01*
X371179Y83665D01*
X369764Y87081D01*
X367513Y90014D01*
X364581Y92264D01*
X361165Y93679D01*
X358770Y93994D01*
D02*
G37*
G36*
X81270Y166495D02*
Y153771D01*
X93994D01*
X93679Y156166D01*
X92264Y159581D01*
X90013Y162514D01*
X87080Y164764D01*
X83665Y166179D01*
X81270Y166495D01*
D02*
G37*
G36*
X276230Y158730D02*
X272104D01*
X272281Y157838D01*
X273506Y156006D01*
X275338Y154782D01*
X276230Y154604D01*
Y158730D01*
D02*
G37*
G36*
X282896D02*
X278770D01*
Y154604D01*
X279662Y154782D01*
X281494Y156006D01*
X282719Y157838D01*
X282896Y158730D01*
D02*
G37*
G36*
X78730Y151230D02*
X66006D01*
X66321Y148835D01*
X67736Y145420D01*
X69987Y142487D01*
X72919Y140237D01*
X76335Y138822D01*
X78730Y138507D01*
Y151230D01*
D02*
G37*
G36*
X93994D02*
X81270D01*
Y138507D01*
X83665Y138822D01*
X87080Y140237D01*
X90013Y142487D01*
X92264Y145420D01*
X93679Y148835D01*
X93994Y151230D01*
D02*
G37*
G36*
X78730Y166495D02*
X76335Y166179D01*
X72919Y164764D01*
X69987Y162514D01*
X67736Y159581D01*
X66321Y156166D01*
X66006Y153771D01*
X78730D01*
Y166495D01*
D02*
G37*
G36*
X100396Y606230D02*
X96270D01*
Y602104D01*
X97162Y602281D01*
X98994Y603506D01*
X100218Y605338D01*
X100396Y606230D01*
D02*
G37*
G36*
X93730Y612896D02*
X92838Y612719D01*
X91006Y611494D01*
X89781Y609662D01*
X89604Y608770D01*
X93730D01*
Y612896D01*
D02*
G37*
G36*
X96270D02*
Y608770D01*
X100396D01*
X100218Y609662D01*
X98994Y611494D01*
X97162Y612719D01*
X96270Y612896D01*
D02*
G37*
G36*
X93730Y606230D02*
X89604D01*
X89781Y605338D01*
X91006Y603506D01*
X92838Y602281D01*
X93730Y602104D01*
Y606230D01*
D02*
G37*
G36*
X56230Y535396D02*
X55338Y535219D01*
X53506Y533994D01*
X52281Y532162D01*
X52104Y531270D01*
X56230D01*
Y535396D01*
D02*
G37*
G36*
X58770D02*
Y531270D01*
X62896D01*
X62719Y532162D01*
X61494Y533994D01*
X59662Y535219D01*
X58770Y535396D01*
D02*
G37*
G36*
X132500Y740086D02*
X129889Y739743D01*
X127457Y738735D01*
X125368Y737132D01*
X123765Y735043D01*
X122757Y732610D01*
X122414Y730000D01*
Y547500D01*
X122757Y544889D01*
X123765Y542457D01*
X125368Y540368D01*
X127457Y538765D01*
X129889Y537757D01*
X132500Y537414D01*
X135111Y537757D01*
X137543Y538765D01*
X139632Y540368D01*
X141235Y542457D01*
X142243Y544889D01*
X142586Y547500D01*
Y730000D01*
X142243Y732610D01*
X141235Y735043D01*
X139632Y737132D01*
X137543Y738735D01*
X135111Y739743D01*
X132500Y740086D01*
D02*
G37*
G36*
X50000Y805108D02*
X44508Y804676D01*
X39151Y803390D01*
X34061Y801282D01*
X29364Y798403D01*
X25175Y794825D01*
X21597Y790636D01*
X18718Y785939D01*
X16610Y780849D01*
X15324Y775492D01*
X14892Y770000D01*
X15324Y764508D01*
X16610Y759151D01*
X18718Y754061D01*
X21597Y749364D01*
X25175Y745175D01*
X29364Y741597D01*
X34061Y738718D01*
X39151Y736610D01*
X44508Y735324D01*
X50000Y734892D01*
X55492Y735324D01*
X60849Y736610D01*
X65939Y738718D01*
X70636Y741597D01*
X74825Y745175D01*
X78403Y749364D01*
X81282Y754061D01*
X83390Y759151D01*
X84676Y764508D01*
X85108Y770000D01*
X84676Y775492D01*
X83390Y780849D01*
X81282Y785939D01*
X78403Y790636D01*
X74825Y794825D01*
X70636Y798403D01*
X65939Y801282D01*
X60849Y803390D01*
X55492Y804676D01*
X50000Y805108D01*
D02*
G37*
G36*
X259100Y794500D02*
X230100D01*
Y765500D01*
X259100D01*
Y770255D01*
X260677Y771044D01*
X261640Y771239D01*
X263928Y769483D01*
X266857Y768270D01*
X268730Y768024D01*
Y780000D01*
Y791977D01*
X266857Y791730D01*
X263928Y790517D01*
X261640Y788761D01*
X260677Y788956D01*
X259100Y789745D01*
Y794500D01*
D02*
G37*
G36*
X295400Y794625D02*
X291615Y794127D01*
X288088Y792666D01*
X285058Y790342D01*
X282734Y787313D01*
X282661Y787136D01*
X279838Y786957D01*
X278587Y788587D01*
X276072Y790517D01*
X273143Y791730D01*
X271270Y791977D01*
Y780000D01*
Y768024D01*
X273143Y768270D01*
X276072Y769483D01*
X278587Y771413D01*
X279838Y773043D01*
X282661Y772864D01*
X282734Y772688D01*
X285058Y769659D01*
X288088Y767334D01*
X291615Y765873D01*
X295400Y765375D01*
X299185Y765873D01*
X302713Y767334D01*
X305742Y769659D01*
X308066Y772688D01*
X309527Y776215D01*
X310025Y780000D01*
X309527Y783785D01*
X308066Y787313D01*
X305742Y790342D01*
X302713Y792666D01*
X299185Y794127D01*
X295400Y794625D01*
D02*
G37*
G36*
X223770Y637896D02*
Y633770D01*
X227896D01*
X227719Y634662D01*
X226494Y636494D01*
X224662Y637719D01*
X223770Y637896D01*
D02*
G37*
G36*
X221230Y631230D02*
X217104D01*
X217281Y630338D01*
X218506Y628506D01*
X220338Y627281D01*
X221230Y627104D01*
Y631230D01*
D02*
G37*
G36*
X227896D02*
X223770D01*
Y627104D01*
X224662Y627281D01*
X226494Y628506D01*
X227719Y630338D01*
X227896Y631230D01*
D02*
G37*
G36*
X221230Y637896D02*
X220338Y637719D01*
X218506Y636494D01*
X217281Y634662D01*
X217104Y633770D01*
X221230D01*
Y637896D01*
D02*
G37*
G36*
X62896Y528730D02*
X58770D01*
Y524604D01*
X59662Y524781D01*
X61494Y526006D01*
X62719Y527838D01*
X62896Y528730D01*
D02*
G37*
G36*
X248730Y330396D02*
X247838Y330219D01*
X246006Y328994D01*
X244781Y327162D01*
X244604Y326270D01*
X248730D01*
Y330396D01*
D02*
G37*
G36*
X251270D02*
Y326270D01*
X255396D01*
X255219Y327162D01*
X253994Y328994D01*
X252162Y330219D01*
X251270Y330396D01*
D02*
G37*
G36*
X155000Y515569D02*
X152912Y515294D01*
X150965Y514488D01*
X149294Y513206D01*
X148012Y511535D01*
X147206Y509588D01*
X146931Y507500D01*
X147206Y505412D01*
X147435Y504858D01*
Y328556D01*
X144895Y328051D01*
X144488Y329035D01*
X143206Y330706D01*
X141535Y331988D01*
X139588Y332794D01*
X137500Y333069D01*
X135412Y332794D01*
X133465Y331988D01*
X131794Y330706D01*
X130512Y329035D01*
X129706Y327088D01*
X129431Y325000D01*
X129706Y322912D01*
X129935Y322358D01*
Y100000D01*
X130193Y98042D01*
X130949Y96218D01*
X132151Y94651D01*
X156805Y69996D01*
X156468Y68579D01*
X155781Y67500D01*
X154452Y67500D01*
X132398D01*
X122565Y77333D01*
Y289858D01*
X122794Y290412D01*
X123069Y292500D01*
X122794Y294588D01*
X121988Y296535D01*
X120706Y298206D01*
X119035Y299488D01*
X117088Y300294D01*
X115000Y300569D01*
X112912Y300294D01*
X110965Y299488D01*
X109294Y298206D01*
X108012Y296535D01*
X107206Y294588D01*
X106931Y292500D01*
X107206Y290412D01*
X107435Y289858D01*
Y74200D01*
X107693Y72242D01*
X108449Y70418D01*
X109651Y68851D01*
X121700Y56802D01*
Y32500D01*
X156700D01*
Y65278D01*
X156700Y66795D01*
X158106Y67947D01*
X158874Y68384D01*
X160542Y67693D01*
X162500Y67435D01*
X162500Y67435D01*
X187666D01*
X187791Y64895D01*
X187052Y64823D01*
X184217Y63962D01*
X181604Y62566D01*
X179314Y60686D01*
X177434Y58396D01*
X176038Y55784D01*
X175178Y52948D01*
X175012Y51270D01*
X204988D01*
X204822Y52948D01*
X203962Y55784D01*
X202566Y58396D01*
X200686Y60686D01*
X198396Y62566D01*
X195783Y63962D01*
X192948Y64823D01*
X192209Y64895D01*
X192334Y67435D01*
X216867D01*
X225605Y58697D01*
X224554Y56729D01*
X223553Y53431D01*
X223215Y50000D01*
X223553Y46569D01*
X224554Y43271D01*
X226179Y40231D01*
X228366Y37566D01*
X231030Y35379D01*
X234071Y33754D01*
X237369Y32753D01*
X240800Y32415D01*
X244231Y32753D01*
X247529Y33754D01*
X250569Y35379D01*
X253234Y37566D01*
X255421Y40231D01*
X257046Y43271D01*
X258047Y46569D01*
X258385Y50000D01*
X258047Y53431D01*
X257046Y56729D01*
X255421Y59770D01*
X253234Y62434D01*
X250569Y64621D01*
X247529Y66246D01*
X244231Y67247D01*
X240800Y67585D01*
X238354Y67344D01*
X225349Y80349D01*
X223782Y81551D01*
X221958Y82307D01*
X220000Y82565D01*
X165633D01*
X145065Y103133D01*
Y278944D01*
X147605Y279449D01*
X148012Y278465D01*
X149294Y276794D01*
X150965Y275512D01*
X152912Y274706D01*
X155000Y274431D01*
X157088Y274706D01*
X159035Y275512D01*
X160706Y276794D01*
X161988Y278465D01*
X162794Y280412D01*
X163069Y282500D01*
X162794Y284588D01*
X162565Y285142D01*
Y504858D01*
X162794Y505412D01*
X163069Y507500D01*
X162794Y509588D01*
X161988Y511535D01*
X160706Y513206D01*
X159035Y514488D01*
X157088Y515294D01*
X155000Y515569D01*
D02*
G37*
G36*
X300000Y438069D02*
X297912Y437794D01*
X295965Y436988D01*
X294294Y435706D01*
X293012Y434035D01*
X292206Y432088D01*
X291931Y430000D01*
X292206Y427912D01*
X292435Y427358D01*
Y332642D01*
X292206Y332088D01*
X291931Y330000D01*
X292206Y327912D01*
X293012Y325965D01*
X294294Y324294D01*
X295965Y323012D01*
X297912Y322206D01*
X300000Y321931D01*
X302088Y322206D01*
X304035Y323012D01*
X305706Y324294D01*
X306988Y325965D01*
X307794Y327912D01*
X308069Y330000D01*
X307794Y332088D01*
X307565Y332642D01*
Y427358D01*
X307794Y427912D01*
X308069Y430000D01*
X307794Y432088D01*
X306988Y434035D01*
X305706Y435706D01*
X304035Y436988D01*
X302088Y437794D01*
X300000Y438069D01*
D02*
G37*
G36*
X363770Y317896D02*
Y313770D01*
X367896D01*
X367719Y314662D01*
X366494Y316494D01*
X364662Y317719D01*
X363770Y317896D01*
D02*
G37*
G36*
X248730Y323730D02*
X244604D01*
X244781Y322838D01*
X246006Y321006D01*
X247838Y319781D01*
X248730Y319604D01*
Y323730D01*
D02*
G37*
G36*
X255396D02*
X251270D01*
Y319604D01*
X252162Y319781D01*
X253994Y321006D01*
X255219Y322838D01*
X255396Y323730D01*
D02*
G37*
G36*
X81270Y486494D02*
Y473770D01*
X93994D01*
X93679Y476165D01*
X92264Y479581D01*
X90013Y482514D01*
X87080Y484764D01*
X83665Y486179D01*
X81270Y486494D01*
D02*
G37*
G36*
X96500Y524000D02*
X63500D01*
Y491000D01*
X96500D01*
Y524000D01*
D02*
G37*
G36*
X56230Y528730D02*
X52104D01*
X52281Y527838D01*
X53506Y526006D01*
X55338Y524781D01*
X56230Y524604D01*
Y528730D01*
D02*
G37*
G36*
X78730Y486494D02*
X76335Y486179D01*
X72919Y484764D01*
X69987Y482514D01*
X67736Y479581D01*
X66321Y476165D01*
X66006Y473770D01*
X78730D01*
Y486494D01*
D02*
G37*
G36*
Y471230D02*
X66006D01*
X66321Y468835D01*
X67736Y465420D01*
X69987Y462487D01*
X72919Y460236D01*
X76335Y458822D01*
X78730Y458506D01*
Y471230D01*
D02*
G37*
G36*
X93994D02*
X81270D01*
Y458506D01*
X83665Y458822D01*
X87080Y460236D01*
X90013Y462487D01*
X92264Y465420D01*
X93679Y468835D01*
X93994Y471230D01*
D02*
G37*
G36*
X222500Y557586D02*
X219890Y557243D01*
X217457Y556235D01*
X215368Y554632D01*
X213765Y552543D01*
X212757Y550111D01*
X212414Y547500D01*
Y464940D01*
X209874Y463844D01*
X209035Y464488D01*
X207088Y465294D01*
X205000Y465569D01*
X202911Y465294D01*
X201215Y464591D01*
X200237Y464947D01*
X198675Y465932D01*
Y489906D01*
X199488Y490965D01*
X200294Y492912D01*
X200569Y495000D01*
X200294Y497088D01*
X199488Y499035D01*
X198206Y500706D01*
X196535Y501988D01*
X194588Y502794D01*
X192500Y503069D01*
X190411Y502794D01*
X188465Y501988D01*
X186794Y500706D01*
X185512Y499035D01*
X185152Y498166D01*
X184559Y497392D01*
X183803Y495568D01*
X183545Y493610D01*
Y268890D01*
X183803Y266932D01*
X184559Y265108D01*
X184935Y264617D01*
Y138133D01*
X171866Y125065D01*
X160142D01*
X159588Y125294D01*
X157500Y125569D01*
X155412Y125294D01*
X153465Y124488D01*
X151794Y123206D01*
X150512Y121535D01*
X149706Y119588D01*
X149431Y117500D01*
X149706Y115412D01*
X150512Y113465D01*
X151794Y111794D01*
X153465Y110512D01*
X155412Y109706D01*
X157500Y109431D01*
X159588Y109706D01*
X160142Y109935D01*
X175000D01*
X176958Y110193D01*
X178782Y110949D01*
X180349Y112151D01*
X196135Y127937D01*
X199296Y127506D01*
X212430Y114372D01*
X213012Y112967D01*
X214294Y111296D01*
X215965Y110014D01*
X217911Y109208D01*
X220000Y108933D01*
X222088Y109208D01*
X224035Y110014D01*
X225706Y111296D01*
X226988Y112967D01*
X227794Y114913D01*
X228069Y117002D01*
X227794Y119090D01*
X226988Y121036D01*
X225706Y122707D01*
X224782Y123416D01*
X211455Y136743D01*
Y316110D01*
X211197Y318068D01*
X210441Y319892D01*
X210065Y320383D01*
Y358383D01*
X212605Y358550D01*
X212757Y357389D01*
X213765Y354957D01*
X214935Y353432D01*
Y145142D01*
X214706Y144588D01*
X214431Y142500D01*
X214706Y140412D01*
X215512Y138465D01*
X216794Y136794D01*
X218465Y135512D01*
X220412Y134706D01*
X222500Y134431D01*
X224588Y134706D01*
X226535Y135512D01*
X228206Y136794D01*
X229488Y138465D01*
X230294Y140412D01*
X230569Y142500D01*
X230294Y144588D01*
X230065Y145142D01*
Y353432D01*
X231235Y354957D01*
X232243Y357389D01*
X232586Y360000D01*
Y547500D01*
X232243Y550111D01*
X231235Y552543D01*
X229632Y554632D01*
X227543Y556235D01*
X225110Y557243D01*
X222500Y557586D01*
D02*
G37*
%LPD*%
D21*
Y632500D02*
Y702500D01*
X270000Y750000D01*
Y780000D01*
X357500Y80000D02*
Y117500D01*
X362500Y122500D01*
Y312500D01*
X277500Y22500D02*
X345000D01*
X190000D02*
X277500D01*
X345000D02*
X357500Y35000D01*
X190000Y22500D02*
Y50000D01*
X100000Y22500D02*
X190000D01*
X357500Y35000D02*
Y80000D01*
X95000Y27500D02*
X100000Y22500D01*
X95000Y27500D02*
Y130000D01*
X85000Y140000D02*
X95000Y130000D01*
X85000Y140000D02*
Y152500D01*
X57500Y157500D02*
Y480000D01*
Y157500D02*
X62500Y152500D01*
X85000D01*
X57500Y530000D02*
Y570000D01*
Y480000D02*
Y530000D01*
X65000Y472500D02*
X85000D01*
X57500Y480000D02*
X65000Y472500D01*
X57500Y570000D02*
X95000Y607500D01*
X222500Y360000D02*
Y547500D01*
X132500D02*
Y730000D01*
X430000Y376200D02*
Y415000D01*
X355000Y490000D02*
X430000Y415000D01*
X355000Y490000D02*
Y667500D01*
X350000Y672500D02*
X355000Y667500D01*
X402500Y147500D02*
X430000Y120000D01*
X402500Y348700D02*
X430000Y376200D01*
X380000Y250000D02*
X402500D01*
Y147500D02*
Y250000D01*
Y348700D01*
D22*
X250000Y242500D02*
Y325000D01*
Y242500D02*
X277500Y215000D01*
Y160000D02*
Y215000D01*
Y22500D02*
Y160000D01*
X222500Y142500D02*
Y360000D01*
X155000Y282500D02*
Y507500D01*
X300000Y330000D02*
Y430000D01*
X322500Y267500D02*
Y457500D01*
X202500Y455000D02*
X205000Y457500D01*
X202500Y317500D02*
Y455000D01*
X191110Y268890D02*
X192500Y267500D01*
X191110Y493610D02*
X192500Y495000D01*
X191110Y268890D02*
Y493610D01*
X202500Y317500D02*
X203890Y316110D01*
Y133610D02*
Y316110D01*
Y133610D02*
X220000Y117500D01*
Y117002D02*
Y117500D01*
X192500Y135000D02*
Y267500D01*
X175000Y117500D02*
X192500Y135000D01*
X157500Y117500D02*
X175000D01*
X310000Y150000D02*
Y242500D01*
X165000Y182500D02*
Y262500D01*
X297500Y105000D02*
Y182500D01*
Y105000D02*
X322500Y80000D01*
X139200Y50000D02*
X140000Y50800D01*
X115000Y74200D02*
Y292500D01*
Y74200D02*
X139200Y50000D01*
X137500Y100000D02*
Y325000D01*
Y100000D02*
X162500Y75000D01*
X220000D01*
X240800Y54200D01*
Y50000D02*
Y54200D01*
D25*
X690000Y415000D02*
X760000D01*
X760000Y415000D01*
X690000Y65000D02*
X760000D01*
X760000Y65000D01*
X607800Y120000D02*
X650000D01*
X690000Y160000D01*
X856700Y189200D02*
X900000D01*
X842500Y175000D02*
X856700Y189200D01*
X690000Y160000D02*
Y175000D01*
Y215000D01*
X825000Y137500D02*
Y172500D01*
X822500Y175000D02*
X825000Y172500D01*
X690000Y175000D02*
X822500D01*
X842500D01*
X582400Y196200D02*
X651200Y265000D01*
X690000D01*
X732500Y307500D01*
X842500D02*
X857500Y292500D01*
X898300D01*
X900000Y290800D01*
X825000Y307500D02*
Y342500D01*
X732500Y307500D02*
X825000D01*
X842500D01*
X640000Y740000D02*
X760000Y620000D01*
X832500D01*
X857900Y594600D01*
X900000D01*
D26*
X667500Y567500D02*
X795000D01*
X640000Y540000D02*
X667500Y567500D01*
X531600Y431600D02*
X640000Y540000D01*
X531600Y300000D02*
Y431600D01*
X530000Y222200D02*
X607800Y300000D01*
X530000Y121600D02*
Y222200D01*
Y121600D02*
X531600Y120000D01*
X877900Y667500D02*
X900000Y645400D01*
X795000Y667500D02*
X877900D01*
D27*
X322500Y80000D02*
D03*
D28*
X357500D02*
D03*
X430000Y300000D02*
D03*
X582400Y376200D02*
D03*
X607800Y300000D02*
D03*
X531600D02*
D03*
X430000Y376200D02*
D03*
Y120000D02*
D03*
X582400Y196200D02*
D03*
X607800Y120000D02*
D03*
X531600D02*
D03*
X430000Y196200D02*
D03*
X80000Y472500D02*
D03*
Y152500D02*
D03*
Y187500D02*
D03*
Y292501D02*
D03*
Y257500D02*
D03*
Y222501D02*
D03*
D29*
X900000Y290800D02*
D03*
Y240000D02*
D03*
X900000Y645400D02*
D03*
X240800Y50000D02*
D03*
X190000D02*
D03*
X640000Y540000D02*
D03*
Y740000D02*
D03*
X440000Y690000D02*
D03*
Y590000D02*
D03*
D30*
X900000Y189200D02*
D03*
X900000Y594600D02*
D03*
D31*
X760000Y415000D02*
D03*
Y265000D02*
D03*
Y65000D02*
D03*
Y215000D02*
D03*
X690000Y265000D02*
D03*
Y415000D02*
D03*
X690000Y215000D02*
D03*
Y65000D02*
D03*
D32*
X795000Y667500D02*
D03*
Y567500D02*
D03*
X295400Y780000D02*
D03*
X270000D02*
D03*
D33*
X139200Y50000D02*
D03*
D34*
X244600Y780000D02*
D03*
D35*
X825000Y342500D02*
D03*
Y267500D02*
D03*
Y137500D02*
D03*
Y212500D02*
D03*
D36*
X50000Y770000D02*
D03*
X900000D02*
D03*
X50000Y50000D02*
D03*
X900000D02*
D03*
D37*
X80000Y507500D02*
D03*
Y327500D02*
D03*
D38*
X380000Y250000D02*
D03*
X222500Y632500D02*
D03*
X362500Y312500D02*
D03*
X250000Y325000D02*
D03*
Y242500D02*
D03*
X277500Y160000D02*
D03*
X57500Y530000D02*
D03*
X95000Y607500D02*
D03*
X222500Y360000D02*
D03*
Y547500D02*
D03*
Y142500D02*
D03*
X132500Y547500D02*
D03*
Y730000D02*
D03*
X155000Y507500D02*
D03*
Y282500D02*
D03*
X192500Y495000D02*
D03*
Y267500D02*
D03*
X300000Y430000D02*
D03*
Y330000D02*
D03*
X322500Y457500D02*
D03*
Y267500D02*
D03*
X205000Y457500D02*
D03*
X202500Y317500D02*
D03*
X220000Y117002D02*
D03*
X157500Y117500D02*
D03*
X310000Y242500D02*
D03*
Y150000D02*
D03*
X165000Y262500D02*
D03*
Y182500D02*
D03*
X297500D02*
D03*
X115000Y292500D02*
D03*
X137500Y325000D02*
D03*
X350000Y672500D02*
D03*
X46000Y120000D02*
D03*
X71000Y170000D02*
D03*
X46000Y220000D02*
D03*
Y320000D02*
D03*
X71000Y370000D02*
D03*
X46000Y420000D02*
D03*
Y520000D02*
D03*
X71000Y570000D02*
D03*
X46000Y620000D02*
D03*
X71000Y670000D02*
D03*
X46000Y720000D02*
D03*
X96000Y20000D02*
D03*
Y120000D02*
D03*
X121000Y370000D02*
D03*
X96000Y420000D02*
D03*
X121000Y470000D02*
D03*
X96000Y620000D02*
D03*
Y720000D02*
D03*
X146000Y20000D02*
D03*
X171000Y170000D02*
D03*
Y370000D02*
D03*
Y470000D02*
D03*
X146000Y520000D02*
D03*
X171000Y570000D02*
D03*
X146000Y720000D02*
D03*
X171000Y770000D02*
D03*
X196000Y20000D02*
D03*
Y520000D02*
D03*
X221000Y570000D02*
D03*
X196000Y720000D02*
D03*
X221000Y770000D02*
D03*
X246000Y20000D02*
D03*
X271000Y70000D02*
D03*
Y170000D02*
D03*
Y370000D02*
D03*
X246000Y420000D02*
D03*
Y520000D02*
D03*
X271000Y570000D02*
D03*
X246000Y720000D02*
D03*
X296000Y20000D02*
D03*
X321000Y170000D02*
D03*
Y470000D02*
D03*
Y570000D02*
D03*
X296000Y620000D02*
D03*
Y720000D02*
D03*
X321000Y770000D02*
D03*
X346000Y20000D02*
D03*
X371000Y70000D02*
D03*
X346000Y120000D02*
D03*
X371000Y270000D02*
D03*
Y370000D02*
D03*
X346000Y420000D02*
D03*
M02*
