G04 Layer_Color=128*
%FSLAX44Y44*%
%MOMM*%
G71*
G01*
G75*
%ADD66C,0.0508*%
D66*
X315500Y80000D02*
X329500D01*
X322500Y73000D02*
Y87000D01*
X350500Y80000D02*
X364500D01*
X357500Y73000D02*
Y87000D01*
X892500Y290800D02*
X907500D01*
X900000Y283300D02*
Y298300D01*
X892500Y240000D02*
X907500D01*
X900000Y232500D02*
Y247500D01*
X892500Y189200D02*
X907500D01*
X900000Y181700D02*
Y196700D01*
X755000Y415000D02*
X765000D01*
X760000Y410000D02*
Y420000D01*
X755000Y265000D02*
X765000D01*
X760000Y260000D02*
Y270000D01*
X755000Y65000D02*
X765000D01*
X760000Y60000D02*
Y70000D01*
X755000Y215000D02*
X765000D01*
X760000Y210000D02*
Y220000D01*
X790000Y667500D02*
X800000D01*
X795000Y662500D02*
Y672500D01*
X790000Y567500D02*
X800000D01*
X795000Y562500D02*
Y572500D01*
X892500Y594600D02*
X907500D01*
X900000Y587100D02*
Y602100D01*
X892500Y645400D02*
X907500D01*
X900000Y637900D02*
Y652900D01*
X233300Y50000D02*
X248300D01*
X240800Y42500D02*
Y57500D01*
X182500Y50000D02*
X197500D01*
X190000Y42500D02*
Y57500D01*
X131700Y50000D02*
X146700D01*
X139200Y42500D02*
Y57500D01*
X685000Y265000D02*
X695000D01*
X690000Y260000D02*
Y270000D01*
X685000Y415000D02*
X695000D01*
X690000Y410000D02*
Y420000D01*
X685000Y215000D02*
X695000D01*
X690000Y210000D02*
Y220000D01*
X685000Y65000D02*
X695000D01*
X690000Y60000D02*
Y70000D01*
X634500Y540000D02*
X645500D01*
X640000Y534500D02*
Y545500D01*
X634500Y740000D02*
X645500D01*
X640000Y734500D02*
Y745500D01*
X434500Y690000D02*
X445500D01*
X440000Y684500D02*
Y695500D01*
X434500Y590000D02*
X445500D01*
X440000Y584500D02*
Y595500D01*
X423500Y300000D02*
X436500D01*
X430000Y293500D02*
Y306500D01*
X575900Y376200D02*
X588900D01*
X582400Y369700D02*
Y382700D01*
X601300Y300000D02*
X614300D01*
X607800Y293500D02*
Y306500D01*
X525100Y300000D02*
X538100D01*
X531600Y293500D02*
Y306500D01*
X423500Y376200D02*
X436500D01*
X430000Y369700D02*
Y382700D01*
X423500Y120000D02*
X436500D01*
X430000Y113500D02*
Y126500D01*
X575900Y196200D02*
X588900D01*
X582400Y189700D02*
Y202700D01*
X601300Y120000D02*
X614300D01*
X607800Y113500D02*
Y126500D01*
X525100Y120000D02*
X538100D01*
X531600Y113500D02*
Y126500D01*
X423500Y196200D02*
X436500D01*
X430000Y189700D02*
Y202700D01*
X288900Y780000D02*
X301900D01*
X295400Y773500D02*
Y786500D01*
X263500Y780000D02*
X276500D01*
X270000Y773500D02*
Y786500D01*
X238100Y780000D02*
X251100D01*
X244600Y773500D02*
Y786500D01*
X821000Y342500D02*
X829000D01*
X825000Y338500D02*
Y346500D01*
X821000Y267500D02*
X829000D01*
X825000Y263500D02*
Y271500D01*
X821000Y137500D02*
X829000D01*
X825000Y133500D02*
Y141500D01*
X821000Y212500D02*
X829000D01*
X825000Y208500D02*
Y216500D01*
X34000Y770000D02*
X66000D01*
X50000Y754000D02*
Y786000D01*
X884000Y770000D02*
X916000D01*
X900000Y754000D02*
Y786000D01*
X34000Y50000D02*
X66000D01*
X50000Y34000D02*
Y66000D01*
X884000Y50000D02*
X916000D01*
X900000Y34000D02*
Y66000D01*
X73000Y507500D02*
X87000D01*
X80000Y500500D02*
Y514500D01*
X73000Y472500D02*
X87000D01*
X80000Y465500D02*
Y479500D01*
X73000Y152500D02*
X87000D01*
X80000Y145500D02*
Y159501D01*
X73000Y187500D02*
X87000D01*
X80000Y180501D02*
Y194501D01*
X73000Y327500D02*
X87000D01*
X80000Y320500D02*
Y334500D01*
X73000Y292501D02*
X87000D01*
X80000Y285501D02*
Y299501D01*
X73000Y257500D02*
X87000D01*
X80000Y250500D02*
Y264500D01*
X73000Y222501D02*
X87000D01*
X80000Y215501D02*
Y229501D01*
X378500Y250000D02*
X381500D01*
X380000Y248500D02*
Y251500D01*
X221000Y632500D02*
X224000D01*
X222500Y631000D02*
Y634000D01*
X361000Y312500D02*
X364000D01*
X362500Y311000D02*
Y314000D01*
X248500Y325000D02*
X251500D01*
X250000Y323500D02*
Y326500D01*
X248500Y242500D02*
X251500D01*
X250000Y241000D02*
Y244000D01*
X276000Y160000D02*
X279000D01*
X277500Y158500D02*
Y161500D01*
X56000Y530000D02*
X59000D01*
X57500Y528500D02*
Y531500D01*
X93500Y607500D02*
X96500D01*
X95000Y606000D02*
Y609000D01*
X221000Y360000D02*
X224000D01*
X222500Y358500D02*
Y361500D01*
X221000Y547500D02*
X224000D01*
X222500Y546000D02*
Y549000D01*
X221000Y142500D02*
X224000D01*
X222500Y141000D02*
Y144000D01*
X131000Y547500D02*
X134000D01*
X132500Y546000D02*
Y549000D01*
X131000Y730000D02*
X134000D01*
X132500Y728500D02*
Y731500D01*
X153500Y507500D02*
X156500D01*
X155000Y506000D02*
Y509000D01*
X153500Y282500D02*
X156500D01*
X155000Y281000D02*
Y284000D01*
X191000Y495000D02*
X194000D01*
X192500Y493500D02*
Y496500D01*
X191000Y267500D02*
X194000D01*
X192500Y266000D02*
Y269000D01*
X298500Y430000D02*
X301500D01*
X300000Y428500D02*
Y431500D01*
X298500Y330000D02*
X301500D01*
X300000Y328500D02*
Y331500D01*
X321000Y457500D02*
X324000D01*
X322500Y456000D02*
Y459000D01*
X321000Y267500D02*
X324000D01*
X322500Y266000D02*
Y269000D01*
X203500Y457500D02*
X206500D01*
X205000Y456000D02*
Y459000D01*
X201000Y317500D02*
X204000D01*
X202500Y316000D02*
Y319000D01*
X218500Y117002D02*
X221500D01*
X220000Y115502D02*
Y118502D01*
X156000Y117500D02*
X159000D01*
X157500Y116000D02*
Y119000D01*
X308500Y242500D02*
X311500D01*
X310000Y241000D02*
Y244000D01*
X308500Y150000D02*
X311500D01*
X310000Y148500D02*
Y151500D01*
X163500Y262500D02*
X166500D01*
X165000Y261000D02*
Y264000D01*
X163500Y182500D02*
X166500D01*
X165000Y181000D02*
Y184000D01*
X296000Y182500D02*
X299000D01*
X297500Y181000D02*
Y184000D01*
X113500Y292500D02*
X116500D01*
X115000Y291000D02*
Y294000D01*
X136000Y325000D02*
X139000D01*
X137500Y323500D02*
Y326500D01*
X348500Y672500D02*
X351500D01*
X350000Y671000D02*
Y674000D01*
X44500Y120000D02*
X47500D01*
X46000Y118500D02*
Y121500D01*
X69500Y170000D02*
X72500D01*
X71000Y168500D02*
Y171500D01*
X44500Y220000D02*
X47500D01*
X46000Y218500D02*
Y221500D01*
X44500Y320000D02*
X47500D01*
X46000Y318500D02*
Y321500D01*
X69500Y370000D02*
X72500D01*
X71000Y368500D02*
Y371500D01*
X44500Y420000D02*
X47500D01*
X46000Y418500D02*
Y421500D01*
X44500Y520000D02*
X47500D01*
X46000Y518500D02*
Y521500D01*
X69500Y570000D02*
X72500D01*
X71000Y568500D02*
Y571500D01*
X44500Y620000D02*
X47500D01*
X46000Y618500D02*
Y621500D01*
X69500Y670000D02*
X72500D01*
X71000Y668500D02*
Y671500D01*
X44500Y720000D02*
X47500D01*
X46000Y718500D02*
Y721500D01*
X94500Y20000D02*
X97500D01*
X96000Y18500D02*
Y21500D01*
X94500Y120000D02*
X97500D01*
X96000Y118500D02*
Y121500D01*
X119500Y370000D02*
X122500D01*
X121000Y368500D02*
Y371500D01*
X94500Y420000D02*
X97500D01*
X96000Y418500D02*
Y421500D01*
X119500Y470000D02*
X122500D01*
X121000Y468500D02*
Y471500D01*
X94500Y620000D02*
X97500D01*
X96000Y618500D02*
Y621500D01*
X94500Y720000D02*
X97500D01*
X96000Y718500D02*
Y721500D01*
X144500Y20000D02*
X147500D01*
X146000Y18500D02*
Y21500D01*
X169500Y170000D02*
X172500D01*
X171000Y168500D02*
Y171500D01*
X169500Y370000D02*
X172500D01*
X171000Y368500D02*
Y371500D01*
X169500Y470000D02*
X172500D01*
X171000Y468500D02*
Y471500D01*
X144500Y520000D02*
X147500D01*
X146000Y518500D02*
Y521500D01*
X169500Y570000D02*
X172500D01*
X171000Y568500D02*
Y571500D01*
X144500Y720000D02*
X147500D01*
X146000Y718500D02*
Y721500D01*
X169500Y770000D02*
X172500D01*
X171000Y768500D02*
Y771500D01*
X194500Y20000D02*
X197500D01*
X196000Y18500D02*
Y21500D01*
X194500Y520000D02*
X197500D01*
X196000Y518500D02*
Y521500D01*
X219500Y570000D02*
X222500D01*
X221000Y568500D02*
Y571500D01*
X194500Y720000D02*
X197500D01*
X196000Y718500D02*
Y721500D01*
X219500Y770000D02*
X222500D01*
X221000Y768500D02*
Y771500D01*
X244500Y20000D02*
X247500D01*
X246000Y18500D02*
Y21500D01*
X269500Y70000D02*
X272500D01*
X271000Y68500D02*
Y71500D01*
X269500Y170000D02*
X272500D01*
X271000Y168500D02*
Y171500D01*
X269500Y370000D02*
X272500D01*
X271000Y368500D02*
Y371500D01*
X244500Y420000D02*
X247500D01*
X246000Y418500D02*
Y421500D01*
X244500Y520000D02*
X247500D01*
X246000Y518500D02*
Y521500D01*
X269500Y570000D02*
X272500D01*
X271000Y568500D02*
Y571500D01*
X244500Y720000D02*
X247500D01*
X246000Y718500D02*
Y721500D01*
X294500Y20000D02*
X297500D01*
X296000Y18500D02*
Y21500D01*
X319500Y170000D02*
X322500D01*
X321000Y168500D02*
Y171500D01*
X319500Y470000D02*
X322500D01*
X321000Y468500D02*
Y471500D01*
X319500Y570000D02*
X322500D01*
X321000Y568500D02*
Y571500D01*
X294500Y620000D02*
X297500D01*
X296000Y618500D02*
Y621500D01*
X294500Y720000D02*
X297500D01*
X296000Y718500D02*
Y721500D01*
X319500Y770000D02*
X322500D01*
X321000Y768500D02*
Y771500D01*
X344500Y20000D02*
X347500D01*
X346000Y18500D02*
Y21500D01*
X369500Y70000D02*
X372500D01*
X371000Y68500D02*
Y71500D01*
X344500Y120000D02*
X347500D01*
X346000Y118500D02*
Y121500D01*
X369500Y270000D02*
X372500D01*
X371000Y268500D02*
Y271500D01*
X369500Y370000D02*
X372500D01*
X371000Y368500D02*
Y371500D01*
X344500Y420000D02*
X347500D01*
X346000Y418500D02*
Y421500D01*
M02*
