M48
;Layer_Color=9474304
;FILE_FORMAT=4:4
METRIC,LZ
;TYPE=PLATED
T1F00S00C0.3000
T2F00S00C0.8000
T3F00S00C1.0000
T4F00S00C1.1000
T5F00S00C1.3000
T6F00S00C1.4000
T7F00S00C1.5000
T8F00S00C3.2000
%
T01
X00096Y0002
X00146
X00196
X00246
X00296
X00346
X00371Y0007
X00346Y0012
X0031Y0015
X00321Y0017
X002975Y001825
X00271Y0017
X002775Y0016
X002225Y001425
X0022Y00117002
X001575Y001175
X00096Y0012
X00171Y0017
X00165Y001825
Y002625
X00155Y002825
X00115Y002925
X001375Y00325
X002025Y003175
X0025Y00325
X003Y0033
X003625Y003125
X00371Y0027
X0038Y0025
X003225Y002675
X0031Y002425
X0025
X001925Y002675
X002225Y0036
X00271Y0007
X00046Y0012
X00071Y0017
X00046Y0022
Y0032
X00071Y0037
X00046Y0042
Y0052
X000575Y0053
X00071Y0057
X00046Y0062
X00071Y0067
X00046Y0072
X00096
X001325Y0073
X00146Y0072
X00196
X00246
X00296
Y0062
X00271Y0057
X00221
X002225Y005475
X00246Y0052
X00196
X001925Y00495
X00171Y0047
X00205Y004575
X00246Y0042
X003Y0043
X003225Y004575
X00321Y0047
X00346Y0042
X00371Y0037
X00271
X00171
X00121
X00096Y0042
X00121Y0047
X00155Y005075
X00146Y0052
X001325Y005475
X00171Y0057
X00095Y006075
X00096Y0062
X002225Y006325
X00321Y0057
X0035Y006725
X00321Y0077
X00221
X00171
T02
X00825Y001375
Y002125
Y002675
Y003425
T03
X0069Y00065
X0076Y00065
Y00215
Y00265
X0069Y00265
X0069Y00215
X0069Y00415
X0076Y00415
X00795Y005675
Y006675
T04
X0044Y0059
Y0069
X0064Y0074
Y0054
T05
X005316Y0012
X006078
X005824Y001962
X006078Y003
X005316
X0043
Y001962
Y0012
Y003762
X005824
X002954Y0078
X0027
X002446
T06
X003225Y0008
X003575
X0008Y001525
Y001875
Y00222501
Y002575
Y00292501
Y003275
Y004725
Y005075
T07
X009Y001892
Y0024
Y002908
X002408Y0005
X0019
X001392
X009Y005946
Y006454
T08
X009Y0005
X0005
X009Y0077
X0005
M30
