G04 Layer_Color=16711935*
%FSLAX44Y44*%
%MOMM*%
G71*
G01*
G75*
%ADD55C,2.2032*%
%ADD56C,1.8032*%
%ADD57C,2.1032*%
%ADD58R,2.5032X2.5032*%
%ADD59C,2.5032*%
%ADD60C,2.7032*%
%ADD61R,2.7032X2.7032*%
%ADD62R,2.7032X2.7032*%
%ADD63R,2.1032X2.1032*%
%ADD64C,6.2032*%
%ADD65R,2.5032X2.5032*%
G36*
X860000Y797500D02*
X858303D01*
Y803313D01*
X852295D01*
Y804815D01*
X858303D01*
Y808814D01*
X851359D01*
Y810316D01*
X860000D01*
Y797500D01*
D02*
G37*
G36*
X845214Y810511D02*
X845663Y810453D01*
X846053Y810394D01*
X846404Y810316D01*
X846677Y810219D01*
X846794Y810180D01*
X846891Y810160D01*
X846989Y810121D01*
X847048Y810102D01*
X847067Y810082D01*
X847086D01*
X847457Y809907D01*
X847789Y809692D01*
X848062Y809478D01*
X848277Y809283D01*
X848452Y809087D01*
X848589Y808931D01*
X848667Y808834D01*
X848686Y808814D01*
Y808795D01*
X848862Y808483D01*
X848998Y808151D01*
X849096Y807859D01*
X849154Y807566D01*
X849193Y807332D01*
X849232Y807156D01*
Y807078D01*
Y807020D01*
Y807000D01*
Y806981D01*
X849213Y806668D01*
X849154Y806356D01*
X849096Y806083D01*
X848998Y805849D01*
X848920Y805654D01*
X848862Y805518D01*
X848803Y805420D01*
X848784Y805381D01*
X848589Y805127D01*
X848374Y804893D01*
X848159Y804698D01*
X847925Y804523D01*
X847730Y804386D01*
X847574Y804289D01*
X847457Y804211D01*
X847438Y804191D01*
X847418D01*
X847282Y804113D01*
X847106Y804055D01*
X846735Y803918D01*
X846326Y803782D01*
X845916Y803645D01*
X845546Y803547D01*
X845389Y803508D01*
X845253Y803469D01*
X845136Y803430D01*
X845038Y803411D01*
X844980Y803391D01*
X844960D01*
X844648Y803313D01*
X844355Y803235D01*
X844082Y803177D01*
X843848Y803118D01*
X843653Y803060D01*
X843458Y803001D01*
X843302Y802962D01*
X843146Y802923D01*
X843029Y802884D01*
X842932Y802845D01*
X842775Y802806D01*
X842697Y802787D01*
X842678Y802767D01*
X842405Y802650D01*
X842151Y802514D01*
X841956Y802396D01*
X841800Y802279D01*
X841683Y802162D01*
X841585Y802084D01*
X841546Y802026D01*
X841527Y802006D01*
X841410Y801831D01*
X841332Y801655D01*
X841254Y801480D01*
X841215Y801304D01*
X841195Y801168D01*
X841176Y801050D01*
Y800972D01*
Y800953D01*
X841195Y800738D01*
X841234Y800543D01*
X841293Y800348D01*
X841351Y800192D01*
X841429Y800056D01*
X841488Y799958D01*
X841527Y799880D01*
X841546Y799861D01*
X841702Y799685D01*
X841878Y799529D01*
X842054Y799392D01*
X842249Y799275D01*
X842405Y799178D01*
X842541Y799119D01*
X842619Y799080D01*
X842658Y799061D01*
X842951Y798963D01*
X843244Y798905D01*
X843517Y798846D01*
X843790Y798827D01*
X844004Y798807D01*
X844200Y798788D01*
X844355D01*
X844746Y798807D01*
X845116Y798846D01*
X845467Y798905D01*
X845741Y798983D01*
X845994Y799041D01*
X846170Y799100D01*
X846287Y799139D01*
X846306Y799158D01*
X846326D01*
X846618Y799314D01*
X846891Y799470D01*
X847106Y799646D01*
X847282Y799802D01*
X847438Y799939D01*
X847535Y800056D01*
X847594Y800134D01*
X847613Y800153D01*
X847750Y800407D01*
X847867Y800660D01*
X847945Y800933D01*
X848023Y801187D01*
X848062Y801421D01*
X848101Y801597D01*
X848120Y801714D01*
Y801733D01*
Y801753D01*
X849720Y801616D01*
X849681Y801148D01*
X849603Y800719D01*
X849486Y800309D01*
X849369Y799978D01*
X849252Y799685D01*
X849193Y799568D01*
X849135Y799470D01*
X849096Y799392D01*
X849057Y799334D01*
X849037Y799314D01*
Y799295D01*
X848764Y798944D01*
X848452Y798632D01*
X848159Y798378D01*
X847847Y798163D01*
X847594Y797988D01*
X847379Y797871D01*
X847301Y797832D01*
X847243Y797793D01*
X847204Y797773D01*
X847184D01*
X846716Y797617D01*
X846228Y797500D01*
X845741Y797403D01*
X845292Y797344D01*
X845077Y797325D01*
X844882Y797305D01*
X844707D01*
X844570Y797286D01*
X844277D01*
X843770Y797305D01*
X843322Y797364D01*
X842893Y797442D01*
X842541Y797539D01*
X842229Y797617D01*
X842112Y797656D01*
X842015Y797695D01*
X841937Y797734D01*
X841878Y797754D01*
X841839Y797773D01*
X841820D01*
X841429Y797988D01*
X841078Y798202D01*
X840786Y798437D01*
X840552Y798671D01*
X840357Y798866D01*
X840239Y799022D01*
X840142Y799139D01*
X840122Y799178D01*
X839927Y799509D01*
X839791Y799861D01*
X839674Y800192D01*
X839615Y800485D01*
X839576Y800738D01*
X839537Y800933D01*
Y801012D01*
Y801070D01*
Y801089D01*
Y801109D01*
X839557Y801480D01*
X839615Y801831D01*
X839713Y802143D01*
X839810Y802396D01*
X839908Y802631D01*
X840005Y802787D01*
X840064Y802884D01*
X840083Y802923D01*
X840298Y803196D01*
X840552Y803450D01*
X840825Y803684D01*
X841098Y803879D01*
X841351Y804016D01*
X841546Y804133D01*
X841625Y804172D01*
X841664Y804211D01*
X841702Y804230D01*
X841722D01*
X841878Y804289D01*
X842073Y804367D01*
X842268Y804445D01*
X842502Y804503D01*
X842971Y804640D01*
X843439Y804776D01*
X843868Y804874D01*
X844063Y804932D01*
X844239Y804971D01*
X844375Y805010D01*
X844473Y805030D01*
X844551Y805049D01*
X844570D01*
X844941Y805147D01*
X845272Y805225D01*
X845565Y805303D01*
X845838Y805401D01*
X846072Y805479D01*
X846267Y805537D01*
X846443Y805615D01*
X846599Y805693D01*
X846735Y805752D01*
X846852Y805791D01*
X846930Y805849D01*
X846989Y805888D01*
X847086Y805947D01*
X847106Y805966D01*
X847262Y806142D01*
X847379Y806317D01*
X847477Y806513D01*
X847535Y806688D01*
X847574Y806844D01*
X847594Y806981D01*
Y807059D01*
Y807098D01*
X847555Y807390D01*
X847477Y807644D01*
X847379Y807878D01*
X847243Y808073D01*
X847125Y808249D01*
X847009Y808366D01*
X846930Y808444D01*
X846911Y808463D01*
X846774Y808561D01*
X846618Y808658D01*
X846267Y808795D01*
X845897Y808892D01*
X845526Y808951D01*
X845194Y809009D01*
X845038D01*
X844921Y809029D01*
X844668D01*
X844141Y809009D01*
X843692Y808931D01*
X843302Y808834D01*
X842990Y808717D01*
X842756Y808600D01*
X842580Y808502D01*
X842483Y808424D01*
X842444Y808405D01*
X842190Y808151D01*
X841976Y807859D01*
X841820Y807566D01*
X841702Y807273D01*
X841625Y807000D01*
X841585Y806786D01*
X841566Y806708D01*
X841546Y806649D01*
Y806610D01*
Y806590D01*
X839927Y806708D01*
X839966Y807117D01*
X840044Y807488D01*
X840162Y807839D01*
X840278Y808132D01*
X840376Y808366D01*
X840474Y808561D01*
X840552Y808678D01*
X840571Y808717D01*
X840805Y809029D01*
X841078Y809302D01*
X841351Y809536D01*
X841625Y809731D01*
X841878Y809868D01*
X842073Y809985D01*
X842151Y810024D01*
X842210Y810043D01*
X842229Y810063D01*
X842249D01*
X842658Y810219D01*
X843087Y810336D01*
X843517Y810414D01*
X843907Y810472D01*
X844239Y810511D01*
X844375D01*
X844512Y810531D01*
X844746D01*
X845214Y810511D01*
D02*
G37*
G36*
X447500Y60000D02*
X445803D01*
Y65813D01*
X439795D01*
Y67315D01*
X445803D01*
Y71314D01*
X438859D01*
Y72816D01*
X447500D01*
Y60000D01*
D02*
G37*
G36*
X432714Y73011D02*
X433162Y72953D01*
X433553Y72894D01*
X433904Y72816D01*
X434177Y72719D01*
X434294Y72680D01*
X434391Y72660D01*
X434489Y72621D01*
X434548Y72602D01*
X434567Y72582D01*
X434586D01*
X434957Y72407D01*
X435289Y72192D01*
X435562Y71978D01*
X435776Y71782D01*
X435952Y71587D01*
X436089Y71431D01*
X436167Y71334D01*
X436186Y71314D01*
Y71295D01*
X436362Y70983D01*
X436498Y70651D01*
X436596Y70359D01*
X436654Y70066D01*
X436693Y69832D01*
X436732Y69656D01*
Y69578D01*
Y69520D01*
Y69500D01*
Y69481D01*
X436713Y69169D01*
X436654Y68856D01*
X436596Y68583D01*
X436498Y68349D01*
X436420Y68154D01*
X436362Y68018D01*
X436303Y67920D01*
X436284Y67881D01*
X436089Y67628D01*
X435874Y67393D01*
X435659Y67198D01*
X435425Y67023D01*
X435230Y66886D01*
X435074Y66789D01*
X434957Y66711D01*
X434938Y66691D01*
X434918D01*
X434782Y66613D01*
X434606Y66555D01*
X434235Y66418D01*
X433826Y66281D01*
X433416Y66145D01*
X433045Y66047D01*
X432889Y66008D01*
X432753Y65969D01*
X432636Y65930D01*
X432538Y65911D01*
X432480Y65891D01*
X432460D01*
X432148Y65813D01*
X431856Y65735D01*
X431582Y65677D01*
X431348Y65618D01*
X431153Y65560D01*
X430958Y65501D01*
X430802Y65462D01*
X430646Y65423D01*
X430529Y65384D01*
X430432Y65345D01*
X430275Y65306D01*
X430197Y65287D01*
X430178Y65267D01*
X429905Y65150D01*
X429651Y65013D01*
X429456Y64896D01*
X429300Y64779D01*
X429183Y64662D01*
X429086Y64584D01*
X429047Y64526D01*
X429027Y64506D01*
X428910Y64331D01*
X428832Y64155D01*
X428754Y63980D01*
X428715Y63804D01*
X428695Y63667D01*
X428676Y63551D01*
Y63472D01*
Y63453D01*
X428695Y63238D01*
X428734Y63043D01*
X428793Y62848D01*
X428851Y62692D01*
X428929Y62556D01*
X428988Y62458D01*
X429027Y62380D01*
X429047Y62361D01*
X429202Y62185D01*
X429378Y62029D01*
X429554Y61892D01*
X429749Y61775D01*
X429905Y61678D01*
X430041Y61619D01*
X430119Y61580D01*
X430158Y61561D01*
X430451Y61463D01*
X430744Y61405D01*
X431017Y61346D01*
X431290Y61327D01*
X431504Y61307D01*
X431699Y61288D01*
X431856D01*
X432246Y61307D01*
X432616Y61346D01*
X432967Y61405D01*
X433241Y61483D01*
X433494Y61541D01*
X433670Y61600D01*
X433787Y61639D01*
X433806Y61658D01*
X433826D01*
X434118Y61814D01*
X434391Y61970D01*
X434606Y62146D01*
X434782Y62302D01*
X434938Y62439D01*
X435035Y62556D01*
X435094Y62634D01*
X435113Y62653D01*
X435250Y62907D01*
X435367Y63160D01*
X435445Y63433D01*
X435523Y63687D01*
X435562Y63921D01*
X435601Y64097D01*
X435620Y64214D01*
Y64233D01*
Y64253D01*
X437220Y64116D01*
X437181Y63648D01*
X437103Y63219D01*
X436986Y62809D01*
X436869Y62478D01*
X436752Y62185D01*
X436693Y62068D01*
X436635Y61970D01*
X436596Y61892D01*
X436557Y61834D01*
X436537Y61814D01*
Y61795D01*
X436264Y61444D01*
X435952Y61132D01*
X435659Y60878D01*
X435347Y60663D01*
X435094Y60488D01*
X434879Y60371D01*
X434801Y60332D01*
X434743Y60293D01*
X434704Y60273D01*
X434684D01*
X434216Y60117D01*
X433728Y60000D01*
X433241Y59903D01*
X432792Y59844D01*
X432577Y59825D01*
X432382Y59805D01*
X432207D01*
X432070Y59786D01*
X431777D01*
X431270Y59805D01*
X430822Y59864D01*
X430392Y59942D01*
X430041Y60039D01*
X429729Y60117D01*
X429612Y60156D01*
X429515Y60195D01*
X429437Y60234D01*
X429378Y60254D01*
X429339Y60273D01*
X429320D01*
X428929Y60488D01*
X428578Y60702D01*
X428286Y60936D01*
X428052Y61171D01*
X427856Y61366D01*
X427739Y61522D01*
X427642Y61639D01*
X427622Y61678D01*
X427427Y62009D01*
X427291Y62361D01*
X427174Y62692D01*
X427115Y62985D01*
X427076Y63238D01*
X427037Y63433D01*
Y63512D01*
Y63570D01*
Y63590D01*
Y63609D01*
X427057Y63980D01*
X427115Y64331D01*
X427213Y64643D01*
X427310Y64896D01*
X427408Y65131D01*
X427505Y65287D01*
X427564Y65384D01*
X427583Y65423D01*
X427798Y65696D01*
X428052Y65950D01*
X428325Y66184D01*
X428598Y66379D01*
X428851Y66516D01*
X429047Y66633D01*
X429124Y66672D01*
X429164Y66711D01*
X429202Y66730D01*
X429222D01*
X429378Y66789D01*
X429573Y66867D01*
X429768Y66945D01*
X430002Y67003D01*
X430471Y67140D01*
X430939Y67276D01*
X431368Y67374D01*
X431563Y67432D01*
X431739Y67471D01*
X431875Y67510D01*
X431973Y67530D01*
X432051Y67549D01*
X432070D01*
X432441Y67647D01*
X432772Y67725D01*
X433065Y67803D01*
X433338Y67901D01*
X433572Y67979D01*
X433767Y68037D01*
X433943Y68115D01*
X434099Y68193D01*
X434235Y68252D01*
X434352Y68291D01*
X434430Y68349D01*
X434489Y68388D01*
X434586Y68447D01*
X434606Y68466D01*
X434762Y68642D01*
X434879Y68817D01*
X434977Y69012D01*
X435035Y69188D01*
X435074Y69344D01*
X435094Y69481D01*
Y69559D01*
Y69598D01*
X435055Y69890D01*
X434977Y70144D01*
X434879Y70378D01*
X434743Y70573D01*
X434626Y70749D01*
X434509Y70866D01*
X434430Y70944D01*
X434411Y70963D01*
X434274Y71061D01*
X434118Y71158D01*
X433767Y71295D01*
X433397Y71392D01*
X433026Y71451D01*
X432694Y71509D01*
X432538D01*
X432421Y71529D01*
X432168D01*
X431641Y71509D01*
X431192Y71431D01*
X430802Y71334D01*
X430490Y71217D01*
X430256Y71100D01*
X430080Y71002D01*
X429983Y70924D01*
X429944Y70905D01*
X429690Y70651D01*
X429476Y70359D01*
X429320Y70066D01*
X429202Y69773D01*
X429124Y69500D01*
X429086Y69286D01*
X429066Y69208D01*
X429047Y69149D01*
Y69110D01*
Y69090D01*
X427427Y69208D01*
X427466Y69617D01*
X427544Y69988D01*
X427662Y70339D01*
X427779Y70632D01*
X427876Y70866D01*
X427974Y71061D01*
X428052Y71178D01*
X428071Y71217D01*
X428305Y71529D01*
X428578Y71802D01*
X428851Y72036D01*
X429124Y72231D01*
X429378Y72368D01*
X429573Y72485D01*
X429651Y72524D01*
X429710Y72543D01*
X429729Y72563D01*
X429749D01*
X430158Y72719D01*
X430588Y72836D01*
X431017Y72914D01*
X431407Y72972D01*
X431739Y73011D01*
X431875D01*
X432012Y73031D01*
X432246D01*
X432714Y73011D01*
D02*
G37*
D55*
X655000Y297500D02*
D03*
Y447500D02*
D03*
X750000Y525000D02*
D03*
Y300000D02*
D03*
Y27500D02*
D03*
Y252500D02*
D03*
X655000Y197500D02*
D03*
Y47500D02*
D03*
D56*
X912500Y360000D02*
D03*
X837500D02*
D03*
X910000Y117500D02*
D03*
X835000D02*
D03*
D57*
X795000Y727500D02*
D03*
Y627500D02*
D03*
X295400Y780000D02*
D03*
X270000D02*
D03*
D58*
X322500Y80000D02*
D03*
D59*
X357500D02*
D03*
X430000Y300000D02*
D03*
X582400Y376200D02*
D03*
X607800Y300000D02*
D03*
X531600D02*
D03*
X430000Y376200D02*
D03*
Y120000D02*
D03*
X582400Y196200D02*
D03*
X607800Y120000D02*
D03*
X531600D02*
D03*
X430000Y196200D02*
D03*
X80000Y472500D02*
D03*
Y152500D02*
D03*
Y187500D02*
D03*
Y292501D02*
D03*
Y257500D02*
D03*
Y222501D02*
D03*
D60*
X900000Y290800D02*
D03*
Y240000D02*
D03*
X900000Y645400D02*
D03*
X240800Y50000D02*
D03*
X190000D02*
D03*
X640000Y540000D02*
D03*
Y740000D02*
D03*
X440000Y690000D02*
D03*
Y590000D02*
D03*
D61*
X900000Y189200D02*
D03*
X900000Y594600D02*
D03*
D62*
X139200Y50000D02*
D03*
D63*
X244600Y780000D02*
D03*
D64*
X50000Y770000D02*
D03*
X900000D02*
D03*
X50000Y50000D02*
D03*
X900000D02*
D03*
D65*
X80000Y507500D02*
D03*
Y327500D02*
D03*
M02*
