G04 Layer_Physical_Order=1*
G04 Layer_Color=3162822*
%FSLAX44Y44*%
%MOMM*%
G71*
G01*
G75*
%ADD10R,0.6500X1.1000*%
%ADD11R,0.6500X0.9000*%
%ADD12R,0.8500X0.6000*%
%ADD13R,4.2000X2.6000*%
%ADD14R,0.9000X0.8000*%
%ADD15R,2.0000X0.8000*%
%ADD16R,1.3000X1.0000*%
%ADD17O,2.5000X0.7000*%
%ADD18R,1.1000X0.6500*%
%ADD19R,0.9000X0.6500*%
%ADD20R,0.8000X0.9000*%
%ADD21C,1.0000*%
%ADD22C,0.5000*%
%ADD23C,0.7000*%
%ADD24C,0.2540*%
%ADD25C,2.0000*%
%ADD26C,3.0000*%
%ADD27R,2.3000X2.3000*%
%ADD28C,2.3000*%
%ADD29C,2.5000*%
%ADD30R,2.5000X2.5000*%
%ADD31C,2.0000*%
%ADD32C,1.9000*%
%ADD33R,2.5000X2.5000*%
%ADD34R,1.9000X1.9000*%
%ADD35C,1.6000*%
%ADD36C,6.0000*%
%ADD37R,2.3000X2.3000*%
%ADD38C,0.6000*%
G36*
X251270Y319604D02*
X252162Y319781D01*
X253850Y320910D01*
X254520Y320666D01*
X256128Y319627D01*
X255927Y318100D01*
X256219Y315881D01*
X257075Y313813D01*
X258438Y312038D01*
Y311462D01*
X257075Y309687D01*
X256219Y307619D01*
X255927Y305400D01*
X256219Y303181D01*
X257075Y301113D01*
X258438Y299338D01*
Y298762D01*
X257075Y296987D01*
X256219Y294919D01*
X255927Y292700D01*
X256219Y290481D01*
X257075Y288413D01*
X258438Y286638D01*
Y286062D01*
X257075Y284287D01*
X256219Y282219D01*
X255927Y280000D01*
X256219Y277781D01*
X257075Y275713D01*
X258438Y273938D01*
Y273362D01*
X257075Y271587D01*
X256219Y269519D01*
X255927Y267300D01*
X256219Y265081D01*
X256375Y264705D01*
X254678Y262165D01*
X245322D01*
X243625Y264705D01*
X243781Y265081D01*
X244073Y267300D01*
X243781Y269519D01*
X242925Y271587D01*
X241562Y273362D01*
Y273938D01*
X242925Y275713D01*
X243781Y277781D01*
X244073Y280000D01*
X243781Y282219D01*
X242925Y284287D01*
X241562Y286062D01*
Y286638D01*
X242925Y288413D01*
X243781Y290481D01*
X244073Y292700D01*
X243781Y294919D01*
X242925Y296987D01*
X241562Y298762D01*
Y299338D01*
X242925Y301113D01*
X243781Y303181D01*
X244073Y305400D01*
X243781Y307619D01*
X242925Y309687D01*
X241562Y311462D01*
Y312038D01*
X242925Y313813D01*
X243781Y315881D01*
X244073Y318100D01*
X243872Y319627D01*
X245480Y320666D01*
X246150Y320910D01*
X247838Y319781D01*
X248730Y319604D01*
Y325000D01*
X251270D01*
Y319604D01*
D02*
G37*
G36*
X860000Y297422D02*
Y272500D01*
X882500Y250000D01*
X881250Y231250D01*
X838750Y188750D01*
X756250D01*
X733750Y211250D01*
X731250Y213750D01*
Y263750D01*
X756250Y288750D01*
X841250D01*
X857790Y298674D01*
X860000Y297422D01*
D02*
G37*
G36*
X340000Y682586D02*
X288500D01*
Y690000D01*
X272586D01*
Y732500D01*
X272243Y735110D01*
X271235Y737543D01*
X269632Y739632D01*
X254686Y754578D01*
Y765500D01*
X259100D01*
Y770255D01*
X260677Y771044D01*
X261640Y771239D01*
X263928Y769483D01*
X266857Y768270D01*
X268730Y768024D01*
Y780000D01*
X271270D01*
Y768024D01*
X273143Y768270D01*
X276072Y769483D01*
X278587Y771413D01*
X279838Y773043D01*
X282661Y772864D01*
X282734Y772688D01*
X285058Y769659D01*
X288088Y767334D01*
X291615Y765873D01*
X295400Y765375D01*
X299185Y765873D01*
X302713Y767334D01*
X305742Y769659D01*
X308066Y772688D01*
X309527Y776215D01*
X310025Y780000D01*
X309527Y783785D01*
X308066Y787313D01*
X305742Y790342D01*
X305486Y790537D01*
Y792100D01*
X305143Y794710D01*
X304135Y797143D01*
X302532Y799232D01*
X292132Y809632D01*
X290043Y811235D01*
X287610Y812243D01*
X285000Y812586D01*
X160000D01*
X157389Y812243D01*
X154957Y811235D01*
X152868Y809632D01*
X125368Y782132D01*
X123765Y780043D01*
X122757Y777610D01*
X122414Y775000D01*
Y730000D01*
Y690000D01*
X106500D01*
Y679565D01*
X97000D01*
Y681002D01*
X78000D01*
Y663002D01*
X80460D01*
Y659272D01*
X94540D01*
Y663002D01*
X97000D01*
Y664436D01*
X106500D01*
Y654000D01*
X158500D01*
Y690000D01*
X142586D01*
Y730000D01*
Y770822D01*
X164178Y792414D01*
X230100D01*
Y765500D01*
X234514D01*
Y750400D01*
X234857Y747790D01*
X235865Y745357D01*
X237468Y743268D01*
X252414Y728322D01*
Y690000D01*
X236500D01*
Y682086D01*
X222511D01*
X222500Y682088D01*
X177501D01*
X177500Y682088D01*
X174889Y681744D01*
X173097Y681002D01*
X168000D01*
Y675198D01*
X167757Y674612D01*
X167414Y672002D01*
X167757Y669391D01*
X168000Y668805D01*
Y663002D01*
Y649002D01*
X179935D01*
Y633000D01*
X176000D01*
Y613000D01*
X178460D01*
Y608270D01*
X196540D01*
Y613000D01*
X199000D01*
Y633000D01*
X195065D01*
Y649002D01*
X207000D01*
Y661915D01*
X215460D01*
Y659272D01*
X229540D01*
Y661914D01*
X236500D01*
Y654000D01*
X288500D01*
Y662414D01*
X307046D01*
X309000Y661000D01*
Y643000D01*
X319597D01*
X321390Y642257D01*
X324000Y641914D01*
X326610Y642257D01*
X328403Y643000D01*
X339000D01*
X340000Y640874D01*
Y487500D01*
X415000Y412500D01*
X412500Y410000D01*
Y347546D01*
X410704Y345750D01*
X394165D01*
X392375Y345750D01*
X391625Y347979D01*
Y355250D01*
X372625D01*
X372625Y355250D01*
X370542Y354807D01*
X370309Y354710D01*
X370309Y354710D01*
X370237Y354680D01*
X368718Y354051D01*
X368001Y353502D01*
X335500D01*
Y337565D01*
X302642D01*
X302088Y337794D01*
X300000Y338069D01*
X297912Y337794D01*
X295965Y336988D01*
X294294Y335706D01*
X292603Y335595D01*
X282849Y345349D01*
X281282Y346551D01*
X279458Y347307D01*
X277500Y347565D01*
X266002D01*
Y349500D01*
X264566D01*
Y355498D01*
X264308Y357456D01*
X263553Y359281D01*
X262351Y360848D01*
X262351Y360848D01*
X257849Y365349D01*
X256282Y366551D01*
X254458Y367307D01*
X252500Y367565D01*
X225142D01*
X224588Y367794D01*
X222500Y368069D01*
X220412Y367794D01*
X218465Y366988D01*
X216794Y365706D01*
X215512Y364035D01*
X214706Y362088D01*
X214431Y360000D01*
X214706Y357912D01*
X215512Y355965D01*
X216794Y354294D01*
X218465Y353012D01*
X220412Y352206D01*
X222500Y351931D01*
X224588Y352206D01*
X225142Y352435D01*
X249367D01*
X249437Y352365D01*
Y349500D01*
X248002D01*
Y347040D01*
X244272D01*
Y340000D01*
Y332960D01*
X248002D01*
Y330500D01*
X246068Y329036D01*
X246006Y328994D01*
X244781Y327162D01*
X244352Y325000D01*
X244432Y324595D01*
X242057Y323518D01*
X241562Y324162D01*
X239787Y325525D01*
X237719Y326381D01*
X235500Y326673D01*
X217500D01*
X215281Y326381D01*
X213213Y325525D01*
X212614Y325065D01*
X205142D01*
X204588Y325294D01*
X202500Y325569D01*
X200411Y325294D01*
X198465Y324488D01*
X196794Y323206D01*
X195512Y321535D01*
X194706Y319588D01*
X194431Y317500D01*
X194706Y315412D01*
X195512Y313465D01*
X196794Y311794D01*
X198465Y310512D01*
X200411Y309706D01*
X202435Y309440D01*
Y307500D01*
X202693Y305542D01*
X203449Y303718D01*
X204651Y302151D01*
X204029Y299180D01*
X203718Y299051D01*
X202151Y297849D01*
X199651Y295349D01*
X198449Y293782D01*
X197693Y291958D01*
X197435Y290000D01*
Y282500D01*
X197693Y280542D01*
X198449Y278718D01*
X199303Y277605D01*
X198571Y275065D01*
X195142D01*
X194588Y275294D01*
X192500Y275569D01*
X190411Y275294D01*
X188465Y274488D01*
X186794Y273206D01*
X185512Y271535D01*
X184706Y269588D01*
X184431Y267500D01*
X184706Y265412D01*
X185512Y263465D01*
X186794Y261794D01*
X188465Y260512D01*
X190411Y259706D01*
X192500Y259431D01*
X194588Y259706D01*
X195142Y259935D01*
X207805D01*
X209457Y257395D01*
X209219Y256819D01*
X208927Y254600D01*
X209219Y252381D01*
X210075Y250313D01*
X211438Y248538D01*
X211709Y248329D01*
X212942Y246548D01*
X212212Y244858D01*
X211810Y244257D01*
X211594Y243170D01*
X226500D01*
Y240630D01*
X211594D01*
X211695Y240126D01*
X210296Y237586D01*
X145750D01*
X143139Y237243D01*
X140707Y236235D01*
X139749Y235500D01*
X136500D01*
Y232543D01*
X136040Y232070D01*
X133500Y233102D01*
Y245000D01*
X121515D01*
X120543Y247347D01*
X128132Y254935D01*
X162358D01*
X162911Y254706D01*
X165000Y254431D01*
X167088Y254706D01*
X169035Y255512D01*
X170706Y256794D01*
X171988Y258465D01*
X172794Y260412D01*
X173069Y262500D01*
X172794Y264588D01*
X171988Y266535D01*
X170706Y268206D01*
X169035Y269488D01*
X167088Y270294D01*
X165000Y270569D01*
X162911Y270294D01*
X162358Y270065D01*
X126855D01*
X125803Y272605D01*
X128133Y274935D01*
X152358D01*
X152912Y274706D01*
X155000Y274431D01*
X157088Y274706D01*
X159035Y275512D01*
X160706Y276794D01*
X161988Y278465D01*
X162794Y280412D01*
X163069Y282500D01*
X162794Y284588D01*
X161988Y286535D01*
X160706Y288206D01*
X159035Y289488D01*
X157088Y290294D01*
X155000Y290569D01*
X152912Y290294D01*
X152358Y290065D01*
X125303D01*
X124832Y290263D01*
X123052Y292370D01*
X123069Y292500D01*
X122794Y294588D01*
X121988Y296535D01*
X120706Y298206D01*
X119035Y299488D01*
X117088Y300294D01*
X115000Y300569D01*
X112912Y300294D01*
X112361Y300066D01*
X94666D01*
X93785Y301712D01*
X91724Y304225D01*
X89211Y306287D01*
X86345Y307819D01*
X84232Y308460D01*
X84609Y311000D01*
X96500D01*
Y319935D01*
X131303D01*
X131794Y319294D01*
X133465Y318012D01*
X135412Y317206D01*
X137500Y316931D01*
X139588Y317206D01*
X141535Y318012D01*
X143206Y319294D01*
X144488Y320965D01*
X145294Y322912D01*
X145569Y325000D01*
X145294Y327088D01*
X144488Y329035D01*
X143206Y330706D01*
X141535Y331988D01*
X140981Y332217D01*
X140349Y332849D01*
X138783Y334051D01*
X136958Y334807D01*
X135000Y335065D01*
X96500D01*
Y344000D01*
X63500D01*
Y311000D01*
X75391D01*
X75768Y308460D01*
X73655Y307819D01*
X70789Y306287D01*
X68276Y304225D01*
X66214Y301712D01*
X64682Y298846D01*
X63739Y295736D01*
X63420Y292501D01*
X63739Y289267D01*
X64682Y286156D01*
X66214Y283290D01*
X68276Y280777D01*
X70789Y278715D01*
X73655Y277183D01*
X76765Y276240D01*
Y273761D01*
X73655Y272818D01*
X70789Y271285D01*
X68276Y269224D01*
X66214Y266711D01*
X64682Y263845D01*
X63739Y260735D01*
X63420Y257500D01*
X63739Y254265D01*
X64682Y251155D01*
X66214Y248289D01*
X68276Y245776D01*
X70789Y243714D01*
X73655Y242182D01*
X76765Y241239D01*
Y238762D01*
X73655Y237819D01*
X70789Y236287D01*
X68276Y234225D01*
X66214Y231712D01*
X64682Y228846D01*
X63739Y225736D01*
X63420Y222501D01*
X63739Y219267D01*
X64682Y216156D01*
X66214Y213290D01*
X68276Y210778D01*
X70789Y208716D01*
X73655Y207183D01*
X76765Y206240D01*
Y203762D01*
X73655Y202818D01*
X70789Y201286D01*
X68276Y199224D01*
X66214Y196712D01*
X64682Y193845D01*
X63739Y190735D01*
X63420Y187500D01*
X63739Y184266D01*
X64682Y181156D01*
X66214Y178289D01*
X68276Y175777D01*
X70789Y173715D01*
X73655Y172183D01*
X76765Y171239D01*
X80000Y170921D01*
X83235Y171239D01*
X86345Y172183D01*
X89211Y173715D01*
X91724Y175777D01*
X93785Y178289D01*
X94666Y179936D01*
X107500D01*
X109458Y180194D01*
X111283Y180949D01*
X112850Y182152D01*
X127849Y197151D01*
X127849Y197151D01*
X129599Y198901D01*
X129599Y198901D01*
X130801Y200467D01*
X131557Y202292D01*
X131815Y204250D01*
Y210000D01*
X133500D01*
Y221898D01*
X136040Y222930D01*
X136500Y222457D01*
Y219500D01*
X139749D01*
X140707Y218765D01*
X143139Y217757D01*
X145750Y217414D01*
X347500D01*
X350111Y217757D01*
X352543Y218765D01*
X354632Y220368D01*
X374178Y239914D01*
X395000D01*
X397611Y240257D01*
X400043Y241265D01*
X400462Y241586D01*
X401469Y241719D01*
X402148Y242000D01*
X408500D01*
Y258000D01*
X402148D01*
X401469Y258281D01*
X400462Y258414D01*
X400043Y258735D01*
X397611Y259743D01*
X395000Y260086D01*
X370000D01*
X367389Y259743D01*
X364957Y258735D01*
X362868Y257132D01*
X343322Y237586D01*
X319680D01*
X317956Y239877D01*
X317931Y240126D01*
X318165Y241900D01*
X317907Y243858D01*
X317882Y243917D01*
X317794Y244588D01*
X316988Y246535D01*
X315706Y248206D01*
X314035Y249488D01*
X312088Y250294D01*
X310000Y250569D01*
X307912Y250294D01*
X305965Y249488D01*
X305935Y249465D01*
X303482D01*
X302509Y251811D01*
X302849Y252151D01*
X304051Y253718D01*
X304807Y255542D01*
X305065Y257500D01*
Y259735D01*
X320341D01*
X320412Y259706D01*
X322500Y259431D01*
X324588Y259706D01*
X326535Y260512D01*
X328206Y261794D01*
X329488Y263465D01*
X330294Y265412D01*
X330569Y267500D01*
X330294Y269588D01*
X329488Y271535D01*
X328206Y273206D01*
X326535Y274488D01*
X324588Y275294D01*
X322500Y275569D01*
X320412Y275294D01*
X319375Y274865D01*
X292323D01*
X290625Y277405D01*
X290781Y277781D01*
X291073Y280000D01*
X290781Y282219D01*
X290612Y282628D01*
X292139Y285391D01*
X292158Y285393D01*
X293982Y286149D01*
X295549Y287351D01*
X297849Y289651D01*
X297849Y289651D01*
X299051Y291218D01*
X299807Y293042D01*
X300065Y295000D01*
Y305000D01*
Y317500D01*
X300065Y317500D01*
X300065Y317500D01*
Y321940D01*
X302088Y322206D01*
X302642Y322435D01*
X335500D01*
Y321502D01*
X354500D01*
Y321819D01*
X355460Y323962D01*
X361230D01*
Y330502D01*
X362500D01*
Y331772D01*
X369540D01*
Y335502D01*
X372000D01*
Y337419D01*
X373284Y337950D01*
X374326Y338750D01*
X389835D01*
X391625Y338750D01*
X392375Y336521D01*
Y329250D01*
X395310D01*
Y312500D01*
X395568Y310542D01*
X396324Y308718D01*
X397526Y307151D01*
X410026Y294651D01*
X411592Y293449D01*
X412500Y293073D01*
Y267500D01*
X411500D01*
Y251500D01*
X412500D01*
Y248500D01*
X411500D01*
Y232500D01*
X412500D01*
Y203607D01*
X411742Y203507D01*
X409918Y202751D01*
X408351Y201549D01*
X397526Y190724D01*
X396324Y189157D01*
X395568Y187333D01*
X395310Y185375D01*
Y167546D01*
X394667Y166903D01*
X391758Y167585D01*
X391625Y167979D01*
Y175250D01*
X372625D01*
Y175065D01*
X372500D01*
X370542Y174807D01*
X368718Y174051D01*
X368001Y173502D01*
X335500D01*
Y157565D01*
X312642D01*
X312088Y157794D01*
X310000Y158069D01*
X307912Y157794D01*
X305965Y156988D01*
X304294Y155706D01*
X303012Y154035D01*
X302206Y152088D01*
X301931Y150000D01*
X302206Y147912D01*
X303012Y145965D01*
X304294Y144294D01*
X305965Y143012D01*
X307912Y142206D01*
X310000Y141931D01*
X312088Y142206D01*
X312642Y142435D01*
X335500D01*
Y141502D01*
X354500D01*
Y141819D01*
X355460Y143962D01*
X361230D01*
Y150502D01*
X362500D01*
Y151772D01*
X369540D01*
Y155502D01*
X372000D01*
Y157418D01*
X373284Y157950D01*
X374326Y158750D01*
X389835D01*
X391625Y158750D01*
X392375Y156521D01*
Y149250D01*
X412500D01*
Y0D01*
X2500D01*
X0Y2500D01*
X-0Y817460D01*
X2540Y820000D01*
X340000D01*
Y682586D01*
D02*
G37*
%LPC*%
G36*
X276230Y165396D02*
X275338Y165219D01*
X273506Y163994D01*
X272281Y162162D01*
X272104Y161270D01*
X276230D01*
Y165396D01*
D02*
G37*
G36*
X282896Y158730D02*
X278770D01*
Y154604D01*
X279662Y154782D01*
X281494Y156006D01*
X282719Y157838D01*
X282896Y158730D01*
D02*
G37*
G36*
X248230Y167415D02*
X243710D01*
Y161645D01*
X248230D01*
Y167415D01*
D02*
G37*
G36*
X278770Y165396D02*
Y161270D01*
X282896D01*
X282719Y162162D01*
X281494Y163994D01*
X279662Y165219D01*
X278770Y165396D01*
D02*
G37*
G36*
X255290Y159105D02*
X250770D01*
Y153335D01*
X255290D01*
Y159105D01*
D02*
G37*
G36*
X248230D02*
X243710D01*
Y153335D01*
X248230D01*
Y159105D01*
D02*
G37*
G36*
X78730Y166495D02*
X76335Y166179D01*
X72919Y164764D01*
X69987Y162514D01*
X67736Y159581D01*
X66321Y156166D01*
X66006Y153771D01*
X78730D01*
Y166495D01*
D02*
G37*
G36*
X276230Y158730D02*
X272104D01*
X272281Y157838D01*
X273506Y156006D01*
X275338Y154782D01*
X276230Y154604D01*
Y158730D01*
D02*
G37*
G36*
X81270Y166495D02*
Y153771D01*
X93994D01*
X93679Y156166D01*
X92264Y159581D01*
X90013Y162514D01*
X87080Y164764D01*
X83665Y166179D01*
X81270Y166495D01*
D02*
G37*
G36*
X255290Y167415D02*
X250770D01*
Y161645D01*
X255290D01*
Y167415D01*
D02*
G37*
G36*
X369540Y329232D02*
X363770D01*
Y323962D01*
X369540D01*
Y329232D01*
D02*
G37*
G36*
X363770Y317896D02*
Y313770D01*
X367896D01*
X367719Y314662D01*
X366494Y316494D01*
X364662Y317719D01*
X363770Y317896D01*
D02*
G37*
G36*
X389165Y326730D02*
X383395D01*
Y322210D01*
X389165D01*
Y326730D01*
D02*
G37*
G36*
X380855D02*
X375085D01*
Y322210D01*
X380855D01*
Y326730D01*
D02*
G37*
G36*
X361230Y317896D02*
X360338Y317719D01*
X358506Y316494D01*
X357281Y314662D01*
X357104Y313770D01*
X361230D01*
Y317896D01*
D02*
G37*
G36*
X297500Y190569D02*
X295412Y190294D01*
X294858Y190065D01*
X167642D01*
X167088Y190294D01*
X165000Y190569D01*
X162911Y190294D01*
X160965Y189488D01*
X159294Y188206D01*
X158012Y186535D01*
X157206Y184588D01*
X156931Y182500D01*
X157206Y180412D01*
X158012Y178465D01*
X159294Y176794D01*
X160965Y175512D01*
X162911Y174706D01*
X165000Y174431D01*
X167088Y174706D01*
X167642Y174935D01*
X294858D01*
X295412Y174706D01*
X297500Y174431D01*
X299588Y174706D01*
X301535Y175512D01*
X303206Y176794D01*
X304488Y178465D01*
X305294Y180412D01*
X305569Y182500D01*
X305294Y184588D01*
X304488Y186535D01*
X303206Y188206D01*
X301535Y189488D01*
X299588Y190294D01*
X297500Y190569D01*
D02*
G37*
G36*
X238750Y169875D02*
X222250D01*
Y167565D01*
X212999D01*
X212998Y167565D01*
X211040Y167307D01*
X209216Y166551D01*
X207649Y165349D01*
X207649Y165349D01*
X198302Y156002D01*
X190500D01*
Y156002D01*
X189500D01*
Y156002D01*
X170500D01*
Y155065D01*
X160000D01*
X158290Y154840D01*
X157909Y154912D01*
X155750Y156607D01*
Y168375D01*
X139250D01*
Y147375D01*
X139935D01*
Y144165D01*
X139270D01*
Y137125D01*
X138000D01*
Y135855D01*
X132210D01*
Y130085D01*
X130500Y128498D01*
X130500D01*
Y110498D01*
Y96498D01*
X132435D01*
Y67500D01*
X121700D01*
Y32500D01*
X156700D01*
Y67500D01*
X147565D01*
Y96498D01*
X149500D01*
Y111031D01*
X149859Y111150D01*
X152040Y111606D01*
X153465Y110512D01*
X155412Y109706D01*
X157500Y109431D01*
X159588Y109706D01*
X160142Y109935D01*
X170500D01*
Y108002D01*
X172960D01*
Y104272D01*
X187040D01*
Y107808D01*
X189500Y108002D01*
X190420D01*
X192960Y107808D01*
Y104272D01*
X207040D01*
Y108002D01*
X209500D01*
Y109437D01*
X217358D01*
X217911Y109208D01*
X220000Y108933D01*
X222088Y109208D01*
X224035Y110014D01*
X225706Y111296D01*
X226195Y111934D01*
X230500D01*
Y96498D01*
X233235D01*
Y65800D01*
X231030Y64621D01*
X228366Y62434D01*
X226179Y59770D01*
X224554Y56729D01*
X223553Y53431D01*
X223215Y50000D01*
X223553Y46569D01*
X224554Y43271D01*
X226179Y40231D01*
X228366Y37566D01*
X231030Y35379D01*
X234071Y33754D01*
X237369Y32753D01*
X240800Y32415D01*
X244231Y32753D01*
X247529Y33754D01*
X250569Y35379D01*
X253234Y37566D01*
X255421Y40231D01*
X257046Y43271D01*
X258047Y46569D01*
X258385Y50000D01*
X258047Y53431D01*
X257046Y56729D01*
X255421Y59770D01*
X253234Y62434D01*
X250569Y64621D01*
X248365Y65800D01*
Y96498D01*
X249500D01*
Y110498D01*
Y128498D01*
X248250Y129125D01*
Y150125D01*
X240979D01*
X238750Y150875D01*
Y169875D01*
D02*
G37*
G36*
X367896Y311230D02*
X363770D01*
Y307104D01*
X364662Y307281D01*
X366494Y308506D01*
X367719Y310338D01*
X367896Y311230D01*
D02*
G37*
G36*
X361230D02*
X357104D01*
X357281Y310338D01*
X358506Y308506D01*
X360338Y307281D01*
X361230Y307104D01*
Y311230D01*
D02*
G37*
G36*
X389165Y153790D02*
X383395D01*
Y149270D01*
X389165D01*
Y153790D01*
D02*
G37*
G36*
X356230Y78730D02*
X343506D01*
X343821Y76335D01*
X345236Y72920D01*
X347486Y69987D01*
X350419Y67736D01*
X353835Y66322D01*
X356230Y66006D01*
Y78730D01*
D02*
G37*
G36*
X339000Y96500D02*
X306000D01*
Y63500D01*
X339000D01*
Y96500D01*
D02*
G37*
G36*
X371494Y78730D02*
X358770D01*
Y66006D01*
X361165Y66322D01*
X364581Y67736D01*
X367513Y69987D01*
X369764Y72920D01*
X371179Y76335D01*
X371494Y78730D01*
D02*
G37*
G36*
X358770Y93994D02*
Y81270D01*
X371494D01*
X371179Y83665D01*
X369764Y87081D01*
X367513Y90014D01*
X364581Y92264D01*
X361165Y93679D01*
X358770Y93994D01*
D02*
G37*
G36*
X356230D02*
X353835Y93679D01*
X350419Y92264D01*
X347486Y90014D01*
X345236Y87081D01*
X343821Y83665D01*
X343506Y81270D01*
X356230D01*
Y93994D01*
D02*
G37*
G36*
X188730Y48730D02*
X175012D01*
X175178Y47052D01*
X176038Y44217D01*
X177434Y41604D01*
X179314Y39314D01*
X181604Y37434D01*
X184217Y36038D01*
X187052Y35178D01*
X188730Y35013D01*
Y48730D01*
D02*
G37*
G36*
X50000Y85108D02*
X44508Y84676D01*
X39151Y83390D01*
X34061Y81282D01*
X29364Y78403D01*
X25175Y74825D01*
X21597Y70636D01*
X18718Y65939D01*
X16610Y60849D01*
X15324Y55492D01*
X14892Y50000D01*
X15324Y44508D01*
X16610Y39151D01*
X18718Y34061D01*
X21597Y29364D01*
X25175Y25175D01*
X29364Y21597D01*
X34061Y18719D01*
X39151Y16610D01*
X44508Y15324D01*
X50000Y14892D01*
X55492Y15324D01*
X60849Y16610D01*
X65939Y18719D01*
X70636Y21597D01*
X74825Y25175D01*
X78403Y29364D01*
X81282Y34061D01*
X83390Y39151D01*
X84676Y44508D01*
X85108Y50000D01*
X84676Y55492D01*
X83390Y60849D01*
X81282Y65939D01*
X78403Y70636D01*
X74825Y74825D01*
X70636Y78403D01*
X65939Y81282D01*
X60849Y83390D01*
X55492Y84676D01*
X50000Y85108D01*
D02*
G37*
G36*
X204988Y48730D02*
X191270D01*
Y35013D01*
X192948Y35178D01*
X195783Y36038D01*
X198396Y37434D01*
X200686Y39314D01*
X202566Y41604D01*
X203962Y44217D01*
X204822Y47052D01*
X204988Y48730D01*
D02*
G37*
G36*
X191270Y64988D02*
Y51270D01*
X204988D01*
X204822Y52948D01*
X203962Y55784D01*
X202566Y58396D01*
X200686Y60686D01*
X198396Y62566D01*
X195783Y63962D01*
X192948Y64823D01*
X191270Y64988D01*
D02*
G37*
G36*
X188730D02*
X187052Y64823D01*
X184217Y63962D01*
X181604Y62566D01*
X179314Y60686D01*
X177434Y58396D01*
X176038Y55784D01*
X175178Y52948D01*
X175012Y51270D01*
X188730D01*
Y64988D01*
D02*
G37*
G36*
X178730Y101732D02*
X172960D01*
Y96462D01*
X178730D01*
Y101732D01*
D02*
G37*
G36*
X380855Y146730D02*
X375085D01*
Y142210D01*
X380855D01*
Y146730D01*
D02*
G37*
G36*
X93994Y151230D02*
X81270D01*
Y138507D01*
X83665Y138822D01*
X87080Y140237D01*
X90013Y142487D01*
X92264Y145420D01*
X93679Y148835D01*
X93994Y151230D01*
D02*
G37*
G36*
X389165Y146730D02*
X383395D01*
Y142210D01*
X389165D01*
Y146730D01*
D02*
G37*
G36*
X380855Y153790D02*
X375085D01*
Y149270D01*
X380855D01*
Y153790D01*
D02*
G37*
G36*
X369540Y149232D02*
X363770D01*
Y143962D01*
X369540D01*
Y149232D01*
D02*
G37*
G36*
X198730Y101732D02*
X192960D01*
Y96462D01*
X198730D01*
Y101732D01*
D02*
G37*
G36*
X187040D02*
X181270D01*
Y96462D01*
X187040D01*
Y101732D01*
D02*
G37*
G36*
X207040D02*
X201270D01*
Y96462D01*
X207040D01*
Y101732D01*
D02*
G37*
G36*
X78730Y151230D02*
X66006D01*
X66321Y148835D01*
X67736Y145420D01*
X69987Y142487D01*
X72919Y140237D01*
X76335Y138822D01*
X78730Y138507D01*
Y151230D01*
D02*
G37*
G36*
X136730Y144165D02*
X132210D01*
Y138395D01*
X136730D01*
Y144165D01*
D02*
G37*
G36*
X380855Y333790D02*
X375085D01*
Y329270D01*
X380855D01*
Y333790D01*
D02*
G37*
G36*
X261230Y623540D02*
X238960D01*
Y609270D01*
X261230D01*
Y623540D01*
D02*
G37*
G36*
X156040D02*
X133770D01*
Y609270D01*
X156040D01*
Y623540D01*
D02*
G37*
G36*
X286040D02*
X263770D01*
Y609270D01*
X286040D01*
Y623540D01*
D02*
G37*
G36*
X336540Y626730D02*
X325270D01*
Y621460D01*
X336540D01*
Y626730D01*
D02*
G37*
G36*
X322730D02*
X311460D01*
Y621460D01*
X322730D01*
Y626730D01*
D02*
G37*
G36*
X100396Y606230D02*
X96270D01*
Y602104D01*
X97162Y602281D01*
X98994Y603506D01*
X100218Y605338D01*
X100396Y606230D01*
D02*
G37*
G36*
X93730D02*
X89604D01*
X89781Y605338D01*
X91006Y603506D01*
X92838Y602281D01*
X93730Y602104D01*
Y606230D01*
D02*
G37*
G36*
Y612896D02*
X92838Y612719D01*
X91006Y611494D01*
X89781Y609662D01*
X89604Y608770D01*
X93730D01*
Y612896D01*
D02*
G37*
G36*
X131230Y623540D02*
X108960D01*
Y609270D01*
X131230D01*
Y623540D01*
D02*
G37*
G36*
X96270Y612896D02*
Y608770D01*
X100396D01*
X100218Y609662D01*
X98994Y611494D01*
X97162Y612719D01*
X96270Y612896D01*
D02*
G37*
G36*
X221230Y631230D02*
X217104D01*
X217281Y630338D01*
X218506Y628506D01*
X220338Y627281D01*
X221230Y627104D01*
Y631230D01*
D02*
G37*
G36*
X94540Y656732D02*
X88770D01*
Y651462D01*
X94540D01*
Y656732D01*
D02*
G37*
G36*
X86230D02*
X80460D01*
Y651462D01*
X86230D01*
Y656732D01*
D02*
G37*
G36*
X221230D02*
X215460D01*
Y651462D01*
X221230D01*
Y656732D01*
D02*
G37*
G36*
X50000Y805108D02*
X44508Y804676D01*
X39151Y803390D01*
X34061Y801282D01*
X29364Y798403D01*
X25175Y794825D01*
X21597Y790636D01*
X18718Y785939D01*
X16610Y780849D01*
X15324Y775492D01*
X14892Y770000D01*
X15324Y764508D01*
X16610Y759151D01*
X18718Y754061D01*
X21597Y749364D01*
X25175Y745175D01*
X29364Y741597D01*
X34061Y738718D01*
X39151Y736610D01*
X44508Y735324D01*
X50000Y734892D01*
X55492Y735324D01*
X60849Y736610D01*
X65939Y738718D01*
X70636Y741597D01*
X74825Y745175D01*
X78403Y749364D01*
X81282Y754061D01*
X83390Y759151D01*
X84676Y764508D01*
X85108Y770000D01*
X84676Y775492D01*
X83390Y780849D01*
X81282Y785939D01*
X78403Y790636D01*
X74825Y794825D01*
X70636Y798403D01*
X65939Y801282D01*
X60849Y803390D01*
X55492Y804676D01*
X50000Y805108D01*
D02*
G37*
G36*
X229540Y656732D02*
X223770D01*
Y651462D01*
X229540D01*
Y656732D01*
D02*
G37*
G36*
X322730Y634540D02*
X311460D01*
Y629270D01*
X322730D01*
Y634540D01*
D02*
G37*
G36*
X227896Y631230D02*
X223770D01*
Y627104D01*
X224662Y627281D01*
X226494Y628506D01*
X227719Y630338D01*
X227896Y631230D01*
D02*
G37*
G36*
X336540Y634540D02*
X325270D01*
Y629270D01*
X336540D01*
Y634540D01*
D02*
G37*
G36*
X223770Y637896D02*
Y633770D01*
X227896D01*
X227719Y634662D01*
X226494Y636494D01*
X224662Y637719D01*
X223770Y637896D01*
D02*
G37*
G36*
X221230D02*
X220338Y637719D01*
X218506Y636494D01*
X217281Y634662D01*
X217104Y633770D01*
X221230D01*
Y637896D01*
D02*
G37*
G36*
X196540Y605730D02*
X188770D01*
Y599460D01*
X196540D01*
Y605730D01*
D02*
G37*
G36*
X93994Y471230D02*
X81270D01*
Y458506D01*
X83665Y458822D01*
X87080Y460236D01*
X90013Y462487D01*
X92264Y465420D01*
X93679Y468835D01*
X93994Y471230D01*
D02*
G37*
G36*
X78730D02*
X66006D01*
X66321Y468835D01*
X67736Y465420D01*
X69987Y462487D01*
X72919Y460236D01*
X76335Y458822D01*
X78730Y458506D01*
Y471230D01*
D02*
G37*
G36*
Y486494D02*
X76335Y486179D01*
X72919Y484764D01*
X69987Y482514D01*
X67736Y479581D01*
X66321Y476165D01*
X66006Y473770D01*
X78730D01*
Y486494D01*
D02*
G37*
G36*
X96500Y524000D02*
X63500D01*
Y491000D01*
X96500D01*
Y499935D01*
X152358D01*
X152912Y499706D01*
X155000Y499431D01*
X157088Y499706D01*
X159035Y500512D01*
X160706Y501794D01*
X161988Y503465D01*
X162794Y505412D01*
X163069Y507500D01*
X162794Y509588D01*
X161988Y511535D01*
X160706Y513206D01*
X159035Y514488D01*
X157088Y515294D01*
X155000Y515569D01*
X152912Y515294D01*
X152358Y515065D01*
X96500D01*
Y524000D01*
D02*
G37*
G36*
X81270Y486494D02*
Y473770D01*
X93994D01*
X93679Y476165D01*
X92264Y479581D01*
X90013Y482514D01*
X87080Y484764D01*
X83665Y486179D01*
X81270Y486494D01*
D02*
G37*
G36*
X241732Y338730D02*
X236462D01*
Y332960D01*
X241732D01*
Y338730D01*
D02*
G37*
G36*
X389165Y333790D02*
X383395D01*
Y329270D01*
X389165D01*
Y333790D01*
D02*
G37*
G36*
X241732Y347040D02*
X236462D01*
Y341270D01*
X241732D01*
Y347040D01*
D02*
G37*
G36*
X241406Y430630D02*
X227770D01*
Y425742D01*
X235500D01*
X237857Y426211D01*
X239855Y427545D01*
X241189Y429543D01*
X241406Y430630D01*
D02*
G37*
G36*
X225230D02*
X211594D01*
X211810Y429543D01*
X213145Y427545D01*
X215143Y426211D01*
X217500Y425742D01*
X225230D01*
Y430630D01*
D02*
G37*
G36*
X252500Y557586D02*
X132500D01*
X129889Y557243D01*
X127457Y556235D01*
X125368Y554632D01*
X123765Y552543D01*
X122757Y550111D01*
X122414Y547500D01*
X122757Y544889D01*
X123765Y542457D01*
X125368Y540368D01*
X127457Y538765D01*
X129889Y537757D01*
X132500Y537414D01*
X234076D01*
X236462Y537040D01*
Y531270D01*
X243002D01*
Y530000D01*
X244272D01*
Y522960D01*
X248002D01*
Y520500D01*
X253805D01*
X254391Y520257D01*
X257002Y519914D01*
X259612Y520257D01*
X260198Y520500D01*
X266002D01*
Y522435D01*
X286867D01*
X289935Y519367D01*
Y515665D01*
X286449D01*
X284719Y516381D01*
X282500Y516673D01*
X264500D01*
X262281Y516381D01*
X260213Y515525D01*
X258438Y514162D01*
X257075Y512387D01*
X256219Y510319D01*
X255927Y508100D01*
X256219Y505881D01*
X257075Y503813D01*
X257169Y503691D01*
X258274Y501750D01*
X257169Y499809D01*
X257075Y499687D01*
X256219Y497619D01*
X255927Y495400D01*
X256219Y493181D01*
X257075Y491113D01*
X257169Y490991D01*
X258274Y489050D01*
X257169Y487109D01*
X257075Y486987D01*
X256219Y484919D01*
X255927Y482700D01*
X256219Y480481D01*
X257075Y478413D01*
X257169Y478291D01*
X258274Y476350D01*
X257169Y474409D01*
X257075Y474287D01*
X256219Y472219D01*
X255927Y470000D01*
X256219Y467781D01*
X257075Y465713D01*
X257169Y465591D01*
X258274Y463650D01*
X257169Y461709D01*
X257075Y461587D01*
X256219Y459519D01*
X255927Y457300D01*
X256219Y455081D01*
X256375Y454705D01*
X254678Y452165D01*
X245322D01*
X243625Y454705D01*
X243781Y455081D01*
X244073Y457300D01*
X243781Y459519D01*
X242925Y461587D01*
X242831Y461709D01*
X241726Y463650D01*
X242831Y465591D01*
X242925Y465713D01*
X243781Y467781D01*
X244073Y470000D01*
X243781Y472219D01*
X242925Y474287D01*
X242831Y474409D01*
X241726Y476350D01*
X242831Y478291D01*
X242925Y478413D01*
X243781Y480481D01*
X244073Y482700D01*
X243781Y484919D01*
X242925Y486987D01*
X242831Y487109D01*
X241726Y489050D01*
X242831Y490991D01*
X242925Y491113D01*
X243781Y493181D01*
X244073Y495400D01*
X243781Y497619D01*
X242925Y499687D01*
X242831Y499809D01*
X241726Y501750D01*
X242831Y503691D01*
X242925Y503813D01*
X243781Y505881D01*
X244073Y508100D01*
X243781Y510319D01*
X242925Y512387D01*
X241562Y514162D01*
X239787Y515525D01*
X237719Y516381D01*
X235500Y516673D01*
X229295D01*
X228946Y516906D01*
X226500Y517393D01*
X224054Y516906D01*
X223705Y516673D01*
X217500D01*
X215281Y516381D01*
X213551Y515665D01*
X208100D01*
X208100Y515665D01*
X206142Y515407D01*
X204318Y514651D01*
X202751Y513449D01*
X202751Y513449D01*
X199651Y510349D01*
X198449Y508782D01*
X197693Y506958D01*
X197435Y505000D01*
Y502965D01*
X193292D01*
X192500Y503069D01*
X190411Y502794D01*
X188465Y501988D01*
X186794Y500706D01*
X185512Y499035D01*
X184706Y497088D01*
X184431Y495000D01*
X184706Y492912D01*
X185512Y490965D01*
X186794Y489294D01*
X188465Y488012D01*
X190411Y487206D01*
X192500Y486931D01*
X194588Y487206D01*
X196108Y487835D01*
X198818D01*
X199482Y486234D01*
X199610Y485295D01*
X198449Y483782D01*
X197693Y481958D01*
X197435Y480000D01*
Y472500D01*
X197693Y470542D01*
X198449Y468718D01*
X199651Y467151D01*
X200113Y466689D01*
X199696Y463514D01*
X199294Y463206D01*
X198012Y461535D01*
X197206Y459588D01*
X196931Y457500D01*
X197206Y455412D01*
X198012Y453465D01*
X199294Y451794D01*
X200965Y450512D01*
X202911Y449706D01*
X205000Y449431D01*
X207088Y449706D01*
X207159Y449735D01*
X207677D01*
X209375Y447195D01*
X209219Y446819D01*
X208927Y444600D01*
X209219Y442381D01*
X210075Y440313D01*
X211438Y438538D01*
X211709Y438329D01*
X212942Y436548D01*
X212212Y434858D01*
X211810Y434257D01*
X211594Y433170D01*
X241406D01*
X241189Y434257D01*
X241030Y434495D01*
X242388Y437035D01*
X254678D01*
X256375Y434495D01*
X256219Y434119D01*
X255927Y431900D01*
X256219Y429681D01*
X257075Y427613D01*
X258438Y425838D01*
X260213Y424475D01*
X262281Y423619D01*
X264500Y423327D01*
X282500D01*
X284719Y423619D01*
X286449Y424335D01*
X294263D01*
X294294Y424294D01*
X295965Y423012D01*
X297912Y422206D01*
X300000Y421931D01*
X302088Y422206D01*
X304035Y423012D01*
X305706Y424294D01*
X306988Y425965D01*
X307794Y427912D01*
X308069Y430000D01*
X307794Y432088D01*
X306988Y434035D01*
X306218Y435038D01*
X305951Y435682D01*
X304749Y437249D01*
X303182Y438451D01*
X301358Y439207D01*
X299400Y439465D01*
X292323D01*
X290625Y442005D01*
X290781Y442381D01*
X291073Y444600D01*
X290781Y446819D01*
X290625Y447195D01*
X292323Y449735D01*
X320341D01*
X320412Y449706D01*
X322500Y449431D01*
X324588Y449706D01*
X326535Y450512D01*
X328206Y451794D01*
X329488Y453465D01*
X330294Y455412D01*
X330569Y457500D01*
X330294Y459588D01*
X329488Y461535D01*
X328206Y463206D01*
X326535Y464488D01*
X324588Y465294D01*
X322500Y465569D01*
X320412Y465294D01*
X319375Y464865D01*
X292323D01*
X290625Y467405D01*
X290781Y467781D01*
X291073Y470000D01*
X290781Y472219D01*
X290625Y472595D01*
X290637Y472683D01*
X292400Y474949D01*
X292500Y474935D01*
X294458Y475193D01*
X296282Y475949D01*
X297849Y477151D01*
X302849Y482151D01*
X304051Y483718D01*
X304807Y485542D01*
X304936Y486521D01*
X305065Y487500D01*
X305065Y487500D01*
Y495000D01*
Y508750D01*
Y522500D01*
X304807Y524458D01*
X304051Y526282D01*
X302849Y527849D01*
X302849Y527849D01*
X295349Y535349D01*
X293782Y536551D01*
X291958Y537307D01*
X290000Y537565D01*
X267088D01*
Y542998D01*
X266744Y545609D01*
X265737Y548042D01*
X264134Y550131D01*
X259632Y554632D01*
X257543Y556235D01*
X255110Y557243D01*
X252500Y557586D01*
D02*
G37*
G36*
X156040Y606730D02*
X133770D01*
Y592460D01*
X156040D01*
Y606730D01*
D02*
G37*
G36*
X131230D02*
X108960D01*
Y592460D01*
X131230D01*
Y606730D01*
D02*
G37*
G36*
X261230D02*
X238960D01*
Y592460D01*
X261230D01*
Y606730D01*
D02*
G37*
G36*
X186230Y605730D02*
X178460D01*
Y599460D01*
X186230D01*
Y605730D01*
D02*
G37*
G36*
X286040Y606730D02*
X263770D01*
Y592460D01*
X286040D01*
Y606730D01*
D02*
G37*
G36*
X56230Y528730D02*
X52104D01*
X52281Y527838D01*
X53506Y526006D01*
X55338Y524781D01*
X56230Y524604D01*
Y528730D01*
D02*
G37*
G36*
X241732D02*
X236462D01*
Y522960D01*
X241732D01*
Y528730D01*
D02*
G37*
G36*
X62896D02*
X58770D01*
Y524604D01*
X59662Y524781D01*
X61494Y526006D01*
X62719Y527838D01*
X62896Y528730D01*
D02*
G37*
G36*
X58770Y535396D02*
Y531270D01*
X62896D01*
X62719Y532162D01*
X61494Y533994D01*
X59662Y535219D01*
X58770Y535396D01*
D02*
G37*
G36*
X56230D02*
X55338Y535219D01*
X53506Y533994D01*
X52281Y532162D01*
X52104Y531270D01*
X56230D01*
Y535396D01*
D02*
G37*
%LPD*%
D10*
X147500Y157875D02*
D03*
X240000Y139625D02*
D03*
D11*
X157000Y137125D02*
D03*
X138000D02*
D03*
X230500Y160375D02*
D03*
X249500D02*
D03*
D12*
X145750Y227500D02*
D03*
X124250Y218000D02*
D03*
Y237000D02*
D03*
X399250Y250000D02*
D03*
X420750Y259500D02*
D03*
Y240500D02*
D03*
D13*
X132500Y672000D02*
D03*
Y608000D02*
D03*
X262500Y672000D02*
D03*
Y608000D02*
D03*
D14*
X87500Y672002D02*
D03*
Y658002D02*
D03*
X222500Y672002D02*
D03*
Y658002D02*
D03*
X197500Y672002D02*
D03*
Y658002D02*
D03*
X177500Y672002D02*
D03*
Y658002D02*
D03*
X362500Y164502D02*
D03*
Y150502D02*
D03*
X345000Y164502D02*
D03*
Y150502D02*
D03*
X240000Y105498D02*
D03*
Y119498D02*
D03*
X200000Y147002D02*
D03*
Y133002D02*
D03*
X140000Y105498D02*
D03*
Y119498D02*
D03*
X362500Y344502D02*
D03*
Y330502D02*
D03*
X180000Y147002D02*
D03*
Y133002D02*
D03*
X345000Y344502D02*
D03*
Y330502D02*
D03*
X200000Y117002D02*
D03*
Y103002D02*
D03*
X180000Y117002D02*
D03*
Y103002D02*
D03*
D15*
X324000Y652000D02*
D03*
Y628000D02*
D03*
X381000Y652000D02*
D03*
Y628000D02*
D03*
D16*
X187500Y623000D02*
D03*
Y607000D02*
D03*
D17*
X273500Y254600D02*
D03*
X226500Y318100D02*
D03*
Y305400D02*
D03*
Y292700D02*
D03*
Y280000D02*
D03*
Y267300D02*
D03*
Y254600D02*
D03*
Y241900D02*
D03*
X273500Y318100D02*
D03*
Y305400D02*
D03*
Y292700D02*
D03*
Y280000D02*
D03*
Y267300D02*
D03*
Y241900D02*
D03*
Y444600D02*
D03*
X226500Y508100D02*
D03*
Y495400D02*
D03*
Y482700D02*
D03*
Y470000D02*
D03*
Y457300D02*
D03*
Y444600D02*
D03*
Y431900D02*
D03*
X273500Y508100D02*
D03*
Y495400D02*
D03*
Y482700D02*
D03*
Y470000D02*
D03*
Y457300D02*
D03*
Y431900D02*
D03*
D18*
X402875Y157500D02*
D03*
Y337500D02*
D03*
D19*
X382125Y148000D02*
D03*
Y167000D02*
D03*
Y328000D02*
D03*
Y347000D02*
D03*
D20*
X257002Y340000D02*
D03*
X243002D02*
D03*
X257002Y530000D02*
D03*
X243002D02*
D03*
D21*
X325000Y672500D02*
X350000D01*
X387500Y690000D02*
X440000D01*
X381000Y683500D02*
X387500Y690000D01*
X381000Y652000D02*
Y683500D01*
X262500Y672500D02*
X325000D01*
X324000Y671500D02*
X325000Y672500D01*
X324000Y652000D02*
Y671500D01*
X137085Y137500D02*
X137460Y137125D01*
X115000Y137500D02*
X137085D01*
X100000Y152500D02*
X115000Y137500D01*
X85000Y152500D02*
X100000D01*
X380000Y250000D02*
X395000D01*
X370000D02*
X380000D01*
X222500Y607000D02*
Y658002D01*
X357500Y80000D02*
Y117500D01*
X362500Y122500D01*
Y150502D01*
X57500Y530000D02*
X243002D01*
X85000Y472500D02*
X125600Y431900D01*
X226500D01*
X222500Y547500D02*
X252500D01*
X132500D02*
X222500D01*
X132500Y730000D02*
Y775000D01*
X257002Y530000D02*
Y542998D01*
X252500Y547500D02*
X257002Y542998D01*
X132500Y672000D02*
Y730000D01*
X381000Y601500D02*
Y628000D01*
Y601500D02*
X392500Y590000D01*
X392500Y590000D01*
X440000D01*
X324000Y611500D02*
Y628000D01*
X320500Y608000D02*
X324000Y611500D01*
X262500Y608000D02*
X320500D01*
X222501Y672000D02*
X262500D01*
X222500Y672002D02*
X222501Y672000D01*
X177500Y672002D02*
X177500Y672002D01*
X222500D01*
X244600Y750400D02*
Y780000D01*
Y750400D02*
X262500Y732500D01*
Y672000D02*
Y672500D01*
Y732500D01*
X295400Y780000D02*
Y792100D01*
X160000Y802500D02*
X285000D01*
X132500Y775000D02*
X160000Y802500D01*
X132500Y672000D02*
X132500Y672000D01*
X285000Y802500D02*
X295400Y792100D01*
X87500Y615000D02*
Y658002D01*
Y615000D02*
X95000Y607500D01*
X95500Y608000D01*
X132500D01*
X186500D01*
X187500Y607000D01*
X261500D02*
X262500Y608000D01*
X222500Y607000D02*
X222500Y607000D01*
X187500D02*
X222500D01*
X261500D01*
X347500Y227500D02*
X370000Y250000D01*
X145750Y227500D02*
X347500D01*
D22*
X222500Y160000D02*
X230125D01*
X212998D02*
X222500D01*
Y142500D02*
Y160000D01*
X147500Y119498D02*
X155502D01*
X140000D02*
X147500D01*
Y157875D01*
X179501Y147500D02*
X180000Y147002D01*
X160000Y147500D02*
X179501D01*
X157000Y144500D02*
X160000Y147500D01*
X157000Y137125D02*
Y144500D01*
X365002Y148000D02*
X382125D01*
X362500Y150502D02*
X365002Y148000D01*
X362500Y312500D02*
X362500Y312500D01*
X362500Y312500D02*
Y330502D01*
X242500Y339498D02*
X243002Y340000D01*
X242500Y332500D02*
Y339498D01*
Y332500D02*
X242500D01*
X250000Y325000D01*
X226500Y241900D02*
X227100Y242500D01*
X250000D01*
X277125Y160375D02*
X277500Y160000D01*
X249500Y160375D02*
X277125D01*
X222500Y360000D02*
X252500D01*
X257002Y355498D01*
Y340000D02*
Y355498D01*
X85000Y507500D02*
X155000D01*
X125000Y282500D02*
X155000D01*
X100000Y257500D02*
X125000Y282500D01*
X85000Y257500D02*
X100000D01*
X139200Y50000D02*
X140000Y50800D01*
Y105498D01*
X240800Y50000D02*
Y104698D01*
X240000Y105498D02*
X240800Y104698D01*
X155502Y119498D02*
X157500Y117500D01*
X179502D01*
X180000Y117002D01*
X222497Y119498D02*
X240000D01*
X190000Y50000D02*
Y103002D01*
X190000Y103002D02*
X190000Y103002D01*
X180000Y103002D02*
X190000D01*
X200000D01*
X240000Y119498D02*
Y139625D01*
X240000Y139625D02*
X240000Y139625D01*
X180000Y117002D02*
Y133002D01*
X200000Y117002D02*
Y133002D01*
X180000Y147002D02*
X200000D01*
X212998Y160000D01*
X230125D02*
X230500Y160375D01*
X87501Y672000D02*
X132500D01*
X87500Y672002D02*
X87501Y672000D01*
X187500Y623000D02*
Y658002D01*
X187500Y658002D02*
X187500Y658002D01*
X177500Y658002D02*
X187500D01*
X197500D01*
X420750Y223250D02*
Y240500D01*
Y259500D02*
Y273250D01*
X430000Y282500D01*
Y300000D01*
X362500Y164502D02*
X369502D01*
X372500Y167500D01*
X381625D01*
X382125Y167000D01*
X345000Y164502D02*
X362500D01*
Y344502D02*
X369502D01*
X372500Y347500D01*
X381625D01*
X382125Y347000D01*
X362500Y330502D02*
X369498D01*
X372500Y327500D01*
X381625D01*
X382125Y328000D01*
X345000Y344502D02*
X362500D01*
X226500Y444600D02*
X273500D01*
X192500Y495000D02*
X192900Y495400D01*
X192500Y267500D02*
X226300D01*
X226500Y267300D01*
Y254600D02*
X273500D01*
X300000Y330000D02*
X344498D01*
X345000Y330502D01*
X205200Y457300D02*
X226500D01*
X205000Y457500D02*
X205200Y457300D01*
X200000Y117002D02*
X220000D01*
X310000Y150000D02*
X344498D01*
X345000Y150502D01*
X310600Y241900D02*
X310600D01*
X310000Y242500D02*
X310600Y241900D01*
X420750Y223250D02*
X429000Y215000D01*
X430000D01*
X430000Y215000D01*
Y196200D02*
Y215000D01*
X413700Y196200D02*
X430000D01*
X402875Y185375D02*
X413700Y196200D01*
X402875Y157500D02*
Y185375D01*
Y312500D02*
X415375Y300000D01*
X430000D01*
X402875Y312500D02*
Y337500D01*
X164999Y262501D02*
X165000Y262500D01*
X85000Y507500D02*
X85000Y507500D01*
X273500Y241900D02*
X309400D01*
X310000Y242500D01*
X165000Y182500D02*
X297500D01*
X124250Y218000D02*
Y237000D01*
X85000Y187500D02*
X107500D01*
X122500Y202500D01*
X122500D01*
X124250Y204250D01*
Y218000D01*
X85000Y222501D02*
X124999Y262500D01*
X165000D01*
X85000Y292501D02*
X114999D01*
X115000Y292500D01*
X85000Y327500D02*
X135000D01*
X137500Y325000D01*
X220000Y117002D02*
X222497Y119498D01*
X322300Y267300D02*
X322500Y267500D01*
X322300Y457300D02*
X322500Y457500D01*
X273500Y457300D02*
X322300D01*
X273500Y431900D02*
X298100D01*
X299400D01*
X298100D02*
X300000Y430000D01*
X273500Y254600D02*
X294600D01*
X297500Y257500D01*
Y267300D01*
X273500D02*
X322300D01*
X273500Y292700D02*
X290200D01*
X292500Y295000D01*
X273900Y305000D02*
X292500D01*
X273500Y305400D02*
X273900Y305000D01*
X292500Y295000D02*
Y305000D01*
X273500Y318100D02*
X274100Y317500D01*
X292500Y305000D02*
Y317500D01*
X273500Y318100D02*
X291900D01*
X292500Y317500D01*
Y325000D01*
X277500Y340000D02*
X292500Y325000D01*
X257002Y340000D02*
X277500D01*
X210000Y307500D02*
Y317500D01*
Y307500D02*
X212100Y305400D01*
X226500D01*
X202500Y317500D02*
X210000D01*
X221500D01*
X212700Y292700D02*
X226500D01*
X212500Y292500D02*
X212700Y292700D01*
X207500Y292500D02*
X212500D01*
X205000Y290000D02*
X207500Y292500D01*
X205000Y282500D02*
Y290000D01*
Y282500D02*
X207500Y280000D01*
X226500D01*
X208100Y508100D02*
X226500D01*
X205000Y505000D02*
X208100Y508100D01*
X205000Y495400D02*
Y505000D01*
X192900Y495400D02*
X205000D01*
X226500D01*
X205000Y472500D02*
X207500Y470000D01*
X226500D01*
X205000Y472500D02*
Y480000D01*
X207700Y482700D01*
X226500D01*
X273500D02*
X292300D01*
X292500Y482500D01*
X297500Y487500D01*
X290000Y530000D02*
X297500Y522500D01*
X257002Y530000D02*
X290000D01*
X273500Y495400D02*
X297100D01*
X297500Y495000D01*
Y487500D02*
Y495000D01*
X273500Y508100D02*
X296850D01*
X297500Y508750D01*
Y495000D02*
Y508750D01*
Y522500D01*
D23*
X395000Y250000D02*
X399250D01*
D24*
X226500Y508100D02*
Y511000D01*
D25*
X760000Y215000D02*
Y265000D01*
X762500Y267500D02*
X825000D01*
Y212500D02*
Y240000D01*
X825000Y240000D01*
X762500Y212500D02*
X825000D01*
Y240000D02*
X900000D01*
X825000Y240000D02*
Y240000D01*
Y267500D01*
D26*
X900000Y355000D02*
Y582500D01*
X825000Y280000D02*
X900000Y355000D01*
X825000Y267500D02*
Y280000D01*
D27*
X322500Y80000D02*
D03*
D28*
X357500D02*
D03*
X430000Y300000D02*
D03*
X582400Y376200D02*
D03*
X607800Y300000D02*
D03*
X531600D02*
D03*
X430000Y376200D02*
D03*
Y120000D02*
D03*
X582400Y196200D02*
D03*
X607800Y120000D02*
D03*
X531600D02*
D03*
X430000Y196200D02*
D03*
X80000Y472500D02*
D03*
Y152500D02*
D03*
Y187500D02*
D03*
Y292501D02*
D03*
Y257500D02*
D03*
Y222501D02*
D03*
D29*
X900000Y290800D02*
D03*
Y240000D02*
D03*
X900000Y645400D02*
D03*
X240800Y50000D02*
D03*
X190000D02*
D03*
X640000Y540000D02*
D03*
Y740000D02*
D03*
X440000Y690000D02*
D03*
Y590000D02*
D03*
D30*
X900000Y189200D02*
D03*
X900000Y594600D02*
D03*
D31*
X760000Y415000D02*
D03*
Y265000D02*
D03*
Y65000D02*
D03*
Y215000D02*
D03*
X690000Y265000D02*
D03*
Y415000D02*
D03*
X690000Y215000D02*
D03*
Y65000D02*
D03*
D32*
X795000Y667500D02*
D03*
Y567500D02*
D03*
X295400Y780000D02*
D03*
X270000D02*
D03*
D33*
X139200Y50000D02*
D03*
D34*
X244600Y780000D02*
D03*
D35*
X825000Y342500D02*
D03*
Y267500D02*
D03*
Y137500D02*
D03*
Y212500D02*
D03*
D36*
X50000Y770000D02*
D03*
X900000D02*
D03*
X50000Y50000D02*
D03*
X900000D02*
D03*
D37*
X80000Y507500D02*
D03*
Y327500D02*
D03*
D38*
X380000Y250000D02*
D03*
X222500Y632500D02*
D03*
X362500Y312500D02*
D03*
X250000Y325000D02*
D03*
Y242500D02*
D03*
X277500Y160000D02*
D03*
X57500Y530000D02*
D03*
X95000Y607500D02*
D03*
X222500Y360000D02*
D03*
Y547500D02*
D03*
Y142500D02*
D03*
X132500Y547500D02*
D03*
Y730000D02*
D03*
X155000Y507500D02*
D03*
Y282500D02*
D03*
X192500Y495000D02*
D03*
Y267500D02*
D03*
X300000Y430000D02*
D03*
Y330000D02*
D03*
X322500Y457500D02*
D03*
Y267500D02*
D03*
X205000Y457500D02*
D03*
X202500Y317500D02*
D03*
X220000Y117002D02*
D03*
X157500Y117500D02*
D03*
X310000Y242500D02*
D03*
Y150000D02*
D03*
X165000Y262500D02*
D03*
Y182500D02*
D03*
X297500D02*
D03*
X115000Y292500D02*
D03*
X137500Y325000D02*
D03*
X350000Y672500D02*
D03*
X46000Y120000D02*
D03*
X71000Y170000D02*
D03*
X46000Y220000D02*
D03*
Y320000D02*
D03*
X71000Y370000D02*
D03*
X46000Y420000D02*
D03*
Y520000D02*
D03*
X71000Y570000D02*
D03*
X46000Y620000D02*
D03*
X71000Y670000D02*
D03*
X46000Y720000D02*
D03*
X96000Y20000D02*
D03*
Y120000D02*
D03*
X121000Y370000D02*
D03*
X96000Y420000D02*
D03*
X121000Y470000D02*
D03*
X96000Y620000D02*
D03*
Y720000D02*
D03*
X146000Y20000D02*
D03*
X171000Y170000D02*
D03*
Y370000D02*
D03*
Y470000D02*
D03*
X146000Y520000D02*
D03*
X171000Y570000D02*
D03*
X146000Y720000D02*
D03*
X171000Y770000D02*
D03*
X196000Y20000D02*
D03*
Y520000D02*
D03*
X221000Y570000D02*
D03*
X196000Y720000D02*
D03*
X221000Y770000D02*
D03*
X246000Y20000D02*
D03*
X271000Y70000D02*
D03*
Y170000D02*
D03*
Y370000D02*
D03*
X246000Y420000D02*
D03*
Y520000D02*
D03*
X271000Y570000D02*
D03*
X246000Y720000D02*
D03*
X296000Y20000D02*
D03*
X321000Y170000D02*
D03*
Y470000D02*
D03*
Y570000D02*
D03*
X296000Y620000D02*
D03*
Y720000D02*
D03*
X321000Y770000D02*
D03*
X346000Y20000D02*
D03*
X371000Y70000D02*
D03*
X346000Y120000D02*
D03*
X371000Y270000D02*
D03*
Y370000D02*
D03*
X346000Y420000D02*
D03*
M02*
