G04 Layer_Color=16711935*
%FSLAX44Y44*%
%MOMM*%
G71*
G01*
G75*
%ADD55R,2.5032X2.5032*%
%ADD56C,2.5032*%
%ADD57C,2.7032*%
%ADD58R,2.7032X2.7032*%
%ADD59C,2.2032*%
%ADD60C,2.1032*%
%ADD61R,2.7032X2.7032*%
%ADD62R,2.1032X2.1032*%
%ADD63C,1.8032*%
%ADD64C,6.2032*%
%ADD65R,2.5032X2.5032*%
D55*
X322500Y80000D02*
D03*
D56*
X357500D02*
D03*
X430000Y300000D02*
D03*
X582400Y376200D02*
D03*
X607800Y300000D02*
D03*
X531600D02*
D03*
X430000Y376200D02*
D03*
Y120000D02*
D03*
X582400Y196200D02*
D03*
X607800Y120000D02*
D03*
X531600D02*
D03*
X430000Y196200D02*
D03*
X80000Y472500D02*
D03*
Y152500D02*
D03*
Y187500D02*
D03*
Y292501D02*
D03*
Y257500D02*
D03*
Y222501D02*
D03*
D57*
X900000Y290800D02*
D03*
Y240000D02*
D03*
X900000Y645400D02*
D03*
X240800Y50000D02*
D03*
X190000D02*
D03*
X640000Y540000D02*
D03*
Y740000D02*
D03*
X440000Y690000D02*
D03*
Y590000D02*
D03*
D58*
X900000Y189200D02*
D03*
X900000Y594600D02*
D03*
D59*
X760000Y415000D02*
D03*
Y265000D02*
D03*
Y65000D02*
D03*
Y215000D02*
D03*
X690000Y265000D02*
D03*
Y415000D02*
D03*
X690000Y215000D02*
D03*
Y65000D02*
D03*
D60*
X795000Y667500D02*
D03*
Y567500D02*
D03*
X295400Y780000D02*
D03*
X270000D02*
D03*
D61*
X139200Y50000D02*
D03*
D62*
X244600Y780000D02*
D03*
D63*
X825000Y342500D02*
D03*
Y267500D02*
D03*
Y137500D02*
D03*
Y212500D02*
D03*
D64*
X50000Y770000D02*
D03*
X900000D02*
D03*
X50000Y50000D02*
D03*
X900000D02*
D03*
D65*
X80000Y507500D02*
D03*
Y327500D02*
D03*
M02*
