M48
;Layer_Color=9474304
;FILE_FORMAT=4:4
METRIC,LZ
;TYPE=PLATED
T1F00S00C0.7112
T2F00S00C0.9000
T3F00S00C1.3000
T4F00S00C1.5000
T5F00S00C3.2000
%
T01
X0026Y00415
X004112Y004263
X0064Y004525
X00675Y0044
X006875Y004275
X00725Y0042
X00750002Y00415002
X007Y003875
T02
X006242Y004923
Y005177
X006496
Y004923
X00675
Y005177
X007004
Y004923
X007258
Y005177
T03
X011732Y001828
Y00259
X012494Y002082
X01097
X010208Y001828
Y00259
X009446Y002082
X008684Y001828
Y00259
X007922Y002082
X00716Y001828
Y00259
X006398Y002082
X005636Y001828
Y00259
X004874Y002082
X004112Y001828
Y00259
X00335Y002082
X002588Y001828
Y00259
X001826Y002082
X001064Y001828
Y00259
Y003606
X001826
X002588
X00335
X004112
X004874
X005636
X006398
X00716
X007922
X008684
X009446
X010208
X01097
X011732
X012494
T04
X012111Y000558
X012619
X011603
X011095
X010587
X010079
X009571
X009063
X008555
X008047
X007539
X007031
X006523
X006015
X005507
X004999
X004491
X003983
X003475
X002967
X002459
X001951
X001443
X000935
T05
X01325Y00035
X00035
Y00525
X01325Y005225
M30
