G04 Layer_Physical_Order=2*
G04 Layer_Color=16711680*
%FSLAX44Y44*%
%MOMM*%
G71*
G01*
G75*
%ADD12C,2.5000*%
%ADD13C,0.5000*%
%ADD14C,1.0000*%
%ADD15C,2.3000*%
%ADD16C,6.0000*%
%ADD17R,1.5000X1.5000*%
%ADD18C,1.5000*%
%ADD19R,2.5000X2.5000*%
%ADD20C,2.5000*%
%ADD21C,1.2700*%
G36*
X197500Y485000D02*
X195803D01*
Y490813D01*
X189795D01*
Y492315D01*
X195803D01*
Y496314D01*
X188859D01*
Y497816D01*
X197500D01*
Y485000D01*
D02*
G37*
G36*
X182714Y498012D02*
X183162Y497953D01*
X183553Y497894D01*
X183904Y497816D01*
X184177Y497719D01*
X184294Y497680D01*
X184391Y497660D01*
X184489Y497621D01*
X184548Y497602D01*
X184567Y497582D01*
X184587D01*
X184957Y497407D01*
X185289Y497192D01*
X185562Y496978D01*
X185777Y496782D01*
X185952Y496587D01*
X186089Y496431D01*
X186167Y496334D01*
X186186Y496314D01*
Y496295D01*
X186362Y495983D01*
X186498Y495651D01*
X186596Y495359D01*
X186654Y495066D01*
X186693Y494832D01*
X186732Y494656D01*
Y494578D01*
Y494520D01*
Y494500D01*
Y494481D01*
X186713Y494169D01*
X186654Y493856D01*
X186596Y493583D01*
X186498Y493349D01*
X186420Y493154D01*
X186362Y493018D01*
X186303Y492920D01*
X186284Y492881D01*
X186089Y492627D01*
X185874Y492393D01*
X185659Y492198D01*
X185425Y492023D01*
X185230Y491886D01*
X185074Y491789D01*
X184957Y491711D01*
X184938Y491691D01*
X184918D01*
X184782Y491613D01*
X184606Y491555D01*
X184235Y491418D01*
X183826Y491282D01*
X183416Y491145D01*
X183046Y491047D01*
X182889Y491008D01*
X182753Y490969D01*
X182636Y490930D01*
X182538Y490911D01*
X182480Y490891D01*
X182460D01*
X182148Y490813D01*
X181856Y490735D01*
X181582Y490677D01*
X181348Y490618D01*
X181153Y490560D01*
X180958Y490501D01*
X180802Y490462D01*
X180646Y490423D01*
X180529Y490384D01*
X180431Y490345D01*
X180275Y490306D01*
X180197Y490287D01*
X180178Y490267D01*
X179905Y490150D01*
X179651Y490014D01*
X179456Y489897D01*
X179300Y489779D01*
X179183Y489662D01*
X179086Y489584D01*
X179046Y489526D01*
X179027Y489506D01*
X178910Y489331D01*
X178832Y489155D01*
X178754Y488980D01*
X178715Y488804D01*
X178695Y488667D01*
X178676Y488550D01*
Y488473D01*
Y488453D01*
X178695Y488238D01*
X178734Y488043D01*
X178793Y487848D01*
X178851Y487692D01*
X178929Y487556D01*
X178988Y487458D01*
X179027Y487380D01*
X179046Y487360D01*
X179202Y487185D01*
X179378Y487029D01*
X179554Y486892D01*
X179749Y486775D01*
X179905Y486678D01*
X180041Y486619D01*
X180119Y486580D01*
X180158Y486561D01*
X180451Y486463D01*
X180744Y486405D01*
X181017Y486346D01*
X181290Y486327D01*
X181504Y486307D01*
X181700Y486288D01*
X181856D01*
X182246Y486307D01*
X182616Y486346D01*
X182967Y486405D01*
X183241Y486483D01*
X183494Y486541D01*
X183670Y486600D01*
X183787Y486639D01*
X183806Y486658D01*
X183826D01*
X184118Y486814D01*
X184391Y486970D01*
X184606Y487146D01*
X184782Y487302D01*
X184938Y487439D01*
X185035Y487556D01*
X185094Y487634D01*
X185113Y487653D01*
X185250Y487907D01*
X185367Y488160D01*
X185445Y488433D01*
X185523Y488687D01*
X185562Y488921D01*
X185601Y489097D01*
X185620Y489214D01*
Y489233D01*
Y489253D01*
X187220Y489116D01*
X187181Y488648D01*
X187103Y488219D01*
X186986Y487809D01*
X186869Y487478D01*
X186752Y487185D01*
X186693Y487068D01*
X186635Y486970D01*
X186596Y486892D01*
X186557Y486834D01*
X186537Y486814D01*
Y486795D01*
X186264Y486444D01*
X185952Y486132D01*
X185659Y485878D01*
X185347Y485663D01*
X185094Y485488D01*
X184879Y485371D01*
X184801Y485332D01*
X184743Y485293D01*
X184704Y485273D01*
X184684D01*
X184216Y485117D01*
X183728Y485000D01*
X183241Y484903D01*
X182792Y484844D01*
X182577Y484825D01*
X182382Y484805D01*
X182207D01*
X182070Y484786D01*
X181777D01*
X181270Y484805D01*
X180822Y484864D01*
X180392Y484942D01*
X180041Y485039D01*
X179729Y485117D01*
X179612Y485156D01*
X179515Y485195D01*
X179437Y485234D01*
X179378Y485254D01*
X179339Y485273D01*
X179320D01*
X178929Y485488D01*
X178578Y485702D01*
X178286Y485937D01*
X178052Y486171D01*
X177857Y486366D01*
X177740Y486522D01*
X177642Y486639D01*
X177623Y486678D01*
X177427Y487009D01*
X177291Y487360D01*
X177174Y487692D01*
X177115Y487985D01*
X177076Y488238D01*
X177037Y488433D01*
Y488512D01*
Y488570D01*
Y488590D01*
Y488609D01*
X177057Y488980D01*
X177115Y489331D01*
X177213Y489643D01*
X177310Y489897D01*
X177408Y490131D01*
X177505Y490287D01*
X177564Y490384D01*
X177583Y490423D01*
X177798Y490696D01*
X178052Y490950D01*
X178325Y491184D01*
X178598Y491379D01*
X178851Y491516D01*
X179046Y491633D01*
X179125Y491672D01*
X179163Y491711D01*
X179202Y491730D01*
X179222D01*
X179378Y491789D01*
X179573Y491867D01*
X179768Y491945D01*
X180002Y492003D01*
X180471Y492140D01*
X180939Y492276D01*
X181368Y492374D01*
X181563Y492432D01*
X181738Y492471D01*
X181875Y492510D01*
X181973Y492530D01*
X182051Y492550D01*
X182070D01*
X182441Y492647D01*
X182772Y492725D01*
X183065Y492803D01*
X183338Y492901D01*
X183572Y492979D01*
X183767Y493037D01*
X183943Y493115D01*
X184099Y493193D01*
X184235Y493252D01*
X184352Y493291D01*
X184431Y493349D01*
X184489Y493388D01*
X184587Y493447D01*
X184606Y493466D01*
X184762Y493642D01*
X184879Y493817D01*
X184977Y494012D01*
X185035Y494188D01*
X185074Y494344D01*
X185094Y494481D01*
Y494559D01*
Y494598D01*
X185055Y494890D01*
X184977Y495144D01*
X184879Y495378D01*
X184743Y495573D01*
X184625Y495749D01*
X184508Y495866D01*
X184431Y495944D01*
X184411Y495963D01*
X184274Y496061D01*
X184118Y496158D01*
X183767Y496295D01*
X183397Y496392D01*
X183026Y496451D01*
X182694Y496509D01*
X182538D01*
X182421Y496529D01*
X182168D01*
X181641Y496509D01*
X181192Y496431D01*
X180802Y496334D01*
X180490Y496217D01*
X180256Y496100D01*
X180080Y496002D01*
X179983Y495924D01*
X179944Y495905D01*
X179690Y495651D01*
X179476Y495359D01*
X179320Y495066D01*
X179202Y494773D01*
X179125Y494500D01*
X179086Y494286D01*
X179066Y494208D01*
X179046Y494149D01*
Y494110D01*
Y494090D01*
X177427Y494208D01*
X177466Y494617D01*
X177544Y494988D01*
X177661Y495339D01*
X177778Y495632D01*
X177876Y495866D01*
X177974Y496061D01*
X178052Y496178D01*
X178071Y496217D01*
X178305Y496529D01*
X178578Y496802D01*
X178851Y497036D01*
X179125Y497231D01*
X179378Y497368D01*
X179573Y497485D01*
X179651Y497524D01*
X179710Y497543D01*
X179729Y497563D01*
X179749D01*
X180158Y497719D01*
X180588Y497836D01*
X181017Y497914D01*
X181407Y497972D01*
X181738Y498012D01*
X181875D01*
X182012Y498031D01*
X182246D01*
X182714Y498012D01*
D02*
G37*
G36*
X1337500Y85000D02*
X1335803D01*
Y90813D01*
X1329795D01*
Y92315D01*
X1335803D01*
Y96314D01*
X1328859D01*
Y97816D01*
X1337500D01*
Y85000D01*
D02*
G37*
G36*
X1322714Y98012D02*
X1323163Y97953D01*
X1323553Y97894D01*
X1323904Y97816D01*
X1324177Y97719D01*
X1324294Y97680D01*
X1324391Y97660D01*
X1324489Y97621D01*
X1324547Y97602D01*
X1324567Y97582D01*
X1324586D01*
X1324957Y97407D01*
X1325289Y97192D01*
X1325562Y96978D01*
X1325776Y96783D01*
X1325952Y96587D01*
X1326089Y96431D01*
X1326167Y96334D01*
X1326186Y96314D01*
Y96295D01*
X1326362Y95983D01*
X1326498Y95651D01*
X1326596Y95358D01*
X1326654Y95066D01*
X1326693Y94832D01*
X1326732Y94656D01*
Y94578D01*
Y94520D01*
Y94500D01*
Y94481D01*
X1326713Y94169D01*
X1326654Y93856D01*
X1326596Y93583D01*
X1326498Y93349D01*
X1326420Y93154D01*
X1326362Y93018D01*
X1326303Y92920D01*
X1326284Y92881D01*
X1326089Y92627D01*
X1325874Y92393D01*
X1325659Y92198D01*
X1325425Y92023D01*
X1325230Y91886D01*
X1325074Y91789D01*
X1324957Y91711D01*
X1324938Y91691D01*
X1324918D01*
X1324782Y91613D01*
X1324606Y91555D01*
X1324235Y91418D01*
X1323826Y91281D01*
X1323416Y91145D01*
X1323045Y91047D01*
X1322889Y91008D01*
X1322753Y90969D01*
X1322636Y90930D01*
X1322538Y90911D01*
X1322480Y90891D01*
X1322460D01*
X1322148Y90813D01*
X1321855Y90735D01*
X1321582Y90677D01*
X1321348Y90618D01*
X1321153Y90560D01*
X1320958Y90501D01*
X1320802Y90462D01*
X1320646Y90423D01*
X1320529Y90384D01*
X1320432Y90345D01*
X1320275Y90306D01*
X1320197Y90287D01*
X1320178Y90267D01*
X1319905Y90150D01*
X1319651Y90014D01*
X1319456Y89896D01*
X1319300Y89779D01*
X1319183Y89662D01*
X1319086Y89584D01*
X1319046Y89526D01*
X1319027Y89506D01*
X1318910Y89331D01*
X1318832Y89155D01*
X1318754Y88980D01*
X1318715Y88804D01*
X1318695Y88667D01*
X1318676Y88551D01*
Y88472D01*
Y88453D01*
X1318695Y88238D01*
X1318734Y88043D01*
X1318793Y87848D01*
X1318851Y87692D01*
X1318929Y87556D01*
X1318988Y87458D01*
X1319027Y87380D01*
X1319046Y87361D01*
X1319203Y87185D01*
X1319378Y87029D01*
X1319554Y86892D01*
X1319749Y86775D01*
X1319905Y86678D01*
X1320041Y86619D01*
X1320119Y86580D01*
X1320158Y86561D01*
X1320451Y86463D01*
X1320744Y86405D01*
X1321017Y86346D01*
X1321290Y86327D01*
X1321504Y86307D01*
X1321699Y86288D01*
X1321855D01*
X1322246Y86307D01*
X1322616Y86346D01*
X1322967Y86405D01*
X1323241Y86483D01*
X1323494Y86541D01*
X1323670Y86600D01*
X1323787Y86639D01*
X1323806Y86658D01*
X1323826D01*
X1324118Y86814D01*
X1324391Y86970D01*
X1324606Y87146D01*
X1324782Y87302D01*
X1324938Y87439D01*
X1325035Y87556D01*
X1325094Y87634D01*
X1325113Y87653D01*
X1325250Y87907D01*
X1325367Y88160D01*
X1325445Y88434D01*
X1325523Y88687D01*
X1325562Y88921D01*
X1325601Y89097D01*
X1325620Y89214D01*
Y89233D01*
Y89253D01*
X1327220Y89116D01*
X1327181Y88648D01*
X1327103Y88219D01*
X1326986Y87809D01*
X1326869Y87478D01*
X1326752Y87185D01*
X1326693Y87068D01*
X1326635Y86970D01*
X1326596Y86892D01*
X1326557Y86834D01*
X1326537Y86814D01*
Y86795D01*
X1326264Y86444D01*
X1325952Y86132D01*
X1325659Y85878D01*
X1325347Y85663D01*
X1325094Y85488D01*
X1324879Y85371D01*
X1324801Y85332D01*
X1324743Y85293D01*
X1324704Y85273D01*
X1324684D01*
X1324216Y85117D01*
X1323728Y85000D01*
X1323241Y84903D01*
X1322792Y84844D01*
X1322577Y84825D01*
X1322382Y84805D01*
X1322207D01*
X1322070Y84786D01*
X1321777D01*
X1321270Y84805D01*
X1320822Y84864D01*
X1320392Y84942D01*
X1320041Y85039D01*
X1319729Y85117D01*
X1319612Y85156D01*
X1319515Y85195D01*
X1319437Y85234D01*
X1319378Y85254D01*
X1319339Y85273D01*
X1319320D01*
X1318929Y85488D01*
X1318578Y85702D01*
X1318286Y85936D01*
X1318052Y86171D01*
X1317856Y86366D01*
X1317740Y86522D01*
X1317642Y86639D01*
X1317622Y86678D01*
X1317427Y87009D01*
X1317291Y87361D01*
X1317174Y87692D01*
X1317115Y87985D01*
X1317076Y88238D01*
X1317037Y88434D01*
Y88511D01*
Y88570D01*
Y88589D01*
Y88609D01*
X1317057Y88980D01*
X1317115Y89331D01*
X1317213Y89643D01*
X1317310Y89896D01*
X1317408Y90131D01*
X1317505Y90287D01*
X1317564Y90384D01*
X1317583Y90423D01*
X1317798Y90696D01*
X1318052Y90950D01*
X1318325Y91184D01*
X1318598Y91379D01*
X1318851Y91516D01*
X1319046Y91633D01*
X1319124Y91672D01*
X1319164Y91711D01*
X1319203Y91730D01*
X1319222D01*
X1319378Y91789D01*
X1319573Y91867D01*
X1319768Y91945D01*
X1320002Y92003D01*
X1320470Y92140D01*
X1320939Y92276D01*
X1321368Y92374D01*
X1321563Y92432D01*
X1321738Y92471D01*
X1321875Y92510D01*
X1321973Y92530D01*
X1322051Y92549D01*
X1322070D01*
X1322441Y92647D01*
X1322772Y92725D01*
X1323065Y92803D01*
X1323338Y92901D01*
X1323572Y92979D01*
X1323767Y93037D01*
X1323943Y93115D01*
X1324099Y93193D01*
X1324235Y93252D01*
X1324352Y93291D01*
X1324430Y93349D01*
X1324489Y93388D01*
X1324586Y93447D01*
X1324606Y93466D01*
X1324762Y93642D01*
X1324879Y93817D01*
X1324977Y94012D01*
X1325035Y94188D01*
X1325074Y94344D01*
X1325094Y94481D01*
Y94559D01*
Y94598D01*
X1325055Y94890D01*
X1324977Y95144D01*
X1324879Y95378D01*
X1324743Y95573D01*
X1324626Y95749D01*
X1324509Y95866D01*
X1324430Y95944D01*
X1324411Y95963D01*
X1324274Y96061D01*
X1324118Y96158D01*
X1323767Y96295D01*
X1323397Y96392D01*
X1323026Y96451D01*
X1322694Y96509D01*
X1322538D01*
X1322421Y96529D01*
X1322168D01*
X1321641Y96509D01*
X1321192Y96431D01*
X1320802Y96334D01*
X1320490Y96217D01*
X1320256Y96100D01*
X1320080Y96002D01*
X1319983Y95924D01*
X1319944Y95905D01*
X1319690Y95651D01*
X1319476Y95358D01*
X1319320Y95066D01*
X1319203Y94773D01*
X1319124Y94500D01*
X1319086Y94286D01*
X1319066Y94208D01*
X1319046Y94149D01*
Y94110D01*
Y94090D01*
X1317427Y94208D01*
X1317466Y94617D01*
X1317544Y94988D01*
X1317661Y95339D01*
X1317778Y95632D01*
X1317876Y95866D01*
X1317974Y96061D01*
X1318052Y96178D01*
X1318071Y96217D01*
X1318305Y96529D01*
X1318578Y96802D01*
X1318851Y97036D01*
X1319124Y97231D01*
X1319378Y97368D01*
X1319573Y97485D01*
X1319651Y97524D01*
X1319710Y97543D01*
X1319729Y97563D01*
X1319749D01*
X1320158Y97719D01*
X1320587Y97836D01*
X1321017Y97914D01*
X1321407Y97972D01*
X1321738Y98012D01*
X1321875D01*
X1322012Y98031D01*
X1322246D01*
X1322714Y98012D01*
D02*
G37*
D12*
X144300Y55800D02*
Y221100D01*
X106400Y259000D02*
X144300Y221100D01*
X296700Y55800D02*
Y221100D01*
X258800Y259000D02*
X296700Y221100D01*
X449100Y55800D02*
Y221100D01*
X411200Y259000D02*
X449100Y221100D01*
X601500Y55800D02*
Y221100D01*
X563600Y259000D02*
X601500Y221100D01*
X753900Y55800D02*
Y221100D01*
X716000Y259000D02*
X753900Y221100D01*
X906300Y55800D02*
Y221100D01*
X868400Y259000D02*
X906300Y221100D01*
X1058700Y55800D02*
Y221100D01*
X1020800Y259000D02*
X1058700Y221100D01*
X1173200Y259000D02*
X1211100Y221100D01*
Y55800D02*
Y221100D01*
D13*
X1097000Y339200D02*
X1097500Y338700D01*
X1173200Y360600D02*
Y444300D01*
X735000Y400000D02*
X750002Y415002D01*
X1148610Y468890D02*
X1173200Y444300D01*
X649600Y479290D02*
Y492300D01*
Y479290D02*
X660000Y468890D01*
X1148610D01*
X1020800Y360600D02*
Y421700D01*
X411200Y426300D02*
X411391Y426110D01*
X990000Y452500D02*
X1020800Y421700D01*
X868400Y360600D02*
Y421600D01*
X850001Y440000D02*
X868400Y421600D01*
X675000Y440000D02*
X850001D01*
X260000Y415000D02*
X260090Y414910D01*
X640000Y452500D02*
X990000D01*
X411391Y426110D02*
X687500D01*
X719910Y414910D02*
X725000Y420000D01*
X260090Y414910D02*
X719910D01*
X106400Y360600D02*
X145800Y400000D01*
X735000D01*
X590500Y387500D02*
X700000D01*
X563600Y360600D02*
X590500Y387500D01*
D14*
X182600Y344900D02*
X188800Y338700D01*
X182600Y344900D02*
Y360600D01*
X1227500Y338700D02*
X1249400Y360600D01*
X1097500Y338700D02*
X1227500D01*
X1097000Y339200D02*
Y360600D01*
X944600Y339100D02*
Y360600D01*
X792200Y339000D02*
Y360600D01*
X639800Y338900D02*
Y360600D01*
X487400Y338800D02*
Y360600D01*
X335000Y338700D02*
Y360600D01*
X188800Y338700D02*
X1097500D01*
D15*
X106400Y360600D02*
D03*
X182600Y208200D02*
D03*
X106400Y182800D02*
D03*
Y259000D02*
D03*
X182600Y360600D02*
D03*
X258800D02*
D03*
X335000Y208200D02*
D03*
X258800Y182800D02*
D03*
Y259000D02*
D03*
X335000Y360600D02*
D03*
X411200D02*
D03*
X487400Y208200D02*
D03*
X411200Y182800D02*
D03*
Y259000D02*
D03*
X487400Y360600D02*
D03*
X563600D02*
D03*
X639800Y208200D02*
D03*
X563600Y182800D02*
D03*
Y259000D02*
D03*
X639800Y360600D02*
D03*
X716000D02*
D03*
X792200Y208200D02*
D03*
X716000Y182800D02*
D03*
Y259000D02*
D03*
X792200Y360600D02*
D03*
X868400D02*
D03*
X944600Y208200D02*
D03*
X868400Y182800D02*
D03*
Y259000D02*
D03*
X944600Y360600D02*
D03*
X1020800D02*
D03*
X1097000Y208200D02*
D03*
X1020800Y182800D02*
D03*
Y259000D02*
D03*
X1097000Y360600D02*
D03*
X1173200D02*
D03*
X1249400Y208200D02*
D03*
X1173200Y182800D02*
D03*
Y259000D02*
D03*
X1249400Y360600D02*
D03*
D16*
X35000Y35000D02*
D03*
X1325000Y522500D02*
D03*
Y35000D02*
D03*
X35000Y525000D02*
D03*
D17*
X624200Y492300D02*
D03*
D18*
Y517700D02*
D03*
X649600Y492300D02*
D03*
Y517700D02*
D03*
X675000Y492300D02*
D03*
Y517700D02*
D03*
X700400Y492300D02*
D03*
Y517700D02*
D03*
X725800Y492300D02*
D03*
Y517700D02*
D03*
D19*
X1160300Y55800D02*
D03*
X93500D02*
D03*
X245900D02*
D03*
X398300D02*
D03*
X550700D02*
D03*
X703100D02*
D03*
X855500D02*
D03*
X1007900D02*
D03*
D20*
X1211100D02*
D03*
X1261900D02*
D03*
X195100D02*
D03*
X144300D02*
D03*
X347500D02*
D03*
X296700D02*
D03*
X499900D02*
D03*
X449100D02*
D03*
X652300D02*
D03*
X601500D02*
D03*
X804700D02*
D03*
X753900D02*
D03*
X957100D02*
D03*
X906300D02*
D03*
X1109500D02*
D03*
X1058700D02*
D03*
D21*
X750002Y415002D02*
D03*
X411200Y426300D02*
D03*
X260000Y415000D02*
D03*
X640000Y452500D02*
D03*
X675000Y440000D02*
D03*
X687500Y427500D02*
D03*
X725000Y420000D02*
D03*
X700000Y387500D02*
D03*
M02*
