G04 Layer_Color=2752767*
%FSLAX44Y44*%
%MOMM*%
G71*
G01*
G75*
%ADD35C,0.0508*%
%ADD36C,0.0677*%
D35*
X104368Y358568D02*
Y362632D01*
X108432D01*
Y358568D01*
X104368D01*
X180568Y206168D02*
Y210232D01*
X184632D01*
Y206168D01*
X180568D01*
X104368Y180768D02*
Y184832D01*
X108432D01*
Y180768D01*
X104368D01*
Y256968D02*
Y261032D01*
X108432D01*
Y256968D01*
X104368D01*
X180568Y358568D02*
Y362632D01*
X184632D01*
Y358568D01*
X180568D01*
X256768D02*
Y362632D01*
X260832D01*
Y358568D01*
X256768D01*
X332968Y206168D02*
Y210232D01*
X337032D01*
Y206168D01*
X332968D01*
X256768Y180768D02*
Y184832D01*
X260832D01*
Y180768D01*
X256768D01*
Y256968D02*
Y261032D01*
X260832D01*
Y256968D01*
X256768D01*
X332968Y358568D02*
Y362632D01*
X337032D01*
Y358568D01*
X332968D01*
X409168D02*
Y362632D01*
X413232D01*
Y358568D01*
X409168D01*
X485368Y206168D02*
Y210232D01*
X489432D01*
Y206168D01*
X485368D01*
X409168Y180768D02*
Y184832D01*
X413232D01*
Y180768D01*
X409168D01*
Y256968D02*
Y261032D01*
X413232D01*
Y256968D01*
X409168D01*
X485368Y358568D02*
Y362632D01*
X489432D01*
Y358568D01*
X485368D01*
X561568D02*
Y362632D01*
X565632D01*
Y358568D01*
X561568D01*
X637768Y206168D02*
Y210232D01*
X641832D01*
Y206168D01*
X637768D01*
X561568Y180768D02*
Y184832D01*
X565632D01*
Y180768D01*
X561568D01*
Y256968D02*
Y261032D01*
X565632D01*
Y256968D01*
X561568D01*
X637768Y358568D02*
Y362632D01*
X641832D01*
Y358568D01*
X637768D01*
X713968D02*
Y362632D01*
X718032D01*
Y358568D01*
X713968D01*
X790168Y206168D02*
Y210232D01*
X794232D01*
Y206168D01*
X790168D01*
X713968Y180768D02*
Y184832D01*
X718032D01*
Y180768D01*
X713968D01*
Y256968D02*
Y261032D01*
X718032D01*
Y256968D01*
X713968D01*
X790168Y358568D02*
Y362632D01*
X794232D01*
Y358568D01*
X790168D01*
X866368D02*
Y362632D01*
X870432D01*
Y358568D01*
X866368D01*
X942568Y206168D02*
Y210232D01*
X946632D01*
Y206168D01*
X942568D01*
X866368Y180768D02*
Y184832D01*
X870432D01*
Y180768D01*
X866368D01*
Y256968D02*
Y261032D01*
X870432D01*
Y256968D01*
X866368D01*
X942568Y358568D02*
Y362632D01*
X946632D01*
Y358568D01*
X942568D01*
X1018768D02*
Y362632D01*
X1022832D01*
Y358568D01*
X1018768D01*
X1094968Y206168D02*
Y210232D01*
X1099032D01*
Y206168D01*
X1094968D01*
X1018768Y180768D02*
Y184832D01*
X1022832D01*
Y180768D01*
X1018768D01*
Y256968D02*
Y261032D01*
X1022832D01*
Y256968D01*
X1018768D01*
X1094968Y358568D02*
Y362632D01*
X1099032D01*
Y358568D01*
X1094968D01*
X1171168D02*
Y362632D01*
X1175232D01*
Y358568D01*
X1171168D01*
X1247368Y206168D02*
Y210232D01*
X1251432D01*
Y206168D01*
X1247368D01*
X1171168Y180768D02*
Y184832D01*
X1175232D01*
Y180768D01*
X1171168D01*
Y256968D02*
Y261032D01*
X1175232D01*
Y256968D01*
X1171168D01*
X1247368Y358568D02*
Y362632D01*
X1251432D01*
Y358568D01*
X1247368D01*
X624200Y490268D02*
X622168Y494332D01*
X626232D01*
X624200Y490268D01*
Y515668D02*
X622168Y519732D01*
X626232D01*
X624200Y515668D01*
X649600Y490268D02*
X647568Y494332D01*
X651632D01*
X649600Y490268D01*
Y515668D02*
X647568Y519732D01*
X651632D01*
X649600Y515668D01*
X675000Y490268D02*
X672968Y494332D01*
X677032D01*
X675000Y490268D01*
Y515668D02*
X672968Y519732D01*
X677032D01*
X675000Y515668D01*
X700400Y490268D02*
X698368Y494332D01*
X702432D01*
X700400Y490268D01*
Y515668D02*
X698368Y519732D01*
X702432D01*
X700400Y515668D01*
X725800Y490268D02*
X723768Y494332D01*
X727832D01*
X725800Y490268D01*
Y515668D02*
X723768Y519732D01*
X727832D01*
X725800Y515668D01*
X1160300Y53768D02*
X1161316Y54784D01*
X1162332D01*
X1161316Y55800D01*
X1162332Y56816D01*
X1161316D01*
X1160300Y57832D01*
X1159284Y56816D01*
X1158268D01*
X1159284Y55800D01*
X1158268Y54784D01*
X1159284D01*
X1160300Y53768D01*
X1211100D02*
X1212116Y54784D01*
X1213132D01*
X1212116Y55800D01*
X1213132Y56816D01*
X1212116D01*
X1211100Y57832D01*
X1210084Y56816D01*
X1209068D01*
X1210084Y55800D01*
X1209068Y54784D01*
X1210084D01*
X1211100Y53768D01*
X1261900D02*
X1262916Y54784D01*
X1263932D01*
X1262916Y55800D01*
X1263932Y56816D01*
X1262916D01*
X1261900Y57832D01*
X1260884Y56816D01*
X1259868D01*
X1260884Y55800D01*
X1259868Y54784D01*
X1260884D01*
X1261900Y53768D01*
X195100D02*
X196116Y54784D01*
X197132D01*
X196116Y55800D01*
X197132Y56816D01*
X196116D01*
X195100Y57832D01*
X194084Y56816D01*
X193068D01*
X194084Y55800D01*
X193068Y54784D01*
X194084D01*
X195100Y53768D01*
X144300D02*
X145316Y54784D01*
X146332D01*
X145316Y55800D01*
X146332Y56816D01*
X145316D01*
X144300Y57832D01*
X143284Y56816D01*
X142268D01*
X143284Y55800D01*
X142268Y54784D01*
X143284D01*
X144300Y53768D01*
X93500D02*
X94516Y54784D01*
X95532D01*
X94516Y55800D01*
X95532Y56816D01*
X94516D01*
X93500Y57832D01*
X92484Y56816D01*
X91468D01*
X92484Y55800D01*
X91468Y54784D01*
X92484D01*
X93500Y53768D01*
X347500D02*
X348516Y54784D01*
X349532D01*
X348516Y55800D01*
X349532Y56816D01*
X348516D01*
X347500Y57832D01*
X346484Y56816D01*
X345468D01*
X346484Y55800D01*
X345468Y54784D01*
X346484D01*
X347500Y53768D01*
X296700D02*
X297716Y54784D01*
X298732D01*
X297716Y55800D01*
X298732Y56816D01*
X297716D01*
X296700Y57832D01*
X295684Y56816D01*
X294668D01*
X295684Y55800D01*
X294668Y54784D01*
X295684D01*
X296700Y53768D01*
X245900D02*
X246916Y54784D01*
X247932D01*
X246916Y55800D01*
X247932Y56816D01*
X246916D01*
X245900Y57832D01*
X244884Y56816D01*
X243868D01*
X244884Y55800D01*
X243868Y54784D01*
X244884D01*
X245900Y53768D01*
X499900D02*
X500916Y54784D01*
X501932D01*
X500916Y55800D01*
X501932Y56816D01*
X500916D01*
X499900Y57832D01*
X498884Y56816D01*
X497868D01*
X498884Y55800D01*
X497868Y54784D01*
X498884D01*
X499900Y53768D01*
X449100D02*
X450116Y54784D01*
X451132D01*
X450116Y55800D01*
X451132Y56816D01*
X450116D01*
X449100Y57832D01*
X448084Y56816D01*
X447068D01*
X448084Y55800D01*
X447068Y54784D01*
X448084D01*
X449100Y53768D01*
X398300D02*
X399316Y54784D01*
X400332D01*
X399316Y55800D01*
X400332Y56816D01*
X399316D01*
X398300Y57832D01*
X397284Y56816D01*
X396268D01*
X397284Y55800D01*
X396268Y54784D01*
X397284D01*
X398300Y53768D01*
X652300D02*
X653316Y54784D01*
X654332D01*
X653316Y55800D01*
X654332Y56816D01*
X653316D01*
X652300Y57832D01*
X651284Y56816D01*
X650268D01*
X651284Y55800D01*
X650268Y54784D01*
X651284D01*
X652300Y53768D01*
X601500D02*
X602516Y54784D01*
X603532D01*
X602516Y55800D01*
X603532Y56816D01*
X602516D01*
X601500Y57832D01*
X600484Y56816D01*
X599468D01*
X600484Y55800D01*
X599468Y54784D01*
X600484D01*
X601500Y53768D01*
X550700D02*
X551716Y54784D01*
X552732D01*
X551716Y55800D01*
X552732Y56816D01*
X551716D01*
X550700Y57832D01*
X549684Y56816D01*
X548668D01*
X549684Y55800D01*
X548668Y54784D01*
X549684D01*
X550700Y53768D01*
X804700D02*
X805716Y54784D01*
X806732D01*
X805716Y55800D01*
X806732Y56816D01*
X805716D01*
X804700Y57832D01*
X803684Y56816D01*
X802668D01*
X803684Y55800D01*
X802668Y54784D01*
X803684D01*
X804700Y53768D01*
X753900D02*
X754916Y54784D01*
X755932D01*
X754916Y55800D01*
X755932Y56816D01*
X754916D01*
X753900Y57832D01*
X752884Y56816D01*
X751868D01*
X752884Y55800D01*
X751868Y54784D01*
X752884D01*
X753900Y53768D01*
X703100D02*
X704116Y54784D01*
X705132D01*
X704116Y55800D01*
X705132Y56816D01*
X704116D01*
X703100Y57832D01*
X702084Y56816D01*
X701068D01*
X702084Y55800D01*
X701068Y54784D01*
X702084D01*
X703100Y53768D01*
X957100D02*
X958116Y54784D01*
X959132D01*
X958116Y55800D01*
X959132Y56816D01*
X958116D01*
X957100Y57832D01*
X956084Y56816D01*
X955068D01*
X956084Y55800D01*
X955068Y54784D01*
X956084D01*
X957100Y53768D01*
X906300D02*
X907316Y54784D01*
X908332D01*
X907316Y55800D01*
X908332Y56816D01*
X907316D01*
X906300Y57832D01*
X905284Y56816D01*
X904268D01*
X905284Y55800D01*
X904268Y54784D01*
X905284D01*
X906300Y53768D01*
X855500D02*
X856516Y54784D01*
X857532D01*
X856516Y55800D01*
X857532Y56816D01*
X856516D01*
X855500Y57832D01*
X854484Y56816D01*
X853468D01*
X854484Y55800D01*
X853468Y54784D01*
X854484D01*
X855500Y53768D01*
X1109500D02*
X1110516Y54784D01*
X1111532D01*
X1110516Y55800D01*
X1111532Y56816D01*
X1110516D01*
X1109500Y57832D01*
X1108484Y56816D01*
X1107468D01*
X1108484Y55800D01*
X1107468Y54784D01*
X1108484D01*
X1109500Y53768D01*
X1058700D02*
X1059716Y54784D01*
X1060732D01*
X1059716Y55800D01*
X1060732Y56816D01*
X1059716D01*
X1058700Y57832D01*
X1057684Y56816D01*
X1056668D01*
X1057684Y55800D01*
X1056668Y54784D01*
X1057684D01*
X1058700Y53768D01*
X1007900D02*
X1008916Y54784D01*
X1009932D01*
X1008916Y55800D01*
X1009932Y56816D01*
X1008916D01*
X1007900Y57832D01*
X1006884Y56816D01*
X1005868D01*
X1006884Y55800D01*
X1005868Y54784D01*
X1006884D01*
X1007900Y53768D01*
X747970Y412970D02*
X748986Y415002D01*
X747970Y417034D01*
X750002Y416018D01*
X752034Y417034D01*
X751018Y415002D01*
X752034Y412970D01*
X750002Y413986D01*
X747970Y412970D01*
X409168Y424268D02*
X410184Y426300D01*
X409168Y428332D01*
X411200Y427316D01*
X413232Y428332D01*
X412216Y426300D01*
X413232Y424268D01*
X411200Y425284D01*
X409168Y424268D01*
X257968Y412968D02*
X258984Y415000D01*
X257968Y417032D01*
X260000Y416016D01*
X262032Y417032D01*
X261016Y415000D01*
X262032Y412968D01*
X260000Y413984D01*
X257968Y412968D01*
X637968Y450468D02*
X638984Y452500D01*
X637968Y454532D01*
X640000Y453516D01*
X642032Y454532D01*
X641016Y452500D01*
X642032Y450468D01*
X640000Y451484D01*
X637968Y450468D01*
X672968Y437968D02*
X673984Y440000D01*
X672968Y442032D01*
X675000Y441016D01*
X677032Y442032D01*
X676016Y440000D01*
X677032Y437968D01*
X675000Y438984D01*
X672968Y437968D01*
X685468Y425468D02*
X686484Y427500D01*
X685468Y429532D01*
X687500Y428516D01*
X689532Y429532D01*
X688516Y427500D01*
X689532Y425468D01*
X687500Y426484D01*
X685468Y425468D01*
X722968Y417968D02*
X723984Y420000D01*
X722968Y422032D01*
X725000Y421016D01*
X727032Y422032D01*
X726016Y420000D01*
X727032Y417968D01*
X725000Y418984D01*
X722968Y417968D01*
X697968Y385468D02*
X698984Y387500D01*
X697968Y389532D01*
X700000Y388516D01*
X702032Y389532D01*
X701016Y387500D01*
X702032Y385468D01*
X700000Y386484D01*
X697968Y385468D01*
D36*
X37032Y35000D02*
G03*
X37032Y35000I-2032J0D01*
G01*
X1327032Y522500D02*
G03*
X1327032Y522500I-2032J0D01*
G01*
Y35000D02*
G03*
X1327032Y35000I-2032J0D01*
G01*
X37032Y525000D02*
G03*
X37032Y525000I-2032J0D01*
G01*
M02*
