G04 Layer_Color=128*
%FSLAX44Y44*%
%MOMM*%
G71*
G01*
G75*
%ADD35C,0.0508*%
D35*
X99900Y360600D02*
X112900D01*
X106400Y354100D02*
Y367100D01*
X176100Y208200D02*
X189100D01*
X182600Y201700D02*
Y214700D01*
X99900Y182800D02*
X112900D01*
X106400Y176300D02*
Y189300D01*
X99900Y259000D02*
X112900D01*
X106400Y252500D02*
Y265500D01*
X176100Y360600D02*
X189100D01*
X182600Y354100D02*
Y367100D01*
X252300Y360600D02*
X265300D01*
X258800Y354100D02*
Y367100D01*
X328500Y208200D02*
X341500D01*
X335000Y201700D02*
Y214700D01*
X252300Y182800D02*
X265300D01*
X258800Y176300D02*
Y189300D01*
X252300Y259000D02*
X265300D01*
X258800Y252500D02*
Y265500D01*
X328500Y360600D02*
X341500D01*
X335000Y354100D02*
Y367100D01*
X404700Y360600D02*
X417700D01*
X411200Y354100D02*
Y367100D01*
X480900Y208200D02*
X493900D01*
X487400Y201700D02*
Y214700D01*
X404700Y182800D02*
X417700D01*
X411200Y176300D02*
Y189300D01*
X404700Y259000D02*
X417700D01*
X411200Y252500D02*
Y265500D01*
X480900Y360600D02*
X493900D01*
X487400Y354100D02*
Y367100D01*
X557100Y360600D02*
X570100D01*
X563600Y354100D02*
Y367100D01*
X633300Y208200D02*
X646300D01*
X639800Y201700D02*
Y214700D01*
X557100Y182800D02*
X570100D01*
X563600Y176300D02*
Y189300D01*
X557100Y259000D02*
X570100D01*
X563600Y252500D02*
Y265500D01*
X633300Y360600D02*
X646300D01*
X639800Y354100D02*
Y367100D01*
X709500Y360600D02*
X722500D01*
X716000Y354100D02*
Y367100D01*
X785700Y208200D02*
X798700D01*
X792200Y201700D02*
Y214700D01*
X709500Y182800D02*
X722500D01*
X716000Y176300D02*
Y189300D01*
X709500Y259000D02*
X722500D01*
X716000Y252500D02*
Y265500D01*
X785700Y360600D02*
X798700D01*
X792200Y354100D02*
Y367100D01*
X861900Y360600D02*
X874900D01*
X868400Y354100D02*
Y367100D01*
X938100Y208200D02*
X951100D01*
X944600Y201700D02*
Y214700D01*
X861900Y182800D02*
X874900D01*
X868400Y176300D02*
Y189300D01*
X861900Y259000D02*
X874900D01*
X868400Y252500D02*
Y265500D01*
X938100Y360600D02*
X951100D01*
X944600Y354100D02*
Y367100D01*
X1014300Y360600D02*
X1027300D01*
X1020800Y354100D02*
Y367100D01*
X1090500Y208200D02*
X1103500D01*
X1097000Y201700D02*
Y214700D01*
X1014300Y182800D02*
X1027300D01*
X1020800Y176300D02*
Y189300D01*
X1014300Y259000D02*
X1027300D01*
X1020800Y252500D02*
Y265500D01*
X1090500Y360600D02*
X1103500D01*
X1097000Y354100D02*
Y367100D01*
X1166700Y360600D02*
X1179700D01*
X1173200Y354100D02*
Y367100D01*
X1242900Y208200D02*
X1255900D01*
X1249400Y201700D02*
Y214700D01*
X1166700Y182800D02*
X1179700D01*
X1173200Y176300D02*
Y189300D01*
X1166700Y259000D02*
X1179700D01*
X1173200Y252500D02*
Y265500D01*
X1242900Y360600D02*
X1255900D01*
X1249400Y354100D02*
Y367100D01*
X19000Y35000D02*
X51000D01*
X35000Y19000D02*
Y51000D01*
X1309000Y522500D02*
X1341000D01*
X1325000Y506500D02*
Y538500D01*
X1309000Y35000D02*
X1341000D01*
X1325000Y19000D02*
Y51000D01*
X19000Y525000D02*
X51000D01*
X35000Y509000D02*
Y541000D01*
X619700Y492300D02*
X628700D01*
X624200Y487800D02*
Y496800D01*
X619700Y517700D02*
X628700D01*
X624200Y513200D02*
Y522200D01*
X645100Y492300D02*
X654100D01*
X649600Y487800D02*
Y496800D01*
X645100Y517700D02*
X654100D01*
X649600Y513200D02*
Y522200D01*
X670500Y492300D02*
X679500D01*
X675000Y487800D02*
Y496800D01*
X670500Y517700D02*
X679500D01*
X675000Y513200D02*
Y522200D01*
X695900Y492300D02*
X704900D01*
X700400Y487800D02*
Y496800D01*
X695900Y517700D02*
X704900D01*
X700400Y513200D02*
Y522200D01*
X721300Y492300D02*
X730300D01*
X725800Y487800D02*
Y496800D01*
X721300Y517700D02*
X730300D01*
X725800Y513200D02*
Y522200D01*
X1152800Y55800D02*
X1167800D01*
X1160300Y48300D02*
Y63300D01*
X1203600Y55800D02*
X1218600D01*
X1211100Y48300D02*
Y63300D01*
X1254400Y55800D02*
X1269400D01*
X1261900Y48300D02*
Y63300D01*
X187600Y55800D02*
X202600D01*
X195100Y48300D02*
Y63300D01*
X136800Y55800D02*
X151800D01*
X144300Y48300D02*
Y63300D01*
X86000Y55800D02*
X101000D01*
X93500Y48300D02*
Y63300D01*
X340000Y55800D02*
X355000D01*
X347500Y48300D02*
Y63300D01*
X289200Y55800D02*
X304200D01*
X296700Y48300D02*
Y63300D01*
X238400Y55800D02*
X253400D01*
X245900Y48300D02*
Y63300D01*
X492400Y55800D02*
X507400D01*
X499900Y48300D02*
Y63300D01*
X441600Y55800D02*
X456600D01*
X449100Y48300D02*
Y63300D01*
X390800Y55800D02*
X405800D01*
X398300Y48300D02*
Y63300D01*
X644800Y55800D02*
X659800D01*
X652300Y48300D02*
Y63300D01*
X594000Y55800D02*
X609000D01*
X601500Y48300D02*
Y63300D01*
X543200Y55800D02*
X558200D01*
X550700Y48300D02*
Y63300D01*
X797200Y55800D02*
X812200D01*
X804700Y48300D02*
Y63300D01*
X746400Y55800D02*
X761400D01*
X753900Y48300D02*
Y63300D01*
X695600Y55800D02*
X710600D01*
X703100Y48300D02*
Y63300D01*
X949600Y55800D02*
X964600D01*
X957100Y48300D02*
Y63300D01*
X898800Y55800D02*
X913800D01*
X906300Y48300D02*
Y63300D01*
X848000Y55800D02*
X863000D01*
X855500Y48300D02*
Y63300D01*
X1102000Y55800D02*
X1117000D01*
X1109500Y48300D02*
Y63300D01*
X1051200Y55800D02*
X1066200D01*
X1058700Y48300D02*
Y63300D01*
X1000400Y55800D02*
X1015400D01*
X1007900Y48300D02*
Y63300D01*
X746446Y415002D02*
X753558D01*
X750002Y411446D02*
Y418558D01*
X407644Y426300D02*
X414756D01*
X411200Y422744D02*
Y429856D01*
X256444Y415000D02*
X263556D01*
X260000Y411444D02*
Y418556D01*
X636444Y452500D02*
X643556D01*
X640000Y448944D02*
Y456056D01*
X671444Y440000D02*
X678556D01*
X675000Y436444D02*
Y443556D01*
X683944Y427500D02*
X691056D01*
X687500Y423944D02*
Y431056D01*
X721444Y420000D02*
X728556D01*
X725000Y416444D02*
Y423556D01*
X696444Y387500D02*
X703556D01*
X700000Y383944D02*
Y391056D01*
M02*
